G75*
%MOIN*%
%OFA0B0*%
%FSLAX25Y25*%
%IPPOS*%
%LPD*%
%AMOC8*
5,1,8,0,0,1.08239X$1,22.5*
%
%ADD10C,0.06000*%
%ADD11R,0.09554X0.09554*%
%ADD12R,0.08372X0.08372*%
%ADD13OC8,0.06000*%
%ADD14R,0.06000X0.06000*%
%ADD15C,0.06000*%
%ADD16OC8,0.06800*%
%ADD17R,0.06900X0.06900*%
%ADD18C,0.06900*%
%ADD19C,0.12388*%
%ADD20C,0.06800*%
%ADD21OC8,0.07000*%
%ADD22OC8,0.06343*%
%ADD23C,0.08274*%
%ADD24R,0.07131X0.07131*%
%ADD25OC8,0.07131*%
%ADD26R,0.12668X0.12668*%
%ADD27C,0.05556*%
D10*
X0265798Y0113500D02*
X0271398Y0113500D01*
X0295798Y0113500D02*
X0301398Y0113500D01*
X0301398Y0123500D02*
X0295798Y0123500D01*
X0271398Y0123500D02*
X0265798Y0123500D01*
X0265798Y0133500D02*
X0271398Y0133500D01*
X0271398Y0143500D02*
X0265798Y0143500D01*
X0265798Y0153500D02*
X0271398Y0153500D01*
X0295798Y0153500D02*
X0301398Y0153500D01*
X0301398Y0143500D02*
X0295798Y0143500D01*
X0295798Y0133500D02*
X0301398Y0133500D01*
X0301398Y0163500D02*
X0295798Y0163500D01*
X0271398Y0163500D02*
X0265798Y0163500D01*
X0265798Y0173500D02*
X0271398Y0173500D01*
X0295798Y0173500D02*
X0301398Y0173500D01*
X0301398Y0183500D02*
X0295798Y0183500D01*
X0271398Y0183500D02*
X0265798Y0183500D01*
X0173898Y0178500D02*
X0168298Y0178500D01*
X0168298Y0168500D02*
X0173898Y0168500D01*
X0173898Y0158500D02*
X0168298Y0158500D01*
X0168298Y0148500D02*
X0173898Y0148500D01*
X0173898Y0138500D02*
X0168298Y0138500D01*
X0168298Y0128500D02*
X0173898Y0128500D01*
X0173898Y0118500D02*
X0168298Y0118500D01*
X0143898Y0118500D02*
X0138298Y0118500D01*
X0138298Y0128500D02*
X0143898Y0128500D01*
X0143898Y0138500D02*
X0138298Y0138500D01*
X0138298Y0148500D02*
X0143898Y0148500D01*
X0143898Y0158500D02*
X0138298Y0158500D01*
X0138298Y0168500D02*
X0143898Y0168500D01*
X0143898Y0178500D02*
X0138298Y0178500D01*
X0138298Y0188500D02*
X0143898Y0188500D01*
X0168298Y0188500D02*
X0173898Y0188500D01*
X0393298Y0183500D02*
X0398898Y0183500D01*
X0398898Y0193500D02*
X0393298Y0193500D01*
X0423298Y0193500D02*
X0428898Y0193500D01*
X0428898Y0183500D02*
X0423298Y0183500D01*
X0423298Y0173500D02*
X0428898Y0173500D01*
X0428898Y0163500D02*
X0423298Y0163500D01*
X0423298Y0153500D02*
X0428898Y0153500D01*
X0428898Y0143500D02*
X0423298Y0143500D01*
X0423298Y0133500D02*
X0428898Y0133500D01*
X0428898Y0123500D02*
X0423298Y0123500D01*
X0398898Y0123500D02*
X0393298Y0123500D01*
X0393298Y0133500D02*
X0398898Y0133500D01*
X0398898Y0143500D02*
X0393298Y0143500D01*
X0393298Y0153500D02*
X0398898Y0153500D01*
X0398898Y0163500D02*
X0393298Y0163500D01*
X0393298Y0173500D02*
X0398898Y0173500D01*
X0388898Y0078500D02*
X0383298Y0078500D01*
X0358898Y0078500D02*
X0353298Y0078500D01*
X0353298Y0068500D02*
X0358898Y0068500D01*
X0358898Y0058500D02*
X0353298Y0058500D01*
X0353298Y0048500D02*
X0358898Y0048500D01*
X0383298Y0048500D02*
X0388898Y0048500D01*
X0388898Y0038500D02*
X0383298Y0038500D01*
X0358898Y0038500D02*
X0353298Y0038500D01*
X0353298Y0028500D02*
X0358898Y0028500D01*
X0383298Y0028500D02*
X0388898Y0028500D01*
X0388898Y0018500D02*
X0383298Y0018500D01*
X0358898Y0018500D02*
X0353298Y0018500D01*
X0383298Y0058500D02*
X0388898Y0058500D01*
X0388898Y0068500D02*
X0383298Y0068500D01*
D11*
X0057043Y0031000D03*
X0089406Y0031000D03*
X0089406Y0081000D03*
X0057043Y0081000D03*
X0057043Y0131000D03*
X0089406Y0131000D03*
X0089406Y0181000D03*
X0057043Y0181000D03*
D12*
X0101610Y0181000D03*
X0101610Y0131000D03*
X0101610Y0081000D03*
X0101610Y0031000D03*
D13*
X0096098Y0056000D03*
X0088598Y0056000D03*
X0058598Y0056000D03*
X0126098Y0056000D03*
X0141098Y0066000D03*
X0136098Y0073500D03*
X0146098Y0073500D03*
X0166098Y0083500D03*
X0181098Y0083500D03*
X0196098Y0083500D03*
X0211098Y0081000D03*
X0221098Y0081000D03*
X0236098Y0083500D03*
X0243598Y0088500D03*
X0236098Y0093500D03*
X0256098Y0083500D03*
X0286098Y0083500D03*
X0311098Y0078500D03*
X0311098Y0068500D03*
X0296098Y0063500D03*
X0311098Y0058500D03*
X0341098Y0058500D03*
X0341098Y0068500D03*
X0341098Y0078500D03*
X0341098Y0088500D03*
X0311098Y0088500D03*
X0383598Y0086000D03*
X0396098Y0088500D03*
X0396098Y0078500D03*
X0396098Y0068500D03*
X0426098Y0068500D03*
X0426098Y0078500D03*
X0426098Y0088500D03*
X0465098Y0088500D03*
X0465098Y0063500D03*
X0441098Y0048500D03*
X0431098Y0048500D03*
X0416098Y0048500D03*
X0406098Y0048500D03*
X0411098Y0041000D03*
X0436098Y0041000D03*
X0465098Y0038500D03*
X0436098Y0028500D03*
X0436098Y0018500D03*
X0465098Y0013500D03*
X0406098Y0018500D03*
X0406098Y0028500D03*
X0296098Y0043500D03*
X0246098Y0058500D03*
X0241098Y0048500D03*
X0216098Y0058500D03*
X0206098Y0053500D03*
X0196098Y0063500D03*
X0181098Y0063500D03*
X0176098Y0053500D03*
X0166098Y0053500D03*
X0241098Y0028500D03*
X0236098Y0016000D03*
X0266098Y0016000D03*
X0148598Y0096000D03*
X0148598Y0106000D03*
X0128598Y0106000D03*
X0128598Y0096000D03*
X0088598Y0106000D03*
X0058598Y0106000D03*
X0111098Y0138500D03*
X0131098Y0138500D03*
X0128598Y0148500D03*
X0128598Y0158500D03*
X0108598Y0158500D03*
X0098598Y0168500D03*
X0128598Y0168500D03*
X0086098Y0156000D03*
X0098598Y0148500D03*
X0056098Y0156000D03*
X0116098Y0186000D03*
X0101098Y0198500D03*
X0131098Y0198500D03*
X0141098Y0198500D03*
X0171098Y0198500D03*
X0183598Y0193500D03*
X0183598Y0173500D03*
X0181098Y0158500D03*
X0191098Y0148500D03*
X0191098Y0128500D03*
X0181098Y0128500D03*
X0211098Y0111000D03*
X0221098Y0111000D03*
X0311098Y0128500D03*
X0321098Y0128500D03*
X0331098Y0133500D03*
X0341098Y0143500D03*
X0321098Y0148500D03*
X0311098Y0148500D03*
X0346098Y0153500D03*
X0366098Y0153500D03*
X0371098Y0143500D03*
X0383598Y0163500D03*
X0331098Y0163500D03*
X0321098Y0163500D03*
X0311098Y0163500D03*
X0331098Y0173500D03*
X0331098Y0193500D03*
X0321098Y0193500D03*
X0311098Y0193500D03*
X0293598Y0193500D03*
X0273598Y0193500D03*
X0383598Y0193500D03*
X0436098Y0193500D03*
X0446098Y0193500D03*
X0465098Y0198500D03*
X0465098Y0173500D03*
X0446098Y0173500D03*
X0436098Y0163500D03*
X0465098Y0148500D03*
X0465098Y0123500D03*
X0383598Y0116000D03*
D14*
X0383598Y0123500D03*
X0465098Y0113500D03*
X0465098Y0098500D03*
X0465098Y0073500D03*
X0465098Y0048500D03*
X0465098Y0023500D03*
X0465098Y0138500D03*
X0465098Y0163500D03*
X0465098Y0188500D03*
X0126098Y0186000D03*
D15*
X0383598Y0153500D03*
X0441098Y0143500D03*
X0441098Y0133500D03*
X0441098Y0123500D03*
X0441098Y0113500D03*
X0441098Y0103500D03*
X0441098Y0093500D03*
X0441098Y0083500D03*
X0441098Y0073500D03*
X0441098Y0063500D03*
D16*
X0198598Y0096000D03*
X0188598Y0096000D03*
X0178598Y0096000D03*
X0168598Y0096000D03*
X0158598Y0096000D03*
X0158598Y0106000D03*
X0168598Y0106000D03*
X0178598Y0106000D03*
X0188598Y0106000D03*
X0198598Y0106000D03*
D17*
X0113598Y0121000D03*
X0113598Y0081000D03*
D18*
X0123598Y0081000D03*
X0123598Y0121000D03*
D19*
X0187598Y0039494D02*
X0187598Y0027506D01*
X0206098Y0027506D02*
X0206098Y0039494D01*
X0224598Y0039494D02*
X0224598Y0027506D01*
D20*
X0453598Y0061000D03*
X0453598Y0071000D03*
X0453598Y0081000D03*
X0453598Y0091000D03*
X0453598Y0101000D03*
X0453598Y0111000D03*
X0453598Y0121000D03*
X0453598Y0131000D03*
X0453598Y0141000D03*
X0453598Y0151000D03*
D21*
X0286098Y0033500D03*
X0276098Y0023500D03*
X0296098Y0023500D03*
D22*
X0245783Y0119976D03*
X0235941Y0119976D03*
X0226098Y0119976D03*
X0216256Y0119976D03*
X0206413Y0119976D03*
X0206413Y0192024D03*
X0216256Y0192024D03*
X0226098Y0192024D03*
X0235941Y0192024D03*
X0245783Y0192024D03*
D23*
X0257594Y0160331D03*
X0194602Y0160331D03*
D24*
X0328539Y0120843D03*
X0113539Y0043343D03*
D25*
X0113539Y0033500D03*
X0113539Y0023657D03*
X0328539Y0101157D03*
X0328539Y0111000D03*
D26*
X0356098Y0128717D03*
X0356098Y0093283D03*
X0141098Y0051217D03*
X0141098Y0015783D03*
D27*
X0253520Y0043500D02*
X0258676Y0043500D01*
X0258676Y0053500D02*
X0253520Y0053500D01*
X0253520Y0063500D02*
X0258676Y0063500D01*
X0258676Y0073500D02*
X0253520Y0073500D01*
X0283520Y0073500D02*
X0288676Y0073500D01*
X0288676Y0063500D02*
X0283520Y0063500D01*
X0283520Y0053500D02*
X0288676Y0053500D01*
X0308520Y0048500D02*
X0313676Y0048500D01*
X0288676Y0043500D02*
X0283520Y0043500D01*
X0308520Y0038500D02*
X0313676Y0038500D01*
X0313676Y0028500D02*
X0308520Y0028500D01*
X0308520Y0018500D02*
X0313676Y0018500D01*
X0338520Y0018500D02*
X0343676Y0018500D01*
X0343676Y0028500D02*
X0338520Y0028500D01*
X0338520Y0038500D02*
X0343676Y0038500D01*
X0343676Y0048500D02*
X0338520Y0048500D01*
X0338520Y0163500D02*
X0343676Y0163500D01*
X0368520Y0163500D02*
X0373676Y0163500D01*
X0373676Y0173500D02*
X0368520Y0173500D01*
X0343676Y0173500D02*
X0338520Y0173500D01*
X0338520Y0183500D02*
X0343676Y0183500D01*
X0343676Y0193500D02*
X0338520Y0193500D01*
X0368520Y0193500D02*
X0373676Y0193500D01*
X0373676Y0183500D02*
X0368520Y0183500D01*
M02*
