G75*
%MOIN*%
%OFA0B0*%
%FSLAX25Y25*%
%IPPOS*%
%LPD*%
%AMOC8*
5,1,8,0,0,1.08239X$1,22.5*
%
%ADD10C,0.00000*%
D10*
X0051098Y0008500D02*
X0472358Y0008500D01*
X0472358Y0203382D01*
X0051098Y0203382D01*
X0051098Y0008500D01*
X0190665Y0160331D02*
X0190667Y0160456D01*
X0190673Y0160581D01*
X0190683Y0160705D01*
X0190697Y0160829D01*
X0190714Y0160953D01*
X0190736Y0161076D01*
X0190762Y0161198D01*
X0190791Y0161320D01*
X0190824Y0161440D01*
X0190862Y0161559D01*
X0190902Y0161678D01*
X0190947Y0161794D01*
X0190995Y0161909D01*
X0191047Y0162023D01*
X0191103Y0162135D01*
X0191162Y0162245D01*
X0191224Y0162353D01*
X0191290Y0162460D01*
X0191359Y0162564D01*
X0191432Y0162665D01*
X0191507Y0162765D01*
X0191586Y0162862D01*
X0191668Y0162956D01*
X0191753Y0163048D01*
X0191840Y0163137D01*
X0191931Y0163223D01*
X0192024Y0163306D01*
X0192120Y0163387D01*
X0192218Y0163464D01*
X0192318Y0163538D01*
X0192421Y0163609D01*
X0192526Y0163676D01*
X0192634Y0163741D01*
X0192743Y0163801D01*
X0192854Y0163859D01*
X0192967Y0163912D01*
X0193081Y0163962D01*
X0193197Y0164009D01*
X0193314Y0164051D01*
X0193433Y0164090D01*
X0193553Y0164126D01*
X0193674Y0164157D01*
X0193796Y0164185D01*
X0193918Y0164208D01*
X0194042Y0164228D01*
X0194166Y0164244D01*
X0194290Y0164256D01*
X0194415Y0164264D01*
X0194540Y0164268D01*
X0194664Y0164268D01*
X0194789Y0164264D01*
X0194914Y0164256D01*
X0195038Y0164244D01*
X0195162Y0164228D01*
X0195286Y0164208D01*
X0195408Y0164185D01*
X0195530Y0164157D01*
X0195651Y0164126D01*
X0195771Y0164090D01*
X0195890Y0164051D01*
X0196007Y0164009D01*
X0196123Y0163962D01*
X0196237Y0163912D01*
X0196350Y0163859D01*
X0196461Y0163801D01*
X0196571Y0163741D01*
X0196678Y0163676D01*
X0196783Y0163609D01*
X0196886Y0163538D01*
X0196986Y0163464D01*
X0197084Y0163387D01*
X0197180Y0163306D01*
X0197273Y0163223D01*
X0197364Y0163137D01*
X0197451Y0163048D01*
X0197536Y0162956D01*
X0197618Y0162862D01*
X0197697Y0162765D01*
X0197772Y0162665D01*
X0197845Y0162564D01*
X0197914Y0162460D01*
X0197980Y0162353D01*
X0198042Y0162245D01*
X0198101Y0162135D01*
X0198157Y0162023D01*
X0198209Y0161909D01*
X0198257Y0161794D01*
X0198302Y0161678D01*
X0198342Y0161559D01*
X0198380Y0161440D01*
X0198413Y0161320D01*
X0198442Y0161198D01*
X0198468Y0161076D01*
X0198490Y0160953D01*
X0198507Y0160829D01*
X0198521Y0160705D01*
X0198531Y0160581D01*
X0198537Y0160456D01*
X0198539Y0160331D01*
X0198537Y0160206D01*
X0198531Y0160081D01*
X0198521Y0159957D01*
X0198507Y0159833D01*
X0198490Y0159709D01*
X0198468Y0159586D01*
X0198442Y0159464D01*
X0198413Y0159342D01*
X0198380Y0159222D01*
X0198342Y0159103D01*
X0198302Y0158984D01*
X0198257Y0158868D01*
X0198209Y0158753D01*
X0198157Y0158639D01*
X0198101Y0158527D01*
X0198042Y0158417D01*
X0197980Y0158309D01*
X0197914Y0158202D01*
X0197845Y0158098D01*
X0197772Y0157997D01*
X0197697Y0157897D01*
X0197618Y0157800D01*
X0197536Y0157706D01*
X0197451Y0157614D01*
X0197364Y0157525D01*
X0197273Y0157439D01*
X0197180Y0157356D01*
X0197084Y0157275D01*
X0196986Y0157198D01*
X0196886Y0157124D01*
X0196783Y0157053D01*
X0196678Y0156986D01*
X0196570Y0156921D01*
X0196461Y0156861D01*
X0196350Y0156803D01*
X0196237Y0156750D01*
X0196123Y0156700D01*
X0196007Y0156653D01*
X0195890Y0156611D01*
X0195771Y0156572D01*
X0195651Y0156536D01*
X0195530Y0156505D01*
X0195408Y0156477D01*
X0195286Y0156454D01*
X0195162Y0156434D01*
X0195038Y0156418D01*
X0194914Y0156406D01*
X0194789Y0156398D01*
X0194664Y0156394D01*
X0194540Y0156394D01*
X0194415Y0156398D01*
X0194290Y0156406D01*
X0194166Y0156418D01*
X0194042Y0156434D01*
X0193918Y0156454D01*
X0193796Y0156477D01*
X0193674Y0156505D01*
X0193553Y0156536D01*
X0193433Y0156572D01*
X0193314Y0156611D01*
X0193197Y0156653D01*
X0193081Y0156700D01*
X0192967Y0156750D01*
X0192854Y0156803D01*
X0192743Y0156861D01*
X0192633Y0156921D01*
X0192526Y0156986D01*
X0192421Y0157053D01*
X0192318Y0157124D01*
X0192218Y0157198D01*
X0192120Y0157275D01*
X0192024Y0157356D01*
X0191931Y0157439D01*
X0191840Y0157525D01*
X0191753Y0157614D01*
X0191668Y0157706D01*
X0191586Y0157800D01*
X0191507Y0157897D01*
X0191432Y0157997D01*
X0191359Y0158098D01*
X0191290Y0158202D01*
X0191224Y0158309D01*
X0191162Y0158417D01*
X0191103Y0158527D01*
X0191047Y0158639D01*
X0190995Y0158753D01*
X0190947Y0158868D01*
X0190902Y0158984D01*
X0190862Y0159103D01*
X0190824Y0159222D01*
X0190791Y0159342D01*
X0190762Y0159464D01*
X0190736Y0159586D01*
X0190714Y0159709D01*
X0190697Y0159833D01*
X0190683Y0159957D01*
X0190673Y0160081D01*
X0190667Y0160206D01*
X0190665Y0160331D01*
X0253657Y0160331D02*
X0253659Y0160456D01*
X0253665Y0160581D01*
X0253675Y0160705D01*
X0253689Y0160829D01*
X0253706Y0160953D01*
X0253728Y0161076D01*
X0253754Y0161198D01*
X0253783Y0161320D01*
X0253816Y0161440D01*
X0253854Y0161559D01*
X0253894Y0161678D01*
X0253939Y0161794D01*
X0253987Y0161909D01*
X0254039Y0162023D01*
X0254095Y0162135D01*
X0254154Y0162245D01*
X0254216Y0162353D01*
X0254282Y0162460D01*
X0254351Y0162564D01*
X0254424Y0162665D01*
X0254499Y0162765D01*
X0254578Y0162862D01*
X0254660Y0162956D01*
X0254745Y0163048D01*
X0254832Y0163137D01*
X0254923Y0163223D01*
X0255016Y0163306D01*
X0255112Y0163387D01*
X0255210Y0163464D01*
X0255310Y0163538D01*
X0255413Y0163609D01*
X0255518Y0163676D01*
X0255626Y0163741D01*
X0255735Y0163801D01*
X0255846Y0163859D01*
X0255959Y0163912D01*
X0256073Y0163962D01*
X0256189Y0164009D01*
X0256306Y0164051D01*
X0256425Y0164090D01*
X0256545Y0164126D01*
X0256666Y0164157D01*
X0256788Y0164185D01*
X0256910Y0164208D01*
X0257034Y0164228D01*
X0257158Y0164244D01*
X0257282Y0164256D01*
X0257407Y0164264D01*
X0257532Y0164268D01*
X0257656Y0164268D01*
X0257781Y0164264D01*
X0257906Y0164256D01*
X0258030Y0164244D01*
X0258154Y0164228D01*
X0258278Y0164208D01*
X0258400Y0164185D01*
X0258522Y0164157D01*
X0258643Y0164126D01*
X0258763Y0164090D01*
X0258882Y0164051D01*
X0258999Y0164009D01*
X0259115Y0163962D01*
X0259229Y0163912D01*
X0259342Y0163859D01*
X0259453Y0163801D01*
X0259563Y0163741D01*
X0259670Y0163676D01*
X0259775Y0163609D01*
X0259878Y0163538D01*
X0259978Y0163464D01*
X0260076Y0163387D01*
X0260172Y0163306D01*
X0260265Y0163223D01*
X0260356Y0163137D01*
X0260443Y0163048D01*
X0260528Y0162956D01*
X0260610Y0162862D01*
X0260689Y0162765D01*
X0260764Y0162665D01*
X0260837Y0162564D01*
X0260906Y0162460D01*
X0260972Y0162353D01*
X0261034Y0162245D01*
X0261093Y0162135D01*
X0261149Y0162023D01*
X0261201Y0161909D01*
X0261249Y0161794D01*
X0261294Y0161678D01*
X0261334Y0161559D01*
X0261372Y0161440D01*
X0261405Y0161320D01*
X0261434Y0161198D01*
X0261460Y0161076D01*
X0261482Y0160953D01*
X0261499Y0160829D01*
X0261513Y0160705D01*
X0261523Y0160581D01*
X0261529Y0160456D01*
X0261531Y0160331D01*
X0261529Y0160206D01*
X0261523Y0160081D01*
X0261513Y0159957D01*
X0261499Y0159833D01*
X0261482Y0159709D01*
X0261460Y0159586D01*
X0261434Y0159464D01*
X0261405Y0159342D01*
X0261372Y0159222D01*
X0261334Y0159103D01*
X0261294Y0158984D01*
X0261249Y0158868D01*
X0261201Y0158753D01*
X0261149Y0158639D01*
X0261093Y0158527D01*
X0261034Y0158417D01*
X0260972Y0158309D01*
X0260906Y0158202D01*
X0260837Y0158098D01*
X0260764Y0157997D01*
X0260689Y0157897D01*
X0260610Y0157800D01*
X0260528Y0157706D01*
X0260443Y0157614D01*
X0260356Y0157525D01*
X0260265Y0157439D01*
X0260172Y0157356D01*
X0260076Y0157275D01*
X0259978Y0157198D01*
X0259878Y0157124D01*
X0259775Y0157053D01*
X0259670Y0156986D01*
X0259562Y0156921D01*
X0259453Y0156861D01*
X0259342Y0156803D01*
X0259229Y0156750D01*
X0259115Y0156700D01*
X0258999Y0156653D01*
X0258882Y0156611D01*
X0258763Y0156572D01*
X0258643Y0156536D01*
X0258522Y0156505D01*
X0258400Y0156477D01*
X0258278Y0156454D01*
X0258154Y0156434D01*
X0258030Y0156418D01*
X0257906Y0156406D01*
X0257781Y0156398D01*
X0257656Y0156394D01*
X0257532Y0156394D01*
X0257407Y0156398D01*
X0257282Y0156406D01*
X0257158Y0156418D01*
X0257034Y0156434D01*
X0256910Y0156454D01*
X0256788Y0156477D01*
X0256666Y0156505D01*
X0256545Y0156536D01*
X0256425Y0156572D01*
X0256306Y0156611D01*
X0256189Y0156653D01*
X0256073Y0156700D01*
X0255959Y0156750D01*
X0255846Y0156803D01*
X0255735Y0156861D01*
X0255625Y0156921D01*
X0255518Y0156986D01*
X0255413Y0157053D01*
X0255310Y0157124D01*
X0255210Y0157198D01*
X0255112Y0157275D01*
X0255016Y0157356D01*
X0254923Y0157439D01*
X0254832Y0157525D01*
X0254745Y0157614D01*
X0254660Y0157706D01*
X0254578Y0157800D01*
X0254499Y0157897D01*
X0254424Y0157997D01*
X0254351Y0158098D01*
X0254282Y0158202D01*
X0254216Y0158309D01*
X0254154Y0158417D01*
X0254095Y0158527D01*
X0254039Y0158639D01*
X0253987Y0158753D01*
X0253939Y0158868D01*
X0253894Y0158984D01*
X0253854Y0159103D01*
X0253816Y0159222D01*
X0253783Y0159342D01*
X0253754Y0159464D01*
X0253728Y0159586D01*
X0253706Y0159709D01*
X0253689Y0159833D01*
X0253675Y0159957D01*
X0253665Y0160081D01*
X0253659Y0160206D01*
X0253657Y0160331D01*
M02*
