G75*
%MOIN*%
%OFA0B0*%
%FSLAX25Y25*%
%IPPOS*%
%LPD*%
%AMOC8*
5,1,8,0,0,1.08239X$1,22.5*
%
%ADD10C,0.00600*%
%ADD11C,0.02000*%
%ADD12C,0.00300*%
%ADD13C,0.00500*%
%ADD14C,0.00900*%
%ADD15C,0.00400*%
%ADD16C,0.01200*%
D10*
X0201098Y0091000D02*
X0203598Y0093500D01*
X0203598Y0108500D01*
X0201098Y0111000D01*
X0239302Y0125991D02*
X0239302Y0128927D01*
X0239302Y0127459D02*
X0234898Y0127459D01*
X0235632Y0130595D02*
X0234898Y0131329D01*
X0234898Y0133531D01*
X0237834Y0133531D01*
X0237834Y0135199D02*
X0234898Y0135199D01*
X0236366Y0135199D02*
X0237834Y0136667D01*
X0237834Y0137400D01*
X0237834Y0139035D02*
X0237834Y0139769D01*
X0234898Y0139769D01*
X0234898Y0139035D02*
X0234898Y0140503D01*
X0234898Y0142104D02*
X0237834Y0142104D01*
X0237834Y0144306D01*
X0237100Y0145040D01*
X0234898Y0145040D01*
X0235632Y0146708D02*
X0234898Y0147442D01*
X0234898Y0149644D01*
X0234164Y0149644D02*
X0237834Y0149644D01*
X0237834Y0147442D01*
X0237100Y0146708D01*
X0235632Y0146708D01*
X0233431Y0148176D02*
X0233431Y0148910D01*
X0234164Y0149644D01*
X0231568Y0147726D02*
X0230100Y0147726D01*
X0229366Y0146992D01*
X0229366Y0144790D01*
X0227898Y0144790D02*
X0232302Y0144790D01*
X0232302Y0146992D01*
X0231568Y0147726D01*
X0230100Y0149394D02*
X0230834Y0150128D01*
X0230834Y0151596D01*
X0230100Y0152330D01*
X0229366Y0152330D01*
X0229366Y0149394D01*
X0228632Y0149394D02*
X0230100Y0149394D01*
X0228632Y0149394D02*
X0227898Y0150128D01*
X0227898Y0151596D01*
X0230834Y0153998D02*
X0227898Y0155466D01*
X0230834Y0156934D01*
X0234898Y0155916D02*
X0239302Y0155916D01*
X0237834Y0157384D01*
X0239302Y0158852D01*
X0234898Y0158852D01*
X0235632Y0160520D02*
X0236366Y0161254D01*
X0236366Y0163456D01*
X0237100Y0163456D02*
X0234898Y0163456D01*
X0234898Y0161254D01*
X0235632Y0160520D01*
X0237834Y0161254D02*
X0237834Y0162722D01*
X0237100Y0163456D01*
X0237100Y0165124D02*
X0235632Y0165124D01*
X0234898Y0165858D01*
X0234898Y0168060D01*
X0234898Y0169728D02*
X0239302Y0169728D01*
X0237834Y0170462D02*
X0237834Y0171930D01*
X0237100Y0172664D01*
X0234898Y0172664D01*
X0234898Y0174332D02*
X0234898Y0175800D01*
X0234898Y0175066D02*
X0237834Y0175066D01*
X0237834Y0174332D01*
X0239302Y0175066D02*
X0240036Y0175066D01*
X0237834Y0177401D02*
X0237834Y0179603D01*
X0237100Y0180337D01*
X0234898Y0180337D01*
X0235632Y0182005D02*
X0237100Y0182005D01*
X0237834Y0182739D01*
X0237834Y0184207D01*
X0237100Y0184941D01*
X0236366Y0184941D01*
X0236366Y0182005D01*
X0235632Y0182005D02*
X0234898Y0182739D01*
X0234898Y0184207D01*
X0248898Y0184174D02*
X0248898Y0181972D01*
X0249632Y0181238D01*
X0251834Y0181238D01*
X0251834Y0179570D02*
X0251834Y0177368D01*
X0251100Y0176634D01*
X0249632Y0176634D01*
X0248898Y0177368D01*
X0248898Y0179570D01*
X0253302Y0179570D01*
X0251834Y0184174D02*
X0248898Y0184174D01*
X0248898Y0185842D02*
X0248898Y0187310D01*
X0248898Y0186576D02*
X0253302Y0186576D01*
X0253302Y0185842D01*
X0249632Y0188911D02*
X0250366Y0189645D01*
X0250366Y0191847D01*
X0251100Y0191847D02*
X0248898Y0191847D01*
X0248898Y0189645D01*
X0249632Y0188911D01*
X0251834Y0189645D02*
X0251834Y0191113D01*
X0251100Y0191847D01*
X0250366Y0193515D02*
X0251834Y0194983D01*
X0251834Y0195717D01*
X0251834Y0193515D02*
X0248898Y0193515D01*
X0237834Y0177401D02*
X0234898Y0177401D01*
X0225302Y0176567D02*
X0220898Y0176567D01*
X0220898Y0175099D02*
X0220898Y0178035D01*
X0218302Y0177268D02*
X0218302Y0174332D01*
X0216100Y0174332D01*
X0216834Y0175800D01*
X0216834Y0176534D01*
X0216100Y0177268D01*
X0214632Y0177268D01*
X0213898Y0176534D01*
X0213898Y0175066D01*
X0214632Y0174332D01*
X0213898Y0172664D02*
X0213898Y0169728D01*
X0213898Y0171196D02*
X0218302Y0171196D01*
X0216834Y0169728D01*
X0217568Y0168060D02*
X0214632Y0168060D01*
X0213898Y0167326D01*
X0213898Y0165858D01*
X0214632Y0165124D01*
X0217568Y0168060D01*
X0218302Y0167326D01*
X0218302Y0165858D01*
X0217568Y0165124D01*
X0214632Y0165124D01*
X0213898Y0163456D02*
X0213898Y0160520D01*
X0216834Y0163456D01*
X0217568Y0163456D01*
X0218302Y0162722D01*
X0218302Y0161254D01*
X0217568Y0160520D01*
X0219431Y0161288D02*
X0223834Y0161288D01*
X0223834Y0163489D01*
X0223100Y0164223D01*
X0221632Y0164223D01*
X0220898Y0163489D01*
X0220898Y0161288D01*
X0220898Y0159619D02*
X0220898Y0157418D01*
X0221632Y0156684D01*
X0223834Y0156684D01*
X0223834Y0155082D02*
X0223834Y0153614D01*
X0224568Y0154348D02*
X0221632Y0154348D01*
X0220898Y0155082D01*
X0219431Y0158152D02*
X0219431Y0158885D01*
X0220164Y0159619D01*
X0223834Y0159619D01*
X0230100Y0163206D02*
X0230100Y0166142D01*
X0227898Y0165408D02*
X0232302Y0165408D01*
X0230100Y0163206D01*
X0223834Y0166625D02*
X0223100Y0165891D01*
X0221632Y0165891D01*
X0220898Y0166625D01*
X0220898Y0168093D01*
X0222366Y0168827D02*
X0222366Y0165891D01*
X0223834Y0166625D02*
X0223834Y0168093D01*
X0223100Y0168827D01*
X0222366Y0168827D01*
X0237100Y0169728D02*
X0237834Y0170462D01*
X0237834Y0168060D02*
X0237834Y0165858D01*
X0237100Y0165124D01*
X0247431Y0160420D02*
X0248164Y0161154D01*
X0251834Y0161154D01*
X0251834Y0158952D01*
X0251100Y0158218D01*
X0249632Y0158218D01*
X0248898Y0158952D01*
X0248898Y0161154D01*
X0247431Y0160420D02*
X0247431Y0159686D01*
X0248898Y0156550D02*
X0251100Y0156550D01*
X0251834Y0155816D01*
X0251834Y0153614D01*
X0248898Y0153614D01*
X0248898Y0152013D02*
X0248898Y0150545D01*
X0248898Y0151279D02*
X0251834Y0151279D01*
X0251834Y0150545D01*
X0253302Y0151279D02*
X0254036Y0151279D01*
X0251100Y0148877D02*
X0248898Y0148877D01*
X0251100Y0148877D02*
X0251834Y0148143D01*
X0251834Y0146675D01*
X0251100Y0145941D01*
X0253302Y0145941D02*
X0248898Y0145941D01*
X0253302Y0144273D02*
X0253302Y0141337D01*
X0253302Y0142805D02*
X0248898Y0142805D01*
X0240036Y0139769D02*
X0239302Y0139769D01*
X0248898Y0135065D02*
X0248898Y0132863D01*
X0249632Y0132129D01*
X0251100Y0132129D01*
X0251834Y0132863D01*
X0251834Y0135065D01*
X0251834Y0129794D02*
X0248898Y0129794D01*
X0248898Y0129060D02*
X0248898Y0130528D01*
X0251834Y0129794D02*
X0251834Y0129060D01*
X0253302Y0129794D02*
X0254036Y0129794D01*
X0251834Y0127392D02*
X0251834Y0125190D01*
X0251100Y0124456D01*
X0250366Y0125190D01*
X0250366Y0126658D01*
X0249632Y0127392D01*
X0248898Y0126658D01*
X0248898Y0124456D01*
X0248898Y0122788D02*
X0251834Y0122788D01*
X0248898Y0122788D02*
X0248898Y0120586D01*
X0249632Y0119852D01*
X0251834Y0119852D01*
X0253302Y0118184D02*
X0248898Y0118184D01*
X0248898Y0115248D02*
X0253302Y0115248D01*
X0251834Y0116716D01*
X0253302Y0118184D01*
X0237834Y0130595D02*
X0235632Y0130595D01*
X0225302Y0132897D02*
X0225302Y0135099D01*
X0224568Y0135832D01*
X0223100Y0135832D01*
X0222366Y0135099D01*
X0222366Y0132897D01*
X0220898Y0132897D02*
X0225302Y0132897D01*
X0218302Y0133664D02*
X0216834Y0135132D01*
X0218302Y0136600D01*
X0213898Y0136600D01*
X0214632Y0138268D02*
X0215366Y0139002D01*
X0215366Y0141204D01*
X0216100Y0141204D02*
X0213898Y0141204D01*
X0213898Y0139002D01*
X0214632Y0138268D01*
X0216834Y0139002D02*
X0216834Y0140470D01*
X0216100Y0141204D01*
X0215366Y0142872D02*
X0216834Y0144340D01*
X0216834Y0145074D01*
X0216100Y0146708D02*
X0214632Y0146708D01*
X0213898Y0147442D01*
X0213898Y0149644D01*
X0213898Y0151312D02*
X0218302Y0151312D01*
X0216834Y0152046D02*
X0216834Y0153514D01*
X0216100Y0154248D01*
X0213898Y0154248D01*
X0211302Y0153898D02*
X0210568Y0154632D01*
X0209834Y0154632D01*
X0209100Y0153898D01*
X0209100Y0151696D01*
X0209100Y0150028D02*
X0209100Y0147092D01*
X0207632Y0145424D02*
X0206898Y0144690D01*
X0206898Y0143222D01*
X0207632Y0142488D01*
X0210568Y0142488D01*
X0211302Y0143222D01*
X0211302Y0144690D01*
X0210568Y0145424D01*
X0213898Y0142872D02*
X0216834Y0142872D01*
X0220898Y0143539D02*
X0221632Y0144273D01*
X0223100Y0144273D01*
X0223834Y0143539D01*
X0223834Y0142071D01*
X0223100Y0141337D01*
X0221632Y0141337D01*
X0220898Y0142071D01*
X0220898Y0143539D01*
X0223834Y0139702D02*
X0223834Y0138968D01*
X0222366Y0137501D01*
X0220898Y0137501D02*
X0223834Y0137501D01*
X0218302Y0133664D02*
X0213898Y0133664D01*
X0210568Y0137884D02*
X0207632Y0137884D01*
X0206898Y0138618D01*
X0206898Y0140086D01*
X0207632Y0140820D01*
X0210568Y0140820D02*
X0211302Y0140086D01*
X0211302Y0138618D01*
X0210568Y0137884D01*
X0216100Y0146708D02*
X0216834Y0147442D01*
X0216834Y0149644D01*
X0216100Y0151312D02*
X0216834Y0152046D01*
X0220898Y0151212D02*
X0221632Y0151946D01*
X0223100Y0151946D01*
X0223834Y0151212D01*
X0223834Y0149744D01*
X0223100Y0149010D01*
X0221632Y0149010D01*
X0220898Y0149744D01*
X0220898Y0151212D01*
X0220898Y0147409D02*
X0221632Y0146675D01*
X0224568Y0146675D01*
X0223834Y0145941D02*
X0223834Y0147409D01*
X0227898Y0147726D02*
X0229366Y0146258D01*
X0211302Y0151696D02*
X0211302Y0153898D01*
X0209100Y0153898D02*
X0208366Y0154632D01*
X0207632Y0154632D01*
X0206898Y0153898D01*
X0206898Y0151696D01*
X0211302Y0151696D01*
X0211302Y0156300D02*
X0210568Y0156300D01*
X0209100Y0157768D01*
X0206898Y0157768D01*
X0209100Y0157768D02*
X0210568Y0159236D01*
X0211302Y0159236D01*
X0209100Y0160904D02*
X0209100Y0163840D01*
X0209834Y0165508D02*
X0209100Y0166242D01*
X0209100Y0167710D01*
X0208366Y0168444D01*
X0207632Y0168444D01*
X0206898Y0167710D01*
X0206898Y0166242D01*
X0207632Y0165508D01*
X0209834Y0165508D02*
X0210568Y0165508D01*
X0211302Y0166242D01*
X0211302Y0167710D01*
X0210568Y0168444D01*
X0209834Y0170112D02*
X0211302Y0171580D01*
X0209834Y0173048D01*
X0206898Y0173048D01*
X0209100Y0173048D02*
X0209100Y0170112D01*
X0209834Y0170112D02*
X0206898Y0170112D01*
X0223834Y0175099D02*
X0225302Y0176567D01*
X0248898Y0174232D02*
X0248898Y0172764D01*
X0249632Y0172030D01*
X0251100Y0172030D01*
X0251834Y0172764D01*
X0251834Y0174232D01*
X0251100Y0174966D01*
X0249632Y0174966D01*
X0248898Y0174232D01*
X0248898Y0170362D02*
X0253302Y0170362D01*
X0251834Y0168894D01*
X0253302Y0167426D01*
X0248898Y0167426D01*
X0448598Y0153500D02*
X0448598Y0148500D01*
X0451098Y0146000D01*
X0448598Y0143500D01*
X0448598Y0138500D01*
X0451098Y0136000D01*
X0448598Y0133500D01*
X0448598Y0128500D01*
X0451098Y0126000D01*
X0448598Y0123500D01*
X0448598Y0118500D01*
X0451098Y0116000D01*
X0448598Y0113500D01*
X0448598Y0108500D01*
X0451098Y0106000D01*
X0448598Y0103500D01*
X0448598Y0098500D01*
X0451098Y0096000D01*
X0448598Y0093500D01*
X0448598Y0088500D01*
X0451098Y0086000D01*
X0448598Y0083500D01*
X0448598Y0078500D01*
X0451098Y0076000D01*
X0448598Y0073500D01*
X0448598Y0068500D01*
X0451098Y0066000D01*
X0448598Y0063500D01*
X0448598Y0058500D01*
X0451098Y0056000D01*
X0456098Y0056000D01*
X0458598Y0058500D01*
X0458598Y0063500D01*
X0456098Y0066000D01*
X0458598Y0068500D01*
X0458598Y0073500D01*
X0456098Y0076000D01*
X0458598Y0078500D01*
X0458598Y0083500D01*
X0456098Y0086000D01*
X0458598Y0088500D01*
X0458598Y0093500D01*
X0456098Y0096000D01*
X0458598Y0098500D01*
X0458598Y0103500D01*
X0456098Y0106000D01*
X0458598Y0108500D01*
X0458598Y0113500D01*
X0456098Y0116000D01*
X0458598Y0118500D01*
X0458598Y0123500D01*
X0456098Y0126000D01*
X0458598Y0128500D01*
X0458598Y0133500D01*
X0456098Y0136000D01*
X0458598Y0138500D01*
X0458598Y0143500D01*
X0456098Y0146000D01*
X0458598Y0148500D01*
X0458598Y0153500D01*
X0456098Y0156000D01*
X0451098Y0156000D01*
X0448598Y0153500D01*
D11*
X0153598Y0113500D02*
X0153598Y0088500D01*
D12*
X0206248Y0093650D02*
X0209451Y0093650D01*
X0209451Y0095251D01*
X0208917Y0095785D01*
X0207850Y0095785D01*
X0207316Y0095251D01*
X0207316Y0093650D01*
X0206782Y0096873D02*
X0206248Y0097407D01*
X0206248Y0098474D01*
X0206782Y0099008D01*
X0208917Y0099008D01*
X0209451Y0098474D01*
X0209451Y0097407D01*
X0208917Y0096873D01*
X0206782Y0096873D01*
X0206248Y0100095D02*
X0207316Y0101163D01*
X0206248Y0102231D01*
X0209451Y0102231D01*
X0209451Y0103318D02*
X0206248Y0103318D01*
X0206248Y0105453D01*
X0206248Y0106541D02*
X0209451Y0106541D01*
X0209451Y0108142D01*
X0208917Y0108676D01*
X0207850Y0108676D01*
X0207316Y0108142D01*
X0207316Y0106541D01*
X0207316Y0107609D02*
X0206248Y0108676D01*
X0209451Y0105453D02*
X0209451Y0103318D01*
X0207850Y0103318D02*
X0207850Y0104386D01*
X0209451Y0100095D02*
X0206248Y0100095D01*
D13*
X0167455Y0084107D02*
X0167455Y0083273D01*
X0167872Y0082855D01*
X0169540Y0082855D01*
X0169957Y0083273D01*
X0169957Y0084107D01*
X0169540Y0084524D01*
X0168706Y0084524D02*
X0168706Y0083690D01*
X0168706Y0084524D02*
X0167872Y0084524D01*
X0167455Y0084107D01*
X0167455Y0085618D02*
X0169957Y0085618D01*
X0167455Y0087286D01*
X0169957Y0087286D01*
X0169957Y0088380D02*
X0167455Y0088380D01*
X0167455Y0089631D01*
X0167872Y0090048D01*
X0169540Y0090048D01*
X0169957Y0089631D01*
X0169957Y0088380D01*
X0177382Y0088488D02*
X0177382Y0089739D01*
X0177799Y0090156D01*
X0179467Y0090156D01*
X0179884Y0089739D01*
X0179884Y0088488D01*
X0177382Y0088488D01*
X0177382Y0087393D02*
X0179884Y0087393D01*
X0179884Y0085725D02*
X0177382Y0087393D01*
X0177382Y0085725D02*
X0179884Y0085725D01*
X0179467Y0084631D02*
X0179884Y0084214D01*
X0179884Y0083380D01*
X0179467Y0082963D01*
X0177799Y0082963D01*
X0177382Y0083380D01*
X0177382Y0084214D01*
X0177799Y0084631D01*
X0178633Y0084631D01*
X0178633Y0083797D01*
X0187309Y0083487D02*
X0187726Y0083070D01*
X0189394Y0083070D01*
X0189811Y0083487D01*
X0189811Y0084321D01*
X0189394Y0084738D01*
X0188560Y0084738D02*
X0188560Y0083904D01*
X0188560Y0084738D02*
X0187726Y0084738D01*
X0187309Y0084321D01*
X0187309Y0083487D01*
X0187309Y0085833D02*
X0189811Y0085833D01*
X0187309Y0087501D01*
X0189811Y0087501D01*
X0189811Y0088595D02*
X0189811Y0089846D01*
X0189394Y0090263D01*
X0187726Y0090263D01*
X0187309Y0089846D01*
X0187309Y0088595D01*
X0189811Y0088595D01*
X0442348Y0062253D02*
X0442348Y0059250D01*
X0442348Y0060751D02*
X0446852Y0060751D01*
X0445351Y0059250D01*
X0460348Y0148750D02*
X0460348Y0151753D01*
X0460348Y0150251D02*
X0464852Y0150251D01*
X0463351Y0148750D01*
X0464102Y0153354D02*
X0464852Y0154105D01*
X0464852Y0155606D01*
X0464102Y0156356D01*
X0461099Y0153354D01*
X0460348Y0154105D01*
X0460348Y0155606D01*
X0461099Y0156356D01*
X0464102Y0156356D01*
X0464102Y0153354D02*
X0461099Y0153354D01*
D14*
X0201561Y0088657D02*
X0198158Y0088657D01*
X0199859Y0086956D02*
X0199859Y0090359D01*
X0158600Y0089328D02*
X0158600Y0085925D01*
D15*
X0164806Y0111700D02*
X0167542Y0111700D01*
X0167542Y0115804D01*
X0164806Y0115804D01*
X0166174Y0113752D02*
X0167542Y0113752D01*
X0168950Y0113752D02*
X0168950Y0115120D01*
X0169634Y0115804D01*
X0171686Y0115804D01*
X0171686Y0111700D01*
X0171686Y0113068D02*
X0169634Y0113068D01*
X0168950Y0113752D01*
X0173080Y0115804D02*
X0174448Y0115804D01*
X0173764Y0115804D02*
X0173764Y0111700D01*
X0174448Y0111700D02*
X0173080Y0111700D01*
X0175856Y0111700D02*
X0177224Y0113068D01*
X0176540Y0113068D02*
X0178591Y0113068D01*
X0178591Y0111700D02*
X0178591Y0115804D01*
X0176540Y0115804D01*
X0175856Y0115120D01*
X0175856Y0113752D01*
X0176540Y0113068D01*
X0179999Y0115804D02*
X0182735Y0115804D01*
X0181367Y0115804D02*
X0181367Y0111700D01*
X0184143Y0112384D02*
X0184827Y0111700D01*
X0186195Y0111700D01*
X0186878Y0112384D01*
X0186195Y0113752D02*
X0184827Y0113752D01*
X0184143Y0113068D01*
X0184143Y0112384D01*
X0186195Y0113752D02*
X0186878Y0114436D01*
X0186878Y0115120D01*
X0186195Y0115804D01*
X0184827Y0115804D01*
X0184143Y0115120D01*
X0192430Y0115120D02*
X0192430Y0112384D01*
X0193114Y0111700D01*
X0195166Y0111700D01*
X0195166Y0115804D01*
X0193114Y0115804D01*
X0192430Y0115120D01*
X0196573Y0115804D02*
X0199309Y0115804D01*
X0199309Y0111700D01*
X0196573Y0111700D01*
X0197941Y0113752D02*
X0199309Y0113752D01*
X0200717Y0113752D02*
X0200717Y0115120D01*
X0201401Y0115804D01*
X0203453Y0115804D01*
X0203453Y0111700D01*
X0203453Y0113068D02*
X0201401Y0113068D01*
X0200717Y0113752D01*
X0202085Y0113068D02*
X0200717Y0111700D01*
X0459505Y0086760D02*
X0463108Y0086760D01*
X0463108Y0084358D02*
X0459505Y0084358D01*
X0460105Y0083077D02*
X0462507Y0083077D01*
X0463108Y0082477D01*
X0463108Y0081276D01*
X0462507Y0080675D01*
X0460105Y0080675D01*
X0459505Y0081276D01*
X0459505Y0082477D01*
X0460105Y0083077D01*
X0463108Y0084358D02*
X0459505Y0086760D01*
X0459505Y0079421D02*
X0459505Y0078220D01*
X0459505Y0078820D02*
X0463108Y0078820D01*
X0463108Y0078220D02*
X0463108Y0079421D01*
X0462507Y0076939D02*
X0463108Y0076338D01*
X0463108Y0075137D01*
X0462507Y0074537D01*
X0461907Y0074537D01*
X0461306Y0075137D01*
X0461306Y0076338D01*
X0460706Y0076939D01*
X0460105Y0076939D01*
X0459505Y0076338D01*
X0459505Y0075137D01*
X0460105Y0074537D01*
X0459505Y0073256D02*
X0463108Y0073256D01*
X0463108Y0070853D02*
X0459505Y0070853D01*
X0459505Y0069572D02*
X0461907Y0069572D01*
X0463108Y0068371D01*
X0461907Y0067170D01*
X0459505Y0067170D01*
X0461306Y0067170D02*
X0461306Y0069572D01*
X0463108Y0070853D02*
X0459505Y0073256D01*
X0461306Y0065889D02*
X0460706Y0065289D01*
X0460706Y0063487D01*
X0459505Y0063487D02*
X0463108Y0063487D01*
X0463108Y0065289D01*
X0462507Y0065889D01*
X0461306Y0065889D01*
X0459505Y0062206D02*
X0463108Y0059804D01*
X0463108Y0058523D02*
X0463108Y0056121D01*
X0459505Y0056121D01*
X0459505Y0058523D01*
X0459505Y0059804D02*
X0463108Y0062206D01*
X0461306Y0057322D02*
X0461306Y0056121D01*
D16*
X0161098Y0113500D02*
X0156098Y0113500D01*
X0158598Y0116000D01*
X0156098Y0113500D02*
X0158598Y0111000D01*
M02*
