G75*
%MOIN*%
%OFA0B0*%
%FSLAX25Y25*%
%IPPOS*%
%LPD*%
%AMOC8*
5,1,8,0,0,1.08239X$1,22.5*
%
%ADD10C,0.00600*%
%ADD11C,0.00500*%
D10*
X0183598Y0092600D02*
X0186098Y0090100D01*
X0201098Y0090100D01*
X0203598Y0092600D01*
X0203598Y0097600D01*
X0201098Y0100100D01*
X0203598Y0102600D01*
X0203598Y0107600D01*
X0201098Y0110100D01*
X0203598Y0112600D01*
X0203598Y0117600D01*
X0201098Y0120100D01*
X0186098Y0120100D01*
X0183598Y0117600D01*
X0183598Y0112600D01*
X0186098Y0110100D01*
X0183598Y0107600D01*
X0183598Y0102600D01*
X0186098Y0100100D01*
X0183598Y0097600D01*
X0183598Y0092600D01*
X0389431Y0019782D02*
X0393834Y0019782D01*
X0393834Y0021984D01*
X0393100Y0022718D01*
X0391632Y0022718D01*
X0390898Y0021984D01*
X0390898Y0019782D01*
X0392366Y0018114D02*
X0392366Y0015178D01*
X0391632Y0015178D02*
X0393100Y0015178D01*
X0393834Y0015912D01*
X0393834Y0017380D01*
X0393100Y0018114D01*
X0392366Y0018114D01*
X0390898Y0017380D02*
X0390898Y0015912D01*
X0391632Y0015178D01*
X0391632Y0013510D02*
X0390898Y0012776D01*
X0390898Y0011308D01*
X0391632Y0010574D01*
X0393100Y0011308D02*
X0393100Y0012776D01*
X0392366Y0013510D01*
X0391632Y0013510D01*
X0393100Y0011308D02*
X0393834Y0010574D01*
X0394568Y0010574D01*
X0395302Y0011308D01*
X0395302Y0012776D01*
X0394568Y0013510D01*
X0397898Y0013510D02*
X0399366Y0012042D01*
X0399366Y0012776D02*
X0399366Y0010574D01*
X0397898Y0010574D02*
X0402302Y0010574D01*
X0402302Y0012776D01*
X0401568Y0013510D01*
X0400100Y0013510D01*
X0399366Y0012776D01*
X0399366Y0015178D02*
X0399366Y0018114D01*
X0400100Y0018114D01*
X0400834Y0017380D01*
X0400834Y0015912D01*
X0400100Y0015178D01*
X0398632Y0015178D01*
X0397898Y0015912D01*
X0397898Y0017380D01*
X0400834Y0019782D02*
X0397898Y0021250D01*
X0400834Y0022718D01*
X0404898Y0021984D02*
X0404898Y0019782D01*
X0406366Y0020516D02*
X0407100Y0019782D01*
X0407834Y0020516D01*
X0407834Y0022718D01*
X0406366Y0021984D02*
X0406366Y0020516D01*
X0406366Y0021984D02*
X0405632Y0022718D01*
X0404898Y0021984D01*
X0404898Y0024386D02*
X0404898Y0025854D01*
X0404898Y0025120D02*
X0407834Y0025120D01*
X0407834Y0024386D01*
X0409302Y0025120D02*
X0410036Y0025120D01*
X0407100Y0027455D02*
X0405632Y0027455D01*
X0404898Y0028189D01*
X0404898Y0030391D01*
X0402302Y0031192D02*
X0400100Y0028990D01*
X0400100Y0031926D01*
X0397898Y0031192D02*
X0402302Y0031192D01*
X0407834Y0030391D02*
X0407834Y0028189D01*
X0407100Y0027455D01*
X0394568Y0025120D02*
X0391632Y0025120D01*
X0390898Y0025854D01*
X0391632Y0027455D02*
X0393100Y0027455D01*
X0393834Y0028189D01*
X0393834Y0029657D01*
X0393100Y0030391D01*
X0392366Y0030391D01*
X0392366Y0027455D01*
X0391632Y0027455D02*
X0390898Y0028189D01*
X0390898Y0029657D01*
X0390898Y0032059D02*
X0393834Y0032059D01*
X0393834Y0032793D01*
X0393100Y0033527D01*
X0393834Y0034261D01*
X0393100Y0034995D01*
X0390898Y0034995D01*
X0390898Y0033527D02*
X0393100Y0033527D01*
X0393834Y0036663D02*
X0393834Y0038865D01*
X0393100Y0039599D01*
X0391632Y0039599D01*
X0390898Y0038865D01*
X0390898Y0036663D01*
X0395302Y0036663D01*
X0397898Y0038198D02*
X0402302Y0038198D01*
X0402302Y0040400D01*
X0401568Y0041133D01*
X0400100Y0041133D01*
X0399366Y0040400D01*
X0399366Y0038198D01*
X0404898Y0038131D02*
X0409302Y0038131D01*
X0409302Y0036663D02*
X0409302Y0039599D01*
X0409302Y0041267D02*
X0404898Y0041267D01*
X0407100Y0041267D02*
X0407834Y0042001D01*
X0407834Y0043469D01*
X0407100Y0044203D01*
X0404898Y0044203D01*
X0404898Y0045871D02*
X0404898Y0047339D01*
X0404898Y0046605D02*
X0407834Y0046605D01*
X0407834Y0045871D01*
X0409302Y0046605D02*
X0410036Y0046605D01*
X0407834Y0048940D02*
X0404898Y0048940D01*
X0404898Y0051876D02*
X0407100Y0051876D01*
X0407834Y0051142D01*
X0407834Y0048940D01*
X0401568Y0051976D02*
X0398632Y0051976D01*
X0397898Y0052710D01*
X0398632Y0054311D02*
X0397898Y0055045D01*
X0397898Y0056513D01*
X0398632Y0057247D01*
X0400100Y0057247D01*
X0400834Y0056513D01*
X0400834Y0055045D01*
X0400100Y0054311D01*
X0398632Y0054311D01*
X0400834Y0052710D02*
X0400834Y0051242D01*
X0400100Y0049574D02*
X0400834Y0048840D01*
X0400834Y0047372D01*
X0400100Y0046638D01*
X0398632Y0046638D01*
X0397898Y0047372D01*
X0397898Y0048840D01*
X0398632Y0049574D01*
X0400100Y0049574D01*
X0393834Y0048073D02*
X0393834Y0047339D01*
X0392366Y0045871D01*
X0390898Y0045871D02*
X0393834Y0045871D01*
X0393100Y0044203D02*
X0392366Y0044203D01*
X0392366Y0041267D01*
X0391632Y0041267D02*
X0393100Y0041267D01*
X0393834Y0042001D01*
X0393834Y0043469D01*
X0393100Y0044203D01*
X0390898Y0043469D02*
X0390898Y0042001D01*
X0391632Y0041267D01*
X0397898Y0042802D02*
X0400834Y0042802D01*
X0400834Y0044269D02*
X0399366Y0042802D01*
X0400834Y0044269D02*
X0400834Y0045003D01*
X0405632Y0053544D02*
X0404898Y0054278D01*
X0404898Y0056480D01*
X0404164Y0056480D02*
X0407834Y0056480D01*
X0407834Y0054278D01*
X0407100Y0053544D01*
X0405632Y0053544D01*
X0403431Y0055012D02*
X0403431Y0055746D01*
X0404164Y0056480D01*
X0401568Y0059649D02*
X0398632Y0059649D01*
X0397898Y0060383D01*
X0398632Y0061985D02*
X0397898Y0062719D01*
X0397898Y0064920D01*
X0397164Y0064920D02*
X0396431Y0064186D01*
X0396431Y0063452D01*
X0397164Y0064920D02*
X0400834Y0064920D01*
X0400834Y0066588D02*
X0400834Y0068790D01*
X0400100Y0069524D01*
X0398632Y0069524D01*
X0397898Y0068790D01*
X0397898Y0066588D01*
X0396431Y0066588D02*
X0400834Y0066588D01*
X0404898Y0065688D02*
X0409302Y0065688D01*
X0407834Y0064220D01*
X0409302Y0062752D01*
X0404898Y0062752D01*
X0400834Y0061985D02*
X0398632Y0061985D01*
X0400834Y0060383D02*
X0400834Y0058915D01*
X0395302Y0059649D02*
X0395302Y0061117D01*
X0394568Y0061851D01*
X0391632Y0058915D01*
X0390898Y0059649D01*
X0390898Y0061117D01*
X0391632Y0061851D01*
X0394568Y0061851D01*
X0393834Y0063519D02*
X0395302Y0064987D01*
X0390898Y0064987D01*
X0390898Y0063519D02*
X0390898Y0066455D01*
X0391632Y0068123D02*
X0390898Y0068857D01*
X0390898Y0070325D01*
X0391632Y0071059D01*
X0393100Y0071059D01*
X0393834Y0070325D01*
X0393834Y0069591D01*
X0393100Y0068123D01*
X0395302Y0068123D01*
X0395302Y0071059D01*
X0397898Y0071926D02*
X0398632Y0071192D01*
X0400100Y0071192D01*
X0400834Y0071926D01*
X0400834Y0073394D01*
X0400100Y0074128D01*
X0399366Y0074128D01*
X0399366Y0071192D01*
X0397898Y0071926D02*
X0397898Y0073394D01*
X0404898Y0072694D02*
X0404898Y0074896D01*
X0409302Y0074896D01*
X0407834Y0074896D02*
X0407834Y0072694D01*
X0407100Y0071960D01*
X0405632Y0071960D01*
X0404898Y0072694D01*
X0405632Y0070292D02*
X0407100Y0070292D01*
X0407834Y0069558D01*
X0407834Y0068090D01*
X0407100Y0067356D01*
X0405632Y0067356D01*
X0404898Y0068090D01*
X0404898Y0069558D01*
X0405632Y0070292D01*
X0405632Y0076564D02*
X0404898Y0077298D01*
X0404898Y0079500D01*
X0407834Y0079500D01*
X0409302Y0081168D02*
X0409302Y0081902D01*
X0404898Y0081902D01*
X0404898Y0081168D02*
X0404898Y0082636D01*
X0405632Y0084237D02*
X0406366Y0084971D01*
X0406366Y0087173D01*
X0407100Y0087173D02*
X0404898Y0087173D01*
X0404898Y0084971D01*
X0405632Y0084237D01*
X0407834Y0084971D02*
X0407834Y0086439D01*
X0407100Y0087173D01*
X0406366Y0088841D02*
X0407834Y0090309D01*
X0407834Y0091043D01*
X0407834Y0088841D02*
X0404898Y0088841D01*
X0402302Y0089608D02*
X0402302Y0092544D01*
X0400834Y0094212D02*
X0397898Y0094212D01*
X0399366Y0094212D02*
X0400834Y0095680D01*
X0400834Y0096414D01*
X0400100Y0098049D02*
X0398632Y0098049D01*
X0397898Y0098783D01*
X0397898Y0100251D01*
X0398632Y0100984D01*
X0400100Y0100984D01*
X0400834Y0100251D01*
X0400834Y0098783D01*
X0400100Y0098049D01*
X0395302Y0098683D02*
X0394568Y0098683D01*
X0393100Y0097215D01*
X0390898Y0097215D01*
X0393100Y0097215D02*
X0394568Y0095747D01*
X0395302Y0095747D01*
X0394568Y0094079D02*
X0393834Y0094079D01*
X0393100Y0093345D01*
X0393100Y0091143D01*
X0393100Y0089475D02*
X0393100Y0086539D01*
X0391632Y0084871D02*
X0390898Y0084137D01*
X0390898Y0082669D01*
X0391632Y0081935D01*
X0394568Y0081935D01*
X0395302Y0082669D01*
X0395302Y0084137D01*
X0394568Y0084871D01*
X0397898Y0083336D02*
X0397898Y0080400D01*
X0397898Y0081868D02*
X0402302Y0081868D01*
X0400834Y0080400D01*
X0395302Y0079533D02*
X0395302Y0078065D01*
X0394568Y0077331D01*
X0391632Y0077331D01*
X0390898Y0078065D01*
X0390898Y0079533D01*
X0391632Y0080267D01*
X0394568Y0080267D02*
X0395302Y0079533D01*
X0405632Y0076564D02*
X0407834Y0076564D01*
X0428598Y0082600D02*
X0431098Y0080100D01*
X0446098Y0080100D01*
X0448598Y0082600D01*
X0448598Y0087600D01*
X0446098Y0090100D01*
X0448598Y0092600D01*
X0448598Y0097600D01*
X0446098Y0100100D01*
X0448598Y0102600D01*
X0448598Y0107600D01*
X0446098Y0110100D01*
X0448598Y0112600D01*
X0448598Y0117600D01*
X0446098Y0120100D01*
X0448598Y0122600D01*
X0448598Y0127600D01*
X0446098Y0130100D01*
X0431098Y0130100D01*
X0428598Y0127600D01*
X0428598Y0122600D01*
X0431098Y0120100D01*
X0428598Y0117600D01*
X0428598Y0112600D01*
X0431098Y0110100D01*
X0428598Y0107600D01*
X0428598Y0102600D01*
X0431098Y0100100D01*
X0428598Y0097600D01*
X0428598Y0092600D01*
X0431098Y0090100D01*
X0428598Y0087600D01*
X0428598Y0082600D01*
X0402302Y0089608D02*
X0397898Y0089608D01*
X0400100Y0089608D02*
X0400100Y0091076D01*
X0395302Y0091143D02*
X0395302Y0093345D01*
X0394568Y0094079D01*
X0393100Y0093345D02*
X0392366Y0094079D01*
X0391632Y0094079D01*
X0390898Y0093345D01*
X0390898Y0091143D01*
X0395302Y0091143D01*
X0404898Y0098749D02*
X0409302Y0098749D01*
X0409302Y0097281D02*
X0409302Y0100217D01*
X0407834Y0101885D02*
X0405632Y0101885D01*
X0404898Y0102619D01*
X0404898Y0104821D01*
X0407834Y0104821D01*
X0407834Y0106489D02*
X0404898Y0106489D01*
X0406366Y0106489D02*
X0407834Y0107957D01*
X0407834Y0108691D01*
X0407834Y0110326D02*
X0407834Y0111060D01*
X0404898Y0111060D01*
X0404898Y0110326D02*
X0404898Y0111794D01*
X0404898Y0113395D02*
X0407834Y0113395D01*
X0407834Y0115597D01*
X0407100Y0116331D01*
X0404898Y0116331D01*
X0405632Y0117999D02*
X0404898Y0118733D01*
X0404898Y0120935D01*
X0404164Y0120935D02*
X0407834Y0120935D01*
X0407834Y0118733D01*
X0407100Y0117999D01*
X0405632Y0117999D01*
X0403431Y0119467D02*
X0403431Y0120201D01*
X0404164Y0120935D01*
X0400834Y0120268D02*
X0400100Y0119534D01*
X0398632Y0119534D01*
X0397898Y0120268D01*
X0397898Y0121735D01*
X0398632Y0122469D01*
X0400100Y0122469D01*
X0400834Y0121735D01*
X0400834Y0120268D01*
X0400834Y0117866D02*
X0400100Y0117132D01*
X0400100Y0114930D01*
X0397898Y0114930D02*
X0397898Y0117132D01*
X0398632Y0117866D01*
X0399366Y0117866D01*
X0400100Y0117132D01*
X0400834Y0117866D02*
X0401568Y0117866D01*
X0402302Y0117132D01*
X0402302Y0114930D01*
X0397898Y0114930D01*
X0395302Y0111026D02*
X0393834Y0112494D01*
X0390898Y0112494D01*
X0393100Y0112494D02*
X0393100Y0109558D01*
X0393834Y0109558D02*
X0395302Y0111026D01*
X0393834Y0109558D02*
X0390898Y0109558D01*
X0391632Y0107890D02*
X0390898Y0107156D01*
X0390898Y0105688D01*
X0391632Y0104955D01*
X0393100Y0105688D02*
X0393834Y0104955D01*
X0394568Y0104955D01*
X0395302Y0105688D01*
X0395302Y0107156D01*
X0394568Y0107890D01*
X0393100Y0107156D02*
X0392366Y0107890D01*
X0391632Y0107890D01*
X0393100Y0107156D02*
X0393100Y0105688D01*
X0393100Y0103286D02*
X0393100Y0100351D01*
X0397898Y0102653D02*
X0400834Y0102653D01*
X0400834Y0104854D01*
X0400100Y0105588D01*
X0397898Y0105588D01*
X0398632Y0107990D02*
X0397898Y0108724D01*
X0398632Y0107990D02*
X0401568Y0107990D01*
X0400834Y0107256D02*
X0400834Y0108724D01*
X0409302Y0111060D02*
X0410036Y0111060D01*
X0400834Y0124872D02*
X0400834Y0126339D01*
X0400100Y0127073D01*
X0397898Y0127073D01*
X0397898Y0124872D01*
X0398632Y0124138D01*
X0399366Y0124872D01*
X0399366Y0127073D01*
X0399366Y0128741D02*
X0400834Y0130209D01*
X0400834Y0130943D01*
X0400100Y0132578D02*
X0400834Y0133312D01*
X0400834Y0135514D01*
X0402302Y0135514D02*
X0397898Y0135514D01*
X0397898Y0133312D01*
X0398632Y0132578D01*
X0400100Y0132578D01*
X0404898Y0132545D02*
X0405632Y0131811D01*
X0406366Y0132545D01*
X0406366Y0134747D01*
X0407100Y0134747D02*
X0404898Y0134747D01*
X0404898Y0132545D01*
X0407834Y0132545D02*
X0407834Y0134013D01*
X0407100Y0134747D01*
X0407100Y0136415D02*
X0405632Y0136415D01*
X0404898Y0137149D01*
X0404898Y0139351D01*
X0404898Y0141019D02*
X0409302Y0141019D01*
X0407834Y0141753D02*
X0407834Y0143220D01*
X0407100Y0143954D01*
X0404898Y0143954D01*
X0404898Y0145623D02*
X0404898Y0147090D01*
X0404898Y0146356D02*
X0407834Y0146356D01*
X0407834Y0145623D01*
X0409302Y0146356D02*
X0410036Y0146356D01*
X0407834Y0148692D02*
X0404898Y0148692D01*
X0407834Y0148692D02*
X0407834Y0150894D01*
X0407100Y0151628D01*
X0404898Y0151628D01*
X0405632Y0153296D02*
X0407100Y0153296D01*
X0407834Y0154030D01*
X0407834Y0155498D01*
X0407100Y0156232D01*
X0406366Y0156232D01*
X0406366Y0153296D01*
X0405632Y0153296D02*
X0404898Y0154030D01*
X0404898Y0155498D01*
X0407834Y0141753D02*
X0407100Y0141019D01*
X0407834Y0139351D02*
X0407834Y0137149D01*
X0407100Y0136415D01*
X0409302Y0130143D02*
X0404898Y0130143D01*
X0404898Y0127207D02*
X0409302Y0127207D01*
X0407834Y0128675D01*
X0409302Y0130143D01*
X0400834Y0128741D02*
X0397898Y0128741D01*
X0395302Y0059649D02*
X0394568Y0058915D01*
X0391632Y0058915D01*
X0390898Y0057247D02*
X0390898Y0054311D01*
X0393834Y0057247D01*
X0394568Y0057247D01*
X0395302Y0056513D01*
X0395302Y0055045D01*
X0394568Y0054311D01*
X0393834Y0025854D02*
X0393834Y0024386D01*
X0404898Y0018114D02*
X0407834Y0018114D01*
X0404898Y0018114D02*
X0404898Y0015912D01*
X0405632Y0015178D01*
X0407834Y0015178D01*
X0409302Y0013510D02*
X0404898Y0013510D01*
X0404898Y0010574D02*
X0409302Y0010574D01*
X0407834Y0012042D01*
X0409302Y0013510D01*
X0208598Y0177600D02*
X0206098Y0175100D01*
X0201098Y0175100D01*
X0198598Y0177600D01*
X0196098Y0175100D01*
X0191098Y0175100D01*
X0188598Y0177600D01*
X0186098Y0175100D01*
X0181098Y0175100D01*
X0178598Y0177600D01*
X0178598Y0192600D01*
X0181098Y0195100D01*
X0186098Y0195100D01*
X0188598Y0192600D01*
X0191098Y0195100D01*
X0196098Y0195100D01*
X0198598Y0192600D01*
X0201098Y0195100D01*
X0206098Y0195100D01*
X0208598Y0192600D01*
X0208598Y0177600D01*
D11*
X0181852Y0083915D02*
X0177348Y0083915D01*
X0179600Y0083915D02*
X0179600Y0085416D01*
X0181852Y0083915D02*
X0181852Y0086917D01*
X0181852Y0088519D02*
X0177348Y0088519D01*
X0178850Y0088519D02*
X0178850Y0090770D01*
X0179600Y0091521D01*
X0181102Y0091521D01*
X0181852Y0090770D01*
X0181852Y0088519D01*
X0178850Y0090020D02*
X0177348Y0091521D01*
X0178099Y0093122D02*
X0177348Y0093873D01*
X0177348Y0095374D01*
X0178099Y0096125D01*
X0181102Y0096125D01*
X0181852Y0095374D01*
X0181852Y0093873D01*
X0181102Y0093122D01*
X0178099Y0093122D01*
X0177348Y0097726D02*
X0181852Y0097726D01*
X0177348Y0100729D01*
X0181852Y0100729D01*
X0181852Y0102330D02*
X0181852Y0105333D01*
X0181852Y0103832D02*
X0177348Y0103832D01*
X0176598Y0106934D02*
X0176598Y0109937D01*
X0177348Y0111538D02*
X0181852Y0111538D01*
X0181852Y0113790D01*
X0181102Y0114541D01*
X0179600Y0114541D01*
X0178850Y0113790D01*
X0178850Y0111538D01*
X0177348Y0116142D02*
X0178850Y0117643D01*
X0177348Y0119145D01*
X0181852Y0119145D01*
X0181852Y0120746D02*
X0177348Y0120746D01*
X0178850Y0120746D02*
X0178850Y0122998D01*
X0179600Y0123749D01*
X0181102Y0123749D01*
X0181852Y0122998D01*
X0181852Y0120746D01*
X0178850Y0122247D02*
X0177348Y0123749D01*
X0186348Y0123998D02*
X0187099Y0124749D01*
X0187850Y0124749D01*
X0188600Y0123998D01*
X0188600Y0121746D01*
X0187099Y0121746D01*
X0186348Y0122497D01*
X0186348Y0123998D01*
X0188600Y0121746D02*
X0190102Y0123247D01*
X0190852Y0124749D01*
X0181852Y0116142D02*
X0177348Y0116142D01*
X0205348Y0096249D02*
X0205348Y0093246D01*
X0205348Y0094747D02*
X0209852Y0094747D01*
X0208351Y0093246D01*
X0185848Y0168850D02*
X0182846Y0168850D01*
X0184347Y0168850D02*
X0184347Y0173354D01*
X0185848Y0171853D01*
X0211346Y0188601D02*
X0211346Y0189351D01*
X0212097Y0190102D01*
X0214348Y0190102D01*
X0214348Y0188601D01*
X0213598Y0187850D01*
X0212097Y0187850D01*
X0211346Y0188601D01*
X0212847Y0191603D02*
X0214348Y0190102D01*
X0212847Y0191603D02*
X0211346Y0192354D01*
X0213348Y0196850D02*
X0213348Y0201354D01*
X0210346Y0201354D01*
X0208745Y0201354D02*
X0206493Y0201354D01*
X0205742Y0200603D01*
X0205742Y0199102D01*
X0206493Y0198351D01*
X0208745Y0198351D01*
X0208745Y0196850D02*
X0208745Y0201354D01*
X0207243Y0198351D02*
X0205742Y0196850D01*
X0204141Y0197601D02*
X0203390Y0196850D01*
X0201889Y0196850D01*
X0201138Y0197601D01*
X0201138Y0200603D01*
X0201889Y0201354D01*
X0203390Y0201354D01*
X0204141Y0200603D01*
X0204141Y0197601D01*
X0199537Y0196850D02*
X0199537Y0201354D01*
X0196534Y0196850D01*
X0196534Y0201354D01*
X0194933Y0201354D02*
X0191930Y0201354D01*
X0193431Y0201354D02*
X0193431Y0196850D01*
X0190329Y0196099D02*
X0187326Y0196099D01*
X0185725Y0196850D02*
X0183473Y0196850D01*
X0182722Y0197601D01*
X0182722Y0198351D01*
X0183473Y0199102D01*
X0185725Y0199102D01*
X0185725Y0201354D02*
X0183473Y0201354D01*
X0182722Y0200603D01*
X0182722Y0199853D01*
X0183473Y0199102D01*
X0181121Y0197601D02*
X0180370Y0196850D01*
X0178869Y0196850D01*
X0178118Y0197601D01*
X0178118Y0201354D01*
X0176517Y0200603D02*
X0176517Y0199853D01*
X0175766Y0199102D01*
X0174265Y0199102D01*
X0173514Y0198351D01*
X0173514Y0197601D01*
X0174265Y0196850D01*
X0175766Y0196850D01*
X0176517Y0197601D01*
X0176517Y0200603D02*
X0175766Y0201354D01*
X0174265Y0201354D01*
X0173514Y0200603D01*
X0171913Y0200603D02*
X0171162Y0201354D01*
X0169661Y0201354D01*
X0168911Y0200603D01*
X0168911Y0199853D01*
X0171913Y0196850D01*
X0168911Y0196850D01*
X0181121Y0197601D02*
X0181121Y0201354D01*
X0185725Y0201354D02*
X0185725Y0196850D01*
X0211847Y0199102D02*
X0213348Y0199102D01*
X0422348Y0125998D02*
X0422348Y0124497D01*
X0423099Y0123746D01*
X0426102Y0126749D01*
X0423099Y0126749D01*
X0422348Y0125998D01*
X0423099Y0123746D02*
X0426102Y0123746D01*
X0426852Y0124497D01*
X0426852Y0125998D01*
X0426102Y0126749D01*
X0422348Y0122145D02*
X0422348Y0119142D01*
X0422348Y0120643D02*
X0426852Y0120643D01*
X0425351Y0119142D01*
X0422348Y0113749D02*
X0422348Y0110746D01*
X0422348Y0112247D02*
X0426852Y0112247D01*
X0425351Y0110746D01*
X0423850Y0109145D02*
X0426852Y0109145D01*
X0423850Y0109145D02*
X0422348Y0107643D01*
X0423850Y0106142D01*
X0426852Y0106142D01*
X0426102Y0104541D02*
X0426852Y0103790D01*
X0426852Y0102289D01*
X0426102Y0101538D01*
X0425351Y0101538D01*
X0424600Y0102289D01*
X0424600Y0103790D01*
X0423850Y0104541D01*
X0423099Y0104541D01*
X0422348Y0103790D01*
X0422348Y0102289D01*
X0423099Y0101538D01*
X0450348Y0086749D02*
X0450348Y0083746D01*
X0450348Y0085247D02*
X0454852Y0085247D01*
X0453351Y0083746D01*
M02*
