G75*
%MOIN*%
%OFA0B0*%
%FSLAX25Y25*%
%IPPOS*%
%LPD*%
%AMOC8*
5,1,8,0,0,1.08239X$1,22.5*
%
%ADD10C,0.00600*%
%ADD11C,0.00500*%
D10*
X0183598Y0092600D02*
X0186098Y0090100D01*
X0201098Y0090100D01*
X0203598Y0092600D01*
X0203598Y0097600D01*
X0201098Y0100100D01*
X0203598Y0102600D01*
X0203598Y0107600D01*
X0201098Y0110100D01*
X0203598Y0112600D01*
X0203598Y0117600D01*
X0201098Y0120100D01*
X0186098Y0120100D01*
X0183598Y0117600D01*
X0183598Y0112600D01*
X0186098Y0110100D01*
X0183598Y0107600D01*
X0183598Y0102600D01*
X0186098Y0100100D01*
X0183598Y0097600D01*
X0183598Y0092600D01*
X0389431Y0043469D02*
X0389431Y0042735D01*
X0389431Y0043469D02*
X0390164Y0044203D01*
X0393834Y0044203D01*
X0390898Y0044203D02*
X0390898Y0042001D01*
X0391632Y0041267D01*
X0393834Y0041267D01*
X0393834Y0039632D02*
X0393834Y0038898D01*
X0392366Y0037430D01*
X0390898Y0037430D02*
X0393834Y0037430D01*
X0393100Y0035762D02*
X0390898Y0035762D01*
X0390898Y0033560D01*
X0391632Y0032826D01*
X0392366Y0033560D01*
X0392366Y0035762D01*
X0393100Y0035762D02*
X0393834Y0035028D01*
X0393834Y0033560D01*
X0393834Y0031158D02*
X0390898Y0031158D01*
X0390898Y0028956D01*
X0391632Y0028222D01*
X0393834Y0028222D01*
X0393834Y0026588D02*
X0393834Y0025854D01*
X0392366Y0024386D01*
X0390898Y0024386D02*
X0393834Y0024386D01*
X0393100Y0022718D02*
X0393834Y0021984D01*
X0393834Y0019782D01*
X0395302Y0019782D02*
X0390898Y0019782D01*
X0390898Y0021984D01*
X0391632Y0022718D01*
X0393100Y0022718D01*
X0397898Y0021250D02*
X0400834Y0019782D01*
X0400100Y0018114D02*
X0399366Y0018114D01*
X0399366Y0015178D01*
X0398632Y0015178D02*
X0400100Y0015178D01*
X0400834Y0015912D01*
X0400834Y0017380D01*
X0400100Y0018114D01*
X0397898Y0017380D02*
X0397898Y0015912D01*
X0398632Y0015178D01*
X0397898Y0013510D02*
X0399366Y0012042D01*
X0399366Y0012776D02*
X0399366Y0010574D01*
X0397898Y0010574D02*
X0402302Y0010574D01*
X0402302Y0012776D01*
X0401568Y0013510D01*
X0400100Y0013510D01*
X0399366Y0012776D01*
X0395302Y0013510D02*
X0395302Y0010574D01*
X0390898Y0010574D01*
X0393100Y0010574D02*
X0393100Y0012042D01*
X0393100Y0015178D02*
X0393834Y0015912D01*
X0393834Y0017380D01*
X0393100Y0018114D01*
X0392366Y0018114D01*
X0392366Y0015178D01*
X0391632Y0015178D02*
X0393100Y0015178D01*
X0391632Y0015178D02*
X0390898Y0015912D01*
X0390898Y0017380D01*
X0397898Y0021250D02*
X0400834Y0022718D01*
X0404898Y0021984D02*
X0404898Y0019782D01*
X0406366Y0020516D02*
X0407100Y0019782D01*
X0407834Y0020516D01*
X0407834Y0022718D01*
X0406366Y0021984D02*
X0406366Y0020516D01*
X0406366Y0021984D02*
X0405632Y0022718D01*
X0404898Y0021984D01*
X0404898Y0024386D02*
X0404898Y0025854D01*
X0404898Y0025120D02*
X0407834Y0025120D01*
X0407834Y0024386D01*
X0409302Y0025120D02*
X0410036Y0025120D01*
X0407100Y0027455D02*
X0405632Y0027455D01*
X0404898Y0028189D01*
X0404898Y0030391D01*
X0402302Y0031192D02*
X0400100Y0028990D01*
X0400100Y0031926D01*
X0397898Y0031192D02*
X0402302Y0031192D01*
X0407834Y0030391D02*
X0407834Y0028189D01*
X0407100Y0027455D01*
X0409302Y0036663D02*
X0409302Y0039599D01*
X0409302Y0038131D02*
X0404898Y0038131D01*
X0402302Y0038198D02*
X0402302Y0041133D01*
X0400834Y0042802D02*
X0397898Y0042802D01*
X0399366Y0042802D02*
X0400834Y0044269D01*
X0400834Y0045003D01*
X0400100Y0046638D02*
X0398632Y0046638D01*
X0397898Y0047372D01*
X0397898Y0048840D01*
X0398632Y0049574D01*
X0400100Y0049574D01*
X0400834Y0048840D01*
X0400834Y0047372D01*
X0400100Y0046638D01*
X0404898Y0046605D02*
X0407834Y0046605D01*
X0407834Y0045871D01*
X0409302Y0046605D02*
X0410036Y0046605D01*
X0407834Y0048940D02*
X0404898Y0048940D01*
X0404898Y0047339D02*
X0404898Y0045871D01*
X0404898Y0044203D02*
X0407100Y0044203D01*
X0407834Y0043469D01*
X0407834Y0042001D01*
X0407100Y0041267D01*
X0409302Y0041267D02*
X0404898Y0041267D01*
X0402302Y0038198D02*
X0397898Y0038198D01*
X0400100Y0038198D02*
X0400100Y0039666D01*
X0407834Y0048940D02*
X0407834Y0051142D01*
X0407100Y0051876D01*
X0404898Y0051876D01*
X0405632Y0053544D02*
X0404898Y0054278D01*
X0404898Y0056480D01*
X0404164Y0056480D02*
X0407834Y0056480D01*
X0407834Y0054278D01*
X0407100Y0053544D01*
X0405632Y0053544D01*
X0403431Y0055012D02*
X0403431Y0055746D01*
X0404164Y0056480D01*
X0401568Y0056580D02*
X0398632Y0056580D01*
X0397898Y0057314D01*
X0395302Y0057281D02*
X0395302Y0055813D01*
X0394568Y0055079D01*
X0391632Y0055079D01*
X0394568Y0058015D01*
X0391632Y0058015D01*
X0390898Y0057281D01*
X0390898Y0055813D01*
X0391632Y0055079D01*
X0390898Y0053411D02*
X0390898Y0050475D01*
X0393834Y0053411D01*
X0394568Y0053411D01*
X0395302Y0052677D01*
X0395302Y0051209D01*
X0394568Y0050475D01*
X0397898Y0051242D02*
X0400834Y0051242D01*
X0400834Y0053444D01*
X0400100Y0054178D01*
X0397898Y0054178D01*
X0400834Y0055846D02*
X0400834Y0057314D01*
X0395302Y0057281D02*
X0394568Y0058015D01*
X0393834Y0059683D02*
X0395302Y0061151D01*
X0390898Y0061151D01*
X0390898Y0062618D02*
X0390898Y0059683D01*
X0391632Y0064287D02*
X0390898Y0065020D01*
X0390898Y0066488D01*
X0391632Y0067222D01*
X0392366Y0067222D01*
X0393100Y0066488D01*
X0393100Y0064287D01*
X0391632Y0064287D01*
X0393100Y0064287D02*
X0394568Y0065754D01*
X0395302Y0067222D01*
X0397898Y0065721D02*
X0397898Y0063519D01*
X0402302Y0063519D01*
X0402302Y0065721D01*
X0401568Y0066455D01*
X0400834Y0066455D01*
X0400100Y0065721D01*
X0400100Y0063519D01*
X0400100Y0065721D02*
X0399366Y0066455D01*
X0398632Y0066455D01*
X0397898Y0065721D01*
X0398632Y0068123D02*
X0397898Y0068857D01*
X0397898Y0070325D01*
X0398632Y0071059D01*
X0400100Y0071059D01*
X0400834Y0070325D01*
X0400834Y0068857D01*
X0400100Y0068123D01*
X0398632Y0068123D01*
X0404898Y0068090D02*
X0404898Y0069558D01*
X0405632Y0070292D01*
X0407100Y0070292D01*
X0407834Y0069558D01*
X0407834Y0068090D01*
X0407100Y0067356D01*
X0405632Y0067356D01*
X0404898Y0068090D01*
X0404898Y0065688D02*
X0409302Y0065688D01*
X0407834Y0064220D01*
X0409302Y0062752D01*
X0404898Y0062752D01*
X0405632Y0071960D02*
X0407100Y0071960D01*
X0407834Y0072694D01*
X0407834Y0074896D01*
X0409302Y0074896D02*
X0404898Y0074896D01*
X0404898Y0072694D01*
X0405632Y0071960D01*
X0400834Y0073461D02*
X0400834Y0074929D01*
X0400100Y0075663D01*
X0397898Y0075663D01*
X0397898Y0073461D01*
X0398632Y0072727D01*
X0399366Y0073461D01*
X0399366Y0075663D01*
X0399366Y0077331D02*
X0400834Y0078799D01*
X0400834Y0079533D01*
X0400100Y0081168D02*
X0400834Y0081902D01*
X0400834Y0084103D01*
X0402302Y0084103D02*
X0397898Y0084103D01*
X0397898Y0081902D01*
X0398632Y0081168D01*
X0400100Y0081168D01*
X0404898Y0081168D02*
X0404898Y0082636D01*
X0404898Y0081902D02*
X0409302Y0081902D01*
X0409302Y0081168D01*
X0407834Y0079500D02*
X0404898Y0079500D01*
X0404898Y0077298D01*
X0405632Y0076564D01*
X0407834Y0076564D01*
X0400834Y0077331D02*
X0397898Y0077331D01*
X0395302Y0078832D02*
X0394568Y0078098D01*
X0391632Y0078098D01*
X0390898Y0078832D01*
X0390898Y0080300D01*
X0391632Y0081034D01*
X0393100Y0082702D02*
X0393100Y0085638D01*
X0393100Y0087306D02*
X0393100Y0089508D01*
X0392366Y0090242D01*
X0391632Y0090242D01*
X0390898Y0089508D01*
X0390898Y0087306D01*
X0395302Y0087306D01*
X0395302Y0089508D01*
X0394568Y0090242D01*
X0393834Y0090242D01*
X0393100Y0089508D01*
X0394568Y0091910D02*
X0393100Y0093378D01*
X0390898Y0093378D01*
X0393100Y0093378D02*
X0394568Y0094846D01*
X0395302Y0094846D01*
X0393100Y0096514D02*
X0393100Y0099450D01*
X0393834Y0101118D02*
X0393100Y0101852D01*
X0393100Y0103320D01*
X0392366Y0104054D01*
X0391632Y0104054D01*
X0390898Y0103320D01*
X0390898Y0101852D01*
X0391632Y0101118D01*
X0393834Y0101118D02*
X0394568Y0101118D01*
X0395302Y0101852D01*
X0395302Y0103320D01*
X0394568Y0104054D01*
X0393834Y0105722D02*
X0395302Y0107190D01*
X0393834Y0108658D01*
X0390898Y0108658D01*
X0393100Y0108658D02*
X0393100Y0105722D01*
X0393834Y0105722D02*
X0390898Y0105722D01*
X0404898Y0106489D02*
X0407834Y0106489D01*
X0406366Y0106489D02*
X0407834Y0107957D01*
X0407834Y0108691D01*
X0407834Y0110326D02*
X0407834Y0111060D01*
X0404898Y0111060D01*
X0404898Y0110326D02*
X0404898Y0111794D01*
X0404898Y0113395D02*
X0407834Y0113395D01*
X0407834Y0115597D01*
X0407100Y0116331D01*
X0404898Y0116331D01*
X0405632Y0117999D02*
X0404898Y0118733D01*
X0404898Y0120935D01*
X0404164Y0120935D02*
X0407834Y0120935D01*
X0407834Y0118733D01*
X0407100Y0117999D01*
X0405632Y0117999D01*
X0403431Y0119467D02*
X0403431Y0120201D01*
X0404164Y0120935D01*
X0404898Y0127207D02*
X0409302Y0127207D01*
X0407834Y0128675D01*
X0409302Y0130143D01*
X0404898Y0130143D01*
X0405632Y0131811D02*
X0406366Y0132545D01*
X0406366Y0134747D01*
X0407100Y0134747D02*
X0404898Y0134747D01*
X0404898Y0132545D01*
X0405632Y0131811D01*
X0407834Y0132545D02*
X0407834Y0134013D01*
X0407100Y0134747D01*
X0407100Y0136415D02*
X0405632Y0136415D01*
X0404898Y0137149D01*
X0404898Y0139351D01*
X0404898Y0141019D02*
X0409302Y0141019D01*
X0407834Y0141753D02*
X0407834Y0143220D01*
X0407100Y0143954D01*
X0404898Y0143954D01*
X0404898Y0145623D02*
X0404898Y0147090D01*
X0404898Y0146356D02*
X0407834Y0146356D01*
X0407834Y0145623D01*
X0409302Y0146356D02*
X0410036Y0146356D01*
X0407834Y0148692D02*
X0404898Y0148692D01*
X0407834Y0148692D02*
X0407834Y0150894D01*
X0407100Y0151628D01*
X0404898Y0151628D01*
X0405632Y0153296D02*
X0407100Y0153296D01*
X0407834Y0154030D01*
X0407834Y0155498D01*
X0407100Y0156232D01*
X0406366Y0156232D01*
X0406366Y0153296D01*
X0405632Y0153296D02*
X0404898Y0154030D01*
X0404898Y0155498D01*
X0407834Y0141753D02*
X0407100Y0141019D01*
X0407834Y0139351D02*
X0407834Y0137149D01*
X0407100Y0136415D01*
X0428598Y0127600D02*
X0431098Y0130100D01*
X0446098Y0130100D01*
X0448598Y0127600D01*
X0448598Y0122600D01*
X0446098Y0120100D01*
X0448598Y0117600D01*
X0448598Y0112600D01*
X0446098Y0110100D01*
X0448598Y0107600D01*
X0448598Y0102600D01*
X0446098Y0100100D01*
X0448598Y0097600D01*
X0448598Y0092600D01*
X0446098Y0090100D01*
X0448598Y0087600D01*
X0448598Y0082600D01*
X0446098Y0080100D01*
X0431098Y0080100D01*
X0428598Y0082600D01*
X0428598Y0087600D01*
X0431098Y0090100D01*
X0428598Y0092600D01*
X0428598Y0097600D01*
X0431098Y0100100D01*
X0428598Y0102600D01*
X0428598Y0107600D01*
X0431098Y0110100D01*
X0428598Y0112600D01*
X0428598Y0117600D01*
X0431098Y0120100D01*
X0428598Y0122600D01*
X0428598Y0127600D01*
X0410036Y0111060D02*
X0409302Y0111060D01*
X0407834Y0104821D02*
X0404898Y0104821D01*
X0404898Y0102619D01*
X0405632Y0101885D01*
X0407834Y0101885D01*
X0409302Y0100217D02*
X0409302Y0097281D01*
X0409302Y0098749D02*
X0404898Y0098749D01*
X0407834Y0091043D02*
X0407834Y0090309D01*
X0406366Y0088841D01*
X0404898Y0088841D02*
X0407834Y0088841D01*
X0407100Y0087173D02*
X0404898Y0087173D01*
X0404898Y0084971D01*
X0405632Y0084237D01*
X0406366Y0084971D01*
X0406366Y0087173D01*
X0407100Y0087173D02*
X0407834Y0086439D01*
X0407834Y0084971D01*
X0395302Y0080300D02*
X0395302Y0078832D01*
X0395302Y0080300D02*
X0394568Y0081034D01*
X0394568Y0076430D02*
X0395302Y0075696D01*
X0395302Y0074228D01*
X0394568Y0073494D01*
X0391632Y0073494D01*
X0390898Y0074228D01*
X0390898Y0075696D01*
X0391632Y0076430D01*
X0394568Y0091910D02*
X0395302Y0091910D01*
X0404898Y0018114D02*
X0407834Y0018114D01*
X0404898Y0018114D02*
X0404898Y0015912D01*
X0405632Y0015178D01*
X0407834Y0015178D01*
X0409302Y0013510D02*
X0404898Y0013510D01*
X0404898Y0010574D02*
X0409302Y0010574D01*
X0407834Y0012042D01*
X0409302Y0013510D01*
X0208598Y0177600D02*
X0206098Y0175100D01*
X0201098Y0175100D01*
X0198598Y0177600D01*
X0196098Y0175100D01*
X0191098Y0175100D01*
X0188598Y0177600D01*
X0186098Y0175100D01*
X0181098Y0175100D01*
X0178598Y0177600D01*
X0178598Y0192600D01*
X0181098Y0195100D01*
X0186098Y0195100D01*
X0188598Y0192600D01*
X0191098Y0195100D01*
X0196098Y0195100D01*
X0198598Y0192600D01*
X0201098Y0195100D01*
X0206098Y0195100D01*
X0208598Y0192600D01*
X0208598Y0177600D01*
D11*
X0185848Y0171853D02*
X0184347Y0173354D01*
X0184347Y0168850D01*
X0185848Y0168850D02*
X0182846Y0168850D01*
X0211346Y0188601D02*
X0211346Y0189351D01*
X0212097Y0190102D01*
X0214348Y0190102D01*
X0214348Y0188601D01*
X0213598Y0187850D01*
X0212097Y0187850D01*
X0211346Y0188601D01*
X0212847Y0191603D02*
X0214348Y0190102D01*
X0212847Y0191603D02*
X0211346Y0192354D01*
X0210346Y0196850D02*
X0213348Y0196850D01*
X0213348Y0201354D01*
X0208745Y0201354D02*
X0207243Y0201354D01*
X0207994Y0201354D02*
X0207994Y0196850D01*
X0208745Y0196850D02*
X0207243Y0196850D01*
X0205675Y0196850D02*
X0205675Y0201354D01*
X0202673Y0196850D01*
X0202673Y0201354D01*
X0201071Y0201354D02*
X0201071Y0196850D01*
X0201071Y0198351D02*
X0198069Y0201354D01*
X0196467Y0199853D02*
X0194966Y0201354D01*
X0194966Y0196850D01*
X0196467Y0196850D02*
X0193465Y0196850D01*
X0198069Y0196850D02*
X0200321Y0199102D01*
X0190852Y0124749D02*
X0190102Y0123247D01*
X0188600Y0121746D01*
X0188600Y0123998D01*
X0187850Y0124749D01*
X0187099Y0124749D01*
X0186348Y0123998D01*
X0186348Y0122497D01*
X0187099Y0121746D01*
X0188600Y0121746D01*
X0181852Y0121497D02*
X0181852Y0122998D01*
X0181102Y0123749D01*
X0180351Y0123749D01*
X0177348Y0120746D01*
X0177348Y0123749D01*
X0181102Y0120746D02*
X0181852Y0121497D01*
X0181852Y0119145D02*
X0178850Y0116142D01*
X0179600Y0116893D02*
X0177348Y0119145D01*
X0177348Y0116142D02*
X0181852Y0116142D01*
X0181852Y0114541D02*
X0177348Y0114541D01*
X0181852Y0111538D01*
X0177348Y0111538D01*
X0177348Y0109970D02*
X0177348Y0108469D01*
X0177348Y0109220D02*
X0181852Y0109220D01*
X0181852Y0109970D02*
X0181852Y0108469D01*
X0177348Y0106868D02*
X0177348Y0103865D01*
X0181852Y0103865D01*
X0205348Y0096249D02*
X0205348Y0093246D01*
X0205348Y0094747D02*
X0209852Y0094747D01*
X0208351Y0093246D01*
X0422348Y0093865D02*
X0422348Y0096868D01*
X0422348Y0098469D02*
X0422348Y0099970D01*
X0422348Y0099220D02*
X0426852Y0099220D01*
X0426852Y0099970D02*
X0426852Y0098469D01*
X0426852Y0101538D02*
X0422348Y0101538D01*
X0422348Y0104541D02*
X0426852Y0104541D01*
X0426852Y0106142D02*
X0422348Y0106142D01*
X0423850Y0106142D02*
X0426852Y0109145D01*
X0426102Y0110746D02*
X0426852Y0111497D01*
X0426852Y0112998D01*
X0426102Y0113749D01*
X0425351Y0113749D01*
X0424600Y0112998D01*
X0423850Y0113749D01*
X0423099Y0113749D01*
X0422348Y0112998D01*
X0422348Y0111497D01*
X0423099Y0110746D01*
X0422348Y0109145D02*
X0424600Y0106893D01*
X0422348Y0104541D02*
X0426852Y0101538D01*
X0426852Y0093865D02*
X0422348Y0093865D01*
X0450348Y0086749D02*
X0450348Y0083746D01*
X0450348Y0085247D02*
X0454852Y0085247D01*
X0453351Y0083746D01*
X0424600Y0112247D02*
X0424600Y0112998D01*
X0425351Y0119142D02*
X0426852Y0120643D01*
X0422348Y0120643D01*
X0422348Y0119142D02*
X0422348Y0122145D01*
X0423099Y0123746D02*
X0422348Y0124497D01*
X0422348Y0125998D01*
X0423099Y0126749D01*
X0426102Y0126749D01*
X0423099Y0123746D01*
X0426102Y0123746D01*
X0426852Y0124497D01*
X0426852Y0125998D01*
X0426102Y0126749D01*
M02*
