%
M48
M72
T01C0.0130
T02C0.0236
T03C0.0320
T04C0.0354
T05C0.0400
T06C0.0433
T07C0.0787
T08C0.0827
T09C0.0866
T10C0.1260
%
T01
X22360Y5260
X28860Y6760
X29360Y7010
X39360Y10760
X35110Y12760
X34610Y13010
X35610Y13510
X36610Y13760
X37110Y14010
X36110Y14260
X38110Y14760
X39110Y14510
X38610Y13260
X38110Y13010
X33610Y14510
X30860Y12760
X28610Y13010
X28360Y14510
X25360Y14760
X23860Y14260
X24360Y14010
X23360Y13260
X22360Y13760
X21610Y11010
T02
X24610Y10260
X26860Y9510
X33860Y3260
X41110Y17010
X40110Y17510
X26610Y17010
X21985Y17510
T03
X20360Y16760
X19360Y16760
X18360Y16760
X17360Y16760
X16360Y16010
X15360Y16010
X14360Y17010
X13360Y17010
X12360Y17010
X11360Y17010
X10110Y15510
X7110Y15510
X11360Y14010
X12360Y14010
X13360Y14010
X14360Y14010
X15360Y14010
X16360Y14010
X17360Y13760
X18360Y13760
X19360Y13760
X20360Y13760
X15860Y10510
X16860Y9260
X17860Y9260
X18610Y8260
X19610Y8260
X20860Y7760
X22360Y8010
X23360Y8010
X24610Y8260
X25860Y7760
X27110Y8260
X28610Y7760
X29860Y8260
X30860Y8260
X31860Y7760
X32860Y7760
X33860Y7760
X34860Y7760
X38610Y7510
X38610Y6510
X38610Y5510
X38610Y4510
X37110Y3760
X36360Y3260
X36360Y4260
X34860Y4260
X33860Y4260
X32860Y4260
X31860Y4260
X30860Y4260
X29860Y4260
X29860Y5260
X30860Y5260
X31860Y5760
X32860Y5760
X33860Y5760
X34860Y5760
X28610Y5760
X27110Y5260
X25860Y5760
X24610Y5260
X22610Y4260
X20610Y4260
X19610Y3260
X20610Y2260
X22610Y2260
X29860Y1260
X30860Y1260
X31860Y1260
X32860Y1260
X33860Y1260
X34860Y1260
X41610Y4510
X43360Y4510
X43360Y5510
X41610Y5510
X41610Y6510
X43360Y6510
X43360Y7510
X41610Y7510
X46360Y7510
X47760Y7260
X46360Y6510
X47760Y6260
X46360Y5510
X47760Y4760
X46360Y4510
X47760Y3760
X47760Y2260
X47760Y1260
X47760Y8760
X47760Y9760
X47760Y11260
X47760Y12260
X47760Y13760
X47760Y14760
X47760Y16260
X46110Y17010
X44860Y17510
X47760Y17260
X47760Y18760
X46110Y19010
X44860Y19510
X43110Y19010
X42110Y19010
X41110Y19010
X40110Y19010
X39110Y19010
X38110Y19010
X37110Y19010
X36110Y19010
X34610Y19010
X33610Y19010
X32610Y19010
X31610Y19010
X30610Y19010
X29610Y19010
X28610Y19010
X28610Y16010
X29610Y16010
X30610Y16010
X31610Y16010
X32610Y16010
X33610Y16010
X34610Y16010
X36110Y16010
X37110Y16010
X38110Y16010
X39110Y16010
X40110Y16010
X41110Y16010
X42110Y16010
X43110Y16010
X47760Y19760
X22860Y8760
X20860Y5760
X19610Y5260
X18610Y5260
X10110Y5510
X7110Y5510
X7110Y10510
X10110Y10510
X12860Y10510
X12110Y19260
X11110Y19260
T04
X22391Y19112
X23376Y19112
X24360Y19112
X25344Y19112
X26328Y19112
X26328Y11908
X25344Y11908
X24360Y11908
X23376Y11908
X22391Y11908
T05
X19860Y11510
X18860Y11510
X18860Y10510
X19860Y10510
X19860Y9510
X18860Y9510
X19360Y18010
X20360Y18010
X18360Y18010
X18360Y19010
X19360Y19010
X20360Y19010
X43360Y12510
X44360Y12510
X44360Y11510
X43360Y11510
X43360Y10510
X44360Y10510
X44360Y9510
X43360Y9510
X43360Y8510
X44360Y8510
T06
X6891Y3010
X10238Y3010
X11419Y3010
X12604Y3260
X12604Y2276
X12604Y4244
X12641Y8010
X11419Y8010
X10238Y8010
X6891Y8010
X15988Y8010
X17169Y8010
X11419Y13010
X10238Y13010
X6891Y13010
X6891Y18010
X10238Y18010
X11419Y18010
X34104Y11494
X34104Y10510
X34104Y9526
T07
X27509Y15943
X21210Y15943
T08
X36860Y12282
X36860Y8738
X15360Y5032
X15360Y1488
T09
X24010Y3260
X25860Y3260
X27710Y3260
T10
X43860Y2260
X15860Y18760
M30
