G75*
%MOIN*%
%OFA0B0*%
%FSLAX25Y25*%
%IPPOS*%
%LPD*%
%AMOC8*
5,1,8,0,0,1.08239X$1,22.5*
%
%ADD10C,0.05200*%
%ADD11OC8,0.05200*%
%ADD12R,0.06900X0.06900*%
%ADD13C,0.06900*%
%ADD14C,0.04534*%
%ADD15OC8,0.06400*%
%ADD16C,0.07000*%
%ADD17C,0.06306*%
%ADD18C,0.06400*%
%ADD19C,0.12998*%
D10*
X0228598Y0050200D02*
X0228598Y0055000D01*
X0238598Y0055000D02*
X0238598Y0050200D01*
X0248598Y0050200D02*
X0248598Y0055000D01*
X0258598Y0055000D02*
X0258598Y0050200D01*
X0268598Y0050200D02*
X0268598Y0055000D01*
X0278598Y0055000D02*
X0278598Y0050200D01*
X0288598Y0050200D02*
X0288598Y0055000D01*
X0328598Y0055000D02*
X0328598Y0050200D01*
X0338598Y0050200D02*
X0338598Y0055000D01*
X0348598Y0055000D02*
X0348598Y0050200D01*
X0358598Y0050200D02*
X0358598Y0055000D01*
X0368598Y0055000D02*
X0368598Y0050200D01*
X0378598Y0050200D02*
X0378598Y0055000D01*
X0388598Y0055000D02*
X0388598Y0050200D01*
X0398598Y0050200D02*
X0398598Y0055000D01*
X0398598Y0080200D02*
X0398598Y0085000D01*
X0388598Y0085000D02*
X0388598Y0080200D01*
X0378598Y0080200D02*
X0378598Y0085000D01*
X0368598Y0085000D02*
X0368598Y0080200D01*
X0358598Y0080200D02*
X0358598Y0085000D01*
X0348598Y0085000D02*
X0348598Y0080200D01*
X0338598Y0080200D02*
X0338598Y0085000D01*
X0328598Y0085000D02*
X0328598Y0080200D01*
X0288598Y0080200D02*
X0288598Y0085000D01*
X0278598Y0085000D02*
X0278598Y0080200D01*
X0268598Y0080200D02*
X0268598Y0085000D01*
X0258598Y0085000D02*
X0258598Y0080200D01*
X0248598Y0080200D02*
X0248598Y0085000D01*
X0238598Y0085000D02*
X0238598Y0080200D01*
X0228598Y0080200D02*
X0228598Y0085000D01*
X0228598Y0102700D02*
X0228598Y0107500D01*
X0238598Y0107500D02*
X0238598Y0102700D01*
X0248598Y0102700D02*
X0248598Y0107500D01*
X0258598Y0107500D02*
X0258598Y0102700D01*
X0268598Y0102700D02*
X0268598Y0107500D01*
X0278598Y0107500D02*
X0278598Y0102700D01*
X0288598Y0102700D02*
X0288598Y0107500D01*
X0328598Y0107500D02*
X0328598Y0102700D01*
X0338598Y0102700D02*
X0338598Y0107500D01*
X0348598Y0107500D02*
X0348598Y0102700D01*
X0358598Y0102700D02*
X0358598Y0107500D01*
X0368598Y0107500D02*
X0368598Y0102700D01*
X0378598Y0102700D02*
X0378598Y0107500D01*
X0388598Y0107500D02*
X0388598Y0102700D01*
X0398598Y0102700D02*
X0398598Y0107500D01*
X0398598Y0132700D02*
X0398598Y0137500D01*
X0388598Y0137500D02*
X0388598Y0132700D01*
X0378598Y0132700D02*
X0378598Y0137500D01*
X0368598Y0137500D02*
X0368598Y0132700D01*
X0358598Y0132700D02*
X0358598Y0137500D01*
X0348598Y0137500D02*
X0348598Y0132700D01*
X0338598Y0132700D02*
X0338598Y0137500D01*
X0328598Y0137500D02*
X0328598Y0132700D01*
X0288598Y0132700D02*
X0288598Y0137500D01*
X0278598Y0137500D02*
X0278598Y0132700D01*
X0268598Y0132700D02*
X0268598Y0137500D01*
X0258598Y0137500D02*
X0258598Y0132700D01*
X0248598Y0132700D02*
X0248598Y0137500D01*
X0238598Y0137500D02*
X0238598Y0132700D01*
X0228598Y0132700D02*
X0228598Y0137500D01*
X0228598Y0157700D02*
X0228598Y0162500D01*
X0238598Y0162500D02*
X0238598Y0157700D01*
X0248598Y0157700D02*
X0248598Y0162500D01*
X0258598Y0162500D02*
X0258598Y0157700D01*
X0268598Y0157700D02*
X0268598Y0162500D01*
X0278598Y0162500D02*
X0278598Y0157700D01*
X0288598Y0157700D02*
X0288598Y0162500D01*
X0298598Y0162500D02*
X0298598Y0157700D01*
X0328598Y0157700D02*
X0328598Y0162500D01*
X0338598Y0162500D02*
X0338598Y0157700D01*
X0348598Y0157700D02*
X0348598Y0162500D01*
X0358598Y0162500D02*
X0358598Y0157700D01*
X0368598Y0157700D02*
X0368598Y0162500D01*
X0378598Y0162500D02*
X0378598Y0157700D01*
X0388598Y0157700D02*
X0388598Y0162500D01*
X0398598Y0162500D02*
X0398598Y0157700D01*
X0398598Y0187700D02*
X0398598Y0192500D01*
X0388598Y0192500D02*
X0388598Y0187700D01*
X0378598Y0187700D02*
X0378598Y0192500D01*
X0368598Y0192500D02*
X0368598Y0187700D01*
X0358598Y0187700D02*
X0358598Y0192500D01*
X0348598Y0192500D02*
X0348598Y0187700D01*
X0338598Y0187700D02*
X0338598Y0192500D01*
X0328598Y0192500D02*
X0328598Y0187700D01*
X0298598Y0187700D02*
X0298598Y0192500D01*
X0288598Y0192500D02*
X0288598Y0187700D01*
X0278598Y0187700D02*
X0278598Y0192500D01*
X0268598Y0192500D02*
X0268598Y0187700D01*
X0258598Y0187700D02*
X0258598Y0192500D01*
X0248598Y0192500D02*
X0248598Y0187700D01*
X0238598Y0187700D02*
X0238598Y0192500D01*
X0228598Y0192500D02*
X0228598Y0187700D01*
X0133598Y0182500D02*
X0133598Y0177700D01*
X0123598Y0177700D02*
X0123598Y0182500D01*
X0113598Y0182500D02*
X0113598Y0177700D01*
X0103598Y0177700D02*
X0103598Y0182500D01*
X0093598Y0182500D02*
X0093598Y0177700D01*
X0083598Y0177700D02*
X0083598Y0182500D01*
X0073598Y0182500D02*
X0073598Y0177700D01*
X0073598Y0152500D02*
X0073598Y0147700D01*
X0083598Y0147700D02*
X0083598Y0152500D01*
X0093598Y0152500D02*
X0093598Y0147700D01*
X0103598Y0147700D02*
X0103598Y0152500D01*
X0113598Y0152500D02*
X0113598Y0147700D01*
X0123598Y0147700D02*
X0123598Y0152500D01*
X0133598Y0152500D02*
X0133598Y0147700D01*
D11*
X0153598Y0160100D03*
X0163598Y0155100D03*
X0173598Y0155100D03*
X0183598Y0160100D03*
X0193598Y0155100D03*
X0203598Y0160100D03*
X0218598Y0160100D03*
X0218598Y0180100D03*
X0318598Y0186600D03*
X0318598Y0166600D03*
X0411098Y0157600D03*
X0418598Y0152600D03*
X0418598Y0162600D03*
X0408598Y0130100D03*
X0408598Y0110100D03*
X0408598Y0077600D03*
X0408598Y0057600D03*
X0416098Y0052600D03*
X0423598Y0047600D03*
X0416098Y0042600D03*
X0218598Y0055100D03*
X0218598Y0075100D03*
X0218598Y0107600D03*
X0218598Y0127600D03*
X0203598Y0130100D03*
X0193598Y0135100D03*
X0183598Y0130100D03*
X0173598Y0135100D03*
X0163598Y0135100D03*
X0153598Y0130100D03*
X0133598Y0125100D03*
X0123598Y0130100D03*
X0113598Y0130100D03*
X0103598Y0125100D03*
X0093598Y0130100D03*
X0103598Y0105100D03*
X0093598Y0100100D03*
X0113598Y0100100D03*
X0123598Y0100100D03*
X0133598Y0105100D03*
X0098598Y0070100D03*
X0078598Y0070100D03*
X0173598Y0035100D03*
X0173598Y0025100D03*
X0203598Y0025100D03*
X0203598Y0035100D03*
X0098598Y0030100D03*
X0078598Y0030100D03*
D12*
X0141098Y0042600D03*
X0151098Y0062600D03*
D13*
X0141098Y0062600D03*
X0151098Y0042600D03*
D14*
X0173598Y0048033D02*
X0173598Y0052167D01*
X0183598Y0052167D02*
X0183598Y0048033D01*
X0193598Y0048033D02*
X0193598Y0052167D01*
X0203598Y0052167D02*
X0203598Y0048033D01*
X0203598Y0078033D02*
X0203598Y0082167D01*
X0193598Y0082167D02*
X0193598Y0078033D01*
X0183598Y0078033D02*
X0183598Y0082167D01*
X0173598Y0082167D02*
X0173598Y0078033D01*
D15*
X0188598Y0095100D03*
X0188598Y0105100D03*
X0198598Y0105100D03*
X0198598Y0115100D03*
X0188598Y0115100D03*
X0118598Y0055100D03*
X0108598Y0055100D03*
X0098598Y0055100D03*
X0088598Y0055100D03*
X0078598Y0055100D03*
X0078598Y0045100D03*
X0088598Y0045100D03*
X0098598Y0045100D03*
X0108598Y0045100D03*
X0118598Y0045100D03*
X0228598Y0025100D03*
X0238598Y0025100D03*
X0248598Y0025100D03*
X0258598Y0025100D03*
X0268598Y0025100D03*
X0278598Y0025100D03*
X0288598Y0025100D03*
X0298598Y0025100D03*
X0298598Y0015100D03*
X0288598Y0015100D03*
X0278598Y0015100D03*
X0268598Y0015100D03*
X0258598Y0015100D03*
X0248598Y0015100D03*
X0238598Y0015100D03*
X0228598Y0015100D03*
X0328598Y0015100D03*
X0338598Y0015100D03*
X0348598Y0015100D03*
X0358598Y0015100D03*
X0368598Y0015100D03*
X0378598Y0015100D03*
X0388598Y0015100D03*
X0398598Y0015100D03*
X0398598Y0025100D03*
X0388598Y0025100D03*
X0378598Y0025100D03*
X0368598Y0025100D03*
X0358598Y0025100D03*
X0348598Y0025100D03*
X0338598Y0025100D03*
X0328598Y0025100D03*
X0433598Y0085100D03*
X0443598Y0085100D03*
X0443598Y0095100D03*
X0433598Y0095100D03*
X0433598Y0105100D03*
X0443598Y0105100D03*
X0443598Y0115100D03*
X0433598Y0115100D03*
X0433598Y0125100D03*
X0443598Y0125100D03*
X0203598Y0180100D03*
X0193598Y0180100D03*
X0193598Y0190100D03*
X0183598Y0190100D03*
X0203598Y0190100D03*
D16*
X0078598Y0020100D03*
X0118598Y0020100D03*
X0118598Y0080100D03*
X0078598Y0080100D03*
D17*
X0114805Y0070760D03*
X0152392Y0084440D03*
X0114805Y0031940D03*
X0152392Y0018260D03*
D18*
X0198598Y0095100D03*
X0183598Y0180100D03*
D19*
X0158598Y0187600D03*
X0438598Y0022600D03*
M02*
