G75*
%MOIN*%
%OFA0B0*%
%FSLAX25Y25*%
%IPPOS*%
%LPD*%
%AMOC8*
5,1,8,0,0,1.08239X$1,22.5*
%
%ADD10C,0.04800*%
%ADD11OC8,0.04800*%
%ADD12R,0.06500X0.06500*%
%ADD13C,0.06500*%
%ADD14C,0.04134*%
%ADD15OC8,0.06000*%
%ADD16C,0.06600*%
%ADD17C,0.05906*%
%ADD18C,0.06000*%
%ADD19C,0.01000*%
%ADD20C,0.02500*%
%ADD21C,0.01600*%
%ADD22R,0.03562X0.03562*%
%ADD23C,0.03200*%
%ADD24C,0.02400*%
%ADD25R,0.03200X0.03200*%
%ADD26R,0.03600X0.03600*%
D10*
X0228598Y0050200D02*
X0228598Y0055000D01*
X0238598Y0055000D02*
X0238598Y0050200D01*
X0248598Y0050200D02*
X0248598Y0055000D01*
X0258598Y0055000D02*
X0258598Y0050200D01*
X0268598Y0050200D02*
X0268598Y0055000D01*
X0278598Y0055000D02*
X0278598Y0050200D01*
X0288598Y0050200D02*
X0288598Y0055000D01*
X0328598Y0055000D02*
X0328598Y0050200D01*
X0338598Y0050200D02*
X0338598Y0055000D01*
X0348598Y0055000D02*
X0348598Y0050200D01*
X0358598Y0050200D02*
X0358598Y0055000D01*
X0368598Y0055000D02*
X0368598Y0050200D01*
X0378598Y0050200D02*
X0378598Y0055000D01*
X0388598Y0055000D02*
X0388598Y0050200D01*
X0398598Y0050200D02*
X0398598Y0055000D01*
X0398598Y0080200D02*
X0398598Y0085000D01*
X0388598Y0085000D02*
X0388598Y0080200D01*
X0378598Y0080200D02*
X0378598Y0085000D01*
X0368598Y0085000D02*
X0368598Y0080200D01*
X0358598Y0080200D02*
X0358598Y0085000D01*
X0348598Y0085000D02*
X0348598Y0080200D01*
X0338598Y0080200D02*
X0338598Y0085000D01*
X0328598Y0085000D02*
X0328598Y0080200D01*
X0288598Y0080200D02*
X0288598Y0085000D01*
X0278598Y0085000D02*
X0278598Y0080200D01*
X0268598Y0080200D02*
X0268598Y0085000D01*
X0258598Y0085000D02*
X0258598Y0080200D01*
X0248598Y0080200D02*
X0248598Y0085000D01*
X0238598Y0085000D02*
X0238598Y0080200D01*
X0228598Y0080200D02*
X0228598Y0085000D01*
X0228598Y0102700D02*
X0228598Y0107500D01*
X0238598Y0107500D02*
X0238598Y0102700D01*
X0248598Y0102700D02*
X0248598Y0107500D01*
X0258598Y0107500D02*
X0258598Y0102700D01*
X0268598Y0102700D02*
X0268598Y0107500D01*
X0278598Y0107500D02*
X0278598Y0102700D01*
X0288598Y0102700D02*
X0288598Y0107500D01*
X0328598Y0107500D02*
X0328598Y0102700D01*
X0338598Y0102700D02*
X0338598Y0107500D01*
X0348598Y0107500D02*
X0348598Y0102700D01*
X0358598Y0102700D02*
X0358598Y0107500D01*
X0368598Y0107500D02*
X0368598Y0102700D01*
X0378598Y0102700D02*
X0378598Y0107500D01*
X0388598Y0107500D02*
X0388598Y0102700D01*
X0398598Y0102700D02*
X0398598Y0107500D01*
X0398598Y0132700D02*
X0398598Y0137500D01*
X0388598Y0137500D02*
X0388598Y0132700D01*
X0378598Y0132700D02*
X0378598Y0137500D01*
X0368598Y0137500D02*
X0368598Y0132700D01*
X0358598Y0132700D02*
X0358598Y0137500D01*
X0348598Y0137500D02*
X0348598Y0132700D01*
X0338598Y0132700D02*
X0338598Y0137500D01*
X0328598Y0137500D02*
X0328598Y0132700D01*
X0288598Y0132700D02*
X0288598Y0137500D01*
X0278598Y0137500D02*
X0278598Y0132700D01*
X0268598Y0132700D02*
X0268598Y0137500D01*
X0258598Y0137500D02*
X0258598Y0132700D01*
X0248598Y0132700D02*
X0248598Y0137500D01*
X0238598Y0137500D02*
X0238598Y0132700D01*
X0228598Y0132700D02*
X0228598Y0137500D01*
X0228598Y0157700D02*
X0228598Y0162500D01*
X0238598Y0162500D02*
X0238598Y0157700D01*
X0248598Y0157700D02*
X0248598Y0162500D01*
X0258598Y0162500D02*
X0258598Y0157700D01*
X0268598Y0157700D02*
X0268598Y0162500D01*
X0278598Y0162500D02*
X0278598Y0157700D01*
X0288598Y0157700D02*
X0288598Y0162500D01*
X0298598Y0162500D02*
X0298598Y0157700D01*
X0328598Y0157700D02*
X0328598Y0162500D01*
X0338598Y0162500D02*
X0338598Y0157700D01*
X0348598Y0157700D02*
X0348598Y0162500D01*
X0358598Y0162500D02*
X0358598Y0157700D01*
X0368598Y0157700D02*
X0368598Y0162500D01*
X0378598Y0162500D02*
X0378598Y0157700D01*
X0388598Y0157700D02*
X0388598Y0162500D01*
X0398598Y0162500D02*
X0398598Y0157700D01*
X0398598Y0187700D02*
X0398598Y0192500D01*
X0388598Y0192500D02*
X0388598Y0187700D01*
X0378598Y0187700D02*
X0378598Y0192500D01*
X0368598Y0192500D02*
X0368598Y0187700D01*
X0358598Y0187700D02*
X0358598Y0192500D01*
X0348598Y0192500D02*
X0348598Y0187700D01*
X0338598Y0187700D02*
X0338598Y0192500D01*
X0328598Y0192500D02*
X0328598Y0187700D01*
X0298598Y0187700D02*
X0298598Y0192500D01*
X0288598Y0192500D02*
X0288598Y0187700D01*
X0278598Y0187700D02*
X0278598Y0192500D01*
X0268598Y0192500D02*
X0268598Y0187700D01*
X0258598Y0187700D02*
X0258598Y0192500D01*
X0248598Y0192500D02*
X0248598Y0187700D01*
X0238598Y0187700D02*
X0238598Y0192500D01*
X0228598Y0192500D02*
X0228598Y0187700D01*
X0133598Y0182500D02*
X0133598Y0177700D01*
X0123598Y0177700D02*
X0123598Y0182500D01*
X0113598Y0182500D02*
X0113598Y0177700D01*
X0103598Y0177700D02*
X0103598Y0182500D01*
X0093598Y0182500D02*
X0093598Y0177700D01*
X0083598Y0177700D02*
X0083598Y0182500D01*
X0073598Y0182500D02*
X0073598Y0177700D01*
X0073598Y0152500D02*
X0073598Y0147700D01*
X0083598Y0147700D02*
X0083598Y0152500D01*
X0093598Y0152500D02*
X0093598Y0147700D01*
X0103598Y0147700D02*
X0103598Y0152500D01*
X0113598Y0152500D02*
X0113598Y0147700D01*
X0123598Y0147700D02*
X0123598Y0152500D01*
X0133598Y0152500D02*
X0133598Y0147700D01*
D11*
X0153598Y0160100D03*
X0163598Y0155100D03*
X0173598Y0155100D03*
X0183598Y0160100D03*
X0193598Y0155100D03*
X0203598Y0160100D03*
X0218598Y0160100D03*
X0218598Y0180100D03*
X0318598Y0186600D03*
X0318598Y0166600D03*
X0411098Y0157600D03*
X0418598Y0152600D03*
X0418598Y0162600D03*
X0408598Y0130100D03*
X0408598Y0110100D03*
X0408598Y0077600D03*
X0408598Y0057600D03*
X0416098Y0052600D03*
X0423598Y0047600D03*
X0416098Y0042600D03*
X0218598Y0055100D03*
X0218598Y0075100D03*
X0218598Y0107600D03*
X0218598Y0127600D03*
X0203598Y0130100D03*
X0193598Y0135100D03*
X0183598Y0130100D03*
X0173598Y0135100D03*
X0163598Y0135100D03*
X0153598Y0130100D03*
X0133598Y0125100D03*
X0123598Y0130100D03*
X0113598Y0130100D03*
X0103598Y0125100D03*
X0093598Y0130100D03*
X0103598Y0105100D03*
X0093598Y0100100D03*
X0113598Y0100100D03*
X0123598Y0100100D03*
X0133598Y0105100D03*
X0098598Y0070100D03*
X0078598Y0070100D03*
X0173598Y0035100D03*
X0173598Y0025100D03*
X0203598Y0025100D03*
X0203598Y0035100D03*
X0098598Y0030100D03*
X0078598Y0030100D03*
D12*
X0141098Y0042600D03*
X0151098Y0062600D03*
D13*
X0141098Y0062600D03*
X0151098Y0042600D03*
D14*
X0173598Y0048033D02*
X0173598Y0052167D01*
X0183598Y0052167D02*
X0183598Y0048033D01*
X0193598Y0048033D02*
X0193598Y0052167D01*
X0203598Y0052167D02*
X0203598Y0048033D01*
X0203598Y0078033D02*
X0203598Y0082167D01*
X0193598Y0082167D02*
X0193598Y0078033D01*
X0183598Y0078033D02*
X0183598Y0082167D01*
X0173598Y0082167D02*
X0173598Y0078033D01*
D15*
X0188598Y0095100D03*
X0188598Y0105100D03*
X0198598Y0105100D03*
X0198598Y0115100D03*
X0188598Y0115100D03*
X0118598Y0055100D03*
X0108598Y0055100D03*
X0098598Y0055100D03*
X0088598Y0055100D03*
X0078598Y0055100D03*
X0078598Y0045100D03*
X0088598Y0045100D03*
X0098598Y0045100D03*
X0108598Y0045100D03*
X0118598Y0045100D03*
X0228598Y0025100D03*
X0238598Y0025100D03*
X0248598Y0025100D03*
X0258598Y0025100D03*
X0268598Y0025100D03*
X0278598Y0025100D03*
X0288598Y0025100D03*
X0298598Y0025100D03*
X0298598Y0015100D03*
X0288598Y0015100D03*
X0278598Y0015100D03*
X0268598Y0015100D03*
X0258598Y0015100D03*
X0248598Y0015100D03*
X0238598Y0015100D03*
X0228598Y0015100D03*
X0328598Y0015100D03*
X0338598Y0015100D03*
X0348598Y0015100D03*
X0358598Y0015100D03*
X0368598Y0015100D03*
X0378598Y0015100D03*
X0388598Y0015100D03*
X0398598Y0015100D03*
X0398598Y0025100D03*
X0388598Y0025100D03*
X0378598Y0025100D03*
X0368598Y0025100D03*
X0358598Y0025100D03*
X0348598Y0025100D03*
X0338598Y0025100D03*
X0328598Y0025100D03*
X0433598Y0085100D03*
X0443598Y0085100D03*
X0443598Y0095100D03*
X0433598Y0095100D03*
X0433598Y0105100D03*
X0443598Y0105100D03*
X0443598Y0115100D03*
X0433598Y0115100D03*
X0433598Y0125100D03*
X0443598Y0125100D03*
X0203598Y0180100D03*
X0193598Y0180100D03*
X0193598Y0190100D03*
X0183598Y0190100D03*
X0203598Y0190100D03*
D16*
X0118598Y0080100D03*
X0078598Y0080100D03*
X0078598Y0020100D03*
X0118598Y0020100D03*
D17*
X0114805Y0031940D03*
X0152392Y0018260D03*
X0114805Y0070760D03*
X0152392Y0084440D03*
D18*
X0198598Y0095100D03*
X0183598Y0180100D03*
D19*
X0183598Y0170100D01*
X0188598Y0165100D01*
X0188598Y0142600D01*
X0168598Y0122600D01*
X0168598Y0052600D01*
X0171098Y0050100D01*
X0173598Y0050100D01*
X0178598Y0045100D02*
X0178598Y0065100D01*
X0193598Y0080100D01*
X0203598Y0080100D02*
X0203598Y0072600D01*
X0208598Y0067600D01*
X0208598Y0040100D01*
X0203598Y0035100D01*
X0223598Y0030100D02*
X0223598Y0067600D01*
X0233598Y0070100D02*
X0233598Y0017600D01*
X0236098Y0015100D01*
X0238598Y0015100D01*
X0243598Y0017600D02*
X0243598Y0092600D01*
X0248598Y0097600D01*
X0248598Y0105100D01*
X0238598Y0105100D02*
X0238598Y0135100D01*
X0248598Y0135100D02*
X0248598Y0147600D01*
X0238598Y0145100D02*
X0238598Y0160100D01*
X0258598Y0150100D02*
X0258598Y0135100D01*
X0268598Y0135100D02*
X0273598Y0130100D01*
X0273598Y0045100D01*
X0263598Y0035100D01*
X0263598Y0017600D01*
X0258598Y0015100D01*
X0253598Y0012600D02*
X0253598Y0027600D01*
X0258598Y0032600D01*
X0258598Y0052600D01*
X0248598Y0052600D02*
X0248598Y0067600D01*
X0253598Y0070100D02*
X0258598Y0075100D01*
X0258598Y0082600D01*
X0248598Y0082600D02*
X0248598Y0092600D01*
X0253598Y0097600D01*
X0253598Y0122600D01*
X0268598Y0120100D02*
X0268598Y0105100D01*
X0278598Y0105100D02*
X0278598Y0135100D01*
X0288598Y0135100D02*
X0288598Y0145100D01*
X0303598Y0150100D02*
X0306098Y0147600D01*
X0306098Y0030100D01*
X0308598Y0032600D02*
X0308598Y0150100D01*
X0311098Y0160100D02*
X0306098Y0165100D01*
X0306098Y0182600D01*
X0298598Y0190100D01*
X0333598Y0165100D02*
X0336098Y0167600D01*
X0346098Y0167600D01*
X0348598Y0165100D01*
X0348598Y0160100D01*
X0338598Y0160100D02*
X0338598Y0155100D01*
X0343598Y0150100D01*
X0343598Y0142600D01*
X0343598Y0120100D01*
X0348598Y0115100D01*
X0348598Y0105100D01*
X0353598Y0100100D02*
X0353598Y0115100D01*
X0358598Y0120100D01*
X0363598Y0120100D02*
X0363598Y0140100D01*
X0368598Y0145100D01*
X0368598Y0160100D01*
X0358598Y0160100D02*
X0358598Y0145100D01*
X0353598Y0140100D01*
X0353598Y0122600D01*
X0363598Y0112600D02*
X0368598Y0117600D01*
X0368598Y0135100D01*
X0358598Y0135100D02*
X0358598Y0140100D01*
X0363598Y0145100D01*
X0363598Y0182600D01*
X0358598Y0187600D01*
X0358598Y0190100D01*
X0368598Y0190100D02*
X0373598Y0185100D01*
X0373598Y0147600D01*
X0378598Y0152600D02*
X0378598Y0135100D01*
X0378598Y0115100D01*
X0373598Y0110100D01*
X0373598Y0097600D01*
X0378598Y0092600D01*
X0378598Y0082600D01*
X0358598Y0082600D02*
X0358598Y0095100D01*
X0353598Y0100100D01*
X0338598Y0095100D02*
X0333598Y0100100D01*
X0333598Y0110100D01*
X0338598Y0115100D01*
X0338598Y0122600D01*
X0328598Y0125100D02*
X0328598Y0105100D01*
X0313598Y0112600D02*
X0313598Y0030100D01*
X0321098Y0025100D02*
X0321098Y0045100D01*
X0318598Y0042600D02*
X0318598Y0015100D01*
X0316098Y0010100D02*
X0346098Y0010100D01*
X0348598Y0012600D01*
X0348598Y0015100D01*
X0353598Y0017600D02*
X0353598Y0060100D01*
X0363598Y0070100D01*
X0363598Y0112600D01*
X0388598Y0115100D02*
X0388598Y0135100D01*
X0348598Y0135100D02*
X0348598Y0150100D01*
X0338598Y0147600D02*
X0338598Y0135100D01*
X0293598Y0120100D02*
X0293598Y0087600D01*
X0288598Y0082600D01*
X0278598Y0082600D02*
X0278598Y0052600D01*
X0278598Y0045100D01*
X0268598Y0035100D01*
X0268598Y0025100D01*
X0248598Y0015100D02*
X0246098Y0015100D01*
X0243598Y0017600D01*
X0233598Y0010100D02*
X0228598Y0015100D01*
X0233598Y0010100D02*
X0251098Y0010100D01*
X0253598Y0012600D01*
X0238598Y0025100D02*
X0238598Y0042600D01*
X0228598Y0045100D02*
X0228598Y0025100D01*
X0253598Y0042600D02*
X0253598Y0070100D01*
X0238598Y0082600D02*
X0238598Y0052600D01*
X0303598Y0052600D02*
X0303598Y0115100D01*
X0311098Y0117600D02*
X0311098Y0052600D01*
X0343598Y0060100D02*
X0348598Y0065100D01*
X0348598Y0082600D01*
X0338598Y0082600D02*
X0338598Y0095100D01*
X0316098Y0097600D02*
X0316098Y0010100D01*
X0333598Y0017600D02*
X0336098Y0015100D01*
X0338598Y0015100D01*
X0333598Y0017600D02*
X0333598Y0072600D01*
X0343598Y0060100D02*
X0343598Y0027600D01*
X0341098Y0025100D01*
X0338598Y0025100D01*
X0353598Y0017600D02*
X0356098Y0015100D01*
X0358598Y0015100D01*
X0368598Y0015100D02*
X0368598Y0025100D01*
X0368598Y0030100D01*
X0383598Y0042600D01*
X0383598Y0057600D01*
X0393598Y0067600D01*
X0393598Y0110100D01*
X0388598Y0115100D01*
X0428598Y0122600D02*
X0428598Y0040100D01*
X0423598Y0035100D01*
X0396098Y0035100D01*
X0388598Y0042600D01*
X0388598Y0052600D01*
X0433598Y0105100D02*
X0438598Y0110100D01*
X0446098Y0110100D01*
X0448598Y0112600D01*
X0448598Y0140100D01*
X0433598Y0125100D02*
X0431098Y0125100D01*
X0428598Y0122600D01*
X0333598Y0115100D02*
X0333598Y0165100D01*
X0328598Y0160100D02*
X0311098Y0160100D01*
X0238598Y0190100D02*
X0233598Y0185100D01*
X0233598Y0147600D01*
X0193598Y0167600D02*
X0193598Y0180100D01*
X0178598Y0177600D02*
X0173598Y0172600D01*
X0141098Y0172600D01*
X0133598Y0180100D01*
X0123598Y0180100D02*
X0123598Y0185100D01*
X0121098Y0187600D01*
X0091098Y0187600D01*
X0088598Y0185100D01*
X0088598Y0155100D01*
X0093598Y0150100D01*
X0103598Y0150100D02*
X0103598Y0180100D01*
X0178598Y0177600D02*
X0178598Y0192600D01*
X0181098Y0195100D01*
X0201098Y0195100D01*
X0203598Y0192600D01*
X0203598Y0190100D01*
X0211098Y0190100D02*
X0211098Y0105100D01*
X0228598Y0105100D02*
X0228598Y0125100D01*
X0128598Y0145100D02*
X0123598Y0150100D01*
X0128598Y0145100D02*
X0128598Y0037600D01*
X0141098Y0025100D01*
X0173598Y0025100D01*
X0173598Y0035100D02*
X0173598Y0040100D01*
X0178598Y0045100D01*
D20*
X0223598Y0030100D03*
X0238598Y0042600D03*
X0228598Y0045100D03*
X0253598Y0042600D03*
X0303598Y0052600D03*
X0311098Y0052600D03*
X0321098Y0045100D03*
X0318598Y0042600D03*
X0308598Y0032600D03*
X0306098Y0030100D03*
X0313598Y0030100D03*
X0321098Y0025100D03*
X0318598Y0015100D03*
X0248598Y0067600D03*
X0233598Y0070100D03*
X0223598Y0067600D03*
X0316098Y0097600D03*
X0313598Y0112600D03*
X0311098Y0117600D03*
X0303598Y0115100D03*
X0293598Y0120100D03*
X0268598Y0120100D03*
X0253598Y0122600D03*
X0228598Y0125100D03*
X0211098Y0105100D03*
X0238598Y0145100D03*
X0233598Y0147600D03*
X0248598Y0147600D03*
X0258598Y0150100D03*
X0288598Y0145100D03*
X0303598Y0150100D03*
X0308598Y0150100D03*
X0338598Y0147600D03*
X0348598Y0150100D03*
X0363598Y0145100D03*
X0373598Y0147600D03*
X0378598Y0152600D03*
X0343598Y0142600D03*
X0328598Y0125100D03*
X0338598Y0122600D03*
X0353598Y0122600D03*
X0358598Y0120100D03*
X0363598Y0120100D03*
X0333598Y0115100D03*
X0333598Y0072600D03*
X0448598Y0140100D03*
X0211098Y0190100D03*
X0193598Y0167600D03*
D21*
X0136098Y0125100D02*
X0133598Y0125100D01*
X0298598Y0160100D02*
X0298598Y0174100D01*
X0318598Y0174100D02*
X0318598Y0166600D01*
X0408598Y0130100D02*
X0418598Y0140100D01*
X0418598Y0152600D01*
D22*
X0318598Y0174100D03*
X0298598Y0174100D03*
X0228598Y0174100D03*
D23*
X0066198Y0199882D02*
X0066198Y0010200D01*
X0226145Y0010200D01*
X0223398Y0012946D01*
X0223398Y0017254D01*
X0226245Y0020100D01*
X0223398Y0022946D01*
X0223398Y0026650D01*
X0222912Y0026650D01*
X0221644Y0027175D01*
X0220674Y0028146D01*
X0220148Y0029414D01*
X0220148Y0030786D01*
X0220674Y0032054D01*
X0220898Y0032279D01*
X0220898Y0050895D01*
X0220504Y0050500D01*
X0216693Y0050500D01*
X0213998Y0053195D01*
X0213998Y0057005D01*
X0216693Y0059700D01*
X0220504Y0059700D01*
X0220898Y0059305D01*
X0220898Y0065421D01*
X0220674Y0065646D01*
X0220148Y0066914D01*
X0220148Y0068286D01*
X0220674Y0069554D01*
X0221644Y0070525D01*
X0222912Y0071050D01*
X0224285Y0071050D01*
X0225553Y0070525D01*
X0226523Y0069554D01*
X0227048Y0068286D01*
X0227048Y0066914D01*
X0226523Y0065646D01*
X0226298Y0065421D01*
X0226298Y0059026D01*
X0227683Y0059600D01*
X0229513Y0059600D01*
X0230898Y0059026D01*
X0230898Y0067921D01*
X0230674Y0068146D01*
X0230148Y0069414D01*
X0230148Y0070786D01*
X0230674Y0072054D01*
X0231644Y0073025D01*
X0232912Y0073550D01*
X0234285Y0073550D01*
X0235553Y0073025D01*
X0235898Y0072679D01*
X0235898Y0076395D01*
X0234699Y0077594D01*
X0233998Y0079285D01*
X0233998Y0085915D01*
X0234699Y0087606D01*
X0235993Y0088900D01*
X0237683Y0089600D01*
X0239513Y0089600D01*
X0240898Y0089026D01*
X0240898Y0093137D01*
X0241309Y0094129D01*
X0245898Y0098718D01*
X0245898Y0098895D01*
X0244699Y0100094D01*
X0243998Y0101785D01*
X0243998Y0108415D01*
X0244699Y0110106D01*
X0245993Y0111400D01*
X0247683Y0112100D01*
X0249513Y0112100D01*
X0250898Y0111526D01*
X0250898Y0120421D01*
X0250674Y0120646D01*
X0250148Y0121914D01*
X0250148Y0123286D01*
X0250674Y0124554D01*
X0251644Y0125525D01*
X0252912Y0126050D01*
X0254285Y0126050D01*
X0255553Y0125525D01*
X0256523Y0124554D01*
X0257048Y0123286D01*
X0257048Y0121914D01*
X0256523Y0120646D01*
X0256298Y0120421D01*
X0256298Y0111526D01*
X0257683Y0112100D01*
X0259513Y0112100D01*
X0261204Y0111400D01*
X0262498Y0110106D01*
X0263198Y0108415D01*
X0263198Y0101785D01*
X0262498Y0100094D01*
X0261204Y0098800D01*
X0259513Y0098100D01*
X0257683Y0098100D01*
X0256298Y0098674D01*
X0256298Y0097063D01*
X0255887Y0096071D01*
X0255128Y0095311D01*
X0251298Y0091482D01*
X0251298Y0088805D01*
X0252498Y0087606D01*
X0253198Y0085915D01*
X0253198Y0079285D01*
X0252498Y0077594D01*
X0251204Y0076300D01*
X0249513Y0075600D01*
X0247683Y0075600D01*
X0246298Y0076174D01*
X0246298Y0070179D01*
X0246644Y0070525D01*
X0247912Y0071050D01*
X0249285Y0071050D01*
X0250553Y0070525D01*
X0250898Y0070179D01*
X0250898Y0070637D01*
X0251309Y0071629D01*
X0255898Y0076218D01*
X0255898Y0076395D01*
X0254699Y0077594D01*
X0253998Y0079285D01*
X0253998Y0085915D01*
X0254699Y0087606D01*
X0255993Y0088900D01*
X0257683Y0089600D01*
X0259513Y0089600D01*
X0261204Y0088900D01*
X0262498Y0087606D01*
X0263198Y0085915D01*
X0263198Y0079285D01*
X0262498Y0077594D01*
X0261298Y0076395D01*
X0261298Y0074563D01*
X0260887Y0073571D01*
X0260128Y0072811D01*
X0256298Y0068982D01*
X0256298Y0059026D01*
X0257683Y0059600D01*
X0259513Y0059600D01*
X0261204Y0058900D01*
X0262498Y0057606D01*
X0263198Y0055915D01*
X0263198Y0049285D01*
X0262498Y0047594D01*
X0261298Y0046395D01*
X0261298Y0036603D01*
X0261309Y0036629D01*
X0270822Y0046142D01*
X0269513Y0045600D01*
X0267683Y0045600D01*
X0265993Y0046300D01*
X0264699Y0047594D01*
X0263998Y0049285D01*
X0263998Y0055915D01*
X0264699Y0057606D01*
X0265993Y0058900D01*
X0267683Y0059600D01*
X0269513Y0059600D01*
X0270898Y0059026D01*
X0270898Y0076174D01*
X0269513Y0075600D01*
X0267683Y0075600D01*
X0265993Y0076300D01*
X0264699Y0077594D01*
X0263998Y0079285D01*
X0263998Y0085915D01*
X0264699Y0087606D01*
X0265993Y0088900D01*
X0267683Y0089600D01*
X0269513Y0089600D01*
X0270898Y0089026D01*
X0270898Y0098674D01*
X0269513Y0098100D01*
X0267683Y0098100D01*
X0265993Y0098800D01*
X0264699Y0100094D01*
X0263998Y0101785D01*
X0263998Y0108415D01*
X0264699Y0110106D01*
X0265898Y0111305D01*
X0265898Y0117921D01*
X0265674Y0118146D01*
X0265148Y0119414D01*
X0265148Y0120786D01*
X0265674Y0122054D01*
X0266644Y0123025D01*
X0267912Y0123550D01*
X0269285Y0123550D01*
X0270553Y0123025D01*
X0270898Y0122679D01*
X0270898Y0128674D01*
X0269513Y0128100D01*
X0267683Y0128100D01*
X0265993Y0128800D01*
X0264699Y0130094D01*
X0263998Y0131785D01*
X0263998Y0138415D01*
X0264699Y0140106D01*
X0265993Y0141400D01*
X0267683Y0142100D01*
X0269513Y0142100D01*
X0271204Y0141400D01*
X0272498Y0140106D01*
X0273198Y0138415D01*
X0273198Y0134318D01*
X0273998Y0133518D01*
X0273998Y0138415D01*
X0274699Y0140106D01*
X0275993Y0141400D01*
X0277683Y0142100D01*
X0279513Y0142100D01*
X0281204Y0141400D01*
X0282498Y0140106D01*
X0283198Y0138415D01*
X0283198Y0131785D01*
X0282498Y0130094D01*
X0281298Y0128895D01*
X0281298Y0111305D01*
X0282498Y0110106D01*
X0283198Y0108415D01*
X0283198Y0101785D01*
X0282498Y0100094D01*
X0281204Y0098800D01*
X0279513Y0098100D01*
X0277683Y0098100D01*
X0276298Y0098674D01*
X0276298Y0089026D01*
X0277683Y0089600D01*
X0279513Y0089600D01*
X0281204Y0088900D01*
X0282498Y0087606D01*
X0283198Y0085915D01*
X0283198Y0079285D01*
X0282498Y0077594D01*
X0281298Y0076395D01*
X0281298Y0058805D01*
X0282498Y0057606D01*
X0283198Y0055915D01*
X0283198Y0049285D01*
X0282498Y0047594D01*
X0281298Y0046395D01*
X0281298Y0044563D01*
X0280887Y0043571D01*
X0276217Y0038900D01*
X0281110Y0038900D01*
X0282398Y0037611D01*
X0282398Y0028654D01*
X0283316Y0027737D01*
X0286279Y0030700D01*
X0288598Y0030700D01*
X0288598Y0025100D01*
X0288598Y0025100D01*
X0288598Y0025100D01*
X0288598Y0020700D01*
X0288598Y0015100D01*
X0288598Y0015100D01*
X0288598Y0025100D01*
X0288598Y0030700D01*
X0290918Y0030700D01*
X0293881Y0027737D01*
X0295198Y0029054D01*
X0295198Y0041192D01*
X0290416Y0045974D01*
X0289513Y0045600D01*
X0287683Y0045600D01*
X0285993Y0046300D01*
X0284699Y0047594D01*
X0283998Y0049285D01*
X0283998Y0055915D01*
X0284699Y0057606D01*
X0285993Y0058900D01*
X0287683Y0059600D01*
X0289513Y0059600D01*
X0291204Y0058900D01*
X0292498Y0057606D01*
X0293198Y0055915D01*
X0293198Y0052808D01*
X0301481Y0044526D01*
X0301998Y0043276D01*
X0301998Y0029054D01*
X0303798Y0027254D01*
X0303798Y0022946D01*
X0300952Y0020100D01*
X0303798Y0017254D01*
X0303798Y0012946D01*
X0301052Y0010200D01*
X0313398Y0010200D01*
X0313398Y0026650D01*
X0312912Y0026650D01*
X0311644Y0027175D01*
X0310674Y0028146D01*
X0310148Y0029414D01*
X0310148Y0029508D01*
X0309471Y0029227D01*
X0309023Y0028146D01*
X0308053Y0027175D01*
X0306785Y0026650D01*
X0305412Y0026650D01*
X0304144Y0027175D01*
X0303174Y0028146D01*
X0302648Y0029414D01*
X0302648Y0030786D01*
X0303174Y0032054D01*
X0303398Y0032279D01*
X0303398Y0049150D01*
X0302912Y0049150D01*
X0301644Y0049675D01*
X0300674Y0050646D01*
X0300148Y0051914D01*
X0300148Y0053286D01*
X0300674Y0054554D01*
X0300898Y0054779D01*
X0300898Y0112921D01*
X0300674Y0113146D01*
X0300148Y0114414D01*
X0300148Y0115786D01*
X0300674Y0117054D01*
X0301644Y0118025D01*
X0302912Y0118550D01*
X0303398Y0118550D01*
X0303398Y0146482D01*
X0303230Y0146650D01*
X0302912Y0146650D01*
X0301644Y0147175D01*
X0300674Y0148146D01*
X0300148Y0149414D01*
X0300148Y0150786D01*
X0300674Y0152054D01*
X0301644Y0153025D01*
X0302912Y0153550D01*
X0304285Y0153550D01*
X0305553Y0153025D01*
X0306098Y0152479D01*
X0306644Y0153025D01*
X0307912Y0153550D01*
X0309285Y0153550D01*
X0310553Y0153025D01*
X0311523Y0152054D01*
X0312048Y0150786D01*
X0312048Y0149414D01*
X0311523Y0148146D01*
X0311298Y0147921D01*
X0311298Y0121050D01*
X0311785Y0121050D01*
X0313053Y0120525D01*
X0314023Y0119554D01*
X0314548Y0118286D01*
X0314548Y0116914D01*
X0314191Y0116050D01*
X0314285Y0116050D01*
X0315553Y0115525D01*
X0316523Y0114554D01*
X0317048Y0113286D01*
X0317048Y0111914D01*
X0316523Y0110646D01*
X0316298Y0110421D01*
X0316298Y0101050D01*
X0316785Y0101050D01*
X0318053Y0100525D01*
X0319023Y0099554D01*
X0319548Y0098286D01*
X0319548Y0096914D01*
X0319023Y0095646D01*
X0318798Y0095421D01*
X0318798Y0047679D01*
X0319144Y0048025D01*
X0320412Y0048550D01*
X0321785Y0048550D01*
X0323053Y0048025D01*
X0324023Y0047054D01*
X0324548Y0045786D01*
X0324548Y0044414D01*
X0324023Y0043146D01*
X0323798Y0042921D01*
X0323798Y0027654D01*
X0326445Y0030300D01*
X0330752Y0030300D01*
X0330898Y0030154D01*
X0330898Y0046174D01*
X0329513Y0045600D01*
X0327683Y0045600D01*
X0325993Y0046300D01*
X0324699Y0047594D01*
X0323998Y0049285D01*
X0323998Y0055915D01*
X0324699Y0057606D01*
X0325993Y0058900D01*
X0327683Y0059600D01*
X0329513Y0059600D01*
X0330898Y0059026D01*
X0330898Y0070421D01*
X0330674Y0070646D01*
X0330148Y0071914D01*
X0330148Y0073286D01*
X0330674Y0074554D01*
X0331644Y0075525D01*
X0332912Y0076050D01*
X0334285Y0076050D01*
X0335553Y0075525D01*
X0336523Y0074554D01*
X0337048Y0073286D01*
X0337048Y0071914D01*
X0336523Y0070646D01*
X0336298Y0070421D01*
X0336298Y0059026D01*
X0337683Y0059600D01*
X0339513Y0059600D01*
X0340898Y0059026D01*
X0340898Y0060637D01*
X0341309Y0061629D01*
X0345898Y0066218D01*
X0345898Y0076395D01*
X0344699Y0077594D01*
X0343998Y0079285D01*
X0343998Y0085915D01*
X0344699Y0087606D01*
X0345993Y0088900D01*
X0347683Y0089600D01*
X0349513Y0089600D01*
X0351204Y0088900D01*
X0352498Y0087606D01*
X0353198Y0085915D01*
X0353198Y0079285D01*
X0352498Y0077594D01*
X0351298Y0076395D01*
X0351298Y0064563D01*
X0350887Y0063571D01*
X0350128Y0062811D01*
X0346375Y0059058D01*
X0347683Y0059600D01*
X0349513Y0059600D01*
X0350898Y0059026D01*
X0350898Y0060637D01*
X0351309Y0061629D01*
X0352069Y0062389D01*
X0360898Y0071218D01*
X0360898Y0076174D01*
X0359513Y0075600D01*
X0357683Y0075600D01*
X0355993Y0076300D01*
X0354699Y0077594D01*
X0353998Y0079285D01*
X0353998Y0085915D01*
X0354699Y0087606D01*
X0355898Y0088805D01*
X0355898Y0093982D01*
X0352069Y0097811D01*
X0352069Y0097811D01*
X0351309Y0098571D01*
X0351211Y0098808D01*
X0351204Y0098800D01*
X0349513Y0098100D01*
X0347683Y0098100D01*
X0345993Y0098800D01*
X0344699Y0100094D01*
X0343998Y0101785D01*
X0343998Y0108415D01*
X0344699Y0110106D01*
X0345898Y0111305D01*
X0345898Y0113982D01*
X0341309Y0118571D01*
X0341298Y0118597D01*
X0341298Y0114563D01*
X0340887Y0113571D01*
X0340128Y0112811D01*
X0339417Y0112100D01*
X0339513Y0112100D01*
X0341204Y0111400D01*
X0342498Y0110106D01*
X0343198Y0108415D01*
X0343198Y0101785D01*
X0342498Y0100094D01*
X0341204Y0098800D01*
X0339513Y0098100D01*
X0339417Y0098100D01*
X0340887Y0096629D01*
X0341298Y0095637D01*
X0341298Y0088805D01*
X0342498Y0087606D01*
X0343198Y0085915D01*
X0343198Y0079285D01*
X0342498Y0077594D01*
X0341204Y0076300D01*
X0339513Y0075600D01*
X0337683Y0075600D01*
X0335993Y0076300D01*
X0334699Y0077594D01*
X0333998Y0079285D01*
X0333998Y0085915D01*
X0334699Y0087606D01*
X0335898Y0088805D01*
X0335898Y0093982D01*
X0332069Y0097811D01*
X0331309Y0098571D01*
X0331211Y0098808D01*
X0331204Y0098800D01*
X0329513Y0098100D01*
X0327683Y0098100D01*
X0325993Y0098800D01*
X0324699Y0100094D01*
X0323998Y0101785D01*
X0323998Y0108415D01*
X0324699Y0110106D01*
X0325898Y0111305D01*
X0325898Y0122921D01*
X0325674Y0123146D01*
X0325148Y0124414D01*
X0325148Y0125786D01*
X0325674Y0127054D01*
X0326644Y0128025D01*
X0326716Y0128054D01*
X0326679Y0128066D01*
X0325978Y0128424D01*
X0325341Y0128886D01*
X0324785Y0129443D01*
X0324322Y0130079D01*
X0323965Y0130781D01*
X0323722Y0131529D01*
X0323598Y0132306D01*
X0323598Y0135100D01*
X0328598Y0135100D01*
X0328598Y0135100D01*
X0323598Y0135100D01*
X0323598Y0137894D01*
X0323722Y0138671D01*
X0323965Y0139419D01*
X0324322Y0140121D01*
X0324785Y0140757D01*
X0325341Y0141314D01*
X0325978Y0141776D01*
X0326679Y0142134D01*
X0327428Y0142377D01*
X0328205Y0142500D01*
X0328598Y0142500D01*
X0328598Y0135100D01*
X0328598Y0135100D01*
X0328598Y0142500D01*
X0328992Y0142500D01*
X0329769Y0142377D01*
X0330518Y0142134D01*
X0330898Y0141940D01*
X0330898Y0153674D01*
X0329513Y0153100D01*
X0327683Y0153100D01*
X0325993Y0153800D01*
X0324699Y0155094D01*
X0323998Y0156785D01*
X0323998Y0157400D01*
X0310561Y0157400D01*
X0309569Y0157811D01*
X0304569Y0162811D01*
X0303809Y0163571D01*
X0303398Y0164563D01*
X0303398Y0181482D01*
X0301116Y0183764D01*
X0299513Y0183100D01*
X0297683Y0183100D01*
X0295993Y0183800D01*
X0294699Y0185094D01*
X0293998Y0186785D01*
X0293998Y0193415D01*
X0294699Y0195106D01*
X0295993Y0196400D01*
X0297683Y0197100D01*
X0299513Y0197100D01*
X0301204Y0196400D01*
X0302498Y0195106D01*
X0303198Y0193415D01*
X0303198Y0189318D01*
X0308387Y0184129D01*
X0308798Y0183137D01*
X0308798Y0166218D01*
X0312217Y0162800D01*
X0315893Y0162800D01*
X0313998Y0164695D01*
X0313998Y0168505D01*
X0315598Y0170105D01*
X0315598Y0170427D01*
X0314617Y0171408D01*
X0314617Y0176792D01*
X0315906Y0178081D01*
X0321291Y0178081D01*
X0322580Y0176792D01*
X0322580Y0171408D01*
X0321598Y0170427D01*
X0321598Y0170105D01*
X0323198Y0168505D01*
X0323198Y0164695D01*
X0321304Y0162800D01*
X0323998Y0162800D01*
X0323998Y0163415D01*
X0324699Y0165106D01*
X0325993Y0166400D01*
X0327683Y0167100D01*
X0329513Y0167100D01*
X0331204Y0166400D01*
X0331211Y0166392D01*
X0331309Y0166629D01*
X0334569Y0169889D01*
X0335561Y0170300D01*
X0346635Y0170300D01*
X0347628Y0169889D01*
X0348387Y0169129D01*
X0350887Y0166629D01*
X0350937Y0166510D01*
X0351204Y0166400D01*
X0352498Y0165106D01*
X0353198Y0163415D01*
X0353198Y0156785D01*
X0352498Y0155094D01*
X0351204Y0153800D01*
X0349942Y0153278D01*
X0350553Y0153025D01*
X0351523Y0152054D01*
X0352048Y0150786D01*
X0352048Y0149414D01*
X0351523Y0148146D01*
X0351298Y0147921D01*
X0351298Y0141603D01*
X0351309Y0141629D01*
X0352069Y0142389D01*
X0355898Y0146218D01*
X0355898Y0153895D01*
X0354699Y0155094D01*
X0353998Y0156785D01*
X0353998Y0163415D01*
X0354699Y0165106D01*
X0355993Y0166400D01*
X0357683Y0167100D01*
X0359513Y0167100D01*
X0360898Y0166526D01*
X0360898Y0181482D01*
X0359280Y0183100D01*
X0357683Y0183100D01*
X0355993Y0183800D01*
X0354699Y0185094D01*
X0353998Y0186785D01*
X0353998Y0193415D01*
X0354699Y0195106D01*
X0355993Y0196400D01*
X0357683Y0197100D01*
X0359513Y0197100D01*
X0361204Y0196400D01*
X0362498Y0195106D01*
X0363198Y0193415D01*
X0363198Y0186818D01*
X0364541Y0185476D01*
X0363998Y0186785D01*
X0363998Y0193415D01*
X0364699Y0195106D01*
X0365993Y0196400D01*
X0367683Y0197100D01*
X0369513Y0197100D01*
X0371204Y0196400D01*
X0372498Y0195106D01*
X0373198Y0193415D01*
X0373198Y0189318D01*
X0373998Y0188518D01*
X0373998Y0193415D01*
X0374699Y0195106D01*
X0375993Y0196400D01*
X0377683Y0197100D01*
X0379513Y0197100D01*
X0381204Y0196400D01*
X0382498Y0195106D01*
X0383198Y0193415D01*
X0383198Y0186785D01*
X0382498Y0185094D01*
X0381204Y0183800D01*
X0379513Y0183100D01*
X0377683Y0183100D01*
X0376298Y0183674D01*
X0376298Y0166940D01*
X0376679Y0167134D01*
X0377428Y0167377D01*
X0378205Y0167500D01*
X0378598Y0167500D01*
X0378598Y0160100D01*
X0378598Y0160100D01*
X0378598Y0167500D01*
X0378992Y0167500D01*
X0379769Y0167377D01*
X0380518Y0167134D01*
X0381219Y0166776D01*
X0381856Y0166314D01*
X0382412Y0165757D01*
X0382875Y0165121D01*
X0383232Y0164419D01*
X0383475Y0163671D01*
X0383598Y0162894D01*
X0383598Y0160100D01*
X0378599Y0160100D01*
X0383598Y0160100D01*
X0383598Y0157306D01*
X0383475Y0156529D01*
X0383232Y0155781D01*
X0382875Y0155079D01*
X0382412Y0154443D01*
X0381856Y0153886D01*
X0381813Y0153855D01*
X0382048Y0153286D01*
X0382048Y0151914D01*
X0381523Y0150646D01*
X0381298Y0150421D01*
X0381298Y0141305D01*
X0382498Y0140106D01*
X0383198Y0138415D01*
X0383198Y0131785D01*
X0382498Y0130094D01*
X0381298Y0128895D01*
X0381298Y0114563D01*
X0380887Y0113571D01*
X0380128Y0112811D01*
X0379704Y0112387D01*
X0379769Y0112377D01*
X0380518Y0112134D01*
X0381219Y0111776D01*
X0381856Y0111314D01*
X0382412Y0110757D01*
X0382875Y0110121D01*
X0383232Y0109419D01*
X0383475Y0108671D01*
X0383598Y0107894D01*
X0383598Y0105100D01*
X0378599Y0105100D01*
X0383598Y0105100D01*
X0383598Y0102306D01*
X0383475Y0101529D01*
X0383232Y0100781D01*
X0382875Y0100079D01*
X0382412Y0099443D01*
X0381856Y0098886D01*
X0381219Y0098424D01*
X0380518Y0098066D01*
X0379769Y0097823D01*
X0378992Y0097700D01*
X0378598Y0097700D01*
X0378598Y0105100D01*
X0378598Y0105100D01*
X0378598Y0097700D01*
X0378205Y0097700D01*
X0377428Y0097823D01*
X0377081Y0097936D01*
X0380887Y0094129D01*
X0381298Y0093137D01*
X0381298Y0088805D01*
X0382498Y0087606D01*
X0383198Y0085915D01*
X0383198Y0079285D01*
X0382498Y0077594D01*
X0381204Y0076300D01*
X0379513Y0075600D01*
X0377683Y0075600D01*
X0375993Y0076300D01*
X0374699Y0077594D01*
X0373998Y0079285D01*
X0373998Y0085915D01*
X0374699Y0087606D01*
X0375898Y0088805D01*
X0375898Y0091482D01*
X0372069Y0095311D01*
X0372069Y0095311D01*
X0371309Y0096071D01*
X0370898Y0097063D01*
X0370898Y0098674D01*
X0369513Y0098100D01*
X0367683Y0098100D01*
X0366298Y0098674D01*
X0366298Y0089026D01*
X0367683Y0089600D01*
X0369513Y0089600D01*
X0371204Y0088900D01*
X0372498Y0087606D01*
X0373198Y0085915D01*
X0373198Y0079285D01*
X0372498Y0077594D01*
X0371204Y0076300D01*
X0369513Y0075600D01*
X0367683Y0075600D01*
X0366298Y0076174D01*
X0366298Y0069563D01*
X0365887Y0068571D01*
X0356375Y0059058D01*
X0357683Y0059600D01*
X0359513Y0059600D01*
X0361204Y0058900D01*
X0362498Y0057606D01*
X0363198Y0055915D01*
X0363198Y0049285D01*
X0362498Y0047594D01*
X0361204Y0046300D01*
X0359513Y0045600D01*
X0357683Y0045600D01*
X0356298Y0046174D01*
X0356298Y0030154D01*
X0356445Y0030300D01*
X0360752Y0030300D01*
X0363598Y0027454D01*
X0365883Y0029738D01*
X0365861Y0029810D01*
X0365898Y0030223D01*
X0365898Y0030637D01*
X0365947Y0030754D01*
X0365958Y0030879D01*
X0366151Y0031246D01*
X0366309Y0031629D01*
X0366399Y0031719D01*
X0366457Y0031830D01*
X0366776Y0032096D01*
X0367069Y0032389D01*
X0367186Y0032437D01*
X0380898Y0043865D01*
X0380898Y0046174D01*
X0379513Y0045600D01*
X0377683Y0045600D01*
X0375993Y0046300D01*
X0374699Y0047594D01*
X0373998Y0049285D01*
X0373998Y0055915D01*
X0374699Y0057606D01*
X0375993Y0058900D01*
X0377683Y0059600D01*
X0379513Y0059600D01*
X0381204Y0058900D01*
X0381211Y0058892D01*
X0381309Y0059129D01*
X0390898Y0068718D01*
X0390898Y0076174D01*
X0389513Y0075600D01*
X0387683Y0075600D01*
X0385993Y0076300D01*
X0384699Y0077594D01*
X0383998Y0079285D01*
X0383998Y0085915D01*
X0384699Y0087606D01*
X0385993Y0088900D01*
X0387683Y0089600D01*
X0389513Y0089600D01*
X0390898Y0089026D01*
X0390898Y0098674D01*
X0389513Y0098100D01*
X0387683Y0098100D01*
X0385993Y0098800D01*
X0384699Y0100094D01*
X0383998Y0101785D01*
X0383998Y0108415D01*
X0384699Y0110106D01*
X0385993Y0111400D01*
X0387683Y0112100D01*
X0387780Y0112100D01*
X0387069Y0112811D01*
X0386309Y0113571D01*
X0385898Y0114563D01*
X0385898Y0128895D01*
X0384699Y0130094D01*
X0383998Y0131785D01*
X0383998Y0138415D01*
X0384699Y0140106D01*
X0385993Y0141400D01*
X0387683Y0142100D01*
X0389513Y0142100D01*
X0391204Y0141400D01*
X0392498Y0140106D01*
X0393198Y0138415D01*
X0393198Y0131785D01*
X0392498Y0130094D01*
X0391298Y0128895D01*
X0391298Y0116218D01*
X0395887Y0111629D01*
X0395986Y0111392D01*
X0395993Y0111400D01*
X0397683Y0112100D01*
X0399513Y0112100D01*
X0401204Y0111400D01*
X0402498Y0110106D01*
X0403198Y0108415D01*
X0403198Y0101785D01*
X0402498Y0100094D01*
X0401204Y0098800D01*
X0399513Y0098100D01*
X0397683Y0098100D01*
X0396298Y0098674D01*
X0396298Y0089026D01*
X0397683Y0089600D01*
X0399513Y0089600D01*
X0401204Y0088900D01*
X0402498Y0087606D01*
X0403198Y0085915D01*
X0403198Y0079285D01*
X0402498Y0077594D01*
X0401204Y0076300D01*
X0399513Y0075600D01*
X0397683Y0075600D01*
X0396298Y0076174D01*
X0396298Y0067063D01*
X0395887Y0066071D01*
X0395128Y0065311D01*
X0389417Y0059600D01*
X0389513Y0059600D01*
X0391204Y0058900D01*
X0392498Y0057606D01*
X0393198Y0055915D01*
X0393198Y0049285D01*
X0392498Y0047594D01*
X0391298Y0046395D01*
X0391298Y0043718D01*
X0397217Y0037800D01*
X0422480Y0037800D01*
X0425898Y0041218D01*
X0425898Y0042829D01*
X0425669Y0042600D01*
X0423598Y0042600D01*
X0423598Y0047600D01*
X0418598Y0047600D01*
X0418598Y0046605D01*
X0418004Y0047200D01*
X0414193Y0047200D01*
X0411498Y0044505D01*
X0411498Y0040695D01*
X0414193Y0038000D01*
X0418004Y0038000D01*
X0420698Y0040695D01*
X0420698Y0043429D01*
X0421527Y0042600D01*
X0423598Y0042600D01*
X0423598Y0047600D01*
X0423598Y0047600D01*
X0418598Y0047600D01*
X0418598Y0048595D01*
X0418004Y0048000D01*
X0414193Y0048000D01*
X0411498Y0050695D01*
X0411498Y0053429D01*
X0410669Y0052600D01*
X0408598Y0052600D01*
X0408598Y0057600D01*
X0403598Y0057600D01*
X0403598Y0055529D01*
X0406527Y0052600D01*
X0408598Y0052600D01*
X0408598Y0057600D01*
X0408598Y0057600D01*
X0403598Y0057600D01*
X0403598Y0059671D01*
X0406527Y0062600D01*
X0408598Y0062600D01*
X0408598Y0057600D01*
X0408598Y0057600D01*
X0408598Y0057600D01*
X0408598Y0062600D01*
X0410669Y0062600D01*
X0413598Y0059671D01*
X0413598Y0057600D01*
X0408599Y0057600D01*
X0413598Y0057600D01*
X0413598Y0056605D01*
X0414193Y0057200D01*
X0418004Y0057200D01*
X0420698Y0054505D01*
X0420698Y0051771D01*
X0421527Y0052600D01*
X0423598Y0052600D01*
X0423598Y0047600D01*
X0423598Y0047600D01*
X0423598Y0047600D01*
X0423598Y0052600D01*
X0425669Y0052600D01*
X0425898Y0052371D01*
X0425898Y0123137D01*
X0426309Y0124129D01*
X0427069Y0124889D01*
X0428398Y0126218D01*
X0428398Y0127254D01*
X0431445Y0130300D01*
X0435752Y0130300D01*
X0438598Y0127454D01*
X0441445Y0130300D01*
X0445752Y0130300D01*
X0445898Y0130154D01*
X0445898Y0137921D01*
X0445674Y0138146D01*
X0445148Y0139414D01*
X0445148Y0140786D01*
X0445674Y0142054D01*
X0446644Y0143025D01*
X0447912Y0143550D01*
X0449285Y0143550D01*
X0450553Y0143025D01*
X0451523Y0142054D01*
X0452048Y0140786D01*
X0452048Y0139414D01*
X0451523Y0138146D01*
X0451298Y0137921D01*
X0451298Y0112063D01*
X0450887Y0111071D01*
X0448387Y0108571D01*
X0447935Y0108118D01*
X0448798Y0107254D01*
X0448798Y0102946D01*
X0445952Y0100100D01*
X0448798Y0097254D01*
X0448798Y0092946D01*
X0445952Y0090100D01*
X0448798Y0087254D01*
X0448798Y0082946D01*
X0445752Y0079900D01*
X0441445Y0079900D01*
X0438598Y0082746D01*
X0435752Y0079900D01*
X0431445Y0079900D01*
X0431298Y0080046D01*
X0431298Y0039563D01*
X0430887Y0038571D01*
X0425887Y0033571D01*
X0425128Y0032811D01*
X0424135Y0032400D01*
X0395561Y0032400D01*
X0394569Y0032811D01*
X0387069Y0040311D01*
X0386309Y0041071D01*
X0386105Y0041565D01*
X0386046Y0041454D01*
X0385887Y0041071D01*
X0385798Y0040981D01*
X0385739Y0040870D01*
X0385421Y0040604D01*
X0385128Y0040311D01*
X0385011Y0040263D01*
X0371799Y0029253D01*
X0373598Y0027454D01*
X0376445Y0030300D01*
X0380752Y0030300D01*
X0383316Y0027737D01*
X0386279Y0030700D01*
X0388598Y0030700D01*
X0388598Y0025100D01*
X0388598Y0025100D01*
X0388598Y0025100D01*
X0388598Y0020700D01*
X0388598Y0015100D01*
X0388598Y0015100D01*
X0388598Y0025100D01*
X0388598Y0030700D01*
X0390918Y0030700D01*
X0393881Y0027737D01*
X0396445Y0030300D01*
X0400752Y0030300D01*
X0403798Y0027254D01*
X0403798Y0022946D01*
X0400952Y0020100D01*
X0403798Y0017254D01*
X0403798Y0012946D01*
X0401052Y0010200D01*
X0429999Y0010200D01*
X0429968Y0010223D01*
X0429411Y0010527D01*
X0429369Y0010672D01*
X0429143Y0010841D01*
X0428993Y0010841D01*
X0428545Y0011289D01*
X0428037Y0011669D01*
X0428016Y0011818D01*
X0427816Y0012017D01*
X0427667Y0012039D01*
X0427287Y0012546D01*
X0426839Y0012994D01*
X0426839Y0013145D01*
X0426670Y0013371D01*
X0426526Y0013413D01*
X0426222Y0013970D01*
X0425842Y0014477D01*
X0425863Y0014626D01*
X0425728Y0014873D01*
X0425591Y0014936D01*
X0425370Y0015530D01*
X0425066Y0016086D01*
X0425108Y0016231D01*
X0425010Y0016495D01*
X0424883Y0016576D01*
X0424748Y0017196D01*
X0424527Y0017790D01*
X0424589Y0017927D01*
X0424530Y0018202D01*
X0424416Y0018301D01*
X0424371Y0018933D01*
X0424236Y0019553D01*
X0424317Y0019679D01*
X0424302Y0019886D01*
X0424248Y0019940D01*
X0424248Y0020641D01*
X0424198Y0021339D01*
X0424248Y0021397D01*
X0424248Y0023803D01*
X0424198Y0023861D01*
X0424248Y0024559D01*
X0424248Y0025260D01*
X0424302Y0025314D01*
X0424317Y0025521D01*
X0424236Y0025647D01*
X0424371Y0026267D01*
X0424416Y0026899D01*
X0424530Y0026998D01*
X0424589Y0027273D01*
X0424527Y0027410D01*
X0424748Y0028004D01*
X0424883Y0028624D01*
X0425010Y0028705D01*
X0425108Y0028969D01*
X0425066Y0029114D01*
X0425370Y0029670D01*
X0425591Y0030264D01*
X0425728Y0030327D01*
X0425863Y0030574D01*
X0425842Y0030723D01*
X0426222Y0031230D01*
X0426526Y0031787D01*
X0426670Y0031829D01*
X0426839Y0032055D01*
X0426839Y0032206D01*
X0427287Y0032654D01*
X0427667Y0033161D01*
X0427816Y0033183D01*
X0428016Y0033382D01*
X0428037Y0033531D01*
X0428545Y0033911D01*
X0428993Y0034359D01*
X0429143Y0034359D01*
X0429369Y0034528D01*
X0429411Y0034673D01*
X0429968Y0034977D01*
X0430475Y0035356D01*
X0430624Y0035335D01*
X0430872Y0035470D01*
X0430934Y0035607D01*
X0431528Y0035829D01*
X0432085Y0036132D01*
X0432229Y0036090D01*
X0432493Y0036189D01*
X0432575Y0036315D01*
X0433194Y0036450D01*
X0433788Y0036671D01*
X0433925Y0036609D01*
X0434201Y0036669D01*
X0434299Y0036783D01*
X0434932Y0036828D01*
X0435551Y0036963D01*
X0435678Y0036881D01*
X0435885Y0036896D01*
X0435939Y0036950D01*
X0436639Y0036950D01*
X0437337Y0037000D01*
X0437395Y0036950D01*
X0439228Y0036950D01*
X0439286Y0037000D01*
X0439984Y0036950D01*
X0440684Y0036950D01*
X0440738Y0036896D01*
X0441027Y0036875D01*
X0441154Y0036957D01*
X0441773Y0036822D01*
X0442406Y0036777D01*
X0442504Y0036663D01*
X0442860Y0036586D01*
X0442996Y0036648D01*
X0443590Y0036427D01*
X0444210Y0036292D01*
X0444291Y0036165D01*
X0444632Y0036038D01*
X0444777Y0036081D01*
X0445333Y0035777D01*
X0445927Y0035555D01*
X0445990Y0035418D01*
X0446309Y0035244D01*
X0446458Y0035265D01*
X0446965Y0034885D01*
X0447522Y0034582D01*
X0447564Y0034437D01*
X0447855Y0034219D01*
X0448006Y0034219D01*
X0448454Y0033771D01*
X0448962Y0033391D01*
X0448983Y0033242D01*
X0449240Y0032985D01*
X0449389Y0032963D01*
X0449769Y0032456D01*
X0450218Y0032008D01*
X0450218Y0031857D01*
X0450436Y0031566D01*
X0450580Y0031523D01*
X0450884Y0030967D01*
X0451264Y0030459D01*
X0451242Y0030310D01*
X0451417Y0029991D01*
X0451554Y0029929D01*
X0451775Y0029335D01*
X0452079Y0028778D01*
X0452037Y0028634D01*
X0452164Y0028293D01*
X0452290Y0028212D01*
X0452425Y0027592D01*
X0452647Y0026998D01*
X0452584Y0026861D01*
X0452661Y0026506D01*
X0452775Y0026407D01*
X0452820Y0025775D01*
X0452955Y0025155D01*
X0452874Y0025029D01*
X0452894Y0024740D01*
X0452948Y0024686D01*
X0452948Y0023986D01*
X0452998Y0023287D01*
X0452948Y0023230D01*
X0452948Y0021397D01*
X0452998Y0021339D01*
X0452948Y0020641D01*
X0452948Y0019940D01*
X0452894Y0019886D01*
X0452880Y0019679D01*
X0452961Y0019553D01*
X0452826Y0018933D01*
X0452781Y0018301D01*
X0452667Y0018202D01*
X0452607Y0017927D01*
X0452670Y0017790D01*
X0452448Y0017196D01*
X0452314Y0016576D01*
X0452187Y0016495D01*
X0452088Y0016231D01*
X0452131Y0016086D01*
X0451827Y0015530D01*
X0451605Y0014936D01*
X0451469Y0014873D01*
X0451333Y0014626D01*
X0451355Y0014477D01*
X0450975Y0013970D01*
X0450671Y0013413D01*
X0450527Y0013371D01*
X0450358Y0013145D01*
X0450358Y0012994D01*
X0449909Y0012546D01*
X0449530Y0012039D01*
X0449380Y0012017D01*
X0449181Y0011818D01*
X0449160Y0011669D01*
X0448652Y0011289D01*
X0448204Y0010841D01*
X0448053Y0010841D01*
X0447828Y0010672D01*
X0447785Y0010527D01*
X0447229Y0010223D01*
X0447198Y0010200D01*
X0482258Y0010200D01*
X0482258Y0199882D01*
X0166972Y0199882D01*
X0167522Y0199582D01*
X0167564Y0199437D01*
X0167855Y0199219D01*
X0168006Y0199219D01*
X0168454Y0198771D01*
X0168962Y0198391D01*
X0168983Y0198242D01*
X0169240Y0197985D01*
X0169389Y0197963D01*
X0169769Y0197456D01*
X0170218Y0197008D01*
X0170218Y0196857D01*
X0170436Y0196566D01*
X0170580Y0196523D01*
X0170884Y0195967D01*
X0171264Y0195459D01*
X0171242Y0195310D01*
X0171417Y0194991D01*
X0171554Y0194929D01*
X0171775Y0194335D01*
X0172079Y0193778D01*
X0172037Y0193634D01*
X0172164Y0193293D01*
X0172290Y0193212D01*
X0172425Y0192592D01*
X0172647Y0191998D01*
X0172584Y0191861D01*
X0172661Y0191506D01*
X0172775Y0191407D01*
X0172820Y0190775D01*
X0172955Y0190155D01*
X0172874Y0190029D01*
X0172894Y0189740D01*
X0172948Y0189686D01*
X0172948Y0188986D01*
X0172998Y0188287D01*
X0172948Y0188230D01*
X0172948Y0186397D01*
X0172998Y0186339D01*
X0172948Y0185641D01*
X0172948Y0184940D01*
X0172894Y0184886D01*
X0172880Y0184679D01*
X0172961Y0184553D01*
X0172826Y0183933D01*
X0172781Y0183301D01*
X0172667Y0183202D01*
X0172607Y0182927D01*
X0172670Y0182790D01*
X0172448Y0182196D01*
X0172314Y0181576D01*
X0172187Y0181495D01*
X0172088Y0181231D01*
X0172131Y0181086D01*
X0171827Y0180530D01*
X0171605Y0179936D01*
X0171469Y0179873D01*
X0171333Y0179626D01*
X0171355Y0179477D01*
X0170975Y0178970D01*
X0170671Y0178413D01*
X0170527Y0178371D01*
X0170358Y0178145D01*
X0170358Y0177994D01*
X0169909Y0177546D01*
X0169530Y0177039D01*
X0169380Y0177017D01*
X0169181Y0176818D01*
X0169160Y0176669D01*
X0168652Y0176289D01*
X0168204Y0175841D01*
X0168053Y0175841D01*
X0167828Y0175672D01*
X0167785Y0175527D01*
X0167369Y0175300D01*
X0172480Y0175300D01*
X0175898Y0178718D01*
X0175898Y0193137D01*
X0176309Y0194129D01*
X0177069Y0194889D01*
X0179569Y0197389D01*
X0180561Y0197800D01*
X0201635Y0197800D01*
X0202628Y0197389D01*
X0203387Y0196629D01*
X0204717Y0195300D01*
X0205752Y0195300D01*
X0208586Y0192466D01*
X0209144Y0193025D01*
X0210412Y0193550D01*
X0211785Y0193550D01*
X0213053Y0193025D01*
X0214023Y0192054D01*
X0214548Y0190786D01*
X0214548Y0189414D01*
X0214023Y0188146D01*
X0213798Y0187921D01*
X0213798Y0182371D01*
X0216527Y0185100D01*
X0218598Y0185100D01*
X0218598Y0180100D01*
X0218598Y0180100D01*
X0218598Y0180100D01*
X0218598Y0175100D01*
X0216527Y0175100D01*
X0213798Y0177829D01*
X0213798Y0129871D01*
X0216527Y0132600D01*
X0218598Y0132600D01*
X0218598Y0127600D01*
X0218598Y0127600D01*
X0218598Y0127600D01*
X0218598Y0122600D01*
X0216527Y0122600D01*
X0213798Y0125329D01*
X0213798Y0107279D01*
X0213998Y0107079D01*
X0213998Y0109505D01*
X0216693Y0112200D01*
X0220504Y0112200D01*
X0223198Y0109505D01*
X0223198Y0105695D01*
X0220504Y0103000D01*
X0216693Y0103000D01*
X0214548Y0105145D01*
X0214548Y0104414D01*
X0214023Y0103146D01*
X0213053Y0102175D01*
X0211785Y0101650D01*
X0210412Y0101650D01*
X0209144Y0102175D01*
X0208174Y0103146D01*
X0207648Y0104414D01*
X0207648Y0105786D01*
X0208174Y0107054D01*
X0208398Y0107279D01*
X0208398Y0177546D01*
X0205752Y0174900D01*
X0201445Y0174900D01*
X0198598Y0177746D01*
X0196298Y0175446D01*
X0196298Y0169779D01*
X0196523Y0169554D01*
X0197048Y0168286D01*
X0197048Y0166914D01*
X0196523Y0165646D01*
X0195553Y0164675D01*
X0194285Y0164150D01*
X0192912Y0164150D01*
X0191644Y0164675D01*
X0191298Y0165021D01*
X0191298Y0159305D01*
X0191693Y0159700D01*
X0195504Y0159700D01*
X0198198Y0157005D01*
X0198198Y0153195D01*
X0195504Y0150500D01*
X0191693Y0150500D01*
X0191298Y0150895D01*
X0191298Y0142063D01*
X0190887Y0141071D01*
X0190128Y0140311D01*
X0184517Y0134700D01*
X0185504Y0134700D01*
X0188198Y0132005D01*
X0188198Y0128195D01*
X0185504Y0125500D01*
X0181693Y0125500D01*
X0178998Y0128195D01*
X0178998Y0129182D01*
X0171298Y0121482D01*
X0171298Y0085833D01*
X0172750Y0086434D01*
X0174447Y0086434D01*
X0176015Y0085784D01*
X0177216Y0084584D01*
X0177865Y0083016D01*
X0177865Y0077184D01*
X0177216Y0075616D01*
X0176015Y0074416D01*
X0174447Y0073766D01*
X0172750Y0073766D01*
X0171298Y0074367D01*
X0171298Y0055833D01*
X0172750Y0056434D01*
X0174447Y0056434D01*
X0175898Y0055833D01*
X0175898Y0065637D01*
X0176309Y0066629D01*
X0183071Y0073391D01*
X0182506Y0073481D01*
X0181807Y0073708D01*
X0181152Y0074042D01*
X0180558Y0074473D01*
X0180039Y0074993D01*
X0179607Y0075587D01*
X0179273Y0076242D01*
X0179046Y0076940D01*
X0178931Y0077666D01*
X0178931Y0080100D01*
X0183598Y0080100D01*
X0178931Y0080100D01*
X0178931Y0082534D01*
X0179046Y0083260D01*
X0179273Y0083958D01*
X0179607Y0084613D01*
X0180039Y0085207D01*
X0180558Y0085727D01*
X0181152Y0086158D01*
X0181807Y0086492D01*
X0182506Y0086719D01*
X0183231Y0086834D01*
X0183598Y0086834D01*
X0183598Y0080100D01*
X0183598Y0080100D01*
X0183598Y0080100D01*
X0183598Y0086834D01*
X0183966Y0086834D01*
X0184691Y0086719D01*
X0185390Y0086492D01*
X0186044Y0086158D01*
X0186639Y0085727D01*
X0187158Y0085207D01*
X0187590Y0084613D01*
X0187923Y0083958D01*
X0188150Y0083260D01*
X0188265Y0082534D01*
X0188265Y0080100D01*
X0183599Y0080100D01*
X0183599Y0080100D01*
X0188265Y0080100D01*
X0188265Y0078585D01*
X0189331Y0079651D01*
X0189331Y0083016D01*
X0189981Y0084584D01*
X0191181Y0085784D01*
X0192750Y0086434D01*
X0194447Y0086434D01*
X0196015Y0085784D01*
X0197216Y0084584D01*
X0197865Y0083016D01*
X0197865Y0077184D01*
X0197216Y0075616D01*
X0196015Y0074416D01*
X0194447Y0073766D01*
X0192750Y0073766D01*
X0191571Y0074254D01*
X0181298Y0063982D01*
X0181298Y0055833D01*
X0182750Y0056434D01*
X0184447Y0056434D01*
X0186015Y0055784D01*
X0187216Y0054584D01*
X0187865Y0053016D01*
X0187865Y0047184D01*
X0187216Y0045616D01*
X0186015Y0044416D01*
X0184447Y0043766D01*
X0182750Y0043766D01*
X0181229Y0044396D01*
X0180887Y0043571D01*
X0180128Y0042811D01*
X0176298Y0038982D01*
X0176298Y0038905D01*
X0178198Y0037005D01*
X0178198Y0033195D01*
X0175504Y0030500D01*
X0171693Y0030500D01*
X0168998Y0033195D01*
X0168998Y0037005D01*
X0170898Y0038905D01*
X0170898Y0040637D01*
X0171309Y0041629D01*
X0173446Y0043766D01*
X0172750Y0043766D01*
X0171181Y0044416D01*
X0169981Y0045616D01*
X0169331Y0047184D01*
X0169331Y0048049D01*
X0167069Y0050311D01*
X0166309Y0051071D01*
X0165898Y0052063D01*
X0165898Y0123137D01*
X0166309Y0124129D01*
X0172280Y0130100D01*
X0171527Y0130100D01*
X0168598Y0133029D01*
X0168598Y0135100D01*
X0163599Y0135100D01*
X0168598Y0135100D01*
X0168598Y0137171D01*
X0165669Y0140100D01*
X0163598Y0140100D01*
X0161527Y0140100D01*
X0158598Y0137171D01*
X0158598Y0135100D01*
X0158598Y0133029D01*
X0161527Y0130100D01*
X0163598Y0130100D01*
X0163598Y0135100D01*
X0158598Y0135100D01*
X0163598Y0135100D01*
X0163598Y0135100D01*
X0163598Y0140100D01*
X0163598Y0135100D01*
X0163598Y0135100D01*
X0163598Y0135100D01*
X0163598Y0130100D01*
X0165669Y0130100D01*
X0168598Y0133029D01*
X0168598Y0135100D01*
X0173598Y0135100D01*
X0173598Y0135100D01*
X0168598Y0135100D01*
X0168598Y0137171D01*
X0171527Y0140100D01*
X0173598Y0140100D01*
X0173598Y0135100D01*
X0173598Y0135100D01*
X0173598Y0140100D01*
X0175669Y0140100D01*
X0178598Y0137171D01*
X0178598Y0136418D01*
X0185898Y0143718D01*
X0185898Y0155895D01*
X0185504Y0155500D01*
X0181693Y0155500D01*
X0178998Y0158195D01*
X0178998Y0162005D01*
X0181693Y0164700D01*
X0185180Y0164700D01*
X0182069Y0167811D01*
X0181309Y0168571D01*
X0180898Y0169563D01*
X0180898Y0175590D01*
X0180653Y0175692D01*
X0180581Y0175764D01*
X0175887Y0171071D01*
X0175128Y0170311D01*
X0174135Y0169900D01*
X0140561Y0169900D01*
X0139569Y0170311D01*
X0136116Y0173764D01*
X0134513Y0173100D01*
X0132683Y0173100D01*
X0130993Y0173800D01*
X0129699Y0175094D01*
X0128998Y0176785D01*
X0128998Y0183415D01*
X0129699Y0185106D01*
X0130993Y0186400D01*
X0132683Y0187100D01*
X0134513Y0187100D01*
X0136204Y0186400D01*
X0137498Y0185106D01*
X0138198Y0183415D01*
X0138198Y0179318D01*
X0142217Y0175300D01*
X0149828Y0175300D01*
X0149411Y0175527D01*
X0149369Y0175672D01*
X0149143Y0175841D01*
X0148993Y0175841D01*
X0148545Y0176289D01*
X0148037Y0176669D01*
X0148016Y0176818D01*
X0147816Y0177017D01*
X0147667Y0177039D01*
X0147287Y0177546D01*
X0146839Y0177994D01*
X0146839Y0178145D01*
X0146670Y0178371D01*
X0146526Y0178413D01*
X0146222Y0178969D01*
X0145842Y0179477D01*
X0145863Y0179626D01*
X0145728Y0179873D01*
X0145591Y0179936D01*
X0145370Y0180530D01*
X0145066Y0181086D01*
X0145108Y0181231D01*
X0145010Y0181495D01*
X0144883Y0181576D01*
X0144748Y0182196D01*
X0144527Y0182790D01*
X0144589Y0182927D01*
X0144530Y0183202D01*
X0144416Y0183301D01*
X0144371Y0183933D01*
X0144236Y0184553D01*
X0144317Y0184679D01*
X0144302Y0184886D01*
X0144248Y0184940D01*
X0144248Y0185641D01*
X0144198Y0186339D01*
X0144248Y0186397D01*
X0144248Y0188803D01*
X0144198Y0188861D01*
X0144248Y0189559D01*
X0144248Y0190260D01*
X0144302Y0190314D01*
X0144317Y0190521D01*
X0144236Y0190647D01*
X0144371Y0191267D01*
X0144416Y0191899D01*
X0144530Y0191998D01*
X0144589Y0192273D01*
X0144527Y0192410D01*
X0144748Y0193004D01*
X0144883Y0193624D01*
X0145010Y0193705D01*
X0145108Y0193969D01*
X0145066Y0194114D01*
X0145370Y0194670D01*
X0145591Y0195264D01*
X0145728Y0195327D01*
X0145863Y0195574D01*
X0145842Y0195723D01*
X0146222Y0196230D01*
X0146526Y0196787D01*
X0146670Y0196829D01*
X0146839Y0197055D01*
X0146839Y0197206D01*
X0147287Y0197654D01*
X0147667Y0198161D01*
X0147816Y0198183D01*
X0148016Y0198382D01*
X0148037Y0198531D01*
X0148545Y0198911D01*
X0148993Y0199359D01*
X0149143Y0199359D01*
X0149369Y0199528D01*
X0149411Y0199673D01*
X0149795Y0199882D01*
X0066198Y0199882D01*
X0066198Y0199511D02*
X0149346Y0199511D01*
X0146266Y0196312D02*
X0066198Y0196312D01*
X0066198Y0193114D02*
X0144772Y0193114D01*
X0144248Y0189915D02*
X0122565Y0189915D01*
X0122628Y0189889D02*
X0121635Y0190300D01*
X0090561Y0190300D01*
X0089569Y0189889D01*
X0087069Y0187389D01*
X0086309Y0186629D01*
X0086211Y0186392D01*
X0086204Y0186400D01*
X0084513Y0187100D01*
X0082683Y0187100D01*
X0080993Y0186400D01*
X0079699Y0185106D01*
X0078998Y0183415D01*
X0078998Y0176785D01*
X0079699Y0175094D01*
X0080993Y0173800D01*
X0082683Y0173100D01*
X0084513Y0173100D01*
X0085898Y0173674D01*
X0085898Y0156940D01*
X0085518Y0157134D01*
X0084769Y0157377D01*
X0083992Y0157500D01*
X0083598Y0157500D01*
X0083205Y0157500D01*
X0082428Y0157377D01*
X0081679Y0157134D01*
X0080978Y0156776D01*
X0080341Y0156314D01*
X0079785Y0155757D01*
X0079322Y0155121D01*
X0078965Y0154419D01*
X0078722Y0153671D01*
X0078598Y0152894D01*
X0078598Y0150100D01*
X0078598Y0147306D01*
X0078722Y0146529D01*
X0078965Y0145781D01*
X0079322Y0145079D01*
X0079785Y0144443D01*
X0080341Y0143886D01*
X0080978Y0143424D01*
X0081679Y0143066D01*
X0082428Y0142823D01*
X0083205Y0142700D01*
X0083598Y0142700D01*
X0083598Y0150100D01*
X0078598Y0150100D01*
X0083598Y0150100D01*
X0083598Y0150100D01*
X0083598Y0157500D01*
X0083598Y0150100D01*
X0083598Y0150100D01*
X0083598Y0150100D01*
X0083598Y0142700D01*
X0083992Y0142700D01*
X0084769Y0142823D01*
X0085518Y0143066D01*
X0086219Y0143424D01*
X0086856Y0143886D01*
X0087412Y0144443D01*
X0087875Y0145079D01*
X0088232Y0145781D01*
X0088475Y0146529D01*
X0088598Y0147306D01*
X0088598Y0150100D01*
X0083599Y0150100D01*
X0088598Y0150100D01*
X0088598Y0151282D01*
X0088998Y0150882D01*
X0088998Y0146785D01*
X0089699Y0145094D01*
X0090993Y0143800D01*
X0092683Y0143100D01*
X0094513Y0143100D01*
X0096204Y0143800D01*
X0097498Y0145094D01*
X0098198Y0146785D01*
X0098198Y0153415D01*
X0097498Y0155106D01*
X0096204Y0156400D01*
X0094513Y0157100D01*
X0092683Y0157100D01*
X0091298Y0156526D01*
X0091298Y0173674D01*
X0092683Y0173100D01*
X0094513Y0173100D01*
X0096204Y0173800D01*
X0097498Y0175094D01*
X0098198Y0176785D01*
X0098198Y0183415D01*
X0097583Y0184900D01*
X0099614Y0184900D01*
X0098998Y0183415D01*
X0098998Y0176785D01*
X0099699Y0175094D01*
X0100898Y0173895D01*
X0100898Y0156305D01*
X0099699Y0155106D01*
X0098998Y0153415D01*
X0098998Y0146785D01*
X0099699Y0145094D01*
X0100993Y0143800D01*
X0102683Y0143100D01*
X0104513Y0143100D01*
X0106204Y0143800D01*
X0107498Y0145094D01*
X0108198Y0146785D01*
X0108198Y0153415D01*
X0107498Y0155106D01*
X0106298Y0156305D01*
X0106298Y0173895D01*
X0107498Y0175094D01*
X0108198Y0176785D01*
X0108198Y0183415D01*
X0107583Y0184900D01*
X0109210Y0184900D01*
X0108965Y0184419D01*
X0108722Y0183671D01*
X0108598Y0182894D01*
X0108598Y0180100D01*
X0108598Y0177306D01*
X0108722Y0176529D01*
X0108965Y0175781D01*
X0109322Y0175079D01*
X0109785Y0174443D01*
X0110341Y0173886D01*
X0110978Y0173424D01*
X0111679Y0173066D01*
X0112428Y0172823D01*
X0113205Y0172700D01*
X0113598Y0172700D01*
X0113598Y0180100D01*
X0108598Y0180100D01*
X0113598Y0180100D01*
X0113598Y0180100D01*
X0113598Y0180100D01*
X0113598Y0172700D01*
X0113992Y0172700D01*
X0114769Y0172823D01*
X0115518Y0173066D01*
X0116219Y0173424D01*
X0116856Y0173886D01*
X0117412Y0174443D01*
X0117875Y0175079D01*
X0118232Y0175781D01*
X0118475Y0176529D01*
X0118598Y0177306D01*
X0118598Y0180100D01*
X0113599Y0180100D01*
X0118598Y0180100D01*
X0118598Y0182894D01*
X0118475Y0183671D01*
X0118232Y0184419D01*
X0117987Y0184900D01*
X0119614Y0184900D01*
X0118998Y0183415D01*
X0118998Y0176785D01*
X0119699Y0175094D01*
X0120993Y0173800D01*
X0122683Y0173100D01*
X0124513Y0173100D01*
X0126204Y0173800D01*
X0127498Y0175094D01*
X0128198Y0176785D01*
X0128198Y0183415D01*
X0127498Y0185106D01*
X0126204Y0186400D01*
X0125937Y0186510D01*
X0125887Y0186629D01*
X0123387Y0189129D01*
X0122628Y0189889D01*
X0125800Y0186717D02*
X0131758Y0186717D01*
X0135439Y0186717D02*
X0144248Y0186717D01*
X0144400Y0183518D02*
X0138156Y0183518D01*
X0138198Y0180320D02*
X0145448Y0180320D01*
X0147606Y0177121D02*
X0140396Y0177121D01*
X0130870Y0173923D02*
X0126326Y0173923D01*
X0120870Y0173923D02*
X0116892Y0173923D01*
X0113598Y0173923D02*
X0113598Y0173923D01*
X0110305Y0173923D02*
X0106326Y0173923D01*
X0106298Y0170724D02*
X0139156Y0170724D01*
X0128998Y0177121D02*
X0128198Y0177121D01*
X0128198Y0180320D02*
X0128998Y0180320D01*
X0129041Y0183518D02*
X0128156Y0183518D01*
X0119041Y0183518D02*
X0118499Y0183518D01*
X0108697Y0183518D02*
X0108156Y0183518D01*
X0099041Y0183518D02*
X0098156Y0183518D01*
X0098198Y0180320D02*
X0098998Y0180320D01*
X0098998Y0177121D02*
X0098198Y0177121D01*
X0108198Y0177121D02*
X0108628Y0177121D01*
X0108598Y0180320D02*
X0108198Y0180320D01*
X0113599Y0180100D02*
X0113599Y0180100D01*
X0113598Y0177121D02*
X0113598Y0177121D01*
X0118569Y0177121D02*
X0118998Y0177121D01*
X0118998Y0180320D02*
X0118598Y0180320D01*
X0100870Y0173923D02*
X0096326Y0173923D01*
X0100898Y0170724D02*
X0091298Y0170724D01*
X0085898Y0170724D02*
X0066198Y0170724D01*
X0066198Y0173923D02*
X0070305Y0173923D01*
X0070341Y0173886D02*
X0070978Y0173424D01*
X0071679Y0173066D01*
X0072428Y0172823D01*
X0073205Y0172700D01*
X0073598Y0172700D01*
X0073598Y0180100D01*
X0068598Y0180100D01*
X0068598Y0177306D01*
X0068722Y0176529D01*
X0068965Y0175781D01*
X0069322Y0175079D01*
X0069785Y0174443D01*
X0070341Y0173886D01*
X0073598Y0173923D02*
X0073598Y0173923D01*
X0073598Y0172700D02*
X0073992Y0172700D01*
X0074769Y0172823D01*
X0075518Y0173066D01*
X0076219Y0173424D01*
X0076856Y0173886D01*
X0077412Y0174443D01*
X0077875Y0175079D01*
X0078232Y0175781D01*
X0078475Y0176529D01*
X0078598Y0177306D01*
X0078598Y0180100D01*
X0073599Y0180100D01*
X0078598Y0180100D01*
X0078598Y0182894D01*
X0078475Y0183671D01*
X0078232Y0184419D01*
X0077875Y0185121D01*
X0077412Y0185757D01*
X0076856Y0186314D01*
X0076219Y0186776D01*
X0075518Y0187134D01*
X0074769Y0187377D01*
X0073992Y0187500D01*
X0073598Y0187500D01*
X0073205Y0187500D01*
X0072428Y0187377D01*
X0071679Y0187134D01*
X0070978Y0186776D01*
X0070341Y0186314D01*
X0069785Y0185757D01*
X0069322Y0185121D01*
X0068965Y0184419D01*
X0068722Y0183671D01*
X0068598Y0182894D01*
X0068598Y0180100D01*
X0073598Y0180100D01*
X0073598Y0180100D01*
X0073598Y0187500D01*
X0073598Y0180100D01*
X0073598Y0180100D01*
X0073598Y0180100D01*
X0073598Y0172700D01*
X0076892Y0173923D02*
X0080870Y0173923D01*
X0078998Y0177121D02*
X0078569Y0177121D01*
X0078598Y0180320D02*
X0078998Y0180320D01*
X0073598Y0180320D02*
X0073598Y0180320D01*
X0073599Y0180100D02*
X0073599Y0180100D01*
X0073598Y0177121D02*
X0073598Y0177121D01*
X0068628Y0177121D02*
X0066198Y0177121D01*
X0066198Y0180320D02*
X0068598Y0180320D01*
X0068697Y0183518D02*
X0066198Y0183518D01*
X0066198Y0186717D02*
X0070896Y0186717D01*
X0073598Y0186717D02*
X0073598Y0186717D01*
X0076301Y0186717D02*
X0081758Y0186717D01*
X0085439Y0186717D02*
X0086397Y0186717D01*
X0079041Y0183518D02*
X0078499Y0183518D01*
X0073598Y0183518D02*
X0073598Y0183518D01*
X0066198Y0189915D02*
X0089632Y0189915D01*
X0091298Y0167526D02*
X0100898Y0167526D01*
X0100898Y0164327D02*
X0091298Y0164327D01*
X0085898Y0164327D02*
X0066198Y0164327D01*
X0066198Y0167526D02*
X0085898Y0167526D01*
X0085898Y0161129D02*
X0066198Y0161129D01*
X0066198Y0157930D02*
X0085898Y0157930D01*
X0091298Y0157930D02*
X0100898Y0157930D01*
X0100898Y0161129D02*
X0091298Y0161129D01*
X0077498Y0155106D02*
X0076204Y0156400D01*
X0074513Y0157100D01*
X0072683Y0157100D01*
X0070993Y0156400D01*
X0069699Y0155106D01*
X0068998Y0153415D01*
X0068998Y0146785D01*
X0069699Y0145094D01*
X0070993Y0143800D01*
X0072683Y0143100D01*
X0074513Y0143100D01*
X0076204Y0143800D01*
X0077498Y0145094D01*
X0078198Y0146785D01*
X0078198Y0153415D01*
X0077498Y0155106D01*
X0077653Y0154732D02*
X0079124Y0154732D01*
X0078598Y0151533D02*
X0078198Y0151533D01*
X0083598Y0151533D02*
X0083598Y0151533D01*
X0083599Y0150100D02*
X0083599Y0150100D01*
X0083598Y0148334D02*
X0083598Y0148334D01*
X0083598Y0145136D02*
X0083598Y0145136D01*
X0079293Y0145136D02*
X0077515Y0145136D01*
X0078198Y0148334D02*
X0078598Y0148334D01*
X0069681Y0145136D02*
X0066198Y0145136D01*
X0066198Y0148334D02*
X0068998Y0148334D01*
X0068998Y0151533D02*
X0066198Y0151533D01*
X0066198Y0154732D02*
X0069544Y0154732D01*
X0083598Y0154732D02*
X0083598Y0154732D01*
X0088598Y0148334D02*
X0088998Y0148334D01*
X0089681Y0145136D02*
X0087904Y0145136D01*
X0097515Y0145136D02*
X0099681Y0145136D01*
X0098998Y0148334D02*
X0098198Y0148334D01*
X0107515Y0145136D02*
X0109681Y0145136D01*
X0109699Y0145094D02*
X0110993Y0143800D01*
X0112683Y0143100D01*
X0114513Y0143100D01*
X0116204Y0143800D01*
X0117498Y0145094D01*
X0118198Y0146785D01*
X0118198Y0153415D01*
X0117498Y0155106D01*
X0116204Y0156400D01*
X0114513Y0157100D01*
X0112683Y0157100D01*
X0110993Y0156400D01*
X0109699Y0155106D01*
X0108998Y0153415D01*
X0108998Y0146785D01*
X0109699Y0145094D01*
X0108998Y0148334D02*
X0108198Y0148334D01*
X0108198Y0151533D02*
X0108998Y0151533D01*
X0109544Y0154732D02*
X0107653Y0154732D01*
X0099544Y0154732D02*
X0097653Y0154732D01*
X0098198Y0151533D02*
X0098998Y0151533D01*
X0106298Y0157930D02*
X0149263Y0157930D01*
X0148998Y0158195D02*
X0151693Y0155500D01*
X0155504Y0155500D01*
X0158198Y0158195D01*
X0158198Y0162005D01*
X0155504Y0164700D01*
X0151693Y0164700D01*
X0148998Y0162005D01*
X0148998Y0158195D01*
X0148998Y0161129D02*
X0106298Y0161129D01*
X0106298Y0164327D02*
X0151320Y0164327D01*
X0155877Y0164327D02*
X0181320Y0164327D01*
X0182354Y0167526D02*
X0106298Y0167526D01*
X0119699Y0155106D02*
X0120993Y0156400D01*
X0122683Y0157100D01*
X0124513Y0157100D01*
X0126204Y0156400D01*
X0127498Y0155106D01*
X0128198Y0153415D01*
X0128198Y0149318D01*
X0128998Y0148518D01*
X0128998Y0153415D01*
X0129699Y0155106D01*
X0130993Y0156400D01*
X0132683Y0157100D01*
X0134513Y0157100D01*
X0136204Y0156400D01*
X0137498Y0155106D01*
X0138198Y0153415D01*
X0138198Y0146785D01*
X0137498Y0145094D01*
X0137398Y0144995D01*
X0137398Y0127809D01*
X0137798Y0127643D01*
X0138642Y0126799D01*
X0139098Y0125697D01*
X0139098Y0124503D01*
X0138642Y0123401D01*
X0137798Y0122557D01*
X0137393Y0122389D01*
X0135504Y0120500D01*
X0131693Y0120500D01*
X0131298Y0120895D01*
X0131298Y0109871D01*
X0131527Y0110100D01*
X0133598Y0110100D01*
X0133598Y0105100D01*
X0133598Y0105100D01*
X0133598Y0105100D01*
X0133598Y0100100D01*
X0131527Y0100100D01*
X0131298Y0100329D01*
X0131298Y0038718D01*
X0142217Y0027800D01*
X0169793Y0027800D01*
X0171693Y0029700D01*
X0175504Y0029700D01*
X0178198Y0027005D01*
X0178198Y0023195D01*
X0175504Y0020500D01*
X0171693Y0020500D01*
X0169793Y0022400D01*
X0155539Y0022400D01*
X0156761Y0021178D01*
X0157545Y0019285D01*
X0157545Y0017235D01*
X0156761Y0015341D01*
X0155311Y0013891D01*
X0153417Y0013107D01*
X0151367Y0013107D01*
X0149473Y0013891D01*
X0148024Y0015341D01*
X0147240Y0017235D01*
X0147240Y0019285D01*
X0148024Y0021178D01*
X0149246Y0022400D01*
X0140561Y0022400D01*
X0139569Y0022811D01*
X0126309Y0036071D01*
X0125898Y0037063D01*
X0125898Y0095895D01*
X0125504Y0095500D01*
X0121693Y0095500D01*
X0118998Y0098195D01*
X0118998Y0102005D01*
X0121693Y0104700D01*
X0125504Y0104700D01*
X0125898Y0104305D01*
X0125898Y0125895D01*
X0125504Y0125500D01*
X0121693Y0125500D01*
X0118998Y0128195D01*
X0118998Y0132005D01*
X0121693Y0134700D01*
X0125504Y0134700D01*
X0125898Y0134305D01*
X0125898Y0143674D01*
X0124513Y0143100D01*
X0122683Y0143100D01*
X0120993Y0143800D01*
X0119699Y0145094D01*
X0118998Y0146785D01*
X0118998Y0153415D01*
X0119699Y0155106D01*
X0119544Y0154732D02*
X0117653Y0154732D01*
X0118198Y0151533D02*
X0118998Y0151533D01*
X0118998Y0148334D02*
X0118198Y0148334D01*
X0117515Y0145136D02*
X0119681Y0145136D01*
X0125898Y0141937D02*
X0066198Y0141937D01*
X0066198Y0138739D02*
X0125898Y0138739D01*
X0125898Y0135540D02*
X0066198Y0135540D01*
X0066198Y0132342D02*
X0089335Y0132342D01*
X0088998Y0132005D02*
X0088998Y0128195D01*
X0091693Y0125500D01*
X0095504Y0125500D01*
X0098198Y0128195D01*
X0098198Y0132005D01*
X0095504Y0134700D01*
X0091693Y0134700D01*
X0088998Y0132005D01*
X0088998Y0129143D02*
X0066198Y0129143D01*
X0066198Y0125945D02*
X0091248Y0125945D01*
X0095949Y0125945D02*
X0098998Y0125945D01*
X0098998Y0127005D02*
X0098998Y0123195D01*
X0101693Y0120500D01*
X0105504Y0120500D01*
X0108198Y0123195D01*
X0108198Y0127005D01*
X0105504Y0129700D01*
X0101693Y0129700D01*
X0098998Y0127005D01*
X0098198Y0129143D02*
X0101136Y0129143D01*
X0097862Y0132342D02*
X0109335Y0132342D01*
X0108998Y0132005D02*
X0108998Y0128195D01*
X0111693Y0125500D01*
X0115504Y0125500D01*
X0118198Y0128195D01*
X0118198Y0132005D01*
X0115504Y0134700D01*
X0111693Y0134700D01*
X0108998Y0132005D01*
X0108998Y0129143D02*
X0106060Y0129143D01*
X0108198Y0125945D02*
X0111248Y0125945D01*
X0115949Y0125945D02*
X0121248Y0125945D01*
X0125898Y0122746D02*
X0107750Y0122746D01*
X0099447Y0122746D02*
X0066198Y0122746D01*
X0066198Y0119548D02*
X0125898Y0119548D01*
X0125898Y0116349D02*
X0066198Y0116349D01*
X0066198Y0113151D02*
X0125898Y0113151D01*
X0125898Y0109952D02*
X0105817Y0109952D01*
X0105669Y0110100D02*
X0103598Y0110100D01*
X0101527Y0110100D01*
X0098598Y0107171D01*
X0098598Y0105100D01*
X0098598Y0103029D01*
X0101527Y0100100D01*
X0103598Y0100100D01*
X0103598Y0105100D01*
X0098598Y0105100D01*
X0103598Y0105100D01*
X0103598Y0105100D01*
X0103598Y0110100D01*
X0103598Y0105100D01*
X0103598Y0105100D01*
X0103598Y0105100D01*
X0103598Y0100100D01*
X0105669Y0100100D01*
X0108598Y0103029D01*
X0108598Y0105100D01*
X0103599Y0105100D01*
X0108598Y0105100D01*
X0108598Y0107171D01*
X0105669Y0110100D01*
X0103598Y0109952D02*
X0103598Y0109952D01*
X0101380Y0109952D02*
X0066198Y0109952D01*
X0066198Y0106754D02*
X0098598Y0106754D01*
X0098598Y0103555D02*
X0096648Y0103555D01*
X0095504Y0104700D02*
X0091693Y0104700D01*
X0088998Y0102005D01*
X0088998Y0098195D01*
X0091693Y0095500D01*
X0095504Y0095500D01*
X0098198Y0098195D01*
X0098198Y0102005D01*
X0095504Y0104700D01*
X0090548Y0103555D02*
X0066198Y0103555D01*
X0066198Y0100357D02*
X0088998Y0100357D01*
X0090035Y0097158D02*
X0066198Y0097158D01*
X0066198Y0093960D02*
X0125898Y0093960D01*
X0125898Y0090761D02*
X0066198Y0090761D01*
X0066198Y0087563D02*
X0125898Y0087563D01*
X0125898Y0084364D02*
X0122678Y0084364D01*
X0122442Y0084600D02*
X0121691Y0085146D01*
X0120863Y0085568D01*
X0119980Y0085855D01*
X0119063Y0086000D01*
X0118598Y0086000D01*
X0118134Y0086000D01*
X0117217Y0085855D01*
X0116334Y0085568D01*
X0115506Y0085146D01*
X0114755Y0084600D01*
X0114098Y0083944D01*
X0113552Y0083192D01*
X0113131Y0082365D01*
X0112844Y0081482D01*
X0112698Y0080564D01*
X0112698Y0080100D01*
X0112698Y0079636D01*
X0112844Y0078718D01*
X0113131Y0077835D01*
X0113552Y0077008D01*
X0114098Y0076256D01*
X0114442Y0075912D01*
X0113780Y0075912D01*
X0111886Y0075128D01*
X0110436Y0073678D01*
X0109652Y0071785D01*
X0109652Y0069735D01*
X0110436Y0067841D01*
X0111886Y0066391D01*
X0113780Y0065607D01*
X0115830Y0065607D01*
X0117723Y0066391D01*
X0119173Y0067841D01*
X0119957Y0069735D01*
X0119957Y0071785D01*
X0119173Y0073678D01*
X0118651Y0074200D01*
X0119063Y0074200D01*
X0119980Y0074345D01*
X0120863Y0074632D01*
X0121691Y0075054D01*
X0122442Y0075600D01*
X0123099Y0076256D01*
X0123645Y0077008D01*
X0124066Y0077835D01*
X0124353Y0078718D01*
X0124498Y0079636D01*
X0124498Y0080100D01*
X0124498Y0080564D01*
X0124353Y0081482D01*
X0124066Y0082365D01*
X0123645Y0083192D01*
X0123099Y0083944D01*
X0122442Y0084600D01*
X0118598Y0084364D02*
X0118598Y0084364D01*
X0118598Y0086000D02*
X0118598Y0080100D01*
X0112698Y0080100D01*
X0118598Y0080100D01*
X0118598Y0080100D01*
X0118598Y0080100D01*
X0118598Y0086000D01*
X0114519Y0084364D02*
X0082112Y0084364D01*
X0081714Y0084763D02*
X0079692Y0085600D01*
X0077504Y0085600D01*
X0075483Y0084763D01*
X0073936Y0083215D01*
X0073098Y0081194D01*
X0073098Y0079006D01*
X0073936Y0076984D01*
X0075483Y0075437D01*
X0077263Y0074700D01*
X0076693Y0074700D01*
X0073998Y0072005D01*
X0073998Y0068195D01*
X0076693Y0065500D01*
X0080504Y0065500D01*
X0083198Y0068195D01*
X0083198Y0072005D01*
X0080504Y0074700D01*
X0079934Y0074700D01*
X0081714Y0075437D01*
X0083261Y0076984D01*
X0084098Y0079006D01*
X0084098Y0081194D01*
X0083261Y0083215D01*
X0081714Y0084763D01*
X0084098Y0081166D02*
X0112794Y0081166D01*
X0113088Y0077967D02*
X0083668Y0077967D01*
X0080100Y0074769D02*
X0111527Y0074769D01*
X0109652Y0071570D02*
X0103198Y0071570D01*
X0103198Y0072005D02*
X0100504Y0074700D01*
X0096693Y0074700D01*
X0093998Y0072005D01*
X0093998Y0068195D01*
X0096693Y0065500D01*
X0100504Y0065500D01*
X0103198Y0068195D01*
X0103198Y0072005D01*
X0103198Y0068372D02*
X0110216Y0068372D01*
X0119393Y0068372D02*
X0125898Y0068372D01*
X0125898Y0065173D02*
X0066198Y0065173D01*
X0066198Y0068372D02*
X0073998Y0068372D01*
X0073998Y0071570D02*
X0066198Y0071570D01*
X0066198Y0074769D02*
X0077097Y0074769D01*
X0083198Y0071570D02*
X0093998Y0071570D01*
X0093998Y0068372D02*
X0083198Y0068372D01*
X0066198Y0061975D02*
X0125898Y0061975D01*
X0123798Y0057254D02*
X0120752Y0060300D01*
X0116445Y0060300D01*
X0113881Y0057737D01*
X0110918Y0060700D01*
X0108598Y0060700D01*
X0106279Y0060700D01*
X0103598Y0058020D01*
X0100918Y0060700D01*
X0098598Y0060700D01*
X0096279Y0060700D01*
X0093598Y0058020D01*
X0090918Y0060700D01*
X0088598Y0060700D01*
X0086279Y0060700D01*
X0083316Y0057737D01*
X0080752Y0060300D01*
X0076445Y0060300D01*
X0073398Y0057254D01*
X0073398Y0052946D01*
X0076245Y0050100D01*
X0073398Y0047254D01*
X0073398Y0042946D01*
X0076445Y0039900D01*
X0080752Y0039900D01*
X0083316Y0042463D01*
X0086279Y0039500D01*
X0088598Y0039500D01*
X0088598Y0045100D01*
X0088598Y0050700D01*
X0088598Y0055100D01*
X0088598Y0060700D01*
X0088598Y0055100D01*
X0088598Y0055100D01*
X0088598Y0055100D01*
X0088598Y0045100D01*
X0088598Y0045100D01*
X0088598Y0045100D01*
X0088598Y0039500D01*
X0090918Y0039500D01*
X0093598Y0042180D01*
X0096279Y0039500D01*
X0098598Y0039500D01*
X0098598Y0045100D01*
X0092998Y0045100D01*
X0088599Y0045100D01*
X0098598Y0045100D01*
X0098598Y0045100D01*
X0098598Y0050700D01*
X0098598Y0055100D01*
X0092998Y0055100D01*
X0088599Y0055100D01*
X0098598Y0055100D01*
X0098598Y0055100D01*
X0098598Y0060700D01*
X0098598Y0055100D01*
X0098598Y0055100D01*
X0098598Y0055100D01*
X0098598Y0045100D01*
X0098598Y0045100D01*
X0098598Y0045100D01*
X0098598Y0039500D01*
X0100918Y0039500D01*
X0103598Y0042180D01*
X0106279Y0039500D01*
X0108598Y0039500D01*
X0108598Y0045100D01*
X0102998Y0045100D01*
X0098599Y0045100D01*
X0108598Y0045100D01*
X0108598Y0045100D01*
X0108598Y0050700D01*
X0108598Y0055100D01*
X0102998Y0055100D01*
X0098599Y0055100D01*
X0108598Y0055100D01*
X0108598Y0055100D01*
X0108598Y0060700D01*
X0108598Y0055100D01*
X0108598Y0055100D01*
X0108598Y0055100D01*
X0108598Y0045100D01*
X0108598Y0045100D01*
X0108598Y0045100D01*
X0108598Y0039500D01*
X0110918Y0039500D01*
X0113881Y0042463D01*
X0116445Y0039900D01*
X0120752Y0039900D01*
X0123798Y0042946D01*
X0123798Y0047254D01*
X0120952Y0050100D01*
X0123798Y0052946D01*
X0123798Y0057254D01*
X0123798Y0055578D02*
X0125898Y0055578D01*
X0125898Y0058776D02*
X0122276Y0058776D01*
X0114921Y0058776D02*
X0112842Y0058776D01*
X0108598Y0058776D02*
X0108598Y0058776D01*
X0108598Y0055578D02*
X0108598Y0055578D01*
X0104355Y0058776D02*
X0102842Y0058776D01*
X0098598Y0058776D02*
X0098598Y0058776D01*
X0098598Y0055578D02*
X0098598Y0055578D01*
X0098599Y0055100D02*
X0098599Y0055100D01*
X0094355Y0058776D02*
X0092842Y0058776D01*
X0088598Y0058776D02*
X0088598Y0058776D01*
X0088598Y0055578D02*
X0088598Y0055578D01*
X0088599Y0055100D02*
X0088599Y0055100D01*
X0084355Y0058776D02*
X0082276Y0058776D01*
X0074921Y0058776D02*
X0066198Y0058776D01*
X0066198Y0055578D02*
X0073398Y0055578D01*
X0073965Y0052379D02*
X0066198Y0052379D01*
X0066198Y0049181D02*
X0075325Y0049181D01*
X0073398Y0045982D02*
X0066198Y0045982D01*
X0066198Y0042784D02*
X0073561Y0042784D01*
X0066198Y0039585D02*
X0086194Y0039585D01*
X0088598Y0039585D02*
X0088598Y0039585D01*
X0091003Y0039585D02*
X0096194Y0039585D01*
X0098598Y0039585D02*
X0098598Y0039585D01*
X0101003Y0039585D02*
X0106194Y0039585D01*
X0108598Y0039585D02*
X0108598Y0039585D01*
X0111003Y0039585D02*
X0125898Y0039585D01*
X0126179Y0036387D02*
X0117535Y0036387D01*
X0117723Y0036309D02*
X0115830Y0037093D01*
X0113780Y0037093D01*
X0111886Y0036309D01*
X0110436Y0034859D01*
X0109652Y0032965D01*
X0109652Y0030915D01*
X0110436Y0029022D01*
X0111886Y0027572D01*
X0113780Y0026788D01*
X0115830Y0026788D01*
X0117723Y0027572D01*
X0119173Y0029022D01*
X0119957Y0030915D01*
X0119957Y0032965D01*
X0119173Y0034859D01*
X0117723Y0036309D01*
X0112074Y0036387D02*
X0066198Y0036387D01*
X0066198Y0033188D02*
X0075181Y0033188D01*
X0073998Y0032005D02*
X0073998Y0028195D01*
X0076693Y0025500D01*
X0077263Y0025500D01*
X0075483Y0024763D01*
X0073936Y0023215D01*
X0073098Y0021194D01*
X0073098Y0019006D01*
X0073936Y0016984D01*
X0075483Y0015437D01*
X0077504Y0014600D01*
X0079692Y0014600D01*
X0081714Y0015437D01*
X0083261Y0016984D01*
X0084098Y0019006D01*
X0084098Y0021194D01*
X0083261Y0023215D01*
X0081714Y0024763D01*
X0079934Y0025500D01*
X0080504Y0025500D01*
X0083198Y0028195D01*
X0083198Y0032005D01*
X0080504Y0034700D01*
X0076693Y0034700D01*
X0073998Y0032005D01*
X0073998Y0029990D02*
X0066198Y0029990D01*
X0066198Y0026791D02*
X0075402Y0026791D01*
X0074313Y0023593D02*
X0066198Y0023593D01*
X0066198Y0020394D02*
X0073098Y0020394D01*
X0073848Y0017196D02*
X0066198Y0017196D01*
X0066198Y0013997D02*
X0149368Y0013997D01*
X0155417Y0013997D02*
X0223398Y0013997D01*
X0225546Y0010799D02*
X0066198Y0010799D01*
X0083348Y0017196D02*
X0113457Y0017196D01*
X0113552Y0017008D02*
X0114098Y0016256D01*
X0114755Y0015600D01*
X0115506Y0015054D01*
X0116334Y0014632D01*
X0117217Y0014345D01*
X0118134Y0014200D01*
X0118598Y0014200D01*
X0118598Y0020100D01*
X0112698Y0020100D01*
X0112698Y0019636D01*
X0112844Y0018718D01*
X0113131Y0017835D01*
X0113552Y0017008D01*
X0112698Y0020100D02*
X0118598Y0020100D01*
X0118598Y0020100D01*
X0118598Y0026000D01*
X0118134Y0026000D01*
X0117217Y0025855D01*
X0116334Y0025568D01*
X0115506Y0025146D01*
X0114755Y0024600D01*
X0114098Y0023944D01*
X0113552Y0023192D01*
X0113131Y0022365D01*
X0112844Y0021482D01*
X0112698Y0020564D01*
X0112698Y0020100D01*
X0112698Y0020394D02*
X0084098Y0020394D01*
X0082884Y0023593D02*
X0113843Y0023593D01*
X0113771Y0026791D02*
X0101795Y0026791D01*
X0100504Y0025500D02*
X0103198Y0028195D01*
X0103198Y0032005D01*
X0100504Y0034700D01*
X0096693Y0034700D01*
X0093998Y0032005D01*
X0093998Y0028195D01*
X0096693Y0025500D01*
X0100504Y0025500D01*
X0095402Y0026791D02*
X0081795Y0026791D01*
X0083198Y0029990D02*
X0093998Y0029990D01*
X0095181Y0033188D02*
X0082016Y0033188D01*
X0102016Y0033188D02*
X0109744Y0033188D01*
X0110035Y0029990D02*
X0103198Y0029990D01*
X0115838Y0026791D02*
X0135589Y0026791D01*
X0138787Y0023593D02*
X0123354Y0023593D01*
X0123099Y0023944D02*
X0122442Y0024600D01*
X0121691Y0025146D01*
X0120863Y0025568D01*
X0119980Y0025855D01*
X0119063Y0026000D01*
X0118598Y0026000D01*
X0118598Y0020100D01*
X0118598Y0020100D01*
X0118598Y0020100D01*
X0118598Y0014200D01*
X0119063Y0014200D01*
X0119980Y0014345D01*
X0120863Y0014632D01*
X0121691Y0015054D01*
X0122442Y0015600D01*
X0123099Y0016256D01*
X0123645Y0017008D01*
X0124066Y0017835D01*
X0124353Y0018718D01*
X0124498Y0019636D01*
X0124498Y0020100D01*
X0124498Y0020564D01*
X0124353Y0021482D01*
X0124066Y0022365D01*
X0123645Y0023192D01*
X0123099Y0023944D01*
X0118598Y0023593D02*
X0118598Y0023593D01*
X0118598Y0020394D02*
X0118598Y0020394D01*
X0118599Y0020100D02*
X0124498Y0020100D01*
X0118599Y0020100D01*
X0118599Y0020100D01*
X0118598Y0017196D02*
X0118598Y0017196D01*
X0123740Y0017196D02*
X0147256Y0017196D01*
X0147699Y0020394D02*
X0124498Y0020394D01*
X0119574Y0029990D02*
X0132390Y0029990D01*
X0129192Y0033188D02*
X0119865Y0033188D01*
X0133630Y0036387D02*
X0168998Y0036387D01*
X0170898Y0039585D02*
X0155749Y0039585D01*
X0155719Y0039513D02*
X0156548Y0041516D01*
X0156548Y0042676D01*
X0163251Y0049379D01*
X0164320Y0050447D01*
X0164898Y0051844D01*
X0164898Y0092189D01*
X0165098Y0092389D01*
X0165098Y0097811D01*
X0163810Y0099100D01*
X0158387Y0099100D01*
X0157098Y0097811D01*
X0157098Y0092389D01*
X0157298Y0092189D01*
X0157298Y0086061D01*
X0156761Y0087359D01*
X0155311Y0088809D01*
X0153417Y0089593D01*
X0151367Y0089593D01*
X0149473Y0088809D01*
X0148024Y0087359D01*
X0147240Y0085465D01*
X0147240Y0083415D01*
X0148024Y0081522D01*
X0149473Y0080072D01*
X0151367Y0079288D01*
X0153417Y0079288D01*
X0155311Y0080072D01*
X0156761Y0081522D01*
X0157298Y0082820D01*
X0157298Y0054174D01*
X0151174Y0048050D01*
X0150014Y0048050D01*
X0148011Y0047220D01*
X0146940Y0046149D01*
X0146848Y0046608D01*
X0146653Y0047082D01*
X0146368Y0047507D01*
X0146006Y0047870D01*
X0145580Y0048154D01*
X0145107Y0048350D01*
X0144605Y0048450D01*
X0141098Y0048450D01*
X0137592Y0048450D01*
X0137090Y0048350D01*
X0136617Y0048154D01*
X0136191Y0047870D01*
X0135829Y0047507D01*
X0135544Y0047082D01*
X0135348Y0046608D01*
X0135248Y0046106D01*
X0135248Y0042600D01*
X0135248Y0039094D01*
X0135348Y0038592D01*
X0135544Y0038118D01*
X0135829Y0037693D01*
X0136191Y0037330D01*
X0136617Y0037046D01*
X0137090Y0036850D01*
X0137592Y0036750D01*
X0141098Y0036750D01*
X0141098Y0042600D01*
X0135248Y0042600D01*
X0141098Y0042600D01*
X0141098Y0042600D01*
X0141098Y0048450D01*
X0141098Y0042600D01*
X0141098Y0042600D01*
X0141098Y0042600D01*
X0141098Y0036750D01*
X0144605Y0036750D01*
X0145107Y0036850D01*
X0145580Y0037046D01*
X0146006Y0037330D01*
X0146368Y0037693D01*
X0146653Y0038118D01*
X0146848Y0038592D01*
X0146940Y0039051D01*
X0148011Y0037980D01*
X0150014Y0037150D01*
X0152182Y0037150D01*
X0154186Y0037980D01*
X0155719Y0039513D01*
X0156656Y0042784D02*
X0172464Y0042784D01*
X0169829Y0045982D02*
X0159855Y0045982D01*
X0163053Y0049181D02*
X0168199Y0049181D01*
X0165898Y0052379D02*
X0164898Y0052379D01*
X0163251Y0049379D02*
X0163251Y0049379D01*
X0161098Y0052600D02*
X0161098Y0095100D01*
X0157098Y0093960D02*
X0131298Y0093960D01*
X0131298Y0090761D02*
X0157298Y0090761D01*
X0164898Y0090761D02*
X0165898Y0090761D01*
X0165898Y0093960D02*
X0165098Y0093960D01*
X0171298Y0093960D02*
X0183398Y0093960D01*
X0183398Y0092946D02*
X0186445Y0089900D01*
X0190752Y0089900D01*
X0193798Y0092946D01*
X0193798Y0093100D01*
X0194190Y0092154D01*
X0195653Y0090692D01*
X0197564Y0089900D01*
X0199633Y0089900D01*
X0201544Y0090692D01*
X0203007Y0092154D01*
X0203798Y0094066D01*
X0203798Y0096134D01*
X0203007Y0098046D01*
X0201544Y0099508D01*
X0201107Y0099689D01*
X0204198Y0102780D01*
X0204198Y0105100D01*
X0198599Y0105100D01*
X0204198Y0105100D01*
X0204198Y0107420D01*
X0201235Y0110383D01*
X0203798Y0112946D01*
X0203798Y0117254D01*
X0200752Y0120300D01*
X0196445Y0120300D01*
X0193598Y0117454D01*
X0190752Y0120300D01*
X0186445Y0120300D01*
X0183398Y0117254D01*
X0183398Y0112946D01*
X0185962Y0110383D01*
X0182998Y0107420D01*
X0182998Y0105100D01*
X0188598Y0105100D01*
X0188598Y0105100D01*
X0182998Y0105100D01*
X0182998Y0102780D01*
X0185962Y0099817D01*
X0183398Y0097254D01*
X0183398Y0092946D01*
X0185583Y0090761D02*
X0171298Y0090761D01*
X0171298Y0087563D02*
X0224293Y0087563D01*
X0224322Y0087621D02*
X0223965Y0086919D01*
X0223722Y0086171D01*
X0223598Y0085394D01*
X0223598Y0082600D01*
X0223598Y0079806D01*
X0223722Y0079029D01*
X0223965Y0078281D01*
X0224322Y0077579D01*
X0224785Y0076943D01*
X0225341Y0076386D01*
X0225978Y0075924D01*
X0226679Y0075566D01*
X0227428Y0075323D01*
X0228205Y0075200D01*
X0228598Y0075200D01*
X0228598Y0082600D01*
X0223598Y0082600D01*
X0228598Y0082600D01*
X0228598Y0082600D01*
X0228598Y0090000D01*
X0228205Y0090000D01*
X0227428Y0089877D01*
X0226679Y0089634D01*
X0225978Y0089276D01*
X0225341Y0088814D01*
X0224785Y0088257D01*
X0224322Y0087621D01*
X0223598Y0084364D02*
X0207307Y0084364D01*
X0207216Y0084584D02*
X0206015Y0085784D01*
X0204447Y0086434D01*
X0202750Y0086434D01*
X0201181Y0085784D01*
X0199981Y0084584D01*
X0199331Y0083016D01*
X0199331Y0077184D01*
X0199981Y0075616D01*
X0200898Y0074699D01*
X0200898Y0072063D01*
X0201309Y0071071D01*
X0205898Y0066482D01*
X0205898Y0055833D01*
X0204447Y0056434D01*
X0202750Y0056434D01*
X0201181Y0055784D01*
X0199981Y0054584D01*
X0199331Y0053016D01*
X0199331Y0047184D01*
X0199981Y0045616D01*
X0201181Y0044416D01*
X0202750Y0043766D01*
X0204447Y0043766D01*
X0205898Y0044367D01*
X0205898Y0041218D01*
X0204380Y0039700D01*
X0201693Y0039700D01*
X0198998Y0037005D01*
X0198998Y0033195D01*
X0201693Y0030500D01*
X0205504Y0030500D01*
X0208198Y0033195D01*
X0208198Y0035882D01*
X0210887Y0038571D01*
X0211298Y0039563D01*
X0211298Y0068137D01*
X0210887Y0069129D01*
X0210128Y0069889D01*
X0206298Y0073718D01*
X0206298Y0074699D01*
X0207216Y0075616D01*
X0207865Y0077184D01*
X0207865Y0083016D01*
X0207216Y0084584D01*
X0207865Y0081166D02*
X0223598Y0081166D01*
X0220669Y0080100D02*
X0218598Y0080100D01*
X0216527Y0080100D01*
X0213598Y0077171D01*
X0213598Y0075100D01*
X0213598Y0073029D01*
X0216527Y0070100D01*
X0218598Y0070100D01*
X0218598Y0075100D01*
X0213598Y0075100D01*
X0218598Y0075100D01*
X0218598Y0075100D01*
X0218598Y0080100D01*
X0218598Y0075100D01*
X0218598Y0075100D01*
X0218598Y0075100D01*
X0218598Y0070100D01*
X0220669Y0070100D01*
X0223598Y0073029D01*
X0223598Y0075100D01*
X0218599Y0075100D01*
X0223598Y0075100D01*
X0223598Y0077171D01*
X0220669Y0080100D01*
X0218598Y0077967D02*
X0218598Y0077967D01*
X0214395Y0077967D02*
X0207865Y0077967D01*
X0206368Y0074769D02*
X0213598Y0074769D01*
X0215057Y0071570D02*
X0208447Y0071570D01*
X0201102Y0071570D02*
X0188887Y0071570D01*
X0181250Y0071570D02*
X0171298Y0071570D01*
X0165898Y0071570D02*
X0164898Y0071570D01*
X0164898Y0074769D02*
X0165898Y0074769D01*
X0157298Y0074769D02*
X0131298Y0074769D01*
X0131298Y0071570D02*
X0157298Y0071570D01*
X0157298Y0068372D02*
X0142053Y0068372D01*
X0142468Y0068306D02*
X0141559Y0068450D01*
X0141098Y0068450D01*
X0140638Y0068450D01*
X0139729Y0068306D01*
X0138853Y0068021D01*
X0138032Y0067603D01*
X0137287Y0067062D01*
X0136636Y0066411D01*
X0136095Y0065666D01*
X0135677Y0064846D01*
X0135392Y0063970D01*
X0135248Y0063060D01*
X0135248Y0062600D01*
X0141098Y0062600D01*
X0135248Y0062600D01*
X0135248Y0062140D01*
X0135392Y0061230D01*
X0135677Y0060354D01*
X0136095Y0059534D01*
X0136636Y0058789D01*
X0137287Y0058138D01*
X0138032Y0057597D01*
X0138853Y0057179D01*
X0139729Y0056894D01*
X0140638Y0056750D01*
X0141098Y0056750D01*
X0141098Y0062600D01*
X0141098Y0062600D01*
X0141098Y0068450D01*
X0141098Y0062600D01*
X0141098Y0062600D01*
X0141098Y0062600D01*
X0141098Y0056750D01*
X0141559Y0056750D01*
X0142468Y0056894D01*
X0143344Y0057179D01*
X0144164Y0057597D01*
X0144909Y0058138D01*
X0145561Y0058789D01*
X0145648Y0058910D01*
X0145648Y0058439D01*
X0146937Y0057150D01*
X0155260Y0057150D01*
X0156548Y0058439D01*
X0156548Y0066761D01*
X0155260Y0068050D01*
X0146937Y0068050D01*
X0145648Y0066761D01*
X0145648Y0066290D01*
X0145561Y0066411D01*
X0144909Y0067062D01*
X0144164Y0067603D01*
X0143344Y0068021D01*
X0142468Y0068306D01*
X0141098Y0068372D02*
X0141098Y0068372D01*
X0140144Y0068372D02*
X0131298Y0068372D01*
X0131298Y0065173D02*
X0135844Y0065173D01*
X0141098Y0065173D02*
X0141098Y0065173D01*
X0141098Y0061975D02*
X0141098Y0061975D01*
X0141098Y0058776D02*
X0141098Y0058776D01*
X0136649Y0058776D02*
X0131298Y0058776D01*
X0131298Y0055578D02*
X0157298Y0055578D01*
X0157298Y0058776D02*
X0156548Y0058776D01*
X0156548Y0061975D02*
X0157298Y0061975D01*
X0164898Y0061975D02*
X0165898Y0061975D01*
X0171298Y0061975D02*
X0175898Y0061975D01*
X0181298Y0061975D02*
X0205898Y0061975D01*
X0211298Y0061975D02*
X0220898Y0061975D01*
X0226298Y0061975D02*
X0230898Y0061975D01*
X0230898Y0065173D02*
X0226298Y0065173D01*
X0227013Y0068372D02*
X0230580Y0068372D01*
X0230473Y0071570D02*
X0222140Y0071570D01*
X0223598Y0074769D02*
X0235898Y0074769D01*
X0232412Y0076943D02*
X0232875Y0077579D01*
X0233232Y0078281D01*
X0233475Y0079029D01*
X0233598Y0079806D01*
X0233598Y0082600D01*
X0228599Y0082600D01*
X0233598Y0082600D01*
X0233598Y0085394D01*
X0233475Y0086171D01*
X0233232Y0086919D01*
X0232875Y0087621D01*
X0232412Y0088257D01*
X0231856Y0088814D01*
X0231219Y0089276D01*
X0230518Y0089634D01*
X0229769Y0089877D01*
X0228992Y0090000D01*
X0228598Y0090000D01*
X0228598Y0082600D01*
X0228598Y0082600D01*
X0228598Y0082600D01*
X0228598Y0075200D01*
X0228992Y0075200D01*
X0229769Y0075323D01*
X0230518Y0075566D01*
X0231219Y0075924D01*
X0231856Y0076386D01*
X0232412Y0076943D01*
X0233072Y0077967D02*
X0234544Y0077967D01*
X0233998Y0081166D02*
X0233598Y0081166D01*
X0228598Y0081166D02*
X0228598Y0081166D01*
X0228599Y0082600D02*
X0228599Y0082600D01*
X0228598Y0084364D02*
X0228598Y0084364D01*
X0228598Y0087563D02*
X0228598Y0087563D01*
X0232904Y0087563D02*
X0234681Y0087563D01*
X0233998Y0084364D02*
X0233598Y0084364D01*
X0228598Y0077967D02*
X0228598Y0077967D01*
X0224124Y0077967D02*
X0222802Y0077967D01*
X0218599Y0075100D02*
X0218599Y0075100D01*
X0218598Y0074769D02*
X0218598Y0074769D01*
X0218598Y0071570D02*
X0218598Y0071570D01*
X0220184Y0068372D02*
X0211201Y0068372D01*
X0211298Y0065173D02*
X0220898Y0065173D01*
X0205898Y0065173D02*
X0182490Y0065173D01*
X0185688Y0068372D02*
X0204008Y0068372D01*
X0200828Y0074769D02*
X0196368Y0074769D01*
X0197865Y0077967D02*
X0199331Y0077967D01*
X0199331Y0081166D02*
X0197865Y0081166D01*
X0197307Y0084364D02*
X0199890Y0084364D01*
X0189890Y0084364D02*
X0187717Y0084364D01*
X0183598Y0084364D02*
X0183598Y0084364D01*
X0179480Y0084364D02*
X0177307Y0084364D01*
X0177865Y0081166D02*
X0178931Y0081166D01*
X0178931Y0077967D02*
X0177865Y0077967D01*
X0183598Y0081166D02*
X0183598Y0081166D01*
X0188265Y0081166D02*
X0189331Y0081166D01*
X0180263Y0074769D02*
X0176368Y0074769D01*
X0165898Y0077967D02*
X0164898Y0077967D01*
X0164898Y0081166D02*
X0165898Y0081166D01*
X0157298Y0081166D02*
X0156405Y0081166D01*
X0157298Y0077967D02*
X0131298Y0077967D01*
X0131298Y0081166D02*
X0148380Y0081166D01*
X0147240Y0084364D02*
X0131298Y0084364D01*
X0131298Y0087563D02*
X0148228Y0087563D01*
X0156557Y0087563D02*
X0157298Y0087563D01*
X0164898Y0087563D02*
X0165898Y0087563D01*
X0165898Y0084364D02*
X0164898Y0084364D01*
X0191614Y0090761D02*
X0195583Y0090761D01*
X0201614Y0090761D02*
X0240898Y0090761D01*
X0241239Y0093960D02*
X0203755Y0093960D01*
X0203374Y0097158D02*
X0244338Y0097158D01*
X0244590Y0100357D02*
X0242607Y0100357D01*
X0242498Y0100094D02*
X0243198Y0101785D01*
X0243198Y0108415D01*
X0242498Y0110106D01*
X0241298Y0111305D01*
X0241298Y0128895D01*
X0242498Y0130094D01*
X0243198Y0131785D01*
X0243198Y0138415D01*
X0242498Y0140106D01*
X0241204Y0141400D01*
X0239942Y0141922D01*
X0240553Y0142175D01*
X0241523Y0143146D01*
X0242048Y0144414D01*
X0242048Y0145786D01*
X0241523Y0147054D01*
X0241298Y0147279D01*
X0241298Y0153895D01*
X0242498Y0155094D01*
X0243198Y0156785D01*
X0243198Y0163415D01*
X0242498Y0165106D01*
X0241204Y0166400D01*
X0239513Y0167100D01*
X0237683Y0167100D01*
X0236298Y0166526D01*
X0236298Y0183674D01*
X0237683Y0183100D01*
X0239513Y0183100D01*
X0241204Y0183800D01*
X0242498Y0185094D01*
X0243198Y0186785D01*
X0243198Y0193415D01*
X0242498Y0195106D01*
X0241204Y0196400D01*
X0239513Y0197100D01*
X0237683Y0197100D01*
X0235993Y0196400D01*
X0234699Y0195106D01*
X0233998Y0193415D01*
X0233998Y0189318D01*
X0233598Y0188918D01*
X0233598Y0190100D01*
X0228599Y0190100D01*
X0233598Y0190100D01*
X0233598Y0192894D01*
X0233475Y0193671D01*
X0233232Y0194419D01*
X0232875Y0195121D01*
X0232412Y0195757D01*
X0231856Y0196314D01*
X0231219Y0196776D01*
X0230518Y0197134D01*
X0229769Y0197377D01*
X0228992Y0197500D01*
X0228598Y0197500D01*
X0228205Y0197500D01*
X0227428Y0197377D01*
X0226679Y0197134D01*
X0225978Y0196776D01*
X0225341Y0196314D01*
X0224785Y0195757D01*
X0224322Y0195121D01*
X0223965Y0194419D01*
X0223722Y0193671D01*
X0223598Y0192894D01*
X0223598Y0190100D01*
X0223598Y0187306D01*
X0223722Y0186529D01*
X0223965Y0185781D01*
X0224322Y0185079D01*
X0224785Y0184443D01*
X0225341Y0183886D01*
X0225978Y0183424D01*
X0226679Y0183066D01*
X0227428Y0182823D01*
X0228205Y0182700D01*
X0228598Y0182700D01*
X0228598Y0190100D01*
X0223598Y0190100D01*
X0228598Y0190100D01*
X0228598Y0190100D01*
X0228598Y0197500D01*
X0228598Y0190100D01*
X0228598Y0190100D01*
X0228598Y0190100D01*
X0228598Y0182700D01*
X0228992Y0182700D01*
X0229769Y0182823D01*
X0230518Y0183066D01*
X0230898Y0183260D01*
X0230898Y0178081D01*
X0225906Y0178081D01*
X0224617Y0176792D01*
X0224617Y0175064D01*
X0217214Y0164700D01*
X0216693Y0164700D01*
X0213998Y0162005D01*
X0213998Y0158195D01*
X0216693Y0155500D01*
X0220504Y0155500D01*
X0223198Y0158195D01*
X0223198Y0160002D01*
X0223998Y0161122D01*
X0223998Y0156785D01*
X0224699Y0155094D01*
X0225993Y0153800D01*
X0227683Y0153100D01*
X0229513Y0153100D01*
X0230898Y0153674D01*
X0230898Y0149779D01*
X0230674Y0149554D01*
X0230148Y0148286D01*
X0230148Y0146914D01*
X0230674Y0145646D01*
X0231644Y0144675D01*
X0232912Y0144150D01*
X0234285Y0144150D01*
X0235148Y0144508D01*
X0235148Y0144414D01*
X0235674Y0143146D01*
X0236644Y0142175D01*
X0237255Y0141922D01*
X0235993Y0141400D01*
X0234699Y0140106D01*
X0233998Y0138415D01*
X0233998Y0131785D01*
X0234699Y0130094D01*
X0235898Y0128895D01*
X0235898Y0111305D01*
X0234699Y0110106D01*
X0233998Y0108415D01*
X0233998Y0101785D01*
X0234699Y0100094D01*
X0235993Y0098800D01*
X0237683Y0098100D01*
X0239513Y0098100D01*
X0241204Y0098800D01*
X0242498Y0100094D01*
X0234590Y0100357D02*
X0232607Y0100357D01*
X0232498Y0100094D02*
X0233198Y0101785D01*
X0233198Y0108415D01*
X0232498Y0110106D01*
X0231298Y0111305D01*
X0231298Y0122921D01*
X0231523Y0123146D01*
X0232048Y0124414D01*
X0232048Y0125786D01*
X0231523Y0127054D01*
X0230553Y0128025D01*
X0230481Y0128054D01*
X0230518Y0128066D01*
X0231219Y0128424D01*
X0231856Y0128886D01*
X0232412Y0129443D01*
X0232875Y0130079D01*
X0233232Y0130781D01*
X0233475Y0131529D01*
X0233598Y0132306D01*
X0233598Y0135100D01*
X0228599Y0135100D01*
X0233598Y0135100D01*
X0233598Y0137894D01*
X0233475Y0138671D01*
X0233232Y0139419D01*
X0232875Y0140121D01*
X0232412Y0140757D01*
X0231856Y0141314D01*
X0231219Y0141776D01*
X0230518Y0142134D01*
X0229769Y0142377D01*
X0228992Y0142500D01*
X0228598Y0142500D01*
X0228205Y0142500D01*
X0227428Y0142377D01*
X0226679Y0142134D01*
X0225978Y0141776D01*
X0225341Y0141314D01*
X0224785Y0140757D01*
X0224322Y0140121D01*
X0223965Y0139419D01*
X0223722Y0138671D01*
X0223598Y0137894D01*
X0223598Y0135100D01*
X0223598Y0132306D01*
X0223722Y0131529D01*
X0223965Y0130781D01*
X0224322Y0130079D01*
X0224785Y0129443D01*
X0225341Y0128886D01*
X0225978Y0128424D01*
X0226679Y0128066D01*
X0226716Y0128054D01*
X0226644Y0128025D01*
X0225674Y0127054D01*
X0225148Y0125786D01*
X0225148Y0124414D01*
X0225674Y0123146D01*
X0225898Y0122921D01*
X0225898Y0111305D01*
X0224699Y0110106D01*
X0223998Y0108415D01*
X0223998Y0101785D01*
X0224699Y0100094D01*
X0225993Y0098800D01*
X0227683Y0098100D01*
X0229513Y0098100D01*
X0231204Y0098800D01*
X0232498Y0100094D01*
X0224590Y0100357D02*
X0201775Y0100357D01*
X0204198Y0103555D02*
X0208004Y0103555D01*
X0208049Y0106754D02*
X0204198Y0106754D01*
X0198599Y0105100D02*
X0198599Y0105100D01*
X0198598Y0105100D02*
X0194198Y0105100D01*
X0188599Y0105100D01*
X0188599Y0105100D01*
X0198598Y0105100D01*
X0198598Y0105100D01*
X0201666Y0109952D02*
X0208398Y0109952D01*
X0208398Y0113151D02*
X0203798Y0113151D01*
X0203798Y0116349D02*
X0208398Y0116349D01*
X0208398Y0119548D02*
X0201504Y0119548D01*
X0195692Y0119548D02*
X0191504Y0119548D01*
X0185692Y0119548D02*
X0171298Y0119548D01*
X0171298Y0116349D02*
X0183398Y0116349D01*
X0183398Y0113151D02*
X0171298Y0113151D01*
X0171298Y0109952D02*
X0185531Y0109952D01*
X0182998Y0106754D02*
X0171298Y0106754D01*
X0171298Y0103555D02*
X0182998Y0103555D01*
X0185422Y0100357D02*
X0171298Y0100357D01*
X0171298Y0097158D02*
X0183398Y0097158D01*
X0165898Y0097158D02*
X0165098Y0097158D01*
X0165898Y0100357D02*
X0135926Y0100357D01*
X0135669Y0100100D02*
X0138598Y0103029D01*
X0138598Y0105100D01*
X0133599Y0105100D01*
X0138598Y0105100D01*
X0138598Y0107171D01*
X0135669Y0110100D01*
X0133598Y0110100D01*
X0133598Y0105100D01*
X0133598Y0100100D01*
X0135669Y0100100D01*
X0133598Y0100357D02*
X0133598Y0100357D01*
X0131298Y0097158D02*
X0157098Y0097158D01*
X0165898Y0103555D02*
X0138598Y0103555D01*
X0138598Y0106754D02*
X0165898Y0106754D01*
X0165898Y0109952D02*
X0135817Y0109952D01*
X0133598Y0109952D02*
X0133598Y0109952D01*
X0131380Y0109952D02*
X0131298Y0109952D01*
X0131298Y0113151D02*
X0165898Y0113151D01*
X0165898Y0116349D02*
X0131298Y0116349D01*
X0131298Y0119548D02*
X0165898Y0119548D01*
X0165898Y0122746D02*
X0137987Y0122746D01*
X0138996Y0125945D02*
X0151248Y0125945D01*
X0151693Y0125500D02*
X0155504Y0125500D01*
X0158198Y0128195D01*
X0158198Y0132005D01*
X0155504Y0134700D01*
X0151693Y0134700D01*
X0148998Y0132005D01*
X0148998Y0128195D01*
X0151693Y0125500D01*
X0155949Y0125945D02*
X0168125Y0125945D01*
X0172563Y0122746D02*
X0208398Y0122746D01*
X0208398Y0125945D02*
X0205949Y0125945D01*
X0205504Y0125500D02*
X0208198Y0128195D01*
X0208198Y0132005D01*
X0205504Y0134700D01*
X0201693Y0134700D01*
X0198998Y0132005D01*
X0198998Y0128195D01*
X0201693Y0125500D01*
X0205504Y0125500D01*
X0201248Y0125945D02*
X0185949Y0125945D01*
X0181248Y0125945D02*
X0175762Y0125945D01*
X0178960Y0129143D02*
X0178998Y0129143D01*
X0188198Y0129143D02*
X0198998Y0129143D01*
X0199335Y0132342D02*
X0197911Y0132342D01*
X0198598Y0133029D02*
X0195669Y0130100D01*
X0193598Y0130100D01*
X0193598Y0135100D01*
X0188598Y0135100D01*
X0188598Y0133029D01*
X0191527Y0130100D01*
X0193598Y0130100D01*
X0193598Y0135100D01*
X0193598Y0135100D01*
X0188598Y0135100D01*
X0188598Y0137171D01*
X0191527Y0140100D01*
X0193598Y0140100D01*
X0193598Y0135100D01*
X0193598Y0135100D01*
X0193598Y0135100D01*
X0193598Y0140100D01*
X0195669Y0140100D01*
X0198598Y0137171D01*
X0198598Y0135100D01*
X0193599Y0135100D01*
X0198598Y0135100D01*
X0198598Y0133029D01*
X0198598Y0135540D02*
X0208398Y0135540D01*
X0213798Y0135540D02*
X0223598Y0135540D01*
X0223598Y0135100D02*
X0228598Y0135100D01*
X0223598Y0135100D01*
X0220669Y0132600D02*
X0218598Y0132600D01*
X0218598Y0127600D01*
X0218598Y0122600D01*
X0220669Y0122600D01*
X0223598Y0125529D01*
X0223598Y0127600D01*
X0218599Y0127600D01*
X0223598Y0127600D01*
X0223598Y0129671D01*
X0220669Y0132600D01*
X0220928Y0132342D02*
X0223598Y0132342D01*
X0223598Y0129143D02*
X0225084Y0129143D01*
X0218598Y0129143D02*
X0218598Y0129143D01*
X0218599Y0127600D02*
X0218599Y0127600D01*
X0218598Y0125945D02*
X0218598Y0125945D01*
X0218598Y0122746D02*
X0218598Y0122746D01*
X0216381Y0122746D02*
X0213798Y0122746D01*
X0220816Y0122746D02*
X0225898Y0122746D01*
X0225214Y0125945D02*
X0223598Y0125945D01*
X0231298Y0122746D02*
X0235898Y0122746D01*
X0235898Y0125945D02*
X0231983Y0125945D01*
X0232113Y0129143D02*
X0235650Y0129143D01*
X0233998Y0132342D02*
X0233598Y0132342D01*
X0241547Y0129143D02*
X0245650Y0129143D01*
X0245993Y0128800D02*
X0247683Y0128100D01*
X0249513Y0128100D01*
X0251204Y0128800D01*
X0252498Y0130094D01*
X0253198Y0131785D01*
X0253198Y0138415D01*
X0252498Y0140106D01*
X0251298Y0141305D01*
X0251298Y0145421D01*
X0251523Y0145646D01*
X0252048Y0146914D01*
X0252048Y0148286D01*
X0251523Y0149554D01*
X0250553Y0150525D01*
X0249285Y0151050D01*
X0247912Y0151050D01*
X0246644Y0150525D01*
X0245674Y0149554D01*
X0245148Y0148286D01*
X0245148Y0146914D01*
X0245674Y0145646D01*
X0245898Y0145421D01*
X0245898Y0141305D01*
X0244699Y0140106D01*
X0243998Y0138415D01*
X0243998Y0131785D01*
X0244699Y0130094D01*
X0245993Y0128800D01*
X0243998Y0132342D02*
X0243198Y0132342D01*
X0243198Y0135540D02*
X0243998Y0135540D01*
X0253198Y0135540D02*
X0253998Y0135540D01*
X0253998Y0138415D02*
X0253998Y0131785D01*
X0254699Y0130094D01*
X0255993Y0128800D01*
X0257683Y0128100D01*
X0259513Y0128100D01*
X0261204Y0128800D01*
X0262498Y0130094D01*
X0263198Y0131785D01*
X0263198Y0138415D01*
X0262498Y0140106D01*
X0261298Y0141305D01*
X0261298Y0147921D01*
X0261523Y0148146D01*
X0262048Y0149414D01*
X0262048Y0150786D01*
X0261523Y0152054D01*
X0260553Y0153025D01*
X0259942Y0153278D01*
X0261204Y0153800D01*
X0262498Y0155094D01*
X0263198Y0156785D01*
X0263198Y0163415D01*
X0262498Y0165106D01*
X0261204Y0166400D01*
X0259513Y0167100D01*
X0257683Y0167100D01*
X0255993Y0166400D01*
X0254699Y0165106D01*
X0253998Y0163415D01*
X0253998Y0156785D01*
X0254699Y0155094D01*
X0255993Y0153800D01*
X0257255Y0153278D01*
X0256644Y0153025D01*
X0255674Y0152054D01*
X0255148Y0150786D01*
X0255148Y0149414D01*
X0255674Y0148146D01*
X0255898Y0147921D01*
X0255898Y0141305D01*
X0254699Y0140106D01*
X0253998Y0138415D01*
X0254133Y0138739D02*
X0253064Y0138739D01*
X0251298Y0141937D02*
X0255898Y0141937D01*
X0261298Y0141937D02*
X0267291Y0141937D01*
X0269906Y0141937D02*
X0277291Y0141937D01*
X0279906Y0141937D02*
X0285898Y0141937D01*
X0285898Y0141305D02*
X0284699Y0140106D01*
X0283998Y0138415D01*
X0283998Y0131785D01*
X0284699Y0130094D01*
X0285993Y0128800D01*
X0287683Y0128100D01*
X0289513Y0128100D01*
X0291204Y0128800D01*
X0292498Y0130094D01*
X0293198Y0131785D01*
X0293198Y0138415D01*
X0292498Y0140106D01*
X0291298Y0141305D01*
X0291298Y0142921D01*
X0291523Y0143146D01*
X0292048Y0144414D01*
X0292048Y0145786D01*
X0291523Y0147054D01*
X0290553Y0148025D01*
X0289285Y0148550D01*
X0287912Y0148550D01*
X0286644Y0148025D01*
X0285674Y0147054D01*
X0285148Y0145786D01*
X0285148Y0144414D01*
X0285674Y0143146D01*
X0285898Y0142921D01*
X0285898Y0141305D01*
X0284133Y0138739D02*
X0283064Y0138739D01*
X0291298Y0141937D02*
X0303398Y0141937D01*
X0303398Y0138739D02*
X0293064Y0138739D01*
X0293198Y0135540D02*
X0303398Y0135540D01*
X0303398Y0132342D02*
X0293198Y0132342D01*
X0291547Y0129143D02*
X0303398Y0129143D01*
X0303398Y0125945D02*
X0281298Y0125945D01*
X0281298Y0122746D02*
X0291366Y0122746D01*
X0291644Y0123025D02*
X0290674Y0122054D01*
X0290148Y0120786D01*
X0290148Y0119414D01*
X0290674Y0118146D01*
X0290898Y0117921D01*
X0290898Y0111526D01*
X0289513Y0112100D01*
X0287683Y0112100D01*
X0285993Y0111400D01*
X0284699Y0110106D01*
X0283998Y0108415D01*
X0283998Y0101785D01*
X0284699Y0100094D01*
X0285993Y0098800D01*
X0287683Y0098100D01*
X0289513Y0098100D01*
X0290898Y0098674D01*
X0290898Y0089026D01*
X0289513Y0089600D01*
X0287683Y0089600D01*
X0285993Y0088900D01*
X0284699Y0087606D01*
X0283998Y0085915D01*
X0283998Y0079285D01*
X0284699Y0077594D01*
X0285993Y0076300D01*
X0287683Y0075600D01*
X0289513Y0075600D01*
X0291204Y0076300D01*
X0292498Y0077594D01*
X0293198Y0079285D01*
X0293198Y0083382D01*
X0295128Y0085311D01*
X0295887Y0086071D01*
X0296298Y0087063D01*
X0296298Y0117921D01*
X0296523Y0118146D01*
X0297048Y0119414D01*
X0297048Y0120786D01*
X0296523Y0122054D01*
X0295553Y0123025D01*
X0294285Y0123550D01*
X0292912Y0123550D01*
X0291644Y0123025D01*
X0295831Y0122746D02*
X0303398Y0122746D01*
X0303398Y0119548D02*
X0297048Y0119548D01*
X0296298Y0116349D02*
X0300382Y0116349D01*
X0300672Y0113151D02*
X0296298Y0113151D01*
X0296298Y0109952D02*
X0300898Y0109952D01*
X0300898Y0106754D02*
X0296298Y0106754D01*
X0296298Y0103555D02*
X0300898Y0103555D01*
X0300898Y0100357D02*
X0296298Y0100357D01*
X0296298Y0097158D02*
X0300898Y0097158D01*
X0300898Y0093960D02*
X0296298Y0093960D01*
X0296298Y0090761D02*
X0300898Y0090761D01*
X0300898Y0087563D02*
X0296298Y0087563D01*
X0294181Y0084364D02*
X0300898Y0084364D01*
X0300898Y0081166D02*
X0293198Y0081166D01*
X0292653Y0077967D02*
X0300898Y0077967D01*
X0300898Y0074769D02*
X0281298Y0074769D01*
X0281298Y0071570D02*
X0300898Y0071570D01*
X0300898Y0068372D02*
X0281298Y0068372D01*
X0281298Y0065173D02*
X0300898Y0065173D01*
X0300898Y0061975D02*
X0281298Y0061975D01*
X0281328Y0058776D02*
X0285869Y0058776D01*
X0283998Y0055578D02*
X0283198Y0055578D01*
X0291328Y0058776D02*
X0300898Y0058776D01*
X0300898Y0055578D02*
X0293198Y0055578D01*
X0293628Y0052379D02*
X0300148Y0052379D01*
X0302838Y0049181D02*
X0296826Y0049181D01*
X0300025Y0045982D02*
X0303398Y0045982D01*
X0303398Y0042784D02*
X0301998Y0042784D01*
X0293606Y0042784D02*
X0280100Y0042784D01*
X0281298Y0045982D02*
X0286761Y0045982D01*
X0284042Y0049181D02*
X0283155Y0049181D01*
X0283198Y0052379D02*
X0283998Y0052379D01*
X0270662Y0045982D02*
X0270436Y0045982D01*
X0266761Y0045982D02*
X0261298Y0045982D01*
X0261298Y0042784D02*
X0267464Y0042784D01*
X0264265Y0039585D02*
X0261298Y0039585D01*
X0276902Y0039585D02*
X0295198Y0039585D01*
X0295198Y0036387D02*
X0282398Y0036387D01*
X0278598Y0035100D02*
X0278598Y0025100D01*
X0288598Y0023593D02*
X0288598Y0023593D01*
X0288598Y0026791D02*
X0288598Y0026791D01*
X0288598Y0029990D02*
X0288598Y0029990D01*
X0285568Y0029990D02*
X0282398Y0029990D01*
X0282398Y0033188D02*
X0295198Y0033188D01*
X0295198Y0029990D02*
X0291628Y0029990D01*
X0301998Y0029990D02*
X0302648Y0029990D01*
X0301998Y0033188D02*
X0303398Y0033188D01*
X0303398Y0036387D02*
X0301998Y0036387D01*
X0301998Y0039585D02*
X0303398Y0039585D01*
X0323798Y0039585D02*
X0330898Y0039585D01*
X0330898Y0036387D02*
X0323798Y0036387D01*
X0323798Y0033188D02*
X0330898Y0033188D01*
X0326134Y0029990D02*
X0323798Y0029990D01*
X0312572Y0026791D02*
X0307125Y0026791D01*
X0305072Y0026791D02*
X0303798Y0026791D01*
X0303798Y0023593D02*
X0313398Y0023593D01*
X0313398Y0020394D02*
X0301246Y0020394D01*
X0303798Y0017196D02*
X0313398Y0017196D01*
X0313398Y0013997D02*
X0303798Y0013997D01*
X0301651Y0010799D02*
X0313398Y0010799D01*
X0288598Y0017196D02*
X0288598Y0017196D01*
X0288598Y0020394D02*
X0288598Y0020394D01*
X0323798Y0042784D02*
X0330898Y0042784D01*
X0330898Y0045982D02*
X0330436Y0045982D01*
X0326761Y0045982D02*
X0324467Y0045982D01*
X0324042Y0049181D02*
X0318798Y0049181D01*
X0318798Y0052379D02*
X0323998Y0052379D01*
X0323998Y0055578D02*
X0318798Y0055578D01*
X0318798Y0058776D02*
X0325869Y0058776D01*
X0330898Y0061975D02*
X0318798Y0061975D01*
X0318798Y0065173D02*
X0330898Y0065173D01*
X0330898Y0068372D02*
X0318798Y0068372D01*
X0318798Y0071570D02*
X0330291Y0071570D01*
X0330888Y0074769D02*
X0318798Y0074769D01*
X0324322Y0077579D02*
X0324785Y0076943D01*
X0325341Y0076386D01*
X0325978Y0075924D01*
X0326679Y0075566D01*
X0327428Y0075323D01*
X0328205Y0075200D01*
X0328598Y0075200D01*
X0328598Y0082600D01*
X0323598Y0082600D01*
X0323598Y0079806D01*
X0323722Y0079029D01*
X0323965Y0078281D01*
X0324322Y0077579D01*
X0324124Y0077967D02*
X0318798Y0077967D01*
X0318798Y0081166D02*
X0323598Y0081166D01*
X0323598Y0082600D02*
X0328598Y0082600D01*
X0328598Y0082600D01*
X0328598Y0090000D01*
X0328205Y0090000D01*
X0327428Y0089877D01*
X0326679Y0089634D01*
X0325978Y0089276D01*
X0325341Y0088814D01*
X0324785Y0088257D01*
X0324322Y0087621D01*
X0323965Y0086919D01*
X0323722Y0086171D01*
X0323598Y0085394D01*
X0323598Y0082600D01*
X0323598Y0084364D02*
X0318798Y0084364D01*
X0318798Y0087563D02*
X0324293Y0087563D01*
X0328598Y0087563D02*
X0328598Y0087563D01*
X0328598Y0090000D02*
X0328598Y0082600D01*
X0328598Y0082600D01*
X0328598Y0082600D01*
X0328598Y0075200D01*
X0328992Y0075200D01*
X0329769Y0075323D01*
X0330518Y0075566D01*
X0331219Y0075924D01*
X0331856Y0076386D01*
X0332412Y0076943D01*
X0332875Y0077579D01*
X0333232Y0078281D01*
X0333475Y0079029D01*
X0333598Y0079806D01*
X0333598Y0082600D01*
X0328599Y0082600D01*
X0333598Y0082600D01*
X0333598Y0085394D01*
X0333475Y0086171D01*
X0333232Y0086919D01*
X0332875Y0087621D01*
X0332412Y0088257D01*
X0331856Y0088814D01*
X0331219Y0089276D01*
X0330518Y0089634D01*
X0329769Y0089877D01*
X0328992Y0090000D01*
X0328598Y0090000D01*
X0332904Y0087563D02*
X0334681Y0087563D01*
X0333998Y0084364D02*
X0333598Y0084364D01*
X0328598Y0084364D02*
X0328598Y0084364D01*
X0328599Y0082600D02*
X0328599Y0082600D01*
X0328598Y0081166D02*
X0328598Y0081166D01*
X0328598Y0077967D02*
X0328598Y0077967D01*
X0333072Y0077967D02*
X0334544Y0077967D01*
X0333998Y0081166D02*
X0333598Y0081166D01*
X0343198Y0081166D02*
X0343998Y0081166D01*
X0344544Y0077967D02*
X0342653Y0077967D01*
X0345898Y0074769D02*
X0336309Y0074769D01*
X0336906Y0071570D02*
X0345898Y0071570D01*
X0351298Y0071570D02*
X0360898Y0071570D01*
X0360898Y0074769D02*
X0351298Y0074769D01*
X0352653Y0077967D02*
X0354544Y0077967D01*
X0353998Y0081166D02*
X0353198Y0081166D01*
X0353198Y0084364D02*
X0353998Y0084364D01*
X0354681Y0087563D02*
X0352516Y0087563D01*
X0355898Y0090761D02*
X0341298Y0090761D01*
X0341298Y0093960D02*
X0355898Y0093960D01*
X0352722Y0097158D02*
X0340358Y0097158D01*
X0342607Y0100357D02*
X0344590Y0100357D01*
X0343998Y0103555D02*
X0343198Y0103555D01*
X0343198Y0106754D02*
X0343998Y0106754D01*
X0344635Y0109952D02*
X0342562Y0109952D01*
X0340468Y0113151D02*
X0345898Y0113151D01*
X0343531Y0116349D02*
X0341298Y0116349D01*
X0325898Y0116349D02*
X0314315Y0116349D01*
X0314026Y0119548D02*
X0325898Y0119548D01*
X0325898Y0122746D02*
X0311298Y0122746D01*
X0311298Y0125945D02*
X0325214Y0125945D01*
X0325084Y0129143D02*
X0311298Y0129143D01*
X0311298Y0132342D02*
X0323598Y0132342D01*
X0323598Y0135540D02*
X0311298Y0135540D01*
X0311298Y0138739D02*
X0323744Y0138739D01*
X0326294Y0141937D02*
X0311298Y0141937D01*
X0311298Y0145136D02*
X0330898Y0145136D01*
X0330898Y0148334D02*
X0311601Y0148334D01*
X0311739Y0151533D02*
X0330898Y0151533D01*
X0325062Y0154732D02*
X0302135Y0154732D01*
X0302498Y0155094D02*
X0303198Y0156785D01*
X0303198Y0163415D01*
X0302498Y0165106D01*
X0301598Y0166005D01*
X0301598Y0170427D01*
X0302580Y0171408D01*
X0302580Y0176792D01*
X0301291Y0178081D01*
X0295906Y0178081D01*
X0294617Y0176792D01*
X0294617Y0171408D01*
X0295598Y0170427D01*
X0295598Y0166005D01*
X0294699Y0165106D01*
X0293998Y0163415D01*
X0293998Y0156785D01*
X0294699Y0155094D01*
X0295993Y0153800D01*
X0297683Y0153100D01*
X0299513Y0153100D01*
X0301204Y0153800D01*
X0302498Y0155094D01*
X0300458Y0151533D02*
X0261739Y0151533D01*
X0262135Y0154732D02*
X0265062Y0154732D01*
X0264699Y0155094D02*
X0265993Y0153800D01*
X0267683Y0153100D01*
X0269513Y0153100D01*
X0271204Y0153800D01*
X0272498Y0155094D01*
X0273198Y0156785D01*
X0273198Y0163415D01*
X0272498Y0165106D01*
X0271204Y0166400D01*
X0269513Y0167100D01*
X0267683Y0167100D01*
X0265993Y0166400D01*
X0264699Y0165106D01*
X0263998Y0163415D01*
X0263998Y0156785D01*
X0264699Y0155094D01*
X0255062Y0154732D02*
X0252135Y0154732D01*
X0252498Y0155094D02*
X0253198Y0156785D01*
X0253198Y0163415D01*
X0252498Y0165106D01*
X0251204Y0166400D01*
X0249513Y0167100D01*
X0247683Y0167100D01*
X0245993Y0166400D01*
X0244699Y0165106D01*
X0243998Y0163415D01*
X0243998Y0156785D01*
X0244699Y0155094D01*
X0245993Y0153800D01*
X0247683Y0153100D01*
X0249513Y0153100D01*
X0251204Y0153800D01*
X0252498Y0155094D01*
X0255458Y0151533D02*
X0241298Y0151533D01*
X0242135Y0154732D02*
X0245062Y0154732D01*
X0243998Y0157930D02*
X0243198Y0157930D01*
X0243198Y0161129D02*
X0243998Y0161129D01*
X0253198Y0161129D02*
X0253998Y0161129D01*
X0253998Y0157930D02*
X0253198Y0157930D01*
X0263198Y0157930D02*
X0263998Y0157930D01*
X0263998Y0161129D02*
X0263198Y0161129D01*
X0262821Y0164327D02*
X0264376Y0164327D01*
X0272821Y0164327D02*
X0273935Y0164327D01*
X0273965Y0164419D02*
X0273722Y0163671D01*
X0273598Y0162894D01*
X0273598Y0160100D01*
X0273598Y0157306D01*
X0273722Y0156529D01*
X0273965Y0155781D01*
X0274322Y0155079D01*
X0274785Y0154443D01*
X0275341Y0153886D01*
X0275978Y0153424D01*
X0276679Y0153066D01*
X0277428Y0152823D01*
X0278205Y0152700D01*
X0278598Y0152700D01*
X0278598Y0160100D01*
X0273598Y0160100D01*
X0278598Y0160100D01*
X0278598Y0160100D01*
X0278598Y0167500D01*
X0278205Y0167500D01*
X0277428Y0167377D01*
X0276679Y0167134D01*
X0275978Y0166776D01*
X0275341Y0166314D01*
X0274785Y0165757D01*
X0274322Y0165121D01*
X0273965Y0164419D01*
X0278598Y0164327D02*
X0278598Y0164327D01*
X0278598Y0167500D02*
X0278598Y0160100D01*
X0278598Y0160100D01*
X0278598Y0160100D01*
X0278598Y0152700D01*
X0278992Y0152700D01*
X0279769Y0152823D01*
X0280518Y0153066D01*
X0281219Y0153424D01*
X0281856Y0153886D01*
X0282412Y0154443D01*
X0282875Y0155079D01*
X0283232Y0155781D01*
X0283475Y0156529D01*
X0283598Y0157306D01*
X0283598Y0160100D01*
X0278599Y0160100D01*
X0283598Y0160100D01*
X0283598Y0162894D01*
X0283475Y0163671D01*
X0283232Y0164419D01*
X0282875Y0165121D01*
X0282412Y0165757D01*
X0281856Y0166314D01*
X0281219Y0166776D01*
X0280518Y0167134D01*
X0279769Y0167377D01*
X0278992Y0167500D01*
X0278598Y0167500D01*
X0283262Y0164327D02*
X0284376Y0164327D01*
X0284699Y0165106D02*
X0283998Y0163415D01*
X0283998Y0156785D01*
X0284699Y0155094D01*
X0285993Y0153800D01*
X0287683Y0153100D01*
X0289513Y0153100D01*
X0291204Y0153800D01*
X0292498Y0155094D01*
X0293198Y0156785D01*
X0293198Y0163415D01*
X0292498Y0165106D01*
X0291204Y0166400D01*
X0289513Y0167100D01*
X0287683Y0167100D01*
X0285993Y0166400D01*
X0284699Y0165106D01*
X0283998Y0161129D02*
X0283598Y0161129D01*
X0283598Y0157930D02*
X0283998Y0157930D01*
X0278598Y0157930D02*
X0278598Y0157930D01*
X0278599Y0160100D02*
X0278599Y0160100D01*
X0278598Y0161129D02*
X0278598Y0161129D01*
X0273598Y0161129D02*
X0273198Y0161129D01*
X0273198Y0157930D02*
X0273598Y0157930D01*
X0274575Y0154732D02*
X0272135Y0154732D01*
X0278598Y0154732D02*
X0278598Y0154732D01*
X0282622Y0154732D02*
X0285062Y0154732D01*
X0292135Y0154732D02*
X0295062Y0154732D01*
X0293998Y0157930D02*
X0293198Y0157930D01*
X0293198Y0161129D02*
X0293998Y0161129D01*
X0303198Y0161129D02*
X0306252Y0161129D01*
X0303198Y0157930D02*
X0309450Y0157930D01*
X0310690Y0164327D02*
X0314366Y0164327D01*
X0313998Y0167526D02*
X0308798Y0167526D01*
X0303398Y0167526D02*
X0301598Y0167526D01*
X0302821Y0164327D02*
X0303496Y0164327D01*
X0295598Y0167526D02*
X0236298Y0167526D01*
X0242821Y0164327D02*
X0244376Y0164327D01*
X0252821Y0164327D02*
X0254376Y0164327D01*
X0236298Y0170724D02*
X0295301Y0170724D01*
X0294617Y0173923D02*
X0236298Y0173923D01*
X0228598Y0174100D02*
X0218598Y0160100D01*
X0213998Y0161129D02*
X0213798Y0161129D01*
X0213798Y0157930D02*
X0214263Y0157930D01*
X0208398Y0157930D02*
X0207934Y0157930D01*
X0208198Y0158195D02*
X0205504Y0155500D01*
X0201693Y0155500D01*
X0198998Y0158195D01*
X0198998Y0162005D01*
X0201693Y0164700D01*
X0205504Y0164700D01*
X0208198Y0162005D01*
X0208198Y0158195D01*
X0208198Y0161129D02*
X0208398Y0161129D01*
X0208398Y0164327D02*
X0205877Y0164327D01*
X0208398Y0167526D02*
X0197048Y0167526D01*
X0194712Y0164327D02*
X0201320Y0164327D01*
X0198998Y0161129D02*
X0191298Y0161129D01*
X0197274Y0157930D02*
X0199263Y0157930D01*
X0198198Y0154732D02*
X0208398Y0154732D01*
X0208398Y0151533D02*
X0196537Y0151533D01*
X0191298Y0148334D02*
X0208398Y0148334D01*
X0208398Y0145136D02*
X0191298Y0145136D01*
X0185898Y0145136D02*
X0137515Y0145136D01*
X0138198Y0148334D02*
X0185898Y0148334D01*
X0185898Y0151533D02*
X0176537Y0151533D01*
X0175504Y0150500D02*
X0178198Y0153195D01*
X0178198Y0157005D01*
X0175504Y0159700D01*
X0171693Y0159700D01*
X0168998Y0157005D01*
X0168998Y0153195D01*
X0171693Y0150500D01*
X0175504Y0150500D01*
X0170660Y0151533D02*
X0166537Y0151533D01*
X0165504Y0150500D02*
X0161693Y0150500D01*
X0158998Y0153195D01*
X0158998Y0157005D01*
X0161693Y0159700D01*
X0165504Y0159700D01*
X0168198Y0157005D01*
X0168198Y0153195D01*
X0165504Y0150500D01*
X0160660Y0151533D02*
X0138198Y0151533D01*
X0137653Y0154732D02*
X0158998Y0154732D01*
X0159923Y0157930D02*
X0157934Y0157930D01*
X0158198Y0161129D02*
X0178998Y0161129D01*
X0179263Y0157930D02*
X0177274Y0157930D01*
X0169923Y0157930D02*
X0167274Y0157930D01*
X0168198Y0154732D02*
X0168998Y0154732D01*
X0178198Y0154732D02*
X0185898Y0154732D01*
X0191298Y0164327D02*
X0192485Y0164327D01*
X0196298Y0170724D02*
X0208398Y0170724D01*
X0208398Y0173923D02*
X0196298Y0173923D01*
X0197973Y0177121D02*
X0199223Y0177121D01*
X0207973Y0177121D02*
X0208398Y0177121D01*
X0213798Y0177121D02*
X0214506Y0177121D01*
X0218598Y0177121D02*
X0218598Y0177121D01*
X0218598Y0175100D02*
X0220669Y0175100D01*
X0223598Y0178029D01*
X0223598Y0180100D01*
X0218599Y0180100D01*
X0223598Y0180100D01*
X0223598Y0182171D01*
X0220669Y0185100D01*
X0218598Y0185100D01*
X0218598Y0180100D01*
X0218598Y0175100D01*
X0222691Y0177121D02*
X0224946Y0177121D01*
X0223598Y0180320D02*
X0230898Y0180320D01*
X0236298Y0180320D02*
X0303398Y0180320D01*
X0303398Y0177121D02*
X0302251Y0177121D01*
X0308798Y0177121D02*
X0314946Y0177121D01*
X0322251Y0177121D02*
X0360898Y0177121D01*
X0360898Y0180320D02*
X0308798Y0180320D01*
X0308641Y0183518D02*
X0314609Y0183518D01*
X0313598Y0184529D02*
X0313598Y0186600D01*
X0318598Y0186600D01*
X0318598Y0186600D01*
X0313598Y0186600D01*
X0313598Y0188671D01*
X0316527Y0191600D01*
X0318598Y0191600D01*
X0318598Y0186600D01*
X0318598Y0186600D01*
X0318598Y0186600D01*
X0318598Y0181600D01*
X0316527Y0181600D01*
X0313598Y0184529D01*
X0313598Y0186717D02*
X0305800Y0186717D01*
X0301362Y0183518D02*
X0300523Y0183518D01*
X0296674Y0183518D02*
X0290523Y0183518D01*
X0291204Y0183800D02*
X0292498Y0185094D01*
X0293198Y0186785D01*
X0293198Y0193415D01*
X0292498Y0195106D01*
X0291204Y0196400D01*
X0289513Y0197100D01*
X0287683Y0197100D01*
X0285993Y0196400D01*
X0284699Y0195106D01*
X0283998Y0193415D01*
X0283998Y0186785D01*
X0284699Y0185094D01*
X0285993Y0183800D01*
X0287683Y0183100D01*
X0289513Y0183100D01*
X0291204Y0183800D01*
X0293170Y0186717D02*
X0294027Y0186717D01*
X0293998Y0189915D02*
X0293198Y0189915D01*
X0293198Y0193114D02*
X0293998Y0193114D01*
X0303198Y0193114D02*
X0323633Y0193114D01*
X0323598Y0192894D02*
X0323598Y0190100D01*
X0323598Y0187306D01*
X0323722Y0186529D01*
X0323965Y0185781D01*
X0324322Y0185079D01*
X0324785Y0184443D01*
X0325341Y0183886D01*
X0325978Y0183424D01*
X0326679Y0183066D01*
X0327428Y0182823D01*
X0328205Y0182700D01*
X0328598Y0182700D01*
X0328598Y0190100D01*
X0323598Y0190100D01*
X0328598Y0190100D01*
X0328598Y0190100D01*
X0328598Y0197500D01*
X0328205Y0197500D01*
X0327428Y0197377D01*
X0326679Y0197134D01*
X0325978Y0196776D01*
X0325341Y0196314D01*
X0324785Y0195757D01*
X0324322Y0195121D01*
X0323965Y0194419D01*
X0323722Y0193671D01*
X0323598Y0192894D01*
X0323598Y0189915D02*
X0322354Y0189915D01*
X0323598Y0188671D02*
X0320669Y0191600D01*
X0318598Y0191600D01*
X0318598Y0186600D01*
X0318598Y0181600D01*
X0320669Y0181600D01*
X0323598Y0184529D01*
X0323598Y0186600D01*
X0318599Y0186600D01*
X0323598Y0186600D01*
X0323598Y0188671D01*
X0323598Y0186717D02*
X0323692Y0186717D01*
X0322588Y0183518D02*
X0325848Y0183518D01*
X0328598Y0183518D02*
X0328598Y0183518D01*
X0328598Y0182700D02*
X0328992Y0182700D01*
X0329769Y0182823D01*
X0330518Y0183066D01*
X0331219Y0183424D01*
X0331856Y0183886D01*
X0332412Y0184443D01*
X0332875Y0185079D01*
X0333232Y0185781D01*
X0333475Y0186529D01*
X0333598Y0187306D01*
X0333598Y0190100D01*
X0328599Y0190100D01*
X0333598Y0190100D01*
X0333598Y0192894D01*
X0333475Y0193671D01*
X0333232Y0194419D01*
X0332875Y0195121D01*
X0332412Y0195757D01*
X0331856Y0196314D01*
X0331219Y0196776D01*
X0330518Y0197134D01*
X0329769Y0197377D01*
X0328992Y0197500D01*
X0328598Y0197500D01*
X0328598Y0190100D01*
X0328598Y0190100D01*
X0328598Y0190100D01*
X0328598Y0182700D01*
X0331349Y0183518D02*
X0336674Y0183518D01*
X0335993Y0183800D02*
X0337683Y0183100D01*
X0339513Y0183100D01*
X0341204Y0183800D01*
X0342498Y0185094D01*
X0343198Y0186785D01*
X0343198Y0193415D01*
X0342498Y0195106D01*
X0341204Y0196400D01*
X0339513Y0197100D01*
X0337683Y0197100D01*
X0335993Y0196400D01*
X0334699Y0195106D01*
X0333998Y0193415D01*
X0333998Y0186785D01*
X0334699Y0185094D01*
X0335993Y0183800D01*
X0334027Y0186717D02*
X0333505Y0186717D01*
X0328598Y0186717D02*
X0328598Y0186717D01*
X0328598Y0189915D02*
X0328598Y0189915D01*
X0328599Y0190100D02*
X0328599Y0190100D01*
X0328598Y0193114D02*
X0328598Y0193114D01*
X0333564Y0193114D02*
X0333998Y0193114D01*
X0333998Y0189915D02*
X0333598Y0189915D01*
X0343198Y0189915D02*
X0343598Y0189915D01*
X0343598Y0190100D02*
X0343598Y0187306D01*
X0343722Y0186529D01*
X0343965Y0185781D01*
X0344322Y0185079D01*
X0344785Y0184443D01*
X0345341Y0183886D01*
X0345978Y0183424D01*
X0346679Y0183066D01*
X0347428Y0182823D01*
X0348205Y0182700D01*
X0348598Y0182700D01*
X0348598Y0190100D01*
X0343598Y0190100D01*
X0348598Y0190100D01*
X0348598Y0190100D01*
X0348598Y0197500D01*
X0348205Y0197500D01*
X0347428Y0197377D01*
X0346679Y0197134D01*
X0345978Y0196776D01*
X0345341Y0196314D01*
X0344785Y0195757D01*
X0344322Y0195121D01*
X0343965Y0194419D01*
X0343722Y0193671D01*
X0343598Y0192894D01*
X0343598Y0190100D01*
X0343633Y0193114D02*
X0343198Y0193114D01*
X0348598Y0193114D02*
X0348598Y0193114D01*
X0348598Y0190100D02*
X0348598Y0190100D01*
X0348598Y0190100D01*
X0348598Y0197500D01*
X0348992Y0197500D01*
X0349769Y0197377D01*
X0350518Y0197134D01*
X0351219Y0196776D01*
X0351856Y0196314D01*
X0352412Y0195757D01*
X0352875Y0195121D01*
X0353232Y0194419D01*
X0353475Y0193671D01*
X0353598Y0192894D01*
X0353598Y0190100D01*
X0348599Y0190100D01*
X0353598Y0190100D01*
X0353598Y0187306D01*
X0353475Y0186529D01*
X0353232Y0185781D01*
X0352875Y0185079D01*
X0352412Y0184443D01*
X0351856Y0183886D01*
X0351219Y0183424D01*
X0350518Y0183066D01*
X0349769Y0182823D01*
X0348992Y0182700D01*
X0348598Y0182700D01*
X0348598Y0190100D01*
X0348599Y0190100D02*
X0348599Y0190100D01*
X0348598Y0189915D02*
X0348598Y0189915D01*
X0353598Y0189915D02*
X0353998Y0189915D01*
X0353998Y0193114D02*
X0353564Y0193114D01*
X0363198Y0193114D02*
X0363998Y0193114D01*
X0363998Y0189915D02*
X0363198Y0189915D01*
X0363300Y0186717D02*
X0364027Y0186717D01*
X0356674Y0183518D02*
X0351349Y0183518D01*
X0348598Y0183518D02*
X0348598Y0183518D01*
X0345848Y0183518D02*
X0340523Y0183518D01*
X0343170Y0186717D02*
X0343692Y0186717D01*
X0348598Y0186717D02*
X0348598Y0186717D01*
X0353505Y0186717D02*
X0354027Y0186717D01*
X0373198Y0189915D02*
X0373998Y0189915D01*
X0373998Y0193114D02*
X0373198Y0193114D01*
X0371292Y0196312D02*
X0375905Y0196312D01*
X0381292Y0196312D02*
X0385905Y0196312D01*
X0385993Y0196400D02*
X0384699Y0195106D01*
X0383998Y0193415D01*
X0383998Y0186785D01*
X0384699Y0185094D01*
X0385993Y0183800D01*
X0387683Y0183100D01*
X0389513Y0183100D01*
X0391204Y0183800D01*
X0392498Y0185094D01*
X0393198Y0186785D01*
X0393198Y0193415D01*
X0392498Y0195106D01*
X0391204Y0196400D01*
X0389513Y0197100D01*
X0387683Y0197100D01*
X0385993Y0196400D01*
X0391292Y0196312D02*
X0395905Y0196312D01*
X0395993Y0196400D02*
X0394699Y0195106D01*
X0393998Y0193415D01*
X0393998Y0186785D01*
X0394699Y0185094D01*
X0395993Y0183800D01*
X0397683Y0183100D01*
X0399513Y0183100D01*
X0401204Y0183800D01*
X0402498Y0185094D01*
X0403198Y0186785D01*
X0403198Y0193415D01*
X0402498Y0195106D01*
X0401204Y0196400D01*
X0399513Y0197100D01*
X0397683Y0197100D01*
X0395993Y0196400D01*
X0401292Y0196312D02*
X0482258Y0196312D01*
X0482258Y0199511D02*
X0167543Y0199511D01*
X0170695Y0196312D02*
X0178492Y0196312D01*
X0175898Y0193114D02*
X0172312Y0193114D01*
X0172882Y0189915D02*
X0175898Y0189915D01*
X0175898Y0186717D02*
X0172948Y0186717D01*
X0172797Y0183518D02*
X0175898Y0183518D01*
X0175898Y0180320D02*
X0171749Y0180320D01*
X0169591Y0177121D02*
X0174301Y0177121D01*
X0178739Y0173923D02*
X0180898Y0173923D01*
X0180898Y0170724D02*
X0175541Y0170724D01*
X0213798Y0170724D02*
X0221517Y0170724D01*
X0223802Y0173923D02*
X0213798Y0173923D01*
X0213798Y0167526D02*
X0219233Y0167526D01*
X0216320Y0164327D02*
X0213798Y0164327D01*
X0222934Y0157930D02*
X0223998Y0157930D01*
X0225062Y0154732D02*
X0213798Y0154732D01*
X0213798Y0151533D02*
X0230898Y0151533D01*
X0230168Y0148334D02*
X0213798Y0148334D01*
X0213798Y0145136D02*
X0231183Y0145136D01*
X0230903Y0141937D02*
X0237218Y0141937D01*
X0239979Y0141937D02*
X0245898Y0141937D01*
X0244133Y0138739D02*
X0243064Y0138739D01*
X0234133Y0138739D02*
X0233453Y0138739D01*
X0228598Y0138739D02*
X0228598Y0138739D01*
X0228598Y0141937D02*
X0228598Y0141937D01*
X0228598Y0142500D02*
X0228598Y0135100D01*
X0228598Y0135100D01*
X0228598Y0135100D01*
X0228598Y0142500D01*
X0226294Y0141937D02*
X0213798Y0141937D01*
X0213798Y0138739D02*
X0223744Y0138739D01*
X0228598Y0135540D02*
X0228598Y0135540D01*
X0228599Y0135100D02*
X0228599Y0135100D01*
X0233598Y0135540D02*
X0233998Y0135540D01*
X0218598Y0132342D02*
X0218598Y0132342D01*
X0216269Y0132342D02*
X0213798Y0132342D01*
X0208398Y0132342D02*
X0207862Y0132342D01*
X0208198Y0129143D02*
X0208398Y0129143D01*
X0193598Y0132342D02*
X0193598Y0132342D01*
X0189285Y0132342D02*
X0187862Y0132342D01*
X0188598Y0135540D02*
X0185357Y0135540D01*
X0193598Y0135540D02*
X0193598Y0135540D01*
X0193599Y0135100D02*
X0193599Y0135100D01*
X0193598Y0138739D02*
X0193598Y0138739D01*
X0190166Y0138739D02*
X0188556Y0138739D01*
X0191246Y0141937D02*
X0208398Y0141937D01*
X0208398Y0138739D02*
X0197030Y0138739D01*
X0184118Y0141937D02*
X0137398Y0141937D01*
X0137398Y0138739D02*
X0160166Y0138739D01*
X0163598Y0138739D02*
X0163598Y0138739D01*
X0167030Y0138739D02*
X0170166Y0138739D01*
X0173598Y0138739D02*
X0173598Y0138739D01*
X0177030Y0138739D02*
X0180919Y0138739D01*
X0173598Y0135540D02*
X0173598Y0135540D01*
X0168598Y0135540D02*
X0168598Y0135540D01*
X0163598Y0135540D02*
X0163598Y0135540D01*
X0163599Y0135100D02*
X0163599Y0135100D01*
X0158598Y0135540D02*
X0137398Y0135540D01*
X0137398Y0132342D02*
X0149335Y0132342D01*
X0148998Y0129143D02*
X0137398Y0129143D01*
X0133598Y0125100D02*
X0133598Y0150100D01*
X0128998Y0151533D02*
X0128198Y0151533D01*
X0127653Y0154732D02*
X0129544Y0154732D01*
X0119335Y0132342D02*
X0117862Y0132342D01*
X0118198Y0129143D02*
X0118998Y0129143D01*
X0157862Y0132342D02*
X0159285Y0132342D01*
X0158198Y0129143D02*
X0171323Y0129143D01*
X0169285Y0132342D02*
X0167911Y0132342D01*
X0163598Y0132342D02*
X0163598Y0132342D01*
X0213798Y0119548D02*
X0225898Y0119548D01*
X0225898Y0116349D02*
X0213798Y0116349D01*
X0213798Y0113151D02*
X0225898Y0113151D01*
X0224635Y0109952D02*
X0222751Y0109952D01*
X0231298Y0113151D02*
X0235898Y0113151D01*
X0234635Y0109952D02*
X0232562Y0109952D01*
X0233198Y0106754D02*
X0233998Y0106754D01*
X0233998Y0103555D02*
X0233198Y0103555D01*
X0243198Y0103555D02*
X0243998Y0103555D01*
X0243998Y0106754D02*
X0243198Y0106754D01*
X0242562Y0109952D02*
X0244635Y0109952D01*
X0241298Y0113151D02*
X0250898Y0113151D01*
X0256298Y0113151D02*
X0265898Y0113151D01*
X0264635Y0109952D02*
X0262562Y0109952D01*
X0263198Y0106754D02*
X0263998Y0106754D01*
X0263998Y0103555D02*
X0263198Y0103555D01*
X0262607Y0100357D02*
X0264590Y0100357D01*
X0270898Y0097158D02*
X0256298Y0097158D01*
X0253777Y0093960D02*
X0270898Y0093960D01*
X0270898Y0090761D02*
X0251298Y0090761D01*
X0252516Y0087563D02*
X0254681Y0087563D01*
X0253998Y0084364D02*
X0253198Y0084364D01*
X0253198Y0081166D02*
X0253998Y0081166D01*
X0254544Y0077967D02*
X0252653Y0077967D01*
X0254449Y0074769D02*
X0246298Y0074769D01*
X0246298Y0071570D02*
X0251285Y0071570D01*
X0258887Y0071570D02*
X0270898Y0071570D01*
X0270898Y0074769D02*
X0261298Y0074769D01*
X0262653Y0077967D02*
X0264544Y0077967D01*
X0263998Y0081166D02*
X0263198Y0081166D01*
X0263198Y0084364D02*
X0263998Y0084364D01*
X0264681Y0087563D02*
X0262516Y0087563D01*
X0276298Y0090761D02*
X0290898Y0090761D01*
X0290898Y0093960D02*
X0276298Y0093960D01*
X0276298Y0097158D02*
X0290898Y0097158D01*
X0284590Y0100357D02*
X0282607Y0100357D01*
X0283198Y0103555D02*
X0283998Y0103555D01*
X0283998Y0106754D02*
X0283198Y0106754D01*
X0282562Y0109952D02*
X0284635Y0109952D01*
X0281298Y0113151D02*
X0290898Y0113151D01*
X0290898Y0116349D02*
X0281298Y0116349D01*
X0281298Y0119548D02*
X0290148Y0119548D01*
X0270898Y0122746D02*
X0270831Y0122746D01*
X0270898Y0125945D02*
X0254538Y0125945D01*
X0252659Y0125945D02*
X0241298Y0125945D01*
X0241298Y0122746D02*
X0250148Y0122746D01*
X0257048Y0122746D02*
X0266366Y0122746D01*
X0265148Y0119548D02*
X0256298Y0119548D01*
X0256298Y0116349D02*
X0265898Y0116349D01*
X0250898Y0116349D02*
X0241298Y0116349D01*
X0241298Y0119548D02*
X0250898Y0119548D01*
X0235898Y0119548D02*
X0231298Y0119548D01*
X0231298Y0116349D02*
X0235898Y0116349D01*
X0214445Y0109952D02*
X0213798Y0109952D01*
X0223198Y0106754D02*
X0223998Y0106754D01*
X0223998Y0103555D02*
X0221059Y0103555D01*
X0216138Y0103555D02*
X0214193Y0103555D01*
X0251547Y0129143D02*
X0255650Y0129143D01*
X0253998Y0132342D02*
X0253198Y0132342D01*
X0261547Y0129143D02*
X0265650Y0129143D01*
X0263998Y0132342D02*
X0263198Y0132342D01*
X0263198Y0135540D02*
X0263998Y0135540D01*
X0264133Y0138739D02*
X0263064Y0138739D01*
X0273064Y0138739D02*
X0274133Y0138739D01*
X0273998Y0135540D02*
X0273198Y0135540D01*
X0283198Y0135540D02*
X0283998Y0135540D01*
X0283998Y0132342D02*
X0283198Y0132342D01*
X0281547Y0129143D02*
X0285650Y0129143D01*
X0285148Y0145136D02*
X0261298Y0145136D01*
X0261601Y0148334D02*
X0287392Y0148334D01*
X0289805Y0148334D02*
X0300595Y0148334D01*
X0303398Y0145136D02*
X0292048Y0145136D01*
X0255898Y0145136D02*
X0251298Y0145136D01*
X0252028Y0148334D02*
X0255595Y0148334D01*
X0245898Y0145136D02*
X0242048Y0145136D01*
X0241298Y0148334D02*
X0245168Y0148334D01*
X0292821Y0164327D02*
X0294376Y0164327D01*
X0301896Y0170724D02*
X0303398Y0170724D01*
X0303398Y0173923D02*
X0302580Y0173923D01*
X0308798Y0173923D02*
X0314617Y0173923D01*
X0315301Y0170724D02*
X0308798Y0170724D01*
X0321896Y0170724D02*
X0360898Y0170724D01*
X0360898Y0173923D02*
X0322580Y0173923D01*
X0323198Y0167526D02*
X0332206Y0167526D01*
X0324376Y0164327D02*
X0322831Y0164327D01*
X0349991Y0167526D02*
X0360898Y0167526D01*
X0354376Y0164327D02*
X0352821Y0164327D01*
X0353198Y0161129D02*
X0353998Y0161129D01*
X0353998Y0157930D02*
X0353198Y0157930D01*
X0352135Y0154732D02*
X0355062Y0154732D01*
X0355898Y0151533D02*
X0351739Y0151533D01*
X0351601Y0148334D02*
X0355898Y0148334D01*
X0354816Y0145136D02*
X0351298Y0145136D01*
X0351298Y0141937D02*
X0351618Y0141937D01*
X0328598Y0141937D02*
X0328598Y0141937D01*
X0328598Y0138739D02*
X0328598Y0138739D01*
X0328598Y0135540D02*
X0328598Y0135540D01*
X0381298Y0141937D02*
X0387291Y0141937D01*
X0389906Y0141937D02*
X0397291Y0141937D01*
X0397683Y0142100D02*
X0395993Y0141400D01*
X0394699Y0140106D01*
X0393998Y0138415D01*
X0393998Y0131785D01*
X0394699Y0130094D01*
X0395993Y0128800D01*
X0397683Y0128100D01*
X0399513Y0128100D01*
X0401204Y0128800D01*
X0402498Y0130094D01*
X0403198Y0131785D01*
X0403198Y0138415D01*
X0402498Y0140106D01*
X0401204Y0141400D01*
X0399513Y0142100D01*
X0397683Y0142100D01*
X0399906Y0141937D02*
X0415598Y0141937D01*
X0415598Y0141343D02*
X0408956Y0134700D01*
X0406693Y0134700D01*
X0403998Y0132005D01*
X0403998Y0128195D01*
X0406693Y0125500D01*
X0410504Y0125500D01*
X0413198Y0128195D01*
X0413198Y0130457D01*
X0421142Y0138401D01*
X0421598Y0139503D01*
X0421598Y0149095D01*
X0423198Y0150695D01*
X0423198Y0154505D01*
X0420504Y0157200D01*
X0416693Y0157200D01*
X0416098Y0156605D01*
X0416098Y0157600D01*
X0411099Y0157600D01*
X0416098Y0157600D01*
X0416098Y0158595D01*
X0416693Y0158000D01*
X0420504Y0158000D01*
X0423198Y0160695D01*
X0423198Y0164505D01*
X0420504Y0167200D01*
X0416693Y0167200D01*
X0413998Y0164505D01*
X0413998Y0161771D01*
X0413169Y0162600D01*
X0411098Y0162600D01*
X0409027Y0162600D01*
X0406098Y0159671D01*
X0406098Y0157600D01*
X0406098Y0155529D01*
X0409027Y0152600D01*
X0411098Y0152600D01*
X0411098Y0157600D01*
X0406098Y0157600D01*
X0411098Y0157600D01*
X0411098Y0157600D01*
X0411098Y0162600D01*
X0411098Y0157600D01*
X0411098Y0157600D01*
X0411098Y0157600D01*
X0411098Y0152600D01*
X0413169Y0152600D01*
X0413998Y0153429D01*
X0413998Y0150695D01*
X0415598Y0149095D01*
X0415598Y0141343D01*
X0412995Y0138739D02*
X0403064Y0138739D01*
X0403198Y0135540D02*
X0409796Y0135540D01*
X0415083Y0132342D02*
X0445898Y0132342D01*
X0451298Y0132342D02*
X0482258Y0132342D01*
X0482258Y0129143D02*
X0451298Y0129143D01*
X0451298Y0125945D02*
X0482258Y0125945D01*
X0482258Y0122746D02*
X0451298Y0122746D01*
X0451298Y0119548D02*
X0482258Y0119548D01*
X0482258Y0116349D02*
X0451298Y0116349D01*
X0451298Y0113151D02*
X0482258Y0113151D01*
X0482258Y0109952D02*
X0449769Y0109952D01*
X0448798Y0106754D02*
X0482258Y0106754D01*
X0482258Y0103555D02*
X0448798Y0103555D01*
X0446209Y0100357D02*
X0482258Y0100357D01*
X0482258Y0097158D02*
X0448798Y0097158D01*
X0448798Y0093960D02*
X0482258Y0093960D01*
X0482258Y0090761D02*
X0446614Y0090761D01*
X0448490Y0087563D02*
X0482258Y0087563D01*
X0482258Y0084364D02*
X0448798Y0084364D01*
X0447018Y0081166D02*
X0482258Y0081166D01*
X0482258Y0077967D02*
X0431298Y0077967D01*
X0425898Y0077967D02*
X0413198Y0077967D01*
X0413198Y0079505D02*
X0410504Y0082200D01*
X0406693Y0082200D01*
X0403998Y0079505D01*
X0403998Y0075695D01*
X0406693Y0073000D01*
X0410504Y0073000D01*
X0413198Y0075695D01*
X0413198Y0079505D01*
X0411538Y0081166D02*
X0425898Y0081166D01*
X0425898Y0084364D02*
X0403198Y0084364D01*
X0402516Y0087563D02*
X0425898Y0087563D01*
X0425898Y0090761D02*
X0396298Y0090761D01*
X0396298Y0093960D02*
X0425898Y0093960D01*
X0425898Y0097158D02*
X0396298Y0097158D01*
X0390898Y0097158D02*
X0377858Y0097158D01*
X0378598Y0100357D02*
X0378598Y0100357D01*
X0383016Y0100357D02*
X0384590Y0100357D01*
X0383998Y0103555D02*
X0383598Y0103555D01*
X0383598Y0106754D02*
X0383998Y0106754D01*
X0378599Y0105100D02*
X0378599Y0105100D01*
X0378598Y0103555D02*
X0378598Y0103555D01*
X0382961Y0109952D02*
X0384635Y0109952D01*
X0386729Y0113151D02*
X0380468Y0113151D01*
X0381298Y0116349D02*
X0385898Y0116349D01*
X0385898Y0119548D02*
X0381298Y0119548D01*
X0381298Y0122746D02*
X0385898Y0122746D01*
X0385898Y0125945D02*
X0381298Y0125945D01*
X0381547Y0129143D02*
X0385650Y0129143D01*
X0383998Y0132342D02*
X0383198Y0132342D01*
X0383198Y0135540D02*
X0383998Y0135540D01*
X0384133Y0138739D02*
X0383064Y0138739D01*
X0393064Y0138739D02*
X0394133Y0138739D01*
X0393998Y0135540D02*
X0393198Y0135540D01*
X0393198Y0132342D02*
X0393998Y0132342D01*
X0395650Y0129143D02*
X0391547Y0129143D01*
X0391298Y0125945D02*
X0406248Y0125945D01*
X0410949Y0125945D02*
X0428125Y0125945D01*
X0425898Y0122746D02*
X0391298Y0122746D01*
X0391298Y0119548D02*
X0425898Y0119548D01*
X0425898Y0116349D02*
X0391298Y0116349D01*
X0394366Y0113151D02*
X0404578Y0113151D01*
X0403598Y0112171D02*
X0403598Y0110100D01*
X0403598Y0108029D01*
X0406527Y0105100D01*
X0408598Y0105100D01*
X0408598Y0110100D01*
X0403598Y0110100D01*
X0408598Y0110100D01*
X0408598Y0110100D01*
X0408598Y0115100D01*
X0406527Y0115100D01*
X0403598Y0112171D01*
X0403598Y0109952D02*
X0402562Y0109952D01*
X0408598Y0109952D02*
X0408598Y0109952D01*
X0408598Y0110100D02*
X0408598Y0105100D01*
X0410669Y0105100D01*
X0413598Y0108029D01*
X0413598Y0110100D01*
X0408599Y0110100D01*
X0413598Y0110100D01*
X0413598Y0112171D01*
X0410669Y0115100D01*
X0408598Y0115100D01*
X0408598Y0110100D01*
X0408598Y0110100D01*
X0408598Y0110100D01*
X0408599Y0110100D02*
X0408599Y0110100D01*
X0408598Y0113151D02*
X0408598Y0113151D01*
X0412619Y0113151D02*
X0425898Y0113151D01*
X0425898Y0109952D02*
X0413598Y0109952D01*
X0412323Y0106754D02*
X0425898Y0106754D01*
X0425898Y0103555D02*
X0403198Y0103555D01*
X0403198Y0106754D02*
X0404874Y0106754D01*
X0408598Y0106754D02*
X0408598Y0106754D01*
X0402607Y0100357D02*
X0425898Y0100357D01*
X0390898Y0093960D02*
X0380958Y0093960D01*
X0381298Y0090761D02*
X0390898Y0090761D01*
X0384681Y0087563D02*
X0382516Y0087563D01*
X0383198Y0084364D02*
X0383998Y0084364D01*
X0374681Y0087563D02*
X0372516Y0087563D01*
X0373198Y0084364D02*
X0373998Y0084364D01*
X0373998Y0081166D02*
X0373198Y0081166D01*
X0372653Y0077967D02*
X0374544Y0077967D01*
X0382653Y0077967D02*
X0384544Y0077967D01*
X0383998Y0081166D02*
X0383198Y0081166D01*
X0390898Y0074769D02*
X0366298Y0074769D01*
X0366298Y0071570D02*
X0390898Y0071570D01*
X0396298Y0071570D02*
X0425898Y0071570D01*
X0425898Y0074769D02*
X0412273Y0074769D01*
X0404924Y0074769D02*
X0396298Y0074769D01*
X0402653Y0077967D02*
X0403998Y0077967D01*
X0403198Y0081166D02*
X0405659Y0081166D01*
X0431298Y0074769D02*
X0482258Y0074769D01*
X0482258Y0071570D02*
X0431298Y0071570D01*
X0431298Y0068372D02*
X0482258Y0068372D01*
X0482258Y0065173D02*
X0431298Y0065173D01*
X0425898Y0065173D02*
X0394990Y0065173D01*
X0396298Y0068372D02*
X0425898Y0068372D01*
X0425898Y0061975D02*
X0411295Y0061975D01*
X0408598Y0061975D02*
X0408598Y0061975D01*
X0405902Y0061975D02*
X0391791Y0061975D01*
X0395993Y0058900D02*
X0394699Y0057606D01*
X0393998Y0055915D01*
X0393998Y0049285D01*
X0394699Y0047594D01*
X0395993Y0046300D01*
X0397683Y0045600D01*
X0399513Y0045600D01*
X0401204Y0046300D01*
X0402498Y0047594D01*
X0403198Y0049285D01*
X0403198Y0055915D01*
X0402498Y0057606D01*
X0401204Y0058900D01*
X0399513Y0059600D01*
X0397683Y0059600D01*
X0395993Y0058900D01*
X0395869Y0058776D02*
X0391328Y0058776D01*
X0393198Y0055578D02*
X0393998Y0055578D01*
X0393998Y0052379D02*
X0393198Y0052379D01*
X0393155Y0049181D02*
X0394042Y0049181D01*
X0396761Y0045982D02*
X0391298Y0045982D01*
X0392233Y0042784D02*
X0411498Y0042784D01*
X0412975Y0045982D02*
X0400436Y0045982D01*
X0403155Y0049181D02*
X0413012Y0049181D01*
X0411498Y0052379D02*
X0403198Y0052379D01*
X0403198Y0055578D02*
X0403598Y0055578D01*
X0403598Y0058776D02*
X0401328Y0058776D01*
X0408598Y0058776D02*
X0408598Y0058776D01*
X0408599Y0057600D02*
X0408599Y0057600D01*
X0408598Y0055578D02*
X0408598Y0055578D01*
X0413598Y0058776D02*
X0425898Y0058776D01*
X0425898Y0055578D02*
X0419626Y0055578D01*
X0420698Y0052379D02*
X0421307Y0052379D01*
X0423598Y0052379D02*
X0423598Y0052379D01*
X0425890Y0052379D02*
X0425898Y0052379D01*
X0423598Y0049181D02*
X0423598Y0049181D01*
X0431298Y0049181D02*
X0482258Y0049181D01*
X0482258Y0052379D02*
X0431298Y0052379D01*
X0431298Y0055578D02*
X0482258Y0055578D01*
X0482258Y0058776D02*
X0431298Y0058776D01*
X0431298Y0061975D02*
X0482258Y0061975D01*
X0482258Y0045982D02*
X0431298Y0045982D01*
X0431298Y0042784D02*
X0482258Y0042784D01*
X0482258Y0039585D02*
X0431298Y0039585D01*
X0432903Y0036387D02*
X0428703Y0036387D01*
X0424265Y0039585D02*
X0419589Y0039585D01*
X0412608Y0039585D02*
X0395432Y0039585D01*
X0390993Y0036387D02*
X0380360Y0036387D01*
X0384198Y0039585D02*
X0387795Y0039585D01*
X0379601Y0042784D02*
X0356298Y0042784D01*
X0356298Y0045982D02*
X0356761Y0045982D01*
X0360436Y0045982D02*
X0366761Y0045982D01*
X0365993Y0046300D02*
X0367683Y0045600D01*
X0369513Y0045600D01*
X0371204Y0046300D01*
X0372498Y0047594D01*
X0373198Y0049285D01*
X0373198Y0055915D01*
X0372498Y0057606D01*
X0371204Y0058900D01*
X0369513Y0059600D01*
X0367683Y0059600D01*
X0365993Y0058900D01*
X0364699Y0057606D01*
X0363998Y0055915D01*
X0363998Y0049285D01*
X0364699Y0047594D01*
X0365993Y0046300D01*
X0364042Y0049181D02*
X0363155Y0049181D01*
X0363198Y0052379D02*
X0363998Y0052379D01*
X0373198Y0052379D02*
X0373998Y0052379D01*
X0374042Y0049181D02*
X0373155Y0049181D01*
X0370436Y0045982D02*
X0376761Y0045982D01*
X0380436Y0045982D02*
X0380898Y0045982D01*
X0375763Y0039585D02*
X0356298Y0039585D01*
X0356298Y0036387D02*
X0371925Y0036387D01*
X0368087Y0033188D02*
X0356298Y0033188D01*
X0361063Y0029990D02*
X0365877Y0029990D01*
X0372683Y0029990D02*
X0376134Y0029990D01*
X0376522Y0033188D02*
X0394192Y0033188D01*
X0396134Y0029990D02*
X0391628Y0029990D01*
X0388598Y0029990D02*
X0388598Y0029990D01*
X0385568Y0029990D02*
X0381063Y0029990D01*
X0388598Y0026791D02*
X0388598Y0026791D01*
X0388598Y0023593D02*
X0388598Y0023593D01*
X0388598Y0020394D02*
X0388598Y0020394D01*
X0388598Y0017196D02*
X0388598Y0017196D01*
X0378598Y0015100D02*
X0378598Y0025100D01*
X0401063Y0029990D02*
X0425489Y0029990D01*
X0425505Y0033188D02*
X0427822Y0033188D01*
X0424408Y0026791D02*
X0403798Y0026791D01*
X0403798Y0023593D02*
X0424248Y0023593D01*
X0424248Y0020394D02*
X0401246Y0020394D01*
X0403798Y0017196D02*
X0424749Y0017196D01*
X0426201Y0013997D02*
X0403798Y0013997D01*
X0401651Y0010799D02*
X0429200Y0010799D01*
X0447997Y0010799D02*
X0482258Y0010799D01*
X0482258Y0013997D02*
X0450996Y0013997D01*
X0452448Y0017196D02*
X0482258Y0017196D01*
X0482258Y0020394D02*
X0452948Y0020394D01*
X0452977Y0023593D02*
X0482258Y0023593D01*
X0482258Y0026791D02*
X0452599Y0026791D01*
X0451420Y0029990D02*
X0482258Y0029990D01*
X0482258Y0033188D02*
X0449037Y0033188D01*
X0443775Y0036387D02*
X0482258Y0036387D01*
X0425898Y0042784D02*
X0425853Y0042784D01*
X0423598Y0042784D02*
X0423598Y0042784D01*
X0421344Y0042784D02*
X0420698Y0042784D01*
X0423598Y0045982D02*
X0423598Y0045982D01*
X0384155Y0061975D02*
X0359291Y0061975D01*
X0361328Y0058776D02*
X0365869Y0058776D01*
X0363998Y0055578D02*
X0363198Y0055578D01*
X0371328Y0058776D02*
X0375869Y0058776D01*
X0373998Y0055578D02*
X0373198Y0055578D01*
X0351655Y0061975D02*
X0349291Y0061975D01*
X0341655Y0061975D02*
X0336298Y0061975D01*
X0336298Y0065173D02*
X0344853Y0065173D01*
X0345898Y0068372D02*
X0336298Y0068372D01*
X0351298Y0068372D02*
X0358052Y0068372D01*
X0354853Y0065173D02*
X0351298Y0065173D01*
X0362490Y0065173D02*
X0387353Y0065173D01*
X0390552Y0068372D02*
X0365688Y0068372D01*
X0343998Y0084364D02*
X0343198Y0084364D01*
X0342516Y0087563D02*
X0344681Y0087563D01*
X0335898Y0090761D02*
X0318798Y0090761D01*
X0318798Y0093960D02*
X0335898Y0093960D01*
X0332722Y0097158D02*
X0319548Y0097158D01*
X0318221Y0100357D02*
X0324590Y0100357D01*
X0323998Y0103555D02*
X0316298Y0103555D01*
X0316298Y0106754D02*
X0323998Y0106754D01*
X0324635Y0109952D02*
X0316298Y0109952D01*
X0317048Y0113151D02*
X0325898Y0113151D01*
X0366298Y0097158D02*
X0370898Y0097158D01*
X0373420Y0093960D02*
X0366298Y0093960D01*
X0366298Y0090761D02*
X0375898Y0090761D01*
X0437018Y0081166D02*
X0440179Y0081166D01*
X0440288Y0129143D02*
X0436909Y0129143D01*
X0430288Y0129143D02*
X0413198Y0129143D01*
X0403998Y0129143D02*
X0401547Y0129143D01*
X0403198Y0132342D02*
X0404335Y0132342D01*
X0418282Y0135540D02*
X0445898Y0135540D01*
X0451298Y0135540D02*
X0482258Y0135540D01*
X0482258Y0138739D02*
X0451769Y0138739D01*
X0451572Y0141937D02*
X0482258Y0141937D01*
X0482258Y0145136D02*
X0421598Y0145136D01*
X0421598Y0148334D02*
X0482258Y0148334D01*
X0482258Y0151533D02*
X0423198Y0151533D01*
X0422972Y0154732D02*
X0482258Y0154732D01*
X0482258Y0157930D02*
X0416098Y0157930D01*
X0411098Y0157930D02*
X0411098Y0157930D01*
X0411099Y0157600D02*
X0411099Y0157600D01*
X0411098Y0154732D02*
X0411098Y0154732D01*
X0406896Y0154732D02*
X0402135Y0154732D01*
X0402498Y0155094D02*
X0403198Y0156785D01*
X0403198Y0163415D01*
X0402498Y0165106D01*
X0401204Y0166400D01*
X0399513Y0167100D01*
X0397683Y0167100D01*
X0395993Y0166400D01*
X0394699Y0165106D01*
X0393998Y0163415D01*
X0393998Y0156785D01*
X0394699Y0155094D01*
X0395993Y0153800D01*
X0397683Y0153100D01*
X0399513Y0153100D01*
X0401204Y0153800D01*
X0402498Y0155094D01*
X0403198Y0157930D02*
X0406098Y0157930D01*
X0407556Y0161129D02*
X0403198Y0161129D01*
X0411098Y0161129D02*
X0411098Y0161129D01*
X0413998Y0164327D02*
X0402821Y0164327D01*
X0394376Y0164327D02*
X0392821Y0164327D01*
X0392498Y0165106D02*
X0391204Y0166400D01*
X0389513Y0167100D01*
X0387683Y0167100D01*
X0385993Y0166400D01*
X0384699Y0165106D01*
X0383998Y0163415D01*
X0383998Y0156785D01*
X0384699Y0155094D01*
X0385993Y0153800D01*
X0387683Y0153100D01*
X0389513Y0153100D01*
X0391204Y0153800D01*
X0392498Y0155094D01*
X0393198Y0156785D01*
X0393198Y0163415D01*
X0392498Y0165106D01*
X0393198Y0161129D02*
X0393998Y0161129D01*
X0393998Y0157930D02*
X0393198Y0157930D01*
X0392135Y0154732D02*
X0395062Y0154732D01*
X0385062Y0154732D02*
X0382622Y0154732D01*
X0381891Y0151533D02*
X0413998Y0151533D01*
X0415598Y0148334D02*
X0381298Y0148334D01*
X0381298Y0145136D02*
X0415598Y0145136D01*
X0421598Y0141937D02*
X0445625Y0141937D01*
X0445428Y0138739D02*
X0421282Y0138739D01*
X0383998Y0157930D02*
X0383598Y0157930D01*
X0383598Y0161129D02*
X0383998Y0161129D01*
X0378598Y0161129D02*
X0378598Y0161129D01*
X0378599Y0160100D02*
X0378599Y0160100D01*
X0378598Y0164327D02*
X0378598Y0164327D01*
X0376298Y0167526D02*
X0482258Y0167526D01*
X0482258Y0164327D02*
X0423198Y0164327D01*
X0423198Y0161129D02*
X0482258Y0161129D01*
X0482258Y0170724D02*
X0376298Y0170724D01*
X0376298Y0173923D02*
X0482258Y0173923D01*
X0482258Y0177121D02*
X0376298Y0177121D01*
X0376298Y0180320D02*
X0482258Y0180320D01*
X0482258Y0183518D02*
X0400523Y0183518D01*
X0396674Y0183518D02*
X0390523Y0183518D01*
X0386674Y0183518D02*
X0380523Y0183518D01*
X0376674Y0183518D02*
X0376298Y0183518D01*
X0383170Y0186717D02*
X0384027Y0186717D01*
X0383998Y0189915D02*
X0383198Y0189915D01*
X0383198Y0193114D02*
X0383998Y0193114D01*
X0393198Y0193114D02*
X0393998Y0193114D01*
X0393998Y0189915D02*
X0393198Y0189915D01*
X0393170Y0186717D02*
X0394027Y0186717D01*
X0403170Y0186717D02*
X0482258Y0186717D01*
X0482258Y0189915D02*
X0403198Y0189915D01*
X0403198Y0193114D02*
X0482258Y0193114D01*
X0384376Y0164327D02*
X0383262Y0164327D01*
X0318598Y0183518D02*
X0318598Y0183518D01*
X0318599Y0186600D02*
X0318599Y0186600D01*
X0318598Y0186717D02*
X0318598Y0186717D01*
X0318598Y0189915D02*
X0318598Y0189915D01*
X0314843Y0189915D02*
X0303198Y0189915D01*
X0301292Y0196312D02*
X0325340Y0196312D01*
X0328598Y0196312D02*
X0328598Y0196312D01*
X0331857Y0196312D02*
X0335905Y0196312D01*
X0341292Y0196312D02*
X0345340Y0196312D01*
X0348598Y0196312D02*
X0348598Y0196312D01*
X0351857Y0196312D02*
X0355905Y0196312D01*
X0361292Y0196312D02*
X0365905Y0196312D01*
X0295905Y0196312D02*
X0291292Y0196312D01*
X0285905Y0196312D02*
X0281292Y0196312D01*
X0281204Y0196400D02*
X0279513Y0197100D01*
X0277683Y0197100D01*
X0275993Y0196400D01*
X0274699Y0195106D01*
X0273998Y0193415D01*
X0273998Y0186785D01*
X0274699Y0185094D01*
X0275993Y0183800D01*
X0277683Y0183100D01*
X0279513Y0183100D01*
X0281204Y0183800D01*
X0282498Y0185094D01*
X0283198Y0186785D01*
X0283198Y0193415D01*
X0282498Y0195106D01*
X0281204Y0196400D01*
X0275905Y0196312D02*
X0271292Y0196312D01*
X0271204Y0196400D02*
X0269513Y0197100D01*
X0267683Y0197100D01*
X0265993Y0196400D01*
X0264699Y0195106D01*
X0263998Y0193415D01*
X0263998Y0186785D01*
X0264699Y0185094D01*
X0265993Y0183800D01*
X0267683Y0183100D01*
X0269513Y0183100D01*
X0271204Y0183800D01*
X0272498Y0185094D01*
X0273198Y0186785D01*
X0273198Y0193415D01*
X0272498Y0195106D01*
X0271204Y0196400D01*
X0265905Y0196312D02*
X0261292Y0196312D01*
X0261204Y0196400D02*
X0259513Y0197100D01*
X0257683Y0197100D01*
X0255993Y0196400D01*
X0254699Y0195106D01*
X0253998Y0193415D01*
X0253998Y0186785D01*
X0254699Y0185094D01*
X0255993Y0183800D01*
X0257683Y0183100D01*
X0259513Y0183100D01*
X0261204Y0183800D01*
X0262498Y0185094D01*
X0263198Y0186785D01*
X0263198Y0193415D01*
X0262498Y0195106D01*
X0261204Y0196400D01*
X0255905Y0196312D02*
X0251857Y0196312D01*
X0251856Y0196314D02*
X0251219Y0196776D01*
X0250518Y0197134D01*
X0249769Y0197377D01*
X0248992Y0197500D01*
X0248598Y0197500D01*
X0248205Y0197500D01*
X0247428Y0197377D01*
X0246679Y0197134D01*
X0245978Y0196776D01*
X0245341Y0196314D01*
X0244785Y0195757D01*
X0244322Y0195121D01*
X0243965Y0194419D01*
X0243722Y0193671D01*
X0243598Y0192894D01*
X0243598Y0190100D01*
X0243598Y0187306D01*
X0243722Y0186529D01*
X0243965Y0185781D01*
X0244322Y0185079D01*
X0244785Y0184443D01*
X0245341Y0183886D01*
X0245978Y0183424D01*
X0246679Y0183066D01*
X0247428Y0182823D01*
X0248205Y0182700D01*
X0248598Y0182700D01*
X0248598Y0190100D01*
X0243598Y0190100D01*
X0248598Y0190100D01*
X0248598Y0190100D01*
X0248598Y0197500D01*
X0248598Y0190100D01*
X0248598Y0190100D01*
X0248598Y0190100D01*
X0248598Y0182700D01*
X0248992Y0182700D01*
X0249769Y0182823D01*
X0250518Y0183066D01*
X0251219Y0183424D01*
X0251856Y0183886D01*
X0252412Y0184443D01*
X0252875Y0185079D01*
X0253232Y0185781D01*
X0253475Y0186529D01*
X0253598Y0187306D01*
X0253598Y0190100D01*
X0248599Y0190100D01*
X0253598Y0190100D01*
X0253598Y0192894D01*
X0253475Y0193671D01*
X0253232Y0194419D01*
X0252875Y0195121D01*
X0252412Y0195757D01*
X0251856Y0196314D01*
X0248598Y0196312D02*
X0248598Y0196312D01*
X0245340Y0196312D02*
X0241292Y0196312D01*
X0235905Y0196312D02*
X0231857Y0196312D01*
X0228598Y0196312D02*
X0228598Y0196312D01*
X0225340Y0196312D02*
X0203705Y0196312D01*
X0207939Y0193114D02*
X0209359Y0193114D01*
X0212838Y0193114D02*
X0223633Y0193114D01*
X0223598Y0189915D02*
X0214548Y0189915D01*
X0213798Y0186717D02*
X0223692Y0186717D01*
X0222251Y0183518D02*
X0225848Y0183518D01*
X0228598Y0183518D02*
X0228598Y0183518D01*
X0228598Y0186717D02*
X0228598Y0186717D01*
X0236298Y0183518D02*
X0236674Y0183518D01*
X0240523Y0183518D02*
X0245848Y0183518D01*
X0248598Y0183518D02*
X0248598Y0183518D01*
X0251349Y0183518D02*
X0256674Y0183518D01*
X0260523Y0183518D02*
X0266674Y0183518D01*
X0270523Y0183518D02*
X0276674Y0183518D01*
X0280523Y0183518D02*
X0286674Y0183518D01*
X0284027Y0186717D02*
X0283170Y0186717D01*
X0283198Y0189915D02*
X0283998Y0189915D01*
X0283998Y0193114D02*
X0283198Y0193114D01*
X0273998Y0193114D02*
X0273198Y0193114D01*
X0273198Y0189915D02*
X0273998Y0189915D01*
X0274027Y0186717D02*
X0273170Y0186717D01*
X0264027Y0186717D02*
X0263170Y0186717D01*
X0263198Y0189915D02*
X0263998Y0189915D01*
X0263998Y0193114D02*
X0263198Y0193114D01*
X0253998Y0193114D02*
X0253564Y0193114D01*
X0253598Y0189915D02*
X0253998Y0189915D01*
X0248598Y0189915D02*
X0248598Y0189915D01*
X0248599Y0190100D02*
X0248599Y0190100D01*
X0248598Y0193114D02*
X0248598Y0193114D01*
X0243633Y0193114D02*
X0243198Y0193114D01*
X0243198Y0189915D02*
X0243598Y0189915D01*
X0233998Y0189915D02*
X0233598Y0189915D01*
X0233564Y0193114D02*
X0233998Y0193114D01*
X0228598Y0193114D02*
X0228598Y0193114D01*
X0228599Y0190100D02*
X0228599Y0190100D01*
X0228598Y0189915D02*
X0228598Y0189915D01*
X0243170Y0186717D02*
X0243692Y0186717D01*
X0248598Y0186717D02*
X0248598Y0186717D01*
X0253505Y0186717D02*
X0254027Y0186717D01*
X0236298Y0177121D02*
X0294946Y0177121D01*
X0218599Y0180100D02*
X0218599Y0180100D01*
X0218598Y0180320D02*
X0218598Y0180320D01*
X0218598Y0183518D02*
X0218598Y0183518D01*
X0214946Y0183518D02*
X0213798Y0183518D01*
X0133598Y0106754D02*
X0133598Y0106754D01*
X0133599Y0105100D02*
X0133599Y0105100D01*
X0133598Y0103555D02*
X0133598Y0103555D01*
X0125898Y0106754D02*
X0108598Y0106754D01*
X0108598Y0103555D02*
X0110548Y0103555D01*
X0111693Y0104700D02*
X0108998Y0102005D01*
X0108998Y0098195D01*
X0111693Y0095500D01*
X0115504Y0095500D01*
X0118198Y0098195D01*
X0118198Y0102005D01*
X0115504Y0104700D01*
X0111693Y0104700D01*
X0116648Y0103555D02*
X0120548Y0103555D01*
X0118998Y0100357D02*
X0118198Y0100357D01*
X0117162Y0097158D02*
X0120035Y0097158D01*
X0110035Y0097158D02*
X0097162Y0097158D01*
X0098198Y0100357D02*
X0101271Y0100357D01*
X0103598Y0100357D02*
X0103598Y0100357D01*
X0105926Y0100357D02*
X0108998Y0100357D01*
X0103598Y0103555D02*
X0103598Y0103555D01*
X0103599Y0105100D02*
X0103599Y0105100D01*
X0103598Y0106754D02*
X0103598Y0106754D01*
X0075085Y0084364D02*
X0066198Y0084364D01*
X0066198Y0081166D02*
X0073098Y0081166D01*
X0073529Y0077967D02*
X0066198Y0077967D01*
X0118599Y0080100D02*
X0118599Y0080100D01*
X0124498Y0080100D01*
X0118599Y0080100D01*
X0118598Y0081166D02*
X0118598Y0081166D01*
X0124403Y0081166D02*
X0125898Y0081166D01*
X0125898Y0077967D02*
X0124109Y0077967D01*
X0125898Y0074769D02*
X0121131Y0074769D01*
X0119957Y0071570D02*
X0125898Y0071570D01*
X0131298Y0061975D02*
X0135275Y0061975D01*
X0145548Y0058776D02*
X0145648Y0058776D01*
X0155504Y0052379D02*
X0131298Y0052379D01*
X0131298Y0049181D02*
X0152305Y0049181D01*
X0151098Y0042600D02*
X0161098Y0052600D01*
X0164898Y0055578D02*
X0165898Y0055578D01*
X0165898Y0058776D02*
X0164898Y0058776D01*
X0171298Y0058776D02*
X0175898Y0058776D01*
X0181298Y0058776D02*
X0205898Y0058776D01*
X0211298Y0058776D02*
X0215769Y0058776D01*
X0213998Y0055578D02*
X0211298Y0055578D01*
X0200975Y0055578D02*
X0196222Y0055578D01*
X0196015Y0055784D02*
X0194447Y0056434D01*
X0192750Y0056434D01*
X0191181Y0055784D01*
X0189981Y0054584D01*
X0189331Y0053016D01*
X0189331Y0047184D01*
X0189981Y0045616D01*
X0191181Y0044416D01*
X0192750Y0043766D01*
X0194447Y0043766D01*
X0196015Y0044416D01*
X0197216Y0045616D01*
X0197865Y0047184D01*
X0197865Y0053016D01*
X0197216Y0054584D01*
X0196015Y0055784D01*
X0190975Y0055578D02*
X0186222Y0055578D01*
X0187865Y0052379D02*
X0189331Y0052379D01*
X0189331Y0049181D02*
X0187865Y0049181D01*
X0187367Y0045982D02*
X0189829Y0045982D01*
X0197367Y0045982D02*
X0199829Y0045982D01*
X0205898Y0042784D02*
X0180100Y0042784D01*
X0176902Y0039585D02*
X0201578Y0039585D01*
X0198998Y0036387D02*
X0178198Y0036387D01*
X0178192Y0033188D02*
X0199005Y0033188D01*
X0201693Y0029700D02*
X0198998Y0027005D01*
X0198998Y0023195D01*
X0201693Y0020500D01*
X0205504Y0020500D01*
X0208198Y0023195D01*
X0208198Y0027005D01*
X0205504Y0029700D01*
X0201693Y0029700D01*
X0208192Y0033188D02*
X0220898Y0033188D01*
X0220148Y0029990D02*
X0140027Y0029990D01*
X0136829Y0033188D02*
X0169005Y0033188D01*
X0178198Y0026791D02*
X0198998Y0026791D01*
X0198998Y0023593D02*
X0178198Y0023593D01*
X0157529Y0017196D02*
X0223398Y0017196D01*
X0225950Y0020394D02*
X0157085Y0020394D01*
X0141098Y0039585D02*
X0141098Y0039585D01*
X0141098Y0042784D02*
X0141098Y0042784D01*
X0141098Y0045982D02*
X0141098Y0045982D01*
X0135248Y0045982D02*
X0131298Y0045982D01*
X0131298Y0042784D02*
X0135248Y0042784D01*
X0125898Y0042784D02*
X0123636Y0042784D01*
X0123798Y0045982D02*
X0125898Y0045982D01*
X0125898Y0049181D02*
X0121872Y0049181D01*
X0123231Y0052379D02*
X0125898Y0052379D01*
X0108598Y0052379D02*
X0108598Y0052379D01*
X0108598Y0049181D02*
X0108598Y0049181D01*
X0108598Y0045982D02*
X0108598Y0045982D01*
X0108598Y0042784D02*
X0108598Y0042784D01*
X0098598Y0042784D02*
X0098598Y0042784D01*
X0098599Y0045100D02*
X0098599Y0045100D01*
X0098598Y0045982D02*
X0098598Y0045982D01*
X0098598Y0049181D02*
X0098598Y0049181D01*
X0098598Y0052379D02*
X0098598Y0052379D01*
X0088598Y0052379D02*
X0088598Y0052379D01*
X0088598Y0049181D02*
X0088598Y0049181D01*
X0088598Y0045982D02*
X0088598Y0045982D01*
X0088599Y0045100D02*
X0088599Y0045100D01*
X0088598Y0042784D02*
X0088598Y0042784D01*
X0131298Y0039585D02*
X0135248Y0039585D01*
X0197865Y0049181D02*
X0199331Y0049181D01*
X0199331Y0052379D02*
X0197865Y0052379D01*
X0211298Y0052379D02*
X0214814Y0052379D01*
X0211298Y0049181D02*
X0220898Y0049181D01*
X0220898Y0045982D02*
X0211298Y0045982D01*
X0211298Y0042784D02*
X0220898Y0042784D01*
X0220898Y0039585D02*
X0211298Y0039585D01*
X0208703Y0036387D02*
X0220898Y0036387D01*
X0222572Y0026791D02*
X0208198Y0026791D01*
X0208198Y0023593D02*
X0223398Y0023593D01*
X0263155Y0049181D02*
X0264042Y0049181D01*
X0263998Y0052379D02*
X0263198Y0052379D01*
X0263198Y0055578D02*
X0263998Y0055578D01*
X0265869Y0058776D02*
X0261328Y0058776D01*
X0256298Y0061975D02*
X0270898Y0061975D01*
X0270898Y0065173D02*
X0256298Y0065173D01*
X0256298Y0068372D02*
X0270898Y0068372D01*
X0282653Y0077967D02*
X0284544Y0077967D01*
X0283998Y0081166D02*
X0283198Y0081166D01*
X0283198Y0084364D02*
X0283998Y0084364D01*
X0284681Y0087563D02*
X0282516Y0087563D01*
X0178052Y0068372D02*
X0171298Y0068372D01*
X0171298Y0065173D02*
X0175898Y0065173D01*
X0165898Y0065173D02*
X0164898Y0065173D01*
X0164898Y0068372D02*
X0165898Y0068372D01*
X0157298Y0065173D02*
X0156548Y0065173D01*
D24*
X0288598Y0052600D02*
X0298598Y0042600D01*
X0298598Y0025100D01*
D25*
X0278598Y0035100D03*
D26*
X0161098Y0095100D03*
M02*
