G75*
%MOIN*%
%OFA0B0*%
%FSLAX25Y25*%
%IPPOS*%
%LPD*%
%AMOC8*
5,1,8,0,0,1.08239X$1,22.5*
%
%ADD10C,0.00300*%
%ADD11C,0.00200*%
%ADD12C,0.00600*%
%ADD13C,0.00500*%
%ADD14C,0.02000*%
%ADD15C,0.00900*%
%ADD16C,0.00400*%
%ADD17C,0.01200*%
D10*
X0126248Y0042750D02*
X0129451Y0042750D01*
X0129451Y0044351D01*
X0128917Y0044885D01*
X0127850Y0044885D01*
X0127316Y0044351D01*
X0127316Y0042750D01*
X0126782Y0045973D02*
X0126248Y0046507D01*
X0126248Y0047574D01*
X0126782Y0048108D01*
X0128917Y0048108D01*
X0129451Y0047574D01*
X0129451Y0046507D01*
X0128917Y0045973D01*
X0126782Y0045973D01*
X0126248Y0049195D02*
X0127316Y0050263D01*
X0126248Y0051331D01*
X0129451Y0051331D01*
X0129451Y0052418D02*
X0126248Y0052418D01*
X0126248Y0054553D01*
X0126248Y0055641D02*
X0129451Y0055641D01*
X0129451Y0057242D01*
X0128917Y0057776D01*
X0127850Y0057776D01*
X0127316Y0057242D01*
X0127316Y0055641D01*
X0127316Y0056709D02*
X0126248Y0057776D01*
X0129451Y0054553D02*
X0129451Y0052418D01*
X0127850Y0052418D02*
X0127850Y0053486D01*
X0129451Y0049195D02*
X0126248Y0049195D01*
X0458748Y0050209D02*
X0458748Y0047740D01*
X0461217Y0050209D01*
X0461834Y0050209D01*
X0462452Y0049591D01*
X0462452Y0048357D01*
X0461834Y0047740D01*
X0464748Y0047126D02*
X0467217Y0047126D01*
X0467217Y0048978D01*
X0466600Y0049595D01*
X0464748Y0049595D01*
X0462452Y0052040D02*
X0462452Y0053275D01*
X0461834Y0053892D01*
X0459366Y0051423D01*
X0458748Y0052040D01*
X0458748Y0053275D01*
X0459366Y0053892D01*
X0461834Y0053892D01*
X0461217Y0055106D02*
X0462452Y0056341D01*
X0458748Y0056341D01*
X0458748Y0057575D02*
X0458748Y0055106D01*
X0459366Y0058789D02*
X0458748Y0059406D01*
X0458748Y0060641D01*
X0459366Y0061258D01*
X0460600Y0061258D01*
X0461217Y0060641D01*
X0461217Y0060024D01*
X0460600Y0058789D01*
X0462452Y0058789D01*
X0462452Y0061258D01*
X0464748Y0061859D02*
X0467217Y0061859D01*
X0467217Y0063093D02*
X0467217Y0063710D01*
X0467217Y0063093D02*
X0465983Y0061859D01*
X0465983Y0060644D02*
X0465983Y0058175D01*
X0465366Y0058175D02*
X0466600Y0058175D01*
X0467217Y0058793D01*
X0467217Y0060027D01*
X0466600Y0060644D01*
X0465983Y0060644D01*
X0464748Y0060027D02*
X0464748Y0058793D01*
X0465366Y0058175D01*
X0464748Y0056961D02*
X0468452Y0056961D01*
X0466600Y0056961D02*
X0466600Y0054492D01*
X0464748Y0054492D02*
X0468452Y0054492D01*
X0469514Y0053878D02*
X0473217Y0053878D01*
X0473217Y0055730D01*
X0472600Y0056347D01*
X0471366Y0056347D01*
X0470748Y0055730D01*
X0470748Y0053878D01*
X0470748Y0052664D02*
X0470748Y0050812D01*
X0471366Y0050195D01*
X0473217Y0050195D01*
X0473217Y0048974D02*
X0473217Y0047740D01*
X0473834Y0048357D02*
X0471366Y0048357D01*
X0470748Y0048974D01*
X0471366Y0046525D02*
X0472600Y0046525D01*
X0473217Y0045908D01*
X0473217Y0044674D01*
X0472600Y0044057D01*
X0471366Y0044057D01*
X0470748Y0044674D01*
X0470748Y0045908D01*
X0471366Y0046525D01*
X0469069Y0045288D02*
X0468452Y0045288D01*
X0467217Y0045288D02*
X0464748Y0045288D01*
X0464748Y0044671D02*
X0464748Y0045905D01*
X0467217Y0045288D02*
X0467217Y0044671D01*
X0470748Y0042836D02*
X0471366Y0042218D01*
X0473834Y0042218D01*
X0473217Y0041601D02*
X0473217Y0042836D01*
X0472600Y0040387D02*
X0471366Y0040387D01*
X0470748Y0039770D01*
X0470748Y0038535D01*
X0471366Y0037918D01*
X0472600Y0037918D01*
X0473217Y0038535D01*
X0473217Y0039770D01*
X0472600Y0040387D01*
X0476748Y0040987D02*
X0476748Y0042222D01*
X0476748Y0041605D02*
X0479217Y0041605D01*
X0479217Y0040987D01*
X0478600Y0039773D02*
X0476748Y0039773D01*
X0478600Y0039773D02*
X0479217Y0039156D01*
X0479217Y0037921D01*
X0478600Y0037304D01*
X0480452Y0037304D02*
X0476748Y0037304D01*
X0476748Y0034856D02*
X0480452Y0034856D01*
X0480452Y0036090D02*
X0480452Y0033621D01*
X0474452Y0033017D02*
X0474452Y0031166D01*
X0470748Y0031166D01*
X0471983Y0031166D02*
X0471983Y0033017D01*
X0472600Y0033634D01*
X0473834Y0033634D01*
X0474452Y0033017D01*
X0473217Y0034849D02*
X0470748Y0034849D01*
X0471983Y0034849D02*
X0473217Y0036083D01*
X0473217Y0036700D01*
X0468452Y0039773D02*
X0464748Y0039773D01*
X0464748Y0037921D01*
X0465366Y0037304D01*
X0466600Y0037304D01*
X0467217Y0037921D01*
X0467217Y0039773D01*
X0466600Y0036090D02*
X0465983Y0036090D01*
X0465983Y0033621D01*
X0465366Y0033621D02*
X0466600Y0033621D01*
X0467217Y0034238D01*
X0467217Y0035473D01*
X0466600Y0036090D01*
X0464748Y0035473D02*
X0464748Y0034238D01*
X0465366Y0033621D01*
X0464748Y0032407D02*
X0466600Y0032407D01*
X0467217Y0031790D01*
X0467217Y0029938D01*
X0464748Y0029938D01*
X0464748Y0028724D02*
X0464748Y0026872D01*
X0465366Y0026255D01*
X0466600Y0026255D01*
X0467217Y0026872D01*
X0467217Y0028724D01*
X0464131Y0028724D01*
X0463514Y0028106D01*
X0463514Y0027489D01*
X0461217Y0026872D02*
X0461217Y0028106D01*
X0460600Y0028724D01*
X0459983Y0028724D01*
X0459983Y0026255D01*
X0460600Y0026255D02*
X0461217Y0026872D01*
X0460600Y0026255D02*
X0459366Y0026255D01*
X0458748Y0026872D01*
X0458748Y0028106D01*
X0458748Y0029938D02*
X0461217Y0029938D01*
X0461217Y0030555D01*
X0460600Y0031172D01*
X0461217Y0031790D01*
X0460600Y0032407D01*
X0458748Y0032407D01*
X0458748Y0033621D02*
X0458748Y0035473D01*
X0459366Y0036090D01*
X0460600Y0036090D01*
X0461217Y0035473D01*
X0461217Y0033621D01*
X0462452Y0033621D02*
X0458748Y0033621D01*
X0458748Y0031172D02*
X0460600Y0031172D01*
X0470748Y0025651D02*
X0474452Y0025651D01*
X0472600Y0023799D01*
X0472600Y0026268D01*
X0469069Y0024417D02*
X0468452Y0024417D01*
X0467217Y0024417D02*
X0464748Y0024417D01*
X0464748Y0025034D02*
X0464748Y0023799D01*
X0465366Y0022585D02*
X0465983Y0021968D01*
X0465983Y0020733D01*
X0466600Y0020116D01*
X0467217Y0020733D01*
X0467217Y0022585D01*
X0467217Y0023799D02*
X0467217Y0024417D01*
X0465366Y0022585D02*
X0464748Y0021968D01*
X0464748Y0020116D01*
X0465983Y0018902D02*
X0465983Y0016433D01*
X0465366Y0016433D02*
X0466600Y0016433D01*
X0467217Y0017050D01*
X0467217Y0018285D01*
X0466600Y0018902D01*
X0465983Y0018902D01*
X0464748Y0018285D02*
X0464748Y0017050D01*
X0465366Y0016433D01*
X0465366Y0015219D02*
X0467834Y0015219D01*
X0468452Y0014602D01*
X0468452Y0012750D01*
X0464748Y0012750D01*
X0464748Y0014602D01*
X0465366Y0015219D01*
X0462452Y0014602D02*
X0461834Y0015219D01*
X0462452Y0014602D02*
X0462452Y0013367D01*
X0461834Y0012750D01*
X0461217Y0012750D01*
X0460600Y0013367D01*
X0460600Y0014602D01*
X0459983Y0015219D01*
X0459366Y0015219D01*
X0458748Y0014602D01*
X0458748Y0013367D01*
X0459366Y0012750D01*
X0459366Y0016433D02*
X0460600Y0016433D01*
X0461217Y0017050D01*
X0461217Y0018285D01*
X0460600Y0018902D01*
X0459983Y0018902D01*
X0459983Y0016433D01*
X0459366Y0016433D02*
X0458748Y0017050D01*
X0458748Y0018285D01*
X0458748Y0020116D02*
X0458748Y0021968D01*
X0459366Y0022585D01*
X0460600Y0022585D01*
X0461217Y0021968D01*
X0461217Y0020116D01*
X0457514Y0020116D01*
X0459366Y0024417D02*
X0458748Y0025034D01*
X0459366Y0024417D02*
X0461834Y0024417D01*
X0461217Y0025034D02*
X0461217Y0023799D01*
X0470748Y0021351D02*
X0473217Y0022585D01*
X0473217Y0020116D02*
X0470748Y0021351D01*
X0476748Y0021968D02*
X0476748Y0020116D01*
X0476748Y0018902D02*
X0479217Y0018902D01*
X0478600Y0020116D02*
X0479217Y0020733D01*
X0479217Y0022585D01*
X0479217Y0023799D02*
X0479217Y0024417D01*
X0476748Y0024417D01*
X0476748Y0025034D02*
X0476748Y0023799D01*
X0477366Y0022585D02*
X0476748Y0021968D01*
X0477366Y0022585D02*
X0477983Y0021968D01*
X0477983Y0020733D01*
X0478600Y0020116D01*
X0476748Y0018902D02*
X0476748Y0017050D01*
X0477366Y0016433D01*
X0479217Y0016433D01*
X0480452Y0015219D02*
X0476748Y0015219D01*
X0474452Y0014602D02*
X0473834Y0015219D01*
X0472600Y0015219D01*
X0471983Y0014602D01*
X0471983Y0012750D01*
X0471983Y0013984D02*
X0470748Y0015219D01*
X0471366Y0016433D02*
X0472600Y0016433D01*
X0473217Y0017050D01*
X0473217Y0018285D01*
X0472600Y0018902D01*
X0471983Y0018902D01*
X0471983Y0016433D01*
X0471366Y0016433D02*
X0470748Y0017050D01*
X0470748Y0018285D01*
X0474452Y0014602D02*
X0474452Y0012750D01*
X0470748Y0012750D01*
X0476748Y0012750D02*
X0480452Y0012750D01*
X0479217Y0013984D01*
X0480452Y0015219D01*
X0480452Y0024417D02*
X0481069Y0024417D01*
X0479217Y0026872D02*
X0478600Y0026255D01*
X0477366Y0026255D01*
X0476748Y0026872D01*
X0476748Y0028724D01*
X0479217Y0028724D02*
X0479217Y0026872D01*
X0461217Y0037921D02*
X0460600Y0037304D01*
X0459366Y0037304D01*
X0458748Y0037921D01*
X0458748Y0039156D01*
X0459983Y0039773D02*
X0459983Y0037304D01*
X0461217Y0037921D02*
X0461217Y0039156D01*
X0460600Y0039773D01*
X0459983Y0039773D01*
X0459983Y0040987D02*
X0461217Y0042222D01*
X0461217Y0042839D01*
X0461217Y0040987D02*
X0458748Y0040987D01*
X0476748Y0043443D02*
X0479217Y0043443D01*
X0479217Y0045294D01*
X0478600Y0045912D01*
X0476748Y0045912D01*
X0477366Y0047126D02*
X0476748Y0047743D01*
X0476748Y0049595D01*
X0476131Y0049595D02*
X0479217Y0049595D01*
X0479217Y0047743D01*
X0478600Y0047126D01*
X0477366Y0047126D01*
X0475514Y0048360D02*
X0475514Y0048978D01*
X0476131Y0049595D01*
X0470131Y0052664D02*
X0469514Y0052047D01*
X0469514Y0051430D01*
X0470131Y0052664D02*
X0473217Y0052664D01*
X0476748Y0054492D02*
X0480452Y0054492D01*
X0479217Y0055727D01*
X0480452Y0056961D01*
X0476748Y0056961D01*
X0477366Y0058175D02*
X0476748Y0058793D01*
X0476748Y0060027D01*
X0477366Y0060644D01*
X0478600Y0060644D01*
X0479217Y0060027D01*
X0479217Y0058793D01*
X0478600Y0058175D01*
X0477366Y0058175D01*
X0473217Y0058179D02*
X0473217Y0059413D01*
X0472600Y0060030D01*
X0471983Y0060030D01*
X0471983Y0057562D01*
X0472600Y0057562D02*
X0473217Y0058179D01*
X0472600Y0057562D02*
X0471366Y0057562D01*
X0470748Y0058179D01*
X0470748Y0059413D01*
X0476748Y0062476D02*
X0477366Y0061859D01*
X0478600Y0061859D01*
X0479217Y0062476D01*
X0479217Y0064327D01*
X0479217Y0065542D02*
X0477366Y0065542D01*
X0476748Y0066159D01*
X0476748Y0068011D01*
X0479217Y0068011D01*
X0480452Y0069225D02*
X0480452Y0069842D01*
X0476748Y0069842D01*
X0476748Y0069225D02*
X0476748Y0070459D01*
X0477366Y0071680D02*
X0476748Y0072297D01*
X0476748Y0074149D01*
X0478600Y0074149D01*
X0479217Y0073532D01*
X0479217Y0072297D01*
X0477983Y0072297D02*
X0477983Y0074149D01*
X0477983Y0075363D02*
X0479217Y0076598D01*
X0479217Y0077215D01*
X0479217Y0075363D02*
X0476748Y0075363D01*
X0474452Y0074146D02*
X0473834Y0074763D01*
X0473217Y0074763D01*
X0472600Y0074146D01*
X0472600Y0072294D01*
X0470748Y0072294D02*
X0474452Y0072294D01*
X0474452Y0074146D01*
X0472600Y0074146D02*
X0471983Y0074763D01*
X0471366Y0074763D01*
X0470748Y0074146D01*
X0470748Y0072294D01*
X0467217Y0070463D02*
X0466600Y0071080D01*
X0465983Y0071080D01*
X0465983Y0068611D01*
X0465366Y0068611D02*
X0466600Y0068611D01*
X0467217Y0069228D01*
X0467217Y0070463D01*
X0464748Y0070463D02*
X0464748Y0069228D01*
X0465366Y0068611D01*
X0464748Y0067397D02*
X0466600Y0067397D01*
X0467217Y0066779D01*
X0467217Y0064928D01*
X0464748Y0064928D01*
X0462452Y0066773D02*
X0461834Y0066156D01*
X0459366Y0066156D01*
X0458748Y0066773D01*
X0458748Y0068007D01*
X0459366Y0068624D01*
X0459366Y0069839D02*
X0458748Y0070456D01*
X0458748Y0071690D01*
X0459366Y0072308D01*
X0460600Y0073522D02*
X0460600Y0075991D01*
X0460600Y0077205D02*
X0460600Y0079057D01*
X0459983Y0079674D01*
X0459366Y0079674D01*
X0458748Y0079057D01*
X0458748Y0077205D01*
X0462452Y0077205D01*
X0462452Y0079057D01*
X0461834Y0079674D01*
X0461217Y0079674D01*
X0460600Y0079057D01*
X0461834Y0080888D02*
X0460600Y0082123D01*
X0458748Y0082123D01*
X0460600Y0082123D02*
X0461834Y0083357D01*
X0462452Y0083357D01*
X0460600Y0084571D02*
X0460600Y0087040D01*
X0461217Y0088254D02*
X0460600Y0088872D01*
X0460600Y0090106D01*
X0459983Y0090723D01*
X0459366Y0090723D01*
X0458748Y0090106D01*
X0458748Y0088872D01*
X0459366Y0088254D01*
X0461217Y0088254D02*
X0461834Y0088254D01*
X0462452Y0088872D01*
X0462452Y0090106D01*
X0461834Y0090723D01*
X0461217Y0091938D02*
X0462452Y0093172D01*
X0461217Y0094406D01*
X0458748Y0094406D01*
X0460600Y0094406D02*
X0460600Y0091938D01*
X0461217Y0091938D02*
X0458748Y0091938D01*
X0464748Y0093165D02*
X0464748Y0095634D01*
X0465366Y0096848D02*
X0464748Y0097466D01*
X0464748Y0098700D01*
X0465366Y0099317D01*
X0466600Y0099317D01*
X0467217Y0098700D01*
X0467217Y0097466D01*
X0466600Y0096848D01*
X0465366Y0096848D01*
X0464748Y0100532D02*
X0467217Y0100532D01*
X0467217Y0102383D01*
X0466600Y0103000D01*
X0464748Y0103000D01*
X0465366Y0104215D02*
X0466600Y0104215D01*
X0467217Y0104832D01*
X0467217Y0106684D01*
X0468452Y0106684D02*
X0464748Y0106684D01*
X0464748Y0104832D01*
X0465366Y0104215D01*
X0470748Y0104832D02*
X0470748Y0106684D01*
X0474452Y0106684D01*
X0473217Y0106684D02*
X0473217Y0104832D01*
X0472600Y0104215D01*
X0471366Y0104215D01*
X0470748Y0104832D01*
X0473217Y0102997D02*
X0473217Y0102380D01*
X0471983Y0101145D01*
X0471983Y0099931D02*
X0471983Y0098079D01*
X0471366Y0097462D01*
X0470748Y0098079D01*
X0470748Y0099931D01*
X0472600Y0099931D01*
X0473217Y0099314D01*
X0473217Y0098079D01*
X0472600Y0096248D02*
X0471366Y0096248D01*
X0470748Y0095631D01*
X0470748Y0094396D01*
X0471366Y0093779D01*
X0472600Y0093779D01*
X0473217Y0094396D01*
X0473217Y0095631D01*
X0472600Y0096248D01*
X0471983Y0092565D02*
X0471366Y0092565D01*
X0470748Y0091948D01*
X0470748Y0090096D01*
X0474452Y0090096D01*
X0474452Y0091948D01*
X0473834Y0092565D01*
X0473217Y0092565D01*
X0472600Y0091948D01*
X0472600Y0090096D01*
X0472600Y0091948D02*
X0471983Y0092565D01*
X0468452Y0093165D02*
X0464748Y0093165D01*
X0476748Y0093169D02*
X0479217Y0093169D01*
X0479217Y0092551D01*
X0479217Y0091334D02*
X0479217Y0090717D01*
X0477983Y0089482D01*
X0479217Y0089482D02*
X0476748Y0089482D01*
X0476748Y0088268D02*
X0479217Y0088268D01*
X0476748Y0088268D02*
X0476748Y0086416D01*
X0477366Y0085799D01*
X0479217Y0085799D01*
X0480452Y0084585D02*
X0480452Y0082116D01*
X0480452Y0083350D02*
X0476748Y0083350D01*
X0474452Y0083344D02*
X0470748Y0083344D01*
X0470748Y0082129D02*
X0470748Y0080278D01*
X0471366Y0079660D01*
X0472600Y0079660D01*
X0473217Y0080278D01*
X0473217Y0082129D01*
X0471983Y0083344D02*
X0473217Y0085195D01*
X0471983Y0083344D02*
X0470748Y0085195D01*
X0468452Y0085188D02*
X0464748Y0085188D01*
X0464748Y0084571D02*
X0464748Y0085806D01*
X0463514Y0087027D02*
X0464748Y0088261D01*
X0464748Y0087644D01*
X0465366Y0087644D01*
X0465366Y0088261D01*
X0464748Y0088261D01*
X0468452Y0085188D02*
X0468452Y0084571D01*
X0468452Y0082733D02*
X0464748Y0082733D01*
X0464748Y0082116D02*
X0464748Y0083350D01*
X0464748Y0080895D02*
X0464748Y0079660D01*
X0464748Y0080278D02*
X0467217Y0080278D01*
X0467217Y0079660D01*
X0466600Y0078446D02*
X0466600Y0075977D01*
X0464748Y0075977D02*
X0468452Y0075977D01*
X0470748Y0076594D02*
X0471366Y0075977D01*
X0471983Y0076594D01*
X0471983Y0078446D01*
X0472600Y0078446D02*
X0470748Y0078446D01*
X0470748Y0076594D01*
X0473217Y0076594D02*
X0473217Y0077829D01*
X0472600Y0078446D01*
X0469069Y0080278D02*
X0468452Y0080278D01*
X0468452Y0078446D02*
X0464748Y0078446D01*
X0462452Y0080888D02*
X0461834Y0080888D01*
X0468452Y0082116D02*
X0468452Y0082733D01*
X0461834Y0072308D02*
X0462452Y0071690D01*
X0462452Y0070456D01*
X0461834Y0069839D01*
X0459366Y0069839D01*
X0461834Y0068624D02*
X0462452Y0068007D01*
X0462452Y0066773D01*
X0470748Y0066162D02*
X0474452Y0066162D01*
X0473217Y0064928D01*
X0470748Y0064928D02*
X0470748Y0067397D01*
X0476748Y0064327D02*
X0476748Y0062476D01*
X0476748Y0064327D02*
X0480452Y0064327D01*
X0477366Y0071680D02*
X0477983Y0072297D01*
X0476748Y0092551D02*
X0476748Y0093786D01*
X0476748Y0095007D02*
X0479217Y0095007D01*
X0479217Y0096858D01*
X0478600Y0097476D01*
X0476748Y0097476D01*
X0477366Y0098690D02*
X0476748Y0099307D01*
X0476748Y0101159D01*
X0476131Y0101159D02*
X0479217Y0101159D01*
X0479217Y0099307D01*
X0478600Y0098690D01*
X0477366Y0098690D01*
X0475514Y0099924D02*
X0475514Y0100542D01*
X0476131Y0101159D01*
X0473217Y0101145D02*
X0470748Y0101145D01*
X0476748Y0106056D02*
X0480452Y0106056D01*
X0479217Y0107291D01*
X0480452Y0108525D01*
X0476748Y0108525D01*
X0477366Y0109739D02*
X0476748Y0110357D01*
X0476748Y0112208D01*
X0478600Y0112208D01*
X0479217Y0111591D01*
X0479217Y0110357D01*
X0477983Y0110357D02*
X0477983Y0112208D01*
X0478600Y0113423D02*
X0477366Y0113423D01*
X0476748Y0114040D01*
X0476748Y0115891D01*
X0476748Y0117106D02*
X0480452Y0117106D01*
X0479217Y0117723D02*
X0478600Y0117106D01*
X0479217Y0117723D02*
X0479217Y0118957D01*
X0478600Y0119575D01*
X0476748Y0119575D01*
X0476748Y0120789D02*
X0476748Y0122023D01*
X0476748Y0121406D02*
X0479217Y0121406D01*
X0479217Y0120789D01*
X0480452Y0121406D02*
X0481069Y0121406D01*
X0479217Y0123244D02*
X0476748Y0123244D01*
X0476748Y0125713D02*
X0478600Y0125713D01*
X0479217Y0125096D01*
X0479217Y0123244D01*
X0478600Y0126927D02*
X0479217Y0127545D01*
X0479217Y0128779D01*
X0478600Y0129396D01*
X0477983Y0129396D01*
X0477983Y0126927D01*
X0477366Y0126927D02*
X0478600Y0126927D01*
X0477366Y0126927D02*
X0476748Y0127545D01*
X0476748Y0128779D01*
X0468452Y0129997D02*
X0468452Y0132466D01*
X0468452Y0131231D02*
X0464748Y0131231D01*
X0465366Y0133680D02*
X0464748Y0134297D01*
X0464748Y0135531D01*
X0465366Y0136149D01*
X0466600Y0136149D01*
X0467217Y0135531D01*
X0467217Y0134297D01*
X0466600Y0133680D01*
X0465366Y0133680D01*
X0464748Y0137363D02*
X0467217Y0137363D01*
X0467217Y0137980D01*
X0466600Y0138597D01*
X0467217Y0139215D01*
X0466600Y0139832D01*
X0464748Y0139832D01*
X0464748Y0138597D02*
X0466600Y0138597D01*
X0464748Y0144729D02*
X0465983Y0145964D01*
X0464748Y0147198D01*
X0468452Y0147198D01*
X0468452Y0148412D02*
X0464748Y0148412D01*
X0466600Y0148412D02*
X0467217Y0149030D01*
X0467217Y0150264D01*
X0466600Y0150881D01*
X0464748Y0150881D01*
X0464748Y0152096D02*
X0464748Y0153330D01*
X0464748Y0152713D02*
X0467217Y0152713D01*
X0467217Y0152096D01*
X0468452Y0152713D02*
X0469069Y0152713D01*
X0467217Y0154551D02*
X0467217Y0155785D01*
X0467834Y0155168D02*
X0465366Y0155168D01*
X0464748Y0155785D01*
X0465366Y0157006D02*
X0464748Y0157624D01*
X0465366Y0158241D01*
X0464748Y0158858D01*
X0465366Y0159475D01*
X0467217Y0159475D01*
X0466600Y0160690D02*
X0465366Y0160690D01*
X0464748Y0161307D01*
X0464748Y0162541D01*
X0465983Y0163158D02*
X0465983Y0160690D01*
X0466600Y0160690D02*
X0467217Y0161307D01*
X0467217Y0162541D01*
X0466600Y0163158D01*
X0465983Y0163158D01*
X0464748Y0164373D02*
X0464748Y0165607D01*
X0464748Y0164990D02*
X0468452Y0164990D01*
X0468452Y0164373D01*
X0468452Y0166828D02*
X0468452Y0167445D01*
X0464748Y0167445D01*
X0464748Y0166828D02*
X0464748Y0168063D01*
X0465366Y0157006D02*
X0467217Y0157006D01*
X0468452Y0144729D02*
X0464748Y0144729D01*
X0464748Y0125099D02*
X0464748Y0123248D01*
X0465366Y0122630D01*
X0467217Y0122630D01*
X0467217Y0121416D02*
X0466600Y0120799D01*
X0466600Y0118947D01*
X0464748Y0118947D02*
X0468452Y0118947D01*
X0468452Y0120799D01*
X0467834Y0121416D01*
X0467217Y0121416D01*
X0466600Y0120799D02*
X0465983Y0121416D01*
X0465366Y0121416D01*
X0464748Y0120799D01*
X0464748Y0118947D01*
X0464748Y0114050D02*
X0466600Y0114050D01*
X0467217Y0113433D01*
X0467217Y0111581D01*
X0464748Y0111581D01*
X0465366Y0110367D02*
X0466600Y0110367D01*
X0467217Y0109749D01*
X0467217Y0108515D01*
X0466600Y0107898D01*
X0465366Y0107898D01*
X0464748Y0108515D01*
X0464748Y0109749D01*
X0465366Y0110367D01*
X0477366Y0109739D02*
X0477983Y0110357D01*
X0478600Y0113423D02*
X0479217Y0114040D01*
X0479217Y0115891D01*
X0463514Y0123865D02*
X0463514Y0124482D01*
X0464131Y0125099D01*
X0467217Y0125099D01*
X0480452Y0093169D02*
X0481069Y0093169D01*
X0462452Y0052040D02*
X0461834Y0051423D01*
X0459366Y0051423D01*
X0480452Y0041605D02*
X0481069Y0041605D01*
D11*
X0332708Y0041545D02*
X0318358Y0041545D01*
X0319305Y0041744D02*
X0332708Y0041744D01*
X0332708Y0041942D02*
X0320253Y0041942D01*
X0321201Y0042141D02*
X0332708Y0042141D01*
X0332708Y0042339D02*
X0322149Y0042339D01*
X0322628Y0042440D02*
X0309308Y0039650D01*
X0295988Y0036860D01*
X0282668Y0034070D01*
X0282668Y0026780D01*
X0295988Y0023990D01*
X0309308Y0021200D01*
X0322628Y0018410D01*
X0322628Y0018320D01*
X0282668Y0018320D01*
X0282668Y0009680D01*
X0332708Y0009680D01*
X0332708Y0023720D01*
X0320918Y0025970D01*
X0309128Y0028220D01*
X0297338Y0030470D01*
X0297338Y0030560D01*
X0309128Y0032810D01*
X0320918Y0035060D01*
X0332708Y0037310D01*
X0332708Y0051260D01*
X0282668Y0051260D01*
X0282668Y0042620D01*
X0322628Y0042620D01*
X0322628Y0042440D01*
X0322628Y0042538D02*
X0332708Y0042538D01*
X0332708Y0042737D02*
X0282668Y0042737D01*
X0282668Y0042935D02*
X0332708Y0042935D01*
X0332708Y0043134D02*
X0282668Y0043134D01*
X0282668Y0043332D02*
X0332708Y0043332D01*
X0332708Y0043531D02*
X0282668Y0043531D01*
X0282668Y0043729D02*
X0332708Y0043729D01*
X0332708Y0043928D02*
X0282668Y0043928D01*
X0282668Y0044126D02*
X0332708Y0044126D01*
X0332708Y0044325D02*
X0282668Y0044325D01*
X0282668Y0044523D02*
X0332708Y0044523D01*
X0332708Y0044722D02*
X0282668Y0044722D01*
X0282668Y0044920D02*
X0332708Y0044920D01*
X0332708Y0045119D02*
X0282668Y0045119D01*
X0282668Y0045317D02*
X0332708Y0045317D01*
X0332708Y0045516D02*
X0282668Y0045516D01*
X0282668Y0045714D02*
X0332708Y0045714D01*
X0332708Y0045913D02*
X0282668Y0045913D01*
X0282668Y0046111D02*
X0332708Y0046111D01*
X0332708Y0046310D02*
X0282668Y0046310D01*
X0282668Y0046508D02*
X0332708Y0046508D01*
X0332708Y0046707D02*
X0282668Y0046707D01*
X0282668Y0046905D02*
X0332708Y0046905D01*
X0332708Y0047104D02*
X0282668Y0047104D01*
X0282668Y0047302D02*
X0332708Y0047302D01*
X0332708Y0047501D02*
X0282668Y0047501D01*
X0282668Y0047699D02*
X0332708Y0047699D01*
X0332708Y0047898D02*
X0282668Y0047898D01*
X0282668Y0048096D02*
X0332708Y0048096D01*
X0332708Y0048295D02*
X0282668Y0048295D01*
X0282668Y0048493D02*
X0332708Y0048493D01*
X0332708Y0048692D02*
X0282668Y0048692D01*
X0282668Y0048890D02*
X0332708Y0048890D01*
X0332708Y0049089D02*
X0282668Y0049089D01*
X0282668Y0049287D02*
X0332708Y0049287D01*
X0332708Y0049486D02*
X0282668Y0049486D01*
X0282668Y0049684D02*
X0332708Y0049684D01*
X0332708Y0049883D02*
X0282668Y0049883D01*
X0282668Y0050081D02*
X0332708Y0050081D01*
X0332708Y0050280D02*
X0282668Y0050280D01*
X0282668Y0050478D02*
X0332708Y0050478D01*
X0332708Y0050677D02*
X0282668Y0050677D01*
X0282668Y0050875D02*
X0332708Y0050875D01*
X0332708Y0051074D02*
X0282668Y0051074D01*
X0278798Y0048470D02*
X0278708Y0048290D01*
X0262508Y0048290D01*
X0262508Y0048470D01*
X0264668Y0050000D01*
X0266198Y0051890D01*
X0267098Y0054230D01*
X0267368Y0057020D01*
X0267188Y0059090D01*
X0266738Y0060890D01*
X0265928Y0062420D01*
X0264848Y0063680D01*
X0263408Y0064670D01*
X0261518Y0065390D01*
X0259268Y0065840D01*
X0256658Y0066020D01*
X0228578Y0066020D01*
X0228578Y0057020D01*
X0254678Y0057020D01*
X0257198Y0056750D01*
X0258818Y0056030D01*
X0259718Y0054860D01*
X0259988Y0053150D01*
X0259628Y0051080D01*
X0259178Y0050270D01*
X0258458Y0049640D01*
X0256478Y0048740D01*
X0253778Y0048470D01*
X0228758Y0048470D01*
X0228758Y0039470D01*
X0278798Y0039470D01*
X0278798Y0048470D01*
X0278798Y0048295D02*
X0278711Y0048295D01*
X0278798Y0048096D02*
X0228758Y0048096D01*
X0228758Y0047898D02*
X0278798Y0047898D01*
X0278798Y0047699D02*
X0228758Y0047699D01*
X0228758Y0047501D02*
X0278798Y0047501D01*
X0278798Y0047302D02*
X0228758Y0047302D01*
X0228758Y0047104D02*
X0278798Y0047104D01*
X0278798Y0046905D02*
X0228758Y0046905D01*
X0228758Y0046707D02*
X0278798Y0046707D01*
X0278798Y0046508D02*
X0228758Y0046508D01*
X0228758Y0046310D02*
X0278798Y0046310D01*
X0278798Y0046111D02*
X0228758Y0046111D01*
X0228758Y0045913D02*
X0278798Y0045913D01*
X0278798Y0045714D02*
X0228758Y0045714D01*
X0228758Y0045516D02*
X0278798Y0045516D01*
X0278798Y0045317D02*
X0228758Y0045317D01*
X0228758Y0045119D02*
X0278798Y0045119D01*
X0278798Y0044920D02*
X0228758Y0044920D01*
X0228758Y0044722D02*
X0278798Y0044722D01*
X0278798Y0044523D02*
X0228758Y0044523D01*
X0228758Y0044325D02*
X0278798Y0044325D01*
X0278798Y0044126D02*
X0228758Y0044126D01*
X0228758Y0043928D02*
X0278798Y0043928D01*
X0278798Y0043729D02*
X0228758Y0043729D01*
X0228758Y0043531D02*
X0278798Y0043531D01*
X0278798Y0043332D02*
X0228758Y0043332D01*
X0228758Y0043134D02*
X0278798Y0043134D01*
X0278798Y0042935D02*
X0228758Y0042935D01*
X0228758Y0042737D02*
X0278798Y0042737D01*
X0278798Y0042538D02*
X0228758Y0042538D01*
X0228758Y0042339D02*
X0278798Y0042339D01*
X0278798Y0042141D02*
X0228758Y0042141D01*
X0228758Y0041942D02*
X0278798Y0041942D01*
X0278798Y0041744D02*
X0228758Y0041744D01*
X0228758Y0041545D02*
X0278798Y0041545D01*
X0278798Y0041347D02*
X0228758Y0041347D01*
X0228758Y0041148D02*
X0278798Y0041148D01*
X0278798Y0040950D02*
X0228758Y0040950D01*
X0228758Y0040751D02*
X0278798Y0040751D01*
X0278798Y0040553D02*
X0228758Y0040553D01*
X0228758Y0040354D02*
X0278798Y0040354D01*
X0278798Y0040156D02*
X0228758Y0040156D01*
X0228758Y0039957D02*
X0278798Y0039957D01*
X0278798Y0039759D02*
X0228758Y0039759D01*
X0228758Y0039560D02*
X0278798Y0039560D01*
X0278708Y0036860D02*
X0270428Y0036860D01*
X0270428Y0026690D01*
X0228578Y0026690D01*
X0228578Y0017330D01*
X0270428Y0017330D01*
X0270428Y0007160D01*
X0278708Y0007160D01*
X0278708Y0036860D01*
X0278708Y0036781D02*
X0270428Y0036781D01*
X0270428Y0036583D02*
X0278708Y0036583D01*
X0278708Y0036384D02*
X0270428Y0036384D01*
X0270428Y0036186D02*
X0278708Y0036186D01*
X0278708Y0035987D02*
X0270428Y0035987D01*
X0270428Y0035789D02*
X0278708Y0035789D01*
X0278708Y0035590D02*
X0270428Y0035590D01*
X0270428Y0035392D02*
X0278708Y0035392D01*
X0278708Y0035193D02*
X0270428Y0035193D01*
X0270428Y0034995D02*
X0278708Y0034995D01*
X0278708Y0034796D02*
X0270428Y0034796D01*
X0270428Y0034598D02*
X0278708Y0034598D01*
X0278708Y0034399D02*
X0270428Y0034399D01*
X0270428Y0034201D02*
X0278708Y0034201D01*
X0278708Y0034002D02*
X0270428Y0034002D01*
X0270428Y0033803D02*
X0278708Y0033803D01*
X0278708Y0033605D02*
X0270428Y0033605D01*
X0270428Y0033406D02*
X0278708Y0033406D01*
X0278708Y0033208D02*
X0270428Y0033208D01*
X0270428Y0033009D02*
X0278708Y0033009D01*
X0278708Y0032811D02*
X0270428Y0032811D01*
X0270428Y0032612D02*
X0278708Y0032612D01*
X0278708Y0032414D02*
X0270428Y0032414D01*
X0270428Y0032215D02*
X0278708Y0032215D01*
X0278708Y0032017D02*
X0270428Y0032017D01*
X0270428Y0031818D02*
X0278708Y0031818D01*
X0278708Y0031620D02*
X0270428Y0031620D01*
X0270428Y0031421D02*
X0278708Y0031421D01*
X0278708Y0031223D02*
X0270428Y0031223D01*
X0270428Y0031024D02*
X0278708Y0031024D01*
X0278708Y0030826D02*
X0270428Y0030826D01*
X0270428Y0030627D02*
X0278708Y0030627D01*
X0278708Y0030429D02*
X0270428Y0030429D01*
X0270428Y0030230D02*
X0278708Y0030230D01*
X0278708Y0030032D02*
X0270428Y0030032D01*
X0270428Y0029833D02*
X0278708Y0029833D01*
X0278708Y0029635D02*
X0270428Y0029635D01*
X0270428Y0029436D02*
X0278708Y0029436D01*
X0278708Y0029238D02*
X0270428Y0029238D01*
X0270428Y0029039D02*
X0278708Y0029039D01*
X0278708Y0028841D02*
X0270428Y0028841D01*
X0270428Y0028642D02*
X0278708Y0028642D01*
X0278708Y0028444D02*
X0270428Y0028444D01*
X0270428Y0028245D02*
X0278708Y0028245D01*
X0278708Y0028047D02*
X0270428Y0028047D01*
X0270428Y0027848D02*
X0278708Y0027848D01*
X0278708Y0027650D02*
X0270428Y0027650D01*
X0270428Y0027451D02*
X0278708Y0027451D01*
X0278708Y0027253D02*
X0270428Y0027253D01*
X0270428Y0027054D02*
X0278708Y0027054D01*
X0278708Y0026856D02*
X0270428Y0026856D01*
X0278708Y0026657D02*
X0228578Y0026657D01*
X0228578Y0026459D02*
X0278708Y0026459D01*
X0278708Y0026260D02*
X0228578Y0026260D01*
X0228578Y0026062D02*
X0278708Y0026062D01*
X0278708Y0025863D02*
X0228578Y0025863D01*
X0228578Y0025665D02*
X0278708Y0025665D01*
X0278708Y0025466D02*
X0228578Y0025466D01*
X0228578Y0025268D02*
X0278708Y0025268D01*
X0278708Y0025069D02*
X0228578Y0025069D01*
X0228578Y0024870D02*
X0278708Y0024870D01*
X0278708Y0024672D02*
X0228578Y0024672D01*
X0228578Y0024473D02*
X0278708Y0024473D01*
X0278708Y0024275D02*
X0228578Y0024275D01*
X0228578Y0024076D02*
X0278708Y0024076D01*
X0278708Y0023878D02*
X0228578Y0023878D01*
X0228578Y0023679D02*
X0278708Y0023679D01*
X0278708Y0023481D02*
X0228578Y0023481D01*
X0228578Y0023282D02*
X0278708Y0023282D01*
X0278708Y0023084D02*
X0228578Y0023084D01*
X0228578Y0022885D02*
X0278708Y0022885D01*
X0278708Y0022687D02*
X0228578Y0022687D01*
X0228578Y0022488D02*
X0278708Y0022488D01*
X0278708Y0022290D02*
X0228578Y0022290D01*
X0228578Y0022091D02*
X0278708Y0022091D01*
X0278708Y0021893D02*
X0228578Y0021893D01*
X0228578Y0021694D02*
X0278708Y0021694D01*
X0278708Y0021496D02*
X0228578Y0021496D01*
X0228578Y0021297D02*
X0278708Y0021297D01*
X0278708Y0021099D02*
X0228578Y0021099D01*
X0228578Y0020900D02*
X0278708Y0020900D01*
X0278708Y0020702D02*
X0228578Y0020702D01*
X0228578Y0020503D02*
X0278708Y0020503D01*
X0278708Y0020305D02*
X0228578Y0020305D01*
X0228578Y0020106D02*
X0278708Y0020106D01*
X0278708Y0019908D02*
X0228578Y0019908D01*
X0228578Y0019709D02*
X0278708Y0019709D01*
X0278708Y0019511D02*
X0228578Y0019511D01*
X0228578Y0019312D02*
X0278708Y0019312D01*
X0278708Y0019114D02*
X0228578Y0019114D01*
X0228578Y0018915D02*
X0278708Y0018915D01*
X0278708Y0018717D02*
X0228578Y0018717D01*
X0228578Y0018518D02*
X0278708Y0018518D01*
X0278708Y0018320D02*
X0228578Y0018320D01*
X0228578Y0018121D02*
X0278708Y0018121D01*
X0278708Y0017923D02*
X0228578Y0017923D01*
X0228578Y0017724D02*
X0278708Y0017724D01*
X0278708Y0017526D02*
X0228578Y0017526D01*
X0224798Y0017526D02*
X0174758Y0017526D01*
X0174758Y0017724D02*
X0224798Y0017724D01*
X0224798Y0017923D02*
X0174758Y0017923D01*
X0174758Y0018121D02*
X0224798Y0018121D01*
X0224798Y0018320D02*
X0174758Y0018320D01*
X0174758Y0009680D01*
X0224798Y0009680D01*
X0224798Y0023720D01*
X0201218Y0028220D01*
X0189428Y0030470D01*
X0189428Y0030560D01*
X0201218Y0032810D01*
X0224798Y0037310D01*
X0224798Y0051260D01*
X0174758Y0051260D01*
X0174758Y0042620D01*
X0214718Y0042620D01*
X0214718Y0042440D01*
X0188078Y0036860D01*
X0174758Y0034070D01*
X0174758Y0026780D01*
X0188078Y0023990D01*
X0214718Y0018410D01*
X0214718Y0018320D01*
X0174758Y0018320D01*
X0174758Y0017327D02*
X0224798Y0017327D01*
X0224798Y0017129D02*
X0174758Y0017129D01*
X0174758Y0016930D02*
X0224798Y0016930D01*
X0224798Y0016732D02*
X0174758Y0016732D01*
X0174758Y0016533D02*
X0224798Y0016533D01*
X0224798Y0016334D02*
X0174758Y0016334D01*
X0174758Y0016136D02*
X0224798Y0016136D01*
X0224798Y0015937D02*
X0174758Y0015937D01*
X0174758Y0015739D02*
X0224798Y0015739D01*
X0224798Y0015540D02*
X0174758Y0015540D01*
X0174758Y0015342D02*
X0224798Y0015342D01*
X0224798Y0015143D02*
X0174758Y0015143D01*
X0174758Y0014945D02*
X0224798Y0014945D01*
X0224798Y0014746D02*
X0174758Y0014746D01*
X0174758Y0014548D02*
X0224798Y0014548D01*
X0224798Y0014349D02*
X0174758Y0014349D01*
X0174758Y0014151D02*
X0224798Y0014151D01*
X0224798Y0013952D02*
X0174758Y0013952D01*
X0174758Y0013754D02*
X0224798Y0013754D01*
X0224798Y0013555D02*
X0174758Y0013555D01*
X0174758Y0013357D02*
X0224798Y0013357D01*
X0224798Y0013158D02*
X0174758Y0013158D01*
X0174758Y0012960D02*
X0224798Y0012960D01*
X0224798Y0012761D02*
X0174758Y0012761D01*
X0174758Y0012563D02*
X0224798Y0012563D01*
X0224798Y0012364D02*
X0174758Y0012364D01*
X0174758Y0012166D02*
X0224798Y0012166D01*
X0224798Y0011967D02*
X0174758Y0011967D01*
X0174758Y0011769D02*
X0224798Y0011769D01*
X0224798Y0011570D02*
X0174758Y0011570D01*
X0174758Y0011372D02*
X0224798Y0011372D01*
X0224798Y0011173D02*
X0174758Y0011173D01*
X0174758Y0010975D02*
X0224798Y0010975D01*
X0224798Y0010776D02*
X0174758Y0010776D01*
X0174758Y0010578D02*
X0224798Y0010578D01*
X0224798Y0010379D02*
X0174758Y0010379D01*
X0174758Y0010181D02*
X0224798Y0010181D01*
X0224798Y0009982D02*
X0174758Y0009982D01*
X0174758Y0009784D02*
X0224798Y0009784D01*
X0224798Y0018518D02*
X0214202Y0018518D01*
X0213255Y0018717D02*
X0224798Y0018717D01*
X0224798Y0018915D02*
X0212307Y0018915D01*
X0211359Y0019114D02*
X0224798Y0019114D01*
X0224798Y0019312D02*
X0210411Y0019312D01*
X0209464Y0019511D02*
X0224798Y0019511D01*
X0224798Y0019709D02*
X0208516Y0019709D01*
X0207568Y0019908D02*
X0224798Y0019908D01*
X0224798Y0020106D02*
X0206620Y0020106D01*
X0205673Y0020305D02*
X0224798Y0020305D01*
X0224798Y0020503D02*
X0204725Y0020503D01*
X0203777Y0020702D02*
X0224798Y0020702D01*
X0224798Y0020900D02*
X0202829Y0020900D01*
X0201882Y0021099D02*
X0224798Y0021099D01*
X0224798Y0021297D02*
X0200934Y0021297D01*
X0199986Y0021496D02*
X0224798Y0021496D01*
X0224798Y0021694D02*
X0199039Y0021694D01*
X0198091Y0021893D02*
X0224798Y0021893D01*
X0224798Y0022091D02*
X0197143Y0022091D01*
X0196195Y0022290D02*
X0224798Y0022290D01*
X0224798Y0022488D02*
X0195248Y0022488D01*
X0194300Y0022687D02*
X0224798Y0022687D01*
X0224798Y0022885D02*
X0193352Y0022885D01*
X0192404Y0023084D02*
X0224798Y0023084D01*
X0224798Y0023282D02*
X0191457Y0023282D01*
X0190509Y0023481D02*
X0224798Y0023481D01*
X0224798Y0023679D02*
X0189561Y0023679D01*
X0188613Y0023878D02*
X0223971Y0023878D01*
X0222931Y0024076D02*
X0187666Y0024076D01*
X0186718Y0024275D02*
X0221891Y0024275D01*
X0220850Y0024473D02*
X0185770Y0024473D01*
X0184823Y0024672D02*
X0219810Y0024672D01*
X0218770Y0024870D02*
X0183875Y0024870D01*
X0182927Y0025069D02*
X0217730Y0025069D01*
X0216690Y0025268D02*
X0181979Y0025268D01*
X0181032Y0025466D02*
X0215649Y0025466D01*
X0214609Y0025665D02*
X0180084Y0025665D01*
X0179136Y0025863D02*
X0213569Y0025863D01*
X0212529Y0026062D02*
X0178188Y0026062D01*
X0177241Y0026260D02*
X0211489Y0026260D01*
X0210448Y0026459D02*
X0176293Y0026459D01*
X0175345Y0026657D02*
X0209408Y0026657D01*
X0208368Y0026856D02*
X0174758Y0026856D01*
X0174758Y0027054D02*
X0207328Y0027054D01*
X0206288Y0027253D02*
X0174758Y0027253D01*
X0174758Y0027451D02*
X0205247Y0027451D01*
X0204207Y0027650D02*
X0174758Y0027650D01*
X0174758Y0027848D02*
X0203167Y0027848D01*
X0202127Y0028047D02*
X0174758Y0028047D01*
X0174758Y0028245D02*
X0201087Y0028245D01*
X0200046Y0028444D02*
X0174758Y0028444D01*
X0174758Y0028642D02*
X0199006Y0028642D01*
X0197966Y0028841D02*
X0174758Y0028841D01*
X0174758Y0029039D02*
X0196926Y0029039D01*
X0195886Y0029238D02*
X0174758Y0029238D01*
X0174758Y0029436D02*
X0194845Y0029436D01*
X0193805Y0029635D02*
X0174758Y0029635D01*
X0174758Y0029833D02*
X0192765Y0029833D01*
X0191725Y0030032D02*
X0174758Y0030032D01*
X0174758Y0030230D02*
X0190685Y0030230D01*
X0190821Y0030826D02*
X0174758Y0030826D01*
X0174758Y0031024D02*
X0191862Y0031024D01*
X0192902Y0031223D02*
X0174758Y0031223D01*
X0174758Y0031421D02*
X0193942Y0031421D01*
X0194982Y0031620D02*
X0174758Y0031620D01*
X0174758Y0031818D02*
X0196022Y0031818D01*
X0197063Y0032017D02*
X0174758Y0032017D01*
X0174758Y0032215D02*
X0198103Y0032215D01*
X0199143Y0032414D02*
X0174758Y0032414D01*
X0174758Y0032612D02*
X0200183Y0032612D01*
X0201223Y0032811D02*
X0174758Y0032811D01*
X0174758Y0033009D02*
X0202264Y0033009D01*
X0203304Y0033208D02*
X0174758Y0033208D01*
X0174758Y0033406D02*
X0204344Y0033406D01*
X0205384Y0033605D02*
X0174758Y0033605D01*
X0174758Y0033803D02*
X0206424Y0033803D01*
X0207465Y0034002D02*
X0174758Y0034002D01*
X0175382Y0034201D02*
X0208505Y0034201D01*
X0209545Y0034399D02*
X0176329Y0034399D01*
X0177277Y0034598D02*
X0210585Y0034598D01*
X0211625Y0034796D02*
X0178225Y0034796D01*
X0179172Y0034995D02*
X0212666Y0034995D01*
X0213706Y0035193D02*
X0180120Y0035193D01*
X0181068Y0035392D02*
X0214746Y0035392D01*
X0215786Y0035590D02*
X0182016Y0035590D01*
X0182963Y0035789D02*
X0216826Y0035789D01*
X0217867Y0035987D02*
X0183911Y0035987D01*
X0184859Y0036186D02*
X0218907Y0036186D01*
X0219947Y0036384D02*
X0185807Y0036384D01*
X0186754Y0036583D02*
X0220987Y0036583D01*
X0222027Y0036781D02*
X0187702Y0036781D01*
X0188650Y0036980D02*
X0223068Y0036980D01*
X0224108Y0037178D02*
X0189598Y0037178D01*
X0190545Y0037377D02*
X0224798Y0037377D01*
X0224798Y0037575D02*
X0191493Y0037575D01*
X0192441Y0037774D02*
X0224798Y0037774D01*
X0224798Y0037972D02*
X0193388Y0037972D01*
X0194336Y0038171D02*
X0224798Y0038171D01*
X0224798Y0038369D02*
X0195284Y0038369D01*
X0196232Y0038568D02*
X0224798Y0038568D01*
X0224798Y0038766D02*
X0197179Y0038766D01*
X0198127Y0038965D02*
X0224798Y0038965D01*
X0224798Y0039163D02*
X0199075Y0039163D01*
X0200023Y0039362D02*
X0224798Y0039362D01*
X0224798Y0039560D02*
X0200970Y0039560D01*
X0201918Y0039759D02*
X0224798Y0039759D01*
X0224798Y0039957D02*
X0202866Y0039957D01*
X0203813Y0040156D02*
X0224798Y0040156D01*
X0224798Y0040354D02*
X0204761Y0040354D01*
X0205709Y0040553D02*
X0224798Y0040553D01*
X0224798Y0040751D02*
X0206657Y0040751D01*
X0207604Y0040950D02*
X0224798Y0040950D01*
X0224798Y0041148D02*
X0208552Y0041148D01*
X0209500Y0041347D02*
X0224798Y0041347D01*
X0224798Y0041545D02*
X0210448Y0041545D01*
X0211395Y0041744D02*
X0224798Y0041744D01*
X0224798Y0041942D02*
X0212343Y0041942D01*
X0213291Y0042141D02*
X0224798Y0042141D01*
X0224798Y0042339D02*
X0214239Y0042339D01*
X0214718Y0042538D02*
X0224798Y0042538D01*
X0224798Y0042737D02*
X0174758Y0042737D01*
X0174758Y0042935D02*
X0224798Y0042935D01*
X0224798Y0043134D02*
X0174758Y0043134D01*
X0174758Y0043332D02*
X0224798Y0043332D01*
X0224798Y0043531D02*
X0174758Y0043531D01*
X0174758Y0043729D02*
X0224798Y0043729D01*
X0224798Y0043928D02*
X0174758Y0043928D01*
X0174758Y0044126D02*
X0224798Y0044126D01*
X0224798Y0044325D02*
X0174758Y0044325D01*
X0174758Y0044523D02*
X0224798Y0044523D01*
X0224798Y0044722D02*
X0174758Y0044722D01*
X0174758Y0044920D02*
X0224798Y0044920D01*
X0224798Y0045119D02*
X0174758Y0045119D01*
X0174758Y0045317D02*
X0224798Y0045317D01*
X0224798Y0045516D02*
X0174758Y0045516D01*
X0174758Y0045714D02*
X0224798Y0045714D01*
X0224798Y0045913D02*
X0174758Y0045913D01*
X0174758Y0046111D02*
X0224798Y0046111D01*
X0224798Y0046310D02*
X0174758Y0046310D01*
X0174758Y0046508D02*
X0224798Y0046508D01*
X0224798Y0046707D02*
X0174758Y0046707D01*
X0174758Y0046905D02*
X0224798Y0046905D01*
X0224798Y0047104D02*
X0174758Y0047104D01*
X0174758Y0047302D02*
X0224798Y0047302D01*
X0224798Y0047501D02*
X0174758Y0047501D01*
X0174758Y0047699D02*
X0224798Y0047699D01*
X0224798Y0047898D02*
X0174758Y0047898D01*
X0174758Y0048096D02*
X0224798Y0048096D01*
X0224798Y0048295D02*
X0174758Y0048295D01*
X0174758Y0048493D02*
X0224798Y0048493D01*
X0224798Y0048692D02*
X0174758Y0048692D01*
X0174758Y0048890D02*
X0224798Y0048890D01*
X0224798Y0049089D02*
X0174758Y0049089D01*
X0174758Y0049287D02*
X0224798Y0049287D01*
X0224798Y0049486D02*
X0174758Y0049486D01*
X0174758Y0049684D02*
X0224798Y0049684D01*
X0224798Y0049883D02*
X0174758Y0049883D01*
X0174758Y0050081D02*
X0224798Y0050081D01*
X0224798Y0050280D02*
X0174758Y0050280D01*
X0174758Y0050478D02*
X0224798Y0050478D01*
X0224798Y0050677D02*
X0174758Y0050677D01*
X0174758Y0050875D02*
X0224798Y0050875D01*
X0224798Y0051074D02*
X0174758Y0051074D01*
X0178628Y0057830D02*
X0181418Y0056480D01*
X0184838Y0055580D01*
X0188888Y0055130D01*
X0193478Y0054950D01*
X0198068Y0055130D01*
X0202028Y0055670D01*
X0205448Y0056660D01*
X0208238Y0058100D01*
X0210398Y0059990D01*
X0212018Y0062420D01*
X0213008Y0065390D01*
X0213278Y0068090D01*
X0206438Y0068090D01*
X0206348Y0067460D01*
X0205628Y0066290D01*
X0204458Y0065390D01*
X0202928Y0064760D01*
X0198698Y0064130D01*
X0193388Y0064040D01*
X0188078Y0064130D01*
X0183848Y0064760D01*
X0182318Y0065390D01*
X0181148Y0066290D01*
X0180428Y0067460D01*
X0180338Y0068090D01*
X0173858Y0068090D01*
X0174038Y0065210D01*
X0174938Y0062150D01*
X0176468Y0059720D01*
X0178628Y0057830D01*
X0178642Y0057823D02*
X0207702Y0057823D01*
X0207318Y0057625D02*
X0179052Y0057625D01*
X0179463Y0057426D02*
X0206933Y0057426D01*
X0206549Y0057228D02*
X0179873Y0057228D01*
X0180283Y0057029D02*
X0206164Y0057029D01*
X0205779Y0056831D02*
X0180693Y0056831D01*
X0181104Y0056632D02*
X0205353Y0056632D01*
X0204667Y0056434D02*
X0181594Y0056434D01*
X0182348Y0056235D02*
X0203981Y0056235D01*
X0203295Y0056037D02*
X0183103Y0056037D01*
X0183857Y0055838D02*
X0202610Y0055838D01*
X0201806Y0055640D02*
X0184611Y0055640D01*
X0186087Y0055441D02*
X0200351Y0055441D01*
X0198895Y0055243D02*
X0187874Y0055243D01*
X0191076Y0055044D02*
X0195881Y0055044D01*
X0208087Y0058022D02*
X0178409Y0058022D01*
X0178182Y0058220D02*
X0208376Y0058220D01*
X0208603Y0058419D02*
X0177955Y0058419D01*
X0177729Y0058617D02*
X0208830Y0058617D01*
X0209057Y0058816D02*
X0177502Y0058816D01*
X0177275Y0059014D02*
X0209284Y0059014D01*
X0209510Y0059213D02*
X0177048Y0059213D01*
X0176821Y0059411D02*
X0209737Y0059411D01*
X0209964Y0059610D02*
X0176594Y0059610D01*
X0176413Y0059808D02*
X0210191Y0059808D01*
X0210410Y0060007D02*
X0176288Y0060007D01*
X0176163Y0060205D02*
X0210542Y0060205D01*
X0210674Y0060404D02*
X0176038Y0060404D01*
X0175913Y0060603D02*
X0210807Y0060603D01*
X0210939Y0060801D02*
X0175788Y0060801D01*
X0175663Y0061000D02*
X0211071Y0061000D01*
X0211204Y0061198D02*
X0175538Y0061198D01*
X0175413Y0061397D02*
X0211336Y0061397D01*
X0211468Y0061595D02*
X0175288Y0061595D01*
X0175163Y0061794D02*
X0211601Y0061794D01*
X0211733Y0061992D02*
X0175038Y0061992D01*
X0174926Y0062191D02*
X0211866Y0062191D01*
X0211998Y0062389D02*
X0174868Y0062389D01*
X0174810Y0062588D02*
X0212074Y0062588D01*
X0212140Y0062786D02*
X0174751Y0062786D01*
X0174693Y0062985D02*
X0212207Y0062985D01*
X0212273Y0063183D02*
X0174635Y0063183D01*
X0174576Y0063382D02*
X0212339Y0063382D01*
X0212405Y0063580D02*
X0174518Y0063580D01*
X0174459Y0063779D02*
X0212471Y0063779D01*
X0212537Y0063977D02*
X0174401Y0063977D01*
X0174343Y0064176D02*
X0187771Y0064176D01*
X0186439Y0064374D02*
X0174284Y0064374D01*
X0174226Y0064573D02*
X0185106Y0064573D01*
X0183821Y0064771D02*
X0174167Y0064771D01*
X0174109Y0064970D02*
X0183339Y0064970D01*
X0182857Y0065168D02*
X0174051Y0065168D01*
X0174029Y0065367D02*
X0182375Y0065367D01*
X0182091Y0065565D02*
X0174016Y0065565D01*
X0174004Y0065764D02*
X0181832Y0065764D01*
X0181574Y0065962D02*
X0173991Y0065962D01*
X0173979Y0066161D02*
X0181316Y0066161D01*
X0181106Y0066359D02*
X0173967Y0066359D01*
X0173954Y0066558D02*
X0180984Y0066558D01*
X0180861Y0066756D02*
X0173942Y0066756D01*
X0173929Y0066955D02*
X0180739Y0066955D01*
X0180617Y0067153D02*
X0173917Y0067153D01*
X0173905Y0067352D02*
X0180495Y0067352D01*
X0180416Y0067550D02*
X0173892Y0067550D01*
X0173880Y0067749D02*
X0180387Y0067749D01*
X0180359Y0067947D02*
X0173867Y0067947D01*
X0173948Y0068090D02*
X0173858Y0068900D01*
X0174128Y0072410D01*
X0175028Y0075380D01*
X0176558Y0077810D01*
X0178718Y0079700D01*
X0181508Y0081140D01*
X0184928Y0082130D01*
X0188888Y0082670D01*
X0193478Y0082850D01*
X0198158Y0082670D01*
X0202208Y0082220D01*
X0205628Y0081320D01*
X0208418Y0079970D01*
X0210578Y0078170D01*
X0212108Y0075740D01*
X0213008Y0072680D01*
X0213278Y0068990D01*
X0213188Y0068180D01*
X0213278Y0068090D01*
X0206618Y0068090D01*
X0206798Y0068900D01*
X0206618Y0070160D01*
X0206078Y0071240D01*
X0205088Y0072050D01*
X0203738Y0072680D01*
X0199598Y0073490D01*
X0193478Y0073760D01*
X0187358Y0073490D01*
X0183308Y0072680D01*
X0181958Y0072050D01*
X0180968Y0071240D01*
X0180428Y0070160D01*
X0180248Y0068900D01*
X0180428Y0068090D01*
X0173948Y0068090D01*
X0173942Y0068146D02*
X0180416Y0068146D01*
X0180372Y0068344D02*
X0173920Y0068344D01*
X0173898Y0068543D02*
X0180328Y0068543D01*
X0180284Y0068741D02*
X0173876Y0068741D01*
X0173862Y0068940D02*
X0180254Y0068940D01*
X0180283Y0069139D02*
X0173877Y0069139D01*
X0173892Y0069337D02*
X0180311Y0069337D01*
X0180339Y0069536D02*
X0173907Y0069536D01*
X0173923Y0069734D02*
X0180368Y0069734D01*
X0180396Y0069933D02*
X0173938Y0069933D01*
X0173953Y0070131D02*
X0180424Y0070131D01*
X0180513Y0070330D02*
X0173968Y0070330D01*
X0173984Y0070528D02*
X0180612Y0070528D01*
X0180712Y0070727D02*
X0173999Y0070727D01*
X0174014Y0070925D02*
X0180811Y0070925D01*
X0180910Y0071124D02*
X0174029Y0071124D01*
X0174045Y0071322D02*
X0181069Y0071322D01*
X0181311Y0071521D02*
X0174060Y0071521D01*
X0174075Y0071719D02*
X0181554Y0071719D01*
X0181797Y0071918D02*
X0174091Y0071918D01*
X0174106Y0072116D02*
X0182100Y0072116D01*
X0182526Y0072315D02*
X0174121Y0072315D01*
X0174160Y0072513D02*
X0182951Y0072513D01*
X0183467Y0072712D02*
X0174220Y0072712D01*
X0174280Y0072910D02*
X0184460Y0072910D01*
X0185452Y0073109D02*
X0174340Y0073109D01*
X0174400Y0073307D02*
X0186445Y0073307D01*
X0187716Y0073506D02*
X0174460Y0073506D01*
X0174521Y0073704D02*
X0192215Y0073704D01*
X0194742Y0073704D02*
X0212707Y0073704D01*
X0212766Y0073506D02*
X0199241Y0073506D01*
X0200532Y0073307D02*
X0212824Y0073307D01*
X0212882Y0073109D02*
X0201547Y0073109D01*
X0202562Y0072910D02*
X0212941Y0072910D01*
X0212999Y0072712D02*
X0203576Y0072712D01*
X0204096Y0072513D02*
X0213021Y0072513D01*
X0213035Y0072315D02*
X0204521Y0072315D01*
X0204947Y0072116D02*
X0213050Y0072116D01*
X0213064Y0071918D02*
X0205250Y0071918D01*
X0205493Y0071719D02*
X0213079Y0071719D01*
X0213093Y0071521D02*
X0205735Y0071521D01*
X0205978Y0071322D02*
X0213108Y0071322D01*
X0213122Y0071124D02*
X0206137Y0071124D01*
X0206236Y0070925D02*
X0213137Y0070925D01*
X0213151Y0070727D02*
X0206335Y0070727D01*
X0206434Y0070528D02*
X0213166Y0070528D01*
X0213180Y0070330D02*
X0206534Y0070330D01*
X0206623Y0070131D02*
X0213195Y0070131D01*
X0213209Y0069933D02*
X0206651Y0069933D01*
X0206679Y0069734D02*
X0213224Y0069734D01*
X0213238Y0069536D02*
X0206708Y0069536D01*
X0206736Y0069337D02*
X0213253Y0069337D01*
X0213268Y0069139D02*
X0206764Y0069139D01*
X0206793Y0068940D02*
X0213273Y0068940D01*
X0213251Y0068741D02*
X0206763Y0068741D01*
X0206719Y0068543D02*
X0213229Y0068543D01*
X0213207Y0068344D02*
X0206675Y0068344D01*
X0206631Y0068146D02*
X0213222Y0068146D01*
X0213264Y0067947D02*
X0206418Y0067947D01*
X0206390Y0067749D02*
X0213244Y0067749D01*
X0213224Y0067550D02*
X0206361Y0067550D01*
X0206282Y0067352D02*
X0213205Y0067352D01*
X0213185Y0067153D02*
X0206160Y0067153D01*
X0206038Y0066955D02*
X0213165Y0066955D01*
X0213145Y0066756D02*
X0205915Y0066756D01*
X0205793Y0066558D02*
X0213125Y0066558D01*
X0213105Y0066359D02*
X0205671Y0066359D01*
X0205461Y0066161D02*
X0213086Y0066161D01*
X0213066Y0065962D02*
X0205202Y0065962D01*
X0204944Y0065764D02*
X0213046Y0065764D01*
X0213026Y0065565D02*
X0204686Y0065565D01*
X0204402Y0065367D02*
X0213001Y0065367D01*
X0212935Y0065168D02*
X0203920Y0065168D01*
X0203438Y0064970D02*
X0212868Y0064970D01*
X0212802Y0064771D02*
X0202956Y0064771D01*
X0201671Y0064573D02*
X0212736Y0064573D01*
X0212670Y0064374D02*
X0200338Y0064374D01*
X0199005Y0064176D02*
X0212604Y0064176D01*
X0228578Y0064176D02*
X0264127Y0064176D01*
X0263839Y0064374D02*
X0228578Y0064374D01*
X0228578Y0064573D02*
X0263550Y0064573D01*
X0263143Y0064771D02*
X0228578Y0064771D01*
X0228578Y0064970D02*
X0262622Y0064970D01*
X0262100Y0065168D02*
X0228578Y0065168D01*
X0228578Y0065367D02*
X0261579Y0065367D01*
X0260642Y0065565D02*
X0228578Y0065565D01*
X0228578Y0065764D02*
X0259649Y0065764D01*
X0257495Y0065962D02*
X0228578Y0065962D01*
X0228578Y0063977D02*
X0264416Y0063977D01*
X0264705Y0063779D02*
X0228578Y0063779D01*
X0228578Y0063580D02*
X0264934Y0063580D01*
X0265104Y0063382D02*
X0228578Y0063382D01*
X0228578Y0063183D02*
X0265274Y0063183D01*
X0265444Y0062985D02*
X0228578Y0062985D01*
X0228578Y0062786D02*
X0265615Y0062786D01*
X0265785Y0062588D02*
X0228578Y0062588D01*
X0228578Y0062389D02*
X0265945Y0062389D01*
X0266050Y0062191D02*
X0228578Y0062191D01*
X0228578Y0061992D02*
X0266155Y0061992D01*
X0266260Y0061794D02*
X0228578Y0061794D01*
X0228578Y0061595D02*
X0266365Y0061595D01*
X0266470Y0061397D02*
X0228578Y0061397D01*
X0228578Y0061198D02*
X0266575Y0061198D01*
X0266680Y0061000D02*
X0228578Y0061000D01*
X0228578Y0060801D02*
X0266761Y0060801D01*
X0266810Y0060603D02*
X0228578Y0060603D01*
X0228578Y0060404D02*
X0266860Y0060404D01*
X0266910Y0060205D02*
X0228578Y0060205D01*
X0228578Y0060007D02*
X0266959Y0060007D01*
X0267009Y0059808D02*
X0228578Y0059808D01*
X0228578Y0059610D02*
X0267058Y0059610D01*
X0267108Y0059411D02*
X0228578Y0059411D01*
X0228578Y0059213D02*
X0267158Y0059213D01*
X0267195Y0059014D02*
X0228578Y0059014D01*
X0228578Y0058816D02*
X0267212Y0058816D01*
X0267230Y0058617D02*
X0228578Y0058617D01*
X0228578Y0058419D02*
X0267247Y0058419D01*
X0267264Y0058220D02*
X0228578Y0058220D01*
X0228578Y0058022D02*
X0267281Y0058022D01*
X0267299Y0057823D02*
X0228578Y0057823D01*
X0228578Y0057625D02*
X0267316Y0057625D01*
X0267333Y0057426D02*
X0228578Y0057426D01*
X0228578Y0057228D02*
X0267350Y0057228D01*
X0267368Y0057029D02*
X0228578Y0057029D01*
X0254012Y0048493D02*
X0262541Y0048493D01*
X0262508Y0048295D02*
X0228758Y0048295D01*
X0255997Y0048692D02*
X0262822Y0048692D01*
X0263102Y0048890D02*
X0256809Y0048890D01*
X0257246Y0049089D02*
X0263382Y0049089D01*
X0263662Y0049287D02*
X0257683Y0049287D01*
X0258119Y0049486D02*
X0263943Y0049486D01*
X0264223Y0049684D02*
X0258509Y0049684D01*
X0258736Y0049883D02*
X0264503Y0049883D01*
X0264734Y0050081D02*
X0258963Y0050081D01*
X0259184Y0050280D02*
X0264895Y0050280D01*
X0265056Y0050478D02*
X0259294Y0050478D01*
X0259405Y0050677D02*
X0265216Y0050677D01*
X0265377Y0050875D02*
X0259515Y0050875D01*
X0259625Y0051074D02*
X0265538Y0051074D01*
X0265699Y0051272D02*
X0259662Y0051272D01*
X0259696Y0051471D02*
X0265859Y0051471D01*
X0266020Y0051670D02*
X0259731Y0051670D01*
X0259765Y0051868D02*
X0266181Y0051868D01*
X0266266Y0052067D02*
X0259800Y0052067D01*
X0259835Y0052265D02*
X0266343Y0052265D01*
X0266419Y0052464D02*
X0259869Y0052464D01*
X0259904Y0052662D02*
X0266495Y0052662D01*
X0266572Y0052861D02*
X0259938Y0052861D01*
X0259973Y0053059D02*
X0266648Y0053059D01*
X0266724Y0053258D02*
X0259971Y0053258D01*
X0259940Y0053456D02*
X0266801Y0053456D01*
X0266877Y0053655D02*
X0259909Y0053655D01*
X0259877Y0053853D02*
X0266953Y0053853D01*
X0267030Y0054052D02*
X0259846Y0054052D01*
X0259815Y0054250D02*
X0267100Y0054250D01*
X0267120Y0054449D02*
X0259783Y0054449D01*
X0259752Y0054647D02*
X0267139Y0054647D01*
X0267158Y0054846D02*
X0259721Y0054846D01*
X0259577Y0055044D02*
X0267177Y0055044D01*
X0267196Y0055243D02*
X0259424Y0055243D01*
X0259271Y0055441D02*
X0267216Y0055441D01*
X0267235Y0055640D02*
X0259119Y0055640D01*
X0258966Y0055838D02*
X0267254Y0055838D01*
X0267273Y0056037D02*
X0258803Y0056037D01*
X0258357Y0056235D02*
X0267292Y0056235D01*
X0267312Y0056434D02*
X0257910Y0056434D01*
X0257463Y0056632D02*
X0267331Y0056632D01*
X0267350Y0056831D02*
X0256444Y0056831D01*
X0282038Y0063230D02*
X0281858Y0065300D01*
X0282128Y0068090D01*
X0283028Y0070520D01*
X0284648Y0072590D01*
X0287078Y0074210D01*
X0286898Y0074120D01*
X0286898Y0074210D01*
X0282488Y0074210D01*
X0282488Y0082850D01*
X0320288Y0082850D01*
X0320288Y0073850D01*
X0295268Y0073850D01*
X0292568Y0073580D01*
X0290588Y0072680D01*
X0289868Y0072050D01*
X0289418Y0071240D01*
X0289058Y0069170D01*
X0289328Y0067460D01*
X0290228Y0066290D01*
X0291848Y0065570D01*
X0294368Y0065300D01*
X0320468Y0065300D01*
X0320468Y0056300D01*
X0292388Y0056300D01*
X0289778Y0056480D01*
X0287528Y0056930D01*
X0285728Y0057650D01*
X0284288Y0058640D01*
X0283208Y0059900D01*
X0282488Y0061430D01*
X0282038Y0063230D01*
X0282050Y0063183D02*
X0320468Y0063183D01*
X0320468Y0062985D02*
X0282100Y0062985D01*
X0282149Y0062786D02*
X0320468Y0062786D01*
X0320468Y0062588D02*
X0282199Y0062588D01*
X0282249Y0062389D02*
X0320468Y0062389D01*
X0320468Y0062191D02*
X0282298Y0062191D01*
X0282348Y0061992D02*
X0320468Y0061992D01*
X0320468Y0061794D02*
X0282398Y0061794D01*
X0282447Y0061595D02*
X0320468Y0061595D01*
X0320468Y0061397D02*
X0282504Y0061397D01*
X0282598Y0061198D02*
X0320468Y0061198D01*
X0320468Y0061000D02*
X0282691Y0061000D01*
X0282784Y0060801D02*
X0320468Y0060801D01*
X0320468Y0060603D02*
X0282878Y0060603D01*
X0282971Y0060404D02*
X0320468Y0060404D01*
X0320468Y0060205D02*
X0283065Y0060205D01*
X0283158Y0060007D02*
X0320468Y0060007D01*
X0320468Y0059808D02*
X0283287Y0059808D01*
X0283457Y0059610D02*
X0320468Y0059610D01*
X0320468Y0059411D02*
X0283627Y0059411D01*
X0283797Y0059213D02*
X0320468Y0059213D01*
X0320468Y0059014D02*
X0283967Y0059014D01*
X0284138Y0058816D02*
X0320468Y0058816D01*
X0320468Y0058617D02*
X0284321Y0058617D01*
X0284610Y0058419D02*
X0320468Y0058419D01*
X0320468Y0058220D02*
X0284899Y0058220D01*
X0285188Y0058022D02*
X0320468Y0058022D01*
X0320468Y0057823D02*
X0285476Y0057823D01*
X0285791Y0057625D02*
X0320468Y0057625D01*
X0320468Y0057426D02*
X0286288Y0057426D01*
X0286784Y0057228D02*
X0320468Y0057228D01*
X0320468Y0057029D02*
X0287280Y0057029D01*
X0288024Y0056831D02*
X0320468Y0056831D01*
X0320468Y0056632D02*
X0289017Y0056632D01*
X0290448Y0056434D02*
X0320468Y0056434D01*
X0320468Y0063382D02*
X0282025Y0063382D01*
X0282008Y0063580D02*
X0320468Y0063580D01*
X0320468Y0063779D02*
X0281991Y0063779D01*
X0281973Y0063977D02*
X0320468Y0063977D01*
X0320468Y0064176D02*
X0281956Y0064176D01*
X0281939Y0064374D02*
X0320468Y0064374D01*
X0320468Y0064573D02*
X0281922Y0064573D01*
X0281904Y0064771D02*
X0320468Y0064771D01*
X0320468Y0064970D02*
X0281887Y0064970D01*
X0281870Y0065168D02*
X0320468Y0065168D01*
X0320288Y0073903D02*
X0286618Y0073903D01*
X0286915Y0074101D02*
X0320288Y0074101D01*
X0320288Y0074300D02*
X0282488Y0074300D01*
X0282488Y0074498D02*
X0320288Y0074498D01*
X0320288Y0074697D02*
X0282488Y0074697D01*
X0282488Y0074895D02*
X0320288Y0074895D01*
X0320288Y0075094D02*
X0282488Y0075094D01*
X0282488Y0075292D02*
X0320288Y0075292D01*
X0320288Y0075491D02*
X0282488Y0075491D01*
X0282488Y0075689D02*
X0320288Y0075689D01*
X0320288Y0075888D02*
X0282488Y0075888D01*
X0282488Y0076086D02*
X0320288Y0076086D01*
X0320288Y0076285D02*
X0282488Y0076285D01*
X0282488Y0076483D02*
X0320288Y0076483D01*
X0320288Y0076682D02*
X0282488Y0076682D01*
X0282488Y0076880D02*
X0320288Y0076880D01*
X0320288Y0077079D02*
X0282488Y0077079D01*
X0282488Y0077277D02*
X0320288Y0077277D01*
X0320288Y0077476D02*
X0282488Y0077476D01*
X0282488Y0077674D02*
X0320288Y0077674D01*
X0320288Y0077873D02*
X0282488Y0077873D01*
X0282488Y0078072D02*
X0320288Y0078072D01*
X0320288Y0078270D02*
X0282488Y0078270D01*
X0282488Y0078469D02*
X0320288Y0078469D01*
X0320288Y0078667D02*
X0282488Y0078667D01*
X0282488Y0078866D02*
X0320288Y0078866D01*
X0320288Y0079064D02*
X0282488Y0079064D01*
X0282488Y0079263D02*
X0320288Y0079263D01*
X0320288Y0079461D02*
X0282488Y0079461D01*
X0282488Y0079660D02*
X0320288Y0079660D01*
X0320288Y0079858D02*
X0282488Y0079858D01*
X0282488Y0080057D02*
X0320288Y0080057D01*
X0320288Y0080255D02*
X0282488Y0080255D01*
X0282488Y0080454D02*
X0320288Y0080454D01*
X0320288Y0080652D02*
X0282488Y0080652D01*
X0282488Y0080851D02*
X0320288Y0080851D01*
X0320288Y0081049D02*
X0282488Y0081049D01*
X0282488Y0081248D02*
X0320288Y0081248D01*
X0320288Y0081446D02*
X0282488Y0081446D01*
X0282488Y0081645D02*
X0320288Y0081645D01*
X0320288Y0081843D02*
X0282488Y0081843D01*
X0282488Y0082042D02*
X0320288Y0082042D01*
X0320288Y0082240D02*
X0282488Y0082240D01*
X0282488Y0082439D02*
X0320288Y0082439D01*
X0320288Y0082637D02*
X0282488Y0082637D01*
X0282488Y0082836D02*
X0320288Y0082836D01*
X0315077Y0086012D02*
X0304698Y0086012D01*
X0304718Y0086000D02*
X0306248Y0085370D01*
X0307958Y0085010D01*
X0309848Y0084920D01*
X0312098Y0085100D01*
X0314258Y0085640D01*
X0316238Y0086540D01*
X0317948Y0087890D01*
X0319298Y0089690D01*
X0320378Y0091940D01*
X0321098Y0094640D01*
X0321368Y0097880D01*
X0321188Y0100760D01*
X0320648Y0103190D01*
X0319748Y0105260D01*
X0318488Y0106970D01*
X0316958Y0108230D01*
X0315158Y0109130D01*
X0312998Y0109670D01*
X0310568Y0109850D01*
X0309038Y0109850D01*
X0309038Y0101750D01*
X0311558Y0101570D01*
X0313358Y0100940D01*
X0313988Y0100400D01*
X0314438Y0099680D01*
X0314798Y0097790D01*
X0314528Y0096170D01*
X0313718Y0094820D01*
X0312458Y0093830D01*
X0310658Y0093470D01*
X0309308Y0093650D01*
X0308138Y0094280D01*
X0307058Y0095450D01*
X0306158Y0097340D01*
X0304178Y0102740D01*
X0303368Y0104720D01*
X0302378Y0106340D01*
X0301298Y0107690D01*
X0300128Y0108770D01*
X0298778Y0109580D01*
X0297158Y0110120D01*
X0295358Y0110480D01*
X0293288Y0110570D01*
X0290498Y0110300D01*
X0288068Y0109580D01*
X0285998Y0108410D01*
X0284378Y0106880D01*
X0283118Y0104990D01*
X0282308Y0102740D01*
X0281858Y0100220D01*
X0281678Y0097520D01*
X0281858Y0094010D01*
X0282398Y0091220D01*
X0283388Y0088970D01*
X0284738Y0087260D01*
X0286448Y0086000D01*
X0288518Y0085190D01*
X0290858Y0084740D01*
X0293468Y0084560D01*
X0294818Y0084560D01*
X0294818Y0092660D01*
X0293558Y0092660D01*
X0293738Y0092930D01*
X0291488Y0093200D01*
X0289778Y0094100D01*
X0288608Y0095540D01*
X0288248Y0097520D01*
X0288518Y0099410D01*
X0289328Y0100850D01*
X0290768Y0101750D01*
X0292748Y0102020D01*
X0294368Y0101750D01*
X0295538Y0101030D01*
X0296348Y0099950D01*
X0296978Y0098690D01*
X0299408Y0092390D01*
X0301118Y0089150D01*
X0302198Y0087890D01*
X0303368Y0086810D01*
X0304718Y0086000D01*
X0304368Y0086210D02*
X0315513Y0086210D01*
X0315950Y0086409D02*
X0304037Y0086409D01*
X0303706Y0086608D02*
X0316324Y0086608D01*
X0316575Y0086806D02*
X0303375Y0086806D01*
X0303158Y0087005D02*
X0316827Y0087005D01*
X0317078Y0087203D02*
X0302943Y0087203D01*
X0302728Y0087402D02*
X0317330Y0087402D01*
X0317581Y0087600D02*
X0302513Y0087600D01*
X0302297Y0087799D02*
X0317833Y0087799D01*
X0318029Y0087997D02*
X0302107Y0087997D01*
X0301936Y0088196D02*
X0318178Y0088196D01*
X0318327Y0088394D02*
X0301766Y0088394D01*
X0301596Y0088593D02*
X0318475Y0088593D01*
X0318624Y0088791D02*
X0301426Y0088791D01*
X0301256Y0088990D02*
X0318773Y0088990D01*
X0318922Y0089188D02*
X0301098Y0089188D01*
X0300994Y0089387D02*
X0319071Y0089387D01*
X0319220Y0089585D02*
X0300889Y0089585D01*
X0300784Y0089784D02*
X0319343Y0089784D01*
X0319439Y0089982D02*
X0300679Y0089982D01*
X0300574Y0090181D02*
X0319534Y0090181D01*
X0319629Y0090379D02*
X0300470Y0090379D01*
X0300365Y0090578D02*
X0319725Y0090578D01*
X0319820Y0090776D02*
X0300260Y0090776D01*
X0300155Y0090975D02*
X0319915Y0090975D01*
X0320010Y0091173D02*
X0300051Y0091173D01*
X0299946Y0091372D02*
X0320106Y0091372D01*
X0320201Y0091570D02*
X0299841Y0091570D01*
X0299736Y0091769D02*
X0320296Y0091769D01*
X0320386Y0091967D02*
X0299632Y0091967D01*
X0299527Y0092166D02*
X0320439Y0092166D01*
X0320492Y0092364D02*
X0299422Y0092364D01*
X0299342Y0092563D02*
X0320545Y0092563D01*
X0320597Y0092761D02*
X0299265Y0092761D01*
X0299189Y0092960D02*
X0320650Y0092960D01*
X0320703Y0093158D02*
X0299112Y0093158D01*
X0299035Y0093357D02*
X0320756Y0093357D01*
X0320809Y0093555D02*
X0311085Y0093555D01*
X0312078Y0093754D02*
X0320862Y0093754D01*
X0320915Y0093952D02*
X0312614Y0093952D01*
X0312867Y0094151D02*
X0320968Y0094151D01*
X0321021Y0094349D02*
X0313120Y0094349D01*
X0313372Y0094548D02*
X0321074Y0094548D01*
X0321107Y0094746D02*
X0313625Y0094746D01*
X0313793Y0094945D02*
X0321124Y0094945D01*
X0321140Y0095143D02*
X0313913Y0095143D01*
X0314032Y0095342D02*
X0321157Y0095342D01*
X0321173Y0095541D02*
X0314151Y0095541D01*
X0314270Y0095739D02*
X0321190Y0095739D01*
X0321207Y0095938D02*
X0314389Y0095938D01*
X0314508Y0096136D02*
X0321223Y0096136D01*
X0321240Y0096335D02*
X0314556Y0096335D01*
X0314589Y0096533D02*
X0321256Y0096533D01*
X0321273Y0096732D02*
X0314622Y0096732D01*
X0314655Y0096930D02*
X0321289Y0096930D01*
X0321306Y0097129D02*
X0314688Y0097129D01*
X0314721Y0097327D02*
X0321322Y0097327D01*
X0321339Y0097526D02*
X0314754Y0097526D01*
X0314787Y0097724D02*
X0321355Y0097724D01*
X0321366Y0097923D02*
X0314773Y0097923D01*
X0314735Y0098121D02*
X0321353Y0098121D01*
X0321341Y0098320D02*
X0314698Y0098320D01*
X0314660Y0098518D02*
X0321329Y0098518D01*
X0321316Y0098717D02*
X0314622Y0098717D01*
X0314584Y0098915D02*
X0321304Y0098915D01*
X0321291Y0099114D02*
X0314546Y0099114D01*
X0314508Y0099312D02*
X0321279Y0099312D01*
X0321267Y0099511D02*
X0314471Y0099511D01*
X0314420Y0099709D02*
X0321254Y0099709D01*
X0321242Y0099908D02*
X0314296Y0099908D01*
X0314172Y0100106D02*
X0321229Y0100106D01*
X0321217Y0100305D02*
X0314048Y0100305D01*
X0313868Y0100503D02*
X0321204Y0100503D01*
X0321192Y0100702D02*
X0313636Y0100702D01*
X0313405Y0100900D02*
X0321157Y0100900D01*
X0321113Y0101099D02*
X0312905Y0101099D01*
X0312337Y0101297D02*
X0321069Y0101297D01*
X0321025Y0101496D02*
X0311770Y0101496D01*
X0309817Y0101694D02*
X0320981Y0101694D01*
X0320937Y0101893D02*
X0309038Y0101893D01*
X0309038Y0102091D02*
X0320893Y0102091D01*
X0320848Y0102290D02*
X0309038Y0102290D01*
X0309038Y0102488D02*
X0320804Y0102488D01*
X0320760Y0102687D02*
X0309038Y0102687D01*
X0309038Y0102885D02*
X0320716Y0102885D01*
X0320672Y0103084D02*
X0309038Y0103084D01*
X0309038Y0103282D02*
X0320608Y0103282D01*
X0320522Y0103481D02*
X0309038Y0103481D01*
X0309038Y0103679D02*
X0320436Y0103679D01*
X0320349Y0103878D02*
X0309038Y0103878D01*
X0309038Y0104077D02*
X0320263Y0104077D01*
X0320177Y0104275D02*
X0309038Y0104275D01*
X0309038Y0104474D02*
X0320090Y0104474D01*
X0320004Y0104672D02*
X0309038Y0104672D01*
X0309038Y0104871D02*
X0319918Y0104871D01*
X0319831Y0105069D02*
X0309038Y0105069D01*
X0309038Y0105268D02*
X0319743Y0105268D01*
X0319597Y0105466D02*
X0309038Y0105466D01*
X0309038Y0105665D02*
X0319450Y0105665D01*
X0319304Y0105863D02*
X0309038Y0105863D01*
X0309038Y0106062D02*
X0319158Y0106062D01*
X0319012Y0106260D02*
X0309038Y0106260D01*
X0309038Y0106459D02*
X0318865Y0106459D01*
X0318719Y0106657D02*
X0309038Y0106657D01*
X0309038Y0106856D02*
X0318573Y0106856D01*
X0318386Y0107054D02*
X0309038Y0107054D01*
X0309038Y0107253D02*
X0318145Y0107253D01*
X0317904Y0107451D02*
X0309038Y0107451D01*
X0309038Y0107650D02*
X0317663Y0107650D01*
X0317422Y0107848D02*
X0309038Y0107848D01*
X0309038Y0108047D02*
X0317181Y0108047D01*
X0316928Y0108245D02*
X0309038Y0108245D01*
X0309038Y0108444D02*
X0316531Y0108444D01*
X0316134Y0108642D02*
X0309038Y0108642D01*
X0309038Y0108841D02*
X0315737Y0108841D01*
X0315340Y0109039D02*
X0309038Y0109039D01*
X0309038Y0109238D02*
X0314727Y0109238D01*
X0313933Y0109436D02*
X0309038Y0109436D01*
X0309038Y0109635D02*
X0313139Y0109635D01*
X0310793Y0109833D02*
X0309038Y0109833D01*
X0301648Y0107253D02*
X0284773Y0107253D01*
X0284983Y0107451D02*
X0301489Y0107451D01*
X0301331Y0107650D02*
X0285193Y0107650D01*
X0285404Y0107848D02*
X0301127Y0107848D01*
X0300912Y0108047D02*
X0285614Y0108047D01*
X0285824Y0108245D02*
X0300697Y0108245D01*
X0300482Y0108444D02*
X0286058Y0108444D01*
X0286409Y0108642D02*
X0300267Y0108642D01*
X0300010Y0108841D02*
X0286761Y0108841D01*
X0287112Y0109039D02*
X0299680Y0109039D01*
X0299349Y0109238D02*
X0287463Y0109238D01*
X0287814Y0109436D02*
X0299018Y0109436D01*
X0298614Y0109635D02*
X0288253Y0109635D01*
X0288923Y0109833D02*
X0298018Y0109833D01*
X0297423Y0110032D02*
X0289593Y0110032D01*
X0290263Y0110230D02*
X0296607Y0110230D01*
X0295614Y0110429D02*
X0291830Y0110429D01*
X0284563Y0107054D02*
X0301807Y0107054D01*
X0301966Y0106856D02*
X0284362Y0106856D01*
X0284230Y0106657D02*
X0302125Y0106657D01*
X0302284Y0106459D02*
X0284098Y0106459D01*
X0283965Y0106260D02*
X0302427Y0106260D01*
X0302549Y0106062D02*
X0283833Y0106062D01*
X0283701Y0105863D02*
X0302670Y0105863D01*
X0302791Y0105665D02*
X0283568Y0105665D01*
X0283436Y0105466D02*
X0302913Y0105466D01*
X0303034Y0105268D02*
X0283303Y0105268D01*
X0283171Y0105069D02*
X0303155Y0105069D01*
X0303276Y0104871D02*
X0283075Y0104871D01*
X0283004Y0104672D02*
X0303388Y0104672D01*
X0303469Y0104474D02*
X0282933Y0104474D01*
X0282861Y0104275D02*
X0303550Y0104275D01*
X0303632Y0104077D02*
X0282790Y0104077D01*
X0282718Y0103878D02*
X0303713Y0103878D01*
X0303794Y0103679D02*
X0282647Y0103679D01*
X0282575Y0103481D02*
X0303875Y0103481D01*
X0303957Y0103282D02*
X0282504Y0103282D01*
X0282432Y0103084D02*
X0304038Y0103084D01*
X0304119Y0102885D02*
X0282361Y0102885D01*
X0282299Y0102687D02*
X0304198Y0102687D01*
X0304271Y0102488D02*
X0282264Y0102488D01*
X0282228Y0102290D02*
X0304343Y0102290D01*
X0304416Y0102091D02*
X0282193Y0102091D01*
X0282157Y0101893D02*
X0291816Y0101893D01*
X0290679Y0101694D02*
X0282122Y0101694D01*
X0282086Y0101496D02*
X0290362Y0101496D01*
X0290044Y0101297D02*
X0282051Y0101297D01*
X0282015Y0101099D02*
X0289727Y0101099D01*
X0289409Y0100900D02*
X0281980Y0100900D01*
X0281944Y0100702D02*
X0289245Y0100702D01*
X0289133Y0100503D02*
X0281909Y0100503D01*
X0281874Y0100305D02*
X0289022Y0100305D01*
X0288910Y0100106D02*
X0281851Y0100106D01*
X0281838Y0099908D02*
X0288798Y0099908D01*
X0288687Y0099709D02*
X0281824Y0099709D01*
X0281811Y0099511D02*
X0288575Y0099511D01*
X0288504Y0099312D02*
X0281798Y0099312D01*
X0281785Y0099114D02*
X0288476Y0099114D01*
X0288448Y0098915D02*
X0281771Y0098915D01*
X0281758Y0098717D02*
X0288419Y0098717D01*
X0288391Y0098518D02*
X0281745Y0098518D01*
X0281732Y0098320D02*
X0288363Y0098320D01*
X0288334Y0098121D02*
X0281719Y0098121D01*
X0281705Y0097923D02*
X0288306Y0097923D01*
X0288278Y0097724D02*
X0281692Y0097724D01*
X0281679Y0097526D02*
X0288249Y0097526D01*
X0288284Y0097327D02*
X0281688Y0097327D01*
X0281698Y0097129D02*
X0288320Y0097129D01*
X0288356Y0096930D02*
X0281709Y0096930D01*
X0281719Y0096732D02*
X0288392Y0096732D01*
X0288428Y0096533D02*
X0281729Y0096533D01*
X0281739Y0096335D02*
X0288464Y0096335D01*
X0288500Y0096136D02*
X0281749Y0096136D01*
X0281760Y0095938D02*
X0288536Y0095938D01*
X0288572Y0095739D02*
X0281770Y0095739D01*
X0281780Y0095541D02*
X0288608Y0095541D01*
X0288769Y0095342D02*
X0281790Y0095342D01*
X0281800Y0095143D02*
X0288931Y0095143D01*
X0289092Y0094945D02*
X0281810Y0094945D01*
X0281821Y0094746D02*
X0289253Y0094746D01*
X0289414Y0094548D02*
X0281831Y0094548D01*
X0281841Y0094349D02*
X0289576Y0094349D01*
X0289737Y0094151D02*
X0281851Y0094151D01*
X0281870Y0093952D02*
X0290059Y0093952D01*
X0290436Y0093754D02*
X0281908Y0093754D01*
X0281946Y0093555D02*
X0290813Y0093555D01*
X0291190Y0093357D02*
X0281985Y0093357D01*
X0282023Y0093158D02*
X0291835Y0093158D01*
X0293490Y0092960D02*
X0282062Y0092960D01*
X0282100Y0092761D02*
X0293626Y0092761D01*
X0294818Y0092563D02*
X0282139Y0092563D01*
X0282177Y0092364D02*
X0294818Y0092364D01*
X0294818Y0092166D02*
X0282215Y0092166D01*
X0282254Y0091967D02*
X0294818Y0091967D01*
X0294818Y0091769D02*
X0282292Y0091769D01*
X0282331Y0091570D02*
X0294818Y0091570D01*
X0294818Y0091372D02*
X0282369Y0091372D01*
X0282419Y0091173D02*
X0294818Y0091173D01*
X0294818Y0090975D02*
X0282506Y0090975D01*
X0282594Y0090776D02*
X0294818Y0090776D01*
X0294818Y0090578D02*
X0282681Y0090578D01*
X0282768Y0090379D02*
X0294818Y0090379D01*
X0294818Y0090181D02*
X0282856Y0090181D01*
X0282943Y0089982D02*
X0294818Y0089982D01*
X0294818Y0089784D02*
X0283030Y0089784D01*
X0283118Y0089585D02*
X0294818Y0089585D01*
X0294818Y0089387D02*
X0283205Y0089387D01*
X0283292Y0089188D02*
X0294818Y0089188D01*
X0294818Y0088990D02*
X0283380Y0088990D01*
X0283530Y0088791D02*
X0294818Y0088791D01*
X0294818Y0088593D02*
X0283686Y0088593D01*
X0283843Y0088394D02*
X0294818Y0088394D01*
X0294818Y0088196D02*
X0284000Y0088196D01*
X0284157Y0087997D02*
X0294818Y0087997D01*
X0294818Y0087799D02*
X0284313Y0087799D01*
X0284470Y0087600D02*
X0294818Y0087600D01*
X0294818Y0087402D02*
X0284627Y0087402D01*
X0284816Y0087203D02*
X0294818Y0087203D01*
X0294818Y0087005D02*
X0285085Y0087005D01*
X0285355Y0086806D02*
X0294818Y0086806D01*
X0294818Y0086608D02*
X0285624Y0086608D01*
X0285893Y0086409D02*
X0294818Y0086409D01*
X0294818Y0086210D02*
X0286163Y0086210D01*
X0286432Y0086012D02*
X0294818Y0086012D01*
X0294818Y0085813D02*
X0286925Y0085813D01*
X0287432Y0085615D02*
X0294818Y0085615D01*
X0294818Y0085416D02*
X0287940Y0085416D01*
X0288447Y0085218D02*
X0294818Y0085218D01*
X0294818Y0085019D02*
X0289405Y0085019D01*
X0290438Y0084821D02*
X0294818Y0084821D01*
X0294818Y0084622D02*
X0292564Y0084622D01*
X0279338Y0079970D02*
X0279338Y0070970D01*
X0271058Y0070970D01*
X0271058Y0079970D01*
X0279338Y0079970D01*
X0279338Y0079858D02*
X0271058Y0079858D01*
X0271058Y0079660D02*
X0279338Y0079660D01*
X0279338Y0079461D02*
X0271058Y0079461D01*
X0271058Y0079263D02*
X0279338Y0079263D01*
X0279338Y0079064D02*
X0271058Y0079064D01*
X0271058Y0078866D02*
X0279338Y0078866D01*
X0279338Y0078667D02*
X0271058Y0078667D01*
X0271058Y0078469D02*
X0279338Y0078469D01*
X0279338Y0078270D02*
X0271058Y0078270D01*
X0271058Y0078072D02*
X0279338Y0078072D01*
X0279338Y0077873D02*
X0271058Y0077873D01*
X0271058Y0077674D02*
X0279338Y0077674D01*
X0279338Y0077476D02*
X0271058Y0077476D01*
X0271058Y0077277D02*
X0279338Y0077277D01*
X0279338Y0077079D02*
X0271058Y0077079D01*
X0271058Y0076880D02*
X0279338Y0076880D01*
X0279338Y0076682D02*
X0271058Y0076682D01*
X0271058Y0076483D02*
X0279338Y0076483D01*
X0279338Y0076285D02*
X0271058Y0076285D01*
X0271058Y0076086D02*
X0279338Y0076086D01*
X0279338Y0075888D02*
X0271058Y0075888D01*
X0271058Y0075689D02*
X0279338Y0075689D01*
X0279338Y0075491D02*
X0271058Y0075491D01*
X0271058Y0075292D02*
X0279338Y0075292D01*
X0279338Y0075094D02*
X0271058Y0075094D01*
X0271058Y0074895D02*
X0279338Y0074895D01*
X0279338Y0074697D02*
X0271058Y0074697D01*
X0271058Y0074498D02*
X0279338Y0074498D01*
X0279338Y0074300D02*
X0271058Y0074300D01*
X0271058Y0074101D02*
X0279338Y0074101D01*
X0279338Y0073903D02*
X0271058Y0073903D01*
X0271058Y0073704D02*
X0279338Y0073704D01*
X0279338Y0073506D02*
X0271058Y0073506D01*
X0271058Y0073307D02*
X0279338Y0073307D01*
X0279338Y0073109D02*
X0271058Y0073109D01*
X0271058Y0072910D02*
X0279338Y0072910D01*
X0279338Y0072712D02*
X0271058Y0072712D01*
X0271058Y0072513D02*
X0279338Y0072513D01*
X0279338Y0072315D02*
X0271058Y0072315D01*
X0271058Y0072116D02*
X0279338Y0072116D01*
X0279338Y0071918D02*
X0271058Y0071918D01*
X0271058Y0071719D02*
X0279338Y0071719D01*
X0279338Y0071521D02*
X0271058Y0071521D01*
X0271058Y0071322D02*
X0279338Y0071322D01*
X0279338Y0071124D02*
X0271058Y0071124D01*
X0266378Y0071124D02*
X0228578Y0071124D01*
X0228578Y0070970D02*
X0266378Y0070970D01*
X0266378Y0079970D01*
X0228578Y0079970D01*
X0228578Y0070970D01*
X0228578Y0071322D02*
X0266378Y0071322D01*
X0266378Y0071521D02*
X0228578Y0071521D01*
X0228578Y0071719D02*
X0266378Y0071719D01*
X0266378Y0071918D02*
X0228578Y0071918D01*
X0228578Y0072116D02*
X0266378Y0072116D01*
X0266378Y0072315D02*
X0228578Y0072315D01*
X0228578Y0072513D02*
X0266378Y0072513D01*
X0266378Y0072712D02*
X0228578Y0072712D01*
X0228578Y0072910D02*
X0266378Y0072910D01*
X0266378Y0073109D02*
X0228578Y0073109D01*
X0228578Y0073307D02*
X0266378Y0073307D01*
X0266378Y0073506D02*
X0228578Y0073506D01*
X0228578Y0073704D02*
X0266378Y0073704D01*
X0266378Y0073903D02*
X0228578Y0073903D01*
X0228578Y0074101D02*
X0266378Y0074101D01*
X0266378Y0074300D02*
X0228578Y0074300D01*
X0228578Y0074498D02*
X0266378Y0074498D01*
X0266378Y0074697D02*
X0228578Y0074697D01*
X0228578Y0074895D02*
X0266378Y0074895D01*
X0266378Y0075094D02*
X0228578Y0075094D01*
X0228578Y0075292D02*
X0266378Y0075292D01*
X0266378Y0075491D02*
X0228578Y0075491D01*
X0228578Y0075689D02*
X0266378Y0075689D01*
X0266378Y0075888D02*
X0228578Y0075888D01*
X0228578Y0076086D02*
X0266378Y0076086D01*
X0266378Y0076285D02*
X0228578Y0076285D01*
X0228578Y0076483D02*
X0266378Y0076483D01*
X0266378Y0076682D02*
X0228578Y0076682D01*
X0228578Y0076880D02*
X0266378Y0076880D01*
X0266378Y0077079D02*
X0228578Y0077079D01*
X0228578Y0077277D02*
X0266378Y0077277D01*
X0266378Y0077476D02*
X0228578Y0077476D01*
X0228578Y0077674D02*
X0266378Y0077674D01*
X0266378Y0077873D02*
X0228578Y0077873D01*
X0228578Y0078072D02*
X0266378Y0078072D01*
X0266378Y0078270D02*
X0228578Y0078270D01*
X0228578Y0078469D02*
X0266378Y0078469D01*
X0266378Y0078667D02*
X0228578Y0078667D01*
X0228578Y0078866D02*
X0266378Y0078866D01*
X0266378Y0079064D02*
X0228578Y0079064D01*
X0228578Y0079263D02*
X0266378Y0079263D01*
X0266378Y0079461D02*
X0228578Y0079461D01*
X0228578Y0079660D02*
X0266378Y0079660D01*
X0266378Y0079858D02*
X0228578Y0079858D01*
X0228848Y0085190D02*
X0266648Y0085190D01*
X0266648Y0093830D01*
X0266378Y0093650D01*
X0261968Y0093650D01*
X0261968Y0093830D01*
X0264398Y0095450D01*
X0266108Y0097520D01*
X0267098Y0099950D01*
X0267458Y0102740D01*
X0267278Y0104810D01*
X0266828Y0106610D01*
X0266018Y0108140D01*
X0264938Y0109400D01*
X0263498Y0110390D01*
X0261608Y0111110D01*
X0259358Y0111560D01*
X0256748Y0111740D01*
X0228668Y0111740D01*
X0228668Y0102740D01*
X0254768Y0102740D01*
X0257288Y0102470D01*
X0258908Y0101750D01*
X0259808Y0100580D01*
X0260078Y0098870D01*
X0259718Y0096800D01*
X0259268Y0095990D01*
X0258548Y0095360D01*
X0256568Y0094460D01*
X0253868Y0094190D01*
X0228848Y0094190D01*
X0228848Y0085190D01*
X0228848Y0085218D02*
X0266648Y0085218D01*
X0266648Y0085416D02*
X0228848Y0085416D01*
X0228848Y0085615D02*
X0266648Y0085615D01*
X0266648Y0085813D02*
X0228848Y0085813D01*
X0228848Y0086012D02*
X0266648Y0086012D01*
X0266648Y0086210D02*
X0228848Y0086210D01*
X0228848Y0086409D02*
X0266648Y0086409D01*
X0266648Y0086608D02*
X0228848Y0086608D01*
X0228848Y0086806D02*
X0266648Y0086806D01*
X0266648Y0087005D02*
X0228848Y0087005D01*
X0228848Y0087203D02*
X0266648Y0087203D01*
X0266648Y0087402D02*
X0228848Y0087402D01*
X0228848Y0087600D02*
X0266648Y0087600D01*
X0266648Y0087799D02*
X0228848Y0087799D01*
X0228848Y0087997D02*
X0266648Y0087997D01*
X0266648Y0088196D02*
X0228848Y0088196D01*
X0228848Y0088394D02*
X0266648Y0088394D01*
X0266648Y0088593D02*
X0228848Y0088593D01*
X0228848Y0088791D02*
X0266648Y0088791D01*
X0266648Y0088990D02*
X0228848Y0088990D01*
X0228848Y0089188D02*
X0266648Y0089188D01*
X0266648Y0089387D02*
X0228848Y0089387D01*
X0228848Y0089585D02*
X0266648Y0089585D01*
X0266648Y0089784D02*
X0228848Y0089784D01*
X0228848Y0089982D02*
X0266648Y0089982D01*
X0266648Y0090181D02*
X0228848Y0090181D01*
X0228848Y0090379D02*
X0266648Y0090379D01*
X0266648Y0090578D02*
X0228848Y0090578D01*
X0228848Y0090776D02*
X0266648Y0090776D01*
X0266648Y0090975D02*
X0228848Y0090975D01*
X0228848Y0091173D02*
X0266648Y0091173D01*
X0266648Y0091372D02*
X0228848Y0091372D01*
X0228848Y0091570D02*
X0266648Y0091570D01*
X0266648Y0091769D02*
X0228848Y0091769D01*
X0228848Y0091967D02*
X0266648Y0091967D01*
X0266648Y0092166D02*
X0228848Y0092166D01*
X0228848Y0092364D02*
X0266648Y0092364D01*
X0266648Y0092563D02*
X0228848Y0092563D01*
X0228848Y0092761D02*
X0266648Y0092761D01*
X0266648Y0092960D02*
X0228848Y0092960D01*
X0228848Y0093158D02*
X0266648Y0093158D01*
X0266648Y0093357D02*
X0228848Y0093357D01*
X0228848Y0093555D02*
X0266648Y0093555D01*
X0266648Y0093754D02*
X0266534Y0093754D01*
X0264473Y0095541D02*
X0258755Y0095541D01*
X0258982Y0095739D02*
X0264637Y0095739D01*
X0264801Y0095938D02*
X0259208Y0095938D01*
X0259350Y0096136D02*
X0264965Y0096136D01*
X0265129Y0096335D02*
X0259460Y0096335D01*
X0259570Y0096533D02*
X0265293Y0096533D01*
X0265457Y0096732D02*
X0259680Y0096732D01*
X0259741Y0096930D02*
X0265621Y0096930D01*
X0265785Y0097129D02*
X0259776Y0097129D01*
X0259810Y0097327D02*
X0265949Y0097327D01*
X0266111Y0097526D02*
X0259845Y0097526D01*
X0259879Y0097724D02*
X0266192Y0097724D01*
X0266272Y0097923D02*
X0259914Y0097923D01*
X0259948Y0098121D02*
X0266353Y0098121D01*
X0266434Y0098320D02*
X0259983Y0098320D01*
X0260017Y0098518D02*
X0266515Y0098518D01*
X0266596Y0098717D02*
X0260052Y0098717D01*
X0260071Y0098915D02*
X0266677Y0098915D01*
X0266758Y0099114D02*
X0260040Y0099114D01*
X0260009Y0099312D02*
X0266839Y0099312D01*
X0266919Y0099511D02*
X0259977Y0099511D01*
X0259946Y0099709D02*
X0267000Y0099709D01*
X0267081Y0099908D02*
X0259915Y0099908D01*
X0259883Y0100106D02*
X0267119Y0100106D01*
X0267144Y0100305D02*
X0259852Y0100305D01*
X0259821Y0100503D02*
X0267170Y0100503D01*
X0267195Y0100702D02*
X0259715Y0100702D01*
X0259562Y0100900D02*
X0267221Y0100900D01*
X0267247Y0101099D02*
X0259409Y0101099D01*
X0259257Y0101297D02*
X0267272Y0101297D01*
X0267298Y0101496D02*
X0259104Y0101496D01*
X0258951Y0101694D02*
X0267323Y0101694D01*
X0267349Y0101893D02*
X0258587Y0101893D01*
X0258140Y0102091D02*
X0267375Y0102091D01*
X0267400Y0102290D02*
X0257694Y0102290D01*
X0257117Y0102488D02*
X0267426Y0102488D01*
X0267452Y0102687D02*
X0255264Y0102687D01*
X0266593Y0107054D02*
X0228668Y0107054D01*
X0228668Y0106856D02*
X0266698Y0106856D01*
X0266803Y0106657D02*
X0228668Y0106657D01*
X0228668Y0106459D02*
X0266866Y0106459D01*
X0266916Y0106260D02*
X0228668Y0106260D01*
X0228668Y0106062D02*
X0266966Y0106062D01*
X0267015Y0105863D02*
X0228668Y0105863D01*
X0228668Y0105665D02*
X0267065Y0105665D01*
X0267114Y0105466D02*
X0228668Y0105466D01*
X0228668Y0105268D02*
X0267164Y0105268D01*
X0267214Y0105069D02*
X0228668Y0105069D01*
X0228668Y0104871D02*
X0267263Y0104871D01*
X0267290Y0104672D02*
X0228668Y0104672D01*
X0228668Y0104474D02*
X0267308Y0104474D01*
X0267325Y0104275D02*
X0228668Y0104275D01*
X0228668Y0104077D02*
X0267342Y0104077D01*
X0267359Y0103878D02*
X0228668Y0103878D01*
X0228668Y0103679D02*
X0267377Y0103679D01*
X0267394Y0103481D02*
X0228668Y0103481D01*
X0228668Y0103282D02*
X0267411Y0103282D01*
X0267429Y0103084D02*
X0228668Y0103084D01*
X0228668Y0102885D02*
X0267446Y0102885D01*
X0266488Y0107253D02*
X0228668Y0107253D01*
X0228668Y0107451D02*
X0266383Y0107451D01*
X0266278Y0107650D02*
X0228668Y0107650D01*
X0228668Y0107848D02*
X0266173Y0107848D01*
X0266068Y0108047D02*
X0228668Y0108047D01*
X0228668Y0108245D02*
X0265928Y0108245D01*
X0265758Y0108444D02*
X0228668Y0108444D01*
X0228668Y0108642D02*
X0265588Y0108642D01*
X0265418Y0108841D02*
X0228668Y0108841D01*
X0228668Y0109039D02*
X0265248Y0109039D01*
X0265077Y0109238D02*
X0228668Y0109238D01*
X0228668Y0109436D02*
X0264886Y0109436D01*
X0264597Y0109635D02*
X0228668Y0109635D01*
X0228668Y0109833D02*
X0264308Y0109833D01*
X0264019Y0110032D02*
X0228668Y0110032D01*
X0228668Y0110230D02*
X0263731Y0110230D01*
X0263396Y0110429D02*
X0228668Y0110429D01*
X0228668Y0110627D02*
X0262875Y0110627D01*
X0262354Y0110826D02*
X0228668Y0110826D01*
X0228668Y0111024D02*
X0261833Y0111024D01*
X0261044Y0111223D02*
X0228668Y0111223D01*
X0228668Y0111421D02*
X0260051Y0111421D01*
X0258489Y0111620D02*
X0228668Y0111620D01*
X0224708Y0111620D02*
X0174668Y0111620D01*
X0174668Y0111740D02*
X0224708Y0111740D01*
X0224708Y0102740D01*
X0224798Y0102650D01*
X0208958Y0102650D01*
X0208958Y0102560D01*
X0210938Y0101030D01*
X0212378Y0099320D01*
X0213098Y0097700D01*
X0206078Y0097700D01*
X0206078Y0097970D01*
X0205898Y0099320D01*
X0205268Y0100400D01*
X0204278Y0101210D01*
X0202928Y0101750D01*
X0199058Y0102380D01*
X0193658Y0102560D01*
X0188258Y0102380D01*
X0184388Y0101750D01*
X0183038Y0101210D01*
X0182048Y0100400D01*
X0181418Y0099320D01*
X0181238Y0097970D01*
X0181238Y0097700D01*
X0174308Y0097700D01*
X0175028Y0099590D01*
X0176468Y0101390D01*
X0178718Y0103010D01*
X0178718Y0103100D01*
X0174668Y0103100D01*
X0174668Y0111740D01*
X0174668Y0111421D02*
X0224708Y0111421D01*
X0224708Y0111223D02*
X0174668Y0111223D01*
X0174668Y0111024D02*
X0224708Y0111024D01*
X0224708Y0110826D02*
X0174668Y0110826D01*
X0174668Y0110627D02*
X0224708Y0110627D01*
X0224708Y0110429D02*
X0174668Y0110429D01*
X0174668Y0110230D02*
X0224708Y0110230D01*
X0224708Y0110032D02*
X0174668Y0110032D01*
X0174668Y0109833D02*
X0224708Y0109833D01*
X0224708Y0109635D02*
X0174668Y0109635D01*
X0174668Y0109436D02*
X0224708Y0109436D01*
X0224708Y0109238D02*
X0174668Y0109238D01*
X0174668Y0109039D02*
X0224708Y0109039D01*
X0224708Y0108841D02*
X0174668Y0108841D01*
X0174668Y0108642D02*
X0224708Y0108642D01*
X0224708Y0108444D02*
X0174668Y0108444D01*
X0174668Y0108245D02*
X0224708Y0108245D01*
X0224708Y0108047D02*
X0174668Y0108047D01*
X0174668Y0107848D02*
X0224708Y0107848D01*
X0224708Y0107650D02*
X0174668Y0107650D01*
X0174668Y0107451D02*
X0224708Y0107451D01*
X0224708Y0107253D02*
X0174668Y0107253D01*
X0174668Y0107054D02*
X0224708Y0107054D01*
X0224708Y0106856D02*
X0174668Y0106856D01*
X0174668Y0106657D02*
X0224708Y0106657D01*
X0224708Y0106459D02*
X0174668Y0106459D01*
X0174668Y0106260D02*
X0224708Y0106260D01*
X0224708Y0106062D02*
X0174668Y0106062D01*
X0174668Y0105863D02*
X0224708Y0105863D01*
X0224708Y0105665D02*
X0174668Y0105665D01*
X0174668Y0105466D02*
X0224708Y0105466D01*
X0224708Y0105268D02*
X0174668Y0105268D01*
X0174668Y0105069D02*
X0224708Y0105069D01*
X0224708Y0104871D02*
X0174668Y0104871D01*
X0174668Y0104672D02*
X0224708Y0104672D01*
X0224708Y0104474D02*
X0174668Y0104474D01*
X0174668Y0104275D02*
X0224708Y0104275D01*
X0224708Y0104077D02*
X0174668Y0104077D01*
X0174668Y0103878D02*
X0224708Y0103878D01*
X0224708Y0103679D02*
X0174668Y0103679D01*
X0174668Y0103481D02*
X0224708Y0103481D01*
X0224708Y0103282D02*
X0174668Y0103282D01*
X0176394Y0101297D02*
X0183257Y0101297D01*
X0182903Y0101099D02*
X0176235Y0101099D01*
X0176077Y0100900D02*
X0182660Y0100900D01*
X0182417Y0100702D02*
X0175918Y0100702D01*
X0175759Y0100503D02*
X0182175Y0100503D01*
X0181993Y0100305D02*
X0175600Y0100305D01*
X0175441Y0100106D02*
X0181877Y0100106D01*
X0181761Y0099908D02*
X0175283Y0099908D01*
X0175124Y0099709D02*
X0181645Y0099709D01*
X0181530Y0099511D02*
X0174998Y0099511D01*
X0174923Y0099312D02*
X0181417Y0099312D01*
X0181391Y0099114D02*
X0174847Y0099114D01*
X0174771Y0098915D02*
X0181364Y0098915D01*
X0181338Y0098717D02*
X0174696Y0098717D01*
X0174620Y0098518D02*
X0181312Y0098518D01*
X0181285Y0098320D02*
X0174544Y0098320D01*
X0174469Y0098121D02*
X0181259Y0098121D01*
X0181238Y0097923D02*
X0174393Y0097923D01*
X0174318Y0097724D02*
X0181238Y0097724D01*
X0181148Y0097610D02*
X0181328Y0096530D01*
X0181958Y0095450D01*
X0182948Y0094640D01*
X0184298Y0094100D01*
X0188168Y0093470D01*
X0193568Y0093290D01*
X0198968Y0093470D01*
X0202838Y0094100D01*
X0204188Y0094640D01*
X0205178Y0095450D01*
X0205808Y0096530D01*
X0205988Y0097610D01*
X0213008Y0097610D01*
X0213188Y0097250D01*
X0213458Y0094910D01*
X0213188Y0092300D01*
X0212288Y0090050D01*
X0210848Y0088160D01*
X0208778Y0086630D01*
X0206078Y0085460D01*
X0202658Y0084650D01*
X0198518Y0084200D01*
X0193658Y0084020D01*
X0188798Y0084200D01*
X0184658Y0084650D01*
X0181238Y0085460D01*
X0178538Y0086630D01*
X0176558Y0088160D01*
X0175118Y0090050D01*
X0174308Y0092300D01*
X0174038Y0094910D01*
X0174308Y0097430D01*
X0174398Y0097610D01*
X0174218Y0097610D01*
X0181148Y0097610D01*
X0181162Y0097526D02*
X0174356Y0097526D01*
X0174297Y0097327D02*
X0181196Y0097327D01*
X0181229Y0097129D02*
X0174276Y0097129D01*
X0174255Y0096930D02*
X0181262Y0096930D01*
X0181295Y0096732D02*
X0174234Y0096732D01*
X0174212Y0096533D02*
X0181328Y0096533D01*
X0181442Y0096335D02*
X0174191Y0096335D01*
X0174170Y0096136D02*
X0181558Y0096136D01*
X0181674Y0095938D02*
X0174149Y0095938D01*
X0174127Y0095739D02*
X0181790Y0095739D01*
X0181906Y0095541D02*
X0174106Y0095541D01*
X0174085Y0095342D02*
X0182090Y0095342D01*
X0182333Y0095143D02*
X0174063Y0095143D01*
X0174042Y0094945D02*
X0182576Y0094945D01*
X0182818Y0094746D02*
X0174055Y0094746D01*
X0174076Y0094548D02*
X0183179Y0094548D01*
X0183675Y0094349D02*
X0174096Y0094349D01*
X0174117Y0094151D02*
X0184171Y0094151D01*
X0185205Y0093952D02*
X0174137Y0093952D01*
X0174158Y0093754D02*
X0186424Y0093754D01*
X0187644Y0093555D02*
X0174179Y0093555D01*
X0174199Y0093357D02*
X0191562Y0093357D01*
X0195575Y0093357D02*
X0213298Y0093357D01*
X0213318Y0093555D02*
X0199493Y0093555D01*
X0200712Y0093754D02*
X0213339Y0093754D01*
X0213359Y0093952D02*
X0201932Y0093952D01*
X0202966Y0094151D02*
X0213380Y0094151D01*
X0213400Y0094349D02*
X0203462Y0094349D01*
X0203958Y0094548D02*
X0213421Y0094548D01*
X0213442Y0094746D02*
X0204319Y0094746D01*
X0204561Y0094945D02*
X0213454Y0094945D01*
X0213431Y0095143D02*
X0204804Y0095143D01*
X0205046Y0095342D02*
X0213409Y0095342D01*
X0213386Y0095541D02*
X0205231Y0095541D01*
X0205347Y0095739D02*
X0213363Y0095739D01*
X0213340Y0095938D02*
X0205463Y0095938D01*
X0205579Y0096136D02*
X0213317Y0096136D01*
X0213294Y0096335D02*
X0205694Y0096335D01*
X0205809Y0096533D02*
X0213271Y0096533D01*
X0213248Y0096732D02*
X0205842Y0096732D01*
X0205875Y0096930D02*
X0213225Y0096930D01*
X0213202Y0097129D02*
X0205908Y0097129D01*
X0205941Y0097327D02*
X0213150Y0097327D01*
X0213051Y0097526D02*
X0205974Y0097526D01*
X0206078Y0097724D02*
X0213088Y0097724D01*
X0212999Y0097923D02*
X0206078Y0097923D01*
X0206058Y0098121D02*
X0212911Y0098121D01*
X0212823Y0098320D02*
X0206032Y0098320D01*
X0206005Y0098518D02*
X0212735Y0098518D01*
X0212647Y0098717D02*
X0205979Y0098717D01*
X0205952Y0098915D02*
X0212558Y0098915D01*
X0212470Y0099114D02*
X0205926Y0099114D01*
X0205899Y0099312D02*
X0212382Y0099312D01*
X0212218Y0099511D02*
X0205787Y0099511D01*
X0205671Y0099709D02*
X0212051Y0099709D01*
X0211883Y0099908D02*
X0205556Y0099908D01*
X0205440Y0100106D02*
X0211716Y0100106D01*
X0211549Y0100305D02*
X0205324Y0100305D01*
X0205142Y0100503D02*
X0211382Y0100503D01*
X0211215Y0100702D02*
X0204900Y0100702D01*
X0204657Y0100900D02*
X0211048Y0100900D01*
X0210849Y0101099D02*
X0204414Y0101099D01*
X0204060Y0101297D02*
X0210592Y0101297D01*
X0210336Y0101496D02*
X0203564Y0101496D01*
X0203068Y0101694D02*
X0210079Y0101694D01*
X0209822Y0101893D02*
X0202051Y0101893D01*
X0200831Y0102091D02*
X0209565Y0102091D01*
X0209308Y0102290D02*
X0199612Y0102290D01*
X0195806Y0102488D02*
X0209051Y0102488D01*
X0224708Y0102885D02*
X0178545Y0102885D01*
X0178718Y0103084D02*
X0224708Y0103084D01*
X0224762Y0102687D02*
X0178270Y0102687D01*
X0177994Y0102488D02*
X0191511Y0102488D01*
X0187705Y0102290D02*
X0177718Y0102290D01*
X0177443Y0102091D02*
X0186486Y0102091D01*
X0185266Y0101893D02*
X0177167Y0101893D01*
X0176891Y0101694D02*
X0184249Y0101694D01*
X0183753Y0101496D02*
X0176615Y0101496D01*
X0174220Y0093158D02*
X0213277Y0093158D01*
X0213257Y0092960D02*
X0174240Y0092960D01*
X0174261Y0092761D02*
X0213236Y0092761D01*
X0213216Y0092563D02*
X0174281Y0092563D01*
X0174302Y0092364D02*
X0213195Y0092364D01*
X0213135Y0092166D02*
X0174357Y0092166D01*
X0174428Y0091967D02*
X0213055Y0091967D01*
X0212976Y0091769D02*
X0174500Y0091769D01*
X0174571Y0091570D02*
X0212897Y0091570D01*
X0212817Y0091372D02*
X0174643Y0091372D01*
X0174714Y0091173D02*
X0212738Y0091173D01*
X0212658Y0090975D02*
X0174786Y0090975D01*
X0174857Y0090776D02*
X0212579Y0090776D01*
X0212500Y0090578D02*
X0174928Y0090578D01*
X0175000Y0090379D02*
X0212420Y0090379D01*
X0212341Y0090181D02*
X0175071Y0090181D01*
X0175170Y0089982D02*
X0212237Y0089982D01*
X0212086Y0089784D02*
X0175321Y0089784D01*
X0175473Y0089585D02*
X0211934Y0089585D01*
X0211783Y0089387D02*
X0175624Y0089387D01*
X0175775Y0089188D02*
X0211632Y0089188D01*
X0211481Y0088990D02*
X0175926Y0088990D01*
X0176078Y0088791D02*
X0211329Y0088791D01*
X0211178Y0088593D02*
X0176229Y0088593D01*
X0176380Y0088394D02*
X0211027Y0088394D01*
X0210876Y0088196D02*
X0176531Y0088196D01*
X0176769Y0087997D02*
X0210628Y0087997D01*
X0210359Y0087799D02*
X0177026Y0087799D01*
X0177283Y0087600D02*
X0210091Y0087600D01*
X0209822Y0087402D02*
X0177540Y0087402D01*
X0177797Y0087203D02*
X0209554Y0087203D01*
X0209285Y0087005D02*
X0178054Y0087005D01*
X0178311Y0086806D02*
X0209017Y0086806D01*
X0208727Y0086608D02*
X0178590Y0086608D01*
X0179048Y0086409D02*
X0208268Y0086409D01*
X0207810Y0086210D02*
X0179507Y0086210D01*
X0179965Y0086012D02*
X0207352Y0086012D01*
X0206894Y0085813D02*
X0180423Y0085813D01*
X0180881Y0085615D02*
X0206436Y0085615D01*
X0205894Y0085416D02*
X0181422Y0085416D01*
X0182261Y0085218D02*
X0205056Y0085218D01*
X0204218Y0085019D02*
X0183099Y0085019D01*
X0183937Y0084821D02*
X0203380Y0084821D01*
X0202404Y0084622D02*
X0184912Y0084622D01*
X0186739Y0084424D02*
X0200578Y0084424D01*
X0198752Y0084225D02*
X0188565Y0084225D01*
X0188648Y0082637D02*
X0198453Y0082637D01*
X0200240Y0082439D02*
X0187193Y0082439D01*
X0185737Y0082240D02*
X0202026Y0082240D01*
X0202886Y0082042D02*
X0184624Y0082042D01*
X0183938Y0081843D02*
X0203640Y0081843D01*
X0204394Y0081645D02*
X0183252Y0081645D01*
X0182566Y0081446D02*
X0205149Y0081446D01*
X0205778Y0081248D02*
X0181880Y0081248D01*
X0181332Y0081049D02*
X0206188Y0081049D01*
X0206598Y0080851D02*
X0180948Y0080851D01*
X0180563Y0080652D02*
X0207009Y0080652D01*
X0207419Y0080454D02*
X0180179Y0080454D01*
X0179794Y0080255D02*
X0207829Y0080255D01*
X0208239Y0080057D02*
X0179409Y0080057D01*
X0179025Y0079858D02*
X0208553Y0079858D01*
X0208791Y0079660D02*
X0178672Y0079660D01*
X0178445Y0079461D02*
X0209029Y0079461D01*
X0209267Y0079263D02*
X0178219Y0079263D01*
X0177992Y0079064D02*
X0209506Y0079064D01*
X0209744Y0078866D02*
X0177765Y0078866D01*
X0177538Y0078667D02*
X0209982Y0078667D01*
X0210220Y0078469D02*
X0177311Y0078469D01*
X0177084Y0078270D02*
X0210458Y0078270D01*
X0210640Y0078072D02*
X0176857Y0078072D01*
X0176630Y0077873D02*
X0210765Y0077873D01*
X0210890Y0077674D02*
X0176473Y0077674D01*
X0176348Y0077476D02*
X0211015Y0077476D01*
X0211140Y0077277D02*
X0176223Y0077277D01*
X0176098Y0077079D02*
X0211265Y0077079D01*
X0211390Y0076880D02*
X0175973Y0076880D01*
X0175848Y0076682D02*
X0211515Y0076682D01*
X0211640Y0076483D02*
X0175723Y0076483D01*
X0175598Y0076285D02*
X0211765Y0076285D01*
X0211890Y0076086D02*
X0175473Y0076086D01*
X0175348Y0075888D02*
X0212015Y0075888D01*
X0212123Y0075689D02*
X0175223Y0075689D01*
X0175098Y0075491D02*
X0212182Y0075491D01*
X0212240Y0075292D02*
X0175002Y0075292D01*
X0174942Y0075094D02*
X0212298Y0075094D01*
X0212357Y0074895D02*
X0174882Y0074895D01*
X0174821Y0074697D02*
X0212415Y0074697D01*
X0212474Y0074498D02*
X0174761Y0074498D01*
X0174701Y0074300D02*
X0212532Y0074300D01*
X0212590Y0074101D02*
X0174641Y0074101D01*
X0174581Y0073903D02*
X0212649Y0073903D01*
X0193848Y0082836D02*
X0193116Y0082836D01*
X0193473Y0084027D02*
X0193843Y0084027D01*
X0228848Y0093754D02*
X0261968Y0093754D01*
X0262152Y0093952D02*
X0228848Y0093952D01*
X0228848Y0094151D02*
X0262450Y0094151D01*
X0262748Y0094349D02*
X0255463Y0094349D01*
X0256762Y0094548D02*
X0263045Y0094548D01*
X0263343Y0094746D02*
X0257199Y0094746D01*
X0257635Y0094945D02*
X0263641Y0094945D01*
X0263939Y0095143D02*
X0258072Y0095143D01*
X0258509Y0095342D02*
X0264236Y0095342D01*
X0293511Y0101893D02*
X0304489Y0101893D01*
X0304562Y0101694D02*
X0294459Y0101694D01*
X0294781Y0101496D02*
X0304635Y0101496D01*
X0304707Y0101297D02*
X0295104Y0101297D01*
X0295427Y0101099D02*
X0304780Y0101099D01*
X0304853Y0100900D02*
X0295636Y0100900D01*
X0295785Y0100702D02*
X0304926Y0100702D01*
X0304999Y0100503D02*
X0295933Y0100503D01*
X0296082Y0100305D02*
X0305071Y0100305D01*
X0305144Y0100106D02*
X0296231Y0100106D01*
X0296370Y0099908D02*
X0305217Y0099908D01*
X0305290Y0099709D02*
X0296469Y0099709D01*
X0296568Y0099511D02*
X0305362Y0099511D01*
X0305435Y0099312D02*
X0296667Y0099312D01*
X0296767Y0099114D02*
X0305508Y0099114D01*
X0305581Y0098915D02*
X0296866Y0098915D01*
X0296965Y0098717D02*
X0305654Y0098717D01*
X0305726Y0098518D02*
X0297045Y0098518D01*
X0297121Y0098320D02*
X0305799Y0098320D01*
X0305872Y0098121D02*
X0297198Y0098121D01*
X0297274Y0097923D02*
X0305945Y0097923D01*
X0306018Y0097724D02*
X0297351Y0097724D01*
X0297428Y0097526D02*
X0306090Y0097526D01*
X0306165Y0097327D02*
X0297504Y0097327D01*
X0297581Y0097129D02*
X0306259Y0097129D01*
X0306354Y0096930D02*
X0297657Y0096930D01*
X0297734Y0096732D02*
X0306448Y0096732D01*
X0306543Y0096533D02*
X0297810Y0096533D01*
X0297887Y0096335D02*
X0306637Y0096335D01*
X0306732Y0096136D02*
X0297964Y0096136D01*
X0298040Y0095938D02*
X0306826Y0095938D01*
X0306921Y0095739D02*
X0298117Y0095739D01*
X0298193Y0095541D02*
X0307015Y0095541D01*
X0307158Y0095342D02*
X0298270Y0095342D01*
X0298346Y0095143D02*
X0307341Y0095143D01*
X0307525Y0094945D02*
X0298423Y0094945D01*
X0298499Y0094746D02*
X0307708Y0094746D01*
X0307891Y0094548D02*
X0298576Y0094548D01*
X0298653Y0094349D02*
X0308074Y0094349D01*
X0308378Y0094151D02*
X0298729Y0094151D01*
X0298806Y0093952D02*
X0308747Y0093952D01*
X0309115Y0093754D02*
X0298882Y0093754D01*
X0298959Y0093555D02*
X0310018Y0093555D01*
X0311091Y0085019D02*
X0307914Y0085019D01*
X0306971Y0085218D02*
X0312570Y0085218D01*
X0313364Y0085416D02*
X0306136Y0085416D01*
X0305654Y0085615D02*
X0314158Y0085615D01*
X0314640Y0085813D02*
X0305171Y0085813D01*
X0293811Y0073704D02*
X0286320Y0073704D01*
X0286022Y0073506D02*
X0292405Y0073506D01*
X0291968Y0073307D02*
X0285724Y0073307D01*
X0285427Y0073109D02*
X0291532Y0073109D01*
X0291095Y0072910D02*
X0285129Y0072910D01*
X0284831Y0072712D02*
X0290658Y0072712D01*
X0290398Y0072513D02*
X0284588Y0072513D01*
X0284433Y0072315D02*
X0290171Y0072315D01*
X0289944Y0072116D02*
X0284278Y0072116D01*
X0284122Y0071918D02*
X0289795Y0071918D01*
X0289685Y0071719D02*
X0283967Y0071719D01*
X0283812Y0071521D02*
X0289574Y0071521D01*
X0289464Y0071322D02*
X0283656Y0071322D01*
X0283501Y0071124D02*
X0289398Y0071124D01*
X0289364Y0070925D02*
X0283345Y0070925D01*
X0283190Y0070727D02*
X0289329Y0070727D01*
X0289295Y0070528D02*
X0283035Y0070528D01*
X0282958Y0070330D02*
X0289260Y0070330D01*
X0289226Y0070131D02*
X0282884Y0070131D01*
X0282811Y0069933D02*
X0289191Y0069933D01*
X0289157Y0069734D02*
X0282737Y0069734D01*
X0282664Y0069536D02*
X0289122Y0069536D01*
X0289087Y0069337D02*
X0282590Y0069337D01*
X0282517Y0069139D02*
X0289063Y0069139D01*
X0289095Y0068940D02*
X0282443Y0068940D01*
X0282370Y0068741D02*
X0289126Y0068741D01*
X0289157Y0068543D02*
X0282296Y0068543D01*
X0282223Y0068344D02*
X0289189Y0068344D01*
X0289220Y0068146D02*
X0282149Y0068146D01*
X0282115Y0067947D02*
X0289251Y0067947D01*
X0289283Y0067749D02*
X0282095Y0067749D01*
X0282076Y0067550D02*
X0289314Y0067550D01*
X0289412Y0067352D02*
X0282057Y0067352D01*
X0282038Y0067153D02*
X0289564Y0067153D01*
X0289717Y0066955D02*
X0282019Y0066955D01*
X0281999Y0066756D02*
X0289870Y0066756D01*
X0290022Y0066558D02*
X0281980Y0066558D01*
X0281961Y0066359D02*
X0290175Y0066359D01*
X0290519Y0066161D02*
X0281942Y0066161D01*
X0281923Y0065962D02*
X0290966Y0065962D01*
X0291412Y0065764D02*
X0281903Y0065764D01*
X0281884Y0065565D02*
X0291892Y0065565D01*
X0293745Y0065367D02*
X0281865Y0065367D01*
X0310776Y0039957D02*
X0332708Y0039957D01*
X0332708Y0039759D02*
X0309828Y0039759D01*
X0308880Y0039560D02*
X0332708Y0039560D01*
X0332708Y0039362D02*
X0307933Y0039362D01*
X0306985Y0039163D02*
X0332708Y0039163D01*
X0332708Y0038965D02*
X0306037Y0038965D01*
X0305089Y0038766D02*
X0332708Y0038766D01*
X0332708Y0038568D02*
X0304142Y0038568D01*
X0303194Y0038369D02*
X0332708Y0038369D01*
X0332708Y0038171D02*
X0302246Y0038171D01*
X0301298Y0037972D02*
X0332708Y0037972D01*
X0332708Y0037774D02*
X0300351Y0037774D01*
X0299403Y0037575D02*
X0332708Y0037575D01*
X0332708Y0037377D02*
X0298455Y0037377D01*
X0297508Y0037178D02*
X0332018Y0037178D01*
X0330978Y0036980D02*
X0296560Y0036980D01*
X0295612Y0036781D02*
X0329937Y0036781D01*
X0328897Y0036583D02*
X0294664Y0036583D01*
X0293717Y0036384D02*
X0327857Y0036384D01*
X0326817Y0036186D02*
X0292769Y0036186D01*
X0291821Y0035987D02*
X0325777Y0035987D01*
X0324736Y0035789D02*
X0290873Y0035789D01*
X0289926Y0035590D02*
X0323696Y0035590D01*
X0322656Y0035392D02*
X0288978Y0035392D01*
X0288030Y0035193D02*
X0321616Y0035193D01*
X0320576Y0034995D02*
X0287082Y0034995D01*
X0286135Y0034796D02*
X0319535Y0034796D01*
X0318495Y0034598D02*
X0285187Y0034598D01*
X0284239Y0034399D02*
X0317455Y0034399D01*
X0316415Y0034201D02*
X0283292Y0034201D01*
X0282668Y0034002D02*
X0315375Y0034002D01*
X0314334Y0033803D02*
X0282668Y0033803D01*
X0282668Y0033605D02*
X0313294Y0033605D01*
X0312254Y0033406D02*
X0282668Y0033406D01*
X0282668Y0033208D02*
X0311214Y0033208D01*
X0310174Y0033009D02*
X0282668Y0033009D01*
X0282668Y0032811D02*
X0309133Y0032811D01*
X0308093Y0032612D02*
X0282668Y0032612D01*
X0282668Y0032414D02*
X0307053Y0032414D01*
X0306013Y0032215D02*
X0282668Y0032215D01*
X0282668Y0032017D02*
X0304973Y0032017D01*
X0303932Y0031818D02*
X0282668Y0031818D01*
X0282668Y0031620D02*
X0302892Y0031620D01*
X0301852Y0031421D02*
X0282668Y0031421D01*
X0282668Y0031223D02*
X0300812Y0031223D01*
X0299772Y0031024D02*
X0282668Y0031024D01*
X0282668Y0030826D02*
X0298731Y0030826D01*
X0298595Y0030230D02*
X0282668Y0030230D01*
X0282668Y0030032D02*
X0299635Y0030032D01*
X0300675Y0029833D02*
X0282668Y0029833D01*
X0282668Y0029635D02*
X0301715Y0029635D01*
X0302755Y0029436D02*
X0282668Y0029436D01*
X0282668Y0029238D02*
X0303796Y0029238D01*
X0304836Y0029039D02*
X0282668Y0029039D01*
X0282668Y0028841D02*
X0305876Y0028841D01*
X0306916Y0028642D02*
X0282668Y0028642D01*
X0282668Y0028444D02*
X0307956Y0028444D01*
X0308997Y0028245D02*
X0282668Y0028245D01*
X0282668Y0028047D02*
X0310037Y0028047D01*
X0311077Y0027848D02*
X0282668Y0027848D01*
X0282668Y0027650D02*
X0312117Y0027650D01*
X0313157Y0027451D02*
X0282668Y0027451D01*
X0282668Y0027253D02*
X0314198Y0027253D01*
X0315238Y0027054D02*
X0282668Y0027054D01*
X0282668Y0026856D02*
X0316278Y0026856D01*
X0317318Y0026657D02*
X0283255Y0026657D01*
X0284203Y0026459D02*
X0318358Y0026459D01*
X0319399Y0026260D02*
X0285151Y0026260D01*
X0286098Y0026062D02*
X0320439Y0026062D01*
X0321479Y0025863D02*
X0287046Y0025863D01*
X0287994Y0025665D02*
X0322519Y0025665D01*
X0323559Y0025466D02*
X0288942Y0025466D01*
X0289889Y0025268D02*
X0324600Y0025268D01*
X0325640Y0025069D02*
X0290837Y0025069D01*
X0291785Y0024870D02*
X0326680Y0024870D01*
X0327720Y0024672D02*
X0292733Y0024672D01*
X0293680Y0024473D02*
X0328760Y0024473D01*
X0329801Y0024275D02*
X0294628Y0024275D01*
X0295576Y0024076D02*
X0330841Y0024076D01*
X0331881Y0023878D02*
X0296523Y0023878D01*
X0297471Y0023679D02*
X0332708Y0023679D01*
X0332708Y0023481D02*
X0298419Y0023481D01*
X0299367Y0023282D02*
X0332708Y0023282D01*
X0332708Y0023084D02*
X0300314Y0023084D01*
X0301262Y0022885D02*
X0332708Y0022885D01*
X0332708Y0022687D02*
X0302210Y0022687D01*
X0303158Y0022488D02*
X0332708Y0022488D01*
X0332708Y0022290D02*
X0304105Y0022290D01*
X0305053Y0022091D02*
X0332708Y0022091D01*
X0332708Y0021893D02*
X0306001Y0021893D01*
X0306949Y0021694D02*
X0332708Y0021694D01*
X0332708Y0021496D02*
X0307896Y0021496D01*
X0308844Y0021297D02*
X0332708Y0021297D01*
X0332708Y0021099D02*
X0309792Y0021099D01*
X0310739Y0020900D02*
X0332708Y0020900D01*
X0332708Y0020702D02*
X0311687Y0020702D01*
X0312635Y0020503D02*
X0332708Y0020503D01*
X0332708Y0020305D02*
X0313583Y0020305D01*
X0314530Y0020106D02*
X0332708Y0020106D01*
X0332708Y0019908D02*
X0315478Y0019908D01*
X0316426Y0019709D02*
X0332708Y0019709D01*
X0332708Y0019511D02*
X0317374Y0019511D01*
X0318321Y0019312D02*
X0332708Y0019312D01*
X0332708Y0019114D02*
X0319269Y0019114D01*
X0320217Y0018915D02*
X0332708Y0018915D01*
X0332708Y0018717D02*
X0321164Y0018717D01*
X0322112Y0018518D02*
X0332708Y0018518D01*
X0332708Y0018320D02*
X0282668Y0018320D01*
X0282668Y0018121D02*
X0332708Y0018121D01*
X0332708Y0017923D02*
X0282668Y0017923D01*
X0282668Y0017724D02*
X0332708Y0017724D01*
X0332708Y0017526D02*
X0282668Y0017526D01*
X0282668Y0017327D02*
X0332708Y0017327D01*
X0332708Y0017129D02*
X0282668Y0017129D01*
X0282668Y0016930D02*
X0332708Y0016930D01*
X0332708Y0016732D02*
X0282668Y0016732D01*
X0282668Y0016533D02*
X0332708Y0016533D01*
X0332708Y0016334D02*
X0282668Y0016334D01*
X0282668Y0016136D02*
X0332708Y0016136D01*
X0332708Y0015937D02*
X0282668Y0015937D01*
X0282668Y0015739D02*
X0332708Y0015739D01*
X0332708Y0015540D02*
X0282668Y0015540D01*
X0282668Y0015342D02*
X0332708Y0015342D01*
X0332708Y0015143D02*
X0282668Y0015143D01*
X0282668Y0014945D02*
X0332708Y0014945D01*
X0332708Y0014746D02*
X0282668Y0014746D01*
X0282668Y0014548D02*
X0332708Y0014548D01*
X0332708Y0014349D02*
X0282668Y0014349D01*
X0282668Y0014151D02*
X0332708Y0014151D01*
X0332708Y0013952D02*
X0282668Y0013952D01*
X0282668Y0013754D02*
X0332708Y0013754D01*
X0332708Y0013555D02*
X0282668Y0013555D01*
X0282668Y0013357D02*
X0332708Y0013357D01*
X0332708Y0013158D02*
X0282668Y0013158D01*
X0282668Y0012960D02*
X0332708Y0012960D01*
X0332708Y0012761D02*
X0282668Y0012761D01*
X0282668Y0012563D02*
X0332708Y0012563D01*
X0332708Y0012364D02*
X0282668Y0012364D01*
X0282668Y0012166D02*
X0332708Y0012166D01*
X0332708Y0011967D02*
X0282668Y0011967D01*
X0282668Y0011769D02*
X0332708Y0011769D01*
X0332708Y0011570D02*
X0282668Y0011570D01*
X0282668Y0011372D02*
X0332708Y0011372D01*
X0332708Y0011173D02*
X0282668Y0011173D01*
X0282668Y0010975D02*
X0332708Y0010975D01*
X0332708Y0010776D02*
X0282668Y0010776D01*
X0282668Y0010578D02*
X0332708Y0010578D01*
X0332708Y0010379D02*
X0282668Y0010379D01*
X0282668Y0010181D02*
X0332708Y0010181D01*
X0332708Y0009982D02*
X0282668Y0009982D01*
X0282668Y0009784D02*
X0332708Y0009784D01*
X0297691Y0030627D02*
X0282668Y0030627D01*
X0282668Y0030429D02*
X0297554Y0030429D01*
X0311723Y0040156D02*
X0332708Y0040156D01*
X0332708Y0040354D02*
X0312671Y0040354D01*
X0313619Y0040553D02*
X0332708Y0040553D01*
X0332708Y0040751D02*
X0314567Y0040751D01*
X0315514Y0040950D02*
X0332708Y0040950D01*
X0332708Y0041148D02*
X0316462Y0041148D01*
X0317410Y0041347D02*
X0332708Y0041347D01*
X0278708Y0017327D02*
X0270428Y0017327D01*
X0270428Y0017129D02*
X0278708Y0017129D01*
X0278708Y0016930D02*
X0270428Y0016930D01*
X0270428Y0016732D02*
X0278708Y0016732D01*
X0278708Y0016533D02*
X0270428Y0016533D01*
X0270428Y0016334D02*
X0278708Y0016334D01*
X0278708Y0016136D02*
X0270428Y0016136D01*
X0270428Y0015937D02*
X0278708Y0015937D01*
X0278708Y0015739D02*
X0270428Y0015739D01*
X0270428Y0015540D02*
X0278708Y0015540D01*
X0278708Y0015342D02*
X0270428Y0015342D01*
X0270428Y0015143D02*
X0278708Y0015143D01*
X0278708Y0014945D02*
X0270428Y0014945D01*
X0270428Y0014746D02*
X0278708Y0014746D01*
X0278708Y0014548D02*
X0270428Y0014548D01*
X0270428Y0014349D02*
X0278708Y0014349D01*
X0278708Y0014151D02*
X0270428Y0014151D01*
X0270428Y0013952D02*
X0278708Y0013952D01*
X0278708Y0013754D02*
X0270428Y0013754D01*
X0270428Y0013555D02*
X0278708Y0013555D01*
X0278708Y0013357D02*
X0270428Y0013357D01*
X0270428Y0013158D02*
X0278708Y0013158D01*
X0278708Y0012960D02*
X0270428Y0012960D01*
X0270428Y0012761D02*
X0278708Y0012761D01*
X0278708Y0012563D02*
X0270428Y0012563D01*
X0270428Y0012364D02*
X0278708Y0012364D01*
X0278708Y0012166D02*
X0270428Y0012166D01*
X0270428Y0011967D02*
X0278708Y0011967D01*
X0278708Y0011769D02*
X0270428Y0011769D01*
X0270428Y0011570D02*
X0278708Y0011570D01*
X0278708Y0011372D02*
X0270428Y0011372D01*
X0270428Y0011173D02*
X0278708Y0011173D01*
X0278708Y0010975D02*
X0270428Y0010975D01*
X0270428Y0010776D02*
X0278708Y0010776D01*
X0278708Y0010578D02*
X0270428Y0010578D01*
X0270428Y0010379D02*
X0278708Y0010379D01*
X0278708Y0010181D02*
X0270428Y0010181D01*
X0270428Y0009982D02*
X0278708Y0009982D01*
X0278708Y0009784D02*
X0270428Y0009784D01*
X0270428Y0009585D02*
X0278708Y0009585D01*
X0278708Y0009387D02*
X0270428Y0009387D01*
X0270428Y0009188D02*
X0278708Y0009188D01*
X0278708Y0008990D02*
X0270428Y0008990D01*
X0270428Y0008791D02*
X0278708Y0008791D01*
X0278708Y0008593D02*
X0270428Y0008593D01*
X0270428Y0008394D02*
X0278708Y0008394D01*
X0278708Y0008196D02*
X0270428Y0008196D01*
X0270428Y0007997D02*
X0278708Y0007997D01*
X0278708Y0007799D02*
X0270428Y0007799D01*
X0270428Y0007600D02*
X0278708Y0007600D01*
X0278708Y0007401D02*
X0270428Y0007401D01*
X0270428Y0007203D02*
X0278708Y0007203D01*
X0189781Y0030627D02*
X0174758Y0030627D01*
X0174758Y0030429D02*
X0189644Y0030429D01*
X0184388Y0113810D02*
X0181778Y0113990D01*
X0179528Y0114440D01*
X0177728Y0115160D01*
X0176288Y0116150D01*
X0175208Y0117410D01*
X0174488Y0118940D01*
X0174038Y0120740D01*
X0173858Y0122720D01*
X0174128Y0125510D01*
X0175028Y0127940D01*
X0176648Y0130010D01*
X0179078Y0131630D01*
X0178898Y0131540D01*
X0178898Y0131720D01*
X0174488Y0131720D01*
X0174488Y0140360D01*
X0212288Y0140360D01*
X0212288Y0131360D01*
X0187268Y0131360D01*
X0184568Y0131090D01*
X0182588Y0130190D01*
X0181868Y0129560D01*
X0181418Y0128750D01*
X0181058Y0126680D01*
X0181328Y0124970D01*
X0182228Y0123800D01*
X0183848Y0123080D01*
X0186368Y0122810D01*
X0212468Y0122810D01*
X0212468Y0113810D01*
X0184388Y0113810D01*
X0181718Y0114002D02*
X0212468Y0114002D01*
X0212468Y0114201D02*
X0180726Y0114201D01*
X0179733Y0114399D02*
X0212468Y0114399D01*
X0212468Y0114598D02*
X0179134Y0114598D01*
X0178638Y0114796D02*
X0212468Y0114796D01*
X0212468Y0114995D02*
X0178142Y0114995D01*
X0177680Y0115193D02*
X0212468Y0115193D01*
X0212468Y0115392D02*
X0177391Y0115392D01*
X0177103Y0115590D02*
X0212468Y0115590D01*
X0212468Y0115789D02*
X0176814Y0115789D01*
X0176525Y0115987D02*
X0212468Y0115987D01*
X0212468Y0116186D02*
X0176258Y0116186D01*
X0176088Y0116384D02*
X0212468Y0116384D01*
X0212468Y0116583D02*
X0175918Y0116583D01*
X0175747Y0116781D02*
X0212468Y0116781D01*
X0212468Y0116980D02*
X0175577Y0116980D01*
X0175407Y0117178D02*
X0212468Y0117178D01*
X0212468Y0117377D02*
X0175237Y0117377D01*
X0175131Y0117575D02*
X0212468Y0117575D01*
X0212468Y0117774D02*
X0175037Y0117774D01*
X0174944Y0117972D02*
X0212468Y0117972D01*
X0212468Y0118171D02*
X0174850Y0118171D01*
X0174757Y0118369D02*
X0212468Y0118369D01*
X0212468Y0118568D02*
X0174664Y0118568D01*
X0174570Y0118766D02*
X0212468Y0118766D01*
X0212468Y0118965D02*
X0174482Y0118965D01*
X0174433Y0119163D02*
X0212468Y0119163D01*
X0212468Y0119362D02*
X0174383Y0119362D01*
X0174333Y0119560D02*
X0212468Y0119560D01*
X0212468Y0119759D02*
X0174284Y0119759D01*
X0174234Y0119957D02*
X0212468Y0119957D01*
X0212468Y0120156D02*
X0174184Y0120156D01*
X0174135Y0120354D02*
X0212468Y0120354D01*
X0212468Y0120553D02*
X0174085Y0120553D01*
X0174037Y0120751D02*
X0212468Y0120751D01*
X0212468Y0120950D02*
X0174019Y0120950D01*
X0174001Y0121148D02*
X0212468Y0121148D01*
X0212468Y0121347D02*
X0173983Y0121347D01*
X0173965Y0121545D02*
X0212468Y0121545D01*
X0212468Y0121744D02*
X0173947Y0121744D01*
X0173929Y0121943D02*
X0212468Y0121943D01*
X0212468Y0122141D02*
X0173911Y0122141D01*
X0173893Y0122340D02*
X0212468Y0122340D01*
X0212468Y0122538D02*
X0173875Y0122538D01*
X0173860Y0122737D02*
X0212468Y0122737D01*
X0216507Y0123729D02*
X0226058Y0123729D01*
X0226058Y0123531D02*
X0216553Y0123531D01*
X0216599Y0123332D02*
X0226058Y0123332D01*
X0226058Y0123134D02*
X0216645Y0123134D01*
X0216690Y0122935D02*
X0226058Y0122935D01*
X0226058Y0122737D02*
X0216762Y0122737D01*
X0216698Y0122900D02*
X0216158Y0125240D01*
X0215978Y0127940D01*
X0216248Y0131630D01*
X0216968Y0134690D01*
X0218138Y0137210D01*
X0219758Y0139190D01*
X0221828Y0140630D01*
X0224348Y0141710D01*
X0227318Y0142340D01*
X0230738Y0142520D01*
X0266648Y0142520D01*
X0266648Y0133880D01*
X0262418Y0133880D01*
X0262418Y0133700D01*
X0264938Y0132170D01*
X0266558Y0130280D01*
X0260078Y0130280D01*
X0259538Y0131270D01*
X0258638Y0132080D01*
X0257378Y0132710D01*
X0253508Y0133430D01*
X0247658Y0133700D01*
X0243248Y0133430D01*
X0239828Y0132620D01*
X0238568Y0131990D01*
X0237578Y0131180D01*
X0236948Y0130100D01*
X0236768Y0128750D01*
X0236948Y0127850D01*
X0229658Y0127850D01*
X0229298Y0128210D01*
X0229388Y0128480D01*
X0230378Y0130550D01*
X0231818Y0132350D01*
X0233708Y0133880D01*
X0233708Y0134060D01*
X0228758Y0134060D01*
X0226148Y0133790D01*
X0223988Y0132980D01*
X0223178Y0132350D01*
X0222548Y0131450D01*
X0222188Y0130370D01*
X0222098Y0129110D01*
X0222368Y0127490D01*
X0223178Y0126050D01*
X0224438Y0125060D01*
X0226058Y0124700D01*
X0226058Y0116060D01*
X0223808Y0116240D01*
X0221828Y0116780D01*
X0220118Y0117770D01*
X0218678Y0119120D01*
X0217508Y0120830D01*
X0216698Y0122900D01*
X0216840Y0122538D02*
X0226058Y0122538D01*
X0226058Y0122340D02*
X0216918Y0122340D01*
X0216995Y0122141D02*
X0226058Y0122141D01*
X0226058Y0121943D02*
X0217073Y0121943D01*
X0217151Y0121744D02*
X0226058Y0121744D01*
X0226058Y0121545D02*
X0217228Y0121545D01*
X0217306Y0121347D02*
X0226058Y0121347D01*
X0226058Y0121148D02*
X0217384Y0121148D01*
X0217461Y0120950D02*
X0226058Y0120950D01*
X0226058Y0120751D02*
X0217562Y0120751D01*
X0217698Y0120553D02*
X0226058Y0120553D01*
X0226058Y0120354D02*
X0217834Y0120354D01*
X0217970Y0120156D02*
X0226058Y0120156D01*
X0226058Y0119957D02*
X0218105Y0119957D01*
X0218241Y0119759D02*
X0226058Y0119759D01*
X0226058Y0119560D02*
X0218377Y0119560D01*
X0218513Y0119362D02*
X0226058Y0119362D01*
X0226058Y0119163D02*
X0218649Y0119163D01*
X0218844Y0118965D02*
X0226058Y0118965D01*
X0226058Y0118766D02*
X0219056Y0118766D01*
X0219267Y0118568D02*
X0226058Y0118568D01*
X0226058Y0118369D02*
X0219479Y0118369D01*
X0219691Y0118171D02*
X0226058Y0118171D01*
X0226058Y0117972D02*
X0219903Y0117972D01*
X0220114Y0117774D02*
X0226058Y0117774D01*
X0226058Y0117575D02*
X0220455Y0117575D01*
X0220798Y0117377D02*
X0226058Y0117377D01*
X0226058Y0117178D02*
X0221141Y0117178D01*
X0221483Y0116980D02*
X0226058Y0116980D01*
X0226058Y0116781D02*
X0221826Y0116781D01*
X0222552Y0116583D02*
X0226058Y0116583D01*
X0226058Y0116384D02*
X0223280Y0116384D01*
X0224487Y0116186D02*
X0226058Y0116186D01*
X0231892Y0119759D02*
X0264073Y0119759D01*
X0263866Y0119560D02*
X0232137Y0119560D01*
X0232383Y0119362D02*
X0263658Y0119362D01*
X0263498Y0119210D02*
X0260978Y0117770D01*
X0258008Y0116780D01*
X0254768Y0116240D01*
X0248018Y0115880D01*
X0243248Y0116060D01*
X0239198Y0116600D01*
X0235868Y0117410D01*
X0233348Y0118580D01*
X0231458Y0120110D01*
X0230108Y0122000D01*
X0229298Y0124160D01*
X0229028Y0126680D01*
X0229298Y0128480D01*
X0229298Y0128210D01*
X0236588Y0128210D01*
X0236678Y0127850D01*
X0237308Y0126860D01*
X0238208Y0126050D01*
X0239468Y0125510D01*
X0242618Y0124880D01*
X0246308Y0124700D01*
X0252698Y0124880D01*
X0255038Y0125150D01*
X0256838Y0125600D01*
X0258188Y0126230D01*
X0259088Y0127040D01*
X0259628Y0128120D01*
X0259628Y0128390D01*
X0267008Y0128390D01*
X0267278Y0126860D01*
X0267188Y0125150D01*
X0266828Y0123620D01*
X0266288Y0122270D01*
X0265478Y0121100D01*
X0263498Y0119210D01*
X0263417Y0119163D02*
X0232628Y0119163D01*
X0232873Y0118965D02*
X0263069Y0118965D01*
X0262722Y0118766D02*
X0233118Y0118766D01*
X0233375Y0118568D02*
X0262375Y0118568D01*
X0262027Y0118369D02*
X0233802Y0118369D01*
X0234230Y0118171D02*
X0261680Y0118171D01*
X0261332Y0117972D02*
X0234657Y0117972D01*
X0235085Y0117774D02*
X0260985Y0117774D01*
X0260394Y0117575D02*
X0235512Y0117575D01*
X0236005Y0117377D02*
X0259799Y0117377D01*
X0259203Y0117178D02*
X0236821Y0117178D01*
X0237637Y0116980D02*
X0258608Y0116980D01*
X0258012Y0116781D02*
X0238453Y0116781D01*
X0239328Y0116583D02*
X0256825Y0116583D01*
X0255634Y0116384D02*
X0240817Y0116384D01*
X0242306Y0116186D02*
X0253750Y0116186D01*
X0250028Y0115987D02*
X0245178Y0115987D01*
X0231647Y0119957D02*
X0264281Y0119957D01*
X0264489Y0120156D02*
X0231426Y0120156D01*
X0231284Y0120354D02*
X0264697Y0120354D01*
X0264905Y0120553D02*
X0231142Y0120553D01*
X0231000Y0120751D02*
X0265113Y0120751D01*
X0265321Y0120950D02*
X0230858Y0120950D01*
X0230717Y0121148D02*
X0265512Y0121148D01*
X0265649Y0121347D02*
X0230575Y0121347D01*
X0230433Y0121545D02*
X0265787Y0121545D01*
X0265924Y0121744D02*
X0230291Y0121744D01*
X0230149Y0121943D02*
X0266062Y0121943D01*
X0266199Y0122141D02*
X0230056Y0122141D01*
X0229981Y0122340D02*
X0266316Y0122340D01*
X0266396Y0122538D02*
X0229907Y0122538D01*
X0229832Y0122737D02*
X0266475Y0122737D01*
X0266554Y0122935D02*
X0229758Y0122935D01*
X0229683Y0123134D02*
X0266634Y0123134D01*
X0266713Y0123332D02*
X0229609Y0123332D01*
X0229534Y0123531D02*
X0266793Y0123531D01*
X0266854Y0123729D02*
X0229460Y0123729D01*
X0229386Y0123928D02*
X0266901Y0123928D01*
X0266948Y0124126D02*
X0229311Y0124126D01*
X0229281Y0124325D02*
X0266994Y0124325D01*
X0267041Y0124523D02*
X0229260Y0124523D01*
X0229238Y0124722D02*
X0245864Y0124722D01*
X0247078Y0124722D02*
X0267088Y0124722D01*
X0267134Y0124920D02*
X0253047Y0124920D01*
X0254767Y0125119D02*
X0267181Y0125119D01*
X0267197Y0125317D02*
X0255707Y0125317D01*
X0256501Y0125516D02*
X0267208Y0125516D01*
X0267218Y0125714D02*
X0257083Y0125714D01*
X0257509Y0125913D02*
X0267229Y0125913D01*
X0267239Y0126111D02*
X0257934Y0126111D01*
X0258277Y0126310D02*
X0267249Y0126310D01*
X0267260Y0126508D02*
X0258498Y0126508D01*
X0258718Y0126707D02*
X0267270Y0126707D01*
X0267270Y0126905D02*
X0258939Y0126905D01*
X0259120Y0127104D02*
X0267235Y0127104D01*
X0267200Y0127302D02*
X0259220Y0127302D01*
X0259319Y0127501D02*
X0267165Y0127501D01*
X0267130Y0127699D02*
X0259418Y0127699D01*
X0259517Y0127898D02*
X0267095Y0127898D01*
X0267060Y0128096D02*
X0259617Y0128096D01*
X0259628Y0128295D02*
X0267025Y0128295D01*
X0267289Y0128493D02*
X0260171Y0128493D01*
X0260138Y0128295D02*
X0267370Y0128295D01*
X0267368Y0128300D02*
X0267458Y0127940D01*
X0260078Y0127940D01*
X0260258Y0129020D01*
X0260078Y0130280D01*
X0260107Y0130081D02*
X0266640Y0130081D01*
X0266721Y0129883D02*
X0260135Y0129883D01*
X0260164Y0129684D02*
X0266802Y0129684D01*
X0266883Y0129486D02*
X0260192Y0129486D01*
X0260220Y0129287D02*
X0266964Y0129287D01*
X0267046Y0129089D02*
X0260249Y0129089D01*
X0260237Y0128890D02*
X0267127Y0128890D01*
X0267208Y0128692D02*
X0260204Y0128692D01*
X0260104Y0128096D02*
X0267419Y0128096D01*
X0267368Y0128300D02*
X0266558Y0130280D01*
X0266388Y0130479D02*
X0259970Y0130479D01*
X0259862Y0130677D02*
X0266218Y0130677D01*
X0266048Y0130876D02*
X0259754Y0130876D01*
X0259645Y0131074D02*
X0265878Y0131074D01*
X0265708Y0131273D02*
X0259536Y0131273D01*
X0259315Y0131471D02*
X0265538Y0131471D01*
X0265367Y0131670D02*
X0259094Y0131670D01*
X0258874Y0131868D02*
X0265197Y0131868D01*
X0265027Y0132067D02*
X0258653Y0132067D01*
X0258268Y0132265D02*
X0264782Y0132265D01*
X0264455Y0132464D02*
X0257871Y0132464D01*
X0257474Y0132662D02*
X0264128Y0132662D01*
X0263801Y0132861D02*
X0256569Y0132861D01*
X0255502Y0133059D02*
X0263474Y0133059D01*
X0263147Y0133258D02*
X0254435Y0133258D01*
X0252941Y0133456D02*
X0262820Y0133456D01*
X0262493Y0133655D02*
X0248640Y0133655D01*
X0246918Y0133655D02*
X0233430Y0133655D01*
X0233675Y0133853D02*
X0262418Y0133853D01*
X0266648Y0134052D02*
X0233708Y0134052D01*
X0233185Y0133456D02*
X0243676Y0133456D01*
X0242521Y0133258D02*
X0232940Y0133258D01*
X0232694Y0133059D02*
X0241683Y0133059D01*
X0240844Y0132861D02*
X0232449Y0132861D01*
X0232204Y0132662D02*
X0240006Y0132662D01*
X0239516Y0132464D02*
X0231959Y0132464D01*
X0231751Y0132265D02*
X0239119Y0132265D01*
X0238722Y0132067D02*
X0231592Y0132067D01*
X0231433Y0131868D02*
X0238419Y0131868D01*
X0238177Y0131670D02*
X0231274Y0131670D01*
X0231115Y0131471D02*
X0237934Y0131471D01*
X0237692Y0131273D02*
X0230956Y0131273D01*
X0230798Y0131074D02*
X0237517Y0131074D01*
X0237401Y0130876D02*
X0230639Y0130876D01*
X0230480Y0130677D02*
X0237285Y0130677D01*
X0237169Y0130479D02*
X0230344Y0130479D01*
X0230249Y0130280D02*
X0237053Y0130280D01*
X0236946Y0130081D02*
X0230154Y0130081D01*
X0230059Y0129883D02*
X0236920Y0129883D01*
X0236893Y0129684D02*
X0229964Y0129684D01*
X0229870Y0129486D02*
X0236867Y0129486D01*
X0236840Y0129287D02*
X0229775Y0129287D01*
X0229680Y0129089D02*
X0236814Y0129089D01*
X0236787Y0128890D02*
X0229585Y0128890D01*
X0229490Y0128692D02*
X0236780Y0128692D01*
X0236820Y0128493D02*
X0229395Y0128493D01*
X0229327Y0128295D02*
X0236859Y0128295D01*
X0236899Y0128096D02*
X0229412Y0128096D01*
X0229241Y0128096D02*
X0236617Y0128096D01*
X0236666Y0127898D02*
X0229211Y0127898D01*
X0229181Y0127699D02*
X0236774Y0127699D01*
X0236901Y0127501D02*
X0229152Y0127501D01*
X0229122Y0127302D02*
X0237027Y0127302D01*
X0237153Y0127104D02*
X0229092Y0127104D01*
X0229062Y0126905D02*
X0237280Y0126905D01*
X0237479Y0126707D02*
X0229032Y0126707D01*
X0229047Y0126508D02*
X0237699Y0126508D01*
X0237920Y0126310D02*
X0229068Y0126310D01*
X0229089Y0126111D02*
X0238140Y0126111D01*
X0238529Y0125913D02*
X0229111Y0125913D01*
X0229132Y0125714D02*
X0238992Y0125714D01*
X0239455Y0125516D02*
X0229153Y0125516D01*
X0229174Y0125317D02*
X0240432Y0125317D01*
X0241425Y0125119D02*
X0229196Y0125119D01*
X0229217Y0124920D02*
X0242417Y0124920D01*
X0236939Y0127898D02*
X0229611Y0127898D01*
X0229298Y0128295D02*
X0229271Y0128295D01*
X0223032Y0126310D02*
X0216087Y0126310D01*
X0216074Y0126508D02*
X0222921Y0126508D01*
X0222809Y0126707D02*
X0216061Y0126707D01*
X0216047Y0126905D02*
X0222697Y0126905D01*
X0222586Y0127104D02*
X0216034Y0127104D01*
X0216021Y0127302D02*
X0222474Y0127302D01*
X0222367Y0127501D02*
X0216008Y0127501D01*
X0215994Y0127699D02*
X0222334Y0127699D01*
X0222300Y0127898D02*
X0215981Y0127898D01*
X0215990Y0128096D02*
X0222267Y0128096D01*
X0222234Y0128295D02*
X0216004Y0128295D01*
X0216019Y0128493D02*
X0222201Y0128493D01*
X0222168Y0128692D02*
X0216033Y0128692D01*
X0216048Y0128890D02*
X0222135Y0128890D01*
X0222102Y0129089D02*
X0216062Y0129089D01*
X0216077Y0129287D02*
X0222111Y0129287D01*
X0222125Y0129486D02*
X0216092Y0129486D01*
X0216106Y0129684D02*
X0222139Y0129684D01*
X0222154Y0129883D02*
X0216121Y0129883D01*
X0216135Y0130081D02*
X0222168Y0130081D01*
X0222182Y0130280D02*
X0216150Y0130280D01*
X0216164Y0130479D02*
X0222225Y0130479D01*
X0222291Y0130677D02*
X0216179Y0130677D01*
X0216193Y0130876D02*
X0222357Y0130876D01*
X0222423Y0131074D02*
X0216208Y0131074D01*
X0216222Y0131273D02*
X0222489Y0131273D01*
X0222563Y0131471D02*
X0216237Y0131471D01*
X0216258Y0131670D02*
X0222702Y0131670D01*
X0222841Y0131868D02*
X0216304Y0131868D01*
X0216351Y0132067D02*
X0222980Y0132067D01*
X0223119Y0132265D02*
X0216398Y0132265D01*
X0216445Y0132464D02*
X0223325Y0132464D01*
X0223580Y0132662D02*
X0216491Y0132662D01*
X0216538Y0132861D02*
X0223835Y0132861D01*
X0224200Y0133059D02*
X0216585Y0133059D01*
X0216631Y0133258D02*
X0224729Y0133258D01*
X0225258Y0133456D02*
X0216678Y0133456D01*
X0216725Y0133655D02*
X0225788Y0133655D01*
X0226759Y0133853D02*
X0216772Y0133853D01*
X0216818Y0134052D02*
X0228678Y0134052D01*
X0219290Y0138617D02*
X0266648Y0138617D01*
X0266648Y0138419D02*
X0219128Y0138419D01*
X0218965Y0138220D02*
X0266648Y0138220D01*
X0266648Y0138022D02*
X0218803Y0138022D01*
X0218640Y0137823D02*
X0266648Y0137823D01*
X0266648Y0137625D02*
X0218478Y0137625D01*
X0218315Y0137426D02*
X0266648Y0137426D01*
X0266648Y0137228D02*
X0218153Y0137228D01*
X0218055Y0137029D02*
X0266648Y0137029D01*
X0266648Y0136831D02*
X0217962Y0136831D01*
X0217870Y0136632D02*
X0266648Y0136632D01*
X0266648Y0136434D02*
X0217778Y0136434D01*
X0217686Y0136235D02*
X0266648Y0136235D01*
X0266648Y0136037D02*
X0217594Y0136037D01*
X0217502Y0135838D02*
X0266648Y0135838D01*
X0266648Y0135640D02*
X0217409Y0135640D01*
X0217317Y0135441D02*
X0266648Y0135441D01*
X0266648Y0135243D02*
X0217225Y0135243D01*
X0217133Y0135044D02*
X0266648Y0135044D01*
X0266648Y0134846D02*
X0217041Y0134846D01*
X0216958Y0134647D02*
X0266648Y0134647D01*
X0266648Y0134449D02*
X0216912Y0134449D01*
X0216865Y0134250D02*
X0266648Y0134250D01*
X0266648Y0138816D02*
X0219452Y0138816D01*
X0219615Y0139014D02*
X0266648Y0139014D01*
X0266648Y0139213D02*
X0219791Y0139213D01*
X0220077Y0139412D02*
X0266648Y0139412D01*
X0266648Y0139610D02*
X0220362Y0139610D01*
X0220648Y0139809D02*
X0266648Y0139809D01*
X0266648Y0140007D02*
X0220933Y0140007D01*
X0221218Y0140206D02*
X0266648Y0140206D01*
X0266648Y0140404D02*
X0221504Y0140404D01*
X0221789Y0140603D02*
X0266648Y0140603D01*
X0266648Y0140801D02*
X0222228Y0140801D01*
X0222691Y0141000D02*
X0266648Y0141000D01*
X0266648Y0141198D02*
X0223154Y0141198D01*
X0223617Y0141397D02*
X0266648Y0141397D01*
X0266648Y0141595D02*
X0224080Y0141595D01*
X0224743Y0141794D02*
X0266648Y0141794D01*
X0266648Y0141992D02*
X0225679Y0141992D01*
X0226614Y0142191D02*
X0266648Y0142191D01*
X0266648Y0142389D02*
X0228253Y0142389D01*
X0224798Y0144050D02*
X0224798Y0153050D01*
X0174758Y0153050D01*
X0174758Y0144050D01*
X0224798Y0144050D01*
X0224798Y0144176D02*
X0174758Y0144176D01*
X0174758Y0144374D02*
X0224798Y0144374D01*
X0224798Y0144573D02*
X0174758Y0144573D01*
X0174758Y0144771D02*
X0224798Y0144771D01*
X0224798Y0144970D02*
X0174758Y0144970D01*
X0174758Y0145168D02*
X0224798Y0145168D01*
X0224798Y0145367D02*
X0174758Y0145367D01*
X0174758Y0145565D02*
X0224798Y0145565D01*
X0224798Y0145764D02*
X0174758Y0145764D01*
X0174758Y0145962D02*
X0224798Y0145962D01*
X0224798Y0146161D02*
X0174758Y0146161D01*
X0174758Y0146359D02*
X0224798Y0146359D01*
X0224798Y0146558D02*
X0174758Y0146558D01*
X0174758Y0146756D02*
X0224798Y0146756D01*
X0224798Y0146955D02*
X0174758Y0146955D01*
X0174758Y0147153D02*
X0224798Y0147153D01*
X0224798Y0147352D02*
X0174758Y0147352D01*
X0174758Y0147550D02*
X0224798Y0147550D01*
X0224798Y0147749D02*
X0174758Y0147749D01*
X0174758Y0147948D02*
X0224798Y0147948D01*
X0224798Y0148146D02*
X0174758Y0148146D01*
X0174758Y0148345D02*
X0224798Y0148345D01*
X0224798Y0148543D02*
X0174758Y0148543D01*
X0174758Y0148742D02*
X0224798Y0148742D01*
X0224798Y0148940D02*
X0174758Y0148940D01*
X0174758Y0149139D02*
X0224798Y0149139D01*
X0224798Y0149337D02*
X0174758Y0149337D01*
X0174758Y0149536D02*
X0224798Y0149536D01*
X0224798Y0149734D02*
X0174758Y0149734D01*
X0174758Y0149933D02*
X0224798Y0149933D01*
X0224798Y0150131D02*
X0174758Y0150131D01*
X0174758Y0150330D02*
X0224798Y0150330D01*
X0224798Y0150528D02*
X0174758Y0150528D01*
X0174758Y0150727D02*
X0224798Y0150727D01*
X0224798Y0150925D02*
X0174758Y0150925D01*
X0174758Y0151124D02*
X0224798Y0151124D01*
X0224798Y0151322D02*
X0174758Y0151322D01*
X0174758Y0151521D02*
X0224798Y0151521D01*
X0224798Y0151719D02*
X0174758Y0151719D01*
X0174758Y0151918D02*
X0224798Y0151918D01*
X0224798Y0152116D02*
X0174758Y0152116D01*
X0174758Y0152315D02*
X0224798Y0152315D01*
X0224798Y0152513D02*
X0174758Y0152513D01*
X0174758Y0152712D02*
X0224798Y0152712D01*
X0224798Y0152910D02*
X0174758Y0152910D01*
X0178808Y0158090D02*
X0180608Y0157460D01*
X0184388Y0157010D01*
X0186908Y0157100D01*
X0189068Y0157460D01*
X0190868Y0158090D01*
X0192398Y0158990D01*
X0193658Y0160250D01*
X0194648Y0161780D01*
X0196268Y0165830D01*
X0197618Y0170600D01*
X0191588Y0170600D01*
X0190778Y0168260D01*
X0189518Y0166730D01*
X0187808Y0165830D01*
X0185558Y0165560D01*
X0183578Y0165740D01*
X0181868Y0166280D01*
X0180698Y0167360D01*
X0180338Y0168890D01*
X0180608Y0170600D01*
X0174758Y0170600D01*
X0174758Y0170690D01*
X0174128Y0168440D01*
X0173948Y0165470D01*
X0174128Y0163310D01*
X0174758Y0161510D01*
X0175838Y0160070D01*
X0177188Y0158900D01*
X0178808Y0158090D01*
X0178861Y0158072D02*
X0190816Y0158072D01*
X0191175Y0158270D02*
X0178448Y0158270D01*
X0178051Y0158469D02*
X0191512Y0158469D01*
X0191850Y0158667D02*
X0177654Y0158667D01*
X0177257Y0158866D02*
X0192187Y0158866D01*
X0192473Y0159064D02*
X0176999Y0159064D01*
X0176770Y0159263D02*
X0192671Y0159263D01*
X0192870Y0159461D02*
X0176541Y0159461D01*
X0176312Y0159660D02*
X0193068Y0159660D01*
X0193267Y0159858D02*
X0176083Y0159858D01*
X0175854Y0160057D02*
X0193465Y0160057D01*
X0193662Y0160255D02*
X0175700Y0160255D01*
X0175551Y0160454D02*
X0193790Y0160454D01*
X0193919Y0160652D02*
X0175402Y0160652D01*
X0175253Y0160851D02*
X0194047Y0160851D01*
X0194176Y0161049D02*
X0175104Y0161049D01*
X0174955Y0161248D02*
X0194304Y0161248D01*
X0194432Y0161446D02*
X0174806Y0161446D01*
X0174711Y0161645D02*
X0194561Y0161645D01*
X0194674Y0161843D02*
X0174642Y0161843D01*
X0174572Y0162042D02*
X0194753Y0162042D01*
X0194833Y0162240D02*
X0174503Y0162240D01*
X0174433Y0162439D02*
X0194912Y0162439D01*
X0194991Y0162637D02*
X0174364Y0162637D01*
X0174294Y0162836D02*
X0195071Y0162836D01*
X0195150Y0163034D02*
X0174225Y0163034D01*
X0174155Y0163233D02*
X0195230Y0163233D01*
X0195309Y0163431D02*
X0174118Y0163431D01*
X0174102Y0163630D02*
X0195388Y0163630D01*
X0195468Y0163828D02*
X0174085Y0163828D01*
X0174069Y0164027D02*
X0195547Y0164027D01*
X0195627Y0164225D02*
X0174052Y0164225D01*
X0174036Y0164424D02*
X0195706Y0164424D01*
X0195785Y0164622D02*
X0174019Y0164622D01*
X0174003Y0164821D02*
X0195865Y0164821D01*
X0195944Y0165019D02*
X0173986Y0165019D01*
X0173969Y0165218D02*
X0196024Y0165218D01*
X0196103Y0165416D02*
X0173953Y0165416D01*
X0173957Y0165615D02*
X0184953Y0165615D01*
X0186017Y0165615D02*
X0196182Y0165615D01*
X0196262Y0165814D02*
X0187671Y0165814D01*
X0188154Y0166012D02*
X0196320Y0166012D01*
X0196376Y0166211D02*
X0188531Y0166211D01*
X0188909Y0166409D02*
X0196432Y0166409D01*
X0196489Y0166608D02*
X0189286Y0166608D01*
X0189581Y0166806D02*
X0196545Y0166806D01*
X0196601Y0167005D02*
X0189745Y0167005D01*
X0189908Y0167203D02*
X0196657Y0167203D01*
X0196713Y0167402D02*
X0190072Y0167402D01*
X0190235Y0167600D02*
X0196769Y0167600D01*
X0196826Y0167799D02*
X0190398Y0167799D01*
X0190562Y0167997D02*
X0196882Y0167997D01*
X0196938Y0168196D02*
X0190725Y0168196D01*
X0190825Y0168394D02*
X0196994Y0168394D01*
X0197050Y0168593D02*
X0190894Y0168593D01*
X0190962Y0168791D02*
X0197107Y0168791D01*
X0197163Y0168990D02*
X0191031Y0168990D01*
X0191100Y0169188D02*
X0197219Y0169188D01*
X0197275Y0169387D02*
X0191168Y0169387D01*
X0191237Y0169585D02*
X0197331Y0169585D01*
X0197387Y0169784D02*
X0191306Y0169784D01*
X0191375Y0169982D02*
X0197444Y0169982D01*
X0197500Y0170181D02*
X0191443Y0170181D01*
X0191512Y0170379D02*
X0197556Y0170379D01*
X0197612Y0170578D02*
X0191581Y0170578D01*
X0191588Y0170690D02*
X0192218Y0172580D01*
X0193478Y0174560D01*
X0186008Y0174560D01*
X0184568Y0174470D01*
X0183308Y0174110D01*
X0182318Y0173480D01*
X0181508Y0172760D01*
X0180518Y0170960D01*
X0180518Y0170780D01*
X0174668Y0170780D01*
X0174668Y0170870D01*
X0175208Y0171860D01*
X0176018Y0172760D01*
X0178448Y0174470D01*
X0178448Y0174650D01*
X0176468Y0175100D01*
X0174488Y0175820D01*
X0174488Y0184460D01*
X0177638Y0183560D01*
X0181778Y0183290D01*
X0201578Y0183290D01*
X0204008Y0183200D01*
X0206258Y0182840D01*
X0208238Y0182120D01*
X0209948Y0180950D01*
X0211298Y0179330D01*
X0212288Y0177170D01*
X0212918Y0174290D01*
X0213098Y0170600D01*
X0213368Y0170420D01*
X0213188Y0167990D01*
X0212738Y0165650D01*
X0211928Y0163580D01*
X0210758Y0161780D01*
X0209138Y0160250D01*
X0207158Y0159080D01*
X0204638Y0158360D01*
X0201578Y0158090D01*
X0200678Y0158090D01*
X0200678Y0166190D01*
X0201758Y0166190D01*
X0203738Y0166460D01*
X0205268Y0167270D01*
X0206258Y0168530D01*
X0206618Y0170330D01*
X0206348Y0172310D01*
X0205448Y0173570D01*
X0204008Y0174290D01*
X0202118Y0174560D01*
X0200408Y0174380D01*
X0199238Y0173750D01*
X0198338Y0172670D01*
X0197708Y0170960D01*
X0197618Y0170690D01*
X0191588Y0170690D01*
X0191617Y0170776D02*
X0197647Y0170776D01*
X0197714Y0170975D02*
X0191683Y0170975D01*
X0191750Y0171173D02*
X0197787Y0171173D01*
X0197860Y0171372D02*
X0191816Y0171372D01*
X0191882Y0171570D02*
X0197933Y0171570D01*
X0198006Y0171769D02*
X0191948Y0171769D01*
X0192014Y0171967D02*
X0198080Y0171967D01*
X0198153Y0172166D02*
X0192080Y0172166D01*
X0192147Y0172364D02*
X0198226Y0172364D01*
X0198299Y0172563D02*
X0192213Y0172563D01*
X0192334Y0172761D02*
X0198415Y0172761D01*
X0198580Y0172960D02*
X0192460Y0172960D01*
X0192587Y0173158D02*
X0198745Y0173158D01*
X0198911Y0173357D02*
X0192713Y0173357D01*
X0192839Y0173555D02*
X0199076Y0173555D01*
X0199246Y0173754D02*
X0192965Y0173754D01*
X0193092Y0173952D02*
X0199614Y0173952D01*
X0199983Y0174151D02*
X0193218Y0174151D01*
X0193344Y0174350D02*
X0200352Y0174350D01*
X0202005Y0174548D02*
X0193471Y0174548D01*
X0185817Y0174548D02*
X0178448Y0174548D01*
X0178277Y0174350D02*
X0184147Y0174350D01*
X0183452Y0174151D02*
X0177995Y0174151D01*
X0177713Y0173952D02*
X0183061Y0173952D01*
X0182749Y0173754D02*
X0177431Y0173754D01*
X0177149Y0173555D02*
X0182437Y0173555D01*
X0182180Y0173357D02*
X0176867Y0173357D01*
X0176585Y0173158D02*
X0181957Y0173158D01*
X0181733Y0172960D02*
X0176303Y0172960D01*
X0176020Y0172761D02*
X0181510Y0172761D01*
X0181400Y0172563D02*
X0175841Y0172563D01*
X0175662Y0172364D02*
X0181291Y0172364D01*
X0181182Y0172166D02*
X0175484Y0172166D01*
X0175305Y0171967D02*
X0181072Y0171967D01*
X0180963Y0171769D02*
X0175159Y0171769D01*
X0175050Y0171570D02*
X0180854Y0171570D01*
X0180745Y0171372D02*
X0174942Y0171372D01*
X0174834Y0171173D02*
X0180636Y0171173D01*
X0180527Y0170975D02*
X0174726Y0170975D01*
X0174727Y0170578D02*
X0180605Y0170578D01*
X0180574Y0170379D02*
X0174671Y0170379D01*
X0174616Y0170181D02*
X0180542Y0170181D01*
X0180511Y0169982D02*
X0174560Y0169982D01*
X0174505Y0169784D02*
X0180480Y0169784D01*
X0180448Y0169585D02*
X0174449Y0169585D01*
X0174394Y0169387D02*
X0180417Y0169387D01*
X0180386Y0169188D02*
X0174338Y0169188D01*
X0174282Y0168990D02*
X0180354Y0168990D01*
X0180362Y0168791D02*
X0174227Y0168791D01*
X0174171Y0168593D02*
X0180408Y0168593D01*
X0180455Y0168394D02*
X0174126Y0168394D01*
X0174114Y0168196D02*
X0180502Y0168196D01*
X0180548Y0167997D02*
X0174102Y0167997D01*
X0174090Y0167799D02*
X0180595Y0167799D01*
X0180642Y0167600D02*
X0174078Y0167600D01*
X0174065Y0167402D02*
X0180689Y0167402D01*
X0180868Y0167203D02*
X0174053Y0167203D01*
X0174041Y0167005D02*
X0181083Y0167005D01*
X0181298Y0166806D02*
X0174029Y0166806D01*
X0174017Y0166608D02*
X0181514Y0166608D01*
X0181729Y0166409D02*
X0174005Y0166409D01*
X0173993Y0166211D02*
X0182088Y0166211D01*
X0182717Y0166012D02*
X0173981Y0166012D01*
X0173969Y0165814D02*
X0183346Y0165814D01*
X0179995Y0157675D02*
X0189681Y0157675D01*
X0189114Y0157476D02*
X0180563Y0157476D01*
X0179428Y0157873D02*
X0190249Y0157873D01*
X0187974Y0157278D02*
X0182141Y0157278D01*
X0183809Y0157079D02*
X0186321Y0157079D01*
X0200678Y0158270D02*
X0203619Y0158270D01*
X0205019Y0158469D02*
X0200678Y0158469D01*
X0200678Y0158667D02*
X0205713Y0158667D01*
X0206408Y0158866D02*
X0200678Y0158866D01*
X0200678Y0159064D02*
X0207103Y0159064D01*
X0207468Y0159263D02*
X0200678Y0159263D01*
X0200678Y0159461D02*
X0207803Y0159461D01*
X0208139Y0159660D02*
X0200678Y0159660D01*
X0200678Y0159858D02*
X0208475Y0159858D01*
X0208811Y0160057D02*
X0200678Y0160057D01*
X0200678Y0160255D02*
X0209144Y0160255D01*
X0209354Y0160454D02*
X0200678Y0160454D01*
X0200678Y0160652D02*
X0209564Y0160652D01*
X0209775Y0160851D02*
X0200678Y0160851D01*
X0200678Y0161049D02*
X0209985Y0161049D01*
X0210195Y0161248D02*
X0200678Y0161248D01*
X0200678Y0161446D02*
X0210405Y0161446D01*
X0210615Y0161645D02*
X0200678Y0161645D01*
X0200678Y0161843D02*
X0210800Y0161843D01*
X0210929Y0162042D02*
X0200678Y0162042D01*
X0200678Y0162240D02*
X0211058Y0162240D01*
X0211187Y0162439D02*
X0200678Y0162439D01*
X0200678Y0162637D02*
X0211316Y0162637D01*
X0211445Y0162836D02*
X0200678Y0162836D01*
X0200678Y0163034D02*
X0211574Y0163034D01*
X0211703Y0163233D02*
X0200678Y0163233D01*
X0200678Y0163431D02*
X0211832Y0163431D01*
X0211948Y0163630D02*
X0200678Y0163630D01*
X0200678Y0163828D02*
X0212026Y0163828D01*
X0212103Y0164027D02*
X0200678Y0164027D01*
X0200678Y0164225D02*
X0212181Y0164225D01*
X0212259Y0164424D02*
X0200678Y0164424D01*
X0200678Y0164622D02*
X0212336Y0164622D01*
X0212414Y0164821D02*
X0200678Y0164821D01*
X0200678Y0165019D02*
X0212492Y0165019D01*
X0212569Y0165218D02*
X0200678Y0165218D01*
X0200678Y0165416D02*
X0212647Y0165416D01*
X0212725Y0165615D02*
X0200678Y0165615D01*
X0200678Y0165814D02*
X0212770Y0165814D01*
X0212808Y0166012D02*
X0200678Y0166012D01*
X0201909Y0166211D02*
X0212846Y0166211D01*
X0212884Y0166409D02*
X0203365Y0166409D01*
X0204017Y0166608D02*
X0212923Y0166608D01*
X0212961Y0166806D02*
X0204392Y0166806D01*
X0204767Y0167005D02*
X0212999Y0167005D01*
X0213037Y0167203D02*
X0205142Y0167203D01*
X0205372Y0167402D02*
X0213075Y0167402D01*
X0213113Y0167600D02*
X0205528Y0167600D01*
X0205684Y0167799D02*
X0213152Y0167799D01*
X0213189Y0167997D02*
X0205840Y0167997D01*
X0205996Y0168196D02*
X0213204Y0168196D01*
X0213218Y0168394D02*
X0206152Y0168394D01*
X0206271Y0168593D02*
X0213233Y0168593D01*
X0213248Y0168791D02*
X0206311Y0168791D01*
X0206350Y0168990D02*
X0213262Y0168990D01*
X0213277Y0169188D02*
X0206390Y0169188D01*
X0206430Y0169387D02*
X0213292Y0169387D01*
X0213307Y0169585D02*
X0206469Y0169585D01*
X0206509Y0169784D02*
X0213321Y0169784D01*
X0213336Y0169982D02*
X0206549Y0169982D01*
X0206589Y0170181D02*
X0213351Y0170181D01*
X0213365Y0170379D02*
X0206612Y0170379D01*
X0206585Y0170578D02*
X0213132Y0170578D01*
X0213090Y0170776D02*
X0206558Y0170776D01*
X0206530Y0170975D02*
X0213080Y0170975D01*
X0213070Y0171173D02*
X0206503Y0171173D01*
X0206476Y0171372D02*
X0213061Y0171372D01*
X0213051Y0171570D02*
X0206449Y0171570D01*
X0206422Y0171769D02*
X0213041Y0171769D01*
X0213032Y0171967D02*
X0206395Y0171967D01*
X0206368Y0172166D02*
X0213022Y0172166D01*
X0213012Y0172364D02*
X0206310Y0172364D01*
X0206168Y0172563D02*
X0213003Y0172563D01*
X0212993Y0172761D02*
X0206026Y0172761D01*
X0205884Y0172960D02*
X0212983Y0172960D01*
X0212974Y0173158D02*
X0205742Y0173158D01*
X0205601Y0173357D02*
X0212964Y0173357D01*
X0212954Y0173555D02*
X0205459Y0173555D01*
X0205080Y0173754D02*
X0212945Y0173754D01*
X0212935Y0173952D02*
X0204683Y0173952D01*
X0204286Y0174151D02*
X0212925Y0174151D01*
X0212905Y0174350D02*
X0203592Y0174350D01*
X0202202Y0174548D02*
X0212862Y0174548D01*
X0212819Y0174747D02*
X0178024Y0174747D01*
X0177150Y0174945D02*
X0212775Y0174945D01*
X0212732Y0175144D02*
X0176349Y0175144D01*
X0175803Y0175342D02*
X0212688Y0175342D01*
X0212645Y0175541D02*
X0175257Y0175541D01*
X0174711Y0175739D02*
X0212601Y0175739D01*
X0212558Y0175938D02*
X0174488Y0175938D01*
X0174488Y0176136D02*
X0212515Y0176136D01*
X0212471Y0176335D02*
X0174488Y0176335D01*
X0174488Y0176533D02*
X0212428Y0176533D01*
X0212384Y0176732D02*
X0174488Y0176732D01*
X0174488Y0176930D02*
X0212341Y0176930D01*
X0212297Y0177129D02*
X0174488Y0177129D01*
X0174488Y0177327D02*
X0212216Y0177327D01*
X0212125Y0177526D02*
X0174488Y0177526D01*
X0174488Y0177724D02*
X0212034Y0177724D01*
X0211943Y0177923D02*
X0174488Y0177923D01*
X0174488Y0178121D02*
X0211852Y0178121D01*
X0211761Y0178320D02*
X0174488Y0178320D01*
X0174488Y0178518D02*
X0211670Y0178518D01*
X0211579Y0178717D02*
X0174488Y0178717D01*
X0174488Y0178915D02*
X0211488Y0178915D01*
X0211398Y0179114D02*
X0174488Y0179114D01*
X0174488Y0179312D02*
X0211307Y0179312D01*
X0211148Y0179511D02*
X0174488Y0179511D01*
X0174488Y0179709D02*
X0210982Y0179709D01*
X0210817Y0179908D02*
X0174488Y0179908D01*
X0174488Y0180106D02*
X0210651Y0180106D01*
X0210486Y0180305D02*
X0174488Y0180305D01*
X0174488Y0180503D02*
X0210321Y0180503D01*
X0210155Y0180702D02*
X0174488Y0180702D01*
X0174488Y0180900D02*
X0209990Y0180900D01*
X0209731Y0181099D02*
X0174488Y0181099D01*
X0174488Y0181297D02*
X0209441Y0181297D01*
X0209151Y0181496D02*
X0174488Y0181496D01*
X0174488Y0181694D02*
X0208860Y0181694D01*
X0208570Y0181893D02*
X0174488Y0181893D01*
X0174488Y0182091D02*
X0208280Y0182091D01*
X0207771Y0182290D02*
X0174488Y0182290D01*
X0174488Y0182488D02*
X0207225Y0182488D01*
X0206679Y0182687D02*
X0174488Y0182687D01*
X0174488Y0182885D02*
X0205974Y0182885D01*
X0204733Y0183084D02*
X0174488Y0183084D01*
X0174488Y0183283D02*
X0201780Y0183283D01*
X0212468Y0189410D02*
X0212468Y0198050D01*
X0212378Y0198140D01*
X0207338Y0198140D01*
X0207338Y0198320D01*
X0209768Y0199850D01*
X0211658Y0201650D01*
X0212918Y0203810D01*
X0213368Y0206420D01*
X0213368Y0207230D01*
X0213278Y0208040D01*
X0204008Y0208040D01*
X0204098Y0206600D01*
X0204098Y0205160D01*
X0203738Y0202820D01*
X0203288Y0201650D01*
X0202568Y0200660D01*
X0201668Y0199760D01*
X0200498Y0199040D01*
X0199058Y0198590D01*
X0197348Y0198410D01*
X0174668Y0198410D01*
X0174668Y0189410D01*
X0212468Y0189410D01*
X0212468Y0189436D02*
X0174668Y0189436D01*
X0174668Y0189635D02*
X0212468Y0189635D01*
X0212468Y0189833D02*
X0174668Y0189833D01*
X0174668Y0190032D02*
X0212468Y0190032D01*
X0212468Y0190230D02*
X0174668Y0190230D01*
X0174668Y0190429D02*
X0212468Y0190429D01*
X0212468Y0190627D02*
X0174668Y0190627D01*
X0174668Y0190826D02*
X0212468Y0190826D01*
X0212468Y0191024D02*
X0174668Y0191024D01*
X0174668Y0191223D02*
X0212468Y0191223D01*
X0212468Y0191421D02*
X0174668Y0191421D01*
X0174668Y0191620D02*
X0212468Y0191620D01*
X0212468Y0191819D02*
X0174668Y0191819D01*
X0174668Y0192017D02*
X0212468Y0192017D01*
X0212468Y0192216D02*
X0174668Y0192216D01*
X0174668Y0192414D02*
X0212468Y0192414D01*
X0212468Y0192613D02*
X0174668Y0192613D01*
X0174668Y0192811D02*
X0212468Y0192811D01*
X0212468Y0193010D02*
X0174668Y0193010D01*
X0174668Y0193208D02*
X0212468Y0193208D01*
X0212468Y0193407D02*
X0174668Y0193407D01*
X0174668Y0193605D02*
X0212468Y0193605D01*
X0212468Y0193804D02*
X0174668Y0193804D01*
X0174668Y0194002D02*
X0212468Y0194002D01*
X0212468Y0194201D02*
X0174668Y0194201D01*
X0174668Y0194399D02*
X0212468Y0194399D01*
X0212468Y0194598D02*
X0174668Y0194598D01*
X0174668Y0194796D02*
X0212468Y0194796D01*
X0212468Y0194995D02*
X0174668Y0194995D01*
X0174668Y0195193D02*
X0212468Y0195193D01*
X0212468Y0195392D02*
X0174668Y0195392D01*
X0174668Y0195590D02*
X0212468Y0195590D01*
X0212468Y0195789D02*
X0174668Y0195789D01*
X0174668Y0195987D02*
X0212468Y0195987D01*
X0212468Y0196186D02*
X0174668Y0196186D01*
X0174668Y0196384D02*
X0212468Y0196384D01*
X0212468Y0196583D02*
X0174668Y0196583D01*
X0174668Y0196781D02*
X0212468Y0196781D01*
X0212468Y0196980D02*
X0174668Y0196980D01*
X0174668Y0197178D02*
X0212468Y0197178D01*
X0212468Y0197377D02*
X0174668Y0197377D01*
X0174668Y0197575D02*
X0212468Y0197575D01*
X0212468Y0197774D02*
X0174668Y0197774D01*
X0174668Y0197972D02*
X0212468Y0197972D01*
X0210298Y0200354D02*
X0202263Y0200354D01*
X0202064Y0200156D02*
X0210090Y0200156D01*
X0209881Y0199957D02*
X0201866Y0199957D01*
X0201667Y0199759D02*
X0209624Y0199759D01*
X0209309Y0199560D02*
X0201344Y0199560D01*
X0201022Y0199362D02*
X0208993Y0199362D01*
X0208678Y0199163D02*
X0200699Y0199163D01*
X0200258Y0198965D02*
X0208363Y0198965D01*
X0208047Y0198766D02*
X0199623Y0198766D01*
X0198848Y0198568D02*
X0207732Y0198568D01*
X0207417Y0198369D02*
X0174668Y0198369D01*
X0174668Y0198171D02*
X0207338Y0198171D01*
X0210507Y0200553D02*
X0202461Y0200553D01*
X0202635Y0200752D02*
X0210715Y0200752D01*
X0210923Y0200950D02*
X0202779Y0200950D01*
X0202924Y0201149D02*
X0211132Y0201149D01*
X0211340Y0201347D02*
X0203068Y0201347D01*
X0203212Y0201546D02*
X0211549Y0201546D01*
X0211713Y0201744D02*
X0203325Y0201744D01*
X0203401Y0201943D02*
X0211829Y0201943D01*
X0211945Y0202141D02*
X0203477Y0202141D01*
X0203554Y0202340D02*
X0212061Y0202340D01*
X0212176Y0202538D02*
X0203630Y0202538D01*
X0203706Y0202737D02*
X0212292Y0202737D01*
X0212408Y0202935D02*
X0203756Y0202935D01*
X0203787Y0203134D02*
X0212524Y0203134D01*
X0212640Y0203332D02*
X0203817Y0203332D01*
X0203848Y0203531D02*
X0212755Y0203531D01*
X0212871Y0203729D02*
X0203878Y0203729D01*
X0203909Y0203928D02*
X0212939Y0203928D01*
X0212973Y0204126D02*
X0203939Y0204126D01*
X0203970Y0204325D02*
X0213007Y0204325D01*
X0213041Y0204523D02*
X0204000Y0204523D01*
X0204031Y0204722D02*
X0213076Y0204722D01*
X0213110Y0204920D02*
X0204062Y0204920D01*
X0204092Y0205119D02*
X0213144Y0205119D01*
X0213178Y0205317D02*
X0204098Y0205317D01*
X0204098Y0205516D02*
X0213213Y0205516D01*
X0213247Y0205714D02*
X0204098Y0205714D01*
X0204098Y0205913D02*
X0213281Y0205913D01*
X0213315Y0206111D02*
X0204098Y0206111D01*
X0204098Y0206310D02*
X0213349Y0206310D01*
X0213368Y0206508D02*
X0204098Y0206508D01*
X0204092Y0206707D02*
X0213368Y0206707D01*
X0213368Y0206905D02*
X0204079Y0206905D01*
X0204067Y0207104D02*
X0213368Y0207104D01*
X0213360Y0207302D02*
X0204055Y0207302D01*
X0204042Y0207501D02*
X0213338Y0207501D01*
X0213316Y0207699D02*
X0204030Y0207699D01*
X0204017Y0207898D02*
X0213294Y0207898D01*
X0178849Y0183481D02*
X0174488Y0183481D01*
X0174488Y0183680D02*
X0177220Y0183680D01*
X0176525Y0183878D02*
X0174488Y0183878D01*
X0174488Y0184077D02*
X0175830Y0184077D01*
X0175136Y0184275D02*
X0174488Y0184275D01*
X0282128Y0146390D02*
X0281858Y0143060D01*
X0282038Y0139910D01*
X0282668Y0137210D01*
X0283928Y0134870D01*
X0285818Y0132980D01*
X0288518Y0131540D01*
X0291938Y0130460D01*
X0296258Y0129830D01*
X0301478Y0129650D01*
X0306788Y0129920D01*
X0311108Y0130730D01*
X0314528Y0131990D01*
X0317228Y0133700D01*
X0319118Y0135770D01*
X0320378Y0138200D01*
X0321098Y0140990D01*
X0321368Y0143960D01*
X0321098Y0146930D01*
X0320378Y0149450D01*
X0319118Y0151610D01*
X0317408Y0153410D01*
X0315248Y0154760D01*
X0312728Y0155750D01*
X0309848Y0156380D01*
X0306698Y0156560D01*
X0306698Y0147920D01*
X0309398Y0147740D01*
X0309488Y0147650D01*
X0311918Y0147020D01*
X0312908Y0146480D01*
X0313718Y0145760D01*
X0314258Y0144860D01*
X0314438Y0143690D01*
X0314258Y0142160D01*
X0313628Y0140990D01*
X0312638Y0140090D01*
X0311288Y0139460D01*
X0307328Y0138740D01*
X0301568Y0138560D01*
X0295538Y0138740D01*
X0293288Y0139010D01*
X0291488Y0139460D01*
X0290138Y0140090D01*
X0289148Y0140900D01*
X0288608Y0141980D01*
X0288428Y0143330D01*
X0288518Y0144410D01*
X0288878Y0145310D01*
X0289508Y0146030D01*
X0290408Y0146660D01*
X0293108Y0147470D01*
X0297158Y0147740D01*
X0297158Y0156380D01*
X0293648Y0156200D01*
X0290588Y0155660D01*
X0287978Y0154670D01*
X0285818Y0153320D01*
X0284108Y0151520D01*
X0282848Y0149180D01*
X0282128Y0146390D01*
X0282126Y0146359D02*
X0289979Y0146359D01*
X0289695Y0146161D02*
X0282110Y0146161D01*
X0282094Y0145962D02*
X0289449Y0145962D01*
X0289276Y0145764D02*
X0282078Y0145764D01*
X0282062Y0145565D02*
X0289102Y0145565D01*
X0288928Y0145367D02*
X0282045Y0145367D01*
X0282029Y0145168D02*
X0288822Y0145168D01*
X0288742Y0144970D02*
X0282013Y0144970D01*
X0281997Y0144771D02*
X0288663Y0144771D01*
X0288584Y0144573D02*
X0281981Y0144573D01*
X0281965Y0144374D02*
X0288515Y0144374D01*
X0288499Y0144176D02*
X0281949Y0144176D01*
X0281933Y0143977D02*
X0288482Y0143977D01*
X0288466Y0143779D02*
X0281917Y0143779D01*
X0281901Y0143580D02*
X0288449Y0143580D01*
X0288433Y0143382D02*
X0281885Y0143382D01*
X0281868Y0143183D02*
X0288448Y0143183D01*
X0288474Y0142985D02*
X0281863Y0142985D01*
X0281874Y0142786D02*
X0288501Y0142786D01*
X0288527Y0142588D02*
X0281885Y0142588D01*
X0281897Y0142389D02*
X0288554Y0142389D01*
X0288580Y0142191D02*
X0281908Y0142191D01*
X0281919Y0141992D02*
X0288607Y0141992D01*
X0288702Y0141794D02*
X0281931Y0141794D01*
X0281942Y0141595D02*
X0288801Y0141595D01*
X0288900Y0141397D02*
X0281953Y0141397D01*
X0281965Y0141198D02*
X0288999Y0141198D01*
X0289099Y0141000D02*
X0281976Y0141000D01*
X0281988Y0140801D02*
X0289269Y0140801D01*
X0289512Y0140603D02*
X0281999Y0140603D01*
X0282010Y0140404D02*
X0289755Y0140404D01*
X0289997Y0140206D02*
X0282022Y0140206D01*
X0282033Y0140007D02*
X0290316Y0140007D01*
X0290742Y0139809D02*
X0282062Y0139809D01*
X0282108Y0139610D02*
X0291167Y0139610D01*
X0291682Y0139412D02*
X0282155Y0139412D01*
X0282201Y0139213D02*
X0292476Y0139213D01*
X0293270Y0139014D02*
X0282247Y0139014D01*
X0282294Y0138816D02*
X0294905Y0138816D01*
X0299643Y0138617D02*
X0282340Y0138617D01*
X0282386Y0138419D02*
X0320435Y0138419D01*
X0320486Y0138617D02*
X0303407Y0138617D01*
X0307746Y0138816D02*
X0320537Y0138816D01*
X0320589Y0139014D02*
X0308838Y0139014D01*
X0309930Y0139213D02*
X0320640Y0139213D01*
X0320691Y0139412D02*
X0311022Y0139412D01*
X0311610Y0139610D02*
X0320742Y0139610D01*
X0320794Y0139809D02*
X0312035Y0139809D01*
X0312461Y0140007D02*
X0320845Y0140007D01*
X0320896Y0140206D02*
X0312766Y0140206D01*
X0312984Y0140404D02*
X0320947Y0140404D01*
X0320998Y0140603D02*
X0313202Y0140603D01*
X0313421Y0140801D02*
X0321050Y0140801D01*
X0321099Y0141000D02*
X0313634Y0141000D01*
X0313740Y0141198D02*
X0321117Y0141198D01*
X0321135Y0141397D02*
X0313847Y0141397D01*
X0313954Y0141595D02*
X0321153Y0141595D01*
X0321171Y0141794D02*
X0314061Y0141794D01*
X0314168Y0141992D02*
X0321190Y0141992D01*
X0321208Y0142191D02*
X0314262Y0142191D01*
X0314285Y0142389D02*
X0321226Y0142389D01*
X0321244Y0142588D02*
X0314309Y0142588D01*
X0314332Y0142786D02*
X0321262Y0142786D01*
X0321280Y0142985D02*
X0314355Y0142985D01*
X0314379Y0143183D02*
X0321298Y0143183D01*
X0321316Y0143382D02*
X0314402Y0143382D01*
X0314426Y0143580D02*
X0321334Y0143580D01*
X0321352Y0143779D02*
X0314425Y0143779D01*
X0314394Y0143977D02*
X0321367Y0143977D01*
X0321349Y0144176D02*
X0314364Y0144176D01*
X0314333Y0144374D02*
X0321331Y0144374D01*
X0321313Y0144573D02*
X0314303Y0144573D01*
X0314272Y0144771D02*
X0321295Y0144771D01*
X0321277Y0144970D02*
X0314193Y0144970D01*
X0314073Y0145168D02*
X0321259Y0145168D01*
X0321241Y0145367D02*
X0313954Y0145367D01*
X0313835Y0145565D02*
X0321222Y0145565D01*
X0321204Y0145764D02*
X0313714Y0145764D01*
X0313491Y0145962D02*
X0321186Y0145962D01*
X0321168Y0146161D02*
X0313267Y0146161D01*
X0313044Y0146359D02*
X0321150Y0146359D01*
X0321132Y0146558D02*
X0312766Y0146558D01*
X0312402Y0146756D02*
X0321114Y0146756D01*
X0321091Y0146955D02*
X0312038Y0146955D01*
X0311404Y0147153D02*
X0321035Y0147153D01*
X0320978Y0147352D02*
X0310638Y0147352D01*
X0309872Y0147550D02*
X0320921Y0147550D01*
X0320864Y0147749D02*
X0309264Y0147749D01*
X0306698Y0147948D02*
X0320808Y0147948D01*
X0320751Y0148146D02*
X0306698Y0148146D01*
X0306698Y0148345D02*
X0320694Y0148345D01*
X0320638Y0148543D02*
X0306698Y0148543D01*
X0306698Y0148742D02*
X0320581Y0148742D01*
X0320524Y0148940D02*
X0306698Y0148940D01*
X0306698Y0149139D02*
X0320467Y0149139D01*
X0320411Y0149337D02*
X0306698Y0149337D01*
X0306698Y0149536D02*
X0320328Y0149536D01*
X0320213Y0149734D02*
X0306698Y0149734D01*
X0306698Y0149933D02*
X0320097Y0149933D01*
X0319981Y0150131D02*
X0306698Y0150131D01*
X0306698Y0150330D02*
X0319865Y0150330D01*
X0319750Y0150528D02*
X0306698Y0150528D01*
X0306698Y0150727D02*
X0319634Y0150727D01*
X0319518Y0150925D02*
X0306698Y0150925D01*
X0306698Y0151124D02*
X0319402Y0151124D01*
X0319286Y0151322D02*
X0306698Y0151322D01*
X0306698Y0151521D02*
X0319171Y0151521D01*
X0319015Y0151719D02*
X0306698Y0151719D01*
X0306698Y0151918D02*
X0318826Y0151918D01*
X0318638Y0152116D02*
X0306698Y0152116D01*
X0306698Y0152315D02*
X0318449Y0152315D01*
X0318260Y0152513D02*
X0306698Y0152513D01*
X0306698Y0152712D02*
X0318072Y0152712D01*
X0317883Y0152910D02*
X0306698Y0152910D01*
X0306698Y0153109D02*
X0317695Y0153109D01*
X0317506Y0153307D02*
X0306698Y0153307D01*
X0306698Y0153506D02*
X0317255Y0153506D01*
X0316938Y0153704D02*
X0306698Y0153704D01*
X0306698Y0153903D02*
X0316620Y0153903D01*
X0316302Y0154101D02*
X0306698Y0154101D01*
X0306698Y0154300D02*
X0315985Y0154300D01*
X0315667Y0154498D02*
X0306698Y0154498D01*
X0306698Y0154697D02*
X0315349Y0154697D01*
X0314904Y0154895D02*
X0306698Y0154895D01*
X0306698Y0155094D02*
X0314398Y0155094D01*
X0313893Y0155292D02*
X0306698Y0155292D01*
X0306698Y0155491D02*
X0313388Y0155491D01*
X0312883Y0155689D02*
X0306698Y0155689D01*
X0306698Y0155888D02*
X0312098Y0155888D01*
X0311190Y0156086D02*
X0306698Y0156086D01*
X0306698Y0156285D02*
X0310283Y0156285D01*
X0308037Y0156483D02*
X0306698Y0156483D01*
X0297158Y0156285D02*
X0295306Y0156285D01*
X0297158Y0156086D02*
X0293005Y0156086D01*
X0291880Y0155888D02*
X0297158Y0155888D01*
X0297158Y0155689D02*
X0290755Y0155689D01*
X0290143Y0155491D02*
X0297158Y0155491D01*
X0297158Y0155292D02*
X0289619Y0155292D01*
X0289096Y0155094D02*
X0297158Y0155094D01*
X0297158Y0154895D02*
X0288573Y0154895D01*
X0288049Y0154697D02*
X0297158Y0154697D01*
X0297158Y0154498D02*
X0287704Y0154498D01*
X0287386Y0154300D02*
X0297158Y0154300D01*
X0297158Y0154101D02*
X0287069Y0154101D01*
X0286751Y0153903D02*
X0297158Y0153903D01*
X0297158Y0153704D02*
X0286433Y0153704D01*
X0286116Y0153506D02*
X0297158Y0153506D01*
X0297158Y0153307D02*
X0285806Y0153307D01*
X0285618Y0153109D02*
X0297158Y0153109D01*
X0297158Y0152910D02*
X0285429Y0152910D01*
X0285241Y0152712D02*
X0297158Y0152712D01*
X0297158Y0152513D02*
X0285052Y0152513D01*
X0284863Y0152315D02*
X0297158Y0152315D01*
X0297158Y0152116D02*
X0284675Y0152116D01*
X0284486Y0151918D02*
X0297158Y0151918D01*
X0297158Y0151719D02*
X0284298Y0151719D01*
X0284109Y0151521D02*
X0297158Y0151521D01*
X0297158Y0151322D02*
X0284002Y0151322D01*
X0283895Y0151124D02*
X0297158Y0151124D01*
X0297158Y0150925D02*
X0283788Y0150925D01*
X0283681Y0150727D02*
X0297158Y0150727D01*
X0297158Y0150528D02*
X0283574Y0150528D01*
X0283467Y0150330D02*
X0297158Y0150330D01*
X0297158Y0150131D02*
X0283361Y0150131D01*
X0283254Y0149933D02*
X0297158Y0149933D01*
X0297158Y0149734D02*
X0283147Y0149734D01*
X0283040Y0149536D02*
X0297158Y0149536D01*
X0297158Y0149337D02*
X0282933Y0149337D01*
X0282838Y0149139D02*
X0297158Y0149139D01*
X0297158Y0148940D02*
X0282787Y0148940D01*
X0282735Y0148742D02*
X0297158Y0148742D01*
X0297158Y0148543D02*
X0282684Y0148543D01*
X0282633Y0148345D02*
X0297158Y0148345D01*
X0297158Y0148146D02*
X0282582Y0148146D01*
X0282530Y0147948D02*
X0297158Y0147948D01*
X0297158Y0147749D02*
X0282479Y0147749D01*
X0282428Y0147550D02*
X0294316Y0147550D01*
X0292715Y0147352D02*
X0282377Y0147352D01*
X0282325Y0147153D02*
X0292053Y0147153D01*
X0291392Y0146955D02*
X0282274Y0146955D01*
X0282223Y0146756D02*
X0290730Y0146756D01*
X0290263Y0146558D02*
X0282172Y0146558D01*
X0282433Y0138220D02*
X0320384Y0138220D01*
X0320286Y0138022D02*
X0282479Y0138022D01*
X0282525Y0137823D02*
X0320183Y0137823D01*
X0320080Y0137625D02*
X0282572Y0137625D01*
X0282618Y0137426D02*
X0319977Y0137426D01*
X0319874Y0137228D02*
X0282664Y0137228D01*
X0282766Y0137029D02*
X0319771Y0137029D01*
X0319669Y0136831D02*
X0282873Y0136831D01*
X0282979Y0136632D02*
X0319566Y0136632D01*
X0319463Y0136434D02*
X0283086Y0136434D01*
X0283193Y0136235D02*
X0319360Y0136235D01*
X0319257Y0136037D02*
X0283300Y0136037D01*
X0283407Y0135838D02*
X0319154Y0135838D01*
X0319000Y0135640D02*
X0283514Y0135640D01*
X0283621Y0135441D02*
X0318818Y0135441D01*
X0318637Y0135243D02*
X0283728Y0135243D01*
X0283835Y0135044D02*
X0318456Y0135044D01*
X0318275Y0134846D02*
X0283953Y0134846D01*
X0284151Y0134647D02*
X0318093Y0134647D01*
X0317912Y0134449D02*
X0284350Y0134449D01*
X0284548Y0134250D02*
X0317731Y0134250D01*
X0317550Y0134052D02*
X0284747Y0134052D01*
X0284945Y0133853D02*
X0317368Y0133853D01*
X0317157Y0133655D02*
X0285144Y0133655D01*
X0285342Y0133456D02*
X0316843Y0133456D01*
X0316530Y0133258D02*
X0285541Y0133258D01*
X0285739Y0133059D02*
X0316217Y0133059D01*
X0315903Y0132861D02*
X0286042Y0132861D01*
X0286414Y0132662D02*
X0315590Y0132662D01*
X0315276Y0132464D02*
X0286787Y0132464D01*
X0287159Y0132265D02*
X0314963Y0132265D01*
X0314649Y0132067D02*
X0287531Y0132067D01*
X0287903Y0131868D02*
X0314198Y0131868D01*
X0313659Y0131670D02*
X0288275Y0131670D01*
X0288737Y0131471D02*
X0313120Y0131471D01*
X0312581Y0131273D02*
X0289365Y0131273D01*
X0289994Y0131074D02*
X0312042Y0131074D01*
X0311503Y0130876D02*
X0290623Y0130876D01*
X0291251Y0130677D02*
X0310826Y0130677D01*
X0309767Y0130479D02*
X0291880Y0130479D01*
X0293173Y0130280D02*
X0308708Y0130280D01*
X0307650Y0130081D02*
X0294534Y0130081D01*
X0295895Y0129883D02*
X0306060Y0129883D01*
X0302156Y0129684D02*
X0300479Y0129684D01*
X0282578Y0124610D02*
X0282578Y0115610D01*
X0320378Y0115610D01*
X0320378Y0124610D01*
X0282578Y0124610D01*
X0282578Y0124523D02*
X0320378Y0124523D01*
X0320378Y0124325D02*
X0282578Y0124325D01*
X0282578Y0124126D02*
X0320378Y0124126D01*
X0320378Y0123928D02*
X0282578Y0123928D01*
X0282578Y0123729D02*
X0320378Y0123729D01*
X0320378Y0123531D02*
X0282578Y0123531D01*
X0282578Y0123332D02*
X0320378Y0123332D01*
X0320378Y0123134D02*
X0282578Y0123134D01*
X0282578Y0122935D02*
X0320378Y0122935D01*
X0320378Y0122737D02*
X0282578Y0122737D01*
X0282578Y0122538D02*
X0320378Y0122538D01*
X0320378Y0122340D02*
X0282578Y0122340D01*
X0282578Y0122141D02*
X0320378Y0122141D01*
X0320378Y0121943D02*
X0282578Y0121943D01*
X0282578Y0121744D02*
X0320378Y0121744D01*
X0320378Y0121545D02*
X0282578Y0121545D01*
X0282578Y0121347D02*
X0320378Y0121347D01*
X0320378Y0121148D02*
X0282578Y0121148D01*
X0282578Y0120950D02*
X0320378Y0120950D01*
X0320378Y0120751D02*
X0282578Y0120751D01*
X0282578Y0120553D02*
X0320378Y0120553D01*
X0320378Y0120354D02*
X0282578Y0120354D01*
X0282578Y0120156D02*
X0320378Y0120156D01*
X0320378Y0119957D02*
X0282578Y0119957D01*
X0282578Y0119759D02*
X0320378Y0119759D01*
X0320378Y0119560D02*
X0282578Y0119560D01*
X0282578Y0119362D02*
X0320378Y0119362D01*
X0320378Y0119163D02*
X0282578Y0119163D01*
X0282578Y0118965D02*
X0320378Y0118965D01*
X0320378Y0118766D02*
X0282578Y0118766D01*
X0282578Y0118568D02*
X0320378Y0118568D01*
X0320378Y0118369D02*
X0282578Y0118369D01*
X0282578Y0118171D02*
X0320378Y0118171D01*
X0320378Y0117972D02*
X0282578Y0117972D01*
X0282578Y0117774D02*
X0320378Y0117774D01*
X0320378Y0117575D02*
X0282578Y0117575D01*
X0282578Y0117377D02*
X0320378Y0117377D01*
X0320378Y0117178D02*
X0282578Y0117178D01*
X0282578Y0116980D02*
X0320378Y0116980D01*
X0320378Y0116781D02*
X0282578Y0116781D01*
X0282578Y0116583D02*
X0320378Y0116583D01*
X0320378Y0116384D02*
X0282578Y0116384D01*
X0282578Y0116186D02*
X0320378Y0116186D01*
X0320378Y0115987D02*
X0282578Y0115987D01*
X0282578Y0115789D02*
X0320378Y0115789D01*
X0325058Y0115789D02*
X0333338Y0115789D01*
X0333338Y0115610D02*
X0333338Y0124610D01*
X0325058Y0124610D01*
X0325058Y0115610D01*
X0333338Y0115610D01*
X0333338Y0115987D02*
X0325058Y0115987D01*
X0325058Y0116186D02*
X0333338Y0116186D01*
X0333338Y0116384D02*
X0325058Y0116384D01*
X0325058Y0116583D02*
X0333338Y0116583D01*
X0333338Y0116781D02*
X0325058Y0116781D01*
X0325058Y0116980D02*
X0333338Y0116980D01*
X0333338Y0117178D02*
X0325058Y0117178D01*
X0325058Y0117377D02*
X0333338Y0117377D01*
X0333338Y0117575D02*
X0325058Y0117575D01*
X0325058Y0117774D02*
X0333338Y0117774D01*
X0333338Y0117972D02*
X0325058Y0117972D01*
X0325058Y0118171D02*
X0333338Y0118171D01*
X0333338Y0118369D02*
X0325058Y0118369D01*
X0325058Y0118568D02*
X0333338Y0118568D01*
X0333338Y0118766D02*
X0325058Y0118766D01*
X0325058Y0118965D02*
X0333338Y0118965D01*
X0333338Y0119163D02*
X0325058Y0119163D01*
X0325058Y0119362D02*
X0333338Y0119362D01*
X0333338Y0119560D02*
X0325058Y0119560D01*
X0325058Y0119759D02*
X0333338Y0119759D01*
X0333338Y0119957D02*
X0325058Y0119957D01*
X0325058Y0120156D02*
X0333338Y0120156D01*
X0333338Y0120354D02*
X0325058Y0120354D01*
X0325058Y0120553D02*
X0333338Y0120553D01*
X0333338Y0120751D02*
X0325058Y0120751D01*
X0325058Y0120950D02*
X0333338Y0120950D01*
X0333338Y0121148D02*
X0325058Y0121148D01*
X0325058Y0121347D02*
X0333338Y0121347D01*
X0333338Y0121545D02*
X0325058Y0121545D01*
X0325058Y0121744D02*
X0333338Y0121744D01*
X0333338Y0121943D02*
X0325058Y0121943D01*
X0325058Y0122141D02*
X0333338Y0122141D01*
X0333338Y0122340D02*
X0325058Y0122340D01*
X0325058Y0122538D02*
X0333338Y0122538D01*
X0333338Y0122737D02*
X0325058Y0122737D01*
X0325058Y0122935D02*
X0333338Y0122935D01*
X0333338Y0123134D02*
X0325058Y0123134D01*
X0325058Y0123332D02*
X0333338Y0123332D01*
X0333338Y0123531D02*
X0325058Y0123531D01*
X0325058Y0123729D02*
X0333338Y0123729D01*
X0333338Y0123928D02*
X0325058Y0123928D01*
X0325058Y0124126D02*
X0333338Y0124126D01*
X0333338Y0124325D02*
X0325058Y0124325D01*
X0325058Y0124523D02*
X0333338Y0124523D01*
X0226058Y0124523D02*
X0216324Y0124523D01*
X0216370Y0124325D02*
X0226058Y0124325D01*
X0226058Y0124126D02*
X0216415Y0124126D01*
X0216461Y0123928D02*
X0226058Y0123928D01*
X0225961Y0124722D02*
X0216278Y0124722D01*
X0216232Y0124920D02*
X0225068Y0124920D01*
X0224364Y0125119D02*
X0216186Y0125119D01*
X0216153Y0125317D02*
X0224111Y0125317D01*
X0223858Y0125516D02*
X0216140Y0125516D01*
X0216127Y0125714D02*
X0223606Y0125714D01*
X0223353Y0125913D02*
X0216114Y0125913D01*
X0216100Y0126111D02*
X0223144Y0126111D01*
X0212288Y0131471D02*
X0178840Y0131471D01*
X0178898Y0131670D02*
X0212288Y0131670D01*
X0212288Y0131868D02*
X0174488Y0131868D01*
X0174488Y0132067D02*
X0212288Y0132067D01*
X0212288Y0132265D02*
X0174488Y0132265D01*
X0174488Y0132464D02*
X0212288Y0132464D01*
X0212288Y0132662D02*
X0174488Y0132662D01*
X0174488Y0132861D02*
X0212288Y0132861D01*
X0212288Y0133059D02*
X0174488Y0133059D01*
X0174488Y0133258D02*
X0212288Y0133258D01*
X0212288Y0133456D02*
X0174488Y0133456D01*
X0174488Y0133655D02*
X0212288Y0133655D01*
X0212288Y0133853D02*
X0174488Y0133853D01*
X0174488Y0134052D02*
X0212288Y0134052D01*
X0212288Y0134250D02*
X0174488Y0134250D01*
X0174488Y0134449D02*
X0212288Y0134449D01*
X0212288Y0134647D02*
X0174488Y0134647D01*
X0174488Y0134846D02*
X0212288Y0134846D01*
X0212288Y0135044D02*
X0174488Y0135044D01*
X0174488Y0135243D02*
X0212288Y0135243D01*
X0212288Y0135441D02*
X0174488Y0135441D01*
X0174488Y0135640D02*
X0212288Y0135640D01*
X0212288Y0135838D02*
X0174488Y0135838D01*
X0174488Y0136037D02*
X0212288Y0136037D01*
X0212288Y0136235D02*
X0174488Y0136235D01*
X0174488Y0136434D02*
X0212288Y0136434D01*
X0212288Y0136632D02*
X0174488Y0136632D01*
X0174488Y0136831D02*
X0212288Y0136831D01*
X0212288Y0137029D02*
X0174488Y0137029D01*
X0174488Y0137228D02*
X0212288Y0137228D01*
X0212288Y0137426D02*
X0174488Y0137426D01*
X0174488Y0137625D02*
X0212288Y0137625D01*
X0212288Y0137823D02*
X0174488Y0137823D01*
X0174488Y0138022D02*
X0212288Y0138022D01*
X0212288Y0138220D02*
X0174488Y0138220D01*
X0174488Y0138419D02*
X0212288Y0138419D01*
X0212288Y0138617D02*
X0174488Y0138617D01*
X0174488Y0138816D02*
X0212288Y0138816D01*
X0212288Y0139014D02*
X0174488Y0139014D01*
X0174488Y0139213D02*
X0212288Y0139213D01*
X0212288Y0139412D02*
X0174488Y0139412D01*
X0174488Y0139610D02*
X0212288Y0139610D01*
X0212288Y0139809D02*
X0174488Y0139809D01*
X0174488Y0140007D02*
X0212288Y0140007D01*
X0212288Y0140206D02*
X0174488Y0140206D01*
X0178542Y0131273D02*
X0186394Y0131273D01*
X0184533Y0131074D02*
X0178244Y0131074D01*
X0177947Y0130876D02*
X0184097Y0130876D01*
X0183660Y0130677D02*
X0177649Y0130677D01*
X0177351Y0130479D02*
X0183223Y0130479D01*
X0182786Y0130280D02*
X0177053Y0130280D01*
X0176756Y0130081D02*
X0182464Y0130081D01*
X0182238Y0129883D02*
X0176549Y0129883D01*
X0176394Y0129684D02*
X0182011Y0129684D01*
X0181827Y0129486D02*
X0176238Y0129486D01*
X0176083Y0129287D02*
X0181717Y0129287D01*
X0181607Y0129089D02*
X0175928Y0129089D01*
X0175772Y0128890D02*
X0181496Y0128890D01*
X0181408Y0128692D02*
X0175617Y0128692D01*
X0175462Y0128493D02*
X0181374Y0128493D01*
X0181339Y0128295D02*
X0175306Y0128295D01*
X0175151Y0128096D02*
X0181305Y0128096D01*
X0181270Y0127898D02*
X0175013Y0127898D01*
X0174939Y0127699D02*
X0181236Y0127699D01*
X0181201Y0127501D02*
X0174866Y0127501D01*
X0174792Y0127302D02*
X0181167Y0127302D01*
X0181132Y0127104D02*
X0174719Y0127104D01*
X0174645Y0126905D02*
X0181098Y0126905D01*
X0181063Y0126707D02*
X0174572Y0126707D01*
X0174498Y0126508D02*
X0181086Y0126508D01*
X0181117Y0126310D02*
X0174425Y0126310D01*
X0174351Y0126111D02*
X0181148Y0126111D01*
X0181180Y0125913D02*
X0174278Y0125913D01*
X0174204Y0125714D02*
X0181211Y0125714D01*
X0181242Y0125516D02*
X0174131Y0125516D01*
X0174110Y0125317D02*
X0181274Y0125317D01*
X0181305Y0125119D02*
X0174091Y0125119D01*
X0174071Y0124920D02*
X0181367Y0124920D01*
X0181519Y0124722D02*
X0174052Y0124722D01*
X0174033Y0124523D02*
X0181672Y0124523D01*
X0181825Y0124325D02*
X0174014Y0124325D01*
X0173995Y0124126D02*
X0181978Y0124126D01*
X0182130Y0123928D02*
X0173975Y0123928D01*
X0173956Y0123729D02*
X0182388Y0123729D01*
X0182835Y0123531D02*
X0173937Y0123531D01*
X0173918Y0123332D02*
X0183281Y0123332D01*
X0183728Y0123134D02*
X0173898Y0123134D01*
X0173879Y0122935D02*
X0185201Y0122935D01*
D12*
X0121098Y0060100D02*
X0123598Y0057600D01*
X0123598Y0042600D01*
X0121098Y0040100D01*
X0223598Y0027600D02*
X0223598Y0012600D01*
X0226098Y0010100D01*
X0231098Y0010100D01*
X0233598Y0012600D01*
X0236098Y0010100D01*
X0241098Y0010100D01*
X0243598Y0012600D01*
X0246098Y0010100D01*
X0251098Y0010100D01*
X0253598Y0012600D01*
X0256098Y0010100D01*
X0261098Y0010100D01*
X0263598Y0012600D01*
X0266098Y0010100D01*
X0271098Y0010100D01*
X0273598Y0012600D01*
X0276098Y0010100D01*
X0281098Y0010100D01*
X0283598Y0012600D01*
X0286098Y0010100D01*
X0291098Y0010100D01*
X0293598Y0012600D01*
X0296098Y0010100D01*
X0301098Y0010100D01*
X0303598Y0012600D01*
X0303598Y0027600D01*
X0301098Y0030100D01*
X0296098Y0030100D01*
X0293598Y0027600D01*
X0291098Y0030100D01*
X0286098Y0030100D01*
X0283598Y0027600D01*
X0281098Y0030100D01*
X0276098Y0030100D01*
X0273598Y0027600D01*
X0271098Y0030100D01*
X0266098Y0030100D01*
X0263598Y0027600D01*
X0261098Y0030100D01*
X0256098Y0030100D01*
X0253598Y0027600D01*
X0251098Y0030100D01*
X0246098Y0030100D01*
X0243598Y0027600D01*
X0241098Y0030100D01*
X0236098Y0030100D01*
X0233598Y0027600D01*
X0231098Y0030100D01*
X0226098Y0030100D01*
X0223598Y0027600D01*
X0323598Y0027600D02*
X0323598Y0012600D01*
X0326098Y0010100D01*
X0331098Y0010100D01*
X0333598Y0012600D01*
X0336098Y0010100D01*
X0341098Y0010100D01*
X0343598Y0012600D01*
X0346098Y0010100D01*
X0351098Y0010100D01*
X0353598Y0012600D01*
X0356098Y0010100D01*
X0361098Y0010100D01*
X0363598Y0012600D01*
X0366098Y0010100D01*
X0371098Y0010100D01*
X0373598Y0012600D01*
X0376098Y0010100D01*
X0381098Y0010100D01*
X0383598Y0012600D01*
X0386098Y0010100D01*
X0391098Y0010100D01*
X0393598Y0012600D01*
X0396098Y0010100D01*
X0401098Y0010100D01*
X0403598Y0012600D01*
X0403598Y0027600D01*
X0401098Y0030100D01*
X0396098Y0030100D01*
X0393598Y0027600D01*
X0391098Y0030100D01*
X0386098Y0030100D01*
X0383598Y0027600D01*
X0381098Y0030100D01*
X0376098Y0030100D01*
X0373598Y0027600D01*
X0371098Y0030100D01*
X0366098Y0030100D01*
X0363598Y0027600D01*
X0361098Y0030100D01*
X0356098Y0030100D01*
X0353598Y0027600D01*
X0351098Y0030100D01*
X0346098Y0030100D01*
X0343598Y0027600D01*
X0341098Y0030100D01*
X0336098Y0030100D01*
X0333598Y0027600D01*
X0331098Y0030100D01*
X0326098Y0030100D01*
X0323598Y0027600D01*
D13*
X0327950Y0031850D02*
X0330952Y0031850D01*
X0329451Y0031850D02*
X0329451Y0036354D01*
X0330952Y0034853D01*
X0329554Y0008354D02*
X0332556Y0008354D01*
X0332556Y0003850D01*
X0329554Y0003850D01*
X0327952Y0004601D02*
X0327202Y0003850D01*
X0325700Y0003850D01*
X0324950Y0004601D01*
X0324950Y0005351D01*
X0325700Y0006102D01*
X0327202Y0006102D01*
X0327952Y0006853D01*
X0327952Y0007603D01*
X0327202Y0008354D01*
X0325700Y0008354D01*
X0324950Y0007603D01*
X0331055Y0006102D02*
X0332556Y0006102D01*
X0334158Y0008354D02*
X0337160Y0008354D01*
X0335659Y0008354D02*
X0335659Y0003850D01*
X0338762Y0003850D02*
X0338762Y0006853D01*
X0340263Y0008354D01*
X0341764Y0006853D01*
X0341764Y0003850D01*
X0343366Y0004601D02*
X0344116Y0003850D01*
X0345617Y0003850D01*
X0346368Y0004601D01*
X0346368Y0007603D01*
X0345617Y0008354D01*
X0344116Y0008354D01*
X0343366Y0007603D01*
X0343366Y0006102D02*
X0344867Y0006102D01*
X0343366Y0006102D02*
X0343366Y0004601D01*
X0341764Y0006102D02*
X0338762Y0006102D01*
X0302556Y0006853D02*
X0301055Y0008354D01*
X0301055Y0003850D01*
X0302556Y0003850D02*
X0299554Y0003850D01*
X0297952Y0004601D02*
X0297202Y0003850D01*
X0295700Y0003850D01*
X0294950Y0004601D01*
X0294950Y0005351D01*
X0295700Y0006102D01*
X0297952Y0006102D01*
X0297952Y0004601D01*
X0297952Y0006102D02*
X0296451Y0007603D01*
X0294950Y0008354D01*
X0250972Y0008354D02*
X0250972Y0003850D01*
X0250972Y0005351D02*
X0248720Y0005351D01*
X0247969Y0006102D01*
X0247969Y0007603D01*
X0248720Y0008354D01*
X0250972Y0008354D01*
X0246368Y0008354D02*
X0246368Y0004601D01*
X0245617Y0003850D01*
X0244116Y0003850D01*
X0243366Y0004601D01*
X0243366Y0008354D01*
X0241764Y0008354D02*
X0241764Y0003850D01*
X0238762Y0003850D01*
X0237160Y0004601D02*
X0236410Y0003850D01*
X0234908Y0003850D01*
X0234158Y0004601D01*
X0234158Y0005351D01*
X0234908Y0006102D01*
X0236410Y0006102D01*
X0237160Y0006853D01*
X0237160Y0007603D01*
X0236410Y0008354D01*
X0234908Y0008354D01*
X0234158Y0007603D01*
X0232556Y0008354D02*
X0232556Y0003850D01*
X0229554Y0003850D01*
X0227952Y0004601D02*
X0227202Y0003850D01*
X0225700Y0003850D01*
X0224950Y0004601D01*
X0224950Y0005351D01*
X0225700Y0006102D01*
X0227202Y0006102D01*
X0227952Y0006853D01*
X0227952Y0007603D01*
X0227202Y0008354D01*
X0225700Y0008354D01*
X0224950Y0007603D01*
X0229554Y0008354D02*
X0232556Y0008354D01*
X0232556Y0006102D02*
X0231055Y0006102D01*
X0230952Y0031850D02*
X0227950Y0031850D01*
X0229451Y0031850D02*
X0229451Y0036354D01*
X0230952Y0034853D01*
X0109811Y0034933D02*
X0107309Y0036601D01*
X0109811Y0036601D01*
X0109811Y0037695D02*
X0109811Y0038946D01*
X0109394Y0039363D01*
X0107726Y0039363D01*
X0107309Y0038946D01*
X0107309Y0037695D01*
X0109811Y0037695D01*
X0109811Y0034933D02*
X0107309Y0034933D01*
X0107726Y0033838D02*
X0108560Y0033838D01*
X0108560Y0033004D01*
X0109394Y0032170D02*
X0107726Y0032170D01*
X0107309Y0032587D01*
X0107309Y0033421D01*
X0107726Y0033838D01*
X0109394Y0033838D02*
X0109811Y0033421D01*
X0109811Y0032587D01*
X0109394Y0032170D01*
X0099884Y0032480D02*
X0099467Y0032063D01*
X0097799Y0032063D01*
X0097382Y0032480D01*
X0097382Y0033314D01*
X0097799Y0033731D01*
X0098633Y0033731D01*
X0098633Y0032897D01*
X0099467Y0033731D02*
X0099884Y0033314D01*
X0099884Y0032480D01*
X0099884Y0034825D02*
X0097382Y0034825D01*
X0097382Y0036493D02*
X0099884Y0036493D01*
X0099884Y0037588D02*
X0099884Y0038839D01*
X0099467Y0039256D01*
X0097799Y0039256D01*
X0097382Y0038839D01*
X0097382Y0037588D01*
X0099884Y0037588D01*
X0097382Y0036493D02*
X0099884Y0034825D01*
X0089957Y0034718D02*
X0087455Y0036386D01*
X0089957Y0036386D01*
X0089957Y0037480D02*
X0089957Y0038731D01*
X0089540Y0039148D01*
X0087872Y0039148D01*
X0087455Y0038731D01*
X0087455Y0037480D01*
X0089957Y0037480D01*
X0089957Y0034718D02*
X0087455Y0034718D01*
X0087872Y0033624D02*
X0088706Y0033624D01*
X0088706Y0032790D01*
X0087872Y0033624D02*
X0087455Y0033207D01*
X0087455Y0032373D01*
X0087872Y0031955D01*
X0089540Y0031955D01*
X0089957Y0032373D01*
X0089957Y0033207D01*
X0089540Y0033624D01*
X0394950Y0008354D02*
X0396451Y0007603D01*
X0397952Y0006102D01*
X0395700Y0006102D01*
X0394950Y0005351D01*
X0394950Y0004601D01*
X0395700Y0003850D01*
X0397202Y0003850D01*
X0397952Y0004601D01*
X0397952Y0006102D01*
X0399554Y0003850D02*
X0402556Y0003850D01*
X0401055Y0003850D02*
X0401055Y0008354D01*
X0402556Y0006853D01*
D14*
X0073598Y0037600D02*
X0073598Y0062600D01*
D15*
X0078600Y0038428D02*
X0078600Y0035025D01*
X0118158Y0037757D02*
X0121561Y0037757D01*
X0119859Y0039459D02*
X0119859Y0036056D01*
D16*
X0119309Y0060800D02*
X0116573Y0060800D01*
X0115166Y0060800D02*
X0113114Y0060800D01*
X0112430Y0061484D01*
X0112430Y0064220D01*
X0113114Y0064904D01*
X0115166Y0064904D01*
X0115166Y0060800D01*
X0117941Y0062852D02*
X0119309Y0062852D01*
X0120717Y0062852D02*
X0121401Y0062168D01*
X0123453Y0062168D01*
X0123453Y0060800D02*
X0123453Y0064904D01*
X0121401Y0064904D01*
X0120717Y0064220D01*
X0120717Y0062852D01*
X0122085Y0062168D02*
X0120717Y0060800D01*
X0119309Y0060800D02*
X0119309Y0064904D01*
X0116573Y0064904D01*
X0106878Y0064220D02*
X0106878Y0063536D01*
X0106195Y0062852D01*
X0104827Y0062852D01*
X0104143Y0062168D01*
X0104143Y0061484D01*
X0104827Y0060800D01*
X0106195Y0060800D01*
X0106878Y0061484D01*
X0106878Y0064220D02*
X0106195Y0064904D01*
X0104827Y0064904D01*
X0104143Y0064220D01*
X0102735Y0064904D02*
X0099999Y0064904D01*
X0101367Y0064904D02*
X0101367Y0060800D01*
X0098591Y0060800D02*
X0098591Y0064904D01*
X0096540Y0064904D01*
X0095856Y0064220D01*
X0095856Y0062852D01*
X0096540Y0062168D01*
X0098591Y0062168D01*
X0097224Y0062168D02*
X0095856Y0060800D01*
X0094448Y0060800D02*
X0093080Y0060800D01*
X0093764Y0060800D02*
X0093764Y0064904D01*
X0094448Y0064904D02*
X0093080Y0064904D01*
X0091686Y0064904D02*
X0089634Y0064904D01*
X0088950Y0064220D01*
X0088950Y0062852D01*
X0089634Y0062168D01*
X0091686Y0062168D01*
X0091686Y0060800D02*
X0091686Y0064904D01*
X0087542Y0064904D02*
X0087542Y0060800D01*
X0084806Y0060800D01*
X0086174Y0062852D02*
X0087542Y0062852D01*
X0087542Y0064904D02*
X0084806Y0064904D01*
D17*
X0081098Y0062600D02*
X0076098Y0062600D01*
X0078598Y0065100D01*
X0076098Y0062600D02*
X0078598Y0060100D01*
M02*
