G75*
%MOIN*%
%OFA0B0*%
%FSLAX25Y25*%
%IPPOS*%
%LPD*%
%AMOC8*
5,1,8,0,0,1.08239X$1,22.5*
%
%ADD10C,0.04800*%
%ADD11OC8,0.04800*%
%ADD12R,0.06500X0.06500*%
%ADD13C,0.06500*%
%ADD14C,0.04134*%
%ADD15OC8,0.06000*%
%ADD16C,0.06600*%
%ADD17C,0.05906*%
%ADD18C,0.06000*%
%ADD19C,0.01000*%
%ADD20C,0.02500*%
%ADD21C,0.02400*%
%ADD22C,0.01600*%
%ADD23C,0.03200*%
%ADD24R,0.03562X0.03562*%
%ADD25R,0.03200X0.03200*%
%ADD26R,0.03600X0.03600*%
D10*
X0228598Y0050200D02*
X0228598Y0055000D01*
X0238598Y0055000D02*
X0238598Y0050200D01*
X0248598Y0050200D02*
X0248598Y0055000D01*
X0258598Y0055000D02*
X0258598Y0050200D01*
X0268598Y0050200D02*
X0268598Y0055000D01*
X0278598Y0055000D02*
X0278598Y0050200D01*
X0288598Y0050200D02*
X0288598Y0055000D01*
X0328598Y0055000D02*
X0328598Y0050200D01*
X0338598Y0050200D02*
X0338598Y0055000D01*
X0348598Y0055000D02*
X0348598Y0050200D01*
X0358598Y0050200D02*
X0358598Y0055000D01*
X0368598Y0055000D02*
X0368598Y0050200D01*
X0378598Y0050200D02*
X0378598Y0055000D01*
X0388598Y0055000D02*
X0388598Y0050200D01*
X0398598Y0050200D02*
X0398598Y0055000D01*
X0398598Y0080200D02*
X0398598Y0085000D01*
X0388598Y0085000D02*
X0388598Y0080200D01*
X0378598Y0080200D02*
X0378598Y0085000D01*
X0368598Y0085000D02*
X0368598Y0080200D01*
X0358598Y0080200D02*
X0358598Y0085000D01*
X0348598Y0085000D02*
X0348598Y0080200D01*
X0338598Y0080200D02*
X0338598Y0085000D01*
X0328598Y0085000D02*
X0328598Y0080200D01*
X0288598Y0080200D02*
X0288598Y0085000D01*
X0278598Y0085000D02*
X0278598Y0080200D01*
X0268598Y0080200D02*
X0268598Y0085000D01*
X0258598Y0085000D02*
X0258598Y0080200D01*
X0248598Y0080200D02*
X0248598Y0085000D01*
X0238598Y0085000D02*
X0238598Y0080200D01*
X0228598Y0080200D02*
X0228598Y0085000D01*
X0228598Y0102700D02*
X0228598Y0107500D01*
X0238598Y0107500D02*
X0238598Y0102700D01*
X0248598Y0102700D02*
X0248598Y0107500D01*
X0258598Y0107500D02*
X0258598Y0102700D01*
X0268598Y0102700D02*
X0268598Y0107500D01*
X0278598Y0107500D02*
X0278598Y0102700D01*
X0288598Y0102700D02*
X0288598Y0107500D01*
X0328598Y0107500D02*
X0328598Y0102700D01*
X0338598Y0102700D02*
X0338598Y0107500D01*
X0348598Y0107500D02*
X0348598Y0102700D01*
X0358598Y0102700D02*
X0358598Y0107500D01*
X0368598Y0107500D02*
X0368598Y0102700D01*
X0378598Y0102700D02*
X0378598Y0107500D01*
X0388598Y0107500D02*
X0388598Y0102700D01*
X0398598Y0102700D02*
X0398598Y0107500D01*
X0398598Y0132700D02*
X0398598Y0137500D01*
X0388598Y0137500D02*
X0388598Y0132700D01*
X0378598Y0132700D02*
X0378598Y0137500D01*
X0368598Y0137500D02*
X0368598Y0132700D01*
X0358598Y0132700D02*
X0358598Y0137500D01*
X0348598Y0137500D02*
X0348598Y0132700D01*
X0338598Y0132700D02*
X0338598Y0137500D01*
X0328598Y0137500D02*
X0328598Y0132700D01*
X0288598Y0132700D02*
X0288598Y0137500D01*
X0278598Y0137500D02*
X0278598Y0132700D01*
X0268598Y0132700D02*
X0268598Y0137500D01*
X0258598Y0137500D02*
X0258598Y0132700D01*
X0248598Y0132700D02*
X0248598Y0137500D01*
X0238598Y0137500D02*
X0238598Y0132700D01*
X0228598Y0132700D02*
X0228598Y0137500D01*
X0228598Y0157700D02*
X0228598Y0162500D01*
X0238598Y0162500D02*
X0238598Y0157700D01*
X0248598Y0157700D02*
X0248598Y0162500D01*
X0258598Y0162500D02*
X0258598Y0157700D01*
X0268598Y0157700D02*
X0268598Y0162500D01*
X0278598Y0162500D02*
X0278598Y0157700D01*
X0288598Y0157700D02*
X0288598Y0162500D01*
X0298598Y0162500D02*
X0298598Y0157700D01*
X0328598Y0157700D02*
X0328598Y0162500D01*
X0338598Y0162500D02*
X0338598Y0157700D01*
X0348598Y0157700D02*
X0348598Y0162500D01*
X0358598Y0162500D02*
X0358598Y0157700D01*
X0368598Y0157700D02*
X0368598Y0162500D01*
X0378598Y0162500D02*
X0378598Y0157700D01*
X0388598Y0157700D02*
X0388598Y0162500D01*
X0398598Y0162500D02*
X0398598Y0157700D01*
X0398598Y0187700D02*
X0398598Y0192500D01*
X0388598Y0192500D02*
X0388598Y0187700D01*
X0378598Y0187700D02*
X0378598Y0192500D01*
X0368598Y0192500D02*
X0368598Y0187700D01*
X0358598Y0187700D02*
X0358598Y0192500D01*
X0348598Y0192500D02*
X0348598Y0187700D01*
X0338598Y0187700D02*
X0338598Y0192500D01*
X0328598Y0192500D02*
X0328598Y0187700D01*
X0298598Y0187700D02*
X0298598Y0192500D01*
X0288598Y0192500D02*
X0288598Y0187700D01*
X0278598Y0187700D02*
X0278598Y0192500D01*
X0268598Y0192500D02*
X0268598Y0187700D01*
X0258598Y0187700D02*
X0258598Y0192500D01*
X0248598Y0192500D02*
X0248598Y0187700D01*
X0238598Y0187700D02*
X0238598Y0192500D01*
X0228598Y0192500D02*
X0228598Y0187700D01*
X0133598Y0182500D02*
X0133598Y0177700D01*
X0123598Y0177700D02*
X0123598Y0182500D01*
X0113598Y0182500D02*
X0113598Y0177700D01*
X0103598Y0177700D02*
X0103598Y0182500D01*
X0093598Y0182500D02*
X0093598Y0177700D01*
X0083598Y0177700D02*
X0083598Y0182500D01*
X0073598Y0182500D02*
X0073598Y0177700D01*
X0073598Y0152500D02*
X0073598Y0147700D01*
X0083598Y0147700D02*
X0083598Y0152500D01*
X0093598Y0152500D02*
X0093598Y0147700D01*
X0103598Y0147700D02*
X0103598Y0152500D01*
X0113598Y0152500D02*
X0113598Y0147700D01*
X0123598Y0147700D02*
X0123598Y0152500D01*
X0133598Y0152500D02*
X0133598Y0147700D01*
D11*
X0153598Y0160100D03*
X0163598Y0155100D03*
X0173598Y0155100D03*
X0183598Y0160100D03*
X0193598Y0155100D03*
X0203598Y0160100D03*
X0218598Y0160100D03*
X0218598Y0180100D03*
X0318598Y0186600D03*
X0318598Y0166600D03*
X0411098Y0157600D03*
X0418598Y0152600D03*
X0418598Y0162600D03*
X0408598Y0130100D03*
X0408598Y0110100D03*
X0408598Y0077600D03*
X0408598Y0057600D03*
X0416098Y0052600D03*
X0423598Y0047600D03*
X0416098Y0042600D03*
X0218598Y0055100D03*
X0218598Y0075100D03*
X0218598Y0107600D03*
X0218598Y0127600D03*
X0203598Y0130100D03*
X0193598Y0135100D03*
X0183598Y0130100D03*
X0173598Y0135100D03*
X0163598Y0135100D03*
X0153598Y0130100D03*
X0133598Y0125100D03*
X0123598Y0130100D03*
X0113598Y0130100D03*
X0103598Y0125100D03*
X0093598Y0130100D03*
X0103598Y0105100D03*
X0093598Y0100100D03*
X0113598Y0100100D03*
X0123598Y0100100D03*
X0133598Y0105100D03*
X0098598Y0070100D03*
X0078598Y0070100D03*
X0173598Y0035100D03*
X0173598Y0025100D03*
X0203598Y0025100D03*
X0203598Y0035100D03*
X0098598Y0030100D03*
X0078598Y0030100D03*
D12*
X0141098Y0042600D03*
X0151098Y0062600D03*
D13*
X0141098Y0062600D03*
X0151098Y0042600D03*
D14*
X0173598Y0048033D02*
X0173598Y0052167D01*
X0183598Y0052167D02*
X0183598Y0048033D01*
X0193598Y0048033D02*
X0193598Y0052167D01*
X0203598Y0052167D02*
X0203598Y0048033D01*
X0203598Y0078033D02*
X0203598Y0082167D01*
X0193598Y0082167D02*
X0193598Y0078033D01*
X0183598Y0078033D02*
X0183598Y0082167D01*
X0173598Y0082167D02*
X0173598Y0078033D01*
D15*
X0188598Y0095100D03*
X0188598Y0105100D03*
X0198598Y0105100D03*
X0198598Y0115100D03*
X0188598Y0115100D03*
X0118598Y0055100D03*
X0108598Y0055100D03*
X0098598Y0055100D03*
X0088598Y0055100D03*
X0078598Y0055100D03*
X0078598Y0045100D03*
X0088598Y0045100D03*
X0098598Y0045100D03*
X0108598Y0045100D03*
X0118598Y0045100D03*
X0228598Y0025100D03*
X0238598Y0025100D03*
X0248598Y0025100D03*
X0258598Y0025100D03*
X0268598Y0025100D03*
X0278598Y0025100D03*
X0288598Y0025100D03*
X0298598Y0025100D03*
X0298598Y0015100D03*
X0288598Y0015100D03*
X0278598Y0015100D03*
X0268598Y0015100D03*
X0258598Y0015100D03*
X0248598Y0015100D03*
X0238598Y0015100D03*
X0228598Y0015100D03*
X0328598Y0015100D03*
X0338598Y0015100D03*
X0348598Y0015100D03*
X0358598Y0015100D03*
X0368598Y0015100D03*
X0378598Y0015100D03*
X0388598Y0015100D03*
X0398598Y0015100D03*
X0398598Y0025100D03*
X0388598Y0025100D03*
X0378598Y0025100D03*
X0368598Y0025100D03*
X0358598Y0025100D03*
X0348598Y0025100D03*
X0338598Y0025100D03*
X0328598Y0025100D03*
X0433598Y0085100D03*
X0443598Y0085100D03*
X0443598Y0095100D03*
X0433598Y0095100D03*
X0433598Y0105100D03*
X0443598Y0105100D03*
X0443598Y0115100D03*
X0433598Y0115100D03*
X0433598Y0125100D03*
X0443598Y0125100D03*
X0203598Y0180100D03*
X0193598Y0180100D03*
X0193598Y0190100D03*
X0183598Y0190100D03*
X0203598Y0190100D03*
D16*
X0118598Y0080100D03*
X0078598Y0080100D03*
X0078598Y0020100D03*
X0118598Y0020100D03*
D17*
X0114805Y0031940D03*
X0152392Y0018260D03*
X0114805Y0070760D03*
X0152392Y0084440D03*
D18*
X0198598Y0095100D03*
X0183598Y0180100D03*
D19*
X0181098Y0185100D02*
X0168598Y0172600D01*
X0146098Y0172600D01*
X0128598Y0155100D01*
X0128598Y0142600D01*
X0123598Y0137600D01*
X0108598Y0137600D01*
X0103598Y0132600D01*
X0103598Y0125100D01*
X0093598Y0115100D01*
X0093598Y0100100D01*
X0088598Y0097600D02*
X0091098Y0095100D01*
X0108598Y0095100D01*
X0113598Y0100100D01*
X0123598Y0100100D02*
X0123598Y0095100D01*
X0121098Y0092600D01*
X0076098Y0092600D01*
X0073598Y0095100D01*
X0073598Y0150100D01*
X0073598Y0152600D01*
X0078598Y0157600D01*
X0108598Y0157600D01*
X0113598Y0152600D01*
X0113598Y0150100D01*
X0103598Y0150100D02*
X0098598Y0145100D01*
X0098598Y0125100D01*
X0088598Y0115100D01*
X0088598Y0097600D01*
X0153598Y0130100D02*
X0163598Y0120100D01*
X0211098Y0120100D01*
X0213598Y0117600D01*
X0311098Y0117600D01*
X0408598Y0117600D01*
X0428598Y0097600D01*
X0428598Y0092600D01*
X0431098Y0090100D01*
X0438598Y0090100D01*
X0443598Y0085100D01*
X0456098Y0097600D01*
X0456098Y0140100D01*
X0398598Y0197600D01*
X0391098Y0197600D01*
X0388598Y0195100D01*
X0388598Y0190100D01*
X0378598Y0190100D02*
X0378598Y0185100D01*
X0383598Y0180100D01*
X0408598Y0180100D01*
X0448598Y0140100D01*
X0453598Y0140100D02*
X0453598Y0132600D01*
X0443598Y0125100D01*
X0438598Y0130100D01*
X0428598Y0130100D01*
X0426098Y0127600D01*
X0401098Y0152600D01*
X0378598Y0152600D01*
X0328598Y0152600D01*
X0328598Y0160100D01*
X0328598Y0152600D02*
X0233598Y0152600D01*
X0228598Y0160100D01*
X0203598Y0160100D02*
X0196098Y0160100D01*
X0193598Y0157600D01*
X0193598Y0155100D01*
X0188598Y0150100D01*
X0171098Y0150100D01*
X0168598Y0152600D01*
X0168598Y0157600D01*
X0178598Y0167600D01*
X0182098Y0170600D01*
X0385598Y0170600D01*
X0388598Y0168600D01*
X0388598Y0160100D01*
X0373598Y0147600D02*
X0338598Y0147600D01*
X0248598Y0147600D01*
X0238598Y0145100D02*
X0198598Y0145100D01*
X0183598Y0130100D01*
X0203598Y0130100D02*
X0216098Y0142600D01*
X0343598Y0142600D01*
X0403598Y0142600D01*
X0428598Y0117600D01*
X0428598Y0112600D01*
X0431098Y0110100D01*
X0438598Y0110100D01*
X0443598Y0105100D01*
X0433598Y0105100D02*
X0428598Y0105100D01*
X0408598Y0125100D01*
X0328598Y0125100D01*
X0228598Y0125100D01*
X0238598Y0132600D02*
X0243598Y0127600D01*
X0273598Y0127600D01*
X0278598Y0132600D01*
X0283598Y0127600D01*
X0381098Y0127600D01*
X0388598Y0135100D01*
X0403598Y0145100D02*
X0363598Y0145100D01*
X0288598Y0145100D01*
X0303598Y0150100D02*
X0258598Y0150100D01*
X0233598Y0147600D02*
X0171098Y0147600D01*
X0163598Y0155100D01*
X0158598Y0160100D01*
X0153598Y0160100D01*
X0173598Y0155100D02*
X0178598Y0160100D01*
X0183598Y0160100D01*
X0191098Y0167600D01*
X0193598Y0167600D01*
X0286098Y0167600D01*
X0288598Y0165100D01*
X0288598Y0160100D01*
X0308598Y0150100D02*
X0348598Y0150100D01*
X0373598Y0147600D02*
X0403598Y0147600D01*
X0431098Y0120100D01*
X0438598Y0120100D01*
X0443598Y0115100D01*
X0433598Y0115100D02*
X0403598Y0145100D01*
X0403598Y0190100D02*
X0453598Y0140100D01*
X0431098Y0100100D02*
X0408598Y0122600D01*
X0353598Y0122600D01*
X0338598Y0122600D01*
X0253598Y0122600D01*
X0268598Y0120100D02*
X0213598Y0120100D01*
X0203598Y0130100D01*
X0238598Y0132600D02*
X0238598Y0135100D01*
X0278598Y0135100D02*
X0278598Y0132600D01*
X0293598Y0120100D02*
X0358598Y0120100D01*
X0363598Y0120100D01*
X0408598Y0120100D01*
X0433598Y0095100D01*
X0431098Y0100100D02*
X0438598Y0100100D01*
X0443598Y0095100D01*
X0433598Y0085100D02*
X0431098Y0085100D01*
X0411098Y0105100D01*
X0406098Y0105100D01*
X0403598Y0107600D01*
X0403598Y0112600D01*
X0401098Y0115100D01*
X0333598Y0115100D01*
X0303598Y0115100D01*
X0313598Y0112600D02*
X0351098Y0112600D01*
X0358598Y0105100D01*
X0338598Y0105100D02*
X0331098Y0097600D01*
X0316098Y0097600D01*
X0286098Y0090100D02*
X0278598Y0082600D01*
X0268598Y0082600D02*
X0258598Y0070100D01*
X0233598Y0070100D01*
X0228598Y0072600D02*
X0223598Y0067600D01*
X0228598Y0072600D02*
X0238598Y0072600D01*
X0243598Y0077600D01*
X0243598Y0090100D01*
X0258598Y0105100D01*
X0286098Y0090100D02*
X0381098Y0090100D01*
X0388598Y0082600D01*
X0368598Y0082600D02*
X0361098Y0072600D01*
X0333598Y0072600D01*
X0346098Y0060100D02*
X0311098Y0060100D01*
X0303598Y0052600D01*
X0296098Y0045100D01*
X0271098Y0045100D01*
X0268598Y0047600D01*
X0268598Y0052600D01*
X0278598Y0052600D02*
X0278598Y0057600D01*
X0277098Y0059100D01*
X0240098Y0059100D01*
X0238598Y0057600D01*
X0238598Y0052600D01*
X0241098Y0045100D02*
X0248598Y0052600D01*
X0228598Y0052600D02*
X0226098Y0052600D01*
X0223598Y0050100D01*
X0223598Y0042600D01*
X0226098Y0040100D01*
X0298598Y0040100D01*
X0311098Y0052600D01*
X0328598Y0052600D01*
X0331098Y0045100D02*
X0338598Y0052600D01*
X0348598Y0052600D02*
X0348598Y0057600D01*
X0346098Y0060100D01*
X0358598Y0052600D02*
X0348598Y0042600D01*
X0318598Y0042600D01*
X0321098Y0045100D02*
X0331098Y0045100D01*
X0351098Y0032600D02*
X0308598Y0032600D01*
X0306098Y0030100D02*
X0263598Y0030100D01*
X0258598Y0025100D01*
X0248598Y0025100D02*
X0248598Y0027600D01*
X0246098Y0030100D01*
X0223598Y0030100D01*
X0203598Y0025100D02*
X0193598Y0035100D01*
X0193598Y0050100D01*
X0183598Y0050100D02*
X0183598Y0055100D01*
X0186098Y0057600D01*
X0196098Y0057600D01*
X0198598Y0055100D01*
X0198598Y0040100D01*
X0203598Y0035100D01*
X0228598Y0045100D02*
X0241098Y0045100D01*
X0238598Y0042600D02*
X0253598Y0042600D01*
X0268598Y0025100D02*
X0268598Y0015100D01*
X0313598Y0030100D02*
X0343598Y0030100D01*
X0348598Y0025100D01*
X0351098Y0032600D02*
X0358598Y0025100D01*
X0328598Y0025100D02*
X0321098Y0025100D01*
X0318598Y0015100D02*
X0328598Y0015100D01*
X0378598Y0052600D02*
X0363598Y0067600D01*
X0248598Y0067600D01*
X0211098Y0097600D02*
X0193598Y0080100D01*
X0211098Y0097600D02*
X0211098Y0105100D01*
X0123598Y0150100D02*
X0123598Y0157600D01*
X0108598Y0172600D01*
X0086098Y0172600D01*
X0083598Y0175100D01*
X0083598Y0180100D01*
X0093598Y0180100D02*
X0093598Y0185100D01*
X0096098Y0187600D01*
X0131098Y0187600D01*
X0133598Y0185100D01*
X0133598Y0180100D01*
X0181098Y0185100D02*
X0198598Y0185100D01*
X0203598Y0180100D01*
X0208598Y0185100D01*
X0221098Y0185100D01*
X0226098Y0180100D01*
X0333598Y0180100D01*
X0338598Y0185100D01*
X0338598Y0190100D01*
X0288598Y0190100D02*
X0288598Y0195100D01*
X0286098Y0197600D01*
X0186098Y0197600D01*
X0183598Y0195100D01*
X0183598Y0190100D01*
X0193598Y0190100D02*
X0193598Y0192600D01*
X0196098Y0195100D01*
X0208598Y0195100D01*
X0211098Y0192600D01*
X0211098Y0190100D01*
X0093598Y0150100D02*
X0093598Y0130100D01*
X0398598Y0190100D02*
X0403598Y0190100D01*
D20*
X0378598Y0152600D03*
X0373598Y0147600D03*
X0363598Y0145100D03*
X0348598Y0150100D03*
X0338598Y0147600D03*
X0343598Y0142600D03*
X0308598Y0150100D03*
X0303598Y0150100D03*
X0288598Y0145100D03*
X0258598Y0150100D03*
X0248598Y0147600D03*
X0238598Y0145100D03*
X0233598Y0147600D03*
X0193598Y0167600D03*
X0211098Y0190100D03*
X0228598Y0125100D03*
X0253598Y0122600D03*
X0268598Y0120100D03*
X0293598Y0120100D03*
X0303598Y0115100D03*
X0311098Y0117600D03*
X0313598Y0112600D03*
X0333598Y0115100D03*
X0338598Y0122600D03*
X0328598Y0125100D03*
X0353598Y0122600D03*
X0358598Y0120100D03*
X0363598Y0120100D03*
X0316098Y0097600D03*
X0333598Y0072600D03*
X0311098Y0052600D03*
X0303598Y0052600D03*
X0321098Y0045100D03*
X0318598Y0042600D03*
X0308598Y0032600D03*
X0306098Y0030100D03*
X0313598Y0030100D03*
X0321098Y0025100D03*
X0318598Y0015100D03*
X0253598Y0042600D03*
X0238598Y0042600D03*
X0228598Y0045100D03*
X0223598Y0030100D03*
X0223598Y0067600D03*
X0233598Y0070100D03*
X0248598Y0067600D03*
X0211098Y0105100D03*
X0448598Y0140100D03*
D21*
X0403598Y0082600D02*
X0398598Y0082600D01*
X0403598Y0082600D02*
X0408598Y0077600D01*
X0416098Y0070100D01*
X0416098Y0052600D01*
X0393598Y0020100D02*
X0398598Y0015100D01*
X0393598Y0020100D02*
X0303598Y0020100D01*
X0298598Y0015100D01*
D22*
X0133598Y0125100D02*
X0128598Y0130100D01*
X0123598Y0130100D01*
X0113598Y0130100D01*
X0398598Y0135100D02*
X0403598Y0135100D01*
X0408598Y0130100D01*
X0398598Y0160100D02*
X0398598Y0174100D01*
D23*
X0078598Y0030100D02*
X0078598Y0020100D01*
X0078598Y0030100D02*
X0078598Y0045100D01*
X0078598Y0055100D01*
X0086098Y0062600D02*
X0078598Y0070100D01*
X0078598Y0080100D01*
X0098598Y0070100D02*
X0114145Y0070100D01*
X0114805Y0070760D01*
X0113598Y0062600D02*
X0086098Y0062600D01*
X0113598Y0062600D02*
X0118598Y0057600D01*
X0118598Y0055100D01*
X0118598Y0045100D01*
X0114805Y0031940D02*
X0112964Y0030100D01*
X0098598Y0030100D01*
X0151098Y0042600D02*
X0152392Y0041306D01*
X0152392Y0018260D01*
X0155552Y0015100D01*
X0203598Y0015100D01*
X0208598Y0020100D01*
X0208598Y0032600D01*
X0211098Y0035100D01*
X0278598Y0035100D01*
X0301098Y0035100D01*
X0303598Y0037600D01*
X0366098Y0037600D01*
X0378598Y0025100D01*
X0398598Y0025100D02*
X0398598Y0015100D01*
X0398598Y0025100D02*
X0416098Y0042600D01*
X0298598Y0025100D02*
X0298598Y0015100D01*
X0278598Y0015100D02*
X0278598Y0025100D01*
X0218598Y0055100D02*
X0213598Y0050100D01*
X0203598Y0050100D01*
X0218598Y0055100D02*
X0218598Y0062600D01*
X0278598Y0062600D01*
X0288598Y0052600D01*
X0218598Y0062600D02*
X0151098Y0062600D01*
X0151098Y0083147D01*
X0152392Y0084440D01*
X0152392Y0106306D01*
X0143598Y0115100D01*
X0133598Y0125100D01*
X0143598Y0115100D02*
X0188598Y0115100D01*
X0198598Y0115100D01*
X0211098Y0115100D01*
X0218598Y0107600D01*
X0225598Y0113600D01*
X0284098Y0113600D01*
X0288598Y0110100D01*
X0288598Y0105100D01*
X0198598Y0095100D02*
X0188598Y0095100D01*
X0173598Y0095100D01*
X0173598Y0080100D01*
X0173598Y0095100D02*
X0161098Y0095100D01*
X0133598Y0150100D02*
X0151098Y0167600D01*
X0173598Y0167600D01*
X0181098Y0174100D01*
X0228598Y0174100D01*
X0298598Y0174100D01*
X0318598Y0174100D01*
X0398598Y0174100D01*
X0407098Y0174100D01*
X0418598Y0162600D01*
D24*
X0318598Y0174100D03*
X0298598Y0174100D03*
X0228598Y0174100D03*
D25*
X0278598Y0035100D03*
D26*
X0161098Y0095100D03*
M02*
