G75*
%MOIN*%
%OFA0B0*%
%FSLAX25Y25*%
%IPPOS*%
%LPD*%
%AMOC8*
5,1,8,0,0,1.08239X$1,22.5*
%
%ADD10C,0.05600*%
%ADD11C,0.09154*%
%ADD12C,0.07972*%
%ADD13C,0.06400*%
%ADD14C,0.06500*%
%ADD15C,0.11988*%
%ADD16C,0.06600*%
%ADD17C,0.05943*%
%ADD18C,0.06731*%
%ADD19C,0.12268*%
%ADD20C,0.05156*%
%ADD21C,0.01600*%
%ADD22C,0.02400*%
%ADD23C,0.01000*%
%ADD24C,0.02400*%
D10*
X0058598Y0056000D03*
X0088598Y0056000D03*
X0096098Y0056000D03*
X0126098Y0056000D03*
X0141098Y0066000D03*
X0136098Y0073500D03*
X0146098Y0073500D03*
X0166098Y0083500D03*
X0181098Y0083500D03*
X0196098Y0083500D03*
X0211098Y0081000D03*
X0221098Y0081000D03*
X0236098Y0083500D03*
X0243598Y0088500D03*
X0236098Y0093500D03*
X0256098Y0083500D03*
X0286098Y0083500D03*
X0311098Y0078500D03*
X0311098Y0068500D03*
X0296098Y0063500D03*
X0311098Y0058500D03*
X0341098Y0058500D03*
X0356098Y0058500D03*
X0356098Y0068500D03*
X0341098Y0068500D03*
X0341098Y0078500D03*
X0356098Y0078500D03*
X0341098Y0088500D03*
X0311098Y0088500D03*
X0298598Y0113500D03*
X0298598Y0123500D03*
X0311098Y0128500D03*
X0321098Y0128500D03*
X0331098Y0133500D03*
X0341098Y0143500D03*
X0321098Y0148500D03*
X0311098Y0148500D03*
X0298598Y0153500D03*
X0298598Y0143500D03*
X0298598Y0133500D03*
X0268598Y0133500D03*
X0268598Y0143500D03*
X0268598Y0153500D03*
X0268598Y0163500D03*
X0268598Y0173500D03*
X0268598Y0183500D03*
X0273598Y0193500D03*
X0293598Y0193500D03*
X0311098Y0193500D03*
X0321098Y0193500D03*
X0331098Y0193500D03*
X0298598Y0183500D03*
X0298598Y0173500D03*
X0298598Y0163500D03*
X0311098Y0163500D03*
X0321098Y0163500D03*
X0331098Y0163500D03*
X0331098Y0173500D03*
X0383598Y0163500D03*
X0396098Y0163500D03*
X0396098Y0153500D03*
X0383598Y0153500D03*
X0366098Y0153500D03*
X0346098Y0153500D03*
X0371098Y0143500D03*
X0396098Y0143500D03*
X0396098Y0133500D03*
X0396098Y0123500D03*
X0383598Y0123500D03*
X0383598Y0116000D03*
X0426098Y0123500D03*
X0441098Y0123500D03*
X0465098Y0123500D03*
X0465098Y0113500D03*
X0441098Y0113500D03*
X0441098Y0103500D03*
X0465098Y0098500D03*
X0441098Y0093500D03*
X0426098Y0088500D03*
X0441098Y0083500D03*
X0426098Y0078500D03*
X0441098Y0073500D03*
X0426098Y0068500D03*
X0441098Y0063500D03*
X0465098Y0063500D03*
X0465098Y0073500D03*
X0465098Y0088500D03*
X0396098Y0088500D03*
X0383598Y0086000D03*
X0386098Y0078500D03*
X0396098Y0078500D03*
X0396098Y0068500D03*
X0386098Y0068500D03*
X0386098Y0058500D03*
X0386098Y0048500D03*
X0406098Y0048500D03*
X0416098Y0048500D03*
X0431098Y0048500D03*
X0441098Y0048500D03*
X0436098Y0041000D03*
X0411098Y0041000D03*
X0386098Y0038500D03*
X0386098Y0028500D03*
X0406098Y0028500D03*
X0406098Y0018500D03*
X0386098Y0018500D03*
X0356098Y0018500D03*
X0356098Y0028500D03*
X0356098Y0038500D03*
X0356098Y0048500D03*
X0296098Y0043500D03*
X0246098Y0058500D03*
X0241098Y0048500D03*
X0216098Y0058500D03*
X0206098Y0053500D03*
X0196098Y0063500D03*
X0181098Y0063500D03*
X0176098Y0053500D03*
X0166098Y0053500D03*
X0241098Y0028500D03*
X0236098Y0016000D03*
X0266098Y0016000D03*
X0436098Y0018500D03*
X0436098Y0028500D03*
X0465098Y0023500D03*
X0465098Y0013500D03*
X0465098Y0038500D03*
X0465098Y0048500D03*
X0268598Y0113500D03*
X0268598Y0123500D03*
X0221098Y0111000D03*
X0211098Y0111000D03*
X0171098Y0118500D03*
X0171098Y0128500D03*
X0181098Y0128500D03*
X0191098Y0128500D03*
X0171098Y0138500D03*
X0171098Y0148500D03*
X0191098Y0148500D03*
X0181098Y0158500D03*
X0171098Y0158500D03*
X0171098Y0168500D03*
X0183598Y0173500D03*
X0171098Y0178500D03*
X0171098Y0188500D03*
X0183598Y0193500D03*
X0171098Y0198500D03*
X0141098Y0198500D03*
X0131098Y0198500D03*
X0141098Y0188500D03*
X0126098Y0186000D03*
X0116098Y0186000D03*
X0141098Y0178500D03*
X0141098Y0168500D03*
X0128598Y0168500D03*
X0128598Y0158500D03*
X0141098Y0158500D03*
X0141098Y0148500D03*
X0128598Y0148500D03*
X0131098Y0138500D03*
X0141098Y0138500D03*
X0141098Y0128500D03*
X0141098Y0118500D03*
X0148598Y0106000D03*
X0148598Y0096000D03*
X0128598Y0096000D03*
X0128598Y0106000D03*
X0088598Y0106000D03*
X0058598Y0106000D03*
X0111098Y0138500D03*
X0098598Y0148500D03*
X0086098Y0156000D03*
X0108598Y0158500D03*
X0098598Y0168500D03*
X0056098Y0156000D03*
X0101098Y0198500D03*
X0383598Y0193500D03*
X0396098Y0193500D03*
X0396098Y0183500D03*
X0396098Y0173500D03*
X0426098Y0173500D03*
X0446098Y0173500D03*
X0465098Y0173500D03*
X0465098Y0163500D03*
X0436098Y0163500D03*
X0426098Y0163500D03*
X0426098Y0153500D03*
X0426098Y0143500D03*
X0441098Y0143500D03*
X0441098Y0133500D03*
X0426098Y0133500D03*
X0465098Y0138500D03*
X0465098Y0148500D03*
X0426098Y0183500D03*
X0426098Y0193500D03*
X0436098Y0193500D03*
X0446098Y0193500D03*
X0465098Y0198500D03*
X0465098Y0188500D03*
D11*
X0057043Y0031000D03*
X0089406Y0031000D03*
X0089406Y0081000D03*
X0057043Y0081000D03*
X0057043Y0131000D03*
X0089406Y0131000D03*
X0089406Y0181000D03*
X0057043Y0181000D03*
D12*
X0101610Y0181000D03*
X0101610Y0131000D03*
X0101610Y0081000D03*
X0101610Y0031000D03*
D13*
X0158598Y0096000D03*
X0168598Y0096000D03*
X0178598Y0096000D03*
X0188598Y0096000D03*
X0198598Y0096000D03*
X0198598Y0106000D03*
X0188598Y0106000D03*
X0178598Y0106000D03*
X0168598Y0106000D03*
X0158598Y0106000D03*
X0453598Y0101000D03*
X0453598Y0091000D03*
X0453598Y0081000D03*
X0453598Y0071000D03*
X0453598Y0061000D03*
X0453598Y0111000D03*
X0453598Y0121000D03*
X0453598Y0131000D03*
X0453598Y0141000D03*
X0453598Y0151000D03*
D14*
X0123598Y0121000D03*
X0113598Y0121000D03*
X0113598Y0081000D03*
X0123598Y0081000D03*
D15*
X0187598Y0033500D03*
X0206098Y0033500D03*
X0224598Y0033500D03*
D16*
X0276098Y0023500D03*
X0296098Y0023500D03*
X0286098Y0033500D03*
D17*
X0245783Y0119976D03*
X0235941Y0119976D03*
X0226098Y0119976D03*
X0216256Y0119976D03*
X0206413Y0119976D03*
X0206413Y0192024D03*
X0216256Y0192024D03*
X0226098Y0192024D03*
X0235941Y0192024D03*
X0245783Y0192024D03*
D18*
X0328539Y0120843D03*
X0328539Y0111000D03*
X0328539Y0101157D03*
X0113539Y0043343D03*
X0113539Y0033500D03*
X0113539Y0023657D03*
D19*
X0141098Y0015783D03*
X0141098Y0051217D03*
X0356098Y0093283D03*
X0356098Y0128717D03*
D20*
X0341098Y0163500D03*
X0341098Y0173500D03*
X0341098Y0183500D03*
X0341098Y0193500D03*
X0371098Y0193500D03*
X0371098Y0183500D03*
X0371098Y0173500D03*
X0371098Y0163500D03*
X0286098Y0073500D03*
X0286098Y0063500D03*
X0286098Y0053500D03*
X0286098Y0043500D03*
X0311098Y0038500D03*
X0311098Y0028500D03*
X0311098Y0018500D03*
X0341098Y0018500D03*
X0341098Y0028500D03*
X0341098Y0038500D03*
X0341098Y0048500D03*
X0311098Y0048500D03*
X0256098Y0043500D03*
X0256098Y0053500D03*
X0256098Y0063500D03*
X0256098Y0073500D03*
D21*
X0234248Y0063500D02*
X0254048Y0043700D01*
X0255698Y0043700D01*
X0256098Y0043500D01*
X0234248Y0063500D02*
X0208948Y0063500D01*
X0183648Y0088800D01*
X0168248Y0088800D01*
X0161098Y0095950D01*
X0158898Y0095950D01*
X0158598Y0096000D01*
X0158598Y0106000D02*
X0158898Y0106400D01*
X0163848Y0111350D01*
X0170998Y0111350D01*
X0176498Y0116850D01*
X0186398Y0116850D01*
X0201248Y0113000D02*
X0203448Y0110800D01*
X0199048Y0106400D01*
X0198598Y0106000D01*
X0198498Y0105300D01*
X0198498Y0096500D01*
X0198598Y0096000D01*
X0203448Y0110800D02*
X0210598Y0110800D01*
X0211098Y0111000D01*
X0201248Y0113000D02*
X0201248Y0125650D01*
X0173198Y0153700D01*
X0168798Y0153700D01*
X0166048Y0156450D01*
X0166048Y0180650D01*
X0170998Y0185600D01*
X0170998Y0188350D01*
X0171098Y0188500D01*
X0268598Y0163500D02*
X0268898Y0163600D01*
X0273848Y0168550D01*
X0273848Y0193300D01*
X0273598Y0193500D01*
X0273848Y0168550D02*
X0333248Y0168550D01*
X0338198Y0163600D01*
X0340948Y0163600D01*
X0341098Y0163500D01*
X0341498Y0158650D02*
X0343148Y0158650D01*
X0366248Y0181750D01*
X0366248Y0188900D01*
X0370648Y0193300D01*
X0371098Y0193500D01*
X0383598Y0193500D02*
X0383848Y0193850D01*
X0390998Y0201000D01*
X0399248Y0201000D01*
X0406398Y0193850D01*
X0425648Y0193850D01*
X0426098Y0193500D01*
X0341498Y0158650D02*
X0326098Y0143250D01*
X0311248Y0143250D01*
X0311248Y0137750D01*
X0311248Y0143250D02*
X0308498Y0143250D01*
X0298598Y0153150D01*
X0298598Y0153500D01*
X0311098Y0088500D02*
X0310148Y0086600D01*
X0318948Y0077800D01*
X0318948Y0070650D01*
X0310698Y0088250D02*
X0296398Y0073950D01*
X0286498Y0073950D01*
X0286098Y0073500D01*
X0310698Y0088250D02*
X0311098Y0088500D01*
X0350848Y0070100D02*
X0354148Y0073400D01*
X0381098Y0073400D01*
X0386048Y0078350D01*
X0386098Y0078500D01*
X0350848Y0070100D02*
X0350848Y0058000D01*
X0341498Y0048650D01*
X0341098Y0048500D01*
X0166098Y0053500D02*
X0166048Y0053600D01*
X0166048Y0060750D01*
X0130848Y0095950D01*
X0128648Y0095950D01*
X0128598Y0096000D01*
D22*
X0186398Y0116850D03*
X0234798Y0111900D03*
X0278248Y0116300D03*
X0320048Y0098700D03*
X0330498Y0092650D03*
X0318948Y0070650D03*
X0306298Y0033800D03*
X0432798Y0075050D03*
X0443798Y0078900D03*
X0442148Y0055800D03*
X0436098Y0105300D03*
X0432798Y0110800D03*
X0402548Y0119050D03*
X0415748Y0127850D03*
X0335998Y0144900D03*
X0311248Y0137750D03*
X0276598Y0136650D03*
X0383848Y0174600D03*
X0406398Y0188350D03*
X0451498Y0174600D03*
X0456998Y0185050D03*
X0417948Y0164700D03*
X0235898Y0177350D03*
X0213348Y0187250D03*
D23*
X0183098Y0187250D01*
X0177048Y0193300D01*
X0169348Y0193300D01*
X0160548Y0184500D01*
X0145698Y0184500D01*
X0145423Y0184225D01*
X0145698Y0183950D01*
X0145698Y0147100D01*
X0170998Y0121800D01*
X0170998Y0118500D01*
X0171098Y0118500D01*
X0206413Y0119976D02*
X0206748Y0119600D01*
X0208948Y0119600D01*
X0216098Y0112450D01*
X0216098Y0109150D01*
X0227098Y0098150D01*
X0316198Y0098150D01*
X0321698Y0092650D01*
X0330498Y0092650D01*
X0333798Y0089350D02*
X0333798Y0105850D01*
X0328848Y0110800D01*
X0328539Y0111000D01*
X0320048Y0098700D02*
X0300248Y0118500D01*
X0296948Y0118500D01*
X0295848Y0119600D01*
X0277148Y0119600D01*
X0276048Y0118500D01*
X0266698Y0118500D01*
X0265598Y0119600D01*
X0245798Y0119600D01*
X0245783Y0119976D01*
X0245248Y0119600D01*
X0242498Y0119600D01*
X0238098Y0115200D01*
X0233698Y0115200D01*
X0230948Y0117950D01*
X0230948Y0176800D01*
X0245798Y0191650D01*
X0245783Y0192024D01*
X0240848Y0193850D02*
X0240848Y0190000D01*
X0238098Y0187250D01*
X0233698Y0187250D01*
X0230948Y0190000D01*
X0230948Y0193850D01*
X0227648Y0197150D01*
X0221598Y0197150D01*
X0216648Y0192200D01*
X0216256Y0192024D01*
X0222698Y0191650D02*
X0197398Y0166350D01*
X0180348Y0166350D01*
X0180073Y0166075D01*
X0171548Y0174600D01*
X0171548Y0178450D01*
X0171098Y0178500D01*
X0145423Y0184225D02*
X0141298Y0188350D01*
X0141098Y0188500D01*
X0136348Y0186700D02*
X0136348Y0193850D01*
X0140748Y0198250D01*
X0141098Y0198500D01*
X0131098Y0198500D02*
X0118748Y0186150D01*
X0116548Y0186150D01*
X0116098Y0186000D01*
X0136348Y0186700D02*
X0140748Y0182300D01*
X0140748Y0179000D01*
X0141098Y0178500D01*
X0180073Y0166075D02*
X0180898Y0165250D01*
X0180898Y0158650D01*
X0181098Y0158500D01*
X0235898Y0169650D02*
X0267248Y0138300D01*
X0274948Y0138300D01*
X0276598Y0136650D01*
X0274948Y0133350D02*
X0269998Y0128400D01*
X0244698Y0128400D01*
X0236448Y0120150D01*
X0235941Y0119976D01*
X0226548Y0119600D02*
X0226548Y0115750D01*
X0233698Y0108600D01*
X0270548Y0108600D01*
X0278248Y0116300D01*
X0278248Y0113000D02*
X0271648Y0106400D01*
X0232598Y0106400D01*
X0219398Y0119600D01*
X0216648Y0119600D01*
X0216256Y0119976D01*
X0226098Y0119976D02*
X0226548Y0119600D01*
X0234798Y0111900D02*
X0235898Y0113000D01*
X0268348Y0113000D01*
X0268598Y0113500D01*
X0278248Y0113000D02*
X0298598Y0113000D01*
X0298598Y0113500D01*
X0298598Y0123500D02*
X0298598Y0124000D01*
X0324448Y0124000D01*
X0329398Y0128950D01*
X0334898Y0128950D01*
X0365148Y0159200D01*
X0372848Y0159200D01*
X0387148Y0173500D01*
X0396098Y0173500D01*
X0403098Y0175150D02*
X0403098Y0193300D01*
X0398148Y0198250D01*
X0394298Y0198250D01*
X0391548Y0195500D01*
X0391548Y0183950D01*
X0395948Y0183950D01*
X0396098Y0183500D01*
X0391548Y0183950D02*
X0386598Y0183950D01*
X0375598Y0194950D01*
X0375598Y0195500D01*
X0372848Y0198250D01*
X0271098Y0198250D01*
X0258723Y0185875D01*
X0263948Y0180650D01*
X0263948Y0151500D01*
X0268348Y0147100D01*
X0268348Y0143800D01*
X0268598Y0143500D01*
X0274948Y0133350D02*
X0298598Y0133350D01*
X0298598Y0133500D01*
X0298598Y0133900D01*
X0320598Y0133900D01*
X0335448Y0148750D01*
X0348098Y0148750D01*
X0368448Y0169100D01*
X0378348Y0169100D01*
X0383848Y0174600D01*
X0371098Y0173500D02*
X0366248Y0173500D01*
X0346448Y0153700D01*
X0346098Y0153500D01*
X0346448Y0143800D02*
X0341498Y0143800D01*
X0341098Y0143500D01*
X0335998Y0144900D02*
X0331598Y0140500D01*
X0331598Y0133900D01*
X0331098Y0133500D01*
X0346448Y0143800D02*
X0365698Y0163050D01*
X0370648Y0163050D01*
X0371098Y0163500D01*
X0403098Y0175150D02*
X0416848Y0161400D01*
X0419048Y0161400D01*
X0421248Y0163600D01*
X0421248Y0165250D01*
X0423998Y0168000D01*
X0428398Y0168000D01*
X0430598Y0165800D01*
X0430598Y0162500D01*
X0432798Y0160300D01*
X0432798Y0110800D01*
X0430598Y0113000D02*
X0429498Y0111900D01*
X0429498Y0107500D01*
X0438848Y0098150D01*
X0443248Y0098150D01*
X0450398Y0091000D01*
X0453598Y0091000D01*
X0451498Y0086050D02*
X0455898Y0086050D01*
X0460298Y0081650D01*
X0460298Y0067900D01*
X0464698Y0063500D01*
X0465098Y0063500D01*
X0469648Y0061300D02*
X0469648Y0119050D01*
X0465248Y0123450D01*
X0465098Y0123500D01*
X0451498Y0136100D02*
X0441598Y0126200D01*
X0441598Y0124000D01*
X0441098Y0123500D01*
X0426098Y0123500D02*
X0425648Y0124000D01*
X0423998Y0124000D01*
X0409698Y0138300D01*
X0400898Y0138300D01*
X0400898Y0185600D01*
X0396498Y0190000D01*
X0396498Y0193300D01*
X0396098Y0193500D01*
X0406398Y0188350D02*
X0437748Y0188350D01*
X0451498Y0174600D01*
X0454798Y0173500D02*
X0454798Y0182850D01*
X0453698Y0183950D01*
X0453698Y0187250D01*
X0464698Y0198250D01*
X0465098Y0198500D01*
X0460298Y0185050D02*
X0469648Y0175700D01*
X0469648Y0168000D01*
X0465248Y0163600D01*
X0465098Y0163500D01*
X0464698Y0173500D02*
X0448198Y0157000D01*
X0448198Y0143800D01*
X0441598Y0137200D01*
X0441598Y0133900D01*
X0441098Y0133500D01*
X0451498Y0136100D02*
X0455898Y0136100D01*
X0464698Y0144900D01*
X0464698Y0148200D01*
X0465098Y0148500D01*
X0441598Y0143800D02*
X0441098Y0143500D01*
X0441598Y0143800D02*
X0441598Y0160300D01*
X0454798Y0173500D01*
X0464698Y0173500D02*
X0465098Y0173500D01*
X0460298Y0185050D02*
X0456998Y0185050D01*
X0426098Y0163500D02*
X0426198Y0163050D01*
X0426198Y0160300D01*
X0430598Y0155900D01*
X0430598Y0113000D01*
X0436098Y0105300D02*
X0441048Y0110250D01*
X0441048Y0113000D01*
X0441098Y0113500D01*
X0441098Y0103500D02*
X0441598Y0103100D01*
X0448748Y0095950D01*
X0455898Y0095950D01*
X0463048Y0088800D01*
X0464698Y0088800D01*
X0465098Y0088500D01*
X0451498Y0086050D02*
X0444348Y0093200D01*
X0441598Y0093200D01*
X0441098Y0093500D01*
X0439948Y0088250D02*
X0443248Y0088250D01*
X0448198Y0083300D01*
X0448198Y0076150D01*
X0453148Y0071200D01*
X0453598Y0071000D01*
X0449848Y0061300D02*
X0442148Y0069000D01*
X0438848Y0069000D01*
X0432798Y0075050D01*
X0438848Y0078900D02*
X0430598Y0087150D01*
X0430598Y0091000D01*
X0402548Y0119050D01*
X0391548Y0125650D02*
X0391548Y0091000D01*
X0382198Y0091000D01*
X0376148Y0084950D01*
X0355798Y0084950D01*
X0344798Y0073950D01*
X0339848Y0073950D01*
X0329398Y0063500D01*
X0309598Y0063500D01*
X0304098Y0058000D01*
X0304098Y0040950D01*
X0279348Y0016200D01*
X0266148Y0016200D01*
X0266098Y0016000D01*
X0276098Y0023500D02*
X0276598Y0023900D01*
X0283748Y0023900D01*
X0295848Y0036000D01*
X0295848Y0043150D01*
X0296098Y0043500D01*
X0290898Y0044800D02*
X0290898Y0038200D01*
X0286498Y0033800D01*
X0286098Y0033500D01*
X0285948Y0033250D01*
X0281548Y0028850D01*
X0241398Y0028850D01*
X0241098Y0028500D01*
X0290898Y0044800D02*
X0295848Y0049750D01*
X0295848Y0063500D01*
X0296098Y0063500D01*
X0285948Y0053600D02*
X0281548Y0058000D01*
X0281548Y0075050D01*
X0285948Y0079450D01*
X0285948Y0083300D01*
X0286098Y0083500D01*
X0333798Y0089350D02*
X0340948Y0082200D01*
X0340948Y0078900D01*
X0341098Y0078500D01*
X0348098Y0071200D02*
X0355798Y0078900D01*
X0356098Y0078500D01*
X0348098Y0071200D02*
X0348098Y0059100D01*
X0342598Y0053600D01*
X0339848Y0053600D01*
X0336548Y0050300D01*
X0336548Y0047000D01*
X0339848Y0043700D01*
X0357448Y0043700D01*
X0367348Y0033800D01*
X0387698Y0033800D01*
X0402548Y0018950D01*
X0405848Y0018950D01*
X0406098Y0018500D01*
X0404198Y0014000D02*
X0425098Y0014000D01*
X0434998Y0023900D01*
X0440498Y0023900D01*
X0465098Y0048500D01*
X0464148Y0055800D02*
X0469648Y0061300D01*
X0464148Y0055800D02*
X0442148Y0055800D01*
X0449848Y0061300D02*
X0453148Y0061300D01*
X0453598Y0061000D01*
X0426098Y0068500D02*
X0425648Y0068450D01*
X0405848Y0048650D01*
X0406098Y0048500D01*
X0405848Y0048650D02*
X0395948Y0048650D01*
X0386098Y0058500D01*
X0383848Y0063500D02*
X0372573Y0052225D01*
X0386048Y0038750D01*
X0386098Y0038500D01*
X0411098Y0041000D02*
X0411348Y0040950D01*
X0423448Y0028850D01*
X0436098Y0028850D01*
X0436098Y0028500D01*
X0404198Y0014000D02*
X0394848Y0023350D01*
X0333798Y0023350D01*
X0323348Y0033800D01*
X0306298Y0033800D01*
X0302998Y0034900D02*
X0308773Y0040675D01*
X0306298Y0043150D01*
X0306298Y0049750D01*
X0309598Y0053050D01*
X0312348Y0053050D01*
X0317298Y0058000D01*
X0340948Y0058000D01*
X0341098Y0058500D01*
X0356098Y0068500D02*
X0356348Y0068450D01*
X0372573Y0052225D01*
X0383848Y0063500D02*
X0397598Y0063500D01*
X0422348Y0088250D01*
X0425648Y0088250D01*
X0426098Y0088500D01*
X0439948Y0088250D02*
X0415748Y0112450D01*
X0415748Y0127850D01*
X0395948Y0130050D02*
X0395948Y0133350D01*
X0396098Y0133500D01*
X0395948Y0130050D02*
X0391548Y0125650D01*
X0385223Y0129225D02*
X0371198Y0143250D01*
X0371098Y0143500D01*
X0385223Y0129225D02*
X0394298Y0138300D01*
X0400898Y0138300D01*
X0385223Y0129225D02*
X0383848Y0127850D01*
X0383848Y0124000D01*
X0383598Y0123500D01*
X0391548Y0091000D02*
X0393748Y0091000D01*
X0395948Y0088800D01*
X0396098Y0088500D01*
X0438848Y0078900D02*
X0443798Y0078900D01*
X0340948Y0028850D02*
X0331598Y0028850D01*
X0312348Y0048100D01*
X0311248Y0048100D01*
X0311098Y0048500D01*
X0308773Y0040675D02*
X0310698Y0038750D01*
X0311098Y0038500D01*
X0302998Y0034900D02*
X0302998Y0022800D01*
X0291448Y0011250D01*
X0169898Y0011250D01*
X0132498Y0048650D01*
X0112698Y0048650D01*
X0082998Y0078350D01*
X0082998Y0083850D01*
X0088498Y0089350D01*
X0088498Y0105850D01*
X0088598Y0106000D01*
X0176498Y0078900D02*
X0181098Y0083500D01*
X0176498Y0078900D02*
X0176498Y0053600D01*
X0176098Y0053500D01*
X0113539Y0033500D02*
X0113248Y0033800D01*
X0107198Y0033800D01*
X0103348Y0037650D01*
X0063748Y0037650D01*
X0057148Y0031050D01*
X0057043Y0031000D01*
X0285948Y0053600D02*
X0286098Y0053500D01*
X0340948Y0028850D02*
X0341098Y0028500D01*
X0098598Y0148500D02*
X0098398Y0148750D01*
X0091248Y0155900D01*
X0086298Y0155900D01*
X0086098Y0156000D01*
X0098948Y0168000D02*
X0108298Y0158650D01*
X0108598Y0158500D01*
X0098948Y0168000D02*
X0098598Y0168500D01*
X0183598Y0193500D02*
X0183648Y0193850D01*
X0189148Y0199350D01*
X0228748Y0199350D01*
X0235898Y0192200D01*
X0235941Y0192024D01*
X0240848Y0193850D02*
X0244148Y0197150D01*
X0247448Y0197150D01*
X0258723Y0185875D01*
X0235898Y0177350D02*
X0235898Y0169650D01*
X0225998Y0191650D02*
X0226098Y0192024D01*
X0225998Y0191650D02*
X0222698Y0191650D01*
D24*
X0311098Y0163500D02*
X0311248Y0163050D01*
X0311248Y0148750D01*
X0311098Y0148500D01*
X0321098Y0148500D02*
X0321148Y0148750D01*
X0331048Y0158650D01*
X0331048Y0163050D01*
X0331098Y0163500D01*
X0365698Y0153150D02*
X0366098Y0153500D01*
X0365698Y0153150D02*
X0365698Y0148750D01*
X0373398Y0148750D01*
X0378348Y0143800D01*
X0395948Y0143800D01*
X0396098Y0143500D01*
X0365698Y0138300D02*
X0356348Y0128950D01*
X0356098Y0128717D01*
X0356348Y0127850D01*
X0356348Y0093750D01*
X0356098Y0093283D01*
X0436098Y0055250D02*
X0441048Y0060200D01*
X0441048Y0063500D01*
X0441098Y0063500D01*
X0436098Y0055250D02*
X0435548Y0054150D01*
X0441048Y0048650D01*
X0441098Y0048500D01*
X0435548Y0054150D02*
X0428948Y0054150D01*
X0423448Y0048650D01*
X0416298Y0048650D01*
X0416098Y0048500D01*
X0356348Y0038200D02*
X0356348Y0028850D01*
X0356098Y0028500D01*
X0356348Y0038200D02*
X0356098Y0038500D01*
X0338748Y0013450D02*
X0323898Y0028300D01*
X0311248Y0028300D01*
X0311098Y0028500D01*
X0338748Y0013450D02*
X0350848Y0013450D01*
X0355798Y0018400D01*
X0356098Y0018500D01*
X0261198Y0041500D02*
X0261198Y0047550D01*
X0256248Y0052500D01*
X0256098Y0053500D01*
X0255698Y0053600D01*
X0255698Y0056350D01*
X0243598Y0068450D01*
X0243598Y0077800D01*
X0234248Y0077800D01*
X0223248Y0088800D01*
X0197398Y0088800D01*
X0190248Y0095950D01*
X0188598Y0095950D01*
X0188598Y0096000D01*
X0188598Y0106000D02*
X0188598Y0106400D01*
X0190798Y0108600D01*
X0190798Y0128400D01*
X0191098Y0128500D01*
X0141098Y0118500D02*
X0140198Y0119600D01*
X0131398Y0128400D01*
X0131398Y0138300D01*
X0131098Y0138500D01*
X0113598Y0121000D02*
X0113798Y0120700D01*
X0127548Y0106950D01*
X0128598Y0106000D01*
X0126998Y0105850D01*
X0123148Y0102000D01*
X0123148Y0093750D01*
X0123698Y0093200D01*
X0123698Y0082200D01*
X0123598Y0081000D01*
X0122598Y0077800D01*
X0119848Y0075050D01*
X0111048Y0075050D01*
X0105548Y0080550D01*
X0101698Y0080550D01*
X0101610Y0081000D01*
X0123598Y0081000D02*
X0123698Y0080550D01*
X0123698Y0078350D01*
X0135248Y0066800D01*
X0140198Y0066800D01*
X0141098Y0066000D01*
X0141298Y0065700D01*
X0141298Y0051400D01*
X0141098Y0051217D01*
X0224598Y0033500D02*
X0224898Y0033800D01*
X0253498Y0033800D01*
X0261198Y0041500D01*
X0243598Y0077800D02*
X0243598Y0088500D01*
X0148598Y0096000D02*
X0148448Y0096500D01*
X0133598Y0111350D01*
X0128648Y0106400D01*
X0128598Y0106000D01*
X0133598Y0111350D02*
X0140748Y0118500D01*
X0141098Y0118500D01*
X0128598Y0158500D02*
X0128098Y0158650D01*
X0106098Y0180650D01*
X0101698Y0180650D01*
X0101610Y0181000D01*
X0365698Y0148750D02*
X0365698Y0138300D01*
X0417948Y0164700D02*
X0417948Y0166350D01*
X0422348Y0170750D01*
X0422898Y0170750D01*
X0425098Y0172950D01*
X0426098Y0173500D01*
X0446098Y0173500D01*
M02*
