%
M48
M72
T01C0.0120
T02C0.0276
T03C0.0320
T04C0.0354
T05C0.0400
T06C0.0433
T07C0.0531
T08C0.0610
T09C0.0787
T10C0.0799
T11C0.0827
%
T01
X23480Y11190
X27825Y11630
X32005Y9870
X33050Y9265
X31895Y7065
X30630Y3380
X43280Y7505
X44380Y7890
X44215Y5580
X43610Y10530
X43280Y11080
X40255Y11905
X41575Y12785
X33600Y14490
X31125Y13775
X27660Y13665
X18640Y11685
X23590Y17735
X21335Y18725
X38385Y17460
X40640Y18835
X45150Y17460
X45700Y18505
X41795Y16470
T02
X37110Y16350
X37110Y17350
X37110Y18350
X37110Y19350
X34110Y19350
X34110Y18350
X34110Y17350
X34110Y16350
X12360Y12100
X11360Y12100
X11360Y8100
X12360Y8100
X25610Y7350
X25610Y6350
X25610Y5350
X25610Y4350
X28610Y4350
X28610Y5350
X28610Y6350
X28610Y7350
X31110Y4850
X31110Y3850
X31110Y2850
X31110Y1850
X34110Y1850
X34110Y2850
X34110Y3850
X34110Y4850
T03
X35610Y4850
X35610Y3850
X35610Y2850
X35610Y1850
X38610Y1850
X40610Y1850
X40610Y2850
X38610Y2850
X38610Y3850
X41110Y4100
X41610Y4850
X40610Y4850
X38610Y4850
X38610Y5850
X38610Y6850
X39610Y6850
X39610Y7850
X38610Y7850
X38360Y8600
X39610Y8850
X42610Y8850
X44110Y8350
X42610Y7850
X44110Y7350
X42610Y6850
X44110Y6350
X46510Y6350
X46510Y7350
X46510Y8850
X44110Y9350
X46510Y9850
X44110Y10350
X44110Y11350
X46510Y11350
X46510Y12350
X44110Y12350
X42610Y12350
X42610Y13350
X44110Y13350
X44110Y14350
X42610Y14350
X42610Y15350
X42610Y16350
X43610Y16350
X44610Y17350
X46510Y17350
X46510Y16350
X46510Y14850
X46510Y13850
X39610Y13350
X39610Y14350
X39610Y15350
X38360Y15350
X36610Y15350
X34610Y15350
X32110Y14850
X31110Y14850
X29860Y15350
X29860Y14350
X29860Y13350
X31110Y12850
X32110Y12850
X33110Y13350
X34110Y14350
X37110Y14350
X38360Y12350
X39610Y12350
X38360Y11600
X34110Y8850
X34110Y7850
X35610Y7850
X35610Y6850
X34110Y6850
X34110Y5850
X35610Y5850
X31110Y5850
X29610Y6350
X31110Y6850
X31110Y7850
X31110Y8850
X28610Y8350
X25610Y8350
X24360Y8850
X23610Y8350
X22110Y8100
X21110Y8100
X19610Y8350
X18110Y8350
X16610Y8350
X14610Y7350
X13610Y7350
X14110Y6600
X12610Y5600
X9610Y5600
X8860Y5600
X5860Y5600
X12860Y9600
X12860Y10600
X14860Y10600
X14860Y9600
X14110Y11850
X14110Y12850
X14110Y13850
X13110Y13850
X11110Y13850
X9860Y14850
X8610Y15600
X10860Y15850
X12860Y15850
X14110Y15850
X14110Y16850
X12860Y16850
X14110Y17850
X12610Y18600
X11610Y18600
X14110Y18850
X14110Y19850
X13110Y19850
X10110Y19850
X17110Y19850
X18360Y19350
X17110Y18850
X17110Y17850
X18360Y17350
X17110Y16850
X17110Y15850
X18110Y15850
X19110Y14850
X17110Y14850
X17110Y13850
X17110Y12850
X18110Y12850
X19110Y12850
X17110Y11850
X21110Y11100
X22110Y11100
X23610Y9350
X26860Y11350
X26860Y12350
X26860Y13350
X26860Y14350
X26860Y15350
X26860Y16350
X26860Y17350
X26860Y18350
X27360Y19350
X29360Y19350
X31110Y19350
X32110Y19350
X33110Y19350
X29860Y18350
X29860Y17350
X29860Y16350
X31110Y16350
X32110Y16350
X33110Y16350
X33110Y17350
X38360Y16350
X39610Y16350
X39610Y17350
X39610Y18350
X39610Y19350
X38360Y19350
X42610Y19350
X43610Y19350
X44610Y19350
X46510Y19850
X46510Y18850
X42610Y18350
X42610Y17350
X29860Y12350
X29860Y11350
X19610Y6350
X18110Y6350
X17610Y5350
X16610Y5350
X20610Y5350
X21610Y5850
X24110Y4850
X24610Y5850
X29610Y4350
X28610Y3350
X29610Y2350
X27610Y2350
X26610Y1600
X24110Y2850
X23610Y1600
X43110Y4850
X44110Y4850
X43610Y4100
X46510Y3850
X46510Y4850
X43610Y2850
X43610Y1850
X46510Y1350
X46510Y2350
X14110Y14850
X12860Y14850
X9860Y16850
X5610Y15600
X5860Y10600
X8860Y10600
T04
X20641Y11998
X21626Y11998
X22610Y11998
X23594Y11998
X24578Y11998
X24578Y19202
X23594Y19202
X22610Y19202
X21626Y19202
X20641Y19202
T05
X19860Y10600
X18860Y10600
X17860Y10600
X16860Y10600
X15860Y10600
X15860Y9600
X16860Y9600
X17860Y9600
X18860Y9600
X19860Y9600
X45360Y9100
X45360Y8100
X45360Y7100
X45360Y6100
X45360Y10100
X45360Y11100
X45360Y12100
X45360Y13100
X45360Y14100
X45360Y15100
T06
X32854Y12084
X32854Y11100
X32854Y10116
X11354Y4334
X11354Y3350
X11354Y2366
T07
X10161Y3100
X10161Y8100
X10161Y13100
X10161Y18100
T08
X5704Y3100
X8941Y3100
X8941Y8100
X5704Y8100
X5704Y13100
X8941Y13100
X8941Y18100
X5704Y18100
T09
X19460Y16033
X25759Y16033
T10
X22460Y3350
X20610Y3350
X18760Y3350
T11
X14110Y5122
X14110Y1578
X35610Y9328
X35610Y12872
M30
