G75*
%MOIN*%
%OFA0B0*%
%FSLAX25Y25*%
%IPPOS*%
%LPD*%
%AMOC8*
5,1,8,0,0,1.08239X$1,22.5*
%
%ADD10C,0.05600*%
%ADD11R,0.09154X0.09154*%
%ADD12R,0.07972X0.07972*%
%ADD13OC8,0.05600*%
%ADD14R,0.05600X0.05600*%
%ADD15C,0.05600*%
%ADD16OC8,0.06400*%
%ADD17R,0.06500X0.06500*%
%ADD18C,0.06500*%
%ADD19C,0.11988*%
%ADD20C,0.06400*%
%ADD21OC8,0.06600*%
%ADD22OC8,0.05943*%
%ADD23R,0.06731X0.06731*%
%ADD24OC8,0.06731*%
%ADD25R,0.12268X0.12268*%
%ADD26C,0.05156*%
%ADD27C,0.01600*%
%ADD28C,0.02400*%
%ADD29C,0.01000*%
%ADD30C,0.02400*%
D10*
X0265798Y0113500D02*
X0271398Y0113500D01*
X0295798Y0113500D02*
X0301398Y0113500D01*
X0301398Y0123500D02*
X0295798Y0123500D01*
X0271398Y0123500D02*
X0265798Y0123500D01*
X0265798Y0133500D02*
X0271398Y0133500D01*
X0271398Y0143500D02*
X0265798Y0143500D01*
X0265798Y0153500D02*
X0271398Y0153500D01*
X0295798Y0153500D02*
X0301398Y0153500D01*
X0301398Y0143500D02*
X0295798Y0143500D01*
X0295798Y0133500D02*
X0301398Y0133500D01*
X0301398Y0163500D02*
X0295798Y0163500D01*
X0271398Y0163500D02*
X0265798Y0163500D01*
X0265798Y0173500D02*
X0271398Y0173500D01*
X0295798Y0173500D02*
X0301398Y0173500D01*
X0301398Y0183500D02*
X0295798Y0183500D01*
X0271398Y0183500D02*
X0265798Y0183500D01*
X0173898Y0178500D02*
X0168298Y0178500D01*
X0168298Y0168500D02*
X0173898Y0168500D01*
X0173898Y0158500D02*
X0168298Y0158500D01*
X0168298Y0148500D02*
X0173898Y0148500D01*
X0173898Y0138500D02*
X0168298Y0138500D01*
X0168298Y0128500D02*
X0173898Y0128500D01*
X0173898Y0118500D02*
X0168298Y0118500D01*
X0143898Y0118500D02*
X0138298Y0118500D01*
X0138298Y0128500D02*
X0143898Y0128500D01*
X0143898Y0138500D02*
X0138298Y0138500D01*
X0138298Y0148500D02*
X0143898Y0148500D01*
X0143898Y0158500D02*
X0138298Y0158500D01*
X0138298Y0168500D02*
X0143898Y0168500D01*
X0143898Y0178500D02*
X0138298Y0178500D01*
X0138298Y0188500D02*
X0143898Y0188500D01*
X0168298Y0188500D02*
X0173898Y0188500D01*
X0393298Y0183500D02*
X0398898Y0183500D01*
X0398898Y0193500D02*
X0393298Y0193500D01*
X0423298Y0193500D02*
X0428898Y0193500D01*
X0428898Y0183500D02*
X0423298Y0183500D01*
X0423298Y0173500D02*
X0428898Y0173500D01*
X0428898Y0163500D02*
X0423298Y0163500D01*
X0423298Y0153500D02*
X0428898Y0153500D01*
X0428898Y0143500D02*
X0423298Y0143500D01*
X0423298Y0133500D02*
X0428898Y0133500D01*
X0428898Y0123500D02*
X0423298Y0123500D01*
X0398898Y0123500D02*
X0393298Y0123500D01*
X0393298Y0133500D02*
X0398898Y0133500D01*
X0398898Y0143500D02*
X0393298Y0143500D01*
X0393298Y0153500D02*
X0398898Y0153500D01*
X0398898Y0163500D02*
X0393298Y0163500D01*
X0393298Y0173500D02*
X0398898Y0173500D01*
X0388898Y0078500D02*
X0383298Y0078500D01*
X0358898Y0078500D02*
X0353298Y0078500D01*
X0353298Y0068500D02*
X0358898Y0068500D01*
X0358898Y0058500D02*
X0353298Y0058500D01*
X0353298Y0048500D02*
X0358898Y0048500D01*
X0383298Y0048500D02*
X0388898Y0048500D01*
X0388898Y0038500D02*
X0383298Y0038500D01*
X0358898Y0038500D02*
X0353298Y0038500D01*
X0353298Y0028500D02*
X0358898Y0028500D01*
X0383298Y0028500D02*
X0388898Y0028500D01*
X0388898Y0018500D02*
X0383298Y0018500D01*
X0358898Y0018500D02*
X0353298Y0018500D01*
X0383298Y0058500D02*
X0388898Y0058500D01*
X0388898Y0068500D02*
X0383298Y0068500D01*
D11*
X0057043Y0031000D03*
X0089406Y0031000D03*
X0089406Y0081000D03*
X0057043Y0081000D03*
X0057043Y0131000D03*
X0089406Y0131000D03*
X0089406Y0181000D03*
X0057043Y0181000D03*
D12*
X0101610Y0181000D03*
X0101610Y0131000D03*
X0101610Y0081000D03*
X0101610Y0031000D03*
D13*
X0096098Y0056000D03*
X0088598Y0056000D03*
X0058598Y0056000D03*
X0126098Y0056000D03*
X0141098Y0066000D03*
X0136098Y0073500D03*
X0146098Y0073500D03*
X0166098Y0083500D03*
X0181098Y0083500D03*
X0196098Y0083500D03*
X0211098Y0081000D03*
X0221098Y0081000D03*
X0236098Y0083500D03*
X0243598Y0088500D03*
X0236098Y0093500D03*
X0256098Y0083500D03*
X0286098Y0083500D03*
X0311098Y0078500D03*
X0311098Y0068500D03*
X0296098Y0063500D03*
X0311098Y0058500D03*
X0341098Y0058500D03*
X0341098Y0068500D03*
X0341098Y0078500D03*
X0341098Y0088500D03*
X0311098Y0088500D03*
X0383598Y0086000D03*
X0396098Y0088500D03*
X0396098Y0078500D03*
X0396098Y0068500D03*
X0426098Y0068500D03*
X0426098Y0078500D03*
X0426098Y0088500D03*
X0465098Y0088500D03*
X0465098Y0063500D03*
X0441098Y0048500D03*
X0431098Y0048500D03*
X0416098Y0048500D03*
X0406098Y0048500D03*
X0411098Y0041000D03*
X0436098Y0041000D03*
X0465098Y0038500D03*
X0436098Y0028500D03*
X0436098Y0018500D03*
X0465098Y0013500D03*
X0406098Y0018500D03*
X0406098Y0028500D03*
X0296098Y0043500D03*
X0246098Y0058500D03*
X0241098Y0048500D03*
X0216098Y0058500D03*
X0206098Y0053500D03*
X0196098Y0063500D03*
X0181098Y0063500D03*
X0176098Y0053500D03*
X0166098Y0053500D03*
X0241098Y0028500D03*
X0236098Y0016000D03*
X0266098Y0016000D03*
X0148598Y0096000D03*
X0148598Y0106000D03*
X0128598Y0106000D03*
X0128598Y0096000D03*
X0088598Y0106000D03*
X0058598Y0106000D03*
X0111098Y0138500D03*
X0131098Y0138500D03*
X0128598Y0148500D03*
X0128598Y0158500D03*
X0108598Y0158500D03*
X0098598Y0168500D03*
X0128598Y0168500D03*
X0086098Y0156000D03*
X0098598Y0148500D03*
X0056098Y0156000D03*
X0116098Y0186000D03*
X0101098Y0198500D03*
X0131098Y0198500D03*
X0141098Y0198500D03*
X0171098Y0198500D03*
X0183598Y0193500D03*
X0183598Y0173500D03*
X0181098Y0158500D03*
X0191098Y0148500D03*
X0191098Y0128500D03*
X0181098Y0128500D03*
X0211098Y0111000D03*
X0221098Y0111000D03*
X0311098Y0128500D03*
X0321098Y0128500D03*
X0331098Y0133500D03*
X0341098Y0143500D03*
X0321098Y0148500D03*
X0311098Y0148500D03*
X0346098Y0153500D03*
X0366098Y0153500D03*
X0371098Y0143500D03*
X0383598Y0163500D03*
X0331098Y0163500D03*
X0321098Y0163500D03*
X0311098Y0163500D03*
X0331098Y0173500D03*
X0331098Y0193500D03*
X0321098Y0193500D03*
X0311098Y0193500D03*
X0293598Y0193500D03*
X0273598Y0193500D03*
X0383598Y0193500D03*
X0436098Y0193500D03*
X0446098Y0193500D03*
X0465098Y0198500D03*
X0465098Y0173500D03*
X0446098Y0173500D03*
X0436098Y0163500D03*
X0465098Y0148500D03*
X0465098Y0123500D03*
X0383598Y0116000D03*
D14*
X0383598Y0123500D03*
X0465098Y0113500D03*
X0465098Y0098500D03*
X0465098Y0073500D03*
X0465098Y0048500D03*
X0465098Y0023500D03*
X0465098Y0138500D03*
X0465098Y0163500D03*
X0465098Y0188500D03*
X0126098Y0186000D03*
D15*
X0383598Y0153500D03*
X0441098Y0143500D03*
X0441098Y0133500D03*
X0441098Y0123500D03*
X0441098Y0113500D03*
X0441098Y0103500D03*
X0441098Y0093500D03*
X0441098Y0083500D03*
X0441098Y0073500D03*
X0441098Y0063500D03*
D16*
X0198598Y0096000D03*
X0188598Y0096000D03*
X0178598Y0096000D03*
X0168598Y0096000D03*
X0158598Y0096000D03*
X0158598Y0106000D03*
X0168598Y0106000D03*
X0178598Y0106000D03*
X0188598Y0106000D03*
X0198598Y0106000D03*
D17*
X0113598Y0121000D03*
X0113598Y0081000D03*
D18*
X0123598Y0081000D03*
X0123598Y0121000D03*
D19*
X0187598Y0039494D02*
X0187598Y0027506D01*
X0206098Y0027506D02*
X0206098Y0039494D01*
X0224598Y0039494D02*
X0224598Y0027506D01*
D20*
X0453598Y0061000D03*
X0453598Y0071000D03*
X0453598Y0081000D03*
X0453598Y0091000D03*
X0453598Y0101000D03*
X0453598Y0111000D03*
X0453598Y0121000D03*
X0453598Y0131000D03*
X0453598Y0141000D03*
X0453598Y0151000D03*
D21*
X0286098Y0033500D03*
X0276098Y0023500D03*
X0296098Y0023500D03*
D22*
X0245783Y0119976D03*
X0235941Y0119976D03*
X0226098Y0119976D03*
X0216256Y0119976D03*
X0206413Y0119976D03*
X0206413Y0192024D03*
X0216256Y0192024D03*
X0226098Y0192024D03*
X0235941Y0192024D03*
X0245783Y0192024D03*
D23*
X0328539Y0120843D03*
X0113539Y0043343D03*
D24*
X0113539Y0033500D03*
X0113539Y0023657D03*
X0328539Y0101157D03*
X0328539Y0111000D03*
D25*
X0356098Y0128717D03*
X0356098Y0093283D03*
X0141098Y0051217D03*
X0141098Y0015783D03*
D26*
X0253520Y0043500D02*
X0258676Y0043500D01*
X0258676Y0053500D02*
X0253520Y0053500D01*
X0253520Y0063500D02*
X0258676Y0063500D01*
X0258676Y0073500D02*
X0253520Y0073500D01*
X0283520Y0073500D02*
X0288676Y0073500D01*
X0288676Y0063500D02*
X0283520Y0063500D01*
X0283520Y0053500D02*
X0288676Y0053500D01*
X0308520Y0048500D02*
X0313676Y0048500D01*
X0288676Y0043500D02*
X0283520Y0043500D01*
X0308520Y0038500D02*
X0313676Y0038500D01*
X0313676Y0028500D02*
X0308520Y0028500D01*
X0308520Y0018500D02*
X0313676Y0018500D01*
X0338520Y0018500D02*
X0343676Y0018500D01*
X0343676Y0028500D02*
X0338520Y0028500D01*
X0338520Y0038500D02*
X0343676Y0038500D01*
X0343676Y0048500D02*
X0338520Y0048500D01*
X0338520Y0163500D02*
X0343676Y0163500D01*
X0368520Y0163500D02*
X0373676Y0163500D01*
X0373676Y0173500D02*
X0368520Y0173500D01*
X0343676Y0173500D02*
X0338520Y0173500D01*
X0338520Y0183500D02*
X0343676Y0183500D01*
X0343676Y0193500D02*
X0338520Y0193500D01*
X0368520Y0193500D02*
X0373676Y0193500D01*
X0373676Y0183500D02*
X0368520Y0183500D01*
D27*
X0371098Y0193500D02*
X0371198Y0193850D01*
X0383298Y0193850D01*
X0383598Y0193500D01*
X0268598Y0163500D02*
X0268348Y0163600D01*
X0263398Y0163600D01*
X0260098Y0166900D01*
X0236448Y0166900D01*
X0186398Y0116850D01*
X0158598Y0106000D02*
X0158348Y0106400D01*
X0148998Y0106400D01*
X0148598Y0106000D01*
X0147898Y0106400D01*
X0143498Y0106400D01*
X0129198Y0120700D01*
X0123698Y0120700D01*
X0123598Y0121000D01*
X0158598Y0106000D02*
X0158898Y0105300D01*
X0158898Y0096500D01*
X0158598Y0096000D01*
X0134698Y0090450D02*
X0129198Y0095950D01*
X0128598Y0096000D01*
X0128098Y0095950D01*
X0113248Y0081100D01*
X0113598Y0081000D01*
X0134698Y0090450D02*
X0190798Y0090450D01*
X0196298Y0095950D01*
X0198498Y0095950D01*
X0198598Y0096000D01*
X0199048Y0096500D01*
X0232048Y0096500D01*
X0234248Y0098700D01*
X0261198Y0098700D01*
X0285948Y0073950D01*
X0286098Y0073500D01*
X0311098Y0068500D02*
X0311798Y0069000D01*
X0316198Y0073400D01*
X0316198Y0099800D01*
X0320598Y0104200D01*
X0320598Y0128400D01*
X0321098Y0128500D01*
X0311248Y0128950D02*
X0311098Y0128500D01*
X0310698Y0128400D01*
X0310698Y0125650D01*
X0303548Y0118500D01*
X0293648Y0118500D01*
X0290898Y0115750D01*
X0290898Y0108600D01*
X0310698Y0088800D01*
X0311098Y0088500D01*
X0318948Y0070650D02*
X0341098Y0048500D01*
X0318398Y0061300D02*
X0311248Y0068450D01*
X0311098Y0068500D01*
X0318398Y0061300D02*
X0318398Y0026100D01*
X0311248Y0018950D01*
X0311098Y0018500D01*
X0310698Y0017850D01*
X0294198Y0017850D01*
X0268898Y0043150D01*
X0256248Y0043150D01*
X0256098Y0043500D01*
X0187598Y0033500D02*
X0187498Y0033800D01*
X0168248Y0053050D01*
X0166598Y0053050D01*
X0166098Y0053500D01*
X0211098Y0081000D02*
X0211148Y0081100D01*
X0221048Y0081100D01*
X0221098Y0081000D01*
X0221598Y0081650D01*
X0233698Y0081650D01*
X0235348Y0083300D01*
X0236098Y0083500D01*
X0236448Y0083850D01*
X0236448Y0093200D01*
X0236098Y0093500D01*
X0311248Y0128950D02*
X0311248Y0137750D01*
X0386098Y0078500D02*
X0386598Y0078900D01*
X0395398Y0078900D01*
X0396098Y0078500D01*
X0396498Y0078350D01*
X0396498Y0069000D01*
X0396098Y0068500D01*
D28*
X0432798Y0075050D03*
X0443798Y0078900D03*
X0442148Y0055800D03*
X0330498Y0092650D03*
X0320048Y0098700D03*
X0278248Y0116300D03*
X0234798Y0111900D03*
X0186398Y0116850D03*
X0276598Y0136650D03*
X0311248Y0137750D03*
X0335998Y0144900D03*
X0402548Y0119050D03*
X0415748Y0127850D03*
X0432798Y0110800D03*
X0436098Y0105300D03*
X0318948Y0070650D03*
X0306298Y0033800D03*
X0417948Y0164700D03*
X0451498Y0174600D03*
X0456998Y0185050D03*
X0406398Y0188350D03*
X0383848Y0174600D03*
X0235898Y0177350D03*
X0213348Y0187250D03*
D29*
X0260648Y0187250D01*
X0271648Y0198250D01*
X0312898Y0198250D01*
X0316198Y0194950D01*
X0316198Y0191650D01*
X0318948Y0188900D01*
X0391548Y0188900D01*
X0395948Y0193300D01*
X0396098Y0193500D01*
X0396498Y0193300D01*
X0401448Y0188350D01*
X0406398Y0188350D01*
X0426198Y0183950D02*
X0426098Y0183500D01*
X0426198Y0183950D02*
X0436098Y0193850D01*
X0436098Y0193500D01*
X0436098Y0193850D02*
X0445998Y0193850D01*
X0446098Y0193500D01*
X0448198Y0198250D02*
X0452598Y0193850D01*
X0467998Y0193850D01*
X0469648Y0192200D01*
X0469648Y0146550D01*
X0465248Y0142150D01*
X0465248Y0138850D01*
X0465098Y0138500D01*
X0464698Y0138300D01*
X0464698Y0129500D01*
X0458648Y0123450D01*
X0458648Y0116300D01*
X0453698Y0111350D01*
X0453598Y0111000D01*
X0445998Y0111350D02*
X0445998Y0115200D01*
X0442698Y0118500D01*
X0439398Y0118500D01*
X0433898Y0124000D01*
X0433898Y0125650D01*
X0426198Y0133350D01*
X0426098Y0133500D01*
X0425648Y0133350D01*
X0403648Y0111350D01*
X0358548Y0111350D01*
X0343698Y0126200D01*
X0331598Y0126200D01*
X0324448Y0133350D01*
X0319498Y0133350D01*
X0316198Y0130050D01*
X0316198Y0126750D01*
X0302998Y0113550D01*
X0298598Y0113550D01*
X0298598Y0113500D01*
X0294748Y0123450D02*
X0287598Y0116300D01*
X0278248Y0116300D01*
X0261198Y0111350D02*
X0284298Y0088250D01*
X0288148Y0088250D01*
X0301898Y0074500D01*
X0301898Y0038200D01*
X0306298Y0033800D01*
X0310698Y0038750D02*
X0311098Y0038500D01*
X0310698Y0038750D02*
X0310698Y0039850D01*
X0304098Y0046450D01*
X0304098Y0071750D01*
X0310698Y0078350D01*
X0311098Y0078500D01*
X0320048Y0082750D02*
X0339298Y0063500D01*
X0342598Y0063500D01*
X0348648Y0069550D01*
X0348648Y0071200D01*
X0355798Y0078350D01*
X0356098Y0078500D01*
X0348098Y0088800D02*
X0343148Y0083850D01*
X0339298Y0083850D01*
X0330498Y0092650D01*
X0323348Y0089350D02*
X0323348Y0115750D01*
X0328298Y0120700D01*
X0328539Y0120843D01*
X0298598Y0123450D02*
X0298598Y0123500D01*
X0298598Y0123450D02*
X0294748Y0123450D01*
X0284573Y0128675D02*
X0276598Y0136650D01*
X0274398Y0138850D02*
X0293648Y0158100D01*
X0348098Y0158100D01*
X0350848Y0155350D01*
X0350848Y0151500D01*
X0343148Y0143800D01*
X0341498Y0143800D01*
X0341098Y0143500D01*
X0335998Y0144900D02*
X0344248Y0153150D01*
X0345898Y0153150D01*
X0346098Y0153500D01*
X0333248Y0143250D02*
X0337648Y0138850D01*
X0381648Y0138850D01*
X0395948Y0153150D01*
X0396098Y0153500D01*
X0396498Y0153700D01*
X0410798Y0168000D01*
X0441598Y0168000D01*
X0441598Y0175700D01*
X0444348Y0178450D01*
X0454798Y0178450D01*
X0464698Y0188350D01*
X0465098Y0188500D01*
X0456998Y0185050D02*
X0447648Y0185050D01*
X0441598Y0179000D01*
X0418498Y0179000D01*
X0403098Y0163600D01*
X0396498Y0163600D01*
X0396098Y0163500D01*
X0395948Y0163600D01*
X0384948Y0174600D01*
X0383848Y0174600D01*
X0373398Y0173500D02*
X0383298Y0163600D01*
X0383598Y0163500D01*
X0388248Y0165250D02*
X0388248Y0158100D01*
X0383848Y0153700D01*
X0383598Y0153500D01*
X0388248Y0165250D02*
X0371198Y0182300D01*
X0371198Y0183400D01*
X0371098Y0183500D01*
X0371098Y0173500D02*
X0373398Y0173500D01*
X0396098Y0173500D02*
X0396498Y0173500D01*
X0421248Y0198250D01*
X0448198Y0198250D01*
X0451498Y0174600D02*
X0453148Y0172950D01*
X0453148Y0151500D01*
X0453598Y0151000D01*
X0448198Y0143250D02*
X0441598Y0149850D01*
X0441598Y0168000D01*
X0436098Y0163500D02*
X0436098Y0143800D01*
X0426198Y0133900D01*
X0426098Y0133500D01*
X0425648Y0143250D02*
X0415748Y0133350D01*
X0415748Y0127850D01*
X0413548Y0131700D02*
X0413548Y0141050D01*
X0425648Y0153150D01*
X0426098Y0153500D01*
X0426098Y0143500D02*
X0425648Y0143250D01*
X0448198Y0143250D02*
X0448198Y0136100D01*
X0453148Y0131150D01*
X0453598Y0131000D01*
X0460298Y0130600D02*
X0460298Y0158650D01*
X0464698Y0163050D01*
X0465098Y0163500D01*
X0413548Y0131700D02*
X0401723Y0119875D01*
X0402548Y0119050D01*
X0401723Y0119875D02*
X0400348Y0118500D01*
X0391548Y0118500D01*
X0388798Y0121250D01*
X0388798Y0126750D01*
X0378898Y0136650D01*
X0336548Y0136650D01*
X0332148Y0141050D01*
X0310148Y0141050D01*
X0307948Y0138850D01*
X0294748Y0138850D01*
X0284573Y0128675D01*
X0279898Y0124000D01*
X0268898Y0124000D01*
X0268598Y0123500D01*
X0261198Y0126200D02*
X0261198Y0111350D01*
X0258998Y0126200D02*
X0239198Y0106400D01*
X0208948Y0106400D01*
X0203998Y0111350D01*
X0187498Y0111350D01*
X0175398Y0123450D01*
X0136348Y0123450D01*
X0121498Y0138300D01*
X0111598Y0138300D01*
X0111098Y0138500D01*
X0111048Y0138850D01*
X0108298Y0138850D01*
X0098948Y0148200D01*
X0098598Y0148500D01*
X0108848Y0154250D02*
X0108848Y0158100D01*
X0108598Y0158500D01*
X0108848Y0154250D02*
X0134148Y0128950D01*
X0140748Y0128950D01*
X0141098Y0128500D01*
X0171098Y0128500D02*
X0171548Y0128950D01*
X0180898Y0128950D01*
X0181098Y0128500D01*
X0206413Y0119976D02*
X0206748Y0119600D01*
X0208948Y0119600D01*
X0213348Y0115200D01*
X0218298Y0115200D01*
X0218848Y0115750D01*
X0223248Y0115750D01*
X0227098Y0111900D01*
X0234798Y0111900D01*
X0235898Y0108600D02*
X0240848Y0113550D01*
X0240848Y0125100D01*
X0264498Y0148750D01*
X0280998Y0148750D01*
X0295298Y0163050D01*
X0298598Y0163050D01*
X0298598Y0163500D01*
X0293648Y0168000D02*
X0316198Y0168000D01*
X0320598Y0163600D01*
X0321098Y0163500D01*
X0321148Y0163600D01*
X0331048Y0173500D01*
X0331098Y0173500D01*
X0331048Y0173500D02*
X0340948Y0183400D01*
X0341098Y0183500D01*
X0341098Y0193500D02*
X0340948Y0193850D01*
X0331598Y0193850D01*
X0331098Y0193500D01*
X0331048Y0193850D01*
X0321148Y0193850D01*
X0321098Y0193500D01*
X0320598Y0193850D01*
X0313998Y0200450D01*
X0200698Y0200450D01*
X0184198Y0183950D01*
X0136898Y0183950D01*
X0134148Y0181200D01*
X0124798Y0181200D01*
X0082998Y0139400D01*
X0082998Y0054700D01*
X0086298Y0051400D01*
X0091798Y0051400D01*
X0107748Y0035450D01*
X0107748Y0031600D01*
X0113248Y0026100D01*
X0113248Y0023900D01*
X0113539Y0023657D01*
X0177048Y0060750D02*
X0189148Y0048650D01*
X0240848Y0048650D01*
X0241098Y0048500D01*
X0241398Y0048100D01*
X0275498Y0014000D01*
X0315648Y0014000D01*
X0320048Y0018400D01*
X0340948Y0018400D01*
X0341098Y0018500D01*
X0351948Y0033250D02*
X0378348Y0033250D01*
X0378348Y0060750D01*
X0386098Y0068500D01*
X0421248Y0070100D02*
X0421248Y0053050D01*
X0404198Y0053050D01*
X0399798Y0048650D01*
X0386598Y0048650D01*
X0386098Y0048500D01*
X0421248Y0053050D02*
X0426198Y0053050D01*
X0430598Y0048650D01*
X0431098Y0048500D01*
X0442148Y0055800D02*
X0436098Y0061850D01*
X0436098Y0105300D01*
X0439948Y0108050D02*
X0443248Y0108050D01*
X0448198Y0103100D01*
X0448198Y0099250D01*
X0454798Y0092650D01*
X0453598Y0091000D01*
X0453698Y0091000D01*
X0460848Y0098150D01*
X0464698Y0098150D01*
X0465098Y0098500D01*
X0453598Y0101000D02*
X0454248Y0103100D01*
X0445998Y0111350D01*
X0439948Y0108050D02*
X0433898Y0114100D01*
X0431698Y0114100D01*
X0426748Y0109150D01*
X0356898Y0109150D01*
X0348098Y0100350D01*
X0348098Y0088800D01*
X0341098Y0088500D02*
X0340948Y0088800D01*
X0328848Y0100900D01*
X0328539Y0101157D01*
X0320048Y0098700D02*
X0320048Y0082750D01*
X0323348Y0089350D02*
X0340948Y0071750D01*
X0340948Y0069000D01*
X0341098Y0068500D01*
X0311098Y0058500D02*
X0311248Y0058000D01*
X0311248Y0048650D01*
X0311098Y0048500D01*
X0296098Y0043500D02*
X0295848Y0043700D01*
X0286498Y0053050D01*
X0286098Y0053500D01*
X0286098Y0063500D02*
X0296098Y0063500D01*
X0256098Y0063500D02*
X0251298Y0063500D01*
X0246348Y0058550D01*
X0246098Y0058500D01*
X0245798Y0058000D01*
X0241398Y0053600D01*
X0206198Y0053600D01*
X0206098Y0053500D01*
X0216098Y0058500D02*
X0216098Y0059100D01*
X0211698Y0063500D01*
X0196098Y0063500D01*
X0181098Y0063500D02*
X0180898Y0063500D01*
X0180898Y0069000D01*
X0166598Y0083300D01*
X0166098Y0083500D01*
X0166048Y0083300D01*
X0156698Y0073950D01*
X0146248Y0073950D01*
X0146098Y0073500D01*
X0124248Y0060750D02*
X0177048Y0060750D01*
X0202348Y0083300D02*
X0209498Y0076150D01*
X0248548Y0076150D01*
X0255698Y0083300D01*
X0256098Y0083500D01*
X0256098Y0073500D02*
X0255698Y0073400D01*
X0230948Y0073400D01*
X0216098Y0058550D01*
X0216098Y0058500D01*
X0202348Y0083300D02*
X0196298Y0083300D01*
X0196098Y0083500D01*
X0224898Y0110800D02*
X0227098Y0108600D01*
X0235898Y0108600D01*
X0224898Y0110800D02*
X0221598Y0110800D01*
X0221098Y0111000D01*
X0258998Y0126200D02*
X0258998Y0133350D01*
X0264498Y0138850D01*
X0274398Y0138850D01*
X0268598Y0133500D02*
X0268348Y0133350D01*
X0261198Y0126200D01*
X0298598Y0143250D02*
X0298598Y0143500D01*
X0298598Y0143250D02*
X0333248Y0143250D01*
X0383598Y0123500D02*
X0383848Y0123450D01*
X0383848Y0116300D01*
X0383598Y0116000D01*
X0432798Y0110800D02*
X0432798Y0075050D01*
X0425648Y0074500D02*
X0421248Y0070100D01*
X0425648Y0074500D02*
X0425648Y0078350D01*
X0426098Y0078500D01*
X0441098Y0083500D02*
X0441598Y0083850D01*
X0449298Y0083850D01*
X0451498Y0086050D01*
X0460848Y0086050D01*
X0469648Y0077250D01*
X0469648Y0043150D01*
X0465248Y0038750D01*
X0465098Y0038500D01*
X0464698Y0032150D02*
X0453698Y0043150D01*
X0453698Y0060750D01*
X0453598Y0061000D01*
X0448198Y0062950D02*
X0448198Y0030500D01*
X0464698Y0014000D01*
X0465098Y0013500D01*
X0465098Y0023500D02*
X0464698Y0023900D01*
X0464698Y0032150D01*
X0436098Y0040950D02*
X0436098Y0041000D01*
X0436098Y0040950D02*
X0431148Y0036000D01*
X0431148Y0026650D01*
X0436098Y0021700D01*
X0436098Y0018500D01*
X0406098Y0028500D02*
X0405848Y0028850D01*
X0401448Y0033250D01*
X0378348Y0033250D01*
X0351948Y0033250D02*
X0346998Y0038200D01*
X0341498Y0038200D01*
X0341098Y0038500D01*
X0296098Y0023500D02*
X0295848Y0023900D01*
X0286498Y0033250D01*
X0286098Y0033500D01*
X0236098Y0016000D02*
X0235898Y0016200D01*
X0223248Y0016200D01*
X0206198Y0033250D01*
X0206098Y0033500D01*
X0124248Y0060750D02*
X0119848Y0056350D01*
X0096198Y0056350D01*
X0096098Y0056000D01*
X0095648Y0056350D01*
X0089048Y0056350D01*
X0088598Y0056000D01*
X0058598Y0056000D02*
X0058248Y0056350D01*
X0058248Y0079450D01*
X0057148Y0080550D01*
X0057043Y0081000D01*
X0058598Y0106000D02*
X0058248Y0106400D01*
X0058248Y0129500D01*
X0057148Y0130600D01*
X0057043Y0131000D01*
X0056098Y0156000D02*
X0056598Y0156450D01*
X0056598Y0180650D01*
X0057043Y0181000D01*
X0057148Y0181200D01*
X0126098Y0186000D02*
X0126448Y0186150D01*
X0138548Y0186150D01*
X0140748Y0188350D01*
X0141098Y0188500D01*
X0171098Y0198500D02*
X0171548Y0198250D01*
X0178698Y0198250D01*
X0183098Y0193850D01*
X0183598Y0193500D01*
X0200698Y0197150D02*
X0211148Y0197150D01*
X0216098Y0192200D01*
X0216256Y0192024D01*
X0206748Y0191650D02*
X0206413Y0192024D01*
X0206748Y0191650D02*
X0206748Y0189450D01*
X0218848Y0177350D01*
X0235898Y0177350D01*
X0200698Y0197150D02*
X0177048Y0173500D01*
X0136898Y0173500D01*
X0131948Y0168550D01*
X0128648Y0168550D01*
X0128598Y0168500D01*
X0181098Y0158500D02*
X0181448Y0158100D01*
X0190798Y0148750D01*
X0191098Y0148500D01*
X0268598Y0153500D02*
X0268898Y0153700D01*
X0279348Y0153700D01*
X0293648Y0168000D01*
X0298598Y0173500D02*
X0310698Y0185600D01*
X0310698Y0193300D01*
X0311098Y0193500D01*
X0298598Y0183950D02*
X0293648Y0188900D01*
X0293648Y0193300D01*
X0293598Y0193500D01*
X0298598Y0183950D02*
X0298598Y0183500D01*
X0453698Y0124000D02*
X0460298Y0130600D01*
X0453698Y0124000D02*
X0453698Y0121250D01*
X0453598Y0121000D01*
X0464698Y0113000D02*
X0465098Y0113500D01*
X0464698Y0113000D02*
X0453148Y0101450D01*
X0453598Y0101000D01*
X0453598Y0081000D02*
X0453148Y0080550D01*
X0445448Y0080550D01*
X0443798Y0078900D01*
X0441598Y0073400D02*
X0441098Y0073500D01*
X0441598Y0073400D02*
X0441598Y0069550D01*
X0448198Y0062950D01*
X0453698Y0068450D02*
X0453698Y0070650D01*
X0453598Y0071000D01*
X0460298Y0073950D02*
X0453698Y0080550D01*
X0453598Y0081000D01*
X0460298Y0073950D02*
X0464698Y0073950D01*
X0465098Y0073500D01*
X0453698Y0068450D02*
X0464698Y0057450D01*
X0464698Y0048650D01*
X0465098Y0048500D01*
D30*
X0416298Y0048100D02*
X0416098Y0048500D01*
X0416298Y0048100D02*
X0416298Y0021150D01*
X0408048Y0012900D01*
X0362948Y0012900D01*
X0357448Y0018400D01*
X0356098Y0018500D01*
X0356348Y0018950D01*
X0356348Y0028300D01*
X0356098Y0028500D01*
X0356098Y0038500D02*
X0360748Y0043150D01*
X0361298Y0043150D01*
X0364598Y0046450D01*
X0364598Y0086050D01*
X0383298Y0086050D01*
X0383598Y0086000D01*
X0364598Y0086050D02*
X0363498Y0086050D01*
X0356348Y0093200D01*
X0356098Y0093283D01*
X0396098Y0123500D02*
X0396498Y0124000D01*
X0400898Y0128400D01*
X0401448Y0128400D01*
X0404198Y0131150D01*
X0404198Y0136100D01*
X0396498Y0143800D01*
X0396098Y0143500D01*
X0397598Y0144350D01*
X0417948Y0164700D01*
X0446098Y0173500D02*
X0446548Y0173500D01*
X0446548Y0149850D01*
X0453148Y0143250D01*
X0453148Y0141050D01*
X0453598Y0141000D01*
X0366098Y0153500D02*
X0365698Y0153700D01*
X0346448Y0172950D01*
X0342048Y0172950D01*
X0341098Y0173500D01*
X0340948Y0173500D01*
X0331048Y0163600D01*
X0331098Y0163500D01*
X0321098Y0148500D02*
X0320598Y0148750D01*
X0311248Y0148750D01*
X0311098Y0148500D01*
X0268898Y0173500D02*
X0268598Y0173500D01*
X0183598Y0173500D01*
X0183098Y0173500D01*
X0178148Y0168550D01*
X0171548Y0168550D01*
X0171098Y0168500D01*
X0169898Y0168550D01*
X0149548Y0148200D01*
X0149548Y0146550D01*
X0141848Y0138850D01*
X0141098Y0138500D01*
X0140748Y0138300D01*
X0131398Y0138300D01*
X0131098Y0138500D01*
X0130298Y0139400D01*
X0130298Y0146550D01*
X0129198Y0147650D01*
X0128598Y0148500D01*
X0128648Y0148750D01*
X0128648Y0158100D01*
X0128598Y0158500D01*
X0101610Y0181000D02*
X0101148Y0181200D01*
X0101148Y0198250D01*
X0101098Y0198500D01*
X0268598Y0183500D02*
X0268898Y0183400D01*
X0268898Y0173500D01*
X0166598Y0106400D02*
X0154498Y0118500D01*
X0141098Y0118500D01*
X0166598Y0106400D02*
X0167698Y0106400D01*
X0168598Y0106000D01*
X0169898Y0106400D01*
X0178148Y0106400D01*
X0178598Y0106000D01*
X0179798Y0105850D01*
X0188598Y0105850D01*
X0188598Y0106000D01*
X0168798Y0105850D02*
X0168598Y0106000D01*
X0168798Y0105850D02*
X0168798Y0097050D01*
X0168598Y0096000D01*
X0168798Y0095950D01*
X0178148Y0095950D01*
X0178598Y0096000D01*
X0179798Y0095950D01*
X0188598Y0095950D01*
X0188598Y0096000D01*
X0113598Y0121000D02*
X0113248Y0121250D01*
X0111048Y0121250D01*
X0101698Y0130600D01*
X0101610Y0131000D01*
X0126098Y0056000D02*
X0113798Y0043700D01*
X0113539Y0043343D01*
X0114348Y0042600D01*
X0119848Y0037100D01*
X0119848Y0016200D01*
X0112698Y0016200D01*
X0101698Y0027200D01*
X0101698Y0030500D01*
X0101610Y0031000D01*
X0119848Y0016200D02*
X0140748Y0016200D01*
X0141098Y0015783D01*
X0141098Y0051217D02*
X0140748Y0051400D01*
X0136348Y0055800D01*
X0126448Y0055800D01*
X0126098Y0056000D01*
X0256098Y0053500D02*
X0256248Y0053050D01*
X0276598Y0053050D01*
X0285398Y0044250D01*
X0286098Y0043500D01*
X0286498Y0043150D01*
X0300798Y0028850D01*
X0310698Y0028850D01*
X0311098Y0028500D01*
M02*
