%
M48
M72
T01C0.0130
T02C0.0236
T03C0.0240
T04C0.0276
T05C0.0320
T06C0.0354
T07C0.0400
T08C0.0440
T09C0.1260
%
T01
X14360Y7760
X15239Y10631
X22360Y9260
X24860Y9510
X23360Y11760
X22610Y12260
X26860Y12010
X28860Y12260
X30610Y12760
X30860Y12510
X32860Y11760
X34860Y12010
X35860Y12260
X38360Y11760
X40360Y12510
X36360Y14510
X37860Y14760
X40360Y14760
X33360Y14510
X32860Y14760
X30360Y14760
X24860Y14510
X23860Y14510
X23360Y14760
X19360Y16760
X33360Y9760
X31360Y9260
X35610Y9260
X35860Y9510
X36360Y9760
X37360Y9510
X35360Y7260
X37360Y6260
X32860Y7010
X28860Y7010
X27360Y6760
X26860Y7260
X22360Y6760
X36360Y3510
T02
X31860Y17410
X29860Y17410
X22860Y17410
T03
X16110Y9510
T04
X17360Y8010
X18360Y8010
X19360Y8010
X20360Y8010
X15110Y6260
X14110Y6260
X17360Y5010
X18360Y5010
X19360Y5010
X20360Y5010
X15110Y4260
X14110Y4260
T05
X17360Y3510
X17360Y2510
X20360Y2510
X20360Y3510
X22860Y5260
X23860Y5260
X24860Y5260
X25860Y5260
X26860Y5260
X27860Y5260
X28860Y5260
X32860Y5260
X33860Y5260
X34860Y5260
X35860Y5260
X36860Y5260
X37860Y5260
X38860Y5260
X39860Y5260
X40860Y5760
X41610Y5260
X42360Y4760
X41610Y4260
X40860Y7760
X39860Y8260
X38860Y8260
X37860Y8260
X36860Y8260
X35860Y8260
X34860Y8260
X33860Y8260
X32860Y8260
X28860Y8260
X27860Y8260
X26860Y8260
X25860Y8260
X24860Y8260
X23860Y8260
X22860Y8260
X21860Y7510
X21860Y5510
X12360Y10010
X11360Y10010
X10360Y10510
X9360Y10010
X13360Y10510
X13360Y12510
X12360Y13010
X11360Y13010
X10360Y12510
X9360Y13010
X9360Y15010
X10360Y15010
X11360Y15010
X12360Y15010
X13360Y15010
X15360Y16010
X16360Y15510
X17360Y15510
X18360Y16010
X19360Y15510
X20360Y16010
X21860Y16010
X22860Y16010
X23860Y16010
X24860Y16010
X25860Y16010
X26860Y16010
X27860Y16010
X28860Y16010
X29860Y16010
X31860Y16660
X32860Y16010
X33860Y16010
X34860Y16010
X35860Y16010
X36860Y16010
X37860Y16010
X38860Y16010
X39860Y16010
X41110Y15760
X41860Y15260
X41860Y16260
X39860Y13510
X38860Y13510
X37860Y13510
X36860Y13510
X35860Y13510
X34860Y13510
X33860Y13510
X32860Y13510
X28860Y13510
X27860Y13510
X26860Y13510
X25860Y13510
X24860Y13510
X23860Y13510
X22860Y13510
X21860Y12760
X20360Y13010
X19360Y13510
X18360Y13010
X17360Y13510
X16360Y13510
X15360Y13010
X21860Y10760
X22860Y10510
X23860Y10510
X24860Y10510
X25860Y10510
X26860Y10510
X27860Y10510
X28860Y10510
X32860Y10510
X33860Y10510
X34860Y10510
X35860Y10510
X36860Y10510
X37860Y10510
X38860Y10510
X39860Y10510
X40860Y11010
X40860Y13010
X31860Y18660
X32860Y19010
X33860Y19010
X34860Y19010
X35860Y19010
X36860Y19010
X37860Y19010
X38860Y19010
X39860Y19010
X29860Y19010
X28860Y19010
X27860Y19010
X26860Y19010
X25860Y19010
X24860Y19010
X23860Y19010
X22860Y19010
X21860Y18010
X13360Y18010
X12360Y18010
X11360Y18010
X10360Y18010
X9360Y18010
X8360Y18010
X7360Y18010
X7360Y15010
X8360Y15010
X7860Y7010
X9860Y7010
X9860Y3010
X7860Y3010
T06
X11480Y3194
X15239Y1826
X11480Y7076
X15239Y8444
T07
X18860Y9510
X19860Y9510
X19860Y10510
X18860Y10510
X18860Y11510
X19860Y11510
X11860Y5510
X10860Y5510
X9860Y5510
X8860Y5510
X7860Y5510
X7860Y4510
X8860Y4510
X9860Y4510
X10860Y4510
X11860Y4510
X22860Y2510
X23860Y2510
X24860Y2510
X25860Y2510
X26860Y2510
X27860Y2510
X28860Y2510
X29860Y2510
X29860Y1510
X28860Y1510
X27860Y1510
X26860Y1510
X25860Y1510
X24860Y1510
X23860Y1510
X22860Y1510
X32860Y1510
X33860Y1510
X34860Y1510
X35860Y1510
X36860Y1510
X37860Y1510
X38860Y1510
X39860Y1510
X39860Y2510
X38860Y2510
X37860Y2510
X36860Y2510
X35860Y2510
X34860Y2510
X33860Y2510
X32860Y2510
X43360Y8510
X44360Y8510
X44360Y9510
X43360Y9510
X43360Y10510
X44360Y10510
X44360Y11510
X43360Y11510
X43360Y12510
X44360Y12510
X20360Y18010
X19360Y18010
X18360Y18010
X18360Y19010
X19360Y19010
X20360Y19010
T08
X7860Y2010
X11860Y2010
X11860Y8010
X7860Y8010
T09
X15860Y18760
X43860Y2260
M30
