G75*
%MOIN*%
%OFA0B0*%
%FSLAX25Y25*%
%IPPOS*%
%LPD*%
%AMOC8*
5,1,8,0,0,1.08239X$1,22.5*
%
%ADD10C,0.00000*%
D10*
X0063598Y0007600D02*
X0484858Y0007600D01*
X0484858Y0202482D01*
X0063598Y0202482D01*
X0063598Y0007600D01*
X0432299Y0022600D02*
X0432301Y0022758D01*
X0432307Y0022916D01*
X0432317Y0023074D01*
X0432331Y0023232D01*
X0432349Y0023389D01*
X0432370Y0023546D01*
X0432396Y0023702D01*
X0432426Y0023858D01*
X0432459Y0024013D01*
X0432497Y0024166D01*
X0432538Y0024319D01*
X0432583Y0024471D01*
X0432632Y0024622D01*
X0432685Y0024771D01*
X0432741Y0024919D01*
X0432801Y0025065D01*
X0432865Y0025210D01*
X0432933Y0025353D01*
X0433004Y0025495D01*
X0433078Y0025635D01*
X0433156Y0025772D01*
X0433238Y0025908D01*
X0433322Y0026042D01*
X0433411Y0026173D01*
X0433502Y0026302D01*
X0433597Y0026429D01*
X0433694Y0026554D01*
X0433795Y0026676D01*
X0433899Y0026795D01*
X0434006Y0026912D01*
X0434116Y0027026D01*
X0434229Y0027137D01*
X0434344Y0027246D01*
X0434462Y0027351D01*
X0434583Y0027453D01*
X0434706Y0027553D01*
X0434832Y0027649D01*
X0434960Y0027742D01*
X0435090Y0027832D01*
X0435223Y0027918D01*
X0435358Y0028002D01*
X0435494Y0028081D01*
X0435633Y0028158D01*
X0435774Y0028230D01*
X0435916Y0028300D01*
X0436060Y0028365D01*
X0436206Y0028427D01*
X0436353Y0028485D01*
X0436502Y0028540D01*
X0436652Y0028591D01*
X0436803Y0028638D01*
X0436955Y0028681D01*
X0437108Y0028720D01*
X0437263Y0028756D01*
X0437418Y0028787D01*
X0437574Y0028815D01*
X0437730Y0028839D01*
X0437887Y0028859D01*
X0438045Y0028875D01*
X0438202Y0028887D01*
X0438361Y0028895D01*
X0438519Y0028899D01*
X0438677Y0028899D01*
X0438835Y0028895D01*
X0438994Y0028887D01*
X0439151Y0028875D01*
X0439309Y0028859D01*
X0439466Y0028839D01*
X0439622Y0028815D01*
X0439778Y0028787D01*
X0439933Y0028756D01*
X0440088Y0028720D01*
X0440241Y0028681D01*
X0440393Y0028638D01*
X0440544Y0028591D01*
X0440694Y0028540D01*
X0440843Y0028485D01*
X0440990Y0028427D01*
X0441136Y0028365D01*
X0441280Y0028300D01*
X0441422Y0028230D01*
X0441563Y0028158D01*
X0441702Y0028081D01*
X0441838Y0028002D01*
X0441973Y0027918D01*
X0442106Y0027832D01*
X0442236Y0027742D01*
X0442364Y0027649D01*
X0442490Y0027553D01*
X0442613Y0027453D01*
X0442734Y0027351D01*
X0442852Y0027246D01*
X0442967Y0027137D01*
X0443080Y0027026D01*
X0443190Y0026912D01*
X0443297Y0026795D01*
X0443401Y0026676D01*
X0443502Y0026554D01*
X0443599Y0026429D01*
X0443694Y0026302D01*
X0443785Y0026173D01*
X0443874Y0026042D01*
X0443958Y0025908D01*
X0444040Y0025772D01*
X0444118Y0025635D01*
X0444192Y0025495D01*
X0444263Y0025353D01*
X0444331Y0025210D01*
X0444395Y0025065D01*
X0444455Y0024919D01*
X0444511Y0024771D01*
X0444564Y0024622D01*
X0444613Y0024471D01*
X0444658Y0024319D01*
X0444699Y0024166D01*
X0444737Y0024013D01*
X0444770Y0023858D01*
X0444800Y0023702D01*
X0444826Y0023546D01*
X0444847Y0023389D01*
X0444865Y0023232D01*
X0444879Y0023074D01*
X0444889Y0022916D01*
X0444895Y0022758D01*
X0444897Y0022600D01*
X0444895Y0022442D01*
X0444889Y0022284D01*
X0444879Y0022126D01*
X0444865Y0021968D01*
X0444847Y0021811D01*
X0444826Y0021654D01*
X0444800Y0021498D01*
X0444770Y0021342D01*
X0444737Y0021187D01*
X0444699Y0021034D01*
X0444658Y0020881D01*
X0444613Y0020729D01*
X0444564Y0020578D01*
X0444511Y0020429D01*
X0444455Y0020281D01*
X0444395Y0020135D01*
X0444331Y0019990D01*
X0444263Y0019847D01*
X0444192Y0019705D01*
X0444118Y0019565D01*
X0444040Y0019428D01*
X0443958Y0019292D01*
X0443874Y0019158D01*
X0443785Y0019027D01*
X0443694Y0018898D01*
X0443599Y0018771D01*
X0443502Y0018646D01*
X0443401Y0018524D01*
X0443297Y0018405D01*
X0443190Y0018288D01*
X0443080Y0018174D01*
X0442967Y0018063D01*
X0442852Y0017954D01*
X0442734Y0017849D01*
X0442613Y0017747D01*
X0442490Y0017647D01*
X0442364Y0017551D01*
X0442236Y0017458D01*
X0442106Y0017368D01*
X0441973Y0017282D01*
X0441838Y0017198D01*
X0441702Y0017119D01*
X0441563Y0017042D01*
X0441422Y0016970D01*
X0441280Y0016900D01*
X0441136Y0016835D01*
X0440990Y0016773D01*
X0440843Y0016715D01*
X0440694Y0016660D01*
X0440544Y0016609D01*
X0440393Y0016562D01*
X0440241Y0016519D01*
X0440088Y0016480D01*
X0439933Y0016444D01*
X0439778Y0016413D01*
X0439622Y0016385D01*
X0439466Y0016361D01*
X0439309Y0016341D01*
X0439151Y0016325D01*
X0438994Y0016313D01*
X0438835Y0016305D01*
X0438677Y0016301D01*
X0438519Y0016301D01*
X0438361Y0016305D01*
X0438202Y0016313D01*
X0438045Y0016325D01*
X0437887Y0016341D01*
X0437730Y0016361D01*
X0437574Y0016385D01*
X0437418Y0016413D01*
X0437263Y0016444D01*
X0437108Y0016480D01*
X0436955Y0016519D01*
X0436803Y0016562D01*
X0436652Y0016609D01*
X0436502Y0016660D01*
X0436353Y0016715D01*
X0436206Y0016773D01*
X0436060Y0016835D01*
X0435916Y0016900D01*
X0435774Y0016970D01*
X0435633Y0017042D01*
X0435494Y0017119D01*
X0435358Y0017198D01*
X0435223Y0017282D01*
X0435090Y0017368D01*
X0434960Y0017458D01*
X0434832Y0017551D01*
X0434706Y0017647D01*
X0434583Y0017747D01*
X0434462Y0017849D01*
X0434344Y0017954D01*
X0434229Y0018063D01*
X0434116Y0018174D01*
X0434006Y0018288D01*
X0433899Y0018405D01*
X0433795Y0018524D01*
X0433694Y0018646D01*
X0433597Y0018771D01*
X0433502Y0018898D01*
X0433411Y0019027D01*
X0433322Y0019158D01*
X0433238Y0019292D01*
X0433156Y0019428D01*
X0433078Y0019565D01*
X0433004Y0019705D01*
X0432933Y0019847D01*
X0432865Y0019990D01*
X0432801Y0020135D01*
X0432741Y0020281D01*
X0432685Y0020429D01*
X0432632Y0020578D01*
X0432583Y0020729D01*
X0432538Y0020881D01*
X0432497Y0021034D01*
X0432459Y0021187D01*
X0432426Y0021342D01*
X0432396Y0021498D01*
X0432370Y0021654D01*
X0432349Y0021811D01*
X0432331Y0021968D01*
X0432317Y0022126D01*
X0432307Y0022284D01*
X0432301Y0022442D01*
X0432299Y0022600D01*
X0152299Y0187600D02*
X0152301Y0187758D01*
X0152307Y0187916D01*
X0152317Y0188074D01*
X0152331Y0188232D01*
X0152349Y0188389D01*
X0152370Y0188546D01*
X0152396Y0188702D01*
X0152426Y0188858D01*
X0152459Y0189013D01*
X0152497Y0189166D01*
X0152538Y0189319D01*
X0152583Y0189471D01*
X0152632Y0189622D01*
X0152685Y0189771D01*
X0152741Y0189919D01*
X0152801Y0190065D01*
X0152865Y0190210D01*
X0152933Y0190353D01*
X0153004Y0190495D01*
X0153078Y0190635D01*
X0153156Y0190772D01*
X0153238Y0190908D01*
X0153322Y0191042D01*
X0153411Y0191173D01*
X0153502Y0191302D01*
X0153597Y0191429D01*
X0153694Y0191554D01*
X0153795Y0191676D01*
X0153899Y0191795D01*
X0154006Y0191912D01*
X0154116Y0192026D01*
X0154229Y0192137D01*
X0154344Y0192246D01*
X0154462Y0192351D01*
X0154583Y0192453D01*
X0154706Y0192553D01*
X0154832Y0192649D01*
X0154960Y0192742D01*
X0155090Y0192832D01*
X0155223Y0192918D01*
X0155358Y0193002D01*
X0155494Y0193081D01*
X0155633Y0193158D01*
X0155774Y0193230D01*
X0155916Y0193300D01*
X0156060Y0193365D01*
X0156206Y0193427D01*
X0156353Y0193485D01*
X0156502Y0193540D01*
X0156652Y0193591D01*
X0156803Y0193638D01*
X0156955Y0193681D01*
X0157108Y0193720D01*
X0157263Y0193756D01*
X0157418Y0193787D01*
X0157574Y0193815D01*
X0157730Y0193839D01*
X0157887Y0193859D01*
X0158045Y0193875D01*
X0158202Y0193887D01*
X0158361Y0193895D01*
X0158519Y0193899D01*
X0158677Y0193899D01*
X0158835Y0193895D01*
X0158994Y0193887D01*
X0159151Y0193875D01*
X0159309Y0193859D01*
X0159466Y0193839D01*
X0159622Y0193815D01*
X0159778Y0193787D01*
X0159933Y0193756D01*
X0160088Y0193720D01*
X0160241Y0193681D01*
X0160393Y0193638D01*
X0160544Y0193591D01*
X0160694Y0193540D01*
X0160843Y0193485D01*
X0160990Y0193427D01*
X0161136Y0193365D01*
X0161280Y0193300D01*
X0161422Y0193230D01*
X0161563Y0193158D01*
X0161702Y0193081D01*
X0161838Y0193002D01*
X0161973Y0192918D01*
X0162106Y0192832D01*
X0162236Y0192742D01*
X0162364Y0192649D01*
X0162490Y0192553D01*
X0162613Y0192453D01*
X0162734Y0192351D01*
X0162852Y0192246D01*
X0162967Y0192137D01*
X0163080Y0192026D01*
X0163190Y0191912D01*
X0163297Y0191795D01*
X0163401Y0191676D01*
X0163502Y0191554D01*
X0163599Y0191429D01*
X0163694Y0191302D01*
X0163785Y0191173D01*
X0163874Y0191042D01*
X0163958Y0190908D01*
X0164040Y0190772D01*
X0164118Y0190635D01*
X0164192Y0190495D01*
X0164263Y0190353D01*
X0164331Y0190210D01*
X0164395Y0190065D01*
X0164455Y0189919D01*
X0164511Y0189771D01*
X0164564Y0189622D01*
X0164613Y0189471D01*
X0164658Y0189319D01*
X0164699Y0189166D01*
X0164737Y0189013D01*
X0164770Y0188858D01*
X0164800Y0188702D01*
X0164826Y0188546D01*
X0164847Y0188389D01*
X0164865Y0188232D01*
X0164879Y0188074D01*
X0164889Y0187916D01*
X0164895Y0187758D01*
X0164897Y0187600D01*
X0164895Y0187442D01*
X0164889Y0187284D01*
X0164879Y0187126D01*
X0164865Y0186968D01*
X0164847Y0186811D01*
X0164826Y0186654D01*
X0164800Y0186498D01*
X0164770Y0186342D01*
X0164737Y0186187D01*
X0164699Y0186034D01*
X0164658Y0185881D01*
X0164613Y0185729D01*
X0164564Y0185578D01*
X0164511Y0185429D01*
X0164455Y0185281D01*
X0164395Y0185135D01*
X0164331Y0184990D01*
X0164263Y0184847D01*
X0164192Y0184705D01*
X0164118Y0184565D01*
X0164040Y0184428D01*
X0163958Y0184292D01*
X0163874Y0184158D01*
X0163785Y0184027D01*
X0163694Y0183898D01*
X0163599Y0183771D01*
X0163502Y0183646D01*
X0163401Y0183524D01*
X0163297Y0183405D01*
X0163190Y0183288D01*
X0163080Y0183174D01*
X0162967Y0183063D01*
X0162852Y0182954D01*
X0162734Y0182849D01*
X0162613Y0182747D01*
X0162490Y0182647D01*
X0162364Y0182551D01*
X0162236Y0182458D01*
X0162106Y0182368D01*
X0161973Y0182282D01*
X0161838Y0182198D01*
X0161702Y0182119D01*
X0161563Y0182042D01*
X0161422Y0181970D01*
X0161280Y0181900D01*
X0161136Y0181835D01*
X0160990Y0181773D01*
X0160843Y0181715D01*
X0160694Y0181660D01*
X0160544Y0181609D01*
X0160393Y0181562D01*
X0160241Y0181519D01*
X0160088Y0181480D01*
X0159933Y0181444D01*
X0159778Y0181413D01*
X0159622Y0181385D01*
X0159466Y0181361D01*
X0159309Y0181341D01*
X0159151Y0181325D01*
X0158994Y0181313D01*
X0158835Y0181305D01*
X0158677Y0181301D01*
X0158519Y0181301D01*
X0158361Y0181305D01*
X0158202Y0181313D01*
X0158045Y0181325D01*
X0157887Y0181341D01*
X0157730Y0181361D01*
X0157574Y0181385D01*
X0157418Y0181413D01*
X0157263Y0181444D01*
X0157108Y0181480D01*
X0156955Y0181519D01*
X0156803Y0181562D01*
X0156652Y0181609D01*
X0156502Y0181660D01*
X0156353Y0181715D01*
X0156206Y0181773D01*
X0156060Y0181835D01*
X0155916Y0181900D01*
X0155774Y0181970D01*
X0155633Y0182042D01*
X0155494Y0182119D01*
X0155358Y0182198D01*
X0155223Y0182282D01*
X0155090Y0182368D01*
X0154960Y0182458D01*
X0154832Y0182551D01*
X0154706Y0182647D01*
X0154583Y0182747D01*
X0154462Y0182849D01*
X0154344Y0182954D01*
X0154229Y0183063D01*
X0154116Y0183174D01*
X0154006Y0183288D01*
X0153899Y0183405D01*
X0153795Y0183524D01*
X0153694Y0183646D01*
X0153597Y0183771D01*
X0153502Y0183898D01*
X0153411Y0184027D01*
X0153322Y0184158D01*
X0153238Y0184292D01*
X0153156Y0184428D01*
X0153078Y0184565D01*
X0153004Y0184705D01*
X0152933Y0184847D01*
X0152865Y0184990D01*
X0152801Y0185135D01*
X0152741Y0185281D01*
X0152685Y0185429D01*
X0152632Y0185578D01*
X0152583Y0185729D01*
X0152538Y0185881D01*
X0152497Y0186034D01*
X0152459Y0186187D01*
X0152426Y0186342D01*
X0152396Y0186498D01*
X0152370Y0186654D01*
X0152349Y0186811D01*
X0152331Y0186968D01*
X0152317Y0187126D01*
X0152307Y0187284D01*
X0152301Y0187442D01*
X0152299Y0187600D01*
M02*
