G75*
%MOIN*%
%OFA0B0*%
%FSLAX25Y25*%
%IPPOS*%
%LPD*%
%AMOC8*
5,1,8,0,0,1.08239X$1,22.5*
%
%ADD10C,0.00600*%
D10*
X0367900Y0137718D02*
X0367900Y0139186D01*
X0368634Y0139920D01*
X0368634Y0141588D02*
X0367900Y0142322D01*
X0367900Y0143790D01*
X0368634Y0144524D01*
X0370102Y0146192D02*
X0370102Y0149128D01*
X0370102Y0150796D02*
X0370102Y0152998D01*
X0369368Y0153732D01*
X0368634Y0153732D01*
X0367900Y0152998D01*
X0367900Y0150796D01*
X0372304Y0150796D01*
X0372304Y0152998D01*
X0371570Y0153732D01*
X0370836Y0153732D01*
X0370102Y0152998D01*
X0374900Y0152614D02*
X0374900Y0150412D01*
X0379304Y0150412D01*
X0377836Y0150412D02*
X0377836Y0152614D01*
X0377102Y0153348D01*
X0375634Y0153348D01*
X0374900Y0152614D01*
X0375634Y0155016D02*
X0377102Y0155016D01*
X0377836Y0155750D01*
X0377836Y0157218D01*
X0377102Y0157952D01*
X0376368Y0157952D01*
X0376368Y0155016D01*
X0375634Y0155016D02*
X0374900Y0155750D01*
X0374900Y0157218D01*
X0372304Y0158336D02*
X0371570Y0158336D01*
X0370102Y0156868D01*
X0367900Y0156868D01*
X0370102Y0156868D02*
X0371570Y0155400D01*
X0372304Y0155400D01*
X0374900Y0159620D02*
X0377836Y0159620D01*
X0376368Y0159620D02*
X0377836Y0161088D01*
X0377836Y0161822D01*
X0380432Y0160388D02*
X0384836Y0160388D01*
X0384836Y0162589D01*
X0384102Y0163323D01*
X0382634Y0163323D01*
X0381900Y0162589D01*
X0381900Y0160388D01*
X0381900Y0158719D02*
X0381900Y0156518D01*
X0382634Y0155784D01*
X0384836Y0155784D01*
X0384836Y0154182D02*
X0384836Y0152714D01*
X0385570Y0153448D02*
X0382634Y0153448D01*
X0381900Y0154182D01*
X0382634Y0151046D02*
X0384102Y0151046D01*
X0384836Y0150312D01*
X0384836Y0148844D01*
X0384102Y0148110D01*
X0382634Y0148110D01*
X0381900Y0148844D01*
X0381900Y0150312D01*
X0382634Y0151046D01*
X0388900Y0151914D02*
X0388900Y0154115D01*
X0388900Y0155784D02*
X0393304Y0155784D01*
X0391836Y0156518D02*
X0391836Y0157985D01*
X0391102Y0158719D01*
X0388900Y0158719D01*
X0388900Y0160387D02*
X0388900Y0161855D01*
X0388900Y0161121D02*
X0391836Y0161121D01*
X0391836Y0160387D01*
X0393304Y0161121D02*
X0394038Y0161121D01*
X0391836Y0163457D02*
X0388900Y0163457D01*
X0391836Y0163457D02*
X0391836Y0165659D01*
X0391102Y0166393D01*
X0388900Y0166393D01*
X0389634Y0168061D02*
X0391102Y0168061D01*
X0391836Y0168795D01*
X0391836Y0170263D01*
X0391102Y0170997D01*
X0390368Y0170997D01*
X0390368Y0168061D01*
X0389634Y0168061D02*
X0388900Y0168795D01*
X0388900Y0170263D01*
X0384836Y0174199D02*
X0386304Y0175667D01*
X0381900Y0175667D01*
X0381900Y0174199D02*
X0381900Y0177135D01*
X0379304Y0178736D02*
X0374900Y0178736D01*
X0374900Y0177269D02*
X0374900Y0180204D01*
X0375634Y0181872D02*
X0374900Y0182606D01*
X0374900Y0184074D01*
X0375634Y0184808D01*
X0377102Y0184808D01*
X0377836Y0184074D01*
X0377836Y0183340D01*
X0377102Y0181872D01*
X0379304Y0181872D01*
X0379304Y0184808D01*
X0379304Y0178736D02*
X0377836Y0177269D01*
X0378570Y0175600D02*
X0375634Y0172665D01*
X0374900Y0173399D01*
X0374900Y0174867D01*
X0375634Y0175600D01*
X0378570Y0175600D01*
X0379304Y0174867D01*
X0379304Y0173399D01*
X0378570Y0172665D01*
X0375634Y0172665D01*
X0374900Y0170997D02*
X0374900Y0168061D01*
X0377836Y0170997D01*
X0378570Y0170997D01*
X0379304Y0170263D01*
X0379304Y0168795D01*
X0378570Y0168061D01*
X0381900Y0167193D02*
X0381900Y0165725D01*
X0382634Y0164991D01*
X0384102Y0164991D01*
X0384836Y0165725D01*
X0384836Y0167193D01*
X0384102Y0167927D01*
X0383368Y0167927D01*
X0383368Y0164991D01*
X0372304Y0165342D02*
X0371570Y0164608D01*
X0370836Y0164608D01*
X0370102Y0165342D01*
X0370102Y0166810D01*
X0369368Y0167544D01*
X0368634Y0167544D01*
X0367900Y0166810D01*
X0367900Y0165342D01*
X0368634Y0164608D01*
X0370102Y0162940D02*
X0370102Y0160004D01*
X0372304Y0165342D02*
X0372304Y0166810D01*
X0371570Y0167544D01*
X0370836Y0169212D02*
X0367900Y0169212D01*
X0370102Y0169212D02*
X0370102Y0172148D01*
X0370836Y0172148D02*
X0367900Y0172148D01*
X0370836Y0172148D02*
X0372304Y0170680D01*
X0370836Y0169212D01*
X0388900Y0177269D02*
X0393304Y0177269D01*
X0393304Y0179470D01*
X0392570Y0180204D01*
X0391102Y0180204D01*
X0390368Y0179470D01*
X0390368Y0177269D01*
X0389634Y0181872D02*
X0390368Y0182606D01*
X0390368Y0184808D01*
X0391102Y0184808D02*
X0388900Y0184808D01*
X0388900Y0182606D01*
X0389634Y0181872D01*
X0391836Y0182606D02*
X0391836Y0184074D01*
X0391102Y0184808D01*
X0391836Y0186476D02*
X0388900Y0186476D01*
X0391836Y0186476D02*
X0391836Y0188678D01*
X0391102Y0189412D01*
X0388900Y0189412D01*
X0389634Y0191080D02*
X0391102Y0191080D01*
X0391836Y0191814D01*
X0391836Y0193282D01*
X0391102Y0194016D01*
X0390368Y0194016D01*
X0390368Y0191080D01*
X0389634Y0191080D02*
X0388900Y0191814D01*
X0388900Y0193282D01*
X0388900Y0195684D02*
X0388900Y0197152D01*
X0388900Y0196418D02*
X0393304Y0196418D01*
X0393304Y0195684D01*
X0402900Y0192615D02*
X0405836Y0192615D01*
X0404368Y0192615D02*
X0405836Y0194083D01*
X0405836Y0194817D01*
X0405102Y0190947D02*
X0402900Y0190947D01*
X0402900Y0188745D01*
X0403634Y0188011D01*
X0404368Y0188745D01*
X0404368Y0190947D01*
X0405102Y0190947D02*
X0405836Y0190213D01*
X0405836Y0188745D01*
X0407304Y0185676D02*
X0402900Y0185676D01*
X0402900Y0184942D02*
X0402900Y0186410D01*
X0402900Y0183274D02*
X0405836Y0183274D01*
X0407304Y0184942D02*
X0407304Y0185676D01*
X0402900Y0183274D02*
X0402900Y0181072D01*
X0403634Y0180338D01*
X0405836Y0180338D01*
X0405836Y0178670D02*
X0405836Y0176468D01*
X0405102Y0175734D01*
X0403634Y0175734D01*
X0402900Y0176468D01*
X0402900Y0178670D01*
X0407304Y0178670D01*
X0405102Y0174066D02*
X0405836Y0173332D01*
X0405836Y0171864D01*
X0405102Y0171130D01*
X0403634Y0171130D01*
X0402900Y0171864D01*
X0402900Y0173332D01*
X0403634Y0174066D01*
X0405102Y0174066D01*
X0407304Y0169462D02*
X0402900Y0169462D01*
X0402900Y0166526D02*
X0407304Y0166526D01*
X0405836Y0167994D01*
X0407304Y0169462D01*
X0405836Y0160254D02*
X0405836Y0158052D01*
X0405102Y0157318D01*
X0403634Y0157318D01*
X0402900Y0158052D01*
X0402900Y0160254D01*
X0402166Y0160254D02*
X0405836Y0160254D01*
X0402166Y0160254D02*
X0401432Y0159520D01*
X0401432Y0158786D01*
X0402900Y0155650D02*
X0405102Y0155650D01*
X0405836Y0154916D01*
X0405836Y0152714D01*
X0402900Y0152714D01*
X0402900Y0151113D02*
X0402900Y0149645D01*
X0402900Y0150379D02*
X0405836Y0150379D01*
X0405836Y0149645D01*
X0407304Y0150379D02*
X0408038Y0150379D01*
X0405102Y0147977D02*
X0402900Y0147977D01*
X0405102Y0147977D02*
X0405836Y0147243D01*
X0405836Y0145775D01*
X0405102Y0145041D01*
X0407304Y0145041D02*
X0402900Y0145041D01*
X0407304Y0143373D02*
X0407304Y0140437D01*
X0407304Y0141905D02*
X0402900Y0141905D01*
X0393304Y0141972D02*
X0391836Y0143440D01*
X0393304Y0144908D01*
X0388900Y0144908D01*
X0389634Y0146576D02*
X0390368Y0147310D01*
X0390368Y0149512D01*
X0391102Y0149512D02*
X0388900Y0149512D01*
X0388900Y0147310D01*
X0389634Y0146576D01*
X0391836Y0147310D02*
X0391836Y0148778D01*
X0391102Y0149512D01*
X0391102Y0151180D02*
X0389634Y0151180D01*
X0388900Y0151914D01*
X0391102Y0151180D02*
X0391836Y0151914D01*
X0391836Y0154115D01*
X0391102Y0155784D02*
X0391836Y0156518D01*
X0384836Y0158719D02*
X0381166Y0158719D01*
X0380432Y0157985D01*
X0380432Y0157252D01*
X0377102Y0148744D02*
X0374900Y0148744D01*
X0374900Y0147276D02*
X0377102Y0147276D01*
X0377836Y0148010D01*
X0377102Y0148744D01*
X0377102Y0147276D02*
X0377836Y0146542D01*
X0377836Y0145808D01*
X0374900Y0145808D01*
X0376368Y0144140D02*
X0376368Y0141204D01*
X0377102Y0141204D02*
X0377836Y0141938D01*
X0377836Y0143406D01*
X0377102Y0144140D01*
X0376368Y0144140D01*
X0374900Y0143406D02*
X0374900Y0141938D01*
X0375634Y0141204D01*
X0377102Y0141204D01*
X0377836Y0139603D02*
X0377836Y0138135D01*
X0378570Y0138869D02*
X0375634Y0138869D01*
X0374900Y0139603D01*
X0372304Y0139186D02*
X0372304Y0137718D01*
X0371570Y0136984D01*
X0368634Y0136984D01*
X0367900Y0137718D01*
X0371570Y0139920D02*
X0372304Y0139186D01*
X0371570Y0141588D02*
X0368634Y0141588D01*
X0371570Y0141588D02*
X0372304Y0142322D01*
X0372304Y0143790D01*
X0371570Y0144524D01*
X0381900Y0142639D02*
X0381900Y0141171D01*
X0382634Y0140437D01*
X0384102Y0140437D01*
X0384836Y0141171D01*
X0384836Y0142639D01*
X0384102Y0143373D01*
X0382634Y0143373D01*
X0381900Y0142639D01*
X0382634Y0145775D02*
X0381900Y0146509D01*
X0382634Y0145775D02*
X0385570Y0145775D01*
X0384836Y0145041D02*
X0384836Y0146509D01*
X0388900Y0141972D02*
X0393304Y0141972D01*
X0384836Y0138802D02*
X0384836Y0138069D01*
X0383368Y0136601D01*
X0381900Y0136601D02*
X0384836Y0136601D01*
X0385570Y0134933D02*
X0384102Y0134933D01*
X0383368Y0134199D01*
X0383368Y0131997D01*
X0381900Y0131997D02*
X0386304Y0131997D01*
X0386304Y0134199D01*
X0385570Y0134933D01*
X0387432Y0134966D02*
X0388166Y0135700D01*
X0391836Y0135700D01*
X0391836Y0133498D01*
X0391102Y0132764D01*
X0389634Y0132764D01*
X0388900Y0133498D01*
X0388900Y0135700D01*
X0387432Y0134966D02*
X0387432Y0134232D01*
X0388900Y0131096D02*
X0391102Y0131096D01*
X0391836Y0130362D01*
X0391836Y0128160D01*
X0388900Y0128160D01*
X0388900Y0126559D02*
X0388900Y0125091D01*
X0388900Y0125825D02*
X0391836Y0125825D01*
X0391836Y0125091D01*
X0391836Y0123456D02*
X0391836Y0122722D01*
X0390368Y0121254D01*
X0388900Y0121254D02*
X0391836Y0121254D01*
X0391836Y0119586D02*
X0388900Y0119586D01*
X0388900Y0117384D01*
X0389634Y0116650D01*
X0391836Y0116650D01*
X0393304Y0114982D02*
X0393304Y0112046D01*
X0393304Y0113514D02*
X0388900Y0113514D01*
X0402900Y0114348D02*
X0407304Y0114348D01*
X0405836Y0115816D01*
X0407304Y0117284D01*
X0402900Y0117284D01*
X0403634Y0118952D02*
X0402900Y0119686D01*
X0402900Y0121888D01*
X0405836Y0121888D01*
X0405102Y0123556D02*
X0405836Y0124290D01*
X0405836Y0126492D01*
X0404368Y0125758D02*
X0404368Y0124290D01*
X0405102Y0123556D01*
X0402900Y0123556D02*
X0402900Y0125758D01*
X0403634Y0126492D01*
X0404368Y0125758D01*
X0405836Y0128160D02*
X0405836Y0128894D01*
X0402900Y0128894D01*
X0402900Y0128160D02*
X0402900Y0129628D01*
X0403634Y0131229D02*
X0402900Y0131963D01*
X0402900Y0134165D01*
X0405836Y0134165D02*
X0405836Y0131963D01*
X0405102Y0131229D01*
X0403634Y0131229D01*
X0407304Y0128894D02*
X0408038Y0128894D01*
X0394038Y0125825D02*
X0393304Y0125825D01*
X0379304Y0126525D02*
X0379304Y0125057D01*
X0378570Y0124323D01*
X0377836Y0124323D01*
X0377102Y0125057D01*
X0377102Y0126525D01*
X0376368Y0127259D01*
X0375634Y0127259D01*
X0374900Y0126525D01*
X0374900Y0125057D01*
X0375634Y0124323D01*
X0378570Y0127259D02*
X0379304Y0126525D01*
X0377102Y0128927D02*
X0377836Y0129661D01*
X0377836Y0131129D01*
X0377102Y0131863D01*
X0376368Y0131863D01*
X0376368Y0128927D01*
X0375634Y0128927D02*
X0377102Y0128927D01*
X0375634Y0128927D02*
X0374900Y0129661D01*
X0374900Y0131129D01*
X0374900Y0133531D02*
X0374900Y0135733D01*
X0375634Y0136467D01*
X0377102Y0136467D01*
X0377836Y0135733D01*
X0377836Y0133531D01*
X0373432Y0133531D01*
X0403634Y0118952D02*
X0405836Y0118952D01*
M02*
