G75*
%MOIN*%
%OFA0B0*%
%FSLAX25Y25*%
%IPPOS*%
%LPD*%
%AMOC8*
5,1,8,0,0,1.08239X$1,22.5*
%
%ADD10C,0.39827*%
%ADD11C,0.27622*%
%ADD12C,0.31953*%
%ADD13C,0.31559*%
%ADD14C,0.03200*%
D10*
X0229923Y0157069D03*
D11*
X0074923Y0182069D03*
X0074923Y0132069D03*
X0074923Y0082069D03*
X0132423Y0082069D03*
X0074923Y0032069D03*
D12*
X0354923Y0107069D03*
D13*
X0244923Y0034569D03*
D14*
X0010200Y0010200D02*
X0010200Y0203819D01*
X0510906Y0203819D01*
X0510906Y0010200D01*
X0010200Y0010200D01*
X0010200Y0010799D02*
X0510906Y0010799D01*
X0510906Y0013997D02*
X0470658Y0013997D01*
X0471300Y0014639D02*
X0472625Y0017837D01*
X0472625Y0021300D01*
X0471300Y0024498D01*
X0468852Y0026946D01*
X0465654Y0028271D01*
X0462192Y0028271D01*
X0458993Y0026946D01*
X0456545Y0024498D01*
X0455220Y0021300D01*
X0455220Y0017837D01*
X0456545Y0014639D01*
X0458993Y0012191D01*
X0462192Y0010866D01*
X0465654Y0010866D01*
X0468852Y0012191D01*
X0471300Y0014639D01*
X0472359Y0017196D02*
X0510906Y0017196D01*
X0510906Y0020394D02*
X0472625Y0020394D01*
X0471675Y0023593D02*
X0498822Y0023593D01*
X0498602Y0023631D02*
X0501694Y0023086D01*
X0501694Y0023086D01*
X0504787Y0023631D01*
X0507506Y0025201D01*
X0509525Y0027607D01*
X0510599Y0030557D01*
X0510599Y0031609D01*
X0510599Y0031609D01*
X0510599Y0042646D01*
X0510599Y0043698D01*
X0509525Y0046648D01*
X0507506Y0049054D01*
X0504787Y0050624D01*
X0504787Y0050624D01*
X0501694Y0051169D01*
X0498602Y0050624D01*
X0495883Y0049054D01*
X0495883Y0049054D01*
X0493864Y0046648D01*
X0492790Y0043698D01*
X0492790Y0042646D01*
X0492790Y0042646D01*
X0492790Y0031609D01*
X0492790Y0030557D01*
X0493864Y0027607D01*
X0493864Y0027607D01*
X0495883Y0025201D01*
X0498602Y0023631D01*
X0498602Y0023631D01*
X0495883Y0025201D02*
X0495883Y0025201D01*
X0495883Y0025201D01*
X0494549Y0026791D02*
X0469007Y0026791D01*
X0458838Y0026791D02*
X0154573Y0026791D01*
X0155370Y0028170D02*
X0153187Y0024390D01*
X0150101Y0021304D01*
X0146321Y0019122D01*
X0142105Y0017992D01*
X0137741Y0017992D01*
X0133525Y0019122D01*
X0129745Y0021304D01*
X0126658Y0024390D01*
X0124476Y0028170D01*
X0123346Y0032386D01*
X0123346Y0036751D01*
X0124476Y0040967D01*
X0126658Y0044747D01*
X0129745Y0047833D01*
X0133525Y0050015D01*
X0137741Y0051145D01*
X0142105Y0051145D01*
X0146321Y0050015D01*
X0150101Y0047833D01*
X0153187Y0044747D01*
X0155370Y0040967D01*
X0156499Y0036751D01*
X0156499Y0032386D01*
X0155370Y0028170D01*
X0155857Y0029990D02*
X0492997Y0029990D01*
X0492790Y0031609D02*
X0492790Y0031609D01*
X0492790Y0033188D02*
X0156499Y0033188D01*
X0156499Y0036387D02*
X0460935Y0036387D01*
X0462192Y0035866D02*
X0465654Y0035866D01*
X0468852Y0037191D01*
X0471300Y0039639D01*
X0472625Y0042837D01*
X0472625Y0046300D01*
X0471300Y0049498D01*
X0468852Y0051946D01*
X0465654Y0053271D01*
X0462192Y0053271D01*
X0458993Y0051946D01*
X0456545Y0049498D01*
X0455220Y0046300D01*
X0455220Y0042837D01*
X0456545Y0039639D01*
X0458993Y0037191D01*
X0462192Y0035866D01*
X0466910Y0036387D02*
X0492790Y0036387D01*
X0492790Y0039585D02*
X0471246Y0039585D01*
X0472603Y0042784D02*
X0492790Y0042784D01*
X0493622Y0045982D02*
X0472625Y0045982D01*
X0471432Y0049181D02*
X0496102Y0049181D01*
X0498602Y0050624D02*
X0498602Y0050624D01*
X0501694Y0051169D02*
X0501694Y0051169D01*
X0507287Y0049181D02*
X0510906Y0049181D01*
X0510906Y0052379D02*
X0467807Y0052379D01*
X0460039Y0052379D02*
X0010200Y0052379D01*
X0010200Y0049181D02*
X0013819Y0049181D01*
X0013599Y0049054D02*
X0013599Y0049054D01*
X0011581Y0046648D01*
X0010507Y0043698D01*
X0010507Y0042646D01*
X0010507Y0042646D01*
X0010507Y0031609D01*
X0010507Y0030557D01*
X0011581Y0027607D01*
X0011581Y0027607D01*
X0013599Y0025201D01*
X0016319Y0023631D01*
X0019411Y0023086D01*
X0019411Y0023086D01*
X0022503Y0023631D01*
X0025223Y0025201D01*
X0027241Y0027607D01*
X0028315Y0030557D01*
X0028315Y0031609D01*
X0028315Y0031609D01*
X0028315Y0042646D01*
X0028315Y0043698D01*
X0027241Y0046648D01*
X0025223Y0049054D01*
X0022503Y0050624D01*
X0019411Y0051169D01*
X0016319Y0050624D01*
X0016319Y0050624D01*
X0013599Y0049054D01*
X0019411Y0051169D02*
X0019411Y0051169D01*
X0022503Y0050624D02*
X0022503Y0050624D01*
X0025003Y0049181D02*
X0132079Y0049181D01*
X0127894Y0045982D02*
X0027484Y0045982D01*
X0028315Y0042784D02*
X0125525Y0042784D01*
X0124106Y0039585D02*
X0028315Y0039585D01*
X0028315Y0036387D02*
X0123346Y0036387D01*
X0123346Y0033188D02*
X0028315Y0033188D01*
X0028109Y0029990D02*
X0123989Y0029990D01*
X0125272Y0026791D02*
X0026557Y0026791D01*
X0027241Y0027607D02*
X0027241Y0027607D01*
X0025223Y0025201D02*
X0025223Y0025201D01*
X0022503Y0023631D02*
X0022503Y0023631D01*
X0022284Y0023593D02*
X0127456Y0023593D01*
X0131321Y0020394D02*
X0010200Y0020394D01*
X0010200Y0017196D02*
X0455486Y0017196D01*
X0455220Y0020394D02*
X0148525Y0020394D01*
X0152389Y0023593D02*
X0456170Y0023593D01*
X0457187Y0013997D02*
X0010200Y0013997D01*
X0010200Y0023593D02*
X0016538Y0023593D01*
X0016319Y0023631D02*
X0016319Y0023631D01*
X0013599Y0025201D02*
X0013599Y0025201D01*
X0013599Y0025201D01*
X0012265Y0026791D02*
X0010200Y0026791D01*
X0010200Y0029990D02*
X0010714Y0029990D01*
X0010507Y0031609D02*
X0010507Y0031609D01*
X0010507Y0033188D02*
X0010200Y0033188D01*
X0010200Y0036387D02*
X0010507Y0036387D01*
X0010507Y0039585D02*
X0010200Y0039585D01*
X0010200Y0042784D02*
X0010507Y0042784D01*
X0010200Y0045982D02*
X0011338Y0045982D01*
X0011581Y0046648D02*
X0011581Y0046648D01*
X0025223Y0049054D02*
X0025223Y0049054D01*
X0025223Y0049054D01*
X0028315Y0042646D02*
X0028315Y0042646D01*
X0010200Y0055578D02*
X0510906Y0055578D01*
X0510906Y0058776D02*
X0010200Y0058776D01*
X0010200Y0061975D02*
X0459516Y0061975D01*
X0458993Y0062191D02*
X0456545Y0064639D01*
X0455220Y0067837D01*
X0455220Y0071300D01*
X0456545Y0074498D01*
X0458993Y0076946D01*
X0462192Y0078271D01*
X0465654Y0078271D01*
X0468852Y0076946D01*
X0471300Y0074498D01*
X0472625Y0071300D01*
X0472625Y0067837D01*
X0471300Y0064639D01*
X0468852Y0062191D01*
X0465654Y0060866D01*
X0462192Y0060866D01*
X0458993Y0062191D01*
X0456324Y0065173D02*
X0010200Y0065173D01*
X0010200Y0068372D02*
X0455220Y0068372D01*
X0455333Y0071570D02*
X0010200Y0071570D01*
X0010200Y0074769D02*
X0456816Y0074769D01*
X0461459Y0077967D02*
X0010200Y0077967D01*
X0010200Y0081166D02*
X0510906Y0081166D01*
X0510906Y0084364D02*
X0010200Y0084364D01*
X0010200Y0087563D02*
X0154622Y0087563D01*
X0154993Y0087191D02*
X0152545Y0089639D01*
X0151220Y0092837D01*
X0151220Y0096300D01*
X0152545Y0099498D01*
X0154993Y0101946D01*
X0158192Y0103271D01*
X0161654Y0103271D01*
X0164852Y0101946D01*
X0167300Y0099498D01*
X0168625Y0096300D01*
X0168625Y0092837D01*
X0167300Y0089639D01*
X0164852Y0087191D01*
X0161654Y0085866D01*
X0158192Y0085866D01*
X0154993Y0087191D01*
X0152080Y0090761D02*
X0010200Y0090761D01*
X0010200Y0093960D02*
X0151220Y0093960D01*
X0151576Y0097158D02*
X0010200Y0097158D01*
X0010200Y0100357D02*
X0153404Y0100357D01*
X0166441Y0100357D02*
X0457404Y0100357D01*
X0456545Y0099498D02*
X0458993Y0101946D01*
X0462192Y0103271D01*
X0465654Y0103271D01*
X0468852Y0101946D01*
X0471300Y0099498D01*
X0472625Y0096300D01*
X0472625Y0092837D01*
X0471300Y0089639D01*
X0468852Y0087191D01*
X0465654Y0085866D01*
X0462192Y0085866D01*
X0458993Y0087191D01*
X0456545Y0089639D01*
X0455220Y0092837D01*
X0455220Y0096300D01*
X0456545Y0099498D01*
X0455576Y0097158D02*
X0168269Y0097158D01*
X0168625Y0093960D02*
X0455220Y0093960D01*
X0456080Y0090761D02*
X0167765Y0090761D01*
X0165224Y0087563D02*
X0458622Y0087563D01*
X0469224Y0087563D02*
X0510906Y0087563D01*
X0510906Y0090761D02*
X0471765Y0090761D01*
X0472625Y0093960D02*
X0510906Y0093960D01*
X0510906Y0097158D02*
X0472269Y0097158D01*
X0470441Y0100357D02*
X0510906Y0100357D01*
X0510906Y0103555D02*
X0010200Y0103555D01*
X0010200Y0106754D02*
X0510906Y0106754D01*
X0510906Y0109952D02*
X0010200Y0109952D01*
X0010200Y0113151D02*
X0458033Y0113151D01*
X0458993Y0112191D02*
X0456545Y0114639D01*
X0455220Y0117837D01*
X0455220Y0121300D01*
X0456545Y0124498D01*
X0458993Y0126946D01*
X0462192Y0128271D01*
X0465654Y0128271D01*
X0468852Y0126946D01*
X0471300Y0124498D01*
X0472625Y0121300D01*
X0472625Y0117837D01*
X0471300Y0114639D01*
X0468852Y0112191D01*
X0465654Y0110866D01*
X0462192Y0110866D01*
X0458993Y0112191D01*
X0455837Y0116349D02*
X0010200Y0116349D01*
X0010200Y0119548D02*
X0455220Y0119548D01*
X0455820Y0122746D02*
X0010200Y0122746D01*
X0010200Y0125945D02*
X0457992Y0125945D01*
X0469853Y0125945D02*
X0510906Y0125945D01*
X0510906Y0129143D02*
X0010200Y0129143D01*
X0010200Y0132342D02*
X0510906Y0132342D01*
X0510906Y0135540D02*
X0010200Y0135540D01*
X0010200Y0138739D02*
X0457445Y0138739D01*
X0456545Y0139639D02*
X0458993Y0137191D01*
X0462192Y0135866D01*
X0465654Y0135866D01*
X0468852Y0137191D01*
X0471300Y0139639D01*
X0472625Y0142837D01*
X0472625Y0146300D01*
X0471300Y0149498D01*
X0468852Y0151946D01*
X0465654Y0153271D01*
X0462192Y0153271D01*
X0458993Y0151946D01*
X0456545Y0149498D01*
X0455220Y0146300D01*
X0455220Y0142837D01*
X0456545Y0139639D01*
X0455593Y0141937D02*
X0010200Y0141937D01*
X0010200Y0145136D02*
X0455220Y0145136D01*
X0456063Y0148334D02*
X0010200Y0148334D01*
X0010200Y0151533D02*
X0458580Y0151533D01*
X0469265Y0151533D02*
X0510906Y0151533D01*
X0510906Y0154732D02*
X0010200Y0154732D01*
X0010200Y0157930D02*
X0510906Y0157930D01*
X0510906Y0161129D02*
X0466287Y0161129D01*
X0465654Y0160866D02*
X0468852Y0162191D01*
X0471300Y0164639D01*
X0472625Y0167837D01*
X0472625Y0171300D01*
X0471300Y0174498D01*
X0468852Y0176946D01*
X0465654Y0178271D01*
X0462192Y0178271D01*
X0458993Y0176946D01*
X0456545Y0174498D01*
X0455220Y0171300D01*
X0455220Y0167837D01*
X0456545Y0164639D01*
X0458993Y0162191D01*
X0462192Y0160866D01*
X0465654Y0160866D01*
X0461558Y0161129D02*
X0010200Y0161129D01*
X0010200Y0164327D02*
X0014704Y0164327D01*
X0013599Y0164965D02*
X0016319Y0163395D01*
X0019411Y0162850D01*
X0022503Y0163395D01*
X0022503Y0163395D01*
X0025223Y0164965D01*
X0027241Y0167371D01*
X0027241Y0167371D01*
X0028315Y0170321D01*
X0028315Y0171373D01*
X0028315Y0171373D01*
X0028315Y0182409D01*
X0028315Y0182410D01*
X0028315Y0183461D01*
X0027241Y0186412D01*
X0027241Y0186412D01*
X0025223Y0188818D01*
X0025223Y0188818D01*
X0025223Y0188818D01*
X0022503Y0190388D01*
X0019411Y0190933D01*
X0016319Y0190388D01*
X0013599Y0188818D01*
X0011581Y0186412D01*
X0010507Y0183461D01*
X0010507Y0182410D01*
X0010507Y0182409D01*
X0010507Y0171373D01*
X0010507Y0170321D01*
X0011581Y0167371D01*
X0011581Y0167371D01*
X0013599Y0164965D01*
X0013599Y0164965D01*
X0013599Y0164965D01*
X0016319Y0163395D02*
X0016319Y0163395D01*
X0019411Y0162850D02*
X0019411Y0162850D01*
X0024118Y0164327D02*
X0456857Y0164327D01*
X0455350Y0167526D02*
X0027298Y0167526D01*
X0025223Y0164965D02*
X0025223Y0164965D01*
X0011524Y0167526D02*
X0010200Y0167526D01*
X0010200Y0170724D02*
X0010507Y0170724D01*
X0010507Y0171373D02*
X0010507Y0171373D01*
X0010507Y0173923D02*
X0010200Y0173923D01*
X0010200Y0177121D02*
X0010507Y0177121D01*
X0010507Y0180320D02*
X0010200Y0180320D01*
X0010200Y0183518D02*
X0010527Y0183518D01*
X0011581Y0186412D02*
X0011581Y0186412D01*
X0011836Y0186717D02*
X0010200Y0186717D01*
X0013599Y0188818D02*
X0013599Y0188818D01*
X0015500Y0189915D02*
X0010200Y0189915D01*
X0010200Y0193114D02*
X0093720Y0193114D01*
X0093720Y0192837D02*
X0095045Y0189639D01*
X0097493Y0187191D01*
X0100692Y0185866D01*
X0104154Y0185866D01*
X0107352Y0187191D01*
X0109800Y0189639D01*
X0111125Y0192837D01*
X0111125Y0196300D01*
X0109800Y0199498D01*
X0107352Y0201946D01*
X0104154Y0203271D01*
X0100692Y0203271D01*
X0097493Y0201946D01*
X0095045Y0199498D01*
X0093720Y0196300D01*
X0093720Y0192837D01*
X0094931Y0189915D02*
X0023322Y0189915D01*
X0022503Y0190388D02*
X0022503Y0190388D01*
X0019411Y0190933D02*
X0019411Y0190933D01*
X0016319Y0190388D02*
X0016319Y0190388D01*
X0026986Y0186717D02*
X0098639Y0186717D01*
X0106207Y0186717D02*
X0460139Y0186717D01*
X0458993Y0187191D02*
X0462192Y0185866D01*
X0465654Y0185866D01*
X0468852Y0187191D01*
X0471300Y0189639D01*
X0472625Y0192837D01*
X0472625Y0196300D01*
X0471300Y0199498D01*
X0468852Y0201946D01*
X0465654Y0203271D01*
X0462192Y0203271D01*
X0458993Y0201946D01*
X0456545Y0199498D01*
X0455220Y0196300D01*
X0455220Y0192837D01*
X0456545Y0189639D01*
X0458993Y0187191D01*
X0456431Y0189915D02*
X0109915Y0189915D01*
X0111125Y0193114D02*
X0455220Y0193114D01*
X0455226Y0196312D02*
X0111120Y0196312D01*
X0109788Y0199511D02*
X0456558Y0199511D01*
X0460836Y0202709D02*
X0105510Y0202709D01*
X0099336Y0202709D02*
X0010200Y0202709D01*
X0010200Y0199511D02*
X0095058Y0199511D01*
X0093726Y0196312D02*
X0010200Y0196312D01*
X0028295Y0183518D02*
X0492811Y0183518D01*
X0492790Y0183461D02*
X0492790Y0182410D01*
X0492790Y0182409D01*
X0492790Y0171373D01*
X0492790Y0170321D01*
X0493864Y0167371D01*
X0493864Y0167371D01*
X0495883Y0164965D01*
X0498602Y0163395D01*
X0498602Y0163395D01*
X0501694Y0162850D01*
X0504787Y0163395D01*
X0507506Y0164965D01*
X0509525Y0167371D01*
X0510599Y0170321D01*
X0510599Y0171373D01*
X0510599Y0171373D01*
X0510599Y0182409D01*
X0510599Y0182410D01*
X0510599Y0183461D01*
X0509525Y0186412D01*
X0509525Y0186412D01*
X0507506Y0188818D01*
X0504787Y0190388D01*
X0501694Y0190933D01*
X0498602Y0190388D01*
X0495883Y0188818D01*
X0493864Y0186412D01*
X0492790Y0183461D01*
X0493864Y0186412D02*
X0493864Y0186412D01*
X0494120Y0186717D02*
X0467707Y0186717D01*
X0471415Y0189915D02*
X0497784Y0189915D01*
X0498602Y0190388D02*
X0498602Y0190388D01*
X0501694Y0190933D02*
X0501694Y0190933D01*
X0504787Y0190388D02*
X0504787Y0190388D01*
X0505605Y0189915D02*
X0510906Y0189915D01*
X0510906Y0193114D02*
X0472625Y0193114D01*
X0472620Y0196312D02*
X0510906Y0196312D01*
X0510906Y0199511D02*
X0471288Y0199511D01*
X0467010Y0202709D02*
X0510906Y0202709D01*
X0507506Y0188818D02*
X0507506Y0188818D01*
X0507506Y0188818D01*
X0509269Y0186717D02*
X0510906Y0186717D01*
X0510906Y0183518D02*
X0510578Y0183518D01*
X0510599Y0180320D02*
X0510906Y0180320D01*
X0510906Y0177121D02*
X0510599Y0177121D01*
X0510599Y0173923D02*
X0510906Y0173923D01*
X0510906Y0170724D02*
X0510599Y0170724D01*
X0510906Y0167526D02*
X0509581Y0167526D01*
X0509525Y0167371D02*
X0509525Y0167371D01*
X0510906Y0164327D02*
X0506401Y0164327D01*
X0501694Y0162850D02*
X0501694Y0162850D01*
X0496988Y0164327D02*
X0470988Y0164327D01*
X0472496Y0167526D02*
X0493808Y0167526D01*
X0495883Y0164965D02*
X0495883Y0164965D01*
X0495883Y0164965D01*
X0492790Y0170724D02*
X0472625Y0170724D01*
X0471539Y0173923D02*
X0492790Y0173923D01*
X0492790Y0171373D02*
X0492790Y0171373D01*
X0492790Y0177121D02*
X0468430Y0177121D01*
X0459416Y0177121D02*
X0028315Y0177121D01*
X0028315Y0180320D02*
X0492790Y0180320D01*
X0495883Y0188818D02*
X0495883Y0188818D01*
X0456307Y0173923D02*
X0028315Y0173923D01*
X0028315Y0170724D02*
X0455220Y0170724D01*
X0471782Y0148334D02*
X0510906Y0148334D01*
X0510906Y0145136D02*
X0472625Y0145136D01*
X0472252Y0141937D02*
X0510906Y0141937D01*
X0510906Y0138739D02*
X0470400Y0138739D01*
X0472026Y0122746D02*
X0510906Y0122746D01*
X0510906Y0119548D02*
X0472625Y0119548D01*
X0472009Y0116349D02*
X0510906Y0116349D01*
X0510906Y0113151D02*
X0469812Y0113151D01*
X0466387Y0077967D02*
X0510906Y0077967D01*
X0510906Y0074769D02*
X0471030Y0074769D01*
X0472513Y0071570D02*
X0510906Y0071570D01*
X0510906Y0068372D02*
X0472625Y0068372D01*
X0471522Y0065173D02*
X0510906Y0065173D01*
X0510906Y0061975D02*
X0468330Y0061975D01*
X0456414Y0049181D02*
X0147767Y0049181D01*
X0151952Y0045982D02*
X0455220Y0045982D01*
X0455243Y0042784D02*
X0154321Y0042784D01*
X0155740Y0039585D02*
X0456599Y0039585D01*
X0493864Y0046648D02*
X0493864Y0046648D01*
X0507506Y0049054D02*
X0507506Y0049054D01*
X0507506Y0049054D01*
X0509525Y0046648D02*
X0509525Y0046648D01*
X0509767Y0045982D02*
X0510906Y0045982D01*
X0510906Y0042784D02*
X0510599Y0042784D01*
X0510599Y0042646D02*
X0510599Y0042646D01*
X0510599Y0039585D02*
X0510906Y0039585D01*
X0510906Y0036387D02*
X0510599Y0036387D01*
X0510599Y0033188D02*
X0510906Y0033188D01*
X0510906Y0029990D02*
X0510392Y0029990D01*
X0509525Y0027607D02*
X0509525Y0027607D01*
X0508840Y0026791D02*
X0510906Y0026791D01*
X0510906Y0023593D02*
X0504567Y0023593D01*
X0504787Y0023631D02*
X0504787Y0023631D01*
X0507506Y0025201D02*
X0507506Y0025201D01*
M02*
