G75*
%MOIN*%
%OFA0B0*%
%FSLAX25Y25*%
%IPPOS*%
%LPD*%
%AMOC8*
5,1,8,0,0,1.08239X$1,22.5*
%
%ADD10C,0.06496*%
%ADD11OC8,0.04800*%
%ADD12R,0.04800X0.04800*%
%ADD13C,0.04800*%
%ADD14C,0.04800*%
%ADD15C,0.12661*%
%ADD16OC8,0.06600*%
%ADD17OC8,0.05315*%
%ADD18R,0.06496X0.06496*%
%ADD19OC8,0.06496*%
%ADD20R,0.12268X0.12268*%
%ADD21C,0.06000*%
%ADD22OC8,0.06000*%
%ADD23C,0.04000*%
%ADD24C,0.03200*%
%ADD25C,0.03562*%
%ADD26C,0.01600*%
%ADD27C,0.01000*%
%ADD28C,0.02500*%
D10*
X0068913Y0030100D03*
X0102378Y0030100D03*
X0114189Y0030100D03*
X0114189Y0080100D03*
X0126413Y0080100D03*
X0102378Y0080100D03*
X0068913Y0080100D03*
X0159878Y0080100D03*
X0171689Y0080100D03*
X0114189Y0130100D03*
X0102378Y0130100D03*
X0068913Y0130100D03*
X0068913Y0180100D03*
X0102378Y0180100D03*
X0114189Y0180100D03*
D11*
X0113598Y0170100D03*
X0133598Y0170100D03*
X0143598Y0170100D03*
X0153598Y0160100D03*
X0163598Y0160100D03*
X0173598Y0167600D03*
X0183598Y0167600D03*
X0193598Y0167600D03*
X0203598Y0167600D03*
X0163598Y0140100D03*
X0153598Y0140100D03*
X0143598Y0140100D03*
X0133598Y0140100D03*
X0113598Y0140100D03*
X0101098Y0155100D03*
X0071098Y0155100D03*
X0111098Y0192600D03*
X0173598Y0137600D03*
X0183598Y0137600D03*
X0193598Y0137600D03*
X0203598Y0137600D03*
X0158598Y0105100D03*
X0168598Y0092600D03*
X0186098Y0082600D03*
X0196098Y0082600D03*
X0208598Y0077600D03*
X0223598Y0080100D03*
X0233598Y0080100D03*
X0246098Y0082600D03*
X0258598Y0077600D03*
X0271098Y0082600D03*
X0286098Y0077600D03*
X0298598Y0082600D03*
X0308598Y0082600D03*
X0318598Y0077600D03*
X0328598Y0077600D03*
X0338598Y0077600D03*
X0348598Y0077600D03*
X0386098Y0075100D03*
X0416098Y0075100D03*
X0433598Y0075100D03*
X0433598Y0065100D03*
X0416098Y0060100D03*
X0433598Y0055100D03*
X0433598Y0045100D03*
X0416098Y0045100D03*
X0386098Y0045100D03*
X0371098Y0037600D03*
X0363598Y0032600D03*
X0386098Y0030100D03*
X0416098Y0030100D03*
X0463598Y0045100D03*
X0477598Y0047600D03*
X0463598Y0055100D03*
X0463598Y0065100D03*
X0477598Y0072600D03*
X0463598Y0075100D03*
X0477598Y0097600D03*
X0477598Y0122600D03*
X0477598Y0147600D03*
X0461098Y0170100D03*
X0448598Y0175100D03*
X0477598Y0172600D03*
X0461098Y0190100D03*
X0448598Y0195100D03*
X0477598Y0197600D03*
X0228598Y0087600D03*
X0208598Y0057600D03*
X0196098Y0052600D03*
X0186098Y0052600D03*
X0226098Y0042600D03*
X0246098Y0052600D03*
X0258598Y0057600D03*
X0271098Y0052600D03*
X0286098Y0057600D03*
X0298598Y0052600D03*
X0308598Y0052600D03*
X0318598Y0057600D03*
X0328598Y0057600D03*
X0338598Y0057600D03*
X0348598Y0057600D03*
X0348598Y0042600D03*
X0338598Y0042600D03*
X0328598Y0042600D03*
X0318598Y0042600D03*
X0308598Y0042600D03*
X0298598Y0042600D03*
X0363598Y0042600D03*
X0386098Y0060100D03*
X0477598Y0022600D03*
X0348598Y0012600D03*
X0338598Y0012600D03*
X0328598Y0012600D03*
X0318598Y0012600D03*
X0308598Y0012600D03*
X0298598Y0012600D03*
X0226098Y0022600D03*
X0101098Y0055100D03*
X0071098Y0055100D03*
X0071098Y0105100D03*
X0101098Y0105100D03*
X0128598Y0105100D03*
D12*
X0178598Y0092600D03*
X0123598Y0140100D03*
X0121098Y0192600D03*
X0477598Y0187600D03*
X0477598Y0162600D03*
X0477598Y0137600D03*
X0477598Y0112600D03*
X0477598Y0087600D03*
X0477598Y0062600D03*
X0477598Y0037600D03*
X0477598Y0012600D03*
D13*
X0123598Y0170100D03*
D14*
X0286098Y0162500D02*
X0286098Y0157700D01*
X0296098Y0157700D02*
X0296098Y0162500D01*
X0306098Y0162500D02*
X0306098Y0157700D01*
X0316098Y0157700D02*
X0316098Y0162500D01*
X0326098Y0162500D02*
X0326098Y0157700D01*
X0336098Y0157700D02*
X0336098Y0162500D01*
X0346098Y0162500D02*
X0346098Y0157700D01*
X0361098Y0157700D02*
X0361098Y0162500D01*
X0371098Y0162500D02*
X0371098Y0157700D01*
X0381098Y0157700D02*
X0381098Y0162500D01*
X0391098Y0162500D02*
X0391098Y0157700D01*
X0401098Y0157700D02*
X0401098Y0162500D01*
X0411098Y0162500D02*
X0411098Y0157700D01*
X0421098Y0157700D02*
X0421098Y0162500D01*
X0431098Y0162500D02*
X0431098Y0157700D01*
X0431098Y0187700D02*
X0431098Y0192500D01*
X0421098Y0192500D02*
X0421098Y0187700D01*
X0411098Y0187700D02*
X0411098Y0192500D01*
X0401098Y0192500D02*
X0401098Y0187700D01*
X0391098Y0187700D02*
X0391098Y0192500D01*
X0381098Y0192500D02*
X0381098Y0187700D01*
X0371098Y0187700D02*
X0371098Y0192500D01*
X0361098Y0192500D02*
X0361098Y0187700D01*
X0346098Y0187700D02*
X0346098Y0192500D01*
X0336098Y0192500D02*
X0336098Y0187700D01*
X0326098Y0187700D02*
X0326098Y0192500D01*
X0316098Y0192500D02*
X0316098Y0187700D01*
X0306098Y0187700D02*
X0306098Y0192500D01*
X0296098Y0192500D02*
X0296098Y0187700D01*
X0286098Y0187700D02*
X0286098Y0192500D01*
D15*
X0277098Y0032600D03*
X0258598Y0032600D03*
X0240098Y0032600D03*
D16*
X0206098Y0022600D03*
X0196098Y0032600D03*
X0206098Y0042600D03*
D17*
X0223913Y0119076D03*
X0233756Y0119076D03*
X0243598Y0119076D03*
X0253441Y0119076D03*
X0263283Y0119076D03*
X0263283Y0191124D03*
X0253441Y0191124D03*
X0243598Y0191124D03*
X0233756Y0191124D03*
X0223913Y0191124D03*
D18*
X0341039Y0114943D03*
X0126039Y0042443D03*
D19*
X0126039Y0032600D03*
X0126039Y0022757D03*
X0341039Y0095257D03*
X0341039Y0105100D03*
D20*
X0368598Y0122817D03*
X0368598Y0087383D03*
X0153598Y0050317D03*
X0153598Y0014883D03*
D21*
X0198598Y0095100D03*
X0183598Y0180100D03*
D22*
X0193598Y0180100D03*
X0203598Y0180100D03*
X0203598Y0190100D03*
X0193598Y0190100D03*
X0183598Y0190100D03*
X0188598Y0115100D03*
X0198598Y0115100D03*
X0198598Y0105100D03*
X0188598Y0105100D03*
X0188598Y0095100D03*
X0433598Y0095100D03*
X0443598Y0095100D03*
X0443598Y0085100D03*
X0433598Y0085100D03*
X0433598Y0105100D03*
X0443598Y0105100D03*
X0443598Y0115100D03*
X0433598Y0115100D03*
X0433598Y0125100D03*
X0443598Y0125100D03*
D23*
X0246098Y0102600D02*
X0246098Y0082600D01*
D24*
X0066798Y0023997D02*
X0066798Y0010800D01*
X0144865Y0010800D01*
X0144865Y0014417D01*
X0153131Y0014417D01*
X0153131Y0015350D01*
X0144865Y0015350D01*
X0144865Y0021273D01*
X0144964Y0021776D01*
X0145160Y0022249D01*
X0145445Y0022675D01*
X0145807Y0023037D01*
X0146233Y0023321D01*
X0146706Y0023517D01*
X0147208Y0023617D01*
X0153131Y0023617D01*
X0153131Y0015350D01*
X0154065Y0015350D01*
X0154065Y0023617D01*
X0159988Y0023617D01*
X0160491Y0023517D01*
X0160964Y0023321D01*
X0161390Y0023037D01*
X0161752Y0022675D01*
X0162036Y0022249D01*
X0162232Y0021776D01*
X0162332Y0021273D01*
X0162332Y0015350D01*
X0154065Y0015350D01*
X0154065Y0014417D01*
X0162332Y0014417D01*
X0162332Y0010800D01*
X0292998Y0010800D01*
X0292998Y0014920D01*
X0296279Y0018200D01*
X0300918Y0018200D01*
X0303598Y0015520D01*
X0306279Y0018200D01*
X0310918Y0018200D01*
X0313598Y0015520D01*
X0316279Y0018200D01*
X0320918Y0018200D01*
X0324023Y0015095D01*
X0326527Y0017600D01*
X0328598Y0017600D01*
X0328598Y0012600D01*
X0328598Y0012600D01*
X0328598Y0017600D01*
X0330669Y0017600D01*
X0333174Y0015095D01*
X0334598Y0016520D01*
X0334598Y0029556D01*
X0334376Y0029778D01*
X0333617Y0031609D01*
X0333617Y0033591D01*
X0334376Y0035422D01*
X0335777Y0036823D01*
X0336257Y0037022D01*
X0333598Y0039680D01*
X0330918Y0037000D01*
X0326279Y0037000D01*
X0323598Y0039680D01*
X0320918Y0037000D01*
X0316279Y0037000D01*
X0313598Y0039680D01*
X0310918Y0037000D01*
X0306279Y0037000D01*
X0303598Y0039680D01*
X0300918Y0037000D01*
X0296279Y0037000D01*
X0292998Y0040280D01*
X0292998Y0044920D01*
X0296103Y0048024D01*
X0293598Y0050529D01*
X0293598Y0052600D01*
X0298366Y0052600D01*
X0298366Y0052600D01*
X0293598Y0052600D01*
X0293598Y0054671D01*
X0294947Y0056019D01*
X0291698Y0059267D01*
X0291698Y0055280D01*
X0288418Y0052000D01*
X0283779Y0052000D01*
X0280498Y0055280D01*
X0280498Y0057967D01*
X0276194Y0062272D01*
X0276194Y0062272D01*
X0275842Y0062624D01*
X0275842Y0062624D01*
X0274898Y0064902D01*
X0274898Y0073667D01*
X0274798Y0073567D01*
X0274798Y0056820D01*
X0276698Y0054920D01*
X0276698Y0050280D01*
X0273418Y0047000D01*
X0268779Y0047000D01*
X0265498Y0050280D01*
X0265498Y0054920D01*
X0267398Y0056820D01*
X0267398Y0075298D01*
X0268301Y0077477D01*
X0265498Y0080280D01*
X0265498Y0084920D01*
X0266979Y0086400D01*
X0265131Y0086400D01*
X0261424Y0082693D01*
X0264198Y0079920D01*
X0264198Y0075280D01*
X0260918Y0072000D01*
X0257298Y0072000D01*
X0257298Y0064133D01*
X0258231Y0063200D01*
X0260918Y0063200D01*
X0264198Y0059920D01*
X0264198Y0055280D01*
X0260918Y0052000D01*
X0256279Y0052000D01*
X0252998Y0055280D01*
X0252998Y0057967D01*
X0251194Y0059772D01*
X0251194Y0059772D01*
X0250842Y0060124D01*
X0250842Y0060124D01*
X0249898Y0062402D01*
X0249898Y0076860D01*
X0249109Y0074954D01*
X0249109Y0074954D01*
X0248757Y0074602D01*
X0248757Y0074602D01*
X0247766Y0073610D01*
X0247632Y0073477D01*
X0244098Y0069943D01*
X0244098Y0058200D01*
X0248418Y0058200D01*
X0251698Y0054920D01*
X0251698Y0050280D01*
X0248418Y0047000D01*
X0244098Y0047000D01*
X0244098Y0041259D01*
X0245497Y0040680D01*
X0248178Y0037999D01*
X0249348Y0035173D01*
X0250519Y0037999D01*
X0253200Y0040680D01*
X0256703Y0042131D01*
X0260494Y0042131D01*
X0263997Y0040680D01*
X0266678Y0037999D01*
X0268129Y0034496D01*
X0268129Y0030704D01*
X0266678Y0027201D01*
X0263997Y0024520D01*
X0262298Y0023817D01*
X0262298Y0017625D01*
X0261197Y0014966D01*
X0261197Y0014966D01*
X0261197Y0014966D01*
X0260179Y0013948D01*
X0260179Y0013948D01*
X0259659Y0013428D01*
X0259659Y0013428D01*
X0258955Y0012724D01*
X0255758Y0011400D01*
X0255758Y0011400D01*
X0218401Y0011400D01*
X0216122Y0012344D01*
X0216122Y0012344D01*
X0215770Y0012696D01*
X0215770Y0012696D01*
X0213997Y0014469D01*
X0213997Y0014469D01*
X0213500Y0014966D01*
X0213500Y0014966D01*
X0212398Y0017625D01*
X0212398Y0019708D01*
X0208791Y0016100D01*
X0203406Y0016100D01*
X0199598Y0019908D01*
X0199598Y0025292D01*
X0203406Y0029100D01*
X0208791Y0029100D01*
X0212398Y0025492D01*
X0212398Y0039708D01*
X0208791Y0036100D01*
X0203406Y0036100D01*
X0199598Y0039908D01*
X0199598Y0045292D01*
X0203406Y0049100D01*
X0208791Y0049100D01*
X0212398Y0045492D01*
X0212398Y0053480D01*
X0210918Y0052000D01*
X0206279Y0052000D01*
X0202998Y0055280D01*
X0202998Y0059920D01*
X0206279Y0063200D01*
X0210918Y0063200D01*
X0212398Y0061720D01*
X0212398Y0073480D01*
X0210918Y0072000D01*
X0206279Y0072000D01*
X0202998Y0075280D01*
X0202998Y0079920D01*
X0206279Y0083200D01*
X0210918Y0083200D01*
X0212398Y0081720D01*
X0212398Y0107507D01*
X0212326Y0107579D01*
X0211648Y0109215D01*
X0211648Y0110985D01*
X0212326Y0112621D01*
X0213578Y0113873D01*
X0215213Y0114550D01*
X0216984Y0114550D01*
X0218619Y0113873D01*
X0219871Y0112621D01*
X0220548Y0110985D01*
X0220548Y0109215D01*
X0219871Y0107579D01*
X0219798Y0107507D01*
X0219798Y0084220D01*
X0221279Y0085700D01*
X0223598Y0085700D01*
X0223598Y0087600D01*
X0228598Y0087600D01*
X0228598Y0087600D01*
X0223598Y0087600D01*
X0223598Y0089671D01*
X0226527Y0092600D01*
X0228598Y0092600D01*
X0228598Y0087600D01*
X0228598Y0087600D01*
X0228598Y0092600D01*
X0230669Y0092600D01*
X0233598Y0089671D01*
X0233598Y0087600D01*
X0228599Y0087600D01*
X0228599Y0087600D01*
X0233598Y0087600D01*
X0233598Y0085700D01*
X0235918Y0085700D01*
X0239198Y0082420D01*
X0239198Y0077780D01*
X0235918Y0074500D01*
X0231279Y0074500D01*
X0228598Y0077180D01*
X0227298Y0075880D01*
X0227298Y0055193D01*
X0227371Y0055121D01*
X0228048Y0053485D01*
X0228048Y0051715D01*
X0227371Y0050079D01*
X0226119Y0048827D01*
X0224604Y0048200D01*
X0228418Y0048200D01*
X0231698Y0044920D01*
X0231698Y0040280D01*
X0228418Y0037000D01*
X0223779Y0037000D01*
X0220498Y0040280D01*
X0220498Y0044920D01*
X0223729Y0048150D01*
X0222713Y0048150D01*
X0221078Y0048827D01*
X0219826Y0050079D01*
X0219798Y0050146D01*
X0219798Y0019133D01*
X0219962Y0018969D01*
X0220038Y0018893D01*
X0220131Y0018800D01*
X0221979Y0018800D01*
X0220498Y0020280D01*
X0220498Y0024920D01*
X0223779Y0028200D01*
X0228418Y0028200D01*
X0231698Y0024920D01*
X0231698Y0020280D01*
X0230218Y0018800D01*
X0254027Y0018800D01*
X0254281Y0018825D01*
X0254750Y0019019D01*
X0254898Y0019141D01*
X0254898Y0023817D01*
X0253200Y0024520D01*
X0250519Y0027201D01*
X0249348Y0030027D01*
X0248178Y0027201D01*
X0245497Y0024520D01*
X0241994Y0023069D01*
X0238203Y0023069D01*
X0234700Y0024520D01*
X0232019Y0027201D01*
X0230568Y0030704D01*
X0230568Y0034496D01*
X0232019Y0037999D01*
X0234700Y0040680D01*
X0236098Y0041259D01*
X0236098Y0072008D01*
X0236982Y0074140D01*
X0236982Y0074140D01*
X0237235Y0074394D01*
X0237235Y0074394D01*
X0241810Y0078969D01*
X0240498Y0080280D01*
X0240498Y0084920D01*
X0240898Y0085320D01*
X0240898Y0103634D01*
X0241690Y0105546D01*
X0243153Y0107008D01*
X0245064Y0107800D01*
X0247133Y0107800D01*
X0249044Y0107008D01*
X0250507Y0105546D01*
X0251298Y0103634D01*
X0251298Y0085320D01*
X0251698Y0084920D01*
X0251698Y0083433D01*
X0260770Y0092504D01*
X0260770Y0092504D01*
X0261122Y0092856D01*
X0261122Y0092856D01*
X0263401Y0093800D01*
X0263745Y0093800D01*
X0263617Y0094109D01*
X0263617Y0096091D01*
X0263798Y0096528D01*
X0263798Y0113219D01*
X0260857Y0113219D01*
X0258362Y0115714D01*
X0255867Y0113219D01*
X0251015Y0113219D01*
X0248520Y0115714D01*
X0246025Y0113219D01*
X0241172Y0113219D01*
X0238677Y0115714D01*
X0236182Y0113219D01*
X0231330Y0113219D01*
X0228835Y0115714D01*
X0226340Y0113219D01*
X0221487Y0113219D01*
X0218056Y0116650D01*
X0218056Y0121503D01*
X0221487Y0124934D01*
X0226340Y0124934D01*
X0228835Y0122439D01*
X0231330Y0124934D01*
X0233200Y0124934D01*
X0234898Y0126633D01*
X0234898Y0128322D01*
X0234484Y0128150D01*
X0232713Y0128150D01*
X0231078Y0128827D01*
X0229826Y0130079D01*
X0229148Y0131715D01*
X0229148Y0133485D01*
X0229826Y0135121D01*
X0229898Y0135193D01*
X0229898Y0186697D01*
X0228835Y0187761D01*
X0227586Y0186513D01*
X0227314Y0140178D01*
X0227371Y0140121D01*
X0228048Y0138485D01*
X0228048Y0136715D01*
X0227371Y0135079D01*
X0226119Y0133827D01*
X0224484Y0133150D01*
X0222713Y0133150D01*
X0222650Y0133176D01*
X0221541Y0131254D01*
X0221541Y0131254D01*
X0220093Y0129806D01*
X0220093Y0129806D01*
X0219481Y0129194D01*
X0204798Y0114512D01*
X0204798Y0112532D01*
X0201942Y0109676D01*
X0204198Y0107420D01*
X0204198Y0105100D01*
X0198599Y0105100D01*
X0204198Y0105100D01*
X0204198Y0102780D01*
X0201873Y0100455D01*
X0202110Y0100356D01*
X0203855Y0098612D01*
X0204798Y0096333D01*
X0204798Y0093867D01*
X0203855Y0091588D01*
X0202110Y0089844D01*
X0199832Y0088900D01*
X0197365Y0088900D01*
X0195086Y0089844D01*
X0193598Y0091332D01*
X0191167Y0088900D01*
X0186030Y0088900D01*
X0184198Y0090732D01*
X0184198Y0089563D01*
X0183711Y0088387D01*
X0182811Y0087487D01*
X0181635Y0087000D01*
X0175562Y0087000D01*
X0174386Y0087487D01*
X0173486Y0088387D01*
X0172998Y0089563D01*
X0172998Y0089929D01*
X0170669Y0087600D01*
X0168598Y0087600D01*
X0168598Y0092600D01*
X0163598Y0092600D01*
X0163598Y0090529D01*
X0166527Y0087600D01*
X0168598Y0087600D01*
X0168598Y0092600D01*
X0168598Y0092600D01*
X0163598Y0092600D01*
X0163598Y0094671D01*
X0166527Y0097600D01*
X0168598Y0097600D01*
X0168598Y0092600D01*
X0168598Y0092600D01*
X0168598Y0092600D01*
X0168598Y0097600D01*
X0170669Y0097600D01*
X0172998Y0095271D01*
X0172998Y0095637D01*
X0173486Y0096813D01*
X0174386Y0097713D01*
X0175562Y0098200D01*
X0181635Y0098200D01*
X0182551Y0097821D01*
X0185255Y0100524D01*
X0182998Y0102780D01*
X0182998Y0105100D01*
X0188598Y0105100D01*
X0188598Y0105100D01*
X0182998Y0105100D01*
X0182998Y0107420D01*
X0185255Y0109676D01*
X0182398Y0112532D01*
X0182398Y0117668D01*
X0186030Y0121300D01*
X0191167Y0121300D01*
X0193598Y0118868D01*
X0196030Y0121300D01*
X0198010Y0121300D01*
X0212630Y0135920D01*
X0212630Y0135920D01*
X0213305Y0136595D01*
X0213818Y0137180D01*
X0214595Y0138526D01*
X0214998Y0140027D01*
X0215048Y0140804D01*
X0215048Y0152926D01*
X0213522Y0152294D01*
X0210683Y0152294D01*
X0208060Y0153380D01*
X0206052Y0155388D01*
X0204965Y0158011D01*
X0204965Y0160850D01*
X0205442Y0162000D01*
X0201279Y0162000D01*
X0198598Y0164680D01*
X0195918Y0162000D01*
X0192298Y0162000D01*
X0192298Y0142600D01*
X0193598Y0142600D01*
X0193598Y0137600D01*
X0193598Y0137600D01*
X0193598Y0137600D01*
X0193598Y0132600D01*
X0192298Y0132600D01*
X0192298Y0131864D01*
X0191735Y0130504D01*
X0179235Y0118004D01*
X0178194Y0116963D01*
X0176834Y0116400D01*
X0120368Y0116400D01*
X0119506Y0116343D01*
X0117839Y0115897D01*
X0116345Y0115035D01*
X0115696Y0114465D01*
X0106698Y0105467D01*
X0106698Y0102780D01*
X0103418Y0099500D01*
X0098779Y0099500D01*
X0095498Y0102780D01*
X0095498Y0107420D01*
X0098779Y0110700D01*
X0101466Y0110700D01*
X0110983Y0120218D01*
X0110983Y0120218D01*
X0111767Y0121001D01*
X0111767Y0121001D01*
X0114961Y0122845D01*
X0114961Y0122845D01*
X0118524Y0123800D01*
X0174566Y0123800D01*
X0183366Y0132600D01*
X0181527Y0132600D01*
X0179023Y0135105D01*
X0175918Y0132000D01*
X0171279Y0132000D01*
X0167998Y0135280D01*
X0167998Y0137429D01*
X0165669Y0135100D01*
X0163598Y0135100D01*
X0163598Y0140100D01*
X0158598Y0140100D01*
X0153599Y0140100D01*
X0158598Y0140100D01*
X0158598Y0138029D01*
X0155669Y0135100D01*
X0153598Y0135100D01*
X0153598Y0140100D01*
X0153598Y0145100D01*
X0151527Y0145100D01*
X0149023Y0142595D01*
X0145918Y0145700D01*
X0141279Y0145700D01*
X0138598Y0143020D01*
X0135918Y0145700D01*
X0131279Y0145700D01*
X0129057Y0143478D01*
X0128711Y0144313D01*
X0127811Y0145213D01*
X0126635Y0145700D01*
X0120562Y0145700D01*
X0119386Y0145213D01*
X0118486Y0144313D01*
X0118140Y0143478D01*
X0115918Y0145700D01*
X0111279Y0145700D01*
X0107998Y0142420D01*
X0107998Y0137780D01*
X0110865Y0134914D01*
X0110379Y0134561D01*
X0109728Y0133910D01*
X0109187Y0133165D01*
X0108769Y0132345D01*
X0108619Y0131882D01*
X0107844Y0133753D01*
X0106030Y0135566D01*
X0103661Y0136548D01*
X0101095Y0136548D01*
X0098725Y0135566D01*
X0096912Y0133753D01*
X0095930Y0131383D01*
X0095930Y0128817D01*
X0096912Y0126447D01*
X0098725Y0124634D01*
X0101095Y0123652D01*
X0103661Y0123652D01*
X0106030Y0124634D01*
X0107844Y0126447D01*
X0108619Y0128318D01*
X0108769Y0127855D01*
X0109187Y0127035D01*
X0109728Y0126290D01*
X0110379Y0125639D01*
X0111124Y0125098D01*
X0111944Y0124680D01*
X0112820Y0124396D01*
X0113729Y0124252D01*
X0114189Y0124252D01*
X0114649Y0124252D01*
X0115558Y0124396D01*
X0116434Y0124680D01*
X0117254Y0125098D01*
X0117999Y0125639D01*
X0118650Y0126290D01*
X0119191Y0127035D01*
X0119609Y0127855D01*
X0119893Y0128731D01*
X0120037Y0129640D01*
X0120037Y0130100D01*
X0120037Y0130560D01*
X0119893Y0131469D01*
X0119609Y0132345D01*
X0119191Y0133165D01*
X0118650Y0133910D01*
X0117999Y0134561D01*
X0117254Y0135102D01*
X0116768Y0135350D01*
X0118140Y0136722D01*
X0118486Y0135887D01*
X0119386Y0134987D01*
X0120562Y0134500D01*
X0126635Y0134500D01*
X0127811Y0134987D01*
X0128711Y0135887D01*
X0129057Y0136722D01*
X0131279Y0134500D01*
X0135918Y0134500D01*
X0138598Y0137180D01*
X0141279Y0134500D01*
X0145918Y0134500D01*
X0149023Y0137605D01*
X0151527Y0135100D01*
X0153598Y0135100D01*
X0153598Y0140100D01*
X0153598Y0140100D01*
X0153598Y0140100D01*
X0153598Y0145100D01*
X0155669Y0145100D01*
X0158598Y0142171D01*
X0158598Y0140100D01*
X0158598Y0138029D01*
X0161527Y0135100D01*
X0163598Y0135100D01*
X0163598Y0140100D01*
X0163598Y0140100D01*
X0158598Y0140100D01*
X0158598Y0142171D01*
X0161527Y0145100D01*
X0163598Y0145100D01*
X0163598Y0140100D01*
X0163598Y0140100D01*
X0163598Y0140100D01*
X0163598Y0145100D01*
X0165669Y0145100D01*
X0168598Y0142171D01*
X0168598Y0140520D01*
X0171279Y0143200D01*
X0175918Y0143200D01*
X0179023Y0140095D01*
X0181527Y0142600D01*
X0183598Y0142600D01*
X0183598Y0137600D01*
X0183598Y0137600D01*
X0183598Y0142600D01*
X0184898Y0142600D01*
X0184898Y0162000D01*
X0181279Y0162000D01*
X0178598Y0164680D01*
X0175918Y0162000D01*
X0171279Y0162000D01*
X0167998Y0165280D01*
X0167998Y0169920D01*
X0171279Y0173200D01*
X0175918Y0173200D01*
X0178598Y0170520D01*
X0181279Y0173200D01*
X0184898Y0173200D01*
X0184898Y0173928D01*
X0184832Y0173900D01*
X0182365Y0173900D01*
X0180086Y0174844D01*
X0178342Y0176588D01*
X0177398Y0178867D01*
X0177398Y0181333D01*
X0178342Y0183612D01*
X0179830Y0185100D01*
X0177398Y0187532D01*
X0177398Y0192668D01*
X0181030Y0196300D01*
X0186167Y0196300D01*
X0188598Y0193868D01*
X0191030Y0196300D01*
X0196167Y0196300D01*
X0198598Y0193868D01*
X0201030Y0196300D01*
X0206167Y0196300D01*
X0209798Y0192668D01*
X0209798Y0187532D01*
X0207367Y0185100D01*
X0209798Y0182668D01*
X0209798Y0177532D01*
X0207298Y0175032D01*
X0207298Y0171820D01*
X0209198Y0169920D01*
X0209198Y0165953D01*
X0210683Y0166568D01*
X0213522Y0166568D01*
X0215048Y0165935D01*
X0215048Y0173672D01*
X0214867Y0174109D01*
X0214867Y0176091D01*
X0215626Y0177922D01*
X0217027Y0179323D01*
X0218858Y0180081D01*
X0220148Y0180081D01*
X0220187Y0186567D01*
X0218056Y0188697D01*
X0218056Y0193550D01*
X0221487Y0196981D01*
X0226340Y0196981D01*
X0228835Y0194486D01*
X0231330Y0196981D01*
X0236182Y0196981D01*
X0238677Y0194486D01*
X0241172Y0196981D01*
X0246025Y0196981D01*
X0248520Y0194486D01*
X0251015Y0196981D01*
X0255867Y0196981D01*
X0258362Y0194486D01*
X0260857Y0196981D01*
X0265710Y0196981D01*
X0269141Y0193550D01*
X0269141Y0188697D01*
X0265710Y0185266D01*
X0264798Y0185266D01*
X0264798Y0174953D01*
X0265108Y0175081D01*
X0267089Y0175081D01*
X0268920Y0174323D01*
X0270321Y0172922D01*
X0271080Y0171091D01*
X0271080Y0169109D01*
X0270898Y0168672D01*
X0270898Y0165328D01*
X0271052Y0165481D01*
X0273675Y0166568D01*
X0276514Y0166568D01*
X0279137Y0165481D01*
X0280647Y0163972D01*
X0281351Y0165672D01*
X0282926Y0167247D01*
X0284985Y0168100D01*
X0287212Y0168100D01*
X0289271Y0167247D01*
X0290846Y0165672D01*
X0291098Y0165062D01*
X0291351Y0165672D01*
X0292926Y0167247D01*
X0294985Y0168100D01*
X0297212Y0168100D01*
X0299271Y0167247D01*
X0300846Y0165672D01*
X0301421Y0164284D01*
X0301465Y0164419D01*
X0301822Y0165121D01*
X0302285Y0165757D01*
X0302841Y0166314D01*
X0303478Y0166776D01*
X0304179Y0167134D01*
X0304928Y0167377D01*
X0305705Y0167500D01*
X0306098Y0167500D01*
X0306098Y0160100D01*
X0306098Y0160100D01*
X0306098Y0160100D01*
X0306098Y0152700D01*
X0305705Y0152700D01*
X0304928Y0152823D01*
X0304179Y0153066D01*
X0303478Y0153424D01*
X0302841Y0153886D01*
X0302285Y0154443D01*
X0301822Y0155079D01*
X0301465Y0155781D01*
X0301421Y0155916D01*
X0300846Y0154528D01*
X0299271Y0152953D01*
X0297298Y0152136D01*
X0297298Y0088200D01*
X0300918Y0088200D01*
X0303598Y0085520D01*
X0304898Y0086820D01*
X0304898Y0125007D01*
X0304826Y0125079D01*
X0304148Y0126715D01*
X0304148Y0128485D01*
X0304826Y0130121D01*
X0306078Y0131373D01*
X0307713Y0132050D01*
X0309484Y0132050D01*
X0311119Y0131373D01*
X0312371Y0130121D01*
X0313048Y0128485D01*
X0313048Y0126715D01*
X0312371Y0125079D01*
X0312298Y0125007D01*
X0312298Y0086820D01*
X0314198Y0084920D01*
X0314198Y0081120D01*
X0316279Y0083200D01*
X0319898Y0083200D01*
X0319898Y0083336D01*
X0320462Y0084696D01*
X0327398Y0091633D01*
X0327398Y0115298D01*
X0328342Y0117576D01*
X0328342Y0117576D01*
X0328694Y0117928D01*
X0328694Y0117928D01*
X0337398Y0126633D01*
X0337398Y0140822D01*
X0336984Y0140650D01*
X0335213Y0140650D01*
X0333578Y0141327D01*
X0332326Y0142579D01*
X0331648Y0144215D01*
X0331648Y0145985D01*
X0332326Y0147621D01*
X0332398Y0147693D01*
X0332398Y0153480D01*
X0331351Y0154528D01*
X0330776Y0155916D01*
X0330732Y0155781D01*
X0330375Y0155079D01*
X0329912Y0154443D01*
X0329356Y0153886D01*
X0328719Y0153424D01*
X0328018Y0153066D01*
X0327269Y0152823D01*
X0326492Y0152700D01*
X0326098Y0152700D01*
X0326098Y0160100D01*
X0326098Y0167500D01*
X0325705Y0167500D01*
X0324928Y0167377D01*
X0324179Y0167134D01*
X0323478Y0166776D01*
X0322841Y0166314D01*
X0322285Y0165757D01*
X0321822Y0165121D01*
X0321465Y0164419D01*
X0321421Y0164284D01*
X0320846Y0165672D01*
X0319271Y0167247D01*
X0317212Y0168100D01*
X0314985Y0168100D01*
X0312926Y0167247D01*
X0311351Y0165672D01*
X0310776Y0164284D01*
X0310732Y0164419D01*
X0310375Y0165121D01*
X0309912Y0165757D01*
X0309356Y0166314D01*
X0308719Y0166776D01*
X0308018Y0167134D01*
X0307269Y0167377D01*
X0306492Y0167500D01*
X0306098Y0167500D01*
X0306098Y0160100D01*
X0306098Y0152700D01*
X0306492Y0152700D01*
X0307269Y0152823D01*
X0308018Y0153066D01*
X0308719Y0153424D01*
X0309356Y0153886D01*
X0309912Y0154443D01*
X0310375Y0155079D01*
X0310732Y0155781D01*
X0310776Y0155916D01*
X0311351Y0154528D01*
X0312926Y0152953D01*
X0314985Y0152100D01*
X0317212Y0152100D01*
X0319271Y0152953D01*
X0320846Y0154528D01*
X0321421Y0155916D01*
X0321465Y0155781D01*
X0321822Y0155079D01*
X0322285Y0154443D01*
X0322841Y0153886D01*
X0323478Y0153424D01*
X0324179Y0153066D01*
X0324928Y0152823D01*
X0325705Y0152700D01*
X0326098Y0152700D01*
X0326098Y0160100D01*
X0326098Y0160100D01*
X0326098Y0160100D01*
X0326098Y0167500D01*
X0326492Y0167500D01*
X0327269Y0167377D01*
X0328018Y0167134D01*
X0328719Y0166776D01*
X0329356Y0166314D01*
X0329912Y0165757D01*
X0330375Y0165121D01*
X0330732Y0164419D01*
X0330776Y0164284D01*
X0331351Y0165672D01*
X0332926Y0167247D01*
X0334985Y0168100D01*
X0337212Y0168100D01*
X0337398Y0168023D01*
X0337398Y0182177D01*
X0337212Y0182100D01*
X0334985Y0182100D01*
X0332926Y0182953D01*
X0331351Y0184528D01*
X0330776Y0185916D01*
X0330732Y0185781D01*
X0330375Y0185079D01*
X0329912Y0184443D01*
X0329356Y0183886D01*
X0328719Y0183424D01*
X0328018Y0183066D01*
X0327269Y0182823D01*
X0326492Y0182700D01*
X0326098Y0182700D01*
X0326098Y0190100D01*
X0326098Y0197500D01*
X0325705Y0197500D01*
X0324928Y0197377D01*
X0324179Y0197134D01*
X0323478Y0196776D01*
X0322841Y0196314D01*
X0322285Y0195757D01*
X0321822Y0195121D01*
X0321465Y0194419D01*
X0321421Y0194284D01*
X0320846Y0195672D01*
X0319271Y0197247D01*
X0317212Y0198100D01*
X0314985Y0198100D01*
X0312926Y0197247D01*
X0311351Y0195672D01*
X0311098Y0195062D01*
X0310846Y0195672D01*
X0309271Y0197247D01*
X0307212Y0198100D01*
X0304985Y0198100D01*
X0302926Y0197247D01*
X0301351Y0195672D01*
X0301098Y0195062D01*
X0300846Y0195672D01*
X0299271Y0197247D01*
X0297212Y0198100D01*
X0294985Y0198100D01*
X0292926Y0197247D01*
X0291351Y0195672D01*
X0291098Y0195062D01*
X0290846Y0195672D01*
X0289271Y0197247D01*
X0287212Y0198100D01*
X0284985Y0198100D01*
X0282926Y0197247D01*
X0281351Y0195672D01*
X0280498Y0193614D01*
X0280498Y0186586D01*
X0281351Y0184528D01*
X0282926Y0182953D01*
X0284985Y0182100D01*
X0287212Y0182100D01*
X0289271Y0182953D01*
X0290846Y0184528D01*
X0291098Y0185138D01*
X0291351Y0184528D01*
X0292926Y0182953D01*
X0294985Y0182100D01*
X0297212Y0182100D01*
X0299271Y0182953D01*
X0300846Y0184528D01*
X0301098Y0185138D01*
X0301351Y0184528D01*
X0302926Y0182953D01*
X0304985Y0182100D01*
X0307212Y0182100D01*
X0309271Y0182953D01*
X0310846Y0184528D01*
X0311098Y0185138D01*
X0311351Y0184528D01*
X0312926Y0182953D01*
X0314985Y0182100D01*
X0317212Y0182100D01*
X0319271Y0182953D01*
X0320846Y0184528D01*
X0321421Y0185916D01*
X0321465Y0185781D01*
X0321822Y0185079D01*
X0322285Y0184443D01*
X0322841Y0183886D01*
X0323478Y0183424D01*
X0324179Y0183066D01*
X0324928Y0182823D01*
X0325705Y0182700D01*
X0326098Y0182700D01*
X0326098Y0190100D01*
X0326098Y0190100D01*
X0326098Y0190100D01*
X0326098Y0197500D01*
X0326492Y0197500D01*
X0327269Y0197377D01*
X0328018Y0197134D01*
X0328719Y0196776D01*
X0329356Y0196314D01*
X0329912Y0195757D01*
X0330375Y0195121D01*
X0330732Y0194419D01*
X0330776Y0194284D01*
X0331351Y0195672D01*
X0332926Y0197247D01*
X0334985Y0198100D01*
X0337212Y0198100D01*
X0339271Y0197247D01*
X0340846Y0195672D01*
X0341098Y0195062D01*
X0341351Y0195672D01*
X0342926Y0197247D01*
X0344985Y0198100D01*
X0347212Y0198100D01*
X0349271Y0197247D01*
X0350846Y0195672D01*
X0351698Y0193614D01*
X0351698Y0189733D01*
X0352159Y0189272D01*
X0352159Y0189272D01*
X0352679Y0188752D01*
X0353200Y0188231D01*
X0353200Y0188231D01*
X0353697Y0187734D01*
X0353697Y0187734D01*
X0354798Y0185075D01*
X0354798Y0174033D01*
X0357398Y0176633D01*
X0357398Y0183480D01*
X0356351Y0184528D01*
X0355498Y0186586D01*
X0355498Y0193614D01*
X0356351Y0195672D01*
X0357926Y0197247D01*
X0359985Y0198100D01*
X0362212Y0198100D01*
X0364271Y0197247D01*
X0365846Y0195672D01*
X0366098Y0195062D01*
X0366351Y0195672D01*
X0367926Y0197247D01*
X0369985Y0198100D01*
X0372212Y0198100D01*
X0374271Y0197247D01*
X0375846Y0195672D01*
X0376098Y0195062D01*
X0376351Y0195672D01*
X0377926Y0197247D01*
X0379985Y0198100D01*
X0382212Y0198100D01*
X0384271Y0197247D01*
X0385846Y0195672D01*
X0386098Y0195062D01*
X0386351Y0195672D01*
X0387926Y0197247D01*
X0389985Y0198100D01*
X0392212Y0198100D01*
X0394271Y0197247D01*
X0395846Y0195672D01*
X0396098Y0195062D01*
X0396351Y0195672D01*
X0397926Y0197247D01*
X0399985Y0198100D01*
X0402212Y0198100D01*
X0404271Y0197247D01*
X0405846Y0195672D01*
X0406098Y0195062D01*
X0406351Y0195672D01*
X0407926Y0197247D01*
X0409985Y0198100D01*
X0412212Y0198100D01*
X0414271Y0197247D01*
X0415846Y0195672D01*
X0416421Y0194284D01*
X0416465Y0194419D01*
X0416822Y0195121D01*
X0417285Y0195757D01*
X0417841Y0196314D01*
X0418478Y0196776D01*
X0419179Y0197134D01*
X0419928Y0197377D01*
X0420705Y0197500D01*
X0421098Y0197500D01*
X0421098Y0190100D01*
X0421098Y0190100D01*
X0421098Y0190100D01*
X0421098Y0182700D01*
X0420705Y0182700D01*
X0419928Y0182823D01*
X0419179Y0183066D01*
X0418478Y0183424D01*
X0417841Y0183886D01*
X0417285Y0184443D01*
X0416822Y0185079D01*
X0416465Y0185781D01*
X0416421Y0185916D01*
X0415898Y0184655D01*
X0415898Y0172254D01*
X0416612Y0172550D01*
X0433084Y0172550D01*
X0434444Y0171987D01*
X0435485Y0170946D01*
X0439235Y0167196D01*
X0439798Y0165836D01*
X0439798Y0154364D01*
X0439235Y0153004D01*
X0438194Y0151963D01*
X0430694Y0144463D01*
X0429334Y0143900D01*
X0417298Y0143900D01*
X0417298Y0126864D01*
X0416735Y0125504D01*
X0398048Y0106817D01*
X0398048Y0106715D01*
X0397371Y0105079D01*
X0396119Y0103827D01*
X0394484Y0103150D01*
X0392713Y0103150D01*
X0391078Y0103827D01*
X0389826Y0105079D01*
X0389279Y0106400D01*
X0355131Y0106400D01*
X0354967Y0106236D01*
X0354798Y0106067D01*
X0354798Y0094364D01*
X0354235Y0093004D01*
X0347298Y0086067D01*
X0347298Y0082600D01*
X0348598Y0082600D01*
X0348598Y0077600D01*
X0348598Y0077600D01*
X0348598Y0077600D01*
X0348598Y0072600D01*
X0347298Y0072600D01*
X0347298Y0063200D01*
X0350918Y0063200D01*
X0354198Y0059920D01*
X0354198Y0055280D01*
X0350918Y0052000D01*
X0346279Y0052000D01*
X0344755Y0053524D01*
X0339431Y0048200D01*
X0340918Y0048200D01*
X0343598Y0045520D01*
X0346279Y0048200D01*
X0350918Y0048200D01*
X0352518Y0046600D01*
X0359679Y0046600D01*
X0361279Y0048200D01*
X0365918Y0048200D01*
X0369198Y0044920D01*
X0369198Y0042600D01*
X0371098Y0042600D01*
X0371098Y0037600D01*
X0371098Y0037600D01*
X0371098Y0037600D01*
X0371098Y0032600D01*
X0369198Y0032600D01*
X0369198Y0030280D01*
X0365918Y0027000D01*
X0361279Y0027000D01*
X0357998Y0030280D01*
X0357998Y0034920D01*
X0360679Y0037600D01*
X0359679Y0038600D01*
X0352518Y0038600D01*
X0350918Y0037000D01*
X0346279Y0037000D01*
X0343598Y0039680D01*
X0340940Y0037022D01*
X0341420Y0036823D01*
X0342821Y0035422D01*
X0343580Y0033591D01*
X0343580Y0031609D01*
X0342821Y0029778D01*
X0342598Y0029556D01*
X0342598Y0016520D01*
X0343598Y0015520D01*
X0346279Y0018200D01*
X0350918Y0018200D01*
X0354198Y0014920D01*
X0354198Y0010800D01*
X0426771Y0010800D01*
X0426556Y0011015D01*
X0426338Y0011144D01*
X0426075Y0011496D01*
X0425764Y0011806D01*
X0425668Y0012040D01*
X0425280Y0012558D01*
X0425083Y0012717D01*
X0424872Y0013102D01*
X0424609Y0013454D01*
X0424547Y0013699D01*
X0424237Y0014267D01*
X0424064Y0014452D01*
X0423911Y0014864D01*
X0423700Y0015249D01*
X0423673Y0015501D01*
X0423447Y0016107D01*
X0423303Y0016314D01*
X0423209Y0016744D01*
X0423056Y0017156D01*
X0423065Y0017408D01*
X0422927Y0018040D01*
X0422814Y0018266D01*
X0422783Y0018705D01*
X0422689Y0019134D01*
X0422734Y0019383D01*
X0422697Y0019903D01*
X0422648Y0020020D01*
X0422648Y0020583D01*
X0422608Y0021145D01*
X0422648Y0021266D01*
X0422648Y0023934D01*
X0422608Y0024055D01*
X0422648Y0024617D01*
X0422648Y0025180D01*
X0422697Y0025297D01*
X0422734Y0025817D01*
X0422689Y0026066D01*
X0422783Y0026495D01*
X0422814Y0026934D01*
X0422927Y0027160D01*
X0423065Y0027792D01*
X0423056Y0028044D01*
X0423209Y0028456D01*
X0423303Y0028886D01*
X0423447Y0029093D01*
X0423673Y0029699D01*
X0423700Y0029951D01*
X0423911Y0030336D01*
X0424064Y0030748D01*
X0424237Y0030933D01*
X0424547Y0031501D01*
X0424609Y0031746D01*
X0424872Y0032098D01*
X0425083Y0032483D01*
X0425280Y0032642D01*
X0425668Y0033160D01*
X0425764Y0033394D01*
X0426075Y0033704D01*
X0426338Y0034056D01*
X0426556Y0034185D01*
X0427013Y0034642D01*
X0427142Y0034860D01*
X0427494Y0035123D01*
X0427805Y0035434D01*
X0428039Y0035531D01*
X0428556Y0035918D01*
X0428715Y0036115D01*
X0429101Y0036326D01*
X0429200Y0036400D01*
X0427631Y0036400D01*
X0421698Y0030467D01*
X0421698Y0027780D01*
X0418418Y0024500D01*
X0413779Y0024500D01*
X0410498Y0027780D01*
X0410498Y0032420D01*
X0413779Y0035700D01*
X0416466Y0035700D01*
X0424003Y0043237D01*
X0425362Y0043800D01*
X0428598Y0043800D01*
X0428598Y0045100D01*
X0433598Y0045100D01*
X0433598Y0045100D01*
X0428598Y0045100D01*
X0428598Y0046400D01*
X0421698Y0046400D01*
X0421698Y0042780D01*
X0418418Y0039500D01*
X0413779Y0039500D01*
X0410498Y0042780D01*
X0410498Y0047420D01*
X0413779Y0050700D01*
X0415216Y0050700D01*
X0417753Y0053237D01*
X0419112Y0053800D01*
X0428598Y0053800D01*
X0428598Y0055100D01*
X0433598Y0055100D01*
X0433598Y0055100D01*
X0428598Y0055100D01*
X0428598Y0056400D01*
X0420318Y0056400D01*
X0418418Y0054500D01*
X0413779Y0054500D01*
X0410498Y0057780D01*
X0410498Y0062420D01*
X0413779Y0065700D01*
X0418418Y0065700D01*
X0420318Y0063800D01*
X0428598Y0063800D01*
X0428598Y0065100D01*
X0433598Y0065100D01*
X0433598Y0065100D01*
X0428598Y0065100D01*
X0428598Y0066400D01*
X0420362Y0066400D01*
X0419003Y0066963D01*
X0416466Y0069500D01*
X0413779Y0069500D01*
X0410498Y0072780D01*
X0410498Y0077420D01*
X0413779Y0080700D01*
X0418418Y0080700D01*
X0421698Y0077420D01*
X0421698Y0074733D01*
X0422631Y0073800D01*
X0428598Y0073800D01*
X0428598Y0075100D01*
X0433598Y0075100D01*
X0433598Y0075100D01*
X0428598Y0075100D01*
X0428598Y0077171D01*
X0430679Y0079251D01*
X0427398Y0082532D01*
X0427398Y0087668D01*
X0429830Y0090100D01*
X0427398Y0092532D01*
X0427398Y0097668D01*
X0429830Y0100100D01*
X0427398Y0102532D01*
X0427398Y0107668D01*
X0429830Y0110100D01*
X0427398Y0112532D01*
X0427398Y0117668D01*
X0429830Y0120100D01*
X0427398Y0122532D01*
X0427398Y0127668D01*
X0431030Y0131300D01*
X0436167Y0131300D01*
X0438598Y0128868D01*
X0441030Y0131300D01*
X0446167Y0131300D01*
X0447398Y0130068D01*
X0447398Y0145836D01*
X0447962Y0147196D01*
X0449003Y0148237D01*
X0464898Y0164133D01*
X0464898Y0165980D01*
X0463418Y0164500D01*
X0458779Y0164500D01*
X0455498Y0167780D01*
X0455498Y0172420D01*
X0458779Y0175700D01*
X0463418Y0175700D01*
X0464898Y0174220D01*
X0464898Y0186829D01*
X0463169Y0185100D01*
X0461098Y0185100D01*
X0461098Y0190100D01*
X0456098Y0190100D01*
X0456098Y0188029D01*
X0459027Y0185100D01*
X0461098Y0185100D01*
X0461098Y0190100D01*
X0461098Y0190100D01*
X0456098Y0190100D01*
X0456098Y0192171D01*
X0459027Y0195100D01*
X0461098Y0195100D01*
X0461098Y0190100D01*
X0461098Y0190100D01*
X0461098Y0190100D01*
X0461098Y0195100D01*
X0463169Y0195100D01*
X0465768Y0192502D01*
X0466503Y0193237D01*
X0471998Y0198733D01*
X0471998Y0199282D01*
X0451488Y0199282D01*
X0453598Y0197171D01*
X0453598Y0195100D01*
X0448599Y0195100D01*
X0448599Y0195100D01*
X0453598Y0195100D01*
X0453598Y0193029D01*
X0450669Y0190100D01*
X0448598Y0190100D01*
X0448598Y0195100D01*
X0443598Y0195100D01*
X0443598Y0193029D01*
X0446527Y0190100D01*
X0448598Y0190100D01*
X0448598Y0195100D01*
X0448598Y0195100D01*
X0443598Y0195100D01*
X0443598Y0197171D01*
X0445709Y0199282D01*
X0170206Y0199282D01*
X0170501Y0198987D01*
X0170718Y0198858D01*
X0170982Y0198506D01*
X0171292Y0198195D01*
X0171389Y0197962D01*
X0171826Y0197379D01*
X0172023Y0197220D01*
X0172233Y0196834D01*
X0172497Y0196482D01*
X0172559Y0196237D01*
X0172908Y0195598D01*
X0173081Y0195413D01*
X0173234Y0195001D01*
X0173445Y0194615D01*
X0173472Y0194364D01*
X0173727Y0193681D01*
X0173871Y0193473D01*
X0173964Y0193044D01*
X0174118Y0192632D01*
X0174109Y0192379D01*
X0174264Y0191668D01*
X0174377Y0191441D01*
X0174408Y0191003D01*
X0174502Y0190574D01*
X0174457Y0190325D01*
X0174500Y0189723D01*
X0174548Y0189606D01*
X0174548Y0189043D01*
X0174589Y0188481D01*
X0174548Y0188361D01*
X0174548Y0186266D01*
X0174589Y0186145D01*
X0174548Y0185583D01*
X0174548Y0185020D01*
X0174500Y0184903D01*
X0174463Y0184383D01*
X0174507Y0184134D01*
X0174414Y0183705D01*
X0174383Y0183266D01*
X0174270Y0183040D01*
X0174132Y0182408D01*
X0174141Y0182156D01*
X0173987Y0181744D01*
X0173894Y0181314D01*
X0173750Y0181107D01*
X0173524Y0180501D01*
X0173497Y0180249D01*
X0173286Y0179864D01*
X0173133Y0179452D01*
X0172960Y0179267D01*
X0172650Y0178699D01*
X0172588Y0178454D01*
X0172324Y0178102D01*
X0172114Y0177717D01*
X0171917Y0177558D01*
X0171529Y0177040D01*
X0171433Y0176806D01*
X0171122Y0176496D01*
X0170858Y0176144D01*
X0170641Y0176015D01*
X0170184Y0175558D01*
X0170055Y0175340D01*
X0169703Y0175077D01*
X0169392Y0174766D01*
X0169158Y0174669D01*
X0168641Y0174282D01*
X0168482Y0174085D01*
X0168096Y0173874D01*
X0167744Y0173611D01*
X0167499Y0173548D01*
X0166932Y0173238D01*
X0166747Y0173066D01*
X0166335Y0172912D01*
X0165949Y0172702D01*
X0165698Y0172675D01*
X0165092Y0172449D01*
X0164884Y0172304D01*
X0164454Y0172211D01*
X0164043Y0172057D01*
X0163790Y0172066D01*
X0163158Y0171929D01*
X0162932Y0171816D01*
X0162494Y0171784D01*
X0162064Y0171691D01*
X0161815Y0171736D01*
X0161296Y0171699D01*
X0161178Y0171650D01*
X0160615Y0171650D01*
X0160053Y0171610D01*
X0159933Y0171650D01*
X0157264Y0171650D01*
X0157143Y0171610D01*
X0156582Y0171650D01*
X0156019Y0171650D01*
X0155901Y0171699D01*
X0155382Y0171736D01*
X0155133Y0171691D01*
X0154703Y0171784D01*
X0154265Y0171816D01*
X0154039Y0171929D01*
X0153407Y0172066D01*
X0153154Y0172057D01*
X0152742Y0172211D01*
X0152313Y0172304D01*
X0152105Y0172449D01*
X0151499Y0172675D01*
X0151248Y0172702D01*
X0150862Y0172912D01*
X0150450Y0173066D01*
X0150265Y0173238D01*
X0149698Y0173548D01*
X0149453Y0173611D01*
X0149101Y0173874D01*
X0148715Y0174085D01*
X0148556Y0174282D01*
X0148039Y0174669D01*
X0147805Y0174766D01*
X0147494Y0175077D01*
X0147142Y0175340D01*
X0147013Y0175558D01*
X0146556Y0176015D01*
X0146338Y0176144D01*
X0146075Y0176496D01*
X0145764Y0176806D01*
X0145668Y0177040D01*
X0145280Y0177558D01*
X0145083Y0177717D01*
X0144872Y0178102D01*
X0144609Y0178454D01*
X0144547Y0178699D01*
X0144237Y0179267D01*
X0144064Y0179452D01*
X0143911Y0179864D01*
X0143700Y0180249D01*
X0143673Y0180501D01*
X0143447Y0181107D01*
X0143303Y0181314D01*
X0143209Y0181744D01*
X0143056Y0182156D01*
X0143065Y0182408D01*
X0142927Y0183040D01*
X0142814Y0183266D01*
X0142783Y0183705D01*
X0142689Y0184134D01*
X0142734Y0184383D01*
X0142697Y0184903D01*
X0142648Y0185020D01*
X0142648Y0185583D01*
X0142608Y0186145D01*
X0142648Y0186266D01*
X0142648Y0188934D01*
X0142608Y0189055D01*
X0142648Y0189617D01*
X0142648Y0190180D01*
X0142697Y0190297D01*
X0142734Y0190817D01*
X0142689Y0191066D01*
X0142783Y0191495D01*
X0142814Y0191934D01*
X0142927Y0192160D01*
X0143065Y0192792D01*
X0143056Y0193044D01*
X0143209Y0193456D01*
X0143303Y0193886D01*
X0143447Y0194093D01*
X0143673Y0194699D01*
X0143700Y0194951D01*
X0143911Y0195336D01*
X0144064Y0195748D01*
X0144237Y0195933D01*
X0144547Y0196501D01*
X0144609Y0196746D01*
X0144872Y0197098D01*
X0145083Y0197483D01*
X0145280Y0197642D01*
X0145668Y0198160D01*
X0145764Y0198394D01*
X0146075Y0198704D01*
X0146338Y0199056D01*
X0146556Y0199185D01*
X0146653Y0199282D01*
X0066798Y0199282D01*
X0066798Y0186203D01*
X0067631Y0186548D01*
X0070196Y0186548D01*
X0072566Y0185566D01*
X0074380Y0183753D01*
X0075361Y0181383D01*
X0075361Y0178817D01*
X0074380Y0176447D01*
X0072566Y0174634D01*
X0070196Y0173652D01*
X0067631Y0173652D01*
X0066798Y0173997D01*
X0066798Y0158720D01*
X0068779Y0160700D01*
X0073418Y0160700D01*
X0076698Y0157420D01*
X0076698Y0152780D01*
X0073418Y0149500D01*
X0068779Y0149500D01*
X0066798Y0151480D01*
X0066798Y0136203D01*
X0067631Y0136548D01*
X0070196Y0136548D01*
X0072566Y0135566D01*
X0074380Y0133753D01*
X0075361Y0131383D01*
X0075361Y0128817D01*
X0074380Y0126447D01*
X0072566Y0124634D01*
X0070196Y0123652D01*
X0067631Y0123652D01*
X0066798Y0123997D01*
X0066798Y0108720D01*
X0068779Y0110700D01*
X0073418Y0110700D01*
X0076698Y0107420D01*
X0076698Y0102780D01*
X0073418Y0099500D01*
X0068779Y0099500D01*
X0066798Y0101480D01*
X0066798Y0086203D01*
X0067631Y0086548D01*
X0070196Y0086548D01*
X0072566Y0085566D01*
X0074380Y0083753D01*
X0075361Y0081383D01*
X0075361Y0078817D01*
X0074380Y0076447D01*
X0072566Y0074634D01*
X0070196Y0073652D01*
X0067631Y0073652D01*
X0066798Y0073997D01*
X0066798Y0058720D01*
X0068779Y0060700D01*
X0073418Y0060700D01*
X0076698Y0057420D01*
X0076698Y0052780D01*
X0073418Y0049500D01*
X0068779Y0049500D01*
X0066798Y0051480D01*
X0066798Y0036203D01*
X0067631Y0036548D01*
X0070196Y0036548D01*
X0072566Y0035566D01*
X0074380Y0033753D01*
X0075361Y0031383D01*
X0075361Y0028817D01*
X0074380Y0026447D01*
X0072566Y0024634D01*
X0070196Y0023652D01*
X0067631Y0023652D01*
X0066798Y0023997D01*
X0066798Y0023593D02*
X0119591Y0023593D01*
X0119591Y0025428D02*
X0119591Y0020087D01*
X0123369Y0016309D01*
X0128710Y0016309D01*
X0132487Y0020087D01*
X0132487Y0025428D01*
X0130237Y0027679D01*
X0132487Y0029929D01*
X0132487Y0035271D01*
X0130728Y0037030D01*
X0130945Y0037175D01*
X0131307Y0037537D01*
X0131591Y0037963D01*
X0131787Y0038436D01*
X0131887Y0038938D01*
X0131887Y0042442D01*
X0126039Y0042442D01*
X0120191Y0042442D01*
X0120191Y0038938D01*
X0120291Y0038436D01*
X0120487Y0037963D01*
X0120772Y0037537D01*
X0121134Y0037175D01*
X0121351Y0037030D01*
X0119591Y0035271D01*
X0119591Y0032379D01*
X0119191Y0033165D01*
X0118650Y0033910D01*
X0117999Y0034561D01*
X0117254Y0035102D01*
X0116434Y0035520D01*
X0115558Y0035804D01*
X0114649Y0035948D01*
X0114189Y0035948D01*
X0114189Y0030100D01*
X0114189Y0030100D01*
X0114189Y0024252D01*
X0114649Y0024252D01*
X0115558Y0024396D01*
X0116434Y0024680D01*
X0117254Y0025098D01*
X0117999Y0025639D01*
X0118650Y0026290D01*
X0119191Y0027035D01*
X0119609Y0027855D01*
X0119893Y0028731D01*
X0120016Y0029505D01*
X0121842Y0027679D01*
X0119591Y0025428D01*
X0119013Y0026791D02*
X0120954Y0026791D01*
X0114189Y0026791D02*
X0114189Y0026791D01*
X0114189Y0024252D02*
X0113729Y0024252D01*
X0112820Y0024396D01*
X0111944Y0024680D01*
X0111124Y0025098D01*
X0110379Y0025639D01*
X0109728Y0026290D01*
X0109187Y0027035D01*
X0108769Y0027855D01*
X0108619Y0028318D01*
X0107844Y0026447D01*
X0106030Y0024634D01*
X0103661Y0023652D01*
X0101095Y0023652D01*
X0098725Y0024634D01*
X0096912Y0026447D01*
X0095930Y0028817D01*
X0095930Y0031383D01*
X0096912Y0033753D01*
X0098725Y0035566D01*
X0101095Y0036548D01*
X0103661Y0036548D01*
X0106030Y0035566D01*
X0107844Y0033753D01*
X0108619Y0031882D01*
X0108769Y0032345D01*
X0109187Y0033165D01*
X0109728Y0033910D01*
X0110379Y0034561D01*
X0111124Y0035102D01*
X0111944Y0035520D01*
X0112820Y0035804D01*
X0113729Y0035948D01*
X0114189Y0035948D01*
X0114189Y0030100D01*
X0114189Y0030100D01*
X0114189Y0024252D01*
X0109364Y0026791D02*
X0107987Y0026791D01*
X0114189Y0029990D02*
X0114189Y0029990D01*
X0114189Y0033188D02*
X0114189Y0033188D01*
X0119174Y0033188D02*
X0119591Y0033188D01*
X0120707Y0036387D02*
X0104050Y0036387D01*
X0100706Y0036387D02*
X0070586Y0036387D01*
X0067241Y0036387D02*
X0066798Y0036387D01*
X0066798Y0039585D02*
X0120191Y0039585D01*
X0120191Y0042443D02*
X0126039Y0042443D01*
X0126039Y0048291D01*
X0122535Y0048291D01*
X0122033Y0048191D01*
X0121560Y0047995D01*
X0121134Y0047710D01*
X0120772Y0047348D01*
X0120487Y0046922D01*
X0120291Y0046449D01*
X0120191Y0045947D01*
X0120191Y0042443D01*
X0120191Y0042784D02*
X0066798Y0042784D01*
X0066798Y0045982D02*
X0120198Y0045982D01*
X0126039Y0045982D02*
X0126039Y0045982D01*
X0126039Y0048291D02*
X0126039Y0042443D01*
X0126039Y0042443D01*
X0126039Y0042442D01*
X0126039Y0042443D01*
X0131887Y0042443D01*
X0131887Y0045947D01*
X0131787Y0046449D01*
X0131591Y0046922D01*
X0131307Y0047348D01*
X0130945Y0047710D01*
X0130519Y0047995D01*
X0130046Y0048191D01*
X0129543Y0048291D01*
X0126039Y0048291D01*
X0131880Y0045982D02*
X0144265Y0045982D01*
X0144265Y0043546D02*
X0144752Y0042370D01*
X0145652Y0041470D01*
X0146828Y0040983D01*
X0160369Y0040983D01*
X0161545Y0041470D01*
X0162445Y0042370D01*
X0162932Y0043546D01*
X0162932Y0057087D01*
X0162445Y0058263D01*
X0161545Y0059163D01*
X0160369Y0059650D01*
X0146828Y0059650D01*
X0145652Y0059163D01*
X0144752Y0058263D01*
X0144265Y0057087D01*
X0144265Y0043546D01*
X0144580Y0042784D02*
X0131887Y0042784D01*
X0126039Y0042784D02*
X0126039Y0042784D01*
X0131887Y0039585D02*
X0199921Y0039585D01*
X0198791Y0039100D02*
X0193406Y0039100D01*
X0189598Y0035292D01*
X0189598Y0029908D01*
X0193406Y0026100D01*
X0198791Y0026100D01*
X0202598Y0029908D01*
X0202598Y0035292D01*
X0198791Y0039100D01*
X0201504Y0036387D02*
X0203119Y0036387D01*
X0209077Y0036387D02*
X0212398Y0036387D01*
X0212398Y0039585D02*
X0212276Y0039585D01*
X0219798Y0039585D02*
X0221194Y0039585D01*
X0219798Y0036387D02*
X0231351Y0036387D01*
X0231003Y0039585D02*
X0233605Y0039585D01*
X0231698Y0042784D02*
X0236098Y0042784D01*
X0236098Y0045982D02*
X0230636Y0045982D01*
X0226472Y0049181D02*
X0236098Y0049181D01*
X0236098Y0052379D02*
X0228048Y0052379D01*
X0227298Y0055578D02*
X0236098Y0055578D01*
X0236098Y0058776D02*
X0227298Y0058776D01*
X0227298Y0061975D02*
X0236098Y0061975D01*
X0236098Y0065173D02*
X0227298Y0065173D01*
X0227298Y0068372D02*
X0236098Y0068372D01*
X0236098Y0071570D02*
X0227298Y0071570D01*
X0227298Y0074769D02*
X0231010Y0074769D01*
X0236187Y0074769D02*
X0237610Y0074769D01*
X0239198Y0077967D02*
X0240809Y0077967D01*
X0240498Y0081166D02*
X0239198Y0081166D01*
X0240498Y0084364D02*
X0237254Y0084364D01*
X0240898Y0087563D02*
X0233598Y0087563D01*
X0232508Y0090761D02*
X0240898Y0090761D01*
X0240898Y0093960D02*
X0219798Y0093960D01*
X0219798Y0090761D02*
X0224689Y0090761D01*
X0228598Y0090761D02*
X0228598Y0090761D01*
X0223598Y0087563D02*
X0219798Y0087563D01*
X0219798Y0084364D02*
X0219943Y0084364D01*
X0212398Y0084364D02*
X0201698Y0084364D01*
X0201698Y0084920D02*
X0198418Y0088200D01*
X0193779Y0088200D01*
X0191098Y0085520D01*
X0188418Y0088200D01*
X0183779Y0088200D01*
X0180498Y0084920D01*
X0180498Y0080280D01*
X0183779Y0077000D01*
X0188418Y0077000D01*
X0191098Y0079680D01*
X0193779Y0077000D01*
X0198418Y0077000D01*
X0201698Y0080280D01*
X0201698Y0084920D01*
X0199055Y0087563D02*
X0212398Y0087563D01*
X0212398Y0090761D02*
X0203028Y0090761D01*
X0204798Y0093960D02*
X0212398Y0093960D01*
X0212398Y0097158D02*
X0204457Y0097158D01*
X0202109Y0100357D02*
X0212398Y0100357D01*
X0219798Y0100357D02*
X0240898Y0100357D01*
X0240898Y0097158D02*
X0219798Y0097158D01*
X0219798Y0103555D02*
X0240898Y0103555D01*
X0242898Y0106754D02*
X0219798Y0106754D01*
X0212398Y0106754D02*
X0204198Y0106754D01*
X0204198Y0103555D02*
X0212398Y0103555D01*
X0211648Y0109952D02*
X0202219Y0109952D01*
X0204798Y0113151D02*
X0212856Y0113151D01*
X0219341Y0113151D02*
X0263798Y0113151D01*
X0263798Y0109952D02*
X0220548Y0109952D01*
X0218357Y0116349D02*
X0206636Y0116349D01*
X0209835Y0119548D02*
X0218056Y0119548D01*
X0219300Y0122746D02*
X0213033Y0122746D01*
X0216232Y0125945D02*
X0234211Y0125945D01*
X0229142Y0122746D02*
X0228527Y0122746D01*
X0230762Y0129143D02*
X0219430Y0129143D01*
X0222169Y0132342D02*
X0229148Y0132342D01*
X0229898Y0135540D02*
X0227562Y0135540D01*
X0227943Y0138739D02*
X0229898Y0138739D01*
X0229898Y0141937D02*
X0227324Y0141937D01*
X0219848Y0140804D02*
X0219848Y0175100D01*
X0215294Y0177121D02*
X0209388Y0177121D01*
X0209798Y0180320D02*
X0220150Y0180320D01*
X0227550Y0180320D02*
X0229898Y0180320D01*
X0229898Y0177121D02*
X0227531Y0177121D01*
X0227512Y0173923D02*
X0229898Y0173923D01*
X0229898Y0170724D02*
X0227493Y0170724D01*
X0227475Y0167526D02*
X0229898Y0167526D01*
X0229898Y0164327D02*
X0227456Y0164327D01*
X0227437Y0161129D02*
X0229898Y0161129D01*
X0229898Y0157930D02*
X0227418Y0157930D01*
X0227399Y0154732D02*
X0229898Y0154732D01*
X0229898Y0151533D02*
X0227380Y0151533D01*
X0227362Y0148334D02*
X0229898Y0148334D01*
X0229898Y0145136D02*
X0227343Y0145136D01*
X0215048Y0145136D02*
X0192298Y0145136D01*
X0192298Y0148334D02*
X0215048Y0148334D01*
X0215048Y0151533D02*
X0192298Y0151533D01*
X0192298Y0154732D02*
X0206708Y0154732D01*
X0204999Y0157930D02*
X0192298Y0157930D01*
X0192298Y0161129D02*
X0205081Y0161129D01*
X0198952Y0164327D02*
X0198245Y0164327D01*
X0209198Y0167526D02*
X0215048Y0167526D01*
X0215048Y0170724D02*
X0208394Y0170724D01*
X0207298Y0173923D02*
X0214945Y0173923D01*
X0220169Y0183518D02*
X0208948Y0183518D01*
X0208983Y0186717D02*
X0220037Y0186717D01*
X0227569Y0183518D02*
X0229898Y0183518D01*
X0229879Y0186717D02*
X0227790Y0186717D01*
X0218056Y0189915D02*
X0209798Y0189915D01*
X0209353Y0193114D02*
X0218056Y0193114D01*
X0220818Y0196312D02*
X0172540Y0196312D01*
X0173949Y0193114D02*
X0177844Y0193114D01*
X0177398Y0189915D02*
X0174486Y0189915D01*
X0174548Y0186717D02*
X0178214Y0186717D01*
X0178303Y0183518D02*
X0174401Y0183518D01*
X0173504Y0180320D02*
X0177398Y0180320D01*
X0178121Y0177121D02*
X0171590Y0177121D01*
X0168185Y0173923D02*
X0182311Y0173923D01*
X0184886Y0173923D02*
X0184898Y0173923D01*
X0178803Y0170724D02*
X0178394Y0170724D01*
X0168803Y0170724D02*
X0149198Y0170724D01*
X0149198Y0169733D02*
X0149198Y0172420D01*
X0145918Y0175700D01*
X0141279Y0175700D01*
X0138174Y0172595D01*
X0135669Y0175100D01*
X0133598Y0175100D01*
X0131527Y0175100D01*
X0128742Y0172315D01*
X0128346Y0173272D01*
X0126771Y0174847D01*
X0124712Y0175700D01*
X0122485Y0175700D01*
X0120426Y0174847D01*
X0118851Y0173272D01*
X0118703Y0172915D01*
X0116768Y0174850D01*
X0117254Y0175098D01*
X0117999Y0175639D01*
X0118650Y0176290D01*
X0119191Y0177035D01*
X0119609Y0177855D01*
X0119893Y0178731D01*
X0120037Y0179640D01*
X0120037Y0180100D01*
X0120037Y0180560D01*
X0119893Y0181469D01*
X0119609Y0182345D01*
X0119191Y0183165D01*
X0118650Y0183910D01*
X0117999Y0184561D01*
X0117254Y0185102D01*
X0116434Y0185520D01*
X0115558Y0185804D01*
X0114649Y0185948D01*
X0114189Y0185948D01*
X0114189Y0180100D01*
X0120037Y0180100D01*
X0114189Y0180100D01*
X0114189Y0180100D01*
X0114189Y0180100D01*
X0114189Y0185948D01*
X0113729Y0185948D01*
X0112820Y0185804D01*
X0111944Y0185520D01*
X0111124Y0185102D01*
X0110379Y0184561D01*
X0109728Y0183910D01*
X0109187Y0183165D01*
X0108769Y0182345D01*
X0108619Y0181882D01*
X0107844Y0183753D01*
X0106030Y0185566D01*
X0103661Y0186548D01*
X0101095Y0186548D01*
X0098725Y0185566D01*
X0096912Y0183753D01*
X0095930Y0181383D01*
X0095930Y0178817D01*
X0096912Y0176447D01*
X0098725Y0174634D01*
X0101095Y0173652D01*
X0103661Y0173652D01*
X0106030Y0174634D01*
X0107844Y0176447D01*
X0108619Y0178318D01*
X0108769Y0177855D01*
X0109187Y0177035D01*
X0109728Y0176290D01*
X0110379Y0175639D01*
X0110865Y0175286D01*
X0107998Y0172420D01*
X0107998Y0167780D01*
X0111279Y0164500D01*
X0115918Y0164500D01*
X0118703Y0167285D01*
X0118851Y0166928D01*
X0120426Y0165353D01*
X0122485Y0164500D01*
X0124712Y0164500D01*
X0126771Y0165353D01*
X0128346Y0166928D01*
X0128742Y0167885D01*
X0131527Y0165100D01*
X0133598Y0165100D01*
X0133598Y0170100D01*
X0133598Y0175100D01*
X0133598Y0170100D01*
X0133598Y0170100D01*
X0133598Y0170100D01*
X0133598Y0165100D01*
X0135669Y0165100D01*
X0138174Y0167605D01*
X0141279Y0164500D01*
X0143966Y0164500D01*
X0147998Y0160467D01*
X0147998Y0157780D01*
X0151279Y0154500D01*
X0155918Y0154500D01*
X0158598Y0157180D01*
X0161279Y0154500D01*
X0165918Y0154500D01*
X0169198Y0157780D01*
X0169198Y0162420D01*
X0165918Y0165700D01*
X0161279Y0165700D01*
X0158598Y0163020D01*
X0155918Y0165700D01*
X0153231Y0165700D01*
X0149198Y0169733D01*
X0151405Y0167526D02*
X0167998Y0167526D01*
X0167291Y0164327D02*
X0168952Y0164327D01*
X0178245Y0164327D02*
X0178952Y0164327D01*
X0184898Y0161129D02*
X0169198Y0161129D01*
X0169198Y0157930D02*
X0184898Y0157930D01*
X0184898Y0154732D02*
X0166150Y0154732D01*
X0161047Y0154732D02*
X0156150Y0154732D01*
X0151047Y0154732D02*
X0106698Y0154732D01*
X0106698Y0152780D02*
X0103418Y0149500D01*
X0098779Y0149500D01*
X0095498Y0152780D01*
X0095498Y0157420D01*
X0098779Y0160700D01*
X0103418Y0160700D01*
X0106698Y0157420D01*
X0106698Y0152780D01*
X0105451Y0151533D02*
X0184898Y0151533D01*
X0184898Y0148334D02*
X0066798Y0148334D01*
X0066798Y0145136D02*
X0110715Y0145136D01*
X0116482Y0145136D02*
X0119309Y0145136D01*
X0127888Y0145136D02*
X0130715Y0145136D01*
X0136482Y0145136D02*
X0140715Y0145136D01*
X0146482Y0145136D02*
X0184898Y0145136D01*
X0183598Y0141937D02*
X0183598Y0141937D01*
X0180865Y0141937D02*
X0177181Y0141937D01*
X0170016Y0141937D02*
X0168598Y0141937D01*
X0163598Y0141937D02*
X0163598Y0141937D01*
X0163598Y0138739D02*
X0163598Y0138739D01*
X0158598Y0138739D02*
X0158598Y0138739D01*
X0158598Y0141937D02*
X0158598Y0141937D01*
X0153598Y0141937D02*
X0153598Y0141937D01*
X0153599Y0140100D02*
X0153599Y0140100D01*
X0153598Y0138739D02*
X0153598Y0138739D01*
X0153598Y0135540D02*
X0153598Y0135540D01*
X0151087Y0135540D02*
X0146958Y0135540D01*
X0156110Y0135540D02*
X0161087Y0135540D01*
X0163598Y0135540D02*
X0163598Y0135540D01*
X0166110Y0135540D02*
X0167998Y0135540D01*
X0170937Y0132342D02*
X0119610Y0132342D01*
X0120037Y0130100D02*
X0114189Y0130100D01*
X0114189Y0130100D01*
X0120037Y0130100D01*
X0119958Y0129143D02*
X0179909Y0129143D01*
X0183108Y0132342D02*
X0176260Y0132342D01*
X0176711Y0125945D02*
X0118304Y0125945D01*
X0114189Y0125945D02*
X0114189Y0125945D01*
X0114189Y0124252D02*
X0114189Y0130100D01*
X0114189Y0130100D01*
X0114189Y0124252D01*
X0114790Y0122746D02*
X0066798Y0122746D01*
X0073877Y0125945D02*
X0097414Y0125945D01*
X0095930Y0129143D02*
X0075361Y0129143D01*
X0074964Y0132342D02*
X0096327Y0132342D01*
X0098700Y0135540D02*
X0072592Y0135540D01*
X0066798Y0138739D02*
X0107998Y0138739D01*
X0107998Y0141937D02*
X0066798Y0141937D01*
X0075451Y0151533D02*
X0096746Y0151533D01*
X0095498Y0154732D02*
X0076698Y0154732D01*
X0076188Y0157930D02*
X0096009Y0157930D01*
X0106188Y0157930D02*
X0147998Y0157930D01*
X0147337Y0161129D02*
X0066798Y0161129D01*
X0066798Y0164327D02*
X0144139Y0164327D01*
X0138253Y0167526D02*
X0138095Y0167526D01*
X0133598Y0167526D02*
X0133598Y0167526D01*
X0129102Y0167526D02*
X0128593Y0167526D01*
X0133598Y0170724D02*
X0133598Y0170724D01*
X0133598Y0173923D02*
X0133598Y0173923D01*
X0130350Y0173923D02*
X0127695Y0173923D01*
X0119501Y0173923D02*
X0117695Y0173923D01*
X0109501Y0173923D02*
X0104314Y0173923D01*
X0100442Y0173923D02*
X0070849Y0173923D01*
X0066977Y0173923D02*
X0066798Y0173923D01*
X0066798Y0170724D02*
X0107998Y0170724D01*
X0108253Y0167526D02*
X0066798Y0167526D01*
X0074659Y0177121D02*
X0096633Y0177121D01*
X0095930Y0180320D02*
X0075361Y0180320D01*
X0074477Y0183518D02*
X0096814Y0183518D01*
X0107941Y0183518D02*
X0109444Y0183518D01*
X0114189Y0183518D02*
X0114189Y0183518D01*
X0118934Y0183518D02*
X0142796Y0183518D01*
X0142648Y0186717D02*
X0066798Y0186717D01*
X0066798Y0189915D02*
X0106712Y0189915D01*
X0106098Y0190529D02*
X0109027Y0187600D01*
X0111098Y0187600D01*
X0111098Y0192600D01*
X0106098Y0192600D01*
X0106098Y0190529D01*
X0106098Y0192600D02*
X0111098Y0192600D01*
X0111098Y0192600D01*
X0111098Y0197600D01*
X0109027Y0197600D01*
X0106098Y0194671D01*
X0106098Y0192600D01*
X0106098Y0193114D02*
X0066798Y0193114D01*
X0066798Y0196312D02*
X0107740Y0196312D01*
X0111098Y0196312D02*
X0111098Y0196312D01*
X0111098Y0197600D02*
X0111098Y0192600D01*
X0111098Y0192600D01*
X0111098Y0192600D01*
X0111098Y0187600D01*
X0113169Y0187600D01*
X0115498Y0189929D01*
X0115498Y0189563D01*
X0115986Y0188387D01*
X0116886Y0187487D01*
X0118062Y0187000D01*
X0124135Y0187000D01*
X0125311Y0187487D01*
X0126211Y0188387D01*
X0126698Y0189563D01*
X0126698Y0195637D01*
X0126211Y0196813D01*
X0125311Y0197713D01*
X0124135Y0198200D01*
X0118062Y0198200D01*
X0116886Y0197713D01*
X0115986Y0196813D01*
X0115498Y0195637D01*
X0115498Y0195271D01*
X0113169Y0197600D01*
X0111098Y0197600D01*
X0114457Y0196312D02*
X0115778Y0196312D01*
X0111098Y0193114D02*
X0111098Y0193114D01*
X0111098Y0189915D02*
X0111098Y0189915D01*
X0115485Y0189915D02*
X0115498Y0189915D01*
X0126698Y0189915D02*
X0142648Y0189915D01*
X0143082Y0193114D02*
X0126698Y0193114D01*
X0126419Y0196312D02*
X0144444Y0196312D01*
X0143692Y0180320D02*
X0120037Y0180320D01*
X0119235Y0177121D02*
X0145607Y0177121D01*
X0147695Y0173923D02*
X0149012Y0173923D01*
X0139501Y0173923D02*
X0136847Y0173923D01*
X0157291Y0164327D02*
X0159906Y0164327D01*
X0114189Y0180320D02*
X0114189Y0180320D01*
X0109143Y0177121D02*
X0108123Y0177121D01*
X0193598Y0142600D02*
X0193598Y0137600D01*
X0193598Y0132600D01*
X0195669Y0132600D01*
X0198174Y0135105D01*
X0201279Y0132000D01*
X0205918Y0132000D01*
X0209198Y0135280D01*
X0209198Y0139920D01*
X0205918Y0143200D01*
X0201279Y0143200D01*
X0198174Y0140095D01*
X0195669Y0142600D01*
X0193598Y0142600D01*
X0193598Y0141937D02*
X0193598Y0141937D01*
X0196332Y0141937D02*
X0200016Y0141937D01*
X0193598Y0138739D02*
X0193598Y0138739D01*
X0193598Y0135540D02*
X0193598Y0135540D01*
X0192298Y0132342D02*
X0200937Y0132342D01*
X0206260Y0132342D02*
X0209052Y0132342D01*
X0205854Y0129143D02*
X0190374Y0129143D01*
X0187176Y0125945D02*
X0202655Y0125945D01*
X0199457Y0122746D02*
X0183977Y0122746D01*
X0184278Y0119548D02*
X0180779Y0119548D01*
X0182398Y0116349D02*
X0119596Y0116349D01*
X0114382Y0113151D02*
X0182398Y0113151D01*
X0184978Y0109952D02*
X0161666Y0109952D01*
X0160918Y0110700D02*
X0156279Y0110700D01*
X0152998Y0107420D01*
X0152998Y0102780D01*
X0156279Y0099500D01*
X0160918Y0099500D01*
X0164198Y0102780D01*
X0164198Y0107420D01*
X0160918Y0110700D01*
X0155531Y0109952D02*
X0131666Y0109952D01*
X0130918Y0110700D02*
X0126279Y0110700D01*
X0122998Y0107420D01*
X0122998Y0102780D01*
X0126279Y0099500D01*
X0130918Y0099500D01*
X0134198Y0102780D01*
X0134198Y0107420D01*
X0130918Y0110700D01*
X0125531Y0109952D02*
X0111183Y0109952D01*
X0103917Y0113151D02*
X0066798Y0113151D01*
X0066798Y0109952D02*
X0068031Y0109952D01*
X0074166Y0109952D02*
X0098031Y0109952D01*
X0095498Y0106754D02*
X0076698Y0106754D01*
X0076698Y0103555D02*
X0095498Y0103555D01*
X0097922Y0100357D02*
X0074275Y0100357D01*
X0067922Y0100357D02*
X0066798Y0100357D01*
X0066798Y0097158D02*
X0166086Y0097158D01*
X0168598Y0097158D02*
X0168598Y0097158D01*
X0171111Y0097158D02*
X0173831Y0097158D01*
X0168598Y0093960D02*
X0168598Y0093960D01*
X0168598Y0090761D02*
X0168598Y0090761D01*
X0163598Y0090761D02*
X0066798Y0090761D01*
X0066798Y0093960D02*
X0163598Y0093960D01*
X0161775Y0100357D02*
X0185087Y0100357D01*
X0182998Y0103555D02*
X0164198Y0103555D01*
X0164198Y0106754D02*
X0182998Y0106754D01*
X0188599Y0105100D02*
X0192998Y0105100D01*
X0198598Y0105100D01*
X0188599Y0105100D01*
X0188599Y0105100D01*
X0198598Y0105100D02*
X0198598Y0105100D01*
X0198599Y0105100D02*
X0198599Y0105100D01*
X0198598Y0115100D02*
X0216699Y0133201D01*
X0212251Y0135540D02*
X0209198Y0135540D01*
X0209198Y0138739D02*
X0214652Y0138739D01*
X0215048Y0141937D02*
X0207181Y0141937D01*
X0219849Y0140804D02*
X0219846Y0140548D01*
X0219837Y0140292D01*
X0219822Y0140037D01*
X0219800Y0139782D01*
X0219773Y0139527D01*
X0219740Y0139274D01*
X0219700Y0139021D01*
X0219655Y0138769D01*
X0219603Y0138518D01*
X0219546Y0138269D01*
X0219483Y0138021D01*
X0219413Y0137775D01*
X0219338Y0137530D01*
X0219258Y0137287D01*
X0219171Y0137046D01*
X0219079Y0136808D01*
X0218981Y0136571D01*
X0218877Y0136337D01*
X0218768Y0136106D01*
X0218654Y0135877D01*
X0218534Y0135651D01*
X0218408Y0135427D01*
X0218278Y0135207D01*
X0218142Y0134990D01*
X0218001Y0134777D01*
X0217855Y0134567D01*
X0217704Y0134360D01*
X0217548Y0134157D01*
X0217388Y0133958D01*
X0217223Y0133762D01*
X0217053Y0133571D01*
X0216878Y0133384D01*
X0216700Y0133200D01*
X0183598Y0138739D02*
X0183598Y0138739D01*
X0140238Y0135540D02*
X0136958Y0135540D01*
X0130238Y0135540D02*
X0128364Y0135540D01*
X0118832Y0135540D02*
X0116958Y0135540D01*
X0110238Y0135540D02*
X0106056Y0135540D01*
X0108429Y0132342D02*
X0108768Y0132342D01*
X0114189Y0129143D02*
X0114189Y0129143D01*
X0110074Y0125945D02*
X0107342Y0125945D01*
X0110314Y0119548D02*
X0066798Y0119548D01*
X0066798Y0116349D02*
X0107115Y0116349D01*
X0107985Y0106754D02*
X0122998Y0106754D01*
X0122998Y0103555D02*
X0106698Y0103555D01*
X0104275Y0100357D02*
X0125422Y0100357D01*
X0131775Y0100357D02*
X0155422Y0100357D01*
X0152998Y0103555D02*
X0134198Y0103555D01*
X0134198Y0106754D02*
X0152998Y0106754D01*
X0192919Y0119548D02*
X0194278Y0119548D01*
X0249298Y0106754D02*
X0263798Y0106754D01*
X0263798Y0103555D02*
X0251298Y0103555D01*
X0251298Y0100357D02*
X0263798Y0100357D01*
X0263798Y0097158D02*
X0251298Y0097158D01*
X0251298Y0093960D02*
X0263679Y0093960D01*
X0268598Y0095100D02*
X0268598Y0123920D01*
X0268596Y0124056D01*
X0268591Y0124193D01*
X0268581Y0124329D01*
X0268568Y0124464D01*
X0268552Y0124600D01*
X0268531Y0124735D01*
X0268507Y0124869D01*
X0268479Y0125002D01*
X0268448Y0125135D01*
X0268413Y0125267D01*
X0268375Y0125398D01*
X0268333Y0125527D01*
X0268287Y0125656D01*
X0268238Y0125783D01*
X0268185Y0125909D01*
X0268129Y0126033D01*
X0268070Y0126156D01*
X0268071Y0126156D02*
X0266362Y0129572D01*
X0266098Y0130690D02*
X0266098Y0170100D01*
X0271080Y0170724D02*
X0337398Y0170724D01*
X0337398Y0173923D02*
X0269320Y0173923D01*
X0264798Y0177121D02*
X0337398Y0177121D01*
X0337398Y0180320D02*
X0264798Y0180320D01*
X0264798Y0183518D02*
X0282361Y0183518D01*
X0280498Y0186717D02*
X0267160Y0186717D01*
X0269141Y0189915D02*
X0280498Y0189915D01*
X0280498Y0193114D02*
X0269141Y0193114D01*
X0266379Y0196312D02*
X0281991Y0196312D01*
X0290206Y0196312D02*
X0291991Y0196312D01*
X0300206Y0196312D02*
X0301991Y0196312D01*
X0310206Y0196312D02*
X0311991Y0196312D01*
X0320206Y0196312D02*
X0322840Y0196312D01*
X0326098Y0196312D02*
X0326098Y0196312D01*
X0329357Y0196312D02*
X0331991Y0196312D01*
X0340206Y0196312D02*
X0341991Y0196312D01*
X0350206Y0196312D02*
X0356991Y0196312D01*
X0355498Y0193114D02*
X0351698Y0193114D01*
X0351698Y0189915D02*
X0355498Y0189915D01*
X0355498Y0186717D02*
X0354118Y0186717D01*
X0354798Y0183518D02*
X0357361Y0183518D01*
X0357398Y0180320D02*
X0354798Y0180320D01*
X0354798Y0177121D02*
X0357398Y0177121D01*
X0332361Y0183518D02*
X0328849Y0183518D01*
X0326098Y0183518D02*
X0326098Y0183518D01*
X0323348Y0183518D02*
X0319836Y0183518D01*
X0312361Y0183518D02*
X0309836Y0183518D01*
X0302361Y0183518D02*
X0299836Y0183518D01*
X0292361Y0183518D02*
X0289836Y0183518D01*
X0260188Y0196312D02*
X0256536Y0196312D01*
X0250346Y0196312D02*
X0246694Y0196312D01*
X0240503Y0196312D02*
X0236851Y0196312D01*
X0230661Y0196312D02*
X0227009Y0196312D01*
X0270898Y0167526D02*
X0283598Y0167526D01*
X0280794Y0164327D02*
X0280291Y0164327D01*
X0288599Y0167526D02*
X0293598Y0167526D01*
X0298599Y0167526D02*
X0313598Y0167526D01*
X0310794Y0164327D02*
X0310762Y0164327D01*
X0306098Y0164327D02*
X0306098Y0164327D01*
X0301435Y0164327D02*
X0301403Y0164327D01*
X0306098Y0161129D02*
X0306098Y0161129D01*
X0306098Y0157930D02*
X0306098Y0157930D01*
X0306098Y0154732D02*
X0306098Y0154732D01*
X0302075Y0154732D02*
X0300930Y0154732D01*
X0297298Y0151533D02*
X0332398Y0151533D01*
X0331267Y0154732D02*
X0330122Y0154732D01*
X0326098Y0154732D02*
X0326098Y0154732D01*
X0322075Y0154732D02*
X0320930Y0154732D01*
X0326098Y0157930D02*
X0326098Y0157930D01*
X0326098Y0161129D02*
X0326098Y0161129D01*
X0326098Y0164327D02*
X0326098Y0164327D01*
X0321435Y0164327D02*
X0321403Y0164327D01*
X0318599Y0167526D02*
X0333598Y0167526D01*
X0330794Y0164327D02*
X0330762Y0164327D01*
X0311267Y0154732D02*
X0310122Y0154732D01*
X0297298Y0148334D02*
X0332398Y0148334D01*
X0331648Y0145136D02*
X0297298Y0145136D01*
X0297298Y0141937D02*
X0332968Y0141937D01*
X0337398Y0138739D02*
X0297298Y0138739D01*
X0297298Y0135540D02*
X0337398Y0135540D01*
X0337398Y0132342D02*
X0297298Y0132342D01*
X0297298Y0129143D02*
X0304421Y0129143D01*
X0312776Y0129143D02*
X0337398Y0129143D01*
X0336711Y0125945D02*
X0312730Y0125945D01*
X0312298Y0122746D02*
X0333512Y0122746D01*
X0330314Y0119548D02*
X0312298Y0119548D01*
X0312298Y0116349D02*
X0327834Y0116349D01*
X0327398Y0113151D02*
X0312298Y0113151D01*
X0312298Y0109952D02*
X0327398Y0109952D01*
X0327398Y0106754D02*
X0312298Y0106754D01*
X0312298Y0103555D02*
X0327398Y0103555D01*
X0327398Y0100357D02*
X0312298Y0100357D01*
X0312298Y0097158D02*
X0327398Y0097158D01*
X0327398Y0093960D02*
X0312298Y0093960D01*
X0312298Y0090761D02*
X0326527Y0090761D01*
X0323329Y0087563D02*
X0312298Y0087563D01*
X0314198Y0084364D02*
X0320324Y0084364D01*
X0314245Y0081166D02*
X0314198Y0081166D01*
X0304898Y0087563D02*
X0301555Y0087563D01*
X0304898Y0090761D02*
X0297298Y0090761D01*
X0297298Y0093960D02*
X0304898Y0093960D01*
X0304898Y0097158D02*
X0297298Y0097158D01*
X0297298Y0100357D02*
X0304898Y0100357D01*
X0304898Y0103555D02*
X0297298Y0103555D01*
X0297298Y0106754D02*
X0304898Y0106754D01*
X0304898Y0109952D02*
X0297298Y0109952D01*
X0297298Y0113151D02*
X0304898Y0113151D01*
X0304898Y0116349D02*
X0297298Y0116349D01*
X0297298Y0119548D02*
X0304898Y0119548D01*
X0304898Y0122746D02*
X0297298Y0122746D01*
X0297298Y0125945D02*
X0304467Y0125945D01*
X0266362Y0129572D02*
X0266320Y0129659D01*
X0266282Y0129748D01*
X0266248Y0129838D01*
X0266216Y0129930D01*
X0266189Y0130022D01*
X0266165Y0130116D01*
X0266145Y0130210D01*
X0266128Y0130305D01*
X0266115Y0130401D01*
X0266105Y0130497D01*
X0266100Y0130593D01*
X0266098Y0130690D01*
X0354798Y0103555D02*
X0391735Y0103555D01*
X0395462Y0103555D02*
X0427398Y0103555D01*
X0427398Y0106754D02*
X0398048Y0106754D01*
X0401183Y0109952D02*
X0429683Y0109952D01*
X0427398Y0113151D02*
X0404382Y0113151D01*
X0407580Y0116349D02*
X0427398Y0116349D01*
X0429278Y0119548D02*
X0410779Y0119548D01*
X0413977Y0122746D02*
X0427398Y0122746D01*
X0427398Y0125945D02*
X0416918Y0125945D01*
X0417298Y0129143D02*
X0428874Y0129143D01*
X0438323Y0129143D02*
X0438874Y0129143D01*
X0447398Y0132342D02*
X0417298Y0132342D01*
X0417298Y0135540D02*
X0447398Y0135540D01*
X0447398Y0138739D02*
X0417298Y0138739D01*
X0417298Y0141937D02*
X0447398Y0141937D01*
X0447398Y0145136D02*
X0431367Y0145136D01*
X0434566Y0148334D02*
X0449100Y0148334D01*
X0452299Y0151533D02*
X0437764Y0151533D01*
X0439798Y0154732D02*
X0455497Y0154732D01*
X0458696Y0157930D02*
X0439798Y0157930D01*
X0439798Y0161129D02*
X0461894Y0161129D01*
X0464898Y0164327D02*
X0439798Y0164327D01*
X0438905Y0167526D02*
X0455753Y0167526D01*
X0450918Y0169500D02*
X0454198Y0172780D01*
X0454198Y0177420D01*
X0450918Y0180700D01*
X0446279Y0180700D01*
X0442998Y0177420D01*
X0442998Y0172780D01*
X0446279Y0169500D01*
X0450918Y0169500D01*
X0452142Y0170724D02*
X0455498Y0170724D01*
X0454198Y0173923D02*
X0457001Y0173923D01*
X0454198Y0177121D02*
X0464898Y0177121D01*
X0464898Y0180320D02*
X0451298Y0180320D01*
X0445898Y0180320D02*
X0415898Y0180320D01*
X0415898Y0177121D02*
X0442998Y0177121D01*
X0442998Y0173923D02*
X0415898Y0173923D01*
X0411098Y0170100D02*
X0411098Y0190100D01*
X0421098Y0190100D02*
X0421098Y0197500D01*
X0421492Y0197500D01*
X0422269Y0197377D01*
X0423018Y0197134D01*
X0423719Y0196776D01*
X0424356Y0196314D01*
X0424912Y0195757D01*
X0425375Y0195121D01*
X0425732Y0194419D01*
X0425975Y0193671D01*
X0426098Y0192894D01*
X0426098Y0190100D01*
X0421099Y0190100D01*
X0426098Y0190100D01*
X0426098Y0187306D01*
X0425975Y0186529D01*
X0425732Y0185781D01*
X0425375Y0185079D01*
X0424912Y0184443D01*
X0424356Y0183886D01*
X0423719Y0183424D01*
X0423018Y0183066D01*
X0422269Y0182823D01*
X0421492Y0182700D01*
X0421098Y0182700D01*
X0421098Y0190100D01*
X0421099Y0190100D02*
X0421099Y0190100D01*
X0421098Y0189915D02*
X0421098Y0189915D01*
X0421098Y0193114D02*
X0421098Y0193114D01*
X0426064Y0193114D02*
X0426133Y0193114D01*
X0426098Y0192894D02*
X0426098Y0190100D01*
X0426098Y0187306D01*
X0426222Y0186529D01*
X0426465Y0185781D01*
X0426822Y0185079D01*
X0427285Y0184443D01*
X0427841Y0183886D01*
X0428478Y0183424D01*
X0429179Y0183066D01*
X0429928Y0182823D01*
X0430705Y0182700D01*
X0431098Y0182700D01*
X0431098Y0190100D01*
X0426098Y0190100D01*
X0431098Y0190100D01*
X0431098Y0190100D01*
X0431098Y0197500D01*
X0430705Y0197500D01*
X0429928Y0197377D01*
X0429179Y0197134D01*
X0428478Y0196776D01*
X0427841Y0196314D01*
X0427285Y0195757D01*
X0426822Y0195121D01*
X0426465Y0194419D01*
X0426222Y0193671D01*
X0426098Y0192894D01*
X0426098Y0189915D02*
X0426098Y0189915D01*
X0431098Y0189915D02*
X0431098Y0189915D01*
X0431098Y0190100D02*
X0431098Y0182700D01*
X0431492Y0182700D01*
X0432269Y0182823D01*
X0433018Y0183066D01*
X0433719Y0183424D01*
X0434356Y0183886D01*
X0434912Y0184443D01*
X0435375Y0185079D01*
X0435732Y0185781D01*
X0435975Y0186529D01*
X0436098Y0187306D01*
X0436098Y0190100D01*
X0431099Y0190100D01*
X0436098Y0190100D01*
X0436098Y0192894D01*
X0435975Y0193671D01*
X0435732Y0194419D01*
X0435375Y0195121D01*
X0434912Y0195757D01*
X0434356Y0196314D01*
X0433719Y0196776D01*
X0433018Y0197134D01*
X0432269Y0197377D01*
X0431492Y0197500D01*
X0431098Y0197500D01*
X0431098Y0190100D01*
X0431098Y0190100D01*
X0431098Y0190100D01*
X0431099Y0190100D02*
X0431099Y0190100D01*
X0431098Y0193114D02*
X0431098Y0193114D01*
X0436064Y0193114D02*
X0443598Y0193114D01*
X0448598Y0193114D02*
X0448598Y0193114D01*
X0448598Y0195100D02*
X0448598Y0195100D01*
X0443598Y0196312D02*
X0434357Y0196312D01*
X0431098Y0196312D02*
X0431098Y0196312D01*
X0427840Y0196312D02*
X0424357Y0196312D01*
X0421098Y0196312D02*
X0421098Y0196312D01*
X0417840Y0196312D02*
X0415206Y0196312D01*
X0406991Y0196312D02*
X0405206Y0196312D01*
X0396991Y0196312D02*
X0395206Y0196312D01*
X0386991Y0196312D02*
X0385206Y0196312D01*
X0376991Y0196312D02*
X0375206Y0196312D01*
X0366991Y0196312D02*
X0365206Y0196312D01*
X0326098Y0193114D02*
X0326098Y0193114D01*
X0326098Y0189915D02*
X0326098Y0189915D01*
X0326098Y0186717D02*
X0326098Y0186717D01*
X0401098Y0175100D02*
X0401098Y0160100D01*
X0435707Y0170724D02*
X0445055Y0170724D01*
X0433849Y0183518D02*
X0464898Y0183518D01*
X0464898Y0186717D02*
X0464786Y0186717D01*
X0461098Y0186717D02*
X0461098Y0186717D01*
X0457411Y0186717D02*
X0436005Y0186717D01*
X0431098Y0186717D02*
X0431098Y0186717D01*
X0431098Y0183518D02*
X0431098Y0183518D01*
X0428348Y0183518D02*
X0423849Y0183518D01*
X0421098Y0183518D02*
X0421098Y0183518D01*
X0418348Y0183518D02*
X0415898Y0183518D01*
X0421098Y0186717D02*
X0421098Y0186717D01*
X0426005Y0186717D02*
X0426192Y0186717D01*
X0436098Y0189915D02*
X0456098Y0189915D01*
X0457041Y0193114D02*
X0453598Y0193114D01*
X0453598Y0196312D02*
X0469578Y0196312D01*
X0466380Y0193114D02*
X0465156Y0193114D01*
X0461098Y0193114D02*
X0461098Y0193114D01*
X0461098Y0189915D02*
X0461098Y0189915D01*
X0429573Y0100357D02*
X0354798Y0100357D01*
X0354798Y0097158D02*
X0427398Y0097158D01*
X0427398Y0093960D02*
X0377295Y0093960D01*
X0377332Y0093773D02*
X0377232Y0094276D01*
X0377036Y0094749D01*
X0376752Y0095175D01*
X0376390Y0095537D01*
X0375964Y0095821D01*
X0375491Y0096017D01*
X0374988Y0096117D01*
X0369065Y0096117D01*
X0369065Y0087850D01*
X0368131Y0087850D01*
X0368131Y0086917D01*
X0359865Y0086917D01*
X0359865Y0080994D01*
X0359964Y0080491D01*
X0360160Y0080018D01*
X0360445Y0079592D01*
X0360807Y0079230D01*
X0361233Y0078946D01*
X0361706Y0078750D01*
X0362208Y0078650D01*
X0368131Y0078650D01*
X0368131Y0086916D01*
X0369065Y0086916D01*
X0369065Y0078650D01*
X0374988Y0078650D01*
X0375491Y0078750D01*
X0375964Y0078946D01*
X0376390Y0079230D01*
X0376752Y0079592D01*
X0377036Y0080018D01*
X0377232Y0080491D01*
X0377332Y0080994D01*
X0377332Y0086917D01*
X0369065Y0086917D01*
X0369065Y0087850D01*
X0377332Y0087850D01*
X0377332Y0093773D01*
X0377332Y0090761D02*
X0429169Y0090761D01*
X0427398Y0087563D02*
X0369065Y0087563D01*
X0368131Y0087563D02*
X0348794Y0087563D01*
X0347298Y0084364D02*
X0359865Y0084364D01*
X0359865Y0087850D02*
X0368131Y0087850D01*
X0368131Y0096117D01*
X0362208Y0096117D01*
X0361706Y0096017D01*
X0361233Y0095821D01*
X0360807Y0095537D01*
X0360445Y0095175D01*
X0360160Y0094749D01*
X0359964Y0094276D01*
X0359865Y0093773D01*
X0359865Y0087850D01*
X0368131Y0084364D02*
X0369065Y0084364D01*
X0377332Y0084364D02*
X0427398Y0084364D01*
X0428765Y0081166D02*
X0377332Y0081166D01*
X0381098Y0077171D02*
X0384027Y0080100D01*
X0386098Y0080100D01*
X0386098Y0075100D01*
X0381098Y0075100D01*
X0381098Y0073029D01*
X0384027Y0070100D01*
X0386098Y0070100D01*
X0386098Y0075100D01*
X0386098Y0075100D01*
X0381098Y0075100D01*
X0381098Y0077171D01*
X0381895Y0077967D02*
X0353598Y0077967D01*
X0353598Y0077600D02*
X0353598Y0079671D01*
X0350669Y0082600D01*
X0348598Y0082600D01*
X0348598Y0077600D01*
X0348598Y0072600D01*
X0350669Y0072600D01*
X0353598Y0075529D01*
X0353598Y0077600D01*
X0348599Y0077600D01*
X0353598Y0077600D01*
X0352838Y0074769D02*
X0381098Y0074769D01*
X0382557Y0071570D02*
X0347298Y0071570D01*
X0348598Y0074769D02*
X0348598Y0074769D01*
X0348599Y0077600D02*
X0348599Y0077600D01*
X0348598Y0077967D02*
X0348598Y0077967D01*
X0348598Y0081166D02*
X0348598Y0081166D01*
X0352104Y0081166D02*
X0359865Y0081166D01*
X0368131Y0081166D02*
X0369065Y0081166D01*
X0386098Y0080100D02*
X0386098Y0075100D01*
X0386098Y0075100D01*
X0386098Y0075100D01*
X0386098Y0070100D01*
X0388169Y0070100D01*
X0391098Y0073029D01*
X0391098Y0075100D01*
X0386099Y0075100D01*
X0391098Y0075100D01*
X0391098Y0077171D01*
X0388169Y0080100D01*
X0386098Y0080100D01*
X0386098Y0077967D02*
X0386098Y0077967D01*
X0390302Y0077967D02*
X0411046Y0077967D01*
X0410498Y0074769D02*
X0391098Y0074769D01*
X0389640Y0071570D02*
X0411709Y0071570D01*
X0417594Y0068372D02*
X0347298Y0068372D01*
X0347298Y0065173D02*
X0413252Y0065173D01*
X0418945Y0065173D02*
X0428598Y0065173D01*
X0433599Y0065100D02*
X0438598Y0065100D01*
X0438598Y0063800D01*
X0447066Y0063800D01*
X0449898Y0066633D01*
X0449898Y0066634D01*
X0449334Y0066400D01*
X0438598Y0066400D01*
X0438598Y0065100D01*
X0433599Y0065100D01*
X0433599Y0065100D01*
X0438598Y0065173D02*
X0448439Y0065173D01*
X0447066Y0073800D02*
X0438598Y0073800D01*
X0438598Y0075100D01*
X0433599Y0075100D01*
X0438598Y0075100D01*
X0438598Y0077171D01*
X0436518Y0079251D01*
X0438598Y0081332D01*
X0441030Y0078900D01*
X0446167Y0078900D01*
X0447398Y0080132D01*
X0447398Y0074133D01*
X0447066Y0073800D01*
X0447398Y0074769D02*
X0438598Y0074769D01*
X0433599Y0075100D02*
X0433599Y0075100D01*
X0428598Y0074769D02*
X0421698Y0074769D01*
X0421151Y0077967D02*
X0429395Y0077967D01*
X0437802Y0077967D02*
X0447398Y0077967D01*
X0438765Y0081166D02*
X0438432Y0081166D01*
X0410498Y0061975D02*
X0391098Y0061975D01*
X0391098Y0062171D02*
X0388169Y0065100D01*
X0386098Y0065100D01*
X0384027Y0065100D01*
X0381098Y0062171D01*
X0381098Y0060100D01*
X0381098Y0058029D01*
X0384027Y0055100D01*
X0386098Y0055100D01*
X0386098Y0060100D01*
X0381098Y0060100D01*
X0386098Y0060100D01*
X0386098Y0060100D01*
X0386098Y0065100D01*
X0386098Y0060100D01*
X0386098Y0060100D01*
X0386098Y0060100D01*
X0386098Y0055100D01*
X0388169Y0055100D01*
X0391098Y0058029D01*
X0391098Y0060100D01*
X0386099Y0060100D01*
X0391098Y0060100D01*
X0391098Y0062171D01*
X0386098Y0061975D02*
X0386098Y0061975D01*
X0386099Y0060100D02*
X0386099Y0060100D01*
X0386098Y0058776D02*
X0386098Y0058776D01*
X0386098Y0055578D02*
X0386098Y0055578D01*
X0383550Y0055578D02*
X0354198Y0055578D01*
X0354198Y0058776D02*
X0381098Y0058776D01*
X0388647Y0055578D02*
X0412701Y0055578D01*
X0410498Y0058776D02*
X0391098Y0058776D01*
X0381098Y0061975D02*
X0352143Y0061975D01*
X0334522Y0053756D02*
X0333174Y0055105D01*
X0330669Y0052600D01*
X0328598Y0052600D01*
X0328598Y0057600D01*
X0328598Y0062600D01*
X0326527Y0062600D01*
X0324023Y0060095D01*
X0322298Y0061820D01*
X0322298Y0066067D01*
X0325694Y0069463D01*
X0326735Y0070504D01*
X0327298Y0071864D01*
X0327298Y0072000D01*
X0329898Y0072000D01*
X0329898Y0062600D01*
X0328598Y0062600D01*
X0328598Y0057600D01*
X0328598Y0057600D01*
X0328598Y0057600D01*
X0328598Y0052600D01*
X0326527Y0052600D01*
X0324023Y0055105D01*
X0320918Y0052000D01*
X0316279Y0052000D01*
X0314198Y0054080D01*
X0314198Y0050280D01*
X0311518Y0047600D01*
X0313598Y0045520D01*
X0316279Y0048200D01*
X0320918Y0048200D01*
X0323598Y0045520D01*
X0326279Y0048200D01*
X0328966Y0048200D01*
X0334522Y0053756D01*
X0333145Y0052379D02*
X0321297Y0052379D01*
X0315900Y0052379D02*
X0314198Y0052379D01*
X0313099Y0049181D02*
X0329946Y0049181D01*
X0324061Y0045982D02*
X0323136Y0045982D01*
X0314061Y0045982D02*
X0313136Y0045982D01*
X0313503Y0039585D02*
X0313694Y0039585D01*
X0303694Y0039585D02*
X0303503Y0039585D01*
X0293694Y0039585D02*
X0282666Y0039585D01*
X0282999Y0039329D02*
X0282071Y0040042D01*
X0281057Y0040627D01*
X0279975Y0041075D01*
X0278844Y0041378D01*
X0277684Y0041531D01*
X0277664Y0041531D01*
X0277664Y0033165D01*
X0286029Y0033165D01*
X0286029Y0033185D01*
X0285876Y0034346D01*
X0285573Y0035477D01*
X0285125Y0036558D01*
X0284540Y0037572D01*
X0283827Y0038501D01*
X0282999Y0039329D01*
X0285196Y0036387D02*
X0335341Y0036387D01*
X0333694Y0039585D02*
X0333503Y0039585D01*
X0341856Y0036387D02*
X0359465Y0036387D01*
X0357998Y0033188D02*
X0343580Y0033188D01*
X0342909Y0029990D02*
X0358289Y0029990D01*
X0368908Y0029990D02*
X0381098Y0029990D01*
X0381098Y0030100D02*
X0381098Y0028029D01*
X0384027Y0025100D01*
X0386098Y0025100D01*
X0386098Y0030100D01*
X0381098Y0030100D01*
X0386098Y0030100D01*
X0386098Y0030100D01*
X0386098Y0035100D01*
X0384027Y0035100D01*
X0381098Y0032171D01*
X0381098Y0030100D01*
X0382115Y0033188D02*
X0373758Y0033188D01*
X0373169Y0032600D02*
X0376098Y0035529D01*
X0376098Y0037600D01*
X0371099Y0037600D01*
X0376098Y0037600D01*
X0376098Y0039671D01*
X0373169Y0042600D01*
X0371098Y0042600D01*
X0371098Y0037600D01*
X0371098Y0032600D01*
X0373169Y0032600D01*
X0371098Y0033188D02*
X0371098Y0033188D01*
X0371098Y0036387D02*
X0371098Y0036387D01*
X0371099Y0037600D02*
X0371099Y0037600D01*
X0371098Y0039585D02*
X0371098Y0039585D01*
X0376098Y0039585D02*
X0413694Y0039585D01*
X0417152Y0036387D02*
X0376098Y0036387D01*
X0381098Y0043029D02*
X0384027Y0040100D01*
X0386098Y0040100D01*
X0386098Y0045100D01*
X0381098Y0045100D01*
X0381098Y0043029D01*
X0381344Y0042784D02*
X0369198Y0042784D01*
X0368136Y0045982D02*
X0381098Y0045982D01*
X0381098Y0045100D02*
X0386098Y0045100D01*
X0386098Y0045100D01*
X0386098Y0050100D01*
X0384027Y0050100D01*
X0381098Y0047171D01*
X0381098Y0045100D01*
X0386098Y0045100D02*
X0386098Y0045100D01*
X0386098Y0045100D01*
X0386098Y0040100D01*
X0388169Y0040100D01*
X0391098Y0043029D01*
X0391098Y0045100D01*
X0386099Y0045100D01*
X0391098Y0045100D01*
X0391098Y0047171D01*
X0388169Y0050100D01*
X0386098Y0050100D01*
X0386098Y0045100D01*
X0386099Y0045100D02*
X0386099Y0045100D01*
X0386098Y0045982D02*
X0386098Y0045982D01*
X0386098Y0042784D02*
X0386098Y0042784D01*
X0390853Y0042784D02*
X0410498Y0042784D01*
X0410498Y0045982D02*
X0391098Y0045982D01*
X0389089Y0049181D02*
X0412259Y0049181D01*
X0416895Y0052379D02*
X0351297Y0052379D01*
X0345900Y0052379D02*
X0343610Y0052379D01*
X0340412Y0049181D02*
X0383108Y0049181D01*
X0386098Y0049181D02*
X0386098Y0049181D01*
X0418503Y0039585D02*
X0420351Y0039585D01*
X0427618Y0036387D02*
X0429182Y0036387D01*
X0425679Y0033188D02*
X0424419Y0033188D01*
X0423721Y0029990D02*
X0421698Y0029990D01*
X0420709Y0026791D02*
X0422804Y0026791D01*
X0422648Y0023593D02*
X0342598Y0023593D01*
X0342598Y0026791D02*
X0382336Y0026791D01*
X0386098Y0026791D02*
X0386098Y0026791D01*
X0386098Y0025100D02*
X0388169Y0025100D01*
X0391098Y0028029D01*
X0391098Y0030100D01*
X0386099Y0030100D01*
X0391098Y0030100D01*
X0391098Y0032171D01*
X0388169Y0035100D01*
X0386098Y0035100D01*
X0386098Y0030100D01*
X0386098Y0030100D01*
X0386098Y0030100D01*
X0386098Y0025100D01*
X0389861Y0026791D02*
X0411488Y0026791D01*
X0410498Y0029990D02*
X0391098Y0029990D01*
X0390081Y0033188D02*
X0411267Y0033188D01*
X0386098Y0033188D02*
X0386098Y0033188D01*
X0386099Y0030100D02*
X0386099Y0030100D01*
X0386098Y0029990D02*
X0386098Y0029990D01*
X0422648Y0020394D02*
X0342598Y0020394D01*
X0342598Y0017196D02*
X0345274Y0017196D01*
X0351922Y0017196D02*
X0423057Y0017196D01*
X0424384Y0013997D02*
X0354198Y0013997D01*
X0334598Y0017196D02*
X0331074Y0017196D01*
X0328598Y0017196D02*
X0328598Y0017196D01*
X0326123Y0017196D02*
X0321922Y0017196D01*
X0315274Y0017196D02*
X0311922Y0017196D01*
X0305274Y0017196D02*
X0301922Y0017196D01*
X0295274Y0017196D02*
X0262120Y0017196D01*
X0262298Y0020394D02*
X0334598Y0020394D01*
X0334598Y0023593D02*
X0262298Y0023593D01*
X0266268Y0026791D02*
X0270299Y0026791D01*
X0270370Y0026699D02*
X0271197Y0025871D01*
X0272126Y0025158D01*
X0273140Y0024573D01*
X0274222Y0024125D01*
X0275352Y0023822D01*
X0276513Y0023669D01*
X0276533Y0023669D01*
X0276533Y0032035D01*
X0268168Y0032035D01*
X0268168Y0032015D01*
X0268321Y0030854D01*
X0268624Y0029723D01*
X0269072Y0028642D01*
X0269657Y0027628D01*
X0270370Y0026699D01*
X0268552Y0029990D02*
X0267833Y0029990D01*
X0268168Y0033165D02*
X0276533Y0033165D01*
X0276533Y0032035D01*
X0277664Y0032035D01*
X0277664Y0033165D01*
X0276533Y0033165D01*
X0276533Y0041531D01*
X0276513Y0041531D01*
X0275352Y0041378D01*
X0274222Y0041075D01*
X0273140Y0040627D01*
X0272126Y0040042D01*
X0271197Y0039329D01*
X0270370Y0038501D01*
X0269657Y0037572D01*
X0269072Y0036558D01*
X0268624Y0035477D01*
X0268321Y0034346D01*
X0268168Y0033185D01*
X0268168Y0033165D01*
X0268168Y0033188D02*
X0268129Y0033188D01*
X0267346Y0036387D02*
X0269000Y0036387D01*
X0271531Y0039585D02*
X0265092Y0039585D01*
X0252105Y0039585D02*
X0246592Y0039585D01*
X0248846Y0036387D02*
X0249851Y0036387D01*
X0249364Y0029990D02*
X0249333Y0029990D01*
X0247768Y0026791D02*
X0250929Y0026791D01*
X0254898Y0023593D02*
X0243257Y0023593D01*
X0236939Y0023593D02*
X0231698Y0023593D01*
X0232429Y0026791D02*
X0229827Y0026791D01*
X0222370Y0026791D02*
X0219798Y0026791D01*
X0219798Y0023593D02*
X0220498Y0023593D01*
X0212398Y0026791D02*
X0211100Y0026791D01*
X0201097Y0026791D02*
X0199482Y0026791D01*
X0199598Y0023593D02*
X0160113Y0023593D01*
X0154065Y0023593D02*
X0153131Y0023593D01*
X0147084Y0023593D02*
X0132487Y0023593D01*
X0131125Y0026791D02*
X0192715Y0026791D01*
X0189598Y0029990D02*
X0132487Y0029990D01*
X0132487Y0033188D02*
X0189598Y0033188D01*
X0190693Y0036387D02*
X0131372Y0036387D01*
X0109204Y0033188D02*
X0108078Y0033188D01*
X0096678Y0033188D02*
X0074614Y0033188D01*
X0075361Y0029990D02*
X0095930Y0029990D01*
X0096769Y0026791D02*
X0074522Y0026791D01*
X0066798Y0020394D02*
X0119591Y0020394D01*
X0122482Y0017196D02*
X0066798Y0017196D01*
X0066798Y0013997D02*
X0144865Y0013997D01*
X0144865Y0017196D02*
X0129596Y0017196D01*
X0132487Y0020394D02*
X0144865Y0020394D01*
X0153131Y0020394D02*
X0154065Y0020394D01*
X0154065Y0017196D02*
X0153131Y0017196D01*
X0162332Y0017196D02*
X0202311Y0017196D01*
X0199598Y0020394D02*
X0162332Y0020394D01*
X0162332Y0013997D02*
X0214469Y0013997D01*
X0212576Y0017196D02*
X0209886Y0017196D01*
X0219798Y0020394D02*
X0220498Y0020394D01*
X0231698Y0020394D02*
X0254898Y0020394D01*
X0260228Y0013997D02*
X0292998Y0013997D01*
X0282999Y0025871D02*
X0282071Y0025158D01*
X0281057Y0024573D01*
X0279975Y0024125D01*
X0278844Y0023822D01*
X0277684Y0023669D01*
X0277664Y0023669D01*
X0277664Y0032035D01*
X0286029Y0032035D01*
X0286029Y0032015D01*
X0285876Y0030854D01*
X0285573Y0029723D01*
X0285125Y0028642D01*
X0284540Y0027628D01*
X0283827Y0026699D01*
X0282999Y0025871D01*
X0283898Y0026791D02*
X0334598Y0026791D01*
X0334288Y0029990D02*
X0285645Y0029990D01*
X0286029Y0033188D02*
X0333617Y0033188D01*
X0343503Y0039585D02*
X0343694Y0039585D01*
X0344061Y0045982D02*
X0343136Y0045982D01*
X0323694Y0039585D02*
X0323503Y0039585D01*
X0294947Y0049181D02*
X0275599Y0049181D01*
X0276698Y0052379D02*
X0283400Y0052379D01*
X0288797Y0052379D02*
X0293598Y0052379D01*
X0294505Y0055578D02*
X0291698Y0055578D01*
X0291698Y0058776D02*
X0292190Y0058776D01*
X0280498Y0055578D02*
X0276040Y0055578D01*
X0274798Y0058776D02*
X0279690Y0058776D01*
X0276491Y0061975D02*
X0274798Y0061975D01*
X0267398Y0061975D02*
X0262143Y0061975D01*
X0264198Y0058776D02*
X0267398Y0058776D01*
X0266157Y0055578D02*
X0264198Y0055578D01*
X0265498Y0052379D02*
X0261297Y0052379D01*
X0255900Y0052379D02*
X0251698Y0052379D01*
X0250599Y0049181D02*
X0266598Y0049181D01*
X0252998Y0055578D02*
X0251040Y0055578D01*
X0252190Y0058776D02*
X0244098Y0058776D01*
X0244098Y0061975D02*
X0250076Y0061975D01*
X0249898Y0065173D02*
X0244098Y0065173D01*
X0244098Y0068372D02*
X0249898Y0068372D01*
X0257298Y0068372D02*
X0267398Y0068372D01*
X0267398Y0065173D02*
X0257298Y0065173D01*
X0257298Y0071570D02*
X0267398Y0071570D01*
X0267398Y0074769D02*
X0263687Y0074769D01*
X0264198Y0077967D02*
X0267812Y0077967D01*
X0265498Y0081166D02*
X0262952Y0081166D01*
X0263095Y0084364D02*
X0265498Y0084364D01*
X0255829Y0087563D02*
X0251298Y0087563D01*
X0251698Y0084364D02*
X0252630Y0084364D01*
X0251298Y0090761D02*
X0259027Y0090761D01*
X0249898Y0074769D02*
X0248924Y0074769D01*
X0249898Y0071570D02*
X0245726Y0071570D01*
X0274798Y0071570D02*
X0274898Y0071570D01*
X0274898Y0068372D02*
X0274798Y0068372D01*
X0274798Y0065173D02*
X0274898Y0065173D01*
X0322298Y0065173D02*
X0329898Y0065173D01*
X0329898Y0068372D02*
X0324603Y0068372D01*
X0327177Y0071570D02*
X0329898Y0071570D01*
X0328598Y0061975D02*
X0328598Y0061975D01*
X0325902Y0061975D02*
X0322298Y0061975D01*
X0328598Y0058776D02*
X0328598Y0058776D01*
X0328598Y0055578D02*
X0328598Y0055578D01*
X0294061Y0045982D02*
X0244098Y0045982D01*
X0244098Y0042784D02*
X0292998Y0042784D01*
X0277664Y0039585D02*
X0276533Y0039585D01*
X0276533Y0036387D02*
X0277664Y0036387D01*
X0277664Y0033188D02*
X0276533Y0033188D01*
X0276533Y0029990D02*
X0277664Y0029990D01*
X0277664Y0026791D02*
X0276533Y0026791D01*
X0230864Y0029990D02*
X0219798Y0029990D01*
X0219798Y0033188D02*
X0230568Y0033188D01*
X0212398Y0033188D02*
X0202598Y0033188D01*
X0202598Y0029990D02*
X0212398Y0029990D01*
X0219798Y0042784D02*
X0220498Y0042784D01*
X0219798Y0045982D02*
X0221561Y0045982D01*
X0212398Y0045982D02*
X0211909Y0045982D01*
X0212398Y0049181D02*
X0200599Y0049181D01*
X0201698Y0050280D02*
X0198418Y0047000D01*
X0193779Y0047000D01*
X0191098Y0049680D01*
X0188418Y0047000D01*
X0183779Y0047000D01*
X0180498Y0050280D01*
X0180498Y0054920D01*
X0183779Y0058200D01*
X0188418Y0058200D01*
X0191098Y0055520D01*
X0193779Y0058200D01*
X0198418Y0058200D01*
X0201698Y0054920D01*
X0201698Y0050280D01*
X0201698Y0052379D02*
X0205900Y0052379D01*
X0211297Y0052379D02*
X0212398Y0052379D01*
X0219798Y0049181D02*
X0220725Y0049181D01*
X0202998Y0055578D02*
X0201040Y0055578D01*
X0202998Y0058776D02*
X0161932Y0058776D01*
X0162932Y0055578D02*
X0181157Y0055578D01*
X0180498Y0052379D02*
X0162932Y0052379D01*
X0162932Y0049181D02*
X0181598Y0049181D01*
X0190599Y0049181D02*
X0191598Y0049181D01*
X0200288Y0045982D02*
X0162932Y0045982D01*
X0162616Y0042784D02*
X0199598Y0042784D01*
X0191157Y0055578D02*
X0191040Y0055578D01*
X0205054Y0061975D02*
X0066798Y0061975D01*
X0066798Y0065173D02*
X0212398Y0065173D01*
X0212398Y0068372D02*
X0066798Y0068372D01*
X0066798Y0071570D02*
X0212398Y0071570D01*
X0203510Y0074769D02*
X0174107Y0074769D01*
X0173934Y0074680D02*
X0174754Y0075098D01*
X0175499Y0075639D01*
X0176150Y0076290D01*
X0176691Y0077035D01*
X0177109Y0077855D01*
X0177393Y0078731D01*
X0177537Y0079640D01*
X0177537Y0080100D01*
X0177537Y0080560D01*
X0177393Y0081469D01*
X0177109Y0082345D01*
X0176691Y0083165D01*
X0176150Y0083910D01*
X0175499Y0084561D01*
X0174754Y0085102D01*
X0173934Y0085520D01*
X0173058Y0085804D01*
X0172149Y0085948D01*
X0171689Y0085948D01*
X0171689Y0080100D01*
X0177537Y0080100D01*
X0171689Y0080100D01*
X0171689Y0080100D01*
X0171689Y0080100D01*
X0171689Y0074252D01*
X0172149Y0074252D01*
X0173058Y0074396D01*
X0173934Y0074680D01*
X0171689Y0074769D02*
X0171689Y0074769D01*
X0171689Y0074252D02*
X0171689Y0080100D01*
X0171689Y0080100D01*
X0171689Y0085948D01*
X0171229Y0085948D01*
X0170320Y0085804D01*
X0169444Y0085520D01*
X0168624Y0085102D01*
X0167879Y0084561D01*
X0167228Y0083910D01*
X0166687Y0083165D01*
X0166269Y0082345D01*
X0166119Y0081882D01*
X0165344Y0083753D01*
X0163530Y0085566D01*
X0161161Y0086548D01*
X0158595Y0086548D01*
X0156225Y0085566D01*
X0154412Y0083753D01*
X0153430Y0081383D01*
X0153430Y0078817D01*
X0154412Y0076447D01*
X0156225Y0074634D01*
X0158595Y0073652D01*
X0161161Y0073652D01*
X0163530Y0074634D01*
X0165344Y0076447D01*
X0166119Y0078318D01*
X0166269Y0077855D01*
X0166687Y0077035D01*
X0167228Y0076290D01*
X0167879Y0075639D01*
X0168624Y0075098D01*
X0169444Y0074680D01*
X0170320Y0074396D01*
X0171229Y0074252D01*
X0171689Y0074252D01*
X0169271Y0074769D02*
X0163666Y0074769D01*
X0165974Y0077967D02*
X0166233Y0077967D01*
X0171689Y0077967D02*
X0171689Y0077967D01*
X0171689Y0081166D02*
X0171689Y0081166D01*
X0177441Y0081166D02*
X0180498Y0081166D01*
X0182812Y0077967D02*
X0177145Y0077967D01*
X0189385Y0077967D02*
X0192812Y0077967D01*
X0199385Y0077967D02*
X0202998Y0077967D01*
X0204245Y0081166D02*
X0201698Y0081166D01*
X0193142Y0087563D02*
X0189055Y0087563D01*
X0183142Y0087563D02*
X0182887Y0087563D01*
X0180498Y0084364D02*
X0175695Y0084364D01*
X0174310Y0087563D02*
X0066798Y0087563D01*
X0073768Y0084364D02*
X0097523Y0084364D01*
X0096912Y0083753D02*
X0095930Y0081383D01*
X0095930Y0078817D01*
X0096912Y0076447D01*
X0098725Y0074634D01*
X0101095Y0073652D01*
X0103661Y0073652D01*
X0106030Y0074634D01*
X0107844Y0076447D01*
X0108619Y0078318D01*
X0108769Y0077855D01*
X0109187Y0077035D01*
X0109728Y0076290D01*
X0110379Y0075639D01*
X0111124Y0075098D01*
X0111944Y0074680D01*
X0112820Y0074396D01*
X0113729Y0074252D01*
X0114189Y0074252D01*
X0114649Y0074252D01*
X0115558Y0074396D01*
X0116434Y0074680D01*
X0117254Y0075098D01*
X0117999Y0075639D01*
X0118650Y0076290D01*
X0119191Y0077035D01*
X0119609Y0077855D01*
X0119893Y0078731D01*
X0119965Y0079187D01*
X0119965Y0078817D01*
X0120947Y0076447D01*
X0122761Y0074634D01*
X0125131Y0073652D01*
X0127696Y0073652D01*
X0130066Y0074634D01*
X0131880Y0076447D01*
X0132861Y0078817D01*
X0132861Y0081383D01*
X0131880Y0083753D01*
X0130066Y0085566D01*
X0127696Y0086548D01*
X0125131Y0086548D01*
X0122761Y0085566D01*
X0120947Y0083753D01*
X0119965Y0081383D01*
X0119965Y0081013D01*
X0119893Y0081469D01*
X0119609Y0082345D01*
X0119191Y0083165D01*
X0118650Y0083910D01*
X0117999Y0084561D01*
X0117254Y0085102D01*
X0116434Y0085520D01*
X0115558Y0085804D01*
X0114649Y0085948D01*
X0114189Y0085948D01*
X0114189Y0080100D01*
X0114189Y0080100D01*
X0114189Y0074252D01*
X0114189Y0080100D01*
X0114189Y0080100D01*
X0114189Y0085948D01*
X0113729Y0085948D01*
X0112820Y0085804D01*
X0111944Y0085520D01*
X0111124Y0085102D01*
X0110379Y0084561D01*
X0109728Y0083910D01*
X0109187Y0083165D01*
X0108769Y0082345D01*
X0108619Y0081882D01*
X0107844Y0083753D01*
X0106030Y0085566D01*
X0103661Y0086548D01*
X0101095Y0086548D01*
X0098725Y0085566D01*
X0096912Y0083753D01*
X0095930Y0081166D02*
X0075361Y0081166D01*
X0075009Y0077967D02*
X0096282Y0077967D01*
X0098590Y0074769D02*
X0072701Y0074769D01*
X0106166Y0074769D02*
X0111771Y0074769D01*
X0114189Y0074769D02*
X0114189Y0074769D01*
X0116607Y0074769D02*
X0122626Y0074769D01*
X0120317Y0077967D02*
X0119645Y0077967D01*
X0119941Y0081166D02*
X0119965Y0081166D01*
X0114189Y0081166D02*
X0114189Y0081166D01*
X0114189Y0077967D02*
X0114189Y0077967D01*
X0108733Y0077967D02*
X0108474Y0077967D01*
X0107233Y0084364D02*
X0110183Y0084364D01*
X0114189Y0084364D02*
X0114189Y0084364D01*
X0118195Y0084364D02*
X0121559Y0084364D01*
X0131268Y0084364D02*
X0155023Y0084364D01*
X0153430Y0081166D02*
X0132861Y0081166D01*
X0132509Y0077967D02*
X0153782Y0077967D01*
X0156090Y0074769D02*
X0130201Y0074769D01*
X0164733Y0084364D02*
X0167683Y0084364D01*
X0171689Y0084364D02*
X0171689Y0084364D01*
X0193028Y0090761D02*
X0194169Y0090761D01*
X0212143Y0061975D02*
X0212398Y0061975D01*
X0145265Y0058776D02*
X0105342Y0058776D01*
X0106698Y0057420D02*
X0103418Y0060700D01*
X0098779Y0060700D01*
X0095498Y0057420D01*
X0095498Y0052780D01*
X0098779Y0049500D01*
X0103418Y0049500D01*
X0106698Y0052780D01*
X0106698Y0057420D01*
X0106698Y0055578D02*
X0144265Y0055578D01*
X0144265Y0052379D02*
X0106297Y0052379D01*
X0095900Y0052379D02*
X0076297Y0052379D01*
X0076698Y0055578D02*
X0095498Y0055578D01*
X0096855Y0058776D02*
X0075342Y0058776D01*
X0066855Y0058776D02*
X0066798Y0058776D01*
X0066798Y0049181D02*
X0144265Y0049181D01*
X0328598Y0013997D02*
X0328598Y0013997D01*
X0421698Y0042784D02*
X0423549Y0042784D01*
X0421698Y0045982D02*
X0428598Y0045982D01*
X0433599Y0045100D02*
X0438598Y0045100D01*
X0438598Y0043800D01*
X0447066Y0043800D01*
X0454898Y0051633D01*
X0454898Y0053667D01*
X0449235Y0048004D01*
X0448194Y0046963D01*
X0446834Y0046400D01*
X0438598Y0046400D01*
X0438598Y0045100D01*
X0433599Y0045100D01*
X0433599Y0045100D01*
X0438598Y0045982D02*
X0449248Y0045982D01*
X0450412Y0049181D02*
X0452446Y0049181D01*
X0453610Y0052379D02*
X0454898Y0052379D01*
X0447166Y0056400D02*
X0444566Y0053800D01*
X0438598Y0053800D01*
X0438598Y0055100D01*
X0433599Y0055100D01*
X0438598Y0055100D01*
X0438598Y0056400D01*
X0447166Y0056400D01*
X0446344Y0055578D02*
X0438598Y0055578D01*
X0433599Y0055100D02*
X0433599Y0055100D01*
X0428598Y0055578D02*
X0419496Y0055578D01*
X0386098Y0071570D02*
X0386098Y0071570D01*
X0386098Y0074769D02*
X0386098Y0074769D01*
X0386099Y0075100D02*
X0386099Y0075100D01*
X0369065Y0090761D02*
X0368131Y0090761D01*
X0368131Y0093960D02*
X0369065Y0093960D01*
X0359902Y0093960D02*
X0354631Y0093960D01*
X0351992Y0090761D02*
X0359865Y0090761D01*
D25*
X0268598Y0095100D03*
X0246098Y0102600D03*
X0266098Y0170100D03*
X0219848Y0175100D03*
X0401098Y0175100D03*
X0411098Y0170100D03*
X0338598Y0032600D03*
D26*
X0338598Y0012600D01*
X0348598Y0042600D02*
X0363598Y0042600D01*
X0246098Y0078636D02*
X0246098Y0082600D01*
X0246098Y0078636D02*
X0246096Y0078538D01*
X0246090Y0078440D01*
X0246081Y0078342D01*
X0246067Y0078245D01*
X0246050Y0078148D01*
X0246029Y0078052D01*
X0246004Y0077957D01*
X0245976Y0077863D01*
X0245943Y0077771D01*
X0245908Y0077679D01*
X0245868Y0077589D01*
X0245826Y0077501D01*
X0245779Y0077414D01*
X0245730Y0077330D01*
X0245677Y0077247D01*
X0245621Y0077167D01*
X0245561Y0077088D01*
X0245499Y0077012D01*
X0245434Y0076939D01*
X0245366Y0076868D01*
X0240626Y0072128D01*
X0240098Y0070853D02*
X0240098Y0032600D01*
X0240098Y0070853D02*
X0240100Y0070936D01*
X0240106Y0071019D01*
X0240115Y0071102D01*
X0240129Y0071184D01*
X0240146Y0071266D01*
X0240167Y0071346D01*
X0240191Y0071426D01*
X0240220Y0071504D01*
X0240252Y0071581D01*
X0240287Y0071657D01*
X0240326Y0071730D01*
X0240368Y0071802D01*
X0240414Y0071872D01*
X0240462Y0071940D01*
X0240514Y0072005D01*
X0240569Y0072068D01*
X0240626Y0072128D01*
D27*
X0253598Y0079064D02*
X0253598Y0063636D01*
X0254331Y0061868D02*
X0258598Y0057600D01*
X0254330Y0061868D02*
X0254262Y0061939D01*
X0254197Y0062012D01*
X0254135Y0062088D01*
X0254075Y0062167D01*
X0254019Y0062247D01*
X0253966Y0062330D01*
X0253917Y0062414D01*
X0253870Y0062501D01*
X0253828Y0062589D01*
X0253788Y0062679D01*
X0253753Y0062771D01*
X0253720Y0062863D01*
X0253692Y0062957D01*
X0253667Y0063052D01*
X0253646Y0063148D01*
X0253629Y0063245D01*
X0253615Y0063342D01*
X0253606Y0063440D01*
X0253600Y0063538D01*
X0253598Y0063636D01*
X0271098Y0074064D02*
X0271098Y0052600D01*
X0279331Y0064368D02*
X0286098Y0057600D01*
X0288598Y0067600D02*
X0303598Y0052600D01*
X0303598Y0047600D01*
X0308598Y0042600D01*
X0328598Y0042600D02*
X0343598Y0057600D01*
X0343598Y0087600D01*
X0351098Y0095100D01*
X0351098Y0106564D01*
X0349330Y0108332D02*
X0349262Y0108261D01*
X0349197Y0108188D01*
X0349135Y0108112D01*
X0349075Y0108033D01*
X0349019Y0107953D01*
X0348966Y0107870D01*
X0348917Y0107786D01*
X0348870Y0107699D01*
X0348828Y0107611D01*
X0348788Y0107521D01*
X0348753Y0107429D01*
X0348720Y0107337D01*
X0348692Y0107243D01*
X0348667Y0107148D01*
X0348646Y0107052D01*
X0348629Y0106955D01*
X0348615Y0106858D01*
X0348606Y0106760D01*
X0348600Y0106662D01*
X0348598Y0106564D01*
X0348598Y0095100D01*
X0333598Y0080100D01*
X0333598Y0062600D01*
X0338598Y0057600D01*
X0318598Y0057600D02*
X0318598Y0067600D01*
X0323598Y0072600D01*
X0323598Y0082600D01*
X0330063Y0089064D01*
X0331098Y0091564D02*
X0331098Y0114064D01*
X0331831Y0115832D02*
X0340366Y0124368D01*
X0341098Y0126136D02*
X0341098Y0185100D01*
X0336098Y0190100D01*
X0346098Y0190100D02*
X0350063Y0186136D01*
X0351098Y0183636D02*
X0351098Y0127600D01*
X0346098Y0130100D02*
X0346098Y0160100D01*
X0336098Y0160100D02*
X0336098Y0145100D01*
X0356098Y0135100D02*
X0356098Y0170100D01*
X0361098Y0175100D01*
X0361098Y0190100D01*
X0371098Y0190100D02*
X0371098Y0172600D01*
X0366098Y0167600D01*
X0366098Y0137600D01*
X0371098Y0140100D02*
X0371098Y0160100D01*
X0361098Y0160100D02*
X0361098Y0142600D01*
X0376098Y0147600D02*
X0381098Y0142600D01*
X0381098Y0130100D01*
X0386098Y0132600D02*
X0386098Y0167600D01*
X0391098Y0172600D01*
X0391098Y0190100D01*
X0381098Y0190100D02*
X0381098Y0172600D01*
X0376098Y0167600D01*
X0376098Y0147600D01*
X0381098Y0147600D02*
X0381098Y0160100D01*
X0391098Y0160100D02*
X0391098Y0145100D01*
X0408598Y0151350D02*
X0411098Y0153850D01*
X0414848Y0153850D01*
X0416098Y0155100D01*
X0416098Y0163850D01*
X0418598Y0166350D01*
X0424848Y0166350D01*
X0431098Y0160100D01*
X0436098Y0165100D02*
X0432348Y0168850D01*
X0417348Y0168850D01*
X0411098Y0162600D01*
X0411098Y0160100D01*
X0421098Y0160100D02*
X0421098Y0152600D01*
X0418598Y0150100D01*
X0411098Y0150100D01*
X0411098Y0127600D01*
X0393598Y0110100D01*
X0354634Y0110100D01*
X0354634Y0112600D02*
X0354536Y0112598D01*
X0354438Y0112592D01*
X0354340Y0112583D01*
X0354243Y0112569D01*
X0354146Y0112552D01*
X0354050Y0112531D01*
X0353955Y0112506D01*
X0353861Y0112478D01*
X0353769Y0112445D01*
X0353677Y0112410D01*
X0353587Y0112370D01*
X0353499Y0112328D01*
X0353412Y0112281D01*
X0353328Y0112232D01*
X0353245Y0112179D01*
X0353165Y0112123D01*
X0353086Y0112063D01*
X0353010Y0112001D01*
X0352937Y0111936D01*
X0352866Y0111868D01*
X0349331Y0108332D01*
X0351831Y0108332D02*
X0352866Y0109368D01*
X0352937Y0109436D01*
X0353010Y0109501D01*
X0353086Y0109563D01*
X0353165Y0109623D01*
X0353245Y0109679D01*
X0353328Y0109732D01*
X0353412Y0109781D01*
X0353499Y0109828D01*
X0353587Y0109870D01*
X0353677Y0109910D01*
X0353769Y0109945D01*
X0353861Y0109978D01*
X0353955Y0110006D01*
X0354050Y0110031D01*
X0354146Y0110052D01*
X0354243Y0110069D01*
X0354340Y0110083D01*
X0354438Y0110092D01*
X0354536Y0110098D01*
X0354634Y0110100D01*
X0354634Y0112600D02*
X0393598Y0112600D01*
X0408598Y0127600D01*
X0408598Y0151350D01*
X0413598Y0147600D02*
X0428598Y0147600D01*
X0436098Y0155100D01*
X0436098Y0165100D01*
X0451098Y0145100D02*
X0468598Y0162600D01*
X0468598Y0190100D01*
X0476098Y0197600D01*
X0477598Y0197600D01*
X0477598Y0172600D02*
X0473598Y0172600D01*
X0471098Y0170100D01*
X0471098Y0160100D01*
X0453598Y0142600D01*
X0453598Y0065100D01*
X0448598Y0060100D01*
X0416098Y0060100D01*
X0419848Y0050100D02*
X0416098Y0046350D01*
X0416098Y0045100D01*
X0419848Y0050100D02*
X0446098Y0050100D01*
X0456098Y0060100D01*
X0456098Y0140100D01*
X0463598Y0147600D01*
X0477598Y0147600D01*
X0451098Y0145100D02*
X0451098Y0072600D01*
X0448598Y0070100D01*
X0421098Y0070100D01*
X0416098Y0075100D01*
X0463598Y0075100D02*
X0463598Y0090100D01*
X0471098Y0097600D01*
X0477598Y0097600D01*
X0458598Y0117600D02*
X0458598Y0050100D01*
X0448598Y0040100D01*
X0426098Y0040100D01*
X0416098Y0030100D01*
X0463598Y0032600D02*
X0463598Y0045100D01*
X0473598Y0055100D02*
X0477598Y0051100D01*
X0477598Y0047600D01*
X0473598Y0055100D02*
X0463598Y0055100D01*
X0463598Y0065100D02*
X0471098Y0072600D01*
X0477598Y0072600D01*
X0413598Y0127600D02*
X0393598Y0107600D01*
X0351830Y0108332D02*
X0351762Y0108261D01*
X0351697Y0108188D01*
X0351635Y0108112D01*
X0351575Y0108033D01*
X0351519Y0107953D01*
X0351466Y0107870D01*
X0351417Y0107786D01*
X0351370Y0107699D01*
X0351328Y0107611D01*
X0351288Y0107521D01*
X0351253Y0107429D01*
X0351220Y0107337D01*
X0351192Y0107243D01*
X0351167Y0107148D01*
X0351146Y0107052D01*
X0351129Y0106955D01*
X0351115Y0106858D01*
X0351106Y0106760D01*
X0351100Y0106662D01*
X0351098Y0106564D01*
X0331098Y0114064D02*
X0331100Y0114162D01*
X0331106Y0114260D01*
X0331115Y0114358D01*
X0331129Y0114455D01*
X0331146Y0114552D01*
X0331167Y0114648D01*
X0331192Y0114743D01*
X0331220Y0114837D01*
X0331253Y0114929D01*
X0331288Y0115021D01*
X0331328Y0115111D01*
X0331370Y0115199D01*
X0331417Y0115286D01*
X0331466Y0115370D01*
X0331519Y0115453D01*
X0331575Y0115533D01*
X0331635Y0115612D01*
X0331697Y0115688D01*
X0331762Y0115761D01*
X0331830Y0115832D01*
X0340366Y0124368D02*
X0340434Y0124439D01*
X0340499Y0124512D01*
X0340561Y0124588D01*
X0340621Y0124667D01*
X0340677Y0124747D01*
X0340730Y0124830D01*
X0340779Y0124914D01*
X0340826Y0125001D01*
X0340868Y0125089D01*
X0340908Y0125179D01*
X0340943Y0125271D01*
X0340976Y0125363D01*
X0341004Y0125457D01*
X0341029Y0125552D01*
X0341050Y0125648D01*
X0341067Y0125745D01*
X0341081Y0125842D01*
X0341090Y0125940D01*
X0341096Y0126038D01*
X0341098Y0126136D01*
X0308598Y0127600D02*
X0308598Y0082600D01*
X0330063Y0089064D02*
X0330144Y0089147D01*
X0330222Y0089233D01*
X0330296Y0089321D01*
X0330368Y0089411D01*
X0330437Y0089504D01*
X0330503Y0089600D01*
X0330566Y0089697D01*
X0330625Y0089796D01*
X0330681Y0089897D01*
X0330734Y0090000D01*
X0330784Y0090105D01*
X0330830Y0090211D01*
X0330872Y0090318D01*
X0330911Y0090427D01*
X0330947Y0090538D01*
X0330979Y0090649D01*
X0331007Y0090761D01*
X0331031Y0090874D01*
X0331052Y0090988D01*
X0331069Y0091102D01*
X0331082Y0091217D01*
X0331091Y0091333D01*
X0331097Y0091448D01*
X0331099Y0091564D01*
X0286098Y0089064D02*
X0286098Y0130100D01*
X0261098Y0123312D02*
X0261100Y0123213D01*
X0261106Y0123114D01*
X0261116Y0123015D01*
X0261129Y0122917D01*
X0261147Y0122820D01*
X0261168Y0122723D01*
X0261194Y0122627D01*
X0261223Y0122532D01*
X0261255Y0122439D01*
X0261292Y0122347D01*
X0261332Y0122256D01*
X0261376Y0122167D01*
X0261423Y0122080D01*
X0261473Y0121994D01*
X0261474Y0121995D02*
X0263283Y0119076D01*
X0261098Y0123312D02*
X0261098Y0187002D01*
X0261099Y0187002D02*
X0261101Y0187131D01*
X0261107Y0187260D01*
X0261116Y0187389D01*
X0261130Y0187518D01*
X0261147Y0187646D01*
X0261168Y0187774D01*
X0261193Y0187900D01*
X0261222Y0188026D01*
X0261255Y0188152D01*
X0261291Y0188276D01*
X0261331Y0188399D01*
X0261375Y0188520D01*
X0261422Y0188641D01*
X0261473Y0188760D01*
X0261527Y0188877D01*
X0261585Y0188992D01*
X0261646Y0189106D01*
X0261711Y0189218D01*
X0261779Y0189328D01*
X0261850Y0189436D01*
X0261924Y0189542D01*
X0262002Y0189645D01*
X0262083Y0189746D01*
X0262166Y0189845D01*
X0263283Y0191124D01*
X0233756Y0191124D02*
X0233598Y0190966D01*
X0233598Y0132600D01*
X0223598Y0137600D02*
X0223913Y0191124D01*
X0203598Y0180100D02*
X0203598Y0167600D01*
X0188598Y0185100D02*
X0188598Y0132600D01*
X0176098Y0120100D01*
X0120368Y0120100D01*
X0113079Y0117081D02*
X0101098Y0105100D01*
X0113079Y0117081D02*
X0113260Y0117258D01*
X0113446Y0117430D01*
X0113635Y0117597D01*
X0113829Y0117760D01*
X0114026Y0117918D01*
X0114228Y0118071D01*
X0114433Y0118220D01*
X0114641Y0118363D01*
X0114853Y0118501D01*
X0115069Y0118633D01*
X0115287Y0118761D01*
X0115509Y0118883D01*
X0115733Y0118999D01*
X0115961Y0119110D01*
X0116191Y0119216D01*
X0116423Y0119315D01*
X0116658Y0119409D01*
X0116895Y0119497D01*
X0117135Y0119580D01*
X0117376Y0119656D01*
X0117619Y0119727D01*
X0117863Y0119791D01*
X0118110Y0119850D01*
X0118357Y0119902D01*
X0118606Y0119948D01*
X0118856Y0119988D01*
X0119106Y0120022D01*
X0119358Y0120050D01*
X0119610Y0120072D01*
X0119862Y0120088D01*
X0120115Y0120097D01*
X0120368Y0120100D01*
X0216098Y0110100D02*
X0216098Y0019064D01*
X0216100Y0018948D01*
X0216106Y0018833D01*
X0216115Y0018717D01*
X0216128Y0018602D01*
X0216145Y0018488D01*
X0216166Y0018374D01*
X0216190Y0018261D01*
X0216218Y0018149D01*
X0216250Y0018038D01*
X0216286Y0017927D01*
X0216325Y0017818D01*
X0216367Y0017711D01*
X0216413Y0017605D01*
X0216463Y0017500D01*
X0216516Y0017397D01*
X0216572Y0017296D01*
X0216631Y0017197D01*
X0216694Y0017100D01*
X0216760Y0017004D01*
X0216829Y0016911D01*
X0216901Y0016821D01*
X0216975Y0016733D01*
X0217053Y0016647D01*
X0217134Y0016564D01*
X0217866Y0015832D01*
X0219634Y0015100D02*
X0254027Y0015100D01*
X0257563Y0016564D02*
X0257644Y0016647D01*
X0257722Y0016733D01*
X0257796Y0016821D01*
X0257868Y0016911D01*
X0257937Y0017004D01*
X0258003Y0017100D01*
X0258066Y0017197D01*
X0258125Y0017296D01*
X0258181Y0017397D01*
X0258234Y0017500D01*
X0258284Y0017605D01*
X0258330Y0017711D01*
X0258372Y0017818D01*
X0258411Y0017927D01*
X0258447Y0018038D01*
X0258479Y0018149D01*
X0258507Y0018261D01*
X0258531Y0018374D01*
X0258552Y0018488D01*
X0258569Y0018602D01*
X0258582Y0018717D01*
X0258591Y0018833D01*
X0258597Y0018948D01*
X0258599Y0019064D01*
X0258598Y0019064D02*
X0258598Y0032600D01*
X0257563Y0016564D02*
X0257462Y0016467D01*
X0257359Y0016372D01*
X0257253Y0016280D01*
X0257144Y0016191D01*
X0257034Y0016105D01*
X0256920Y0016022D01*
X0256805Y0015943D01*
X0256687Y0015866D01*
X0256567Y0015793D01*
X0256446Y0015724D01*
X0256322Y0015658D01*
X0256196Y0015595D01*
X0256069Y0015536D01*
X0255940Y0015481D01*
X0255810Y0015429D01*
X0255678Y0015381D01*
X0255545Y0015336D01*
X0255411Y0015295D01*
X0255276Y0015258D01*
X0255140Y0015225D01*
X0255002Y0015196D01*
X0254865Y0015171D01*
X0254726Y0015149D01*
X0254587Y0015131D01*
X0254447Y0015118D01*
X0254307Y0015108D01*
X0254167Y0015102D01*
X0254027Y0015100D01*
X0219634Y0015100D02*
X0219536Y0015102D01*
X0219438Y0015108D01*
X0219340Y0015117D01*
X0219243Y0015131D01*
X0219146Y0015148D01*
X0219050Y0015169D01*
X0218955Y0015194D01*
X0218861Y0015222D01*
X0218769Y0015255D01*
X0218677Y0015290D01*
X0218587Y0015330D01*
X0218499Y0015372D01*
X0218412Y0015419D01*
X0218328Y0015468D01*
X0218245Y0015521D01*
X0218165Y0015577D01*
X0218086Y0015637D01*
X0218010Y0015699D01*
X0217937Y0015764D01*
X0217866Y0015832D01*
X0223598Y0052600D02*
X0223598Y0080100D01*
X0254331Y0080832D02*
X0262866Y0089368D01*
X0264634Y0090100D02*
X0270063Y0090100D01*
X0271831Y0090832D02*
X0272563Y0091564D01*
X0271831Y0090832D02*
X0271760Y0090764D01*
X0271687Y0090699D01*
X0271611Y0090637D01*
X0271532Y0090577D01*
X0271452Y0090521D01*
X0271369Y0090468D01*
X0271285Y0090419D01*
X0271198Y0090372D01*
X0271110Y0090330D01*
X0271020Y0090290D01*
X0270928Y0090255D01*
X0270836Y0090222D01*
X0270742Y0090194D01*
X0270647Y0090169D01*
X0270551Y0090148D01*
X0270454Y0090131D01*
X0270357Y0090117D01*
X0270259Y0090108D01*
X0270161Y0090102D01*
X0270063Y0090100D01*
X0264634Y0090100D02*
X0264536Y0090098D01*
X0264438Y0090092D01*
X0264340Y0090083D01*
X0264243Y0090069D01*
X0264146Y0090052D01*
X0264050Y0090031D01*
X0263955Y0090006D01*
X0263861Y0089978D01*
X0263769Y0089945D01*
X0263677Y0089910D01*
X0263587Y0089870D01*
X0263499Y0089828D01*
X0263412Y0089781D01*
X0263328Y0089732D01*
X0263245Y0089679D01*
X0263165Y0089623D01*
X0263086Y0089563D01*
X0263010Y0089501D01*
X0262937Y0089436D01*
X0262866Y0089368D01*
X0272563Y0091564D02*
X0272644Y0091647D01*
X0272722Y0091733D01*
X0272796Y0091821D01*
X0272868Y0091911D01*
X0272937Y0092004D01*
X0273003Y0092100D01*
X0273066Y0092197D01*
X0273125Y0092296D01*
X0273181Y0092397D01*
X0273234Y0092500D01*
X0273284Y0092605D01*
X0273330Y0092711D01*
X0273372Y0092818D01*
X0273411Y0092927D01*
X0273447Y0093038D01*
X0273479Y0093149D01*
X0273507Y0093261D01*
X0273531Y0093374D01*
X0273552Y0093488D01*
X0273569Y0093602D01*
X0273582Y0093717D01*
X0273591Y0093833D01*
X0273597Y0093948D01*
X0273599Y0094064D01*
X0273598Y0094064D02*
X0273598Y0143636D01*
X0274634Y0146136D02*
X0286098Y0157600D01*
X0286098Y0160100D01*
X0294634Y0156136D02*
X0296098Y0157600D01*
X0296098Y0160100D01*
X0294634Y0156136D02*
X0294553Y0156053D01*
X0294475Y0155967D01*
X0294401Y0155879D01*
X0294329Y0155789D01*
X0294260Y0155696D01*
X0294194Y0155600D01*
X0294131Y0155503D01*
X0294072Y0155404D01*
X0294016Y0155303D01*
X0293963Y0155200D01*
X0293913Y0155095D01*
X0293867Y0154989D01*
X0293825Y0154882D01*
X0293786Y0154773D01*
X0293750Y0154662D01*
X0293718Y0154551D01*
X0293690Y0154439D01*
X0293666Y0154326D01*
X0293645Y0154212D01*
X0293628Y0154098D01*
X0293615Y0153983D01*
X0293606Y0153867D01*
X0293600Y0153752D01*
X0293598Y0153636D01*
X0293598Y0070100D01*
X0279330Y0064368D02*
X0279262Y0064439D01*
X0279197Y0064512D01*
X0279135Y0064588D01*
X0279075Y0064667D01*
X0279019Y0064747D01*
X0278966Y0064830D01*
X0278917Y0064914D01*
X0278870Y0065001D01*
X0278828Y0065089D01*
X0278788Y0065179D01*
X0278753Y0065271D01*
X0278720Y0065363D01*
X0278692Y0065457D01*
X0278667Y0065552D01*
X0278646Y0065648D01*
X0278629Y0065745D01*
X0278615Y0065842D01*
X0278606Y0065940D01*
X0278600Y0066038D01*
X0278598Y0066136D01*
X0278598Y0079064D01*
X0279331Y0080832D02*
X0285063Y0086564D01*
X0282866Y0086868D02*
X0271831Y0075832D01*
X0271830Y0075832D02*
X0271762Y0075761D01*
X0271697Y0075688D01*
X0271635Y0075612D01*
X0271575Y0075533D01*
X0271519Y0075453D01*
X0271466Y0075370D01*
X0271417Y0075286D01*
X0271370Y0075199D01*
X0271328Y0075111D01*
X0271288Y0075021D01*
X0271253Y0074929D01*
X0271220Y0074837D01*
X0271192Y0074743D01*
X0271167Y0074648D01*
X0271146Y0074552D01*
X0271129Y0074455D01*
X0271115Y0074358D01*
X0271106Y0074260D01*
X0271100Y0074162D01*
X0271098Y0074064D01*
X0278598Y0079064D02*
X0278600Y0079162D01*
X0278606Y0079260D01*
X0278615Y0079358D01*
X0278629Y0079455D01*
X0278646Y0079552D01*
X0278667Y0079648D01*
X0278692Y0079743D01*
X0278720Y0079837D01*
X0278753Y0079929D01*
X0278788Y0080021D01*
X0278828Y0080111D01*
X0278870Y0080199D01*
X0278917Y0080286D01*
X0278966Y0080370D01*
X0279019Y0080453D01*
X0279075Y0080533D01*
X0279135Y0080612D01*
X0279197Y0080688D01*
X0279262Y0080761D01*
X0279330Y0080832D01*
X0282866Y0086868D02*
X0282934Y0086939D01*
X0282999Y0087012D01*
X0283061Y0087088D01*
X0283121Y0087167D01*
X0283177Y0087247D01*
X0283230Y0087330D01*
X0283279Y0087414D01*
X0283326Y0087501D01*
X0283368Y0087589D01*
X0283408Y0087679D01*
X0283443Y0087771D01*
X0283476Y0087863D01*
X0283504Y0087957D01*
X0283529Y0088052D01*
X0283550Y0088148D01*
X0283567Y0088245D01*
X0283581Y0088342D01*
X0283590Y0088440D01*
X0283596Y0088538D01*
X0283598Y0088636D01*
X0283598Y0145100D01*
X0274634Y0146136D02*
X0274553Y0146053D01*
X0274475Y0145967D01*
X0274401Y0145879D01*
X0274329Y0145789D01*
X0274260Y0145696D01*
X0274194Y0145600D01*
X0274131Y0145503D01*
X0274072Y0145404D01*
X0274016Y0145303D01*
X0273963Y0145200D01*
X0273913Y0145095D01*
X0273867Y0144989D01*
X0273825Y0144882D01*
X0273786Y0144773D01*
X0273750Y0144662D01*
X0273718Y0144551D01*
X0273690Y0144439D01*
X0273666Y0144326D01*
X0273645Y0144212D01*
X0273628Y0144098D01*
X0273615Y0143983D01*
X0273606Y0143867D01*
X0273600Y0143752D01*
X0273598Y0143636D01*
X0253598Y0147600D02*
X0253441Y0147443D01*
X0253441Y0119076D01*
X0243598Y0119076D02*
X0243598Y0140100D01*
X0238598Y0142600D02*
X0238598Y0126564D01*
X0237563Y0124064D02*
X0233756Y0120257D01*
X0233756Y0119076D01*
X0237563Y0124064D02*
X0237644Y0124147D01*
X0237722Y0124233D01*
X0237796Y0124321D01*
X0237868Y0124411D01*
X0237937Y0124504D01*
X0238003Y0124600D01*
X0238066Y0124697D01*
X0238125Y0124796D01*
X0238181Y0124897D01*
X0238234Y0125000D01*
X0238284Y0125105D01*
X0238330Y0125211D01*
X0238372Y0125318D01*
X0238411Y0125427D01*
X0238447Y0125538D01*
X0238479Y0125649D01*
X0238507Y0125761D01*
X0238531Y0125874D01*
X0238552Y0125988D01*
X0238569Y0126102D01*
X0238582Y0126217D01*
X0238591Y0126333D01*
X0238597Y0126448D01*
X0238599Y0126564D01*
X0153598Y0160100D02*
X0143598Y0170100D01*
X0188598Y0185100D02*
X0193598Y0190100D01*
X0350063Y0186136D02*
X0350144Y0186053D01*
X0350222Y0185967D01*
X0350296Y0185879D01*
X0350368Y0185789D01*
X0350437Y0185696D01*
X0350503Y0185600D01*
X0350566Y0185503D01*
X0350625Y0185404D01*
X0350681Y0185303D01*
X0350734Y0185200D01*
X0350784Y0185095D01*
X0350830Y0184989D01*
X0350872Y0184882D01*
X0350911Y0184773D01*
X0350947Y0184662D01*
X0350979Y0184551D01*
X0351007Y0184439D01*
X0351031Y0184326D01*
X0351052Y0184212D01*
X0351069Y0184098D01*
X0351082Y0183983D01*
X0351091Y0183867D01*
X0351097Y0183752D01*
X0351099Y0183636D01*
X0413598Y0147600D02*
X0413598Y0127600D01*
X0458598Y0117600D02*
X0463598Y0122600D01*
X0477598Y0122600D01*
X0286099Y0089064D02*
X0286097Y0088948D01*
X0286091Y0088833D01*
X0286082Y0088717D01*
X0286069Y0088602D01*
X0286052Y0088488D01*
X0286031Y0088374D01*
X0286007Y0088261D01*
X0285979Y0088149D01*
X0285947Y0088038D01*
X0285911Y0087927D01*
X0285872Y0087818D01*
X0285830Y0087711D01*
X0285784Y0087605D01*
X0285734Y0087500D01*
X0285681Y0087397D01*
X0285625Y0087296D01*
X0285566Y0087197D01*
X0285503Y0087100D01*
X0285437Y0087004D01*
X0285368Y0086911D01*
X0285296Y0086821D01*
X0285222Y0086733D01*
X0285144Y0086647D01*
X0285063Y0086564D01*
X0254330Y0080832D02*
X0254262Y0080761D01*
X0254197Y0080688D01*
X0254135Y0080612D01*
X0254075Y0080533D01*
X0254019Y0080453D01*
X0253966Y0080370D01*
X0253917Y0080286D01*
X0253870Y0080199D01*
X0253828Y0080111D01*
X0253788Y0080021D01*
X0253753Y0079929D01*
X0253720Y0079837D01*
X0253692Y0079743D01*
X0253667Y0079648D01*
X0253646Y0079552D01*
X0253629Y0079455D01*
X0253615Y0079358D01*
X0253606Y0079260D01*
X0253600Y0079162D01*
X0253598Y0079064D01*
X0463598Y0032600D02*
X0473598Y0022600D01*
X0477598Y0022600D01*
D28*
X0293598Y0070100D03*
X0288598Y0067600D03*
X0223598Y0052600D03*
X0216098Y0110100D03*
X0233598Y0132600D03*
X0223598Y0137600D03*
X0238598Y0142600D03*
X0243598Y0140100D03*
X0253598Y0147600D03*
X0283598Y0145100D03*
X0286098Y0130100D03*
X0308598Y0127600D03*
X0346098Y0130100D03*
X0351098Y0127600D03*
X0356098Y0135100D03*
X0366098Y0137600D03*
X0371098Y0140100D03*
X0361098Y0142600D03*
X0381098Y0147600D03*
X0391098Y0145100D03*
X0386098Y0132600D03*
X0381098Y0130100D03*
X0336098Y0145100D03*
X0393598Y0107600D03*
M02*
