G75*
%MOIN*%
%OFA0B0*%
%FSLAX25Y25*%
%IPPOS*%
%LPD*%
%AMOC8*
5,1,8,0,0,1.08239X$1,22.5*
%
%ADD10C,0.00300*%
%ADD11C,0.00600*%
%ADD12C,0.00200*%
%ADD13C,0.00700*%
%ADD14C,0.00500*%
%ADD15C,0.01500*%
%ADD16C,0.00900*%
%ADD17C,0.00400*%
D10*
X0126248Y0042750D02*
X0129451Y0042750D01*
X0129451Y0044351D01*
X0128917Y0044885D01*
X0127850Y0044885D01*
X0127316Y0044351D01*
X0127316Y0042750D01*
X0126782Y0045973D02*
X0126248Y0046507D01*
X0126248Y0047574D01*
X0126782Y0048108D01*
X0128917Y0048108D01*
X0129451Y0047574D01*
X0129451Y0046507D01*
X0128917Y0045973D01*
X0126782Y0045973D01*
X0126248Y0049195D02*
X0127316Y0050263D01*
X0126248Y0051331D01*
X0129451Y0051331D01*
X0129451Y0052418D02*
X0126248Y0052418D01*
X0126248Y0054553D01*
X0126248Y0055641D02*
X0129451Y0055641D01*
X0129451Y0057242D01*
X0128917Y0057776D01*
X0127850Y0057776D01*
X0127316Y0057242D01*
X0127316Y0055641D01*
X0127316Y0056709D02*
X0126248Y0057776D01*
X0129451Y0054553D02*
X0129451Y0052418D01*
X0127850Y0052418D02*
X0127850Y0053486D01*
X0129451Y0049195D02*
X0126248Y0049195D01*
X0327797Y0121250D02*
X0327797Y0123719D01*
X0329031Y0124953D01*
X0330266Y0123719D01*
X0330266Y0121250D01*
X0331480Y0121867D02*
X0331480Y0122484D01*
X0332097Y0123102D01*
X0333332Y0123102D01*
X0333949Y0123719D01*
X0333949Y0124336D01*
X0333332Y0124953D01*
X0332097Y0124953D01*
X0331480Y0124336D01*
X0330266Y0123102D02*
X0327797Y0123102D01*
X0331480Y0121867D02*
X0332097Y0121250D01*
X0333332Y0121250D01*
X0333949Y0121867D01*
X0335163Y0123102D02*
X0337632Y0123102D01*
X0338846Y0124336D02*
X0340081Y0123102D01*
X0340081Y0121250D01*
X0340081Y0123102D02*
X0341315Y0124336D01*
X0341315Y0124953D01*
X0342529Y0124336D02*
X0342529Y0123719D01*
X0343147Y0123102D01*
X0344998Y0123102D01*
X0346213Y0123102D02*
X0348681Y0123102D01*
X0349896Y0124336D02*
X0350513Y0124953D01*
X0351747Y0124953D01*
X0352365Y0124336D01*
X0352365Y0121867D01*
X0351747Y0121250D01*
X0350513Y0121250D01*
X0349896Y0121867D01*
X0348068Y0118953D02*
X0348068Y0115250D01*
X0349282Y0115250D02*
X0349282Y0117719D01*
X0348068Y0116484D02*
X0346216Y0117719D01*
X0348068Y0116484D02*
X0346216Y0115250D01*
X0349282Y0115250D02*
X0351134Y0115250D01*
X0351751Y0115867D01*
X0351751Y0117719D01*
X0352975Y0115867D02*
X0352975Y0115250D01*
X0353592Y0115250D01*
X0353592Y0115867D01*
X0352975Y0115867D01*
X0354807Y0115867D02*
X0354807Y0117102D01*
X0355424Y0117719D01*
X0356658Y0117719D01*
X0357275Y0117102D01*
X0357275Y0115867D01*
X0356658Y0115250D01*
X0355424Y0115250D01*
X0354807Y0115867D01*
X0358490Y0115250D02*
X0360341Y0115250D01*
X0360959Y0115867D01*
X0360959Y0117102D01*
X0360341Y0117719D01*
X0358490Y0117719D01*
X0362183Y0115867D02*
X0362183Y0115250D01*
X0362800Y0115250D01*
X0362800Y0115867D01*
X0362183Y0115867D01*
X0364015Y0115250D02*
X0365866Y0115250D01*
X0366483Y0115867D01*
X0366483Y0117102D01*
X0365866Y0117719D01*
X0364015Y0117719D01*
X0364015Y0114633D01*
X0364632Y0114016D01*
X0365249Y0114016D01*
X0367698Y0115250D02*
X0367698Y0117102D01*
X0368315Y0117719D01*
X0370166Y0117719D01*
X0370166Y0115250D01*
X0371387Y0115250D02*
X0372622Y0115250D01*
X0372005Y0115250D02*
X0372005Y0117719D01*
X0372622Y0117719D01*
X0373836Y0117102D02*
X0373836Y0115250D01*
X0373836Y0117102D02*
X0374453Y0117719D01*
X0375688Y0117719D01*
X0376305Y0117102D01*
X0377526Y0117719D02*
X0378760Y0117719D01*
X0378143Y0118336D02*
X0378143Y0115867D01*
X0377526Y0115250D01*
X0376305Y0115250D02*
X0376305Y0118953D01*
X0374463Y0121250D02*
X0371995Y0121250D01*
X0370780Y0121867D02*
X0368312Y0124336D01*
X0368312Y0121867D01*
X0368929Y0121250D01*
X0370163Y0121250D01*
X0370780Y0121867D01*
X0370780Y0124336D01*
X0370163Y0124953D01*
X0368929Y0124953D01*
X0368312Y0124336D01*
X0367097Y0123719D02*
X0365863Y0124953D01*
X0365863Y0121250D01*
X0367097Y0121250D02*
X0364628Y0121250D01*
X0363414Y0121867D02*
X0362797Y0121250D01*
X0361562Y0121250D01*
X0360945Y0121867D01*
X0360945Y0122484D01*
X0361562Y0123102D01*
X0363414Y0123102D01*
X0363414Y0121867D01*
X0363414Y0123102D02*
X0362180Y0124336D01*
X0360945Y0124953D01*
X0356048Y0124336D02*
X0356048Y0121867D01*
X0355431Y0121250D01*
X0354196Y0121250D01*
X0353579Y0121867D01*
X0353579Y0124336D02*
X0354196Y0124953D01*
X0355431Y0124953D01*
X0356048Y0124336D01*
X0344998Y0124953D02*
X0344998Y0121250D01*
X0343147Y0121250D01*
X0342529Y0121867D01*
X0342529Y0122484D01*
X0343147Y0123102D01*
X0342529Y0124336D02*
X0343147Y0124953D01*
X0344998Y0124953D01*
X0338846Y0124953D02*
X0338846Y0124336D01*
X0371995Y0124336D02*
X0371995Y0123719D01*
X0374463Y0121250D01*
X0372005Y0119570D02*
X0372005Y0118953D01*
X0379361Y0121250D02*
X0379361Y0123102D01*
X0379978Y0123719D01*
X0381213Y0123719D01*
X0381830Y0123102D01*
X0383044Y0123719D02*
X0384896Y0123719D01*
X0385513Y0123102D01*
X0385513Y0121867D01*
X0384896Y0121250D01*
X0383044Y0121250D01*
X0381830Y0121250D02*
X0381830Y0124953D01*
X0386731Y0123719D02*
X0387348Y0123719D01*
X0388582Y0122484D01*
X0389797Y0122484D02*
X0391648Y0122484D01*
X0392265Y0121867D01*
X0391648Y0121250D01*
X0389797Y0121250D01*
X0389797Y0123102D01*
X0390414Y0123719D01*
X0391648Y0123719D01*
X0393480Y0124953D02*
X0394714Y0123719D01*
X0395948Y0124953D01*
X0395948Y0121250D01*
X0393480Y0121250D02*
X0393480Y0124953D01*
X0388582Y0123719D02*
X0388582Y0121250D01*
X0387965Y0117719D02*
X0386113Y0117719D01*
X0384899Y0117719D02*
X0384282Y0117719D01*
X0384282Y0115250D01*
X0384899Y0115250D02*
X0383665Y0115250D01*
X0382444Y0115867D02*
X0381826Y0115250D01*
X0379975Y0115250D01*
X0382444Y0115867D02*
X0382444Y0117102D01*
X0381826Y0117719D01*
X0379975Y0117719D01*
X0384282Y0118953D02*
X0384282Y0119570D01*
X0386731Y0116484D02*
X0387965Y0116484D01*
X0388582Y0117102D01*
X0387965Y0117719D01*
X0386731Y0116484D02*
X0386113Y0115867D01*
X0386731Y0115250D01*
X0388582Y0115250D01*
X0389797Y0115250D02*
X0389797Y0117719D01*
X0392265Y0117719D02*
X0392265Y0115867D01*
X0391648Y0115250D01*
X0389797Y0115250D01*
X0393480Y0115250D02*
X0393480Y0117102D01*
X0394097Y0117719D01*
X0394714Y0117102D01*
X0394714Y0115250D01*
X0395948Y0115250D02*
X0395948Y0117719D01*
X0395331Y0117719D01*
X0394714Y0117102D01*
X0374463Y0124336D02*
X0373846Y0124953D01*
X0372612Y0124953D01*
X0371995Y0124336D01*
X0380592Y0144016D02*
X0379975Y0144633D01*
X0379975Y0147719D01*
X0381826Y0147719D01*
X0382444Y0147102D01*
X0382444Y0145867D01*
X0381826Y0145250D01*
X0379975Y0145250D01*
X0378760Y0145250D02*
X0378760Y0147719D01*
X0376909Y0147719D01*
X0376292Y0147102D01*
X0376292Y0145250D01*
X0375077Y0145867D02*
X0375077Y0147102D01*
X0374460Y0147719D01*
X0373226Y0147719D01*
X0372609Y0147102D01*
X0372609Y0146484D01*
X0375077Y0146484D01*
X0375077Y0145867D02*
X0374460Y0145250D01*
X0373226Y0145250D01*
X0371394Y0145867D02*
X0371394Y0147102D01*
X0370777Y0147719D01*
X0368925Y0147719D01*
X0368925Y0148953D02*
X0368925Y0145250D01*
X0370777Y0145250D01*
X0371394Y0145867D01*
X0364028Y0145250D02*
X0362793Y0145250D01*
X0363411Y0145250D02*
X0363411Y0147719D01*
X0364028Y0147719D01*
X0363411Y0148953D02*
X0363411Y0149570D01*
X0361572Y0147719D02*
X0359721Y0147719D01*
X0359104Y0147102D01*
X0359104Y0145250D01*
X0361572Y0145250D02*
X0361572Y0147719D01*
X0354206Y0147102D02*
X0351737Y0147102D01*
X0350523Y0147102D02*
X0349906Y0147719D01*
X0348671Y0147719D01*
X0348054Y0147102D01*
X0348054Y0146484D01*
X0350523Y0146484D01*
X0350523Y0145867D02*
X0350523Y0147102D01*
X0350523Y0145867D02*
X0349906Y0145250D01*
X0348671Y0145250D01*
X0346840Y0145250D02*
X0346840Y0147719D01*
X0345605Y0147719D02*
X0344988Y0147719D01*
X0345605Y0147719D02*
X0346840Y0146484D01*
X0343771Y0145250D02*
X0343771Y0147719D01*
X0341919Y0147719D01*
X0341302Y0147102D01*
X0341302Y0145250D01*
X0340087Y0145867D02*
X0340087Y0147102D01*
X0339470Y0147719D01*
X0338236Y0147719D01*
X0337619Y0147102D01*
X0337619Y0146484D01*
X0340087Y0146484D01*
X0340087Y0145867D02*
X0339470Y0145250D01*
X0338236Y0145250D01*
X0332721Y0145250D02*
X0332721Y0148953D01*
X0332721Y0147102D02*
X0330252Y0147102D01*
X0329038Y0147719D02*
X0328421Y0147719D01*
X0328421Y0145250D01*
X0329038Y0145250D02*
X0327804Y0145250D01*
X0326583Y0145250D02*
X0325348Y0145250D01*
X0325965Y0145250D02*
X0325965Y0148953D01*
X0326583Y0148953D01*
X0328421Y0148953D02*
X0328421Y0149570D01*
X0330252Y0148953D02*
X0330252Y0145250D01*
X0324127Y0145250D02*
X0322893Y0145250D01*
X0323510Y0145250D02*
X0323510Y0148953D01*
X0324127Y0148953D01*
X0321055Y0145867D02*
X0321055Y0145250D01*
X0320437Y0145250D01*
X0320437Y0145867D01*
X0321055Y0145867D01*
X0320437Y0145250D02*
X0321672Y0144016D01*
X0315533Y0145250D02*
X0313064Y0145250D01*
X0311850Y0145867D02*
X0311233Y0145250D01*
X0309998Y0145250D01*
X0309381Y0145867D01*
X0309381Y0147102D01*
X0309998Y0147719D01*
X0311233Y0147719D01*
X0311850Y0147102D01*
X0311850Y0145867D01*
X0315533Y0145250D02*
X0315533Y0148953D01*
X0308167Y0147719D02*
X0308167Y0145250D01*
X0308167Y0147719D02*
X0306315Y0147719D01*
X0305698Y0147102D01*
X0305698Y0145250D01*
X0304484Y0145867D02*
X0304484Y0147102D01*
X0303867Y0147719D01*
X0302015Y0147719D01*
X0302015Y0148953D02*
X0302015Y0145250D01*
X0303867Y0145250D01*
X0304484Y0145867D01*
X0300801Y0145867D02*
X0300183Y0145250D01*
X0298949Y0145250D01*
X0298332Y0145867D01*
X0298332Y0147102D01*
X0298949Y0147719D01*
X0300183Y0147719D01*
X0300801Y0147102D01*
X0300801Y0145867D01*
X0297117Y0145250D02*
X0297117Y0147719D01*
X0295266Y0147719D01*
X0294649Y0147102D01*
X0294649Y0145250D01*
X0289751Y0145250D02*
X0289751Y0148953D01*
X0287900Y0148953D01*
X0287282Y0148336D01*
X0287282Y0147719D01*
X0287900Y0147102D01*
X0289751Y0147102D01*
X0287900Y0147102D02*
X0287282Y0146484D01*
X0287282Y0145867D01*
X0287900Y0145250D01*
X0289751Y0145250D01*
X0286068Y0145867D02*
X0286068Y0147719D01*
X0286068Y0145867D02*
X0285451Y0145250D01*
X0283599Y0145250D01*
X0283599Y0144633D02*
X0284216Y0144016D01*
X0284834Y0144016D01*
X0283599Y0144633D02*
X0283599Y0147719D01*
X0278702Y0148953D02*
X0276233Y0148953D01*
X0277467Y0148953D02*
X0277467Y0145250D01*
X0275019Y0145867D02*
X0274401Y0145250D01*
X0273167Y0145250D01*
X0272550Y0145867D01*
X0272550Y0147102D01*
X0273167Y0147719D01*
X0274401Y0147719D01*
X0275019Y0147102D01*
X0275019Y0145867D01*
X0271335Y0145250D02*
X0271335Y0147719D01*
X0270718Y0147719D01*
X0270101Y0147102D01*
X0269484Y0147719D01*
X0268867Y0147102D01*
X0268867Y0145250D01*
X0270101Y0145250D02*
X0270101Y0147102D01*
X0263969Y0148953D02*
X0263969Y0145250D01*
X0262735Y0146484D01*
X0261500Y0145250D01*
X0261500Y0148953D01*
X0260286Y0148953D02*
X0260286Y0145250D01*
X0260286Y0147102D02*
X0259669Y0147719D01*
X0258434Y0147719D01*
X0257817Y0147102D01*
X0257817Y0145250D01*
X0256603Y0145250D02*
X0255368Y0145250D01*
X0255986Y0145250D02*
X0255986Y0147719D01*
X0256603Y0147719D01*
X0255986Y0148953D02*
X0255986Y0149570D01*
X0254147Y0147719D02*
X0252913Y0147719D01*
X0253530Y0148336D02*
X0253530Y0145867D01*
X0252913Y0145250D01*
X0251692Y0145867D02*
X0251075Y0145250D01*
X0250458Y0145867D01*
X0249840Y0145250D01*
X0249223Y0145867D01*
X0249223Y0147719D01*
X0248009Y0147102D02*
X0247392Y0147719D01*
X0246157Y0147719D01*
X0245540Y0147102D01*
X0245540Y0146484D01*
X0248009Y0146484D01*
X0248009Y0145867D02*
X0248009Y0147102D01*
X0248009Y0145867D02*
X0247392Y0145250D01*
X0246157Y0145250D01*
X0244326Y0145250D02*
X0243091Y0145250D01*
X0243708Y0145250D02*
X0243708Y0148953D01*
X0244326Y0148953D01*
X0241870Y0148953D02*
X0241253Y0148953D01*
X0241253Y0145250D01*
X0241870Y0145250D02*
X0240636Y0145250D01*
X0251692Y0145867D02*
X0251692Y0147719D01*
X0307540Y0174633D02*
X0308157Y0174016D01*
X0308774Y0174016D01*
X0309391Y0175250D02*
X0307540Y0175250D01*
X0307540Y0174633D02*
X0307540Y0177719D01*
X0309391Y0177719D01*
X0310008Y0177102D01*
X0310008Y0175867D01*
X0309391Y0175250D01*
X0311223Y0175250D02*
X0311223Y0177102D01*
X0311840Y0177719D01*
X0313692Y0177719D01*
X0313692Y0175250D01*
X0314913Y0175250D02*
X0316147Y0175250D01*
X0315530Y0175250D02*
X0315530Y0177719D01*
X0316147Y0177719D01*
X0317365Y0177719D02*
X0317982Y0177719D01*
X0319216Y0176484D01*
X0319216Y0175250D02*
X0319216Y0177719D01*
X0320431Y0177719D02*
X0320431Y0175250D01*
X0322282Y0175250D01*
X0322899Y0175867D01*
X0322899Y0177719D01*
X0324114Y0178953D02*
X0326583Y0178953D01*
X0325348Y0178953D02*
X0325348Y0175250D01*
X0331483Y0177719D02*
X0332101Y0177719D01*
X0333335Y0176484D01*
X0334549Y0176484D02*
X0336401Y0176484D01*
X0337018Y0175867D01*
X0336401Y0175250D01*
X0334549Y0175250D01*
X0334549Y0177102D01*
X0335167Y0177719D01*
X0336401Y0177719D01*
X0338856Y0178953D02*
X0338856Y0175250D01*
X0338239Y0175250D02*
X0339474Y0175250D01*
X0340688Y0175250D02*
X0340688Y0177719D01*
X0339474Y0178953D02*
X0338856Y0178953D01*
X0343157Y0177719D02*
X0343157Y0175867D01*
X0342540Y0175250D01*
X0340688Y0175250D01*
X0344371Y0175250D02*
X0346223Y0175250D01*
X0346840Y0175867D01*
X0346840Y0177102D01*
X0346223Y0177719D01*
X0344371Y0177719D01*
X0344371Y0178953D02*
X0344371Y0175250D01*
X0348054Y0175867D02*
X0348054Y0177102D01*
X0348671Y0177719D01*
X0349906Y0177719D01*
X0350523Y0177102D01*
X0350523Y0175867D01*
X0349906Y0175250D01*
X0348671Y0175250D01*
X0348054Y0175867D01*
X0348671Y0172953D02*
X0348054Y0172336D01*
X0348054Y0171719D01*
X0348671Y0171102D01*
X0350523Y0171102D01*
X0350523Y0172953D02*
X0350523Y0169250D01*
X0348671Y0169250D01*
X0348054Y0169867D01*
X0348054Y0170484D01*
X0348671Y0171102D01*
X0346840Y0171102D02*
X0346840Y0169867D01*
X0346223Y0169250D01*
X0344988Y0169250D01*
X0344371Y0169867D01*
X0344371Y0171102D01*
X0344988Y0171719D01*
X0346223Y0171719D01*
X0346840Y0171102D01*
X0348671Y0172953D02*
X0350523Y0172953D01*
X0351737Y0175250D02*
X0351737Y0178953D01*
X0352972Y0177719D01*
X0354206Y0178953D01*
X0354206Y0175250D01*
X0357275Y0172953D02*
X0357275Y0169250D01*
X0358490Y0169250D02*
X0360341Y0169250D01*
X0360959Y0169867D01*
X0360959Y0171102D01*
X0360341Y0171719D01*
X0358490Y0171719D01*
X0357275Y0170484D02*
X0355424Y0169250D01*
X0357275Y0170484D02*
X0355424Y0171719D01*
X0359104Y0174633D02*
X0359721Y0174016D01*
X0360338Y0174016D01*
X0360955Y0175250D02*
X0359104Y0175250D01*
X0359104Y0174633D02*
X0359104Y0177719D01*
X0360955Y0177719D01*
X0361572Y0177102D01*
X0361572Y0175867D01*
X0360955Y0175250D01*
X0362787Y0175250D02*
X0362787Y0177102D01*
X0363404Y0177719D01*
X0365256Y0177719D01*
X0365256Y0175250D01*
X0366477Y0175250D02*
X0367711Y0175250D01*
X0367094Y0175250D02*
X0367094Y0177719D01*
X0367711Y0177719D01*
X0368925Y0177102D02*
X0368925Y0175250D01*
X0368925Y0177102D02*
X0369543Y0177719D01*
X0370777Y0177719D01*
X0371394Y0177102D01*
X0371394Y0178953D02*
X0371394Y0175250D01*
X0373843Y0175250D02*
X0373843Y0178953D01*
X0375077Y0178953D02*
X0372609Y0178953D01*
X0367094Y0178953D02*
X0367094Y0179570D01*
X0366473Y0172953D02*
X0365856Y0172336D01*
X0365856Y0171719D01*
X0366473Y0171102D01*
X0368325Y0171102D01*
X0368325Y0172953D02*
X0368325Y0169250D01*
X0366473Y0169250D01*
X0365856Y0169867D01*
X0365856Y0170484D01*
X0366473Y0171102D01*
X0366473Y0172953D02*
X0368325Y0172953D01*
X0364025Y0171719D02*
X0362790Y0171719D01*
X0362173Y0171102D01*
X0362173Y0169250D01*
X0364025Y0169250D01*
X0364642Y0169867D01*
X0364025Y0170484D01*
X0362173Y0170484D01*
X0376905Y0169250D02*
X0379374Y0169250D01*
X0380599Y0169250D02*
X0381216Y0169250D01*
X0381216Y0169867D01*
X0380599Y0169867D01*
X0380599Y0169250D01*
X0383047Y0169250D02*
X0383047Y0172953D01*
X0384899Y0171102D01*
X0382430Y0171102D01*
X0379374Y0171719D02*
X0378140Y0172953D01*
X0378140Y0169250D01*
X0386113Y0171719D02*
X0387348Y0169250D01*
X0388582Y0171719D01*
X0389797Y0171102D02*
X0389797Y0170484D01*
X0392265Y0170484D01*
X0392265Y0169867D02*
X0392265Y0171102D01*
X0391648Y0171719D01*
X0390414Y0171719D01*
X0389797Y0171102D01*
X0390414Y0169250D02*
X0391648Y0169250D01*
X0392265Y0169867D01*
X0393480Y0169250D02*
X0394714Y0170484D01*
X0394097Y0170484D02*
X0395948Y0170484D01*
X0395948Y0169250D02*
X0395948Y0172953D01*
X0394097Y0172953D01*
X0393480Y0172336D01*
X0393480Y0171102D01*
X0394097Y0170484D01*
X0393480Y0175250D02*
X0393480Y0178953D01*
X0394714Y0177719D01*
X0395948Y0178953D01*
X0395948Y0175250D01*
X0392265Y0175867D02*
X0392265Y0177719D01*
X0392265Y0175867D02*
X0391648Y0175250D01*
X0389797Y0175250D01*
X0389797Y0177719D01*
X0388582Y0177102D02*
X0387965Y0177719D01*
X0386113Y0177719D01*
X0384899Y0177719D02*
X0384282Y0177719D01*
X0384282Y0175250D01*
X0384899Y0175250D02*
X0383665Y0175250D01*
X0382444Y0175867D02*
X0381826Y0175250D01*
X0379975Y0175250D01*
X0379975Y0177719D02*
X0381826Y0177719D01*
X0382444Y0177102D01*
X0382444Y0175867D01*
X0386113Y0175867D02*
X0386731Y0176484D01*
X0387965Y0176484D01*
X0388582Y0177102D01*
X0388582Y0175250D02*
X0386731Y0175250D01*
X0386113Y0175867D01*
X0384282Y0178953D02*
X0384282Y0179570D01*
X0343157Y0169867D02*
X0342540Y0170484D01*
X0340688Y0170484D01*
X0340688Y0171102D02*
X0340688Y0169250D01*
X0342540Y0169250D01*
X0343157Y0169867D01*
X0342540Y0171719D02*
X0341305Y0171719D01*
X0340688Y0171102D01*
X0339474Y0171719D02*
X0339474Y0169250D01*
X0339474Y0170484D02*
X0338239Y0171719D01*
X0337622Y0171719D01*
X0336404Y0171102D02*
X0335787Y0171719D01*
X0333935Y0171719D01*
X0333935Y0172953D02*
X0333935Y0169250D01*
X0335787Y0169250D01*
X0336404Y0169867D01*
X0336404Y0171102D01*
X0333335Y0175250D02*
X0333335Y0177719D01*
X0315530Y0178953D02*
X0315530Y0179570D01*
X0302642Y0178953D02*
X0302642Y0175250D01*
X0300173Y0175250D02*
X0300173Y0178953D01*
X0301408Y0177719D01*
X0302642Y0178953D01*
X0298342Y0177719D02*
X0297107Y0177719D01*
X0296490Y0177102D01*
X0296490Y0175250D01*
X0298342Y0175250D01*
X0298959Y0175867D01*
X0298342Y0176484D01*
X0296490Y0176484D01*
X0295276Y0175867D02*
X0294659Y0175250D01*
X0292807Y0175250D01*
X0291593Y0175250D02*
X0291593Y0178953D01*
X0290976Y0177719D02*
X0289741Y0177719D01*
X0289124Y0177102D01*
X0289124Y0175250D01*
X0287910Y0175250D02*
X0286675Y0175250D01*
X0287292Y0175250D02*
X0287292Y0177719D01*
X0287910Y0177719D01*
X0287292Y0178953D02*
X0287292Y0179570D01*
X0285454Y0177719D02*
X0283603Y0177719D01*
X0282985Y0177102D01*
X0282985Y0175250D01*
X0281771Y0175867D02*
X0281771Y0177102D01*
X0281154Y0177719D01*
X0279919Y0177719D01*
X0279302Y0177102D01*
X0279302Y0176484D01*
X0281771Y0176484D01*
X0281771Y0175867D02*
X0281154Y0175250D01*
X0279919Y0175250D01*
X0285454Y0175250D02*
X0285454Y0177719D01*
X0290976Y0177719D02*
X0291593Y0177102D01*
X0292807Y0177719D02*
X0294659Y0177719D01*
X0295276Y0177102D01*
X0295276Y0175867D01*
X0351737Y0148953D02*
X0351737Y0145250D01*
X0354206Y0145250D02*
X0354206Y0148953D01*
X0380592Y0144016D02*
X0381209Y0144016D01*
X0383665Y0145250D02*
X0384899Y0145250D01*
X0384282Y0145250D02*
X0384282Y0147719D01*
X0384899Y0147719D01*
X0386113Y0147719D02*
X0387965Y0147719D01*
X0388582Y0147102D01*
X0387965Y0146484D01*
X0386731Y0146484D01*
X0386113Y0145867D01*
X0386731Y0145250D01*
X0388582Y0145250D01*
X0389797Y0146484D02*
X0392265Y0146484D01*
X0392265Y0145867D02*
X0392265Y0147102D01*
X0391648Y0147719D01*
X0390414Y0147719D01*
X0389797Y0147102D01*
X0389797Y0146484D01*
X0390414Y0145250D02*
X0391648Y0145250D01*
X0392265Y0145867D01*
X0393480Y0145867D02*
X0393480Y0148336D01*
X0394097Y0148953D01*
X0395948Y0148953D01*
X0395948Y0145250D01*
X0394097Y0145250D01*
X0393480Y0145867D01*
X0384282Y0148953D02*
X0384282Y0149570D01*
D11*
X0215304Y0051573D02*
X0212101Y0055843D01*
X0208898Y0051573D01*
X0212101Y0049398D02*
X0208898Y0045127D01*
X0209966Y0042952D02*
X0214236Y0042952D01*
X0215304Y0041885D01*
X0215304Y0038682D01*
X0208898Y0038682D01*
X0208898Y0041885D01*
X0209966Y0042952D01*
X0215304Y0045127D02*
X0212101Y0049398D01*
X0208898Y0036507D02*
X0208898Y0032236D01*
X0215304Y0032236D01*
X0215304Y0036507D01*
X0212101Y0034372D02*
X0212101Y0032236D01*
X0212101Y0030061D02*
X0211034Y0028994D01*
X0211034Y0025791D01*
X0211034Y0027926D02*
X0208898Y0030061D01*
X0212101Y0030061D02*
X0214236Y0030061D01*
X0215304Y0028994D01*
X0215304Y0025791D01*
X0208898Y0025791D01*
X0212101Y0023616D02*
X0208898Y0019345D01*
X0212101Y0017170D02*
X0208898Y0012900D01*
X0212101Y0017170D02*
X0215304Y0012900D01*
X0223598Y0012600D02*
X0226098Y0010100D01*
X0231098Y0010100D01*
X0233598Y0012600D01*
X0236098Y0010100D01*
X0241098Y0010100D01*
X0243598Y0012600D01*
X0246098Y0010100D01*
X0251098Y0010100D01*
X0253598Y0012600D01*
X0256098Y0010100D01*
X0261098Y0010100D01*
X0263598Y0012600D01*
X0266098Y0010100D01*
X0271098Y0010100D01*
X0273598Y0012600D01*
X0276098Y0010100D01*
X0281098Y0010100D01*
X0283598Y0012600D01*
X0286098Y0010100D01*
X0291098Y0010100D01*
X0293598Y0012600D01*
X0296098Y0010100D01*
X0301098Y0010100D01*
X0303598Y0012600D01*
X0303598Y0027600D01*
X0301098Y0030100D01*
X0296098Y0030100D01*
X0293598Y0027600D01*
X0291098Y0030100D01*
X0286098Y0030100D01*
X0283598Y0027600D01*
X0281098Y0030100D01*
X0276098Y0030100D01*
X0273598Y0027600D01*
X0271098Y0030100D01*
X0266098Y0030100D01*
X0263598Y0027600D01*
X0261098Y0030100D01*
X0256098Y0030100D01*
X0253598Y0027600D01*
X0251098Y0030100D01*
X0246098Y0030100D01*
X0243598Y0027600D01*
X0241098Y0030100D01*
X0236098Y0030100D01*
X0233598Y0027600D01*
X0231098Y0030100D01*
X0226098Y0030100D01*
X0223598Y0027600D01*
X0223598Y0012600D01*
X0215304Y0019345D02*
X0212101Y0023616D01*
X0123598Y0042600D02*
X0121098Y0040100D01*
X0123598Y0042600D02*
X0123598Y0057600D01*
X0121098Y0060100D01*
X0313898Y0049073D02*
X0317101Y0053343D01*
X0320304Y0049073D01*
X0317101Y0046898D02*
X0313898Y0042627D01*
X0314966Y0040452D02*
X0319236Y0040452D01*
X0320304Y0039385D01*
X0320304Y0036182D01*
X0313898Y0036182D01*
X0313898Y0039385D01*
X0314966Y0040452D01*
X0320304Y0042627D02*
X0317101Y0046898D01*
X0313898Y0034007D02*
X0313898Y0029736D01*
X0320304Y0029736D01*
X0320304Y0034007D01*
X0317101Y0031872D02*
X0317101Y0029736D01*
X0317101Y0027561D02*
X0316034Y0026494D01*
X0316034Y0023291D01*
X0316034Y0025426D02*
X0313898Y0027561D01*
X0317101Y0027561D02*
X0319236Y0027561D01*
X0320304Y0026494D01*
X0320304Y0023291D01*
X0313898Y0023291D01*
X0317101Y0021116D02*
X0313898Y0016845D01*
X0317101Y0014670D02*
X0313898Y0010400D01*
X0317101Y0014670D02*
X0320304Y0010400D01*
X0323598Y0012600D02*
X0323598Y0027600D01*
X0326098Y0030100D01*
X0331098Y0030100D01*
X0333598Y0027600D01*
X0336098Y0030100D01*
X0341098Y0030100D01*
X0343598Y0027600D01*
X0346098Y0030100D01*
X0351098Y0030100D01*
X0353598Y0027600D01*
X0356098Y0030100D01*
X0361098Y0030100D01*
X0363598Y0027600D01*
X0366098Y0030100D01*
X0371098Y0030100D01*
X0373598Y0027600D01*
X0376098Y0030100D01*
X0381098Y0030100D01*
X0383598Y0027600D01*
X0386098Y0030100D01*
X0391098Y0030100D01*
X0393598Y0027600D01*
X0396098Y0030100D01*
X0401098Y0030100D01*
X0403598Y0027600D01*
X0403598Y0012600D01*
X0401098Y0010100D01*
X0396098Y0010100D01*
X0393598Y0012600D01*
X0391098Y0010100D01*
X0386098Y0010100D01*
X0383598Y0012600D01*
X0381098Y0010100D01*
X0376098Y0010100D01*
X0373598Y0012600D01*
X0371098Y0010100D01*
X0366098Y0010100D01*
X0363598Y0012600D01*
X0361098Y0010100D01*
X0356098Y0010100D01*
X0353598Y0012600D01*
X0351098Y0010100D01*
X0346098Y0010100D01*
X0343598Y0012600D01*
X0341098Y0010100D01*
X0336098Y0010100D01*
X0333598Y0012600D01*
X0331098Y0010100D01*
X0326098Y0010100D01*
X0323598Y0012600D01*
X0320304Y0016845D02*
X0317101Y0021116D01*
D12*
X0157548Y0085700D02*
X0157548Y0093500D01*
X0137898Y0097250D01*
X0137898Y0097300D01*
X0157548Y0101050D01*
X0157548Y0108800D01*
X0129748Y0108800D01*
X0129748Y0104000D01*
X0151948Y0104000D01*
X0151948Y0103900D01*
X0129748Y0099250D01*
X0129748Y0095200D01*
X0151948Y0090550D01*
X0151948Y0090500D01*
X0129748Y0090500D01*
X0129748Y0085700D01*
X0157548Y0085700D01*
X0157548Y0085813D02*
X0129748Y0085813D01*
X0129748Y0086012D02*
X0157548Y0086012D01*
X0157548Y0086210D02*
X0129748Y0086210D01*
X0129748Y0086409D02*
X0157548Y0086409D01*
X0157548Y0086608D02*
X0129748Y0086608D01*
X0129748Y0086806D02*
X0157548Y0086806D01*
X0157548Y0087005D02*
X0129748Y0087005D01*
X0129748Y0087203D02*
X0157548Y0087203D01*
X0157548Y0087402D02*
X0129748Y0087402D01*
X0129748Y0087600D02*
X0157548Y0087600D01*
X0157548Y0087799D02*
X0129748Y0087799D01*
X0129748Y0087997D02*
X0157548Y0087997D01*
X0157548Y0088196D02*
X0129748Y0088196D01*
X0129748Y0088394D02*
X0157548Y0088394D01*
X0157548Y0088593D02*
X0129748Y0088593D01*
X0129748Y0088791D02*
X0157548Y0088791D01*
X0157548Y0088990D02*
X0129748Y0088990D01*
X0129748Y0089188D02*
X0157548Y0089188D01*
X0157548Y0089387D02*
X0129748Y0089387D01*
X0129748Y0089585D02*
X0157548Y0089585D01*
X0157548Y0089784D02*
X0129748Y0089784D01*
X0129748Y0089982D02*
X0157548Y0089982D01*
X0157548Y0090181D02*
X0129748Y0090181D01*
X0129748Y0090379D02*
X0157548Y0090379D01*
X0157548Y0090578D02*
X0151816Y0090578D01*
X0150868Y0090776D02*
X0157548Y0090776D01*
X0157548Y0090975D02*
X0149921Y0090975D01*
X0148973Y0091173D02*
X0157548Y0091173D01*
X0157548Y0091372D02*
X0148025Y0091372D01*
X0147077Y0091570D02*
X0157548Y0091570D01*
X0157548Y0091769D02*
X0146130Y0091769D01*
X0145182Y0091967D02*
X0157548Y0091967D01*
X0157548Y0092166D02*
X0144234Y0092166D01*
X0143286Y0092364D02*
X0157548Y0092364D01*
X0157548Y0092563D02*
X0142339Y0092563D01*
X0141391Y0092761D02*
X0157548Y0092761D01*
X0157548Y0092960D02*
X0140443Y0092960D01*
X0139496Y0093158D02*
X0157548Y0093158D01*
X0157548Y0093357D02*
X0138548Y0093357D01*
X0137600Y0093555D02*
X0157258Y0093555D01*
X0156218Y0093754D02*
X0136652Y0093754D01*
X0135705Y0093952D02*
X0155178Y0093952D01*
X0154138Y0094151D02*
X0134757Y0094151D01*
X0133809Y0094349D02*
X0153097Y0094349D01*
X0152057Y0094548D02*
X0132861Y0094548D01*
X0131914Y0094746D02*
X0151017Y0094746D01*
X0149977Y0094945D02*
X0130966Y0094945D01*
X0130018Y0095143D02*
X0148937Y0095143D01*
X0147896Y0095342D02*
X0129748Y0095342D01*
X0129748Y0095541D02*
X0146856Y0095541D01*
X0145816Y0095739D02*
X0129748Y0095739D01*
X0129748Y0095938D02*
X0144776Y0095938D01*
X0143736Y0096136D02*
X0129748Y0096136D01*
X0129748Y0096335D02*
X0142695Y0096335D01*
X0141655Y0096533D02*
X0129748Y0096533D01*
X0129748Y0096732D02*
X0140615Y0096732D01*
X0139575Y0096930D02*
X0129748Y0096930D01*
X0129748Y0097129D02*
X0138535Y0097129D01*
X0138041Y0097327D02*
X0129748Y0097327D01*
X0129748Y0097526D02*
X0139081Y0097526D01*
X0140121Y0097724D02*
X0129748Y0097724D01*
X0129748Y0097923D02*
X0141161Y0097923D01*
X0142201Y0098121D02*
X0129748Y0098121D01*
X0129748Y0098320D02*
X0143241Y0098320D01*
X0144282Y0098518D02*
X0129748Y0098518D01*
X0129748Y0098717D02*
X0145322Y0098717D01*
X0146362Y0098915D02*
X0129748Y0098915D01*
X0129748Y0099114D02*
X0147402Y0099114D01*
X0148442Y0099312D02*
X0130046Y0099312D01*
X0130993Y0099511D02*
X0149483Y0099511D01*
X0150523Y0099709D02*
X0131941Y0099709D01*
X0132889Y0099908D02*
X0151563Y0099908D01*
X0152603Y0100106D02*
X0133836Y0100106D01*
X0134784Y0100305D02*
X0153643Y0100305D01*
X0154684Y0100503D02*
X0135732Y0100503D01*
X0136680Y0100702D02*
X0155724Y0100702D01*
X0156764Y0100900D02*
X0137627Y0100900D01*
X0138575Y0101099D02*
X0157548Y0101099D01*
X0157548Y0101297D02*
X0139523Y0101297D01*
X0140471Y0101496D02*
X0157548Y0101496D01*
X0157548Y0101694D02*
X0141418Y0101694D01*
X0142366Y0101893D02*
X0157548Y0101893D01*
X0157548Y0102091D02*
X0143314Y0102091D01*
X0144262Y0102290D02*
X0157548Y0102290D01*
X0157548Y0102488D02*
X0145209Y0102488D01*
X0146157Y0102687D02*
X0157548Y0102687D01*
X0157548Y0102885D02*
X0147105Y0102885D01*
X0148052Y0103084D02*
X0157548Y0103084D01*
X0157548Y0103282D02*
X0149000Y0103282D01*
X0149948Y0103481D02*
X0157548Y0103481D01*
X0157548Y0103679D02*
X0150896Y0103679D01*
X0151843Y0103878D02*
X0157548Y0103878D01*
X0157548Y0104077D02*
X0129748Y0104077D01*
X0129748Y0104275D02*
X0157548Y0104275D01*
X0157548Y0104474D02*
X0129748Y0104474D01*
X0129748Y0104672D02*
X0157548Y0104672D01*
X0157548Y0104871D02*
X0129748Y0104871D01*
X0129748Y0105069D02*
X0157548Y0105069D01*
X0157548Y0105268D02*
X0129748Y0105268D01*
X0129748Y0105466D02*
X0157548Y0105466D01*
X0157548Y0105665D02*
X0129748Y0105665D01*
X0129748Y0105863D02*
X0157548Y0105863D01*
X0157548Y0106062D02*
X0129748Y0106062D01*
X0129748Y0106260D02*
X0157548Y0106260D01*
X0157548Y0106459D02*
X0129748Y0106459D01*
X0129748Y0106657D02*
X0157548Y0106657D01*
X0157548Y0106856D02*
X0129748Y0106856D01*
X0129748Y0107054D02*
X0157548Y0107054D01*
X0157548Y0107253D02*
X0129748Y0107253D01*
X0129748Y0107451D02*
X0157548Y0107451D01*
X0157548Y0107650D02*
X0129748Y0107650D01*
X0129748Y0107848D02*
X0157548Y0107848D01*
X0157548Y0108047D02*
X0129748Y0108047D01*
X0129748Y0108245D02*
X0157548Y0108245D01*
X0157548Y0108444D02*
X0129748Y0108444D01*
X0129748Y0108642D02*
X0157548Y0108642D01*
X0150748Y0111600D02*
X0150748Y0116600D01*
X0136248Y0116600D01*
X0134848Y0116750D01*
X0133948Y0117150D01*
X0133448Y0117800D01*
X0133298Y0118750D01*
X0133498Y0119900D01*
X0133748Y0120350D01*
X0134148Y0120700D01*
X0135248Y0121200D01*
X0136748Y0121350D01*
X0150648Y0121350D01*
X0150648Y0126350D01*
X0129648Y0126350D01*
X0129648Y0121550D01*
X0132098Y0121550D01*
X0132098Y0121500D01*
X0132198Y0121550D01*
X0130848Y0120650D01*
X0129948Y0119500D01*
X0129448Y0118150D01*
X0129298Y0116600D01*
X0129398Y0115450D01*
X0129648Y0114450D01*
X0130048Y0113600D01*
X0130648Y0112900D01*
X0131448Y0112350D01*
X0132448Y0111950D01*
X0133698Y0111700D01*
X0135148Y0111600D01*
X0150748Y0111600D01*
X0150748Y0111620D02*
X0134859Y0111620D01*
X0133106Y0111818D02*
X0150748Y0111818D01*
X0150748Y0112017D02*
X0132281Y0112017D01*
X0131785Y0112215D02*
X0150748Y0112215D01*
X0150748Y0112414D02*
X0131355Y0112414D01*
X0131067Y0112612D02*
X0150748Y0112612D01*
X0150748Y0112811D02*
X0130778Y0112811D01*
X0130555Y0113010D02*
X0150748Y0113010D01*
X0150748Y0113208D02*
X0130384Y0113208D01*
X0130214Y0113407D02*
X0150748Y0113407D01*
X0150748Y0113605D02*
X0130046Y0113605D01*
X0129953Y0113804D02*
X0150748Y0113804D01*
X0150748Y0114002D02*
X0129859Y0114002D01*
X0129766Y0114201D02*
X0150748Y0114201D01*
X0150748Y0114399D02*
X0129672Y0114399D01*
X0129612Y0114598D02*
X0150748Y0114598D01*
X0150748Y0114796D02*
X0129562Y0114796D01*
X0129512Y0114995D02*
X0150748Y0114995D01*
X0150748Y0115193D02*
X0129463Y0115193D01*
X0129413Y0115392D02*
X0150748Y0115392D01*
X0150748Y0115590D02*
X0129386Y0115590D01*
X0129369Y0115789D02*
X0150748Y0115789D01*
X0150748Y0115987D02*
X0129352Y0115987D01*
X0129334Y0116186D02*
X0150748Y0116186D01*
X0150748Y0116384D02*
X0129317Y0116384D01*
X0129300Y0116583D02*
X0150748Y0116583D01*
X0150648Y0121545D02*
X0132192Y0121545D01*
X0132189Y0121545D02*
X0132098Y0121545D01*
X0131894Y0121347D02*
X0136718Y0121347D01*
X0135135Y0121148D02*
X0131596Y0121148D01*
X0131298Y0120950D02*
X0134698Y0120950D01*
X0134262Y0120751D02*
X0131001Y0120751D01*
X0130772Y0120553D02*
X0133980Y0120553D01*
X0133753Y0120354D02*
X0130617Y0120354D01*
X0130462Y0120156D02*
X0133641Y0120156D01*
X0133530Y0119957D02*
X0130306Y0119957D01*
X0130151Y0119759D02*
X0133474Y0119759D01*
X0133439Y0119560D02*
X0129996Y0119560D01*
X0129897Y0119362D02*
X0133405Y0119362D01*
X0133370Y0119163D02*
X0129824Y0119163D01*
X0129750Y0118965D02*
X0133336Y0118965D01*
X0133301Y0118766D02*
X0129677Y0118766D01*
X0129603Y0118568D02*
X0133327Y0118568D01*
X0133359Y0118369D02*
X0129530Y0118369D01*
X0129456Y0118171D02*
X0133390Y0118171D01*
X0133421Y0117972D02*
X0129431Y0117972D01*
X0129412Y0117774D02*
X0133469Y0117774D01*
X0133621Y0117575D02*
X0129393Y0117575D01*
X0129374Y0117377D02*
X0133774Y0117377D01*
X0133927Y0117178D02*
X0129354Y0117178D01*
X0129335Y0116980D02*
X0134332Y0116980D01*
X0134778Y0116781D02*
X0129316Y0116781D01*
X0127898Y0119750D02*
X0123298Y0119750D01*
X0123298Y0124750D01*
X0127898Y0124750D01*
X0127898Y0119750D01*
X0127898Y0119759D02*
X0123298Y0119759D01*
X0123298Y0119957D02*
X0127898Y0119957D01*
X0127898Y0120156D02*
X0123298Y0120156D01*
X0123298Y0120354D02*
X0127898Y0120354D01*
X0127898Y0120553D02*
X0123298Y0120553D01*
X0123298Y0120751D02*
X0127898Y0120751D01*
X0127898Y0120950D02*
X0123298Y0120950D01*
X0123298Y0121148D02*
X0127898Y0121148D01*
X0127898Y0121347D02*
X0123298Y0121347D01*
X0123298Y0121545D02*
X0127898Y0121545D01*
X0127898Y0121744D02*
X0123298Y0121744D01*
X0123298Y0121943D02*
X0127898Y0121943D01*
X0127898Y0122141D02*
X0123298Y0122141D01*
X0123298Y0122340D02*
X0127898Y0122340D01*
X0127898Y0122538D02*
X0123298Y0122538D01*
X0123298Y0122737D02*
X0127898Y0122737D01*
X0127898Y0122935D02*
X0123298Y0122935D01*
X0123298Y0123134D02*
X0127898Y0123134D01*
X0127898Y0123332D02*
X0123298Y0123332D01*
X0123298Y0123531D02*
X0127898Y0123531D01*
X0127898Y0123729D02*
X0123298Y0123729D01*
X0123298Y0123928D02*
X0127898Y0123928D01*
X0127898Y0124126D02*
X0123298Y0124126D01*
X0123298Y0124325D02*
X0127898Y0124325D01*
X0127898Y0124523D02*
X0123298Y0124523D01*
X0123298Y0124722D02*
X0127898Y0124722D01*
X0129648Y0124722D02*
X0150648Y0124722D01*
X0150648Y0124920D02*
X0129648Y0124920D01*
X0129648Y0125119D02*
X0150648Y0125119D01*
X0150648Y0125317D02*
X0129648Y0125317D01*
X0129648Y0125516D02*
X0150648Y0125516D01*
X0150648Y0125714D02*
X0129648Y0125714D01*
X0129648Y0125913D02*
X0150648Y0125913D01*
X0150648Y0126111D02*
X0129648Y0126111D01*
X0129648Y0126310D02*
X0150648Y0126310D01*
X0150648Y0124523D02*
X0129648Y0124523D01*
X0129648Y0124325D02*
X0150648Y0124325D01*
X0150648Y0124126D02*
X0129648Y0124126D01*
X0129648Y0123928D02*
X0150648Y0123928D01*
X0150648Y0123729D02*
X0129648Y0123729D01*
X0129648Y0123531D02*
X0150648Y0123531D01*
X0150648Y0123332D02*
X0129648Y0123332D01*
X0129648Y0123134D02*
X0150648Y0123134D01*
X0150648Y0122935D02*
X0129648Y0122935D01*
X0129648Y0122737D02*
X0150648Y0122737D01*
X0150648Y0122538D02*
X0129648Y0122538D01*
X0129648Y0122340D02*
X0150648Y0122340D01*
X0150648Y0122141D02*
X0129648Y0122141D01*
X0129648Y0121943D02*
X0150648Y0121943D01*
X0150648Y0121744D02*
X0129648Y0121744D01*
X0120698Y0121744D02*
X0099698Y0121744D01*
X0099698Y0121545D02*
X0120698Y0121545D01*
X0120698Y0121347D02*
X0099698Y0121347D01*
X0099698Y0121148D02*
X0120698Y0121148D01*
X0120698Y0120950D02*
X0099698Y0120950D01*
X0099698Y0120751D02*
X0120698Y0120751D01*
X0120698Y0120553D02*
X0099698Y0120553D01*
X0099698Y0120354D02*
X0120698Y0120354D01*
X0120698Y0120156D02*
X0099698Y0120156D01*
X0099698Y0119957D02*
X0120698Y0119957D01*
X0120698Y0119759D02*
X0099698Y0119759D01*
X0099698Y0119750D02*
X0120698Y0119750D01*
X0120698Y0124750D01*
X0099698Y0124750D01*
X0099698Y0119750D01*
X0099698Y0117000D02*
X0099698Y0112000D01*
X0114198Y0112000D01*
X0115598Y0111850D01*
X0116498Y0111450D01*
X0116998Y0110800D01*
X0117148Y0109850D01*
X0116948Y0108700D01*
X0116698Y0108250D01*
X0116298Y0107900D01*
X0115198Y0107400D01*
X0113698Y0107250D01*
X0099798Y0107250D01*
X0099798Y0102250D01*
X0127598Y0102250D01*
X0127598Y0107250D01*
X0127548Y0107150D01*
X0118548Y0107150D01*
X0118548Y0107250D01*
X0119748Y0108100D01*
X0120598Y0109150D01*
X0121098Y0110450D01*
X0121248Y0112000D01*
X0121148Y0113150D01*
X0120898Y0114150D01*
X0120448Y0115000D01*
X0119848Y0115700D01*
X0119048Y0116250D01*
X0117998Y0116650D01*
X0116748Y0116900D01*
X0115298Y0117000D01*
X0099698Y0117000D01*
X0099698Y0116980D02*
X0115592Y0116980D01*
X0117342Y0116781D02*
X0099698Y0116781D01*
X0099698Y0116583D02*
X0118175Y0116583D01*
X0118696Y0116384D02*
X0099698Y0116384D01*
X0099698Y0116186D02*
X0119142Y0116186D01*
X0119431Y0115987D02*
X0099698Y0115987D01*
X0099698Y0115789D02*
X0119719Y0115789D01*
X0119943Y0115590D02*
X0099698Y0115590D01*
X0099698Y0115392D02*
X0120113Y0115392D01*
X0120283Y0115193D02*
X0099698Y0115193D01*
X0099698Y0114995D02*
X0120451Y0114995D01*
X0120556Y0114796D02*
X0099698Y0114796D01*
X0099698Y0114598D02*
X0120661Y0114598D01*
X0120767Y0114399D02*
X0099698Y0114399D01*
X0099698Y0114201D02*
X0120872Y0114201D01*
X0120935Y0114002D02*
X0099698Y0114002D01*
X0099698Y0113804D02*
X0120985Y0113804D01*
X0121035Y0113605D02*
X0099698Y0113605D01*
X0099698Y0113407D02*
X0121084Y0113407D01*
X0121134Y0113208D02*
X0099698Y0113208D01*
X0099698Y0113010D02*
X0121161Y0113010D01*
X0121178Y0112811D02*
X0099698Y0112811D01*
X0099698Y0112612D02*
X0121195Y0112612D01*
X0121212Y0112414D02*
X0099698Y0112414D01*
X0099698Y0112215D02*
X0121230Y0112215D01*
X0121247Y0112017D02*
X0099698Y0112017D01*
X0097598Y0108800D02*
X0069798Y0108800D01*
X0069798Y0104000D01*
X0091998Y0104000D01*
X0091998Y0103900D01*
X0069798Y0099250D01*
X0069798Y0095200D01*
X0091998Y0090550D01*
X0091998Y0090500D01*
X0069798Y0090500D01*
X0069798Y0085700D01*
X0097598Y0085700D01*
X0097598Y0093500D01*
X0077948Y0097250D01*
X0077948Y0097300D01*
X0097598Y0101050D01*
X0097598Y0108800D01*
X0097598Y0108642D02*
X0069798Y0108642D01*
X0069798Y0108444D02*
X0097598Y0108444D01*
X0097598Y0108245D02*
X0069798Y0108245D01*
X0069798Y0108047D02*
X0097598Y0108047D01*
X0097598Y0107848D02*
X0069798Y0107848D01*
X0069798Y0107650D02*
X0097598Y0107650D01*
X0097598Y0107451D02*
X0069798Y0107451D01*
X0069798Y0107253D02*
X0097598Y0107253D01*
X0097598Y0107054D02*
X0069798Y0107054D01*
X0069798Y0106856D02*
X0097598Y0106856D01*
X0097598Y0106657D02*
X0069798Y0106657D01*
X0069798Y0106459D02*
X0097598Y0106459D01*
X0097598Y0106260D02*
X0069798Y0106260D01*
X0069798Y0106062D02*
X0097598Y0106062D01*
X0097598Y0105863D02*
X0069798Y0105863D01*
X0069798Y0105665D02*
X0097598Y0105665D01*
X0097598Y0105466D02*
X0069798Y0105466D01*
X0069798Y0105268D02*
X0097598Y0105268D01*
X0097598Y0105069D02*
X0069798Y0105069D01*
X0069798Y0104871D02*
X0097598Y0104871D01*
X0097598Y0104672D02*
X0069798Y0104672D01*
X0069798Y0104474D02*
X0097598Y0104474D01*
X0097598Y0104275D02*
X0069798Y0104275D01*
X0069798Y0104077D02*
X0097598Y0104077D01*
X0097598Y0103878D02*
X0091893Y0103878D01*
X0090946Y0103679D02*
X0097598Y0103679D01*
X0097598Y0103481D02*
X0089998Y0103481D01*
X0089050Y0103282D02*
X0097598Y0103282D01*
X0097598Y0103084D02*
X0088102Y0103084D01*
X0087155Y0102885D02*
X0097598Y0102885D01*
X0097598Y0102687D02*
X0086207Y0102687D01*
X0085259Y0102488D02*
X0097598Y0102488D01*
X0097598Y0102290D02*
X0084312Y0102290D01*
X0083364Y0102091D02*
X0097598Y0102091D01*
X0097598Y0101893D02*
X0082416Y0101893D01*
X0081468Y0101694D02*
X0097598Y0101694D01*
X0097598Y0101496D02*
X0080521Y0101496D01*
X0079573Y0101297D02*
X0097598Y0101297D01*
X0097598Y0101099D02*
X0078625Y0101099D01*
X0077677Y0100900D02*
X0096814Y0100900D01*
X0095774Y0100702D02*
X0076730Y0100702D01*
X0075782Y0100503D02*
X0094734Y0100503D01*
X0093693Y0100305D02*
X0074834Y0100305D01*
X0073886Y0100106D02*
X0092653Y0100106D01*
X0091613Y0099908D02*
X0072939Y0099908D01*
X0071991Y0099709D02*
X0090573Y0099709D01*
X0089533Y0099511D02*
X0071043Y0099511D01*
X0070096Y0099312D02*
X0088492Y0099312D01*
X0087452Y0099114D02*
X0069798Y0099114D01*
X0069798Y0098915D02*
X0086412Y0098915D01*
X0085372Y0098717D02*
X0069798Y0098717D01*
X0069798Y0098518D02*
X0084332Y0098518D01*
X0083291Y0098320D02*
X0069798Y0098320D01*
X0069798Y0098121D02*
X0082251Y0098121D01*
X0081211Y0097923D02*
X0069798Y0097923D01*
X0069798Y0097724D02*
X0080171Y0097724D01*
X0079625Y0096930D02*
X0069798Y0096930D01*
X0069798Y0096732D02*
X0080665Y0096732D01*
X0081705Y0096533D02*
X0069798Y0096533D01*
X0069798Y0096335D02*
X0082745Y0096335D01*
X0083786Y0096136D02*
X0069798Y0096136D01*
X0069798Y0095938D02*
X0084826Y0095938D01*
X0085866Y0095739D02*
X0069798Y0095739D01*
X0069798Y0095541D02*
X0086906Y0095541D01*
X0087946Y0095342D02*
X0069798Y0095342D01*
X0070068Y0095143D02*
X0088987Y0095143D01*
X0090027Y0094945D02*
X0071016Y0094945D01*
X0071964Y0094746D02*
X0091067Y0094746D01*
X0092107Y0094548D02*
X0072911Y0094548D01*
X0073859Y0094349D02*
X0093147Y0094349D01*
X0094188Y0094151D02*
X0074807Y0094151D01*
X0075755Y0093952D02*
X0095228Y0093952D01*
X0096268Y0093754D02*
X0076702Y0093754D01*
X0077650Y0093555D02*
X0097308Y0093555D01*
X0097598Y0093357D02*
X0078598Y0093357D01*
X0079546Y0093158D02*
X0097598Y0093158D01*
X0097598Y0092960D02*
X0080493Y0092960D01*
X0081441Y0092761D02*
X0097598Y0092761D01*
X0097598Y0092563D02*
X0082389Y0092563D01*
X0083336Y0092364D02*
X0097598Y0092364D01*
X0097598Y0092166D02*
X0084284Y0092166D01*
X0085232Y0091967D02*
X0097598Y0091967D01*
X0097598Y0091769D02*
X0086180Y0091769D01*
X0087127Y0091570D02*
X0097598Y0091570D01*
X0097598Y0091372D02*
X0088075Y0091372D01*
X0089023Y0091173D02*
X0097598Y0091173D01*
X0097598Y0090975D02*
X0089971Y0090975D01*
X0090918Y0090776D02*
X0097598Y0090776D01*
X0097598Y0090578D02*
X0091866Y0090578D01*
X0097598Y0090379D02*
X0069798Y0090379D01*
X0069798Y0090181D02*
X0097598Y0090181D01*
X0097598Y0089982D02*
X0069798Y0089982D01*
X0069798Y0089784D02*
X0097598Y0089784D01*
X0097598Y0089585D02*
X0069798Y0089585D01*
X0069798Y0089387D02*
X0097598Y0089387D01*
X0097598Y0089188D02*
X0069798Y0089188D01*
X0069798Y0088990D02*
X0097598Y0088990D01*
X0097598Y0088791D02*
X0069798Y0088791D01*
X0069798Y0088593D02*
X0097598Y0088593D01*
X0097598Y0088394D02*
X0069798Y0088394D01*
X0069798Y0088196D02*
X0097598Y0088196D01*
X0097598Y0087997D02*
X0069798Y0087997D01*
X0069798Y0087799D02*
X0097598Y0087799D01*
X0097598Y0087600D02*
X0069798Y0087600D01*
X0069798Y0087402D02*
X0097598Y0087402D01*
X0097598Y0087203D02*
X0069798Y0087203D01*
X0069798Y0087005D02*
X0097598Y0087005D01*
X0097598Y0086806D02*
X0069798Y0086806D01*
X0069798Y0086608D02*
X0097598Y0086608D01*
X0097598Y0086409D02*
X0069798Y0086409D01*
X0069798Y0086210D02*
X0097598Y0086210D01*
X0097598Y0086012D02*
X0069798Y0086012D01*
X0069798Y0085813D02*
X0097598Y0085813D01*
X0099698Y0089950D02*
X0122948Y0089950D01*
X0122948Y0084300D01*
X0127548Y0084300D01*
X0127548Y0100800D01*
X0122948Y0100800D01*
X0122948Y0095150D01*
X0099698Y0095150D01*
X0099698Y0089950D01*
X0099698Y0089982D02*
X0127548Y0089982D01*
X0127548Y0089784D02*
X0122948Y0089784D01*
X0122948Y0089585D02*
X0127548Y0089585D01*
X0127548Y0089387D02*
X0122948Y0089387D01*
X0122948Y0089188D02*
X0127548Y0089188D01*
X0127548Y0088990D02*
X0122948Y0088990D01*
X0122948Y0088791D02*
X0127548Y0088791D01*
X0127548Y0088593D02*
X0122948Y0088593D01*
X0122948Y0088394D02*
X0127548Y0088394D01*
X0127548Y0088196D02*
X0122948Y0088196D01*
X0122948Y0087997D02*
X0127548Y0087997D01*
X0127548Y0087799D02*
X0122948Y0087799D01*
X0122948Y0087600D02*
X0127548Y0087600D01*
X0127548Y0087402D02*
X0122948Y0087402D01*
X0122948Y0087203D02*
X0127548Y0087203D01*
X0127548Y0087005D02*
X0122948Y0087005D01*
X0122948Y0086806D02*
X0127548Y0086806D01*
X0127548Y0086608D02*
X0122948Y0086608D01*
X0122948Y0086409D02*
X0127548Y0086409D01*
X0127548Y0086210D02*
X0122948Y0086210D01*
X0122948Y0086012D02*
X0127548Y0086012D01*
X0127548Y0085813D02*
X0122948Y0085813D01*
X0122948Y0085615D02*
X0127548Y0085615D01*
X0127548Y0085416D02*
X0122948Y0085416D01*
X0122948Y0085218D02*
X0127548Y0085218D01*
X0127548Y0085019D02*
X0122948Y0085019D01*
X0122948Y0084821D02*
X0127548Y0084821D01*
X0127548Y0084622D02*
X0122948Y0084622D01*
X0122948Y0084424D02*
X0127548Y0084424D01*
X0127548Y0090181D02*
X0099698Y0090181D01*
X0099698Y0090379D02*
X0127548Y0090379D01*
X0127548Y0090578D02*
X0099698Y0090578D01*
X0099698Y0090776D02*
X0127548Y0090776D01*
X0127548Y0090975D02*
X0099698Y0090975D01*
X0099698Y0091173D02*
X0127548Y0091173D01*
X0127548Y0091372D02*
X0099698Y0091372D01*
X0099698Y0091570D02*
X0127548Y0091570D01*
X0127548Y0091769D02*
X0099698Y0091769D01*
X0099698Y0091967D02*
X0127548Y0091967D01*
X0127548Y0092166D02*
X0099698Y0092166D01*
X0099698Y0092364D02*
X0127548Y0092364D01*
X0127548Y0092563D02*
X0099698Y0092563D01*
X0099698Y0092761D02*
X0127548Y0092761D01*
X0127548Y0092960D02*
X0099698Y0092960D01*
X0099698Y0093158D02*
X0127548Y0093158D01*
X0127548Y0093357D02*
X0099698Y0093357D01*
X0099698Y0093555D02*
X0127548Y0093555D01*
X0127548Y0093754D02*
X0099698Y0093754D01*
X0099698Y0093952D02*
X0127548Y0093952D01*
X0127548Y0094151D02*
X0099698Y0094151D01*
X0099698Y0094349D02*
X0127548Y0094349D01*
X0127548Y0094548D02*
X0099698Y0094548D01*
X0099698Y0094746D02*
X0127548Y0094746D01*
X0127548Y0094945D02*
X0099698Y0094945D01*
X0099698Y0095143D02*
X0127548Y0095143D01*
X0127548Y0095342D02*
X0122948Y0095342D01*
X0122948Y0095541D02*
X0127548Y0095541D01*
X0127548Y0095739D02*
X0122948Y0095739D01*
X0122948Y0095938D02*
X0127548Y0095938D01*
X0127548Y0096136D02*
X0122948Y0096136D01*
X0122948Y0096335D02*
X0127548Y0096335D01*
X0127548Y0096533D02*
X0122948Y0096533D01*
X0122948Y0096732D02*
X0127548Y0096732D01*
X0127548Y0096930D02*
X0122948Y0096930D01*
X0122948Y0097129D02*
X0127548Y0097129D01*
X0127548Y0097327D02*
X0122948Y0097327D01*
X0122948Y0097526D02*
X0127548Y0097526D01*
X0127548Y0097724D02*
X0122948Y0097724D01*
X0122948Y0097923D02*
X0127548Y0097923D01*
X0127548Y0098121D02*
X0122948Y0098121D01*
X0122948Y0098320D02*
X0127548Y0098320D01*
X0127548Y0098518D02*
X0122948Y0098518D01*
X0122948Y0098717D02*
X0127548Y0098717D01*
X0127548Y0098915D02*
X0122948Y0098915D01*
X0122948Y0099114D02*
X0127548Y0099114D01*
X0127548Y0099312D02*
X0122948Y0099312D01*
X0122948Y0099511D02*
X0127548Y0099511D01*
X0127548Y0099709D02*
X0122948Y0099709D01*
X0122948Y0099908D02*
X0127548Y0099908D01*
X0127548Y0100106D02*
X0122948Y0100106D01*
X0122948Y0100305D02*
X0127548Y0100305D01*
X0127548Y0100503D02*
X0122948Y0100503D01*
X0122948Y0100702D02*
X0127548Y0100702D01*
X0127598Y0102290D02*
X0099798Y0102290D01*
X0099798Y0102488D02*
X0127598Y0102488D01*
X0127598Y0102687D02*
X0099798Y0102687D01*
X0099798Y0102885D02*
X0127598Y0102885D01*
X0127598Y0103084D02*
X0099798Y0103084D01*
X0099798Y0103282D02*
X0127598Y0103282D01*
X0127598Y0103481D02*
X0099798Y0103481D01*
X0099798Y0103679D02*
X0127598Y0103679D01*
X0127598Y0103878D02*
X0099798Y0103878D01*
X0099798Y0104077D02*
X0127598Y0104077D01*
X0127598Y0104275D02*
X0099798Y0104275D01*
X0099798Y0104474D02*
X0127598Y0104474D01*
X0127598Y0104672D02*
X0099798Y0104672D01*
X0099798Y0104871D02*
X0127598Y0104871D01*
X0127598Y0105069D02*
X0099798Y0105069D01*
X0099798Y0105268D02*
X0127598Y0105268D01*
X0127598Y0105466D02*
X0099798Y0105466D01*
X0099798Y0105665D02*
X0127598Y0105665D01*
X0127598Y0105863D02*
X0099798Y0105863D01*
X0099798Y0106062D02*
X0127598Y0106062D01*
X0127598Y0106260D02*
X0099798Y0106260D01*
X0099798Y0106459D02*
X0127598Y0106459D01*
X0127598Y0106657D02*
X0099798Y0106657D01*
X0099798Y0106856D02*
X0127598Y0106856D01*
X0127598Y0107054D02*
X0099798Y0107054D01*
X0113725Y0107253D02*
X0118552Y0107253D01*
X0118832Y0107451D02*
X0115311Y0107451D01*
X0115748Y0107650D02*
X0119113Y0107650D01*
X0119393Y0107848D02*
X0116185Y0107848D01*
X0116466Y0108047D02*
X0119673Y0108047D01*
X0119866Y0108245D02*
X0116693Y0108245D01*
X0116806Y0108444D02*
X0120027Y0108444D01*
X0120187Y0108642D02*
X0116916Y0108642D01*
X0116973Y0108841D02*
X0120348Y0108841D01*
X0120509Y0109039D02*
X0117007Y0109039D01*
X0117042Y0109238D02*
X0120632Y0109238D01*
X0120709Y0109436D02*
X0117076Y0109436D01*
X0117111Y0109635D02*
X0120785Y0109635D01*
X0120861Y0109833D02*
X0117146Y0109833D01*
X0117120Y0110032D02*
X0120938Y0110032D01*
X0121014Y0110230D02*
X0117088Y0110230D01*
X0117057Y0110429D02*
X0121090Y0110429D01*
X0121116Y0110627D02*
X0117026Y0110627D01*
X0116979Y0110826D02*
X0121135Y0110826D01*
X0121154Y0111024D02*
X0116826Y0111024D01*
X0116673Y0111223D02*
X0121173Y0111223D01*
X0121192Y0111421D02*
X0116520Y0111421D01*
X0116116Y0111620D02*
X0121212Y0111620D01*
X0121231Y0111818D02*
X0115669Y0111818D01*
X0120698Y0121943D02*
X0099698Y0121943D01*
X0099698Y0122141D02*
X0120698Y0122141D01*
X0120698Y0122340D02*
X0099698Y0122340D01*
X0099698Y0122538D02*
X0120698Y0122538D01*
X0120698Y0122737D02*
X0099698Y0122737D01*
X0099698Y0122935D02*
X0120698Y0122935D01*
X0120698Y0123134D02*
X0099698Y0123134D01*
X0099698Y0123332D02*
X0120698Y0123332D01*
X0120698Y0123531D02*
X0099698Y0123531D01*
X0099698Y0123729D02*
X0120698Y0123729D01*
X0120698Y0123928D02*
X0099698Y0123928D01*
X0099698Y0124126D02*
X0120698Y0124126D01*
X0120698Y0124325D02*
X0099698Y0124325D01*
X0099698Y0124523D02*
X0120698Y0124523D01*
X0120698Y0124722D02*
X0099698Y0124722D01*
X0099848Y0127650D02*
X0120848Y0127650D01*
X0120848Y0132450D01*
X0120698Y0132350D01*
X0118248Y0132350D01*
X0118248Y0132450D01*
X0119598Y0133350D01*
X0120548Y0134500D01*
X0121098Y0135850D01*
X0121298Y0137400D01*
X0121198Y0138550D01*
X0120948Y0139550D01*
X0120498Y0140400D01*
X0119898Y0141100D01*
X0119098Y0141650D01*
X0118048Y0142050D01*
X0116798Y0142300D01*
X0115348Y0142400D01*
X0099748Y0142400D01*
X0099748Y0137400D01*
X0114248Y0137400D01*
X0115648Y0137250D01*
X0116548Y0136850D01*
X0117048Y0136200D01*
X0117198Y0135250D01*
X0116998Y0134100D01*
X0116748Y0133650D01*
X0116348Y0133300D01*
X0115248Y0132800D01*
X0113748Y0132650D01*
X0099848Y0132650D01*
X0099848Y0127650D01*
X0099848Y0127699D02*
X0120848Y0127699D01*
X0120848Y0127898D02*
X0099848Y0127898D01*
X0099848Y0128096D02*
X0120848Y0128096D01*
X0120848Y0128295D02*
X0099848Y0128295D01*
X0099848Y0128493D02*
X0120848Y0128493D01*
X0120848Y0128692D02*
X0099848Y0128692D01*
X0099848Y0128890D02*
X0120848Y0128890D01*
X0120848Y0129089D02*
X0099848Y0129089D01*
X0099848Y0129287D02*
X0120848Y0129287D01*
X0120848Y0129486D02*
X0099848Y0129486D01*
X0099848Y0129684D02*
X0120848Y0129684D01*
X0120848Y0129883D02*
X0099848Y0129883D01*
X0099848Y0130081D02*
X0120848Y0130081D01*
X0120848Y0130280D02*
X0099848Y0130280D01*
X0099848Y0130479D02*
X0120848Y0130479D01*
X0120848Y0130677D02*
X0099848Y0130677D01*
X0099848Y0130876D02*
X0120848Y0130876D01*
X0120848Y0131074D02*
X0099848Y0131074D01*
X0099848Y0131273D02*
X0120848Y0131273D01*
X0120848Y0131471D02*
X0099848Y0131471D01*
X0099848Y0131670D02*
X0120848Y0131670D01*
X0120848Y0131868D02*
X0099848Y0131868D01*
X0099848Y0132067D02*
X0120848Y0132067D01*
X0120848Y0132265D02*
X0099848Y0132265D01*
X0099848Y0132464D02*
X0118269Y0132464D01*
X0118567Y0132662D02*
X0113870Y0132662D01*
X0115382Y0132861D02*
X0118864Y0132861D01*
X0119162Y0133059D02*
X0115819Y0133059D01*
X0116255Y0133258D02*
X0119460Y0133258D01*
X0119686Y0133456D02*
X0116527Y0133456D01*
X0116751Y0133655D02*
X0119850Y0133655D01*
X0120014Y0133853D02*
X0116861Y0133853D01*
X0116972Y0134052D02*
X0120178Y0134052D01*
X0120342Y0134250D02*
X0117025Y0134250D01*
X0117059Y0134449D02*
X0120506Y0134449D01*
X0120608Y0134647D02*
X0117094Y0134647D01*
X0117128Y0134846D02*
X0120689Y0134846D01*
X0120770Y0135044D02*
X0117163Y0135044D01*
X0117197Y0135243D02*
X0120851Y0135243D01*
X0120932Y0135441D02*
X0117168Y0135441D01*
X0117137Y0135640D02*
X0121013Y0135640D01*
X0121094Y0135838D02*
X0117106Y0135838D01*
X0117074Y0136037D02*
X0121123Y0136037D01*
X0121148Y0136235D02*
X0117021Y0136235D01*
X0116869Y0136434D02*
X0121174Y0136434D01*
X0121199Y0136632D02*
X0116716Y0136632D01*
X0116563Y0136831D02*
X0121225Y0136831D01*
X0121251Y0137029D02*
X0116145Y0137029D01*
X0115698Y0137228D02*
X0121276Y0137228D01*
X0121296Y0137426D02*
X0099748Y0137426D01*
X0099748Y0137625D02*
X0121279Y0137625D01*
X0121262Y0137823D02*
X0099748Y0137823D01*
X0099748Y0138022D02*
X0121244Y0138022D01*
X0121227Y0138220D02*
X0099748Y0138220D01*
X0099748Y0138419D02*
X0121210Y0138419D01*
X0121182Y0138617D02*
X0099748Y0138617D01*
X0099748Y0138816D02*
X0121132Y0138816D01*
X0121082Y0139014D02*
X0099748Y0139014D01*
X0099748Y0139213D02*
X0121033Y0139213D01*
X0120983Y0139412D02*
X0099748Y0139412D01*
X0099748Y0139610D02*
X0120917Y0139610D01*
X0120812Y0139809D02*
X0099748Y0139809D01*
X0099748Y0140007D02*
X0120706Y0140007D01*
X0120601Y0140206D02*
X0099748Y0140206D01*
X0099748Y0140404D02*
X0120495Y0140404D01*
X0120325Y0140603D02*
X0099748Y0140603D01*
X0099748Y0140801D02*
X0120155Y0140801D01*
X0119984Y0141000D02*
X0099748Y0141000D01*
X0099748Y0141198D02*
X0119756Y0141198D01*
X0119467Y0141397D02*
X0099748Y0141397D01*
X0099748Y0141595D02*
X0119178Y0141595D01*
X0118721Y0141794D02*
X0099748Y0141794D01*
X0099748Y0141992D02*
X0118200Y0141992D01*
X0117345Y0142191D02*
X0099748Y0142191D01*
X0099748Y0142389D02*
X0115505Y0142389D01*
X0114667Y0144970D02*
X0106575Y0144970D01*
X0105598Y0145100D02*
X0107848Y0144800D01*
X0110498Y0144700D01*
X0114248Y0144900D01*
X0116048Y0145200D01*
X0117698Y0145750D01*
X0119098Y0146550D01*
X0120198Y0147600D01*
X0120648Y0148250D01*
X0120948Y0149000D01*
X0121148Y0149850D01*
X0121198Y0150800D01*
X0121048Y0151650D01*
X0116948Y0151650D01*
X0116948Y0151500D01*
X0116648Y0150900D01*
X0116148Y0150450D01*
X0115398Y0150100D01*
X0114398Y0149850D01*
X0113098Y0149700D01*
X0109548Y0149600D01*
X0107498Y0149700D01*
X0105748Y0150050D01*
X0105048Y0150350D01*
X0104548Y0150800D01*
X0104198Y0151350D01*
X0104148Y0151550D01*
X0100098Y0151550D01*
X0100298Y0151350D01*
X0104348Y0151350D01*
X0104248Y0151850D01*
X0104348Y0152600D01*
X0104698Y0153200D01*
X0105248Y0153650D01*
X0105948Y0154000D01*
X0107848Y0154450D01*
X0110298Y0154600D01*
X0113548Y0154450D01*
X0115698Y0154050D01*
X0116398Y0153700D01*
X0116898Y0153250D01*
X0117198Y0152700D01*
X0117298Y0152000D01*
X0117198Y0151400D01*
X0121298Y0151400D01*
X0121248Y0151600D01*
X0120798Y0152700D01*
X0119898Y0153750D01*
X0118498Y0154600D01*
X0118498Y0154700D01*
X0120848Y0154700D01*
X0120848Y0159500D01*
X0100898Y0159500D01*
X0098998Y0159400D01*
X0097348Y0159050D01*
X0095948Y0158450D01*
X0094798Y0157650D01*
X0093898Y0156550D01*
X0093248Y0155150D01*
X0092848Y0153450D01*
X0092698Y0151400D01*
X0092798Y0149900D01*
X0093098Y0148600D01*
X0093548Y0147450D01*
X0094198Y0146500D01*
X0094998Y0145750D01*
X0095948Y0145200D01*
X0097048Y0144900D01*
X0098298Y0144800D01*
X0098298Y0149600D01*
X0097398Y0149800D01*
X0096698Y0150350D01*
X0096248Y0151150D01*
X0096098Y0152050D01*
X0096148Y0152750D01*
X0096348Y0153350D01*
X0096698Y0153850D01*
X0097148Y0154200D01*
X0098348Y0154650D01*
X0099798Y0154800D01*
X0102548Y0154800D01*
X0102548Y0154700D01*
X0101498Y0153850D01*
X0100698Y0152850D01*
X0100148Y0151700D01*
X0100098Y0151550D01*
X0100098Y0151700D01*
X0099948Y0150700D01*
X0100098Y0149300D01*
X0100548Y0148100D01*
X0101298Y0147050D01*
X0102348Y0146200D01*
X0103748Y0145550D01*
X0105598Y0145100D01*
X0105317Y0145168D02*
X0115858Y0145168D01*
X0116549Y0145367D02*
X0104501Y0145367D01*
X0103715Y0145565D02*
X0117145Y0145565D01*
X0117723Y0145764D02*
X0103288Y0145764D01*
X0102860Y0145962D02*
X0118070Y0145962D01*
X0118418Y0146161D02*
X0102433Y0146161D01*
X0102152Y0146359D02*
X0118765Y0146359D01*
X0119107Y0146558D02*
X0101906Y0146558D01*
X0101661Y0146756D02*
X0119315Y0146756D01*
X0119523Y0146955D02*
X0101416Y0146955D01*
X0101225Y0147153D02*
X0119731Y0147153D01*
X0119939Y0147352D02*
X0101083Y0147352D01*
X0100941Y0147550D02*
X0120147Y0147550D01*
X0120302Y0147749D02*
X0100799Y0147749D01*
X0100657Y0147948D02*
X0120439Y0147948D01*
X0120576Y0148146D02*
X0100531Y0148146D01*
X0100457Y0148345D02*
X0120686Y0148345D01*
X0120766Y0148543D02*
X0100382Y0148543D01*
X0100308Y0148742D02*
X0120845Y0148742D01*
X0120924Y0148940D02*
X0100233Y0148940D01*
X0100159Y0149139D02*
X0120981Y0149139D01*
X0121028Y0149337D02*
X0100094Y0149337D01*
X0100073Y0149536D02*
X0121074Y0149536D01*
X0121121Y0149734D02*
X0113394Y0149734D01*
X0114729Y0149933D02*
X0121153Y0149933D01*
X0121163Y0150131D02*
X0115465Y0150131D01*
X0115891Y0150330D02*
X0121174Y0150330D01*
X0121184Y0150528D02*
X0116235Y0150528D01*
X0116456Y0150727D02*
X0121195Y0150727D01*
X0121176Y0150925D02*
X0116661Y0150925D01*
X0116760Y0151124D02*
X0121141Y0151124D01*
X0121106Y0151322D02*
X0116860Y0151322D01*
X0116948Y0151521D02*
X0121071Y0151521D01*
X0121268Y0151521D02*
X0117219Y0151521D01*
X0117252Y0151719D02*
X0121200Y0151719D01*
X0121118Y0151918D02*
X0117285Y0151918D01*
X0117282Y0152116D02*
X0121037Y0152116D01*
X0120956Y0152315D02*
X0117253Y0152315D01*
X0117225Y0152513D02*
X0120875Y0152513D01*
X0120788Y0152712D02*
X0117192Y0152712D01*
X0117084Y0152910D02*
X0120618Y0152910D01*
X0120448Y0153109D02*
X0116975Y0153109D01*
X0116835Y0153307D02*
X0120278Y0153307D01*
X0120108Y0153506D02*
X0116614Y0153506D01*
X0116390Y0153704D02*
X0119938Y0153704D01*
X0119647Y0153903D02*
X0115993Y0153903D01*
X0115422Y0154101D02*
X0119320Y0154101D01*
X0118993Y0154300D02*
X0114355Y0154300D01*
X0112500Y0154498D02*
X0118666Y0154498D01*
X0118498Y0154697D02*
X0102545Y0154697D01*
X0102299Y0154498D02*
X0108639Y0154498D01*
X0107215Y0154300D02*
X0102054Y0154300D01*
X0101809Y0154101D02*
X0106376Y0154101D01*
X0105754Y0153903D02*
X0101564Y0153903D01*
X0101382Y0153704D02*
X0105357Y0153704D01*
X0105072Y0153506D02*
X0101223Y0153506D01*
X0101064Y0153307D02*
X0104830Y0153307D01*
X0104645Y0153109D02*
X0100905Y0153109D01*
X0100747Y0152910D02*
X0104529Y0152910D01*
X0104414Y0152712D02*
X0100632Y0152712D01*
X0100537Y0152513D02*
X0104337Y0152513D01*
X0104310Y0152315D02*
X0100442Y0152315D01*
X0100347Y0152116D02*
X0104284Y0152116D01*
X0104257Y0151918D02*
X0100253Y0151918D01*
X0100158Y0151719D02*
X0104275Y0151719D01*
X0104314Y0151521D02*
X0100128Y0151521D01*
X0100072Y0151521D02*
X0104156Y0151521D01*
X0104216Y0151322D02*
X0100042Y0151322D01*
X0100012Y0151124D02*
X0104342Y0151124D01*
X0104469Y0150925D02*
X0099982Y0150925D01*
X0099952Y0150727D02*
X0104630Y0150727D01*
X0104850Y0150528D02*
X0099967Y0150528D01*
X0099988Y0150330D02*
X0105096Y0150330D01*
X0105559Y0150131D02*
X0100009Y0150131D01*
X0100031Y0149933D02*
X0106335Y0149933D01*
X0107328Y0149734D02*
X0100052Y0149734D01*
X0098298Y0149536D02*
X0092883Y0149536D01*
X0092837Y0149734D02*
X0097695Y0149734D01*
X0097230Y0149933D02*
X0092796Y0149933D01*
X0092783Y0150131D02*
X0096977Y0150131D01*
X0096724Y0150330D02*
X0092770Y0150330D01*
X0092757Y0150528D02*
X0096598Y0150528D01*
X0096487Y0150727D02*
X0092743Y0150727D01*
X0092730Y0150925D02*
X0096375Y0150925D01*
X0096263Y0151124D02*
X0092717Y0151124D01*
X0092704Y0151322D02*
X0096220Y0151322D01*
X0096187Y0151521D02*
X0092707Y0151521D01*
X0092722Y0151719D02*
X0096154Y0151719D01*
X0096120Y0151918D02*
X0092736Y0151918D01*
X0092751Y0152116D02*
X0096103Y0152116D01*
X0096117Y0152315D02*
X0092765Y0152315D01*
X0092780Y0152513D02*
X0096132Y0152513D01*
X0096146Y0152712D02*
X0092794Y0152712D01*
X0092809Y0152910D02*
X0096202Y0152910D01*
X0096268Y0153109D02*
X0092823Y0153109D01*
X0092838Y0153307D02*
X0096334Y0153307D01*
X0096458Y0153506D02*
X0092862Y0153506D01*
X0092908Y0153704D02*
X0096596Y0153704D01*
X0096766Y0153903D02*
X0092955Y0153903D01*
X0093002Y0154101D02*
X0097022Y0154101D01*
X0097415Y0154300D02*
X0093048Y0154300D01*
X0093095Y0154498D02*
X0097944Y0154498D01*
X0098802Y0154697D02*
X0093142Y0154697D01*
X0093189Y0154895D02*
X0120848Y0154895D01*
X0120848Y0155094D02*
X0093235Y0155094D01*
X0093315Y0155292D02*
X0120848Y0155292D01*
X0120848Y0155491D02*
X0093407Y0155491D01*
X0093499Y0155689D02*
X0120848Y0155689D01*
X0120848Y0155888D02*
X0093591Y0155888D01*
X0093683Y0156086D02*
X0120848Y0156086D01*
X0120848Y0156285D02*
X0093775Y0156285D01*
X0093868Y0156483D02*
X0120848Y0156483D01*
X0120848Y0156682D02*
X0094006Y0156682D01*
X0094169Y0156881D02*
X0120848Y0156881D01*
X0120848Y0157079D02*
X0094331Y0157079D01*
X0094494Y0157278D02*
X0120848Y0157278D01*
X0120848Y0157476D02*
X0094656Y0157476D01*
X0094834Y0157675D02*
X0120848Y0157675D01*
X0120848Y0157873D02*
X0095119Y0157873D01*
X0095404Y0158072D02*
X0120848Y0158072D01*
X0120848Y0158270D02*
X0095690Y0158270D01*
X0095992Y0158469D02*
X0120848Y0158469D01*
X0120848Y0158667D02*
X0096455Y0158667D01*
X0096918Y0158866D02*
X0120848Y0158866D01*
X0120848Y0159064D02*
X0097415Y0159064D01*
X0098351Y0159263D02*
X0120848Y0159263D01*
X0120848Y0159461D02*
X0100160Y0159461D01*
X0097598Y0160350D02*
X0097598Y0165350D01*
X0069798Y0165350D01*
X0069798Y0160350D01*
X0097598Y0160350D01*
X0097598Y0160454D02*
X0069798Y0160454D01*
X0069798Y0160652D02*
X0097598Y0160652D01*
X0097598Y0160851D02*
X0069798Y0160851D01*
X0069798Y0161049D02*
X0097598Y0161049D01*
X0097598Y0161248D02*
X0069798Y0161248D01*
X0069798Y0161446D02*
X0097598Y0161446D01*
X0097598Y0161645D02*
X0069798Y0161645D01*
X0069798Y0161843D02*
X0097598Y0161843D01*
X0097598Y0162042D02*
X0069798Y0162042D01*
X0069798Y0162240D02*
X0097598Y0162240D01*
X0097598Y0162439D02*
X0069798Y0162439D01*
X0069798Y0162637D02*
X0097598Y0162637D01*
X0097598Y0162836D02*
X0069798Y0162836D01*
X0069798Y0163034D02*
X0097598Y0163034D01*
X0097598Y0163233D02*
X0069798Y0163233D01*
X0069798Y0163431D02*
X0097598Y0163431D01*
X0097598Y0163630D02*
X0069798Y0163630D01*
X0069798Y0163828D02*
X0097598Y0163828D01*
X0097598Y0164027D02*
X0069798Y0164027D01*
X0069798Y0164225D02*
X0097598Y0164225D01*
X0097598Y0164424D02*
X0069798Y0164424D01*
X0069798Y0164622D02*
X0097598Y0164622D01*
X0097598Y0164821D02*
X0069798Y0164821D01*
X0069798Y0165019D02*
X0097598Y0165019D01*
X0097598Y0165218D02*
X0069798Y0165218D01*
X0071148Y0168600D02*
X0072048Y0168150D01*
X0073048Y0167800D01*
X0075148Y0167550D01*
X0076548Y0167600D01*
X0077748Y0167800D01*
X0078748Y0168150D01*
X0079598Y0168650D01*
X0080298Y0169350D01*
X0080848Y0170200D01*
X0081748Y0172450D01*
X0082498Y0175100D01*
X0079148Y0175100D01*
X0078698Y0173800D01*
X0077998Y0172950D01*
X0077048Y0172450D01*
X0075798Y0172300D01*
X0074698Y0172400D01*
X0073748Y0172700D01*
X0073098Y0173300D01*
X0072898Y0174150D01*
X0073048Y0175100D01*
X0069798Y0175100D01*
X0069798Y0175150D01*
X0069448Y0173900D01*
X0069348Y0172250D01*
X0069448Y0171050D01*
X0069798Y0170050D01*
X0070398Y0169250D01*
X0071148Y0168600D01*
X0071163Y0168593D02*
X0079501Y0168593D01*
X0079740Y0168791D02*
X0070928Y0168791D01*
X0070699Y0168990D02*
X0079938Y0168990D01*
X0080137Y0169188D02*
X0070470Y0169188D01*
X0070296Y0169387D02*
X0080322Y0169387D01*
X0080451Y0169585D02*
X0070147Y0169585D01*
X0069998Y0169784D02*
X0080579Y0169784D01*
X0080708Y0169982D02*
X0069849Y0169982D01*
X0069753Y0170181D02*
X0080836Y0170181D01*
X0080920Y0170379D02*
X0069683Y0170379D01*
X0069614Y0170578D02*
X0081000Y0170578D01*
X0081079Y0170776D02*
X0069544Y0170776D01*
X0069475Y0170975D02*
X0081158Y0170975D01*
X0081238Y0171173D02*
X0069438Y0171173D01*
X0069422Y0171372D02*
X0081317Y0171372D01*
X0081397Y0171570D02*
X0069405Y0171570D01*
X0069389Y0171769D02*
X0081476Y0171769D01*
X0081555Y0171967D02*
X0069372Y0171967D01*
X0069355Y0172166D02*
X0081635Y0172166D01*
X0081714Y0172364D02*
X0076335Y0172364D01*
X0077263Y0172563D02*
X0081780Y0172563D01*
X0081837Y0172761D02*
X0077640Y0172761D01*
X0078007Y0172960D02*
X0081893Y0172960D01*
X0081949Y0173158D02*
X0078170Y0173158D01*
X0078334Y0173357D02*
X0082005Y0173357D01*
X0082061Y0173555D02*
X0078497Y0173555D01*
X0078661Y0173754D02*
X0082117Y0173754D01*
X0082174Y0173952D02*
X0078751Y0173952D01*
X0078820Y0174151D02*
X0082230Y0174151D01*
X0082286Y0174350D02*
X0078889Y0174350D01*
X0078957Y0174548D02*
X0082342Y0174548D01*
X0082398Y0174747D02*
X0079026Y0174747D01*
X0079095Y0174945D02*
X0082455Y0174945D01*
X0082498Y0175150D02*
X0079148Y0175150D01*
X0079498Y0176200D01*
X0080198Y0177300D01*
X0076048Y0177300D01*
X0075248Y0177250D01*
X0074548Y0177050D01*
X0073998Y0176700D01*
X0073548Y0176300D01*
X0072998Y0175300D01*
X0072998Y0175200D01*
X0069748Y0175200D01*
X0069748Y0175250D01*
X0070048Y0175800D01*
X0070498Y0176300D01*
X0071848Y0177250D01*
X0071848Y0177350D01*
X0070748Y0177600D01*
X0069648Y0178000D01*
X0069648Y0182800D01*
X0071398Y0182300D01*
X0073698Y0182150D01*
X0084698Y0182150D01*
X0086048Y0182100D01*
X0087298Y0181900D01*
X0088398Y0181500D01*
X0089348Y0180850D01*
X0090098Y0179950D01*
X0090648Y0178750D01*
X0090998Y0177150D01*
X0091098Y0175100D01*
X0091248Y0175000D01*
X0091148Y0173650D01*
X0090898Y0172350D01*
X0090448Y0171200D01*
X0089798Y0170200D01*
X0088898Y0169350D01*
X0087798Y0168700D01*
X0086398Y0168300D01*
X0084698Y0168150D01*
X0084198Y0168150D01*
X0084198Y0172650D01*
X0084798Y0172650D01*
X0085898Y0172800D01*
X0086748Y0173250D01*
X0087298Y0173950D01*
X0087498Y0174950D01*
X0087348Y0176050D01*
X0086848Y0176750D01*
X0086048Y0177150D01*
X0084998Y0177300D01*
X0084048Y0177200D01*
X0083398Y0176850D01*
X0082898Y0176250D01*
X0082548Y0175300D01*
X0082498Y0175150D01*
X0082564Y0175342D02*
X0079212Y0175342D01*
X0079279Y0175541D02*
X0082637Y0175541D01*
X0082710Y0175739D02*
X0079345Y0175739D01*
X0079411Y0175938D02*
X0082783Y0175938D01*
X0082856Y0176136D02*
X0079477Y0176136D01*
X0079584Y0176335D02*
X0082969Y0176335D01*
X0083134Y0176533D02*
X0079710Y0176533D01*
X0079837Y0176732D02*
X0083300Y0176732D01*
X0083547Y0176930D02*
X0079963Y0176930D01*
X0080089Y0177129D02*
X0083916Y0177129D01*
X0086091Y0177129D02*
X0090999Y0177129D01*
X0091009Y0176930D02*
X0086488Y0176930D01*
X0086862Y0176732D02*
X0091019Y0176732D01*
X0091029Y0176533D02*
X0087003Y0176533D01*
X0087145Y0176335D02*
X0091038Y0176335D01*
X0091048Y0176136D02*
X0087287Y0176136D01*
X0087364Y0175938D02*
X0091058Y0175938D01*
X0091067Y0175739D02*
X0087391Y0175739D01*
X0087418Y0175541D02*
X0091077Y0175541D01*
X0091087Y0175342D02*
X0087445Y0175342D01*
X0087472Y0175144D02*
X0091096Y0175144D01*
X0091244Y0174945D02*
X0087497Y0174945D01*
X0087458Y0174747D02*
X0091230Y0174747D01*
X0091215Y0174548D02*
X0087418Y0174548D01*
X0087378Y0174350D02*
X0091200Y0174350D01*
X0091186Y0174151D02*
X0087339Y0174151D01*
X0087299Y0173952D02*
X0091171Y0173952D01*
X0091156Y0173754D02*
X0087144Y0173754D01*
X0086988Y0173555D02*
X0091130Y0173555D01*
X0091092Y0173357D02*
X0086832Y0173357D01*
X0086575Y0173158D02*
X0091054Y0173158D01*
X0091016Y0172960D02*
X0086201Y0172960D01*
X0085615Y0172761D02*
X0090978Y0172761D01*
X0090939Y0172563D02*
X0084198Y0172563D01*
X0084198Y0172364D02*
X0090901Y0172364D01*
X0090826Y0172166D02*
X0084198Y0172166D01*
X0084198Y0171967D02*
X0090749Y0171967D01*
X0090671Y0171769D02*
X0084198Y0171769D01*
X0084198Y0171570D02*
X0090593Y0171570D01*
X0090516Y0171372D02*
X0084198Y0171372D01*
X0084198Y0171173D02*
X0090431Y0171173D01*
X0090302Y0170975D02*
X0084198Y0170975D01*
X0084198Y0170776D02*
X0090173Y0170776D01*
X0090044Y0170578D02*
X0084198Y0170578D01*
X0084198Y0170379D02*
X0089915Y0170379D01*
X0089778Y0170181D02*
X0084198Y0170181D01*
X0084198Y0169982D02*
X0089568Y0169982D01*
X0089358Y0169784D02*
X0084198Y0169784D01*
X0084198Y0169585D02*
X0089148Y0169585D01*
X0088937Y0169387D02*
X0084198Y0169387D01*
X0084198Y0169188D02*
X0088625Y0169188D01*
X0088289Y0168990D02*
X0084198Y0168990D01*
X0084198Y0168791D02*
X0087953Y0168791D01*
X0087423Y0168593D02*
X0084198Y0168593D01*
X0084198Y0168394D02*
X0086728Y0168394D01*
X0085216Y0168196D02*
X0084198Y0168196D01*
X0079164Y0168394D02*
X0071560Y0168394D01*
X0071957Y0168196D02*
X0078826Y0168196D01*
X0078312Y0167997D02*
X0072485Y0167997D01*
X0073060Y0167799D02*
X0077740Y0167799D01*
X0076549Y0167600D02*
X0074727Y0167600D01*
X0075090Y0172364D02*
X0069355Y0172364D01*
X0069367Y0172563D02*
X0074183Y0172563D01*
X0073682Y0172761D02*
X0069379Y0172761D01*
X0069391Y0172960D02*
X0073467Y0172960D01*
X0073252Y0173158D02*
X0069403Y0173158D01*
X0069416Y0173357D02*
X0073085Y0173357D01*
X0073038Y0173555D02*
X0069428Y0173555D01*
X0069440Y0173754D02*
X0072992Y0173754D01*
X0072945Y0173952D02*
X0069463Y0173952D01*
X0069519Y0174151D02*
X0072899Y0174151D01*
X0072930Y0174350D02*
X0069574Y0174350D01*
X0069630Y0174548D02*
X0072961Y0174548D01*
X0072993Y0174747D02*
X0069685Y0174747D01*
X0069741Y0174945D02*
X0073024Y0174945D01*
X0073022Y0175342D02*
X0069799Y0175342D01*
X0069797Y0175144D02*
X0069798Y0175144D01*
X0069907Y0175541D02*
X0073131Y0175541D01*
X0073240Y0175739D02*
X0070015Y0175739D01*
X0070172Y0175938D02*
X0073349Y0175938D01*
X0073458Y0176136D02*
X0070351Y0176136D01*
X0070548Y0176335D02*
X0073587Y0176335D01*
X0073811Y0176533D02*
X0070830Y0176533D01*
X0071112Y0176732D02*
X0074048Y0176732D01*
X0074360Y0176930D02*
X0071394Y0176930D01*
X0071676Y0177129D02*
X0074824Y0177129D01*
X0071848Y0177327D02*
X0090960Y0177327D01*
X0090916Y0177526D02*
X0071075Y0177526D01*
X0070407Y0177724D02*
X0090873Y0177724D01*
X0090829Y0177923D02*
X0069861Y0177923D01*
X0069648Y0178121D02*
X0090786Y0178121D01*
X0090743Y0178320D02*
X0069648Y0178320D01*
X0069648Y0178518D02*
X0090699Y0178518D01*
X0090656Y0178717D02*
X0069648Y0178717D01*
X0069648Y0178915D02*
X0090573Y0178915D01*
X0090482Y0179114D02*
X0069648Y0179114D01*
X0069648Y0179312D02*
X0090391Y0179312D01*
X0090300Y0179511D02*
X0069648Y0179511D01*
X0069648Y0179709D02*
X0090209Y0179709D01*
X0090118Y0179908D02*
X0069648Y0179908D01*
X0069648Y0180106D02*
X0089968Y0180106D01*
X0089803Y0180305D02*
X0069648Y0180305D01*
X0069648Y0180503D02*
X0089637Y0180503D01*
X0089472Y0180702D02*
X0069648Y0180702D01*
X0069648Y0180900D02*
X0089275Y0180900D01*
X0088985Y0181099D02*
X0069648Y0181099D01*
X0069648Y0181297D02*
X0088695Y0181297D01*
X0088404Y0181496D02*
X0069648Y0181496D01*
X0069648Y0181694D02*
X0087864Y0181694D01*
X0087318Y0181893D02*
X0069648Y0181893D01*
X0069648Y0182091D02*
X0086102Y0182091D01*
X0090748Y0185550D02*
X0090748Y0190350D01*
X0090698Y0190400D01*
X0087898Y0190400D01*
X0087898Y0190500D01*
X0089248Y0191350D01*
X0090298Y0192350D01*
X0090998Y0193550D01*
X0091248Y0195000D01*
X0091248Y0195450D01*
X0091198Y0195900D01*
X0086048Y0195900D01*
X0086098Y0195100D01*
X0086098Y0194300D01*
X0085898Y0193000D01*
X0085648Y0192350D01*
X0085248Y0191800D01*
X0084748Y0191300D01*
X0084098Y0190900D01*
X0083298Y0190650D01*
X0082348Y0190550D01*
X0069748Y0190550D01*
X0069748Y0185550D01*
X0090748Y0185550D01*
X0090748Y0185665D02*
X0069748Y0185665D01*
X0069748Y0185863D02*
X0090748Y0185863D01*
X0090748Y0186062D02*
X0069748Y0186062D01*
X0069748Y0186260D02*
X0090748Y0186260D01*
X0090748Y0186459D02*
X0069748Y0186459D01*
X0069748Y0186657D02*
X0090748Y0186657D01*
X0090748Y0186856D02*
X0069748Y0186856D01*
X0069748Y0187054D02*
X0090748Y0187054D01*
X0090748Y0187253D02*
X0069748Y0187253D01*
X0069748Y0187451D02*
X0090748Y0187451D01*
X0090748Y0187650D02*
X0069748Y0187650D01*
X0069748Y0187848D02*
X0090748Y0187848D01*
X0090748Y0188047D02*
X0069748Y0188047D01*
X0069748Y0188245D02*
X0090748Y0188245D01*
X0090748Y0188444D02*
X0069748Y0188444D01*
X0069748Y0188642D02*
X0090748Y0188642D01*
X0090748Y0188841D02*
X0069748Y0188841D01*
X0069748Y0189039D02*
X0090748Y0189039D01*
X0090748Y0189238D02*
X0069748Y0189238D01*
X0069748Y0189436D02*
X0090748Y0189436D01*
X0090748Y0189635D02*
X0069748Y0189635D01*
X0069748Y0189833D02*
X0090748Y0189833D01*
X0090748Y0190032D02*
X0069748Y0190032D01*
X0069748Y0190230D02*
X0090748Y0190230D01*
X0089532Y0191620D02*
X0085068Y0191620D01*
X0085262Y0191819D02*
X0089740Y0191819D01*
X0089949Y0192017D02*
X0085406Y0192017D01*
X0085551Y0192216D02*
X0090157Y0192216D01*
X0090336Y0192414D02*
X0085673Y0192414D01*
X0085749Y0192613D02*
X0090452Y0192613D01*
X0090567Y0192811D02*
X0085826Y0192811D01*
X0085900Y0193010D02*
X0090683Y0193010D01*
X0090799Y0193208D02*
X0085930Y0193208D01*
X0085961Y0193407D02*
X0090915Y0193407D01*
X0091008Y0193605D02*
X0085992Y0193605D01*
X0086022Y0193804D02*
X0091042Y0193804D01*
X0091076Y0194002D02*
X0086053Y0194002D01*
X0086083Y0194201D02*
X0091111Y0194201D01*
X0091145Y0194399D02*
X0086098Y0194399D01*
X0086098Y0194598D02*
X0091179Y0194598D01*
X0091213Y0194796D02*
X0086098Y0194796D01*
X0086098Y0194995D02*
X0091248Y0194995D01*
X0091248Y0195193D02*
X0086093Y0195193D01*
X0086080Y0195392D02*
X0091248Y0195392D01*
X0091233Y0195590D02*
X0086068Y0195590D01*
X0086055Y0195789D02*
X0091211Y0195789D01*
X0089323Y0191421D02*
X0084870Y0191421D01*
X0084623Y0191223D02*
X0089047Y0191223D01*
X0088731Y0191024D02*
X0084301Y0191024D01*
X0083861Y0190826D02*
X0088416Y0190826D01*
X0088101Y0190627D02*
X0083084Y0190627D01*
X0087898Y0190429D02*
X0069748Y0190429D01*
X0069648Y0182687D02*
X0070044Y0182687D01*
X0069648Y0182488D02*
X0070739Y0182488D01*
X0071552Y0182290D02*
X0069648Y0182290D01*
X0069648Y0158300D02*
X0069648Y0153500D01*
X0072098Y0153500D01*
X0072098Y0153400D01*
X0072198Y0153450D01*
X0070848Y0152550D01*
X0069948Y0151400D01*
X0069448Y0150050D01*
X0069298Y0148500D01*
X0069398Y0147400D01*
X0069648Y0146400D01*
X0070048Y0145550D01*
X0070648Y0144850D01*
X0071448Y0144300D01*
X0072448Y0143900D01*
X0073698Y0143650D01*
X0075148Y0143550D01*
X0090748Y0143550D01*
X0090748Y0148550D01*
X0076248Y0148550D01*
X0074848Y0148700D01*
X0073948Y0149100D01*
X0073448Y0149750D01*
X0073298Y0150700D01*
X0073498Y0151850D01*
X0073748Y0152300D01*
X0074148Y0152650D01*
X0075248Y0153150D01*
X0076748Y0153300D01*
X0090648Y0153300D01*
X0090648Y0158300D01*
X0069648Y0158300D01*
X0069648Y0158270D02*
X0090648Y0158270D01*
X0090648Y0158072D02*
X0069648Y0158072D01*
X0069648Y0157873D02*
X0090648Y0157873D01*
X0090648Y0157675D02*
X0069648Y0157675D01*
X0069648Y0157476D02*
X0090648Y0157476D01*
X0090648Y0157278D02*
X0069648Y0157278D01*
X0069648Y0157079D02*
X0090648Y0157079D01*
X0090648Y0156881D02*
X0069648Y0156881D01*
X0069648Y0156682D02*
X0090648Y0156682D01*
X0090648Y0156483D02*
X0069648Y0156483D01*
X0069648Y0156285D02*
X0090648Y0156285D01*
X0090648Y0156086D02*
X0069648Y0156086D01*
X0069648Y0155888D02*
X0090648Y0155888D01*
X0090648Y0155689D02*
X0069648Y0155689D01*
X0069648Y0155491D02*
X0090648Y0155491D01*
X0090648Y0155292D02*
X0069648Y0155292D01*
X0069648Y0155094D02*
X0090648Y0155094D01*
X0090648Y0154895D02*
X0069648Y0154895D01*
X0069648Y0154697D02*
X0090648Y0154697D01*
X0090648Y0154498D02*
X0069648Y0154498D01*
X0069648Y0154300D02*
X0090648Y0154300D01*
X0090648Y0154101D02*
X0069648Y0154101D01*
X0069648Y0153903D02*
X0090648Y0153903D01*
X0090648Y0153704D02*
X0069648Y0153704D01*
X0069648Y0153506D02*
X0090648Y0153506D01*
X0090648Y0153307D02*
X0071984Y0153307D01*
X0071687Y0153109D02*
X0075158Y0153109D01*
X0074721Y0152910D02*
X0071389Y0152910D01*
X0071091Y0152712D02*
X0074284Y0152712D01*
X0073992Y0152513D02*
X0070820Y0152513D01*
X0070664Y0152315D02*
X0073765Y0152315D01*
X0073646Y0152116D02*
X0070509Y0152116D01*
X0070354Y0151918D02*
X0073536Y0151918D01*
X0073476Y0151719D02*
X0070198Y0151719D01*
X0070043Y0151521D02*
X0073441Y0151521D01*
X0073407Y0151322D02*
X0069920Y0151322D01*
X0069846Y0151124D02*
X0073372Y0151124D01*
X0073338Y0150925D02*
X0069773Y0150925D01*
X0069699Y0150727D02*
X0073303Y0150727D01*
X0073326Y0150528D02*
X0069626Y0150528D01*
X0069552Y0150330D02*
X0073357Y0150330D01*
X0073388Y0150131D02*
X0069478Y0150131D01*
X0069437Y0149933D02*
X0073420Y0149933D01*
X0073461Y0149734D02*
X0069418Y0149734D01*
X0069399Y0149536D02*
X0073613Y0149536D01*
X0073766Y0149337D02*
X0069379Y0149337D01*
X0069360Y0149139D02*
X0073919Y0149139D01*
X0074308Y0148940D02*
X0069341Y0148940D01*
X0069322Y0148742D02*
X0074755Y0148742D01*
X0069303Y0148543D02*
X0090748Y0148543D01*
X0090748Y0148345D02*
X0069313Y0148345D01*
X0069331Y0148146D02*
X0090748Y0148146D01*
X0090748Y0147948D02*
X0069349Y0147948D01*
X0069367Y0147749D02*
X0090748Y0147749D01*
X0090748Y0147550D02*
X0069385Y0147550D01*
X0069410Y0147352D02*
X0090748Y0147352D01*
X0090748Y0147153D02*
X0069460Y0147153D01*
X0069510Y0146955D02*
X0090748Y0146955D01*
X0090748Y0146756D02*
X0069559Y0146756D01*
X0069609Y0146558D02*
X0090748Y0146558D01*
X0090748Y0146359D02*
X0069668Y0146359D01*
X0069761Y0146161D02*
X0090748Y0146161D01*
X0090748Y0145962D02*
X0069854Y0145962D01*
X0069948Y0145764D02*
X0090748Y0145764D01*
X0090748Y0145565D02*
X0070041Y0145565D01*
X0070205Y0145367D02*
X0090748Y0145367D01*
X0090748Y0145168D02*
X0070376Y0145168D01*
X0070546Y0144970D02*
X0090748Y0144970D01*
X0090748Y0144771D02*
X0070763Y0144771D01*
X0071052Y0144573D02*
X0090748Y0144573D01*
X0090748Y0144374D02*
X0071340Y0144374D01*
X0071759Y0144176D02*
X0090748Y0144176D01*
X0090748Y0143977D02*
X0072255Y0143977D01*
X0073055Y0143779D02*
X0090748Y0143779D01*
X0090748Y0143580D02*
X0074710Y0143580D01*
X0069748Y0142400D02*
X0097548Y0142400D01*
X0097548Y0137400D01*
X0097598Y0137350D01*
X0088798Y0137350D01*
X0088798Y0137300D01*
X0089898Y0136450D01*
X0090698Y0135500D01*
X0091098Y0134600D01*
X0087198Y0134600D01*
X0087198Y0134750D01*
X0087098Y0135500D01*
X0086748Y0136100D01*
X0086198Y0136550D01*
X0085448Y0136850D01*
X0083298Y0137200D01*
X0080298Y0137300D01*
X0077298Y0137200D01*
X0075148Y0136850D01*
X0074398Y0136550D01*
X0073848Y0136100D01*
X0073498Y0135500D01*
X0073398Y0134750D01*
X0073398Y0134600D01*
X0069548Y0134600D01*
X0069948Y0135650D01*
X0070748Y0136650D01*
X0071998Y0137550D01*
X0071998Y0137600D01*
X0069748Y0137600D01*
X0069748Y0142400D01*
X0069748Y0142389D02*
X0097548Y0142389D01*
X0097548Y0142191D02*
X0069748Y0142191D01*
X0069748Y0141992D02*
X0097548Y0141992D01*
X0097548Y0141794D02*
X0069748Y0141794D01*
X0069748Y0141595D02*
X0097548Y0141595D01*
X0097548Y0141397D02*
X0069748Y0141397D01*
X0069748Y0141198D02*
X0097548Y0141198D01*
X0097548Y0141000D02*
X0069748Y0141000D01*
X0069748Y0140801D02*
X0097548Y0140801D01*
X0097548Y0140603D02*
X0069748Y0140603D01*
X0069748Y0140404D02*
X0097548Y0140404D01*
X0097548Y0140206D02*
X0069748Y0140206D01*
X0069748Y0140007D02*
X0097548Y0140007D01*
X0097548Y0139809D02*
X0069748Y0139809D01*
X0069748Y0139610D02*
X0097548Y0139610D01*
X0097548Y0139412D02*
X0069748Y0139412D01*
X0069748Y0139213D02*
X0097548Y0139213D01*
X0097548Y0139014D02*
X0069748Y0139014D01*
X0069748Y0138816D02*
X0097548Y0138816D01*
X0097548Y0138617D02*
X0069748Y0138617D01*
X0069748Y0138419D02*
X0097548Y0138419D01*
X0097548Y0138220D02*
X0069748Y0138220D01*
X0069748Y0138022D02*
X0097548Y0138022D01*
X0097548Y0137823D02*
X0069748Y0137823D01*
X0069748Y0137625D02*
X0097548Y0137625D01*
X0097548Y0137426D02*
X0071827Y0137426D01*
X0071551Y0137228D02*
X0078135Y0137228D01*
X0076250Y0137029D02*
X0071275Y0137029D01*
X0071000Y0136831D02*
X0075101Y0136831D01*
X0074604Y0136632D02*
X0070734Y0136632D01*
X0070575Y0136434D02*
X0074256Y0136434D01*
X0074014Y0136235D02*
X0070417Y0136235D01*
X0070258Y0136037D02*
X0073812Y0136037D01*
X0073696Y0135838D02*
X0070099Y0135838D01*
X0069945Y0135640D02*
X0073580Y0135640D01*
X0073491Y0135441D02*
X0069869Y0135441D01*
X0069793Y0135243D02*
X0073464Y0135243D01*
X0073438Y0135044D02*
X0069718Y0135044D01*
X0069642Y0134846D02*
X0073411Y0134846D01*
X0073398Y0134647D02*
X0069566Y0134647D01*
X0069598Y0134550D02*
X0069498Y0134550D01*
X0073348Y0134550D01*
X0073448Y0133950D01*
X0073798Y0133350D01*
X0074348Y0132900D01*
X0075098Y0132600D01*
X0077248Y0132250D01*
X0080248Y0132150D01*
X0083248Y0132250D01*
X0085398Y0132600D01*
X0086148Y0132900D01*
X0086698Y0133350D01*
X0087048Y0133950D01*
X0087148Y0134550D01*
X0091048Y0134550D01*
X0091148Y0134350D01*
X0091298Y0133050D01*
X0091148Y0131600D01*
X0090648Y0130350D01*
X0089848Y0129300D01*
X0088698Y0128450D01*
X0087198Y0127800D01*
X0085298Y0127350D01*
X0082998Y0127100D01*
X0080298Y0127000D01*
X0077598Y0127100D01*
X0075298Y0127350D01*
X0073398Y0127800D01*
X0071898Y0128450D01*
X0070798Y0129300D01*
X0069998Y0130350D01*
X0069548Y0131600D01*
X0069398Y0133050D01*
X0069548Y0134450D01*
X0069598Y0134550D01*
X0069548Y0134449D02*
X0073365Y0134449D01*
X0073398Y0134250D02*
X0069527Y0134250D01*
X0069506Y0134052D02*
X0073431Y0134052D01*
X0073505Y0133853D02*
X0069484Y0133853D01*
X0069463Y0133655D02*
X0073621Y0133655D01*
X0073736Y0133456D02*
X0069442Y0133456D01*
X0069421Y0133258D02*
X0073911Y0133258D01*
X0074154Y0133059D02*
X0069399Y0133059D01*
X0069418Y0132861D02*
X0074447Y0132861D01*
X0074943Y0132662D02*
X0069439Y0132662D01*
X0069459Y0132464D02*
X0075936Y0132464D01*
X0077156Y0132265D02*
X0069480Y0132265D01*
X0069500Y0132067D02*
X0091197Y0132067D01*
X0091217Y0132265D02*
X0083341Y0132265D01*
X0084561Y0132464D02*
X0091238Y0132464D01*
X0091258Y0132662D02*
X0085554Y0132662D01*
X0086050Y0132861D02*
X0091279Y0132861D01*
X0091297Y0133059D02*
X0086343Y0133059D01*
X0086586Y0133258D02*
X0091274Y0133258D01*
X0091252Y0133456D02*
X0086760Y0133456D01*
X0086876Y0133655D02*
X0091229Y0133655D01*
X0091206Y0133853D02*
X0086992Y0133853D01*
X0087065Y0134052D02*
X0091183Y0134052D01*
X0091160Y0134250D02*
X0087098Y0134250D01*
X0087132Y0134449D02*
X0091099Y0134449D01*
X0091077Y0134647D02*
X0087198Y0134647D01*
X0087186Y0134846D02*
X0090989Y0134846D01*
X0090901Y0135044D02*
X0087159Y0135044D01*
X0087133Y0135243D02*
X0090813Y0135243D01*
X0090725Y0135441D02*
X0087106Y0135441D01*
X0087017Y0135640D02*
X0090581Y0135640D01*
X0090414Y0135838D02*
X0086901Y0135838D01*
X0086785Y0136037D02*
X0090246Y0136037D01*
X0090079Y0136235D02*
X0086583Y0136235D01*
X0086340Y0136434D02*
X0089912Y0136434D01*
X0089662Y0136632D02*
X0085993Y0136632D01*
X0085496Y0136831D02*
X0089406Y0136831D01*
X0089149Y0137029D02*
X0084347Y0137029D01*
X0082462Y0137228D02*
X0088892Y0137228D01*
X0091176Y0131868D02*
X0069521Y0131868D01*
X0069541Y0131670D02*
X0091156Y0131670D01*
X0091097Y0131471D02*
X0069595Y0131471D01*
X0069666Y0131273D02*
X0091017Y0131273D01*
X0090938Y0131074D02*
X0069738Y0131074D01*
X0069809Y0130876D02*
X0090859Y0130876D01*
X0090779Y0130677D02*
X0069881Y0130677D01*
X0069952Y0130479D02*
X0090700Y0130479D01*
X0090595Y0130280D02*
X0070052Y0130280D01*
X0070203Y0130081D02*
X0090444Y0130081D01*
X0090293Y0129883D02*
X0070354Y0129883D01*
X0070506Y0129684D02*
X0090141Y0129684D01*
X0089990Y0129486D02*
X0070657Y0129486D01*
X0070815Y0129287D02*
X0089831Y0129287D01*
X0089563Y0129089D02*
X0071072Y0129089D01*
X0071328Y0128890D02*
X0089294Y0128890D01*
X0089026Y0128692D02*
X0071585Y0128692D01*
X0071842Y0128493D02*
X0088757Y0128493D01*
X0088340Y0128295D02*
X0072256Y0128295D01*
X0072714Y0128096D02*
X0087882Y0128096D01*
X0087424Y0127898D02*
X0073173Y0127898D01*
X0073823Y0127699D02*
X0086773Y0127699D01*
X0085935Y0127501D02*
X0074662Y0127501D01*
X0075737Y0127302D02*
X0084860Y0127302D01*
X0085048Y0126000D02*
X0082798Y0126250D01*
X0080198Y0126350D01*
X0077648Y0126250D01*
X0075448Y0125950D01*
X0073548Y0125400D01*
X0071998Y0124600D01*
X0070798Y0123550D01*
X0069948Y0122200D01*
X0069448Y0120550D01*
X0069298Y0118600D01*
X0069348Y0118150D01*
X0072948Y0118150D01*
X0072848Y0118600D01*
X0072948Y0119300D01*
X0073248Y0119900D01*
X0073798Y0120350D01*
X0074548Y0120700D01*
X0076798Y0121150D01*
X0080198Y0121300D01*
X0083598Y0121150D01*
X0085898Y0120700D01*
X0086648Y0120350D01*
X0087198Y0119900D01*
X0087498Y0119300D01*
X0087598Y0118600D01*
X0087498Y0118150D01*
X0091198Y0118150D01*
X0087398Y0118150D01*
X0087348Y0117800D01*
X0086948Y0117150D01*
X0086298Y0116650D01*
X0085448Y0116300D01*
X0083098Y0115950D01*
X0080148Y0115900D01*
X0077198Y0115950D01*
X0074848Y0116300D01*
X0073998Y0116650D01*
X0073348Y0117150D01*
X0072948Y0117800D01*
X0072898Y0118150D01*
X0069298Y0118150D01*
X0069398Y0116550D01*
X0069898Y0114850D01*
X0070748Y0113500D01*
X0071948Y0112450D01*
X0073498Y0111700D01*
X0075398Y0111200D01*
X0077648Y0110950D01*
X0080198Y0110850D01*
X0082748Y0110950D01*
X0084948Y0111250D01*
X0086848Y0111800D01*
X0088398Y0112600D01*
X0089598Y0113650D01*
X0090498Y0115000D01*
X0091048Y0116650D01*
X0091198Y0118150D01*
X0091148Y0118200D01*
X0091198Y0118650D01*
X0091048Y0120700D01*
X0090548Y0122400D01*
X0089698Y0123750D01*
X0088498Y0124750D01*
X0086948Y0125500D01*
X0085048Y0126000D01*
X0085380Y0125913D02*
X0075320Y0125913D01*
X0074634Y0125714D02*
X0086134Y0125714D01*
X0086889Y0125516D02*
X0073948Y0125516D01*
X0073388Y0125317D02*
X0087326Y0125317D01*
X0087736Y0125119D02*
X0073003Y0125119D01*
X0072619Y0124920D02*
X0088147Y0124920D01*
X0088532Y0124722D02*
X0072234Y0124722D01*
X0071911Y0124523D02*
X0088771Y0124523D01*
X0089009Y0124325D02*
X0071684Y0124325D01*
X0071457Y0124126D02*
X0089247Y0124126D01*
X0089485Y0123928D02*
X0071230Y0123928D01*
X0071003Y0123729D02*
X0089712Y0123729D01*
X0089837Y0123531D02*
X0070786Y0123531D01*
X0070661Y0123332D02*
X0089962Y0123332D01*
X0090087Y0123134D02*
X0070536Y0123134D01*
X0070411Y0122935D02*
X0090212Y0122935D01*
X0090337Y0122737D02*
X0070286Y0122737D01*
X0070161Y0122538D02*
X0090461Y0122538D01*
X0090566Y0122340D02*
X0070036Y0122340D01*
X0069931Y0122141D02*
X0090625Y0122141D01*
X0090683Y0121943D02*
X0069870Y0121943D01*
X0069810Y0121744D02*
X0090741Y0121744D01*
X0090800Y0121545D02*
X0069750Y0121545D01*
X0069690Y0121347D02*
X0090858Y0121347D01*
X0090917Y0121148D02*
X0083606Y0121148D01*
X0084621Y0120950D02*
X0090975Y0120950D01*
X0091033Y0120751D02*
X0085635Y0120751D01*
X0086214Y0120553D02*
X0091059Y0120553D01*
X0091074Y0120354D02*
X0086639Y0120354D01*
X0086886Y0120156D02*
X0091088Y0120156D01*
X0091103Y0119957D02*
X0087128Y0119957D01*
X0087269Y0119759D02*
X0091117Y0119759D01*
X0091132Y0119560D02*
X0087368Y0119560D01*
X0087467Y0119362D02*
X0091146Y0119362D01*
X0091161Y0119163D02*
X0087518Y0119163D01*
X0087546Y0118965D02*
X0091175Y0118965D01*
X0091190Y0118766D02*
X0087575Y0118766D01*
X0087591Y0118568D02*
X0091189Y0118568D01*
X0091167Y0118369D02*
X0087547Y0118369D01*
X0087503Y0118171D02*
X0091178Y0118171D01*
X0091181Y0117972D02*
X0087373Y0117972D01*
X0087332Y0117774D02*
X0091161Y0117774D01*
X0091141Y0117575D02*
X0087210Y0117575D01*
X0087088Y0117377D02*
X0091121Y0117377D01*
X0091101Y0117178D02*
X0086966Y0117178D01*
X0086727Y0116980D02*
X0091081Y0116980D01*
X0091062Y0116781D02*
X0086469Y0116781D01*
X0086135Y0116583D02*
X0091026Y0116583D01*
X0090960Y0116384D02*
X0085653Y0116384D01*
X0084681Y0116186D02*
X0090894Y0116186D01*
X0090827Y0115987D02*
X0083348Y0115987D01*
X0076949Y0115987D02*
X0069564Y0115987D01*
X0069622Y0115789D02*
X0090761Y0115789D01*
X0090695Y0115590D02*
X0069681Y0115590D01*
X0069739Y0115392D02*
X0090629Y0115392D01*
X0090563Y0115193D02*
X0069798Y0115193D01*
X0069856Y0114995D02*
X0090495Y0114995D01*
X0090362Y0114796D02*
X0069932Y0114796D01*
X0070057Y0114598D02*
X0090230Y0114598D01*
X0090098Y0114399D02*
X0070182Y0114399D01*
X0070307Y0114201D02*
X0089965Y0114201D01*
X0089833Y0114002D02*
X0070432Y0114002D01*
X0070557Y0113804D02*
X0089701Y0113804D01*
X0089547Y0113605D02*
X0070682Y0113605D01*
X0070855Y0113407D02*
X0089320Y0113407D01*
X0089093Y0113208D02*
X0071082Y0113208D01*
X0071309Y0113010D02*
X0088866Y0113010D01*
X0088640Y0112811D02*
X0071536Y0112811D01*
X0071763Y0112612D02*
X0088413Y0112612D01*
X0088038Y0112414D02*
X0072023Y0112414D01*
X0072433Y0112215D02*
X0087653Y0112215D01*
X0087269Y0112017D02*
X0072843Y0112017D01*
X0073254Y0111818D02*
X0086884Y0111818D01*
X0086226Y0111620D02*
X0073803Y0111620D01*
X0074557Y0111421D02*
X0085541Y0111421D01*
X0084750Y0111223D02*
X0075311Y0111223D01*
X0076979Y0111024D02*
X0083294Y0111024D01*
X0075616Y0116186D02*
X0069506Y0116186D01*
X0069447Y0116384D02*
X0074644Y0116384D01*
X0074162Y0116583D02*
X0069396Y0116583D01*
X0069384Y0116781D02*
X0073828Y0116781D01*
X0073570Y0116980D02*
X0069372Y0116980D01*
X0069359Y0117178D02*
X0073331Y0117178D01*
X0073209Y0117377D02*
X0069347Y0117377D01*
X0069334Y0117575D02*
X0073087Y0117575D01*
X0072965Y0117774D02*
X0069322Y0117774D01*
X0069310Y0117972D02*
X0072924Y0117972D01*
X0072944Y0118171D02*
X0069346Y0118171D01*
X0069324Y0118369D02*
X0072900Y0118369D01*
X0072856Y0118568D02*
X0069302Y0118568D01*
X0069311Y0118766D02*
X0072872Y0118766D01*
X0072901Y0118965D02*
X0069326Y0118965D01*
X0069342Y0119163D02*
X0072929Y0119163D01*
X0072979Y0119362D02*
X0069357Y0119362D01*
X0069372Y0119560D02*
X0073079Y0119560D01*
X0073178Y0119759D02*
X0069388Y0119759D01*
X0069403Y0119957D02*
X0073319Y0119957D01*
X0073561Y0120156D02*
X0069418Y0120156D01*
X0069433Y0120354D02*
X0073808Y0120354D01*
X0074233Y0120553D02*
X0069449Y0120553D01*
X0069509Y0120751D02*
X0074806Y0120751D01*
X0075798Y0120950D02*
X0069570Y0120950D01*
X0069630Y0121148D02*
X0076791Y0121148D01*
X0076631Y0126111D02*
X0084047Y0126111D01*
X0083034Y0127104D02*
X0077563Y0127104D01*
X0079173Y0126310D02*
X0081244Y0126310D01*
X0096792Y0144970D02*
X0098298Y0144970D01*
X0098298Y0145168D02*
X0096065Y0145168D01*
X0095660Y0145367D02*
X0098298Y0145367D01*
X0098298Y0145565D02*
X0095317Y0145565D01*
X0094984Y0145764D02*
X0098298Y0145764D01*
X0098298Y0145962D02*
X0094772Y0145962D01*
X0094560Y0146161D02*
X0098298Y0146161D01*
X0098298Y0146359D02*
X0094348Y0146359D01*
X0094159Y0146558D02*
X0098298Y0146558D01*
X0098298Y0146756D02*
X0094023Y0146756D01*
X0093887Y0146955D02*
X0098298Y0146955D01*
X0098298Y0147153D02*
X0093751Y0147153D01*
X0093616Y0147352D02*
X0098298Y0147352D01*
X0098298Y0147550D02*
X0093509Y0147550D01*
X0093431Y0147749D02*
X0098298Y0147749D01*
X0098298Y0147948D02*
X0093354Y0147948D01*
X0093276Y0148146D02*
X0098298Y0148146D01*
X0098298Y0148345D02*
X0093198Y0148345D01*
X0093121Y0148543D02*
X0098298Y0148543D01*
X0098298Y0148742D02*
X0093066Y0148742D01*
X0093020Y0148940D02*
X0098298Y0148940D01*
X0098298Y0149139D02*
X0092974Y0149139D01*
X0092928Y0149337D02*
X0098298Y0149337D01*
X0108608Y0144771D02*
X0111836Y0144771D01*
X0129698Y0144771D02*
X0150698Y0144771D01*
X0150698Y0144573D02*
X0129698Y0144573D01*
X0129698Y0144550D02*
X0150698Y0144550D01*
X0150698Y0149550D01*
X0129698Y0149550D01*
X0129698Y0144550D01*
X0129698Y0144970D02*
X0150698Y0144970D01*
X0150698Y0145168D02*
X0129698Y0145168D01*
X0129698Y0145367D02*
X0150698Y0145367D01*
X0150698Y0145565D02*
X0129698Y0145565D01*
X0129698Y0145764D02*
X0150698Y0145764D01*
X0150698Y0145962D02*
X0129698Y0145962D01*
X0129698Y0146161D02*
X0150698Y0146161D01*
X0150698Y0146359D02*
X0129698Y0146359D01*
X0129698Y0146558D02*
X0150698Y0146558D01*
X0150698Y0146756D02*
X0129698Y0146756D01*
X0129698Y0146955D02*
X0150698Y0146955D01*
X0150698Y0147153D02*
X0129698Y0147153D01*
X0129698Y0147352D02*
X0150698Y0147352D01*
X0150698Y0147550D02*
X0129698Y0147550D01*
X0129698Y0147749D02*
X0150698Y0147749D01*
X0150698Y0147948D02*
X0129698Y0147948D01*
X0129698Y0148146D02*
X0150698Y0148146D01*
X0150698Y0148345D02*
X0129698Y0148345D01*
X0129698Y0148543D02*
X0150698Y0148543D01*
X0150698Y0148742D02*
X0129698Y0148742D01*
X0129698Y0148940D02*
X0150698Y0148940D01*
X0150698Y0149139D02*
X0129698Y0149139D01*
X0129698Y0149337D02*
X0150698Y0149337D01*
X0150698Y0149536D02*
X0129698Y0149536D01*
X0131498Y0154200D02*
X0132998Y0153400D01*
X0134898Y0152800D01*
X0137298Y0152450D01*
X0140198Y0152350D01*
X0143148Y0152500D01*
X0145548Y0152950D01*
X0147448Y0153650D01*
X0148948Y0154600D01*
X0149998Y0155750D01*
X0150698Y0157100D01*
X0151098Y0158650D01*
X0151248Y0160300D01*
X0151098Y0161950D01*
X0150698Y0163350D01*
X0149998Y0164550D01*
X0149048Y0165550D01*
X0147848Y0166300D01*
X0146448Y0166850D01*
X0144848Y0167200D01*
X0143098Y0167300D01*
X0143098Y0162500D01*
X0144598Y0162400D01*
X0144648Y0162350D01*
X0145998Y0162000D01*
X0146548Y0161700D01*
X0146998Y0161300D01*
X0147298Y0160800D01*
X0147398Y0160150D01*
X0147298Y0159300D01*
X0146948Y0158650D01*
X0146398Y0158150D01*
X0145648Y0157800D01*
X0143448Y0157400D01*
X0140248Y0157300D01*
X0136898Y0157400D01*
X0135648Y0157550D01*
X0134648Y0157800D01*
X0133898Y0158150D01*
X0133348Y0158600D01*
X0133048Y0159200D01*
X0132948Y0159950D01*
X0132998Y0160550D01*
X0133198Y0161050D01*
X0133548Y0161450D01*
X0134048Y0161800D01*
X0135548Y0162250D01*
X0137798Y0162400D01*
X0137798Y0167200D01*
X0135848Y0167100D01*
X0134148Y0166800D01*
X0132698Y0166250D01*
X0131498Y0165500D01*
X0130548Y0164500D01*
X0129848Y0163200D01*
X0129448Y0161650D01*
X0129298Y0159800D01*
X0129398Y0158050D01*
X0129748Y0156550D01*
X0130448Y0155250D01*
X0131498Y0154200D01*
X0131399Y0154300D02*
X0148475Y0154300D01*
X0148788Y0154498D02*
X0131200Y0154498D01*
X0131002Y0154697D02*
X0149037Y0154697D01*
X0149218Y0154895D02*
X0130803Y0154895D01*
X0130605Y0155094D02*
X0149399Y0155094D01*
X0149581Y0155292D02*
X0130426Y0155292D01*
X0130319Y0155491D02*
X0149762Y0155491D01*
X0149943Y0155689D02*
X0130212Y0155689D01*
X0130105Y0155888D02*
X0150070Y0155888D01*
X0150173Y0156086D02*
X0129998Y0156086D01*
X0129891Y0156285D02*
X0150276Y0156285D01*
X0150379Y0156483D02*
X0129784Y0156483D01*
X0129718Y0156682D02*
X0150482Y0156682D01*
X0150585Y0156881D02*
X0129671Y0156881D01*
X0129625Y0157079D02*
X0150688Y0157079D01*
X0150744Y0157278D02*
X0129579Y0157278D01*
X0129532Y0157476D02*
X0136265Y0157476D01*
X0135150Y0157675D02*
X0129486Y0157675D01*
X0129440Y0157873D02*
X0134492Y0157873D01*
X0134066Y0158072D02*
X0129397Y0158072D01*
X0129386Y0158270D02*
X0133752Y0158270D01*
X0133509Y0158469D02*
X0129374Y0158469D01*
X0129363Y0158667D02*
X0133315Y0158667D01*
X0133216Y0158866D02*
X0129352Y0158866D01*
X0129340Y0159064D02*
X0133116Y0159064D01*
X0133040Y0159263D02*
X0129329Y0159263D01*
X0129318Y0159461D02*
X0133014Y0159461D01*
X0132987Y0159660D02*
X0129306Y0159660D01*
X0129303Y0159858D02*
X0132961Y0159858D01*
X0132957Y0160057D02*
X0129319Y0160057D01*
X0129335Y0160255D02*
X0132974Y0160255D01*
X0132990Y0160454D02*
X0129351Y0160454D01*
X0129368Y0160652D02*
X0133039Y0160652D01*
X0133119Y0160851D02*
X0129384Y0160851D01*
X0129400Y0161049D02*
X0133198Y0161049D01*
X0133371Y0161248D02*
X0129416Y0161248D01*
X0129432Y0161446D02*
X0133545Y0161446D01*
X0133827Y0161645D02*
X0129448Y0161645D01*
X0129498Y0161843D02*
X0134193Y0161843D01*
X0134854Y0162042D02*
X0129550Y0162042D01*
X0129601Y0162240D02*
X0135516Y0162240D01*
X0137798Y0162439D02*
X0129652Y0162439D01*
X0129703Y0162637D02*
X0137798Y0162637D01*
X0137798Y0162836D02*
X0129754Y0162836D01*
X0129806Y0163034D02*
X0137798Y0163034D01*
X0137798Y0163233D02*
X0129866Y0163233D01*
X0129973Y0163431D02*
X0137798Y0163431D01*
X0137798Y0163630D02*
X0130080Y0163630D01*
X0130187Y0163828D02*
X0137798Y0163828D01*
X0137798Y0164027D02*
X0130294Y0164027D01*
X0130401Y0164225D02*
X0137798Y0164225D01*
X0137798Y0164424D02*
X0130507Y0164424D01*
X0130665Y0164622D02*
X0137798Y0164622D01*
X0137798Y0164821D02*
X0130853Y0164821D01*
X0131042Y0165019D02*
X0137798Y0165019D01*
X0137798Y0165218D02*
X0131231Y0165218D01*
X0131419Y0165416D02*
X0137798Y0165416D01*
X0137798Y0165615D02*
X0131682Y0165615D01*
X0132000Y0165814D02*
X0137798Y0165814D01*
X0137798Y0166012D02*
X0132318Y0166012D01*
X0132635Y0166211D02*
X0137798Y0166211D01*
X0137798Y0166409D02*
X0133118Y0166409D01*
X0133641Y0166608D02*
X0137798Y0166608D01*
X0137798Y0166806D02*
X0134183Y0166806D01*
X0135308Y0167005D02*
X0137798Y0167005D01*
X0143098Y0167005D02*
X0145742Y0167005D01*
X0146560Y0166806D02*
X0143098Y0166806D01*
X0143098Y0166608D02*
X0147066Y0166608D01*
X0147571Y0166409D02*
X0143098Y0166409D01*
X0143098Y0166211D02*
X0147992Y0166211D01*
X0148309Y0166012D02*
X0143098Y0166012D01*
X0143098Y0165814D02*
X0148627Y0165814D01*
X0148944Y0165615D02*
X0143098Y0165615D01*
X0143098Y0165416D02*
X0149175Y0165416D01*
X0149364Y0165218D02*
X0143098Y0165218D01*
X0143098Y0165019D02*
X0149552Y0165019D01*
X0149741Y0164821D02*
X0143098Y0164821D01*
X0143098Y0164622D02*
X0149930Y0164622D01*
X0150072Y0164424D02*
X0143098Y0164424D01*
X0143098Y0164225D02*
X0150188Y0164225D01*
X0150304Y0164027D02*
X0143098Y0164027D01*
X0143098Y0163828D02*
X0150419Y0163828D01*
X0150535Y0163630D02*
X0143098Y0163630D01*
X0143098Y0163431D02*
X0150651Y0163431D01*
X0150732Y0163233D02*
X0143098Y0163233D01*
X0143098Y0163034D02*
X0150789Y0163034D01*
X0150845Y0162836D02*
X0143098Y0162836D01*
X0143098Y0162637D02*
X0150902Y0162637D01*
X0150959Y0162439D02*
X0144016Y0162439D01*
X0145071Y0162240D02*
X0151015Y0162240D01*
X0151072Y0162042D02*
X0145837Y0162042D01*
X0146286Y0161843D02*
X0151108Y0161843D01*
X0151126Y0161645D02*
X0146611Y0161645D01*
X0146834Y0161446D02*
X0151144Y0161446D01*
X0151162Y0161248D02*
X0147030Y0161248D01*
X0147149Y0161049D02*
X0151180Y0161049D01*
X0151198Y0160851D02*
X0147268Y0160851D01*
X0147321Y0160652D02*
X0151216Y0160652D01*
X0151234Y0160454D02*
X0147352Y0160454D01*
X0147382Y0160255D02*
X0151244Y0160255D01*
X0151226Y0160057D02*
X0147387Y0160057D01*
X0147364Y0159858D02*
X0151208Y0159858D01*
X0151190Y0159660D02*
X0147341Y0159660D01*
X0147317Y0159461D02*
X0151172Y0159461D01*
X0151154Y0159263D02*
X0147278Y0159263D01*
X0147171Y0159064D02*
X0151136Y0159064D01*
X0151118Y0158866D02*
X0147065Y0158866D01*
X0146958Y0158667D02*
X0151100Y0158667D01*
X0151052Y0158469D02*
X0146749Y0158469D01*
X0146531Y0158270D02*
X0151000Y0158270D01*
X0150949Y0158072D02*
X0146230Y0158072D01*
X0145805Y0157873D02*
X0150898Y0157873D01*
X0150847Y0157675D02*
X0144958Y0157675D01*
X0143867Y0157476D02*
X0150795Y0157476D01*
X0148161Y0154101D02*
X0131683Y0154101D01*
X0132056Y0153903D02*
X0147848Y0153903D01*
X0147534Y0153704D02*
X0132428Y0153704D01*
X0132800Y0153506D02*
X0147057Y0153506D01*
X0146518Y0153307D02*
X0133292Y0153307D01*
X0133921Y0153109D02*
X0145979Y0153109D01*
X0145337Y0152910D02*
X0134549Y0152910D01*
X0135503Y0152712D02*
X0144278Y0152712D01*
X0143219Y0152513D02*
X0136865Y0152513D01*
X0153298Y0149550D02*
X0153298Y0144550D01*
X0157898Y0144550D01*
X0157898Y0149550D01*
X0153298Y0149550D01*
X0153298Y0149536D02*
X0157898Y0149536D01*
X0157898Y0149337D02*
X0153298Y0149337D01*
X0153298Y0149139D02*
X0157898Y0149139D01*
X0157898Y0148940D02*
X0153298Y0148940D01*
X0153298Y0148742D02*
X0157898Y0148742D01*
X0157898Y0148543D02*
X0153298Y0148543D01*
X0153298Y0148345D02*
X0157898Y0148345D01*
X0157898Y0148146D02*
X0153298Y0148146D01*
X0153298Y0147948D02*
X0157898Y0147948D01*
X0157898Y0147749D02*
X0153298Y0147749D01*
X0153298Y0147550D02*
X0157898Y0147550D01*
X0157898Y0147352D02*
X0153298Y0147352D01*
X0153298Y0147153D02*
X0157898Y0147153D01*
X0157898Y0146955D02*
X0153298Y0146955D01*
X0153298Y0146756D02*
X0157898Y0146756D01*
X0157898Y0146558D02*
X0153298Y0146558D01*
X0153298Y0146359D02*
X0157898Y0146359D01*
X0157898Y0146161D02*
X0153298Y0146161D01*
X0153298Y0145962D02*
X0157898Y0145962D01*
X0157898Y0145764D02*
X0153298Y0145764D01*
X0153298Y0145565D02*
X0157898Y0145565D01*
X0157898Y0145367D02*
X0153298Y0145367D01*
X0153298Y0145168D02*
X0157898Y0145168D01*
X0157898Y0144970D02*
X0153298Y0144970D01*
X0153298Y0144771D02*
X0157898Y0144771D01*
X0157898Y0144573D02*
X0153298Y0144573D01*
X0148798Y0140450D02*
X0147798Y0140950D01*
X0146598Y0141250D01*
X0145248Y0141350D01*
X0144398Y0141350D01*
X0144398Y0136850D01*
X0145798Y0136750D01*
X0146798Y0136400D01*
X0147148Y0136100D01*
X0147398Y0135700D01*
X0147598Y0134650D01*
X0147448Y0133750D01*
X0146998Y0133000D01*
X0146298Y0132450D01*
X0145298Y0132250D01*
X0144548Y0132350D01*
X0143898Y0132700D01*
X0143298Y0133350D01*
X0142798Y0134400D01*
X0141698Y0137400D01*
X0141248Y0138500D01*
X0140698Y0139400D01*
X0140098Y0140150D01*
X0139448Y0140750D01*
X0138698Y0141200D01*
X0137798Y0141500D01*
X0136798Y0141700D01*
X0135648Y0141750D01*
X0134098Y0141600D01*
X0132748Y0141200D01*
X0131598Y0140550D01*
X0130698Y0139700D01*
X0129998Y0138650D01*
X0129548Y0137400D01*
X0129298Y0136000D01*
X0129198Y0134500D01*
X0129298Y0132550D01*
X0129598Y0131000D01*
X0130148Y0129750D01*
X0130898Y0128800D01*
X0131848Y0128100D01*
X0132998Y0127650D01*
X0134298Y0127400D01*
X0135748Y0127300D01*
X0136498Y0127300D01*
X0136498Y0131800D01*
X0135798Y0131800D01*
X0135898Y0131950D01*
X0134648Y0132100D01*
X0133698Y0132600D01*
X0133048Y0133400D01*
X0132848Y0134500D01*
X0132998Y0135550D01*
X0133448Y0136350D01*
X0134248Y0136850D01*
X0135348Y0137000D01*
X0136248Y0136850D01*
X0136898Y0136450D01*
X0137348Y0135850D01*
X0137698Y0135150D01*
X0139048Y0131650D01*
X0139998Y0129850D01*
X0140598Y0129150D01*
X0141248Y0128550D01*
X0141998Y0128100D01*
X0142848Y0127750D01*
X0143798Y0127550D01*
X0144848Y0127500D01*
X0146098Y0127600D01*
X0147298Y0127900D01*
X0148398Y0128400D01*
X0149348Y0129150D01*
X0150098Y0130150D01*
X0150698Y0131400D01*
X0151098Y0132900D01*
X0151248Y0134700D01*
X0151148Y0136300D01*
X0150848Y0137650D01*
X0150348Y0138800D01*
X0149648Y0139750D01*
X0148798Y0140450D01*
X0148854Y0140404D02*
X0144398Y0140404D01*
X0144398Y0140206D02*
X0149095Y0140206D01*
X0149336Y0140007D02*
X0144398Y0140007D01*
X0144398Y0139809D02*
X0149577Y0139809D01*
X0149752Y0139610D02*
X0144398Y0139610D01*
X0144398Y0139412D02*
X0149898Y0139412D01*
X0150044Y0139213D02*
X0144398Y0139213D01*
X0144398Y0139014D02*
X0150190Y0139014D01*
X0150337Y0138816D02*
X0144398Y0138816D01*
X0144398Y0138617D02*
X0150428Y0138617D01*
X0150514Y0138419D02*
X0144398Y0138419D01*
X0144398Y0138220D02*
X0150600Y0138220D01*
X0150687Y0138022D02*
X0144398Y0138022D01*
X0144398Y0137823D02*
X0150773Y0137823D01*
X0150854Y0137625D02*
X0144398Y0137625D01*
X0144398Y0137426D02*
X0150898Y0137426D01*
X0150942Y0137228D02*
X0144398Y0137228D01*
X0144398Y0137029D02*
X0150986Y0137029D01*
X0151030Y0136831D02*
X0144666Y0136831D01*
X0146135Y0136632D02*
X0151075Y0136632D01*
X0151119Y0136434D02*
X0146702Y0136434D01*
X0146991Y0136235D02*
X0151152Y0136235D01*
X0151165Y0136037D02*
X0147188Y0136037D01*
X0147312Y0135838D02*
X0151177Y0135838D01*
X0151190Y0135640D02*
X0147410Y0135640D01*
X0147448Y0135441D02*
X0151202Y0135441D01*
X0151215Y0135243D02*
X0147486Y0135243D01*
X0147523Y0135044D02*
X0151227Y0135044D01*
X0151239Y0134846D02*
X0147561Y0134846D01*
X0147598Y0134647D02*
X0151244Y0134647D01*
X0151227Y0134449D02*
X0147565Y0134449D01*
X0147532Y0134250D02*
X0151211Y0134250D01*
X0151194Y0134052D02*
X0147499Y0134052D01*
X0147466Y0133853D02*
X0151178Y0133853D01*
X0151161Y0133655D02*
X0147391Y0133655D01*
X0147272Y0133456D02*
X0151145Y0133456D01*
X0151128Y0133258D02*
X0147153Y0133258D01*
X0147034Y0133059D02*
X0151112Y0133059D01*
X0151088Y0132861D02*
X0146821Y0132861D01*
X0146568Y0132662D02*
X0151035Y0132662D01*
X0150982Y0132464D02*
X0146316Y0132464D01*
X0145374Y0132265D02*
X0150929Y0132265D01*
X0150876Y0132067D02*
X0138888Y0132067D01*
X0138811Y0132265D02*
X0145185Y0132265D01*
X0144337Y0132464D02*
X0138735Y0132464D01*
X0138658Y0132662D02*
X0143969Y0132662D01*
X0143750Y0132861D02*
X0138581Y0132861D01*
X0138505Y0133059D02*
X0143567Y0133059D01*
X0143384Y0133258D02*
X0138428Y0133258D01*
X0138352Y0133456D02*
X0143248Y0133456D01*
X0143153Y0133655D02*
X0138275Y0133655D01*
X0138199Y0133853D02*
X0143059Y0133853D01*
X0142964Y0134052D02*
X0138122Y0134052D01*
X0138045Y0134250D02*
X0142870Y0134250D01*
X0142781Y0134449D02*
X0137969Y0134449D01*
X0137892Y0134647D02*
X0142708Y0134647D01*
X0142635Y0134846D02*
X0137816Y0134846D01*
X0137739Y0135044D02*
X0142562Y0135044D01*
X0142489Y0135243D02*
X0137652Y0135243D01*
X0137553Y0135441D02*
X0142417Y0135441D01*
X0142344Y0135640D02*
X0137454Y0135640D01*
X0137354Y0135838D02*
X0142271Y0135838D01*
X0142198Y0136037D02*
X0137208Y0136037D01*
X0137059Y0136235D02*
X0142125Y0136235D01*
X0142053Y0136434D02*
X0136911Y0136434D01*
X0136602Y0136632D02*
X0141980Y0136632D01*
X0141907Y0136831D02*
X0136280Y0136831D01*
X0134218Y0136831D02*
X0129447Y0136831D01*
X0129482Y0137029D02*
X0141834Y0137029D01*
X0141762Y0137228D02*
X0129518Y0137228D01*
X0129558Y0137426D02*
X0141688Y0137426D01*
X0141606Y0137625D02*
X0129629Y0137625D01*
X0129701Y0137823D02*
X0141525Y0137823D01*
X0141444Y0138022D02*
X0129772Y0138022D01*
X0129844Y0138220D02*
X0141363Y0138220D01*
X0141282Y0138419D02*
X0129915Y0138419D01*
X0129987Y0138617D02*
X0141177Y0138617D01*
X0141055Y0138816D02*
X0130109Y0138816D01*
X0130241Y0139014D02*
X0140934Y0139014D01*
X0140813Y0139213D02*
X0130374Y0139213D01*
X0130506Y0139412D02*
X0140689Y0139412D01*
X0140530Y0139610D02*
X0130638Y0139610D01*
X0130813Y0139809D02*
X0140372Y0139809D01*
X0140213Y0140007D02*
X0131024Y0140007D01*
X0131234Y0140206D02*
X0140038Y0140206D01*
X0139823Y0140404D02*
X0131444Y0140404D01*
X0131691Y0140603D02*
X0139608Y0140603D01*
X0139363Y0140801D02*
X0132043Y0140801D01*
X0132394Y0141000D02*
X0139032Y0141000D01*
X0138702Y0141198D02*
X0132745Y0141198D01*
X0133412Y0141397D02*
X0138109Y0141397D01*
X0137323Y0141595D02*
X0134082Y0141595D01*
X0133900Y0136632D02*
X0129411Y0136632D01*
X0129376Y0136434D02*
X0133583Y0136434D01*
X0133384Y0136235D02*
X0129340Y0136235D01*
X0129305Y0136037D02*
X0133272Y0136037D01*
X0133161Y0135838D02*
X0129288Y0135838D01*
X0129274Y0135640D02*
X0133049Y0135640D01*
X0132983Y0135441D02*
X0129261Y0135441D01*
X0129248Y0135243D02*
X0132955Y0135243D01*
X0132926Y0135044D02*
X0129235Y0135044D01*
X0129221Y0134846D02*
X0132898Y0134846D01*
X0132869Y0134647D02*
X0129208Y0134647D01*
X0129201Y0134449D02*
X0132858Y0134449D01*
X0132894Y0134250D02*
X0129211Y0134250D01*
X0129221Y0134052D02*
X0132930Y0134052D01*
X0132966Y0133853D02*
X0129232Y0133853D01*
X0129242Y0133655D02*
X0133002Y0133655D01*
X0133038Y0133456D02*
X0129252Y0133456D01*
X0129262Y0133258D02*
X0133164Y0133258D01*
X0133325Y0133059D02*
X0129272Y0133059D01*
X0129282Y0132861D02*
X0133487Y0132861D01*
X0133648Y0132662D02*
X0129293Y0132662D01*
X0129315Y0132464D02*
X0133958Y0132464D01*
X0134335Y0132265D02*
X0129354Y0132265D01*
X0129392Y0132067D02*
X0134927Y0132067D01*
X0135844Y0131868D02*
X0129430Y0131868D01*
X0129469Y0131670D02*
X0136498Y0131670D01*
X0136498Y0131471D02*
X0129507Y0131471D01*
X0129546Y0131273D02*
X0136498Y0131273D01*
X0136498Y0131074D02*
X0129584Y0131074D01*
X0129653Y0130876D02*
X0136498Y0130876D01*
X0136498Y0130677D02*
X0129741Y0130677D01*
X0129828Y0130479D02*
X0136498Y0130479D01*
X0136498Y0130280D02*
X0129915Y0130280D01*
X0130003Y0130081D02*
X0136498Y0130081D01*
X0136498Y0129883D02*
X0130090Y0129883D01*
X0130200Y0129684D02*
X0136498Y0129684D01*
X0136498Y0129486D02*
X0130357Y0129486D01*
X0130514Y0129287D02*
X0136498Y0129287D01*
X0136498Y0129089D02*
X0130670Y0129089D01*
X0130827Y0128890D02*
X0136498Y0128890D01*
X0136498Y0128692D02*
X0131045Y0128692D01*
X0131315Y0128493D02*
X0136498Y0128493D01*
X0136498Y0128295D02*
X0131584Y0128295D01*
X0131858Y0128096D02*
X0136498Y0128096D01*
X0136498Y0127898D02*
X0132365Y0127898D01*
X0132872Y0127699D02*
X0136498Y0127699D01*
X0136498Y0127501D02*
X0133774Y0127501D01*
X0135715Y0127302D02*
X0136498Y0127302D01*
X0139981Y0129883D02*
X0149898Y0129883D01*
X0149749Y0129684D02*
X0140140Y0129684D01*
X0140310Y0129486D02*
X0149600Y0129486D01*
X0149452Y0129287D02*
X0140481Y0129287D01*
X0140665Y0129089D02*
X0149271Y0129089D01*
X0149020Y0128890D02*
X0140880Y0128890D01*
X0141095Y0128692D02*
X0148768Y0128692D01*
X0148517Y0128493D02*
X0141343Y0128493D01*
X0141674Y0128295D02*
X0148167Y0128295D01*
X0147730Y0128096D02*
X0142007Y0128096D01*
X0142489Y0127898D02*
X0147290Y0127898D01*
X0146496Y0127699D02*
X0143089Y0127699D01*
X0144831Y0127501D02*
X0144859Y0127501D01*
X0139876Y0130081D02*
X0150047Y0130081D01*
X0150161Y0130280D02*
X0139771Y0130280D01*
X0139667Y0130479D02*
X0150256Y0130479D01*
X0150351Y0130677D02*
X0139562Y0130677D01*
X0139457Y0130876D02*
X0150447Y0130876D01*
X0150542Y0131074D02*
X0139352Y0131074D01*
X0139248Y0131273D02*
X0150637Y0131273D01*
X0150717Y0131471D02*
X0139143Y0131471D01*
X0139041Y0131670D02*
X0150770Y0131670D01*
X0150823Y0131868D02*
X0138964Y0131868D01*
X0144398Y0140603D02*
X0148493Y0140603D01*
X0148096Y0140801D02*
X0144398Y0140801D01*
X0144398Y0141000D02*
X0147600Y0141000D01*
X0146806Y0141198D02*
X0144398Y0141198D01*
X0144794Y0167203D02*
X0143098Y0167203D01*
X0079131Y0097526D02*
X0069798Y0097526D01*
X0069798Y0097327D02*
X0078091Y0097327D01*
X0078585Y0097129D02*
X0069798Y0097129D01*
D13*
X0224469Y0071257D02*
X0224469Y0069873D01*
X0227238Y0067104D01*
X0227238Y0062950D01*
X0232756Y0062950D02*
X0238294Y0062950D01*
X0238294Y0071257D01*
X0241043Y0071257D02*
X0241043Y0062950D01*
X0246581Y0071257D01*
X0246581Y0062950D01*
X0249330Y0064335D02*
X0249330Y0069873D01*
X0250714Y0071257D01*
X0253484Y0071257D01*
X0254868Y0069873D01*
X0254868Y0064335D01*
X0253484Y0062950D01*
X0250714Y0062950D01*
X0249330Y0064335D01*
X0230007Y0069873D02*
X0227238Y0067104D01*
X0230007Y0069873D02*
X0230007Y0071257D01*
X0265904Y0069873D02*
X0267289Y0071257D01*
X0270058Y0071257D01*
X0271442Y0069873D01*
X0271442Y0068488D01*
X0270058Y0067104D01*
X0267289Y0067104D01*
X0265904Y0065719D01*
X0265904Y0064335D01*
X0267289Y0062950D01*
X0270058Y0062950D01*
X0271442Y0064335D01*
X0276960Y0062950D02*
X0276960Y0071257D01*
X0279729Y0071257D02*
X0274191Y0071257D01*
X0282478Y0071257D02*
X0282478Y0064335D01*
X0283863Y0062950D01*
X0286632Y0062950D01*
X0288016Y0064335D01*
X0288016Y0071257D01*
X0290765Y0069873D02*
X0290765Y0067104D01*
X0292150Y0065719D01*
X0296303Y0065719D01*
X0296303Y0062950D02*
X0296303Y0071257D01*
X0292150Y0071257D01*
X0290765Y0069873D01*
X0299052Y0071257D02*
X0304591Y0071257D01*
X0307340Y0071257D02*
X0307340Y0064335D01*
X0308724Y0062950D01*
X0311493Y0062950D01*
X0312878Y0064335D01*
X0312878Y0071257D01*
X0315627Y0069873D02*
X0317011Y0071257D01*
X0319780Y0071257D01*
X0321165Y0069873D01*
X0321165Y0064335D01*
X0319780Y0062950D01*
X0317011Y0062950D01*
X0315627Y0064335D01*
X0315627Y0069873D01*
X0301821Y0071257D02*
X0301821Y0062950D01*
X0332201Y0062950D02*
X0334970Y0065719D01*
X0333585Y0065719D02*
X0337739Y0065719D01*
X0333585Y0065719D02*
X0332201Y0067104D01*
X0332201Y0069873D01*
X0333585Y0071257D01*
X0337739Y0071257D01*
X0337739Y0062950D01*
X0340488Y0062950D02*
X0346026Y0062950D01*
X0346026Y0071257D01*
X0340488Y0071257D01*
X0343257Y0067104D02*
X0346026Y0067104D01*
X0348775Y0064335D02*
X0348775Y0069873D01*
X0350159Y0071257D01*
X0354313Y0071257D01*
X0354313Y0062950D01*
X0350159Y0062950D01*
X0348775Y0064335D01*
X0357062Y0062950D02*
X0357062Y0071257D01*
X0362600Y0071257D02*
X0357062Y0062950D01*
X0362600Y0062950D02*
X0362600Y0071257D01*
X0365349Y0068488D02*
X0365349Y0062950D01*
X0370887Y0062950D02*
X0370887Y0068488D01*
X0368118Y0071257D01*
X0365349Y0068488D01*
X0365349Y0067104D02*
X0370887Y0067104D01*
X0373636Y0067104D02*
X0375021Y0065719D01*
X0379174Y0065719D01*
X0373636Y0067104D02*
X0373636Y0069873D01*
X0375021Y0071257D01*
X0379174Y0071257D01*
X0379174Y0062950D01*
X0381923Y0062950D02*
X0387461Y0071257D01*
X0390210Y0071257D02*
X0395748Y0071257D01*
X0395748Y0062950D01*
X0390210Y0062950D01*
X0387461Y0062950D02*
X0381923Y0071257D01*
X0392979Y0067104D02*
X0395748Y0067104D01*
D14*
X0330952Y0034853D02*
X0329451Y0036354D01*
X0329451Y0031850D01*
X0330952Y0031850D02*
X0327950Y0031850D01*
X0302556Y0006853D02*
X0301055Y0008354D01*
X0301055Y0003850D01*
X0302556Y0003850D02*
X0299554Y0003850D01*
X0297952Y0004601D02*
X0297202Y0003850D01*
X0295700Y0003850D01*
X0294950Y0004601D01*
X0294950Y0005351D01*
X0295700Y0006102D01*
X0297952Y0006102D01*
X0297952Y0004601D01*
X0297952Y0006102D02*
X0296451Y0007603D01*
X0294950Y0008354D01*
X0230952Y0031850D02*
X0227950Y0031850D01*
X0229451Y0031850D02*
X0229451Y0036354D01*
X0230952Y0034853D01*
X0109811Y0034933D02*
X0107309Y0036601D01*
X0109811Y0036601D01*
X0109811Y0037695D02*
X0109811Y0038946D01*
X0109394Y0039363D01*
X0107726Y0039363D01*
X0107309Y0038946D01*
X0107309Y0037695D01*
X0109811Y0037695D01*
X0109811Y0034933D02*
X0107309Y0034933D01*
X0107726Y0033838D02*
X0108560Y0033838D01*
X0108560Y0033004D01*
X0109394Y0032170D02*
X0107726Y0032170D01*
X0107309Y0032587D01*
X0107309Y0033421D01*
X0107726Y0033838D01*
X0109394Y0033838D02*
X0109811Y0033421D01*
X0109811Y0032587D01*
X0109394Y0032170D01*
X0099884Y0032480D02*
X0099467Y0032063D01*
X0097799Y0032063D01*
X0097382Y0032480D01*
X0097382Y0033314D01*
X0097799Y0033731D01*
X0098633Y0033731D01*
X0098633Y0032897D01*
X0099467Y0033731D02*
X0099884Y0033314D01*
X0099884Y0032480D01*
X0099884Y0034825D02*
X0097382Y0034825D01*
X0097382Y0036493D02*
X0099884Y0036493D01*
X0099884Y0037588D02*
X0099884Y0038839D01*
X0099467Y0039256D01*
X0097799Y0039256D01*
X0097382Y0038839D01*
X0097382Y0037588D01*
X0099884Y0037588D01*
X0097382Y0036493D02*
X0099884Y0034825D01*
X0089957Y0034718D02*
X0087455Y0036386D01*
X0089957Y0036386D01*
X0089957Y0037480D02*
X0089957Y0038731D01*
X0089540Y0039148D01*
X0087872Y0039148D01*
X0087455Y0038731D01*
X0087455Y0037480D01*
X0089957Y0037480D01*
X0089957Y0034718D02*
X0087455Y0034718D01*
X0087872Y0033624D02*
X0088706Y0033624D01*
X0088706Y0032790D01*
X0087872Y0033624D02*
X0087455Y0033207D01*
X0087455Y0032373D01*
X0087872Y0031955D01*
X0089540Y0031955D01*
X0089957Y0032373D01*
X0089957Y0033207D01*
X0089540Y0033624D01*
X0394950Y0008354D02*
X0396451Y0007603D01*
X0397952Y0006102D01*
X0395700Y0006102D01*
X0394950Y0005351D01*
X0394950Y0004601D01*
X0395700Y0003850D01*
X0397202Y0003850D01*
X0397952Y0004601D01*
X0397952Y0006102D01*
X0399554Y0003850D02*
X0402556Y0003850D01*
X0401055Y0003850D02*
X0401055Y0008354D01*
X0402556Y0006853D01*
D15*
X0400656Y0032350D02*
X0396152Y0032350D01*
X0393900Y0034602D01*
X0393900Y0039106D01*
X0398404Y0039106D01*
X0402907Y0043610D02*
X0402907Y0034602D01*
X0400656Y0032350D01*
X0389096Y0032350D02*
X0389096Y0041358D01*
X0384592Y0045862D01*
X0380088Y0041358D01*
X0380088Y0032350D01*
X0370780Y0032350D02*
X0370780Y0045862D01*
X0375284Y0045862D02*
X0366276Y0045862D01*
X0361472Y0045862D02*
X0361472Y0032350D01*
X0352464Y0032350D01*
X0347660Y0034602D02*
X0345408Y0032350D01*
X0340904Y0032350D01*
X0338653Y0034602D01*
X0338653Y0036854D01*
X0340904Y0039106D01*
X0345408Y0039106D01*
X0347660Y0041358D01*
X0347660Y0043610D01*
X0345408Y0045862D01*
X0340904Y0045862D01*
X0338653Y0043610D01*
X0352464Y0045862D02*
X0361472Y0045862D01*
X0361472Y0039106D02*
X0356968Y0039106D01*
X0380088Y0039106D02*
X0389096Y0039106D01*
X0393900Y0043610D02*
X0396152Y0045862D01*
X0400656Y0045862D01*
X0402907Y0043610D01*
X0301719Y0046862D02*
X0301719Y0033350D01*
X0287907Y0035602D02*
X0285656Y0033350D01*
X0281152Y0033350D01*
X0278900Y0035602D01*
X0278900Y0046862D01*
X0274096Y0046862D02*
X0274096Y0033350D01*
X0265088Y0033350D01*
X0260284Y0035602D02*
X0258032Y0033350D01*
X0253528Y0033350D01*
X0251276Y0035602D01*
X0251276Y0037854D01*
X0253528Y0040106D01*
X0258032Y0040106D01*
X0260284Y0042358D01*
X0260284Y0044610D01*
X0258032Y0046862D01*
X0253528Y0046862D01*
X0251276Y0044610D01*
X0246472Y0046862D02*
X0246472Y0033350D01*
X0237464Y0033350D01*
X0232660Y0035602D02*
X0230408Y0033350D01*
X0225904Y0033350D01*
X0223653Y0035602D01*
X0223653Y0037854D01*
X0225904Y0040106D01*
X0230408Y0040106D01*
X0232660Y0042358D01*
X0232660Y0044610D01*
X0230408Y0046862D01*
X0225904Y0046862D01*
X0223653Y0044610D01*
X0237464Y0046862D02*
X0246472Y0046862D01*
X0246472Y0040106D02*
X0241968Y0040106D01*
X0287907Y0035602D02*
X0287907Y0046862D01*
X0292712Y0044610D02*
X0292712Y0040106D01*
X0294963Y0037854D01*
X0301719Y0037854D01*
X0292712Y0044610D02*
X0294963Y0046862D01*
X0301719Y0046862D01*
D16*
X0121561Y0037757D02*
X0118158Y0037757D01*
X0119859Y0036056D02*
X0119859Y0039459D01*
X0078600Y0038428D02*
X0078600Y0035025D01*
D17*
X0072902Y0030300D02*
X0068798Y0030300D01*
X0070166Y0030300D02*
X0070166Y0032352D01*
X0070850Y0033036D01*
X0072218Y0033036D01*
X0072902Y0032352D01*
X0072902Y0030300D01*
X0070166Y0031668D02*
X0068798Y0033036D01*
X0068798Y0034444D02*
X0068798Y0037179D01*
X0068798Y0038587D02*
X0068798Y0040639D01*
X0069482Y0041323D01*
X0072218Y0041323D01*
X0072902Y0040639D01*
X0072902Y0038587D01*
X0068798Y0038587D01*
X0070850Y0035811D02*
X0070850Y0034444D01*
X0072902Y0034444D02*
X0068798Y0034444D01*
X0072902Y0034444D02*
X0072902Y0037179D01*
X0072902Y0042731D02*
X0070850Y0045466D01*
X0068798Y0042731D01*
X0068798Y0046874D02*
X0072902Y0046874D01*
X0072902Y0048926D01*
X0072218Y0049610D01*
X0070850Y0049610D01*
X0070166Y0048926D01*
X0070166Y0046874D01*
X0070166Y0048242D02*
X0068798Y0049610D01*
X0068798Y0051018D02*
X0068798Y0053753D01*
X0068798Y0055161D02*
X0068798Y0057213D01*
X0069482Y0057897D01*
X0072218Y0057897D01*
X0072902Y0057213D01*
X0072902Y0055161D01*
X0068798Y0055161D01*
X0072902Y0053753D02*
X0072902Y0051018D01*
X0068798Y0051018D01*
X0070850Y0051018D02*
X0070850Y0052386D01*
X0068798Y0059305D02*
X0070850Y0062040D01*
X0072902Y0059305D01*
X0072902Y0063448D02*
X0068798Y0063448D01*
X0070166Y0063448D02*
X0070166Y0065500D01*
X0070850Y0066184D01*
X0072218Y0066184D01*
X0072902Y0065500D01*
X0072902Y0063448D01*
X0070166Y0064816D02*
X0068798Y0066184D01*
X0068798Y0067592D02*
X0068798Y0070328D01*
X0068798Y0071735D02*
X0068798Y0073787D01*
X0069482Y0074471D01*
X0072218Y0074471D01*
X0072902Y0073787D01*
X0072902Y0071735D01*
X0068798Y0071735D01*
X0072902Y0070328D02*
X0072902Y0067592D01*
X0068798Y0067592D01*
X0070850Y0067592D02*
X0070850Y0068960D01*
M02*
